<svg width="57" height="54" viewBox="0 0 57 54" fill="none" xmlns="http://www.w3.org/2000/svg">
<path opacity="0.4" d="M25.5992 49.2427L25.8432 51.2278L25.8561 51.2261L25.5992 49.2427ZM19.5852 48.3369L18.7554 50.1567L18.7673 50.162L19.5852 48.3369ZM5.57253 29.3547L3.58743 29.5987L3.5891 29.6116L5.57253 29.3547ZM6.49229 23.3596L8.3121 24.1894L8.31742 24.1775L6.49229 23.3596ZM16.6829 15.8369L16.9196 17.8229L16.9297 17.8217L16.9398 17.8203L16.6829 15.8369ZM22.683 16.7238L21.8651 18.5489L21.8651 18.5489L22.683 16.7238ZM36.6956 35.706L34.7105 35.95L36.6956 35.706ZM35.7898 41.72L37.6126 42.5431L37.6149 42.5378L35.7898 41.72ZM30.5217 39.767L32.3569 40.5621L32.3616 40.5511L32.3662 40.54L30.5217 39.767ZM31.0067 36.5464L32.9962 36.3413L32.9955 36.3342L32.9947 36.3272L31.0067 36.5464ZM20.1902 21.8938L19.3952 23.729L19.4017 23.7318L19.4082 23.7346L20.1902 21.8938ZM16.9696 21.4088L17.165 23.3992L17.1769 23.398L17.1888 23.3967L16.9696 21.4088ZM11.7514 25.2608L13.5866 26.0559L13.5913 26.0449L13.596 26.0339L11.7514 25.2608ZM11.2663 28.4814L13.2558 28.2763L13.2551 28.2693L13.2543 28.2622L11.2663 28.4814ZM22.0829 43.134L21.2878 44.9692L21.2943 44.972L21.3008 44.9748L22.0829 43.134ZM25.3035 43.6191L25.4989 45.6095L25.5108 45.6083L25.5227 45.607L25.3035 43.6191ZM30.4233 45.0942C28.7287 46.3452 27.039 47.0395 25.3423 47.2593L25.8561 51.2261C28.3183 50.9072 30.6367 49.9086 32.7989 48.3124L30.4233 45.0942ZM25.3552 47.2576C23.6283 47.4699 21.9908 47.2233 20.403 46.5118L18.7673 50.162C21.0206 51.1717 23.3924 51.529 25.8432 51.2278L25.3552 47.2576ZM20.4149 46.5171C18.8582 45.8073 17.448 44.6462 16.197 42.9515L12.9788 45.3271C14.575 47.4894 16.4964 49.1266 18.7554 50.1567L20.4149 46.5171ZM16.197 42.9515L9.72102 34.1789L6.50288 36.5545L12.9788 45.3271L16.197 42.9515ZM9.72102 34.1789C8.47003 32.4842 7.77574 30.7946 7.55597 29.0978L3.5891 29.6116C3.90803 32.0739 4.90668 34.3922 6.50288 36.5545L9.72102 34.1789ZM7.5576 29.1107C7.3457 27.3868 7.59584 25.7602 8.31206 24.1894L4.67252 22.5299C3.64891 24.7749 3.28588 27.145 3.58747 29.5987L7.5576 29.1107ZM8.31742 24.1775C9.01863 22.6127 10.1732 21.2005 11.8637 19.9525L9.4881 16.7344C7.3217 18.3336 5.68718 20.2655 4.66716 22.5418L8.31742 24.1775ZM11.8637 19.9525C13.5546 18.7043 15.2355 18.0236 16.9196 17.8229L16.4462 13.851C13.9779 14.1451 11.6542 15.1354 9.4881 16.7344L11.8637 19.9525ZM16.9398 17.8203C18.6519 17.5986 20.2801 17.8387 21.8651 18.5489L23.5008 14.8987C21.2448 13.8877 18.8729 13.5365 16.426 13.8535L16.9398 17.8203ZM21.8651 18.5489C23.4299 19.2501 24.8421 20.4047 26.0901 22.0952L29.3082 19.7196C27.709 17.5532 25.7771 15.9187 23.5008 14.8987L21.8651 18.5489ZM26.0901 22.0952L32.566 30.8679L35.7842 28.4923L29.3082 19.7196L26.0901 22.0952ZM32.566 30.8679C33.814 32.5584 34.5013 34.2481 34.7105 35.95L38.6807 35.462C38.3764 32.9863 37.3834 30.6586 35.7842 28.4923L32.566 30.8679ZM34.7105 35.95C34.9228 37.6769 34.6762 39.3143 33.9647 40.9021L37.6149 42.5378C38.6246 40.2846 38.9819 37.9127 38.6807 35.462L34.7105 35.95ZM33.967 40.8969C33.2706 42.4392 32.1183 43.843 30.4233 45.0942L32.7989 48.3124C34.9609 46.7164 36.5944 44.798 37.6126 42.543L33.967 40.8969ZM29.6028 43.9827C30.8269 43.0792 31.7616 41.936 32.3569 40.5621L28.6865 38.9719C28.3887 39.6593 27.919 40.2539 27.2272 40.7646L29.6028 43.9827ZM32.3662 40.54C32.9302 39.1942 33.145 37.7848 32.9962 36.3413L29.0173 36.7515C29.0961 37.5157 28.9875 38.2533 28.6771 38.994L32.3662 40.54ZM32.9947 36.3272C32.8306 34.8389 32.274 33.4711 31.3704 32.247L28.1523 34.6227C28.663 35.3145 28.9367 36.0211 29.0188 36.7656L32.9947 36.3272ZM31.3704 32.247L24.406 22.8127L21.1878 25.1883L28.1523 34.6227L31.3704 32.247ZM24.406 22.8127C23.4963 21.5803 22.3511 20.6388 20.9723 20.0531L19.4082 23.7346C20.072 24.0166 20.6646 24.4796 21.1878 25.1883L24.406 22.8127ZM20.9853 20.0586C19.6356 19.4739 18.2124 19.2596 16.7504 19.4208L17.1888 23.3967C17.9597 23.3117 18.6836 23.4207 19.3952 23.729L20.9853 20.0586ZM16.7742 19.4183C15.2701 19.566 13.8886 20.1165 12.6563 21.0262L15.0319 24.2443C15.7154 23.7397 16.4176 23.4726 17.165 23.3992L16.7742 19.4183ZM12.6563 21.0262C11.424 21.9359 10.491 23.0939 9.90684 24.4878L13.596 26.0339C13.8862 25.3412 14.3484 24.7489 15.0319 24.2443L12.6563 21.0262ZM9.91623 24.4658C9.33149 25.8155 9.11714 27.2386 9.27838 28.7007L13.2543 28.2622C13.1693 27.4914 13.2783 26.7675 13.5866 26.0559L9.91623 24.4658ZM9.27688 28.6866C9.43054 30.1768 9.99296 31.5485 10.9027 32.7808L14.1208 30.4052C13.5976 29.6964 13.3298 28.9938 13.2558 28.2763L9.27688 28.6866ZM10.9027 32.7808L17.8671 42.2152L21.0853 39.8395L14.1208 30.4052L10.9027 32.7808ZM17.8671 42.2152C18.7707 43.4392 19.9139 44.374 21.2878 44.9692L22.8779 41.2988C22.1906 41.0011 21.596 40.5314 21.0853 39.8395L17.8671 42.2152ZM21.3008 44.9748C22.6365 45.5422 24.0467 45.7521 25.4989 45.6095L25.1081 41.6287C24.3088 41.7071 23.5719 41.5936 22.8649 41.2932L21.3008 44.9748ZM25.5227 45.607C27.011 45.4429 28.3788 44.8863 29.6028 43.9827L27.2272 40.7646C26.5354 41.2753 25.8288 41.549 25.0842 41.6311L25.5227 45.607ZM51.0142 31.5037L49.4051 32.6915L50.5929 34.3006L52.202 33.1127L51.0142 31.5037ZM34.587 9.25067L36.1961 8.06286L34.0781 5.1938L32.7344 8.49707L34.587 9.25067ZM31.7851 16.1386L30.176 17.3264L32.294 20.1955L33.6377 16.8922L31.7851 16.1386ZM28.0726 11.1095L26.2262 10.3408L25.791 11.3862L26.4635 12.2973L28.0726 11.1095ZM30.9164 4.27825L29.7285 2.66919L29.2829 2.99819L29.07 3.50961L30.9164 4.27825ZM35.5674 0.844879L37.1764 -0.342934L35.9886 -1.952L34.3795 -0.764188L35.5674 0.844879ZM55.6652 28.0703L56.853 29.6794L58.4621 28.4916L57.2742 26.8825L55.6652 28.0703ZM52.6232 30.3159L36.1961 8.06286L32.9779 10.4385L49.4051 32.6915L52.6232 30.3159ZM32.7344 8.49707L29.9325 15.385L33.6377 16.8922L36.4396 10.0043L32.7344 8.49707ZM33.3942 14.9508L29.6817 9.92164L26.4635 12.2973L30.176 17.3264L33.3942 14.9508ZM29.919 11.8781L32.7628 5.04689L29.07 3.50961L26.2262 10.3408L29.919 11.8781ZM32.1042 5.88732L36.7552 2.45395L34.3795 -0.764188L29.7285 2.66919L32.1042 5.88732ZM33.9583 2.03269L54.0561 29.2581L57.2742 26.8825L37.1764 -0.342934L33.9583 2.03269ZM54.4774 26.4612L49.8263 29.8946L52.202 33.1127L56.853 29.6794L54.4774 26.4612Z" fill="#FF8C00"/>
</svg>
