<svg width="65" height="61" viewBox="0 0 65 61" fill="none" xmlns="http://www.w3.org/2000/svg">
<path opacity="0.4" d="M25.4424 55.5161L25.6864 57.5012L25.6993 57.4996L25.4424 55.5161ZM19.4284 54.6103L18.5987 56.4301L18.6106 56.4354L19.4284 54.6103ZM5.41579 35.6281L3.43069 35.8721L3.43236 35.8851L5.41579 35.6281ZM6.33555 29.6331L8.15536 30.4628L8.16068 30.4509L6.33555 29.6331ZM16.5262 22.1103L16.7629 24.0963L16.773 24.0951L16.7831 24.0938L16.5262 22.1103ZM22.5262 22.9972L21.7083 24.8224L21.7083 24.8224L22.5262 22.9972ZM36.5389 41.9794L34.5538 42.2234L36.5389 41.9794ZM35.6331 47.9934L37.4558 48.8165L37.4582 48.8113L35.6331 47.9934ZM30.3649 46.0404L32.2001 46.8355L32.2049 46.8245L32.2095 46.8135L30.3649 46.0404ZM30.85 42.8198L32.8395 42.6147L32.8387 42.6076L32.838 42.6006L30.85 42.8198ZM20.0335 28.1672L19.2384 30.0024L19.2449 30.0052L19.2514 30.008L20.0335 28.1672ZM16.8129 27.6822L17.0083 29.6726L17.0202 29.6714L17.0321 29.6701L16.8129 27.6822ZM11.5947 31.5343L13.4298 32.3293L13.4346 32.3183L13.4392 32.3073L11.5947 31.5343ZM11.1096 34.7549L13.099 34.5497L13.0983 34.5427L13.0975 34.5356L11.1096 34.7549ZM21.9261 49.4074L21.1311 51.2426L21.1376 51.2454L21.1441 51.2482L21.9261 49.4074ZM25.1467 49.8925L25.3421 51.8829L25.3541 51.8818L25.366 51.8805L25.1467 49.8925ZM30.2666 51.3676C28.5719 52.6186 26.8823 53.3129 25.1855 53.5327L25.6993 57.4996C28.1616 57.1806 30.4799 56.182 32.6422 54.5858L30.2666 51.3676ZM25.1984 53.5311C23.4715 53.7433 21.8341 53.4967 20.2463 52.7852L18.6106 56.4354C20.8638 57.4452 23.2357 57.8024 25.6864 57.5012L25.1984 53.5311ZM20.2582 52.7905C18.7014 52.0808 17.2912 50.9196 16.0402 49.2249L12.8221 51.6006C14.4183 53.7628 16.3396 55.4001 18.5987 56.4301L20.2582 52.7905ZM16.0402 49.2249L9.56427 40.4523L6.34614 42.8279L12.8221 51.6006L16.0402 49.2249ZM9.56427 40.4523C8.31329 38.7576 7.61899 37.068 7.39922 35.3712L3.43236 35.8851C3.75129 38.3473 4.74993 40.6656 6.34614 42.8279L9.56427 40.4523ZM7.40085 35.3842C7.18896 33.6602 7.4391 32.0336 8.15532 30.4628L4.51578 28.8033C3.49217 31.0483 3.12914 33.4184 3.43073 35.8721L7.40085 35.3842ZM8.16068 30.4509C8.86189 28.8861 10.0164 27.4739 11.707 26.226L9.33135 23.0078C7.16496 24.6071 5.53043 26.539 4.51042 28.8152L8.16068 30.4509ZM11.707 26.226C13.3978 24.9778 15.0787 24.297 16.7629 24.0963L16.2895 20.1244C13.8212 20.4186 11.4974 21.4088 9.33135 23.0078L11.707 26.226ZM16.7831 24.0938C18.4952 23.872 20.1233 24.1121 21.7083 24.8224L23.3441 21.1721C21.0881 20.1612 18.7162 19.81 16.2693 20.1269L16.7831 24.0938ZM21.7083 24.8224C23.2731 25.5236 24.6854 26.6781 25.9333 28.3687L29.1515 25.993C27.5522 23.8266 25.6203 22.1921 23.3441 21.1721L21.7083 24.8224ZM25.9333 28.3687L32.4093 37.1413L35.6274 34.7657L29.1515 25.993L25.9333 28.3687ZM32.4093 37.1413C33.6572 38.8318 34.3446 40.5215 34.5538 42.2234L38.5239 41.7354C38.2196 39.2597 37.2266 36.9321 35.6274 34.7657L32.4093 37.1413ZM34.5538 42.2234C34.7661 43.9503 34.5194 45.5878 33.8079 47.1755L37.4582 48.8113C38.4679 46.558 38.8251 44.1861 38.5239 41.7354L34.5538 42.2234ZM33.8103 47.1703C33.1139 48.7126 31.9616 50.1164 30.2666 51.3676L32.6422 54.5858C34.8042 52.9898 36.4376 51.0714 37.4558 48.8165L33.8103 47.1703ZM29.4461 50.2562C30.6701 49.3526 31.6049 48.2094 32.2001 46.8355L28.5298 45.2454C28.232 45.9327 27.7623 46.5273 27.0705 47.038L29.4461 50.2562ZM32.2095 46.8135C32.7735 45.4677 32.9883 44.0582 32.8395 42.6147L28.8606 43.025C28.9393 43.7891 28.8308 44.5267 28.5204 45.2674L32.2095 46.8135ZM32.838 42.6006C32.6738 41.1123 32.1173 39.7445 31.2137 38.5205L27.9955 40.8961C28.5062 41.5879 28.7799 42.2945 28.8621 43.0391L32.838 42.6006ZM31.2137 38.5205L24.2492 29.0861L21.0311 31.4617L27.9955 40.8961L31.2137 38.5205ZM24.2492 29.0861C23.3395 27.8538 22.1943 26.9123 20.8155 26.3265L19.2514 30.008C19.9153 30.2901 20.5079 30.753 21.0311 31.4617L24.2492 29.0861ZM20.8285 26.3321C19.4788 25.7473 18.0557 25.533 16.5936 25.6942L17.0321 29.6701C17.8029 29.5851 18.5268 29.6942 19.2384 30.0024L20.8285 26.3321ZM16.6175 25.6917C15.1134 25.8394 13.7319 26.3899 12.4996 27.2996L14.8752 30.5177C15.5587 30.0132 16.2609 29.746 17.0083 29.6726L16.6175 25.6917ZM12.4996 27.2996C11.2672 28.2093 10.3342 29.3674 9.75009 30.7612L13.4392 32.3073C13.7295 31.6147 14.1917 31.0223 14.8752 30.5177L12.4996 27.2996ZM9.75948 30.7392C9.17474 32.0889 8.9604 33.512 9.12164 34.9741L13.0975 34.5356C13.0125 33.7648 13.1216 33.0409 13.4298 32.3293L9.75948 30.7392ZM9.12014 34.96C9.27379 36.4502 9.83622 37.8219 10.7459 39.0542L13.9641 36.6786C13.4409 35.9699 13.173 35.2672 13.099 34.5497L9.12014 34.96ZM10.7459 39.0542L17.7104 48.4886L20.9285 46.113L13.9641 36.6786L10.7459 39.0542ZM17.7104 48.4886C18.614 49.7126 19.7571 50.6474 21.1311 51.2426L22.7212 47.5723C22.0338 47.2745 21.4392 46.8048 20.9285 46.113L17.7104 48.4886ZM21.1441 51.2482C22.4797 51.8156 23.8899 52.0255 25.3421 51.8829L24.9513 47.9021C24.1521 47.9805 23.4152 47.867 22.7081 47.5667L21.1441 51.2482ZM25.366 51.8805C26.8543 51.7163 28.2221 51.1598 29.4461 50.2562L27.0705 47.038C26.3786 47.5487 25.6721 47.8224 24.9275 47.9046L25.366 51.8805ZM45.3466 41.7868L43.7375 42.9746L44.9254 44.5836L46.5344 43.3958L45.3466 41.7868ZM42.4157 37.8164L40.4583 37.4055L40.2741 38.2829L40.8066 39.0042L42.4157 37.8164ZM46.3998 18.8393L44.443 18.4258L44.4425 18.4284L46.3998 18.8393ZM46.6017 15.1559L48.5696 14.7992L48.5696 14.7992L46.6017 15.1559ZM43.2233 10.698L42.3772 12.5103L42.384 12.5134L42.3908 12.5165L43.2233 10.698ZM40.3412 10.1967L40.5157 12.1891L40.5238 12.1884L40.5319 12.1876L40.3412 10.1967ZM35.4912 13.8354L37.3356 14.6088L37.3395 14.5994L35.4912 13.8354ZM35.0786 16.7981L33.094 17.0461L33.094 17.0461L35.0786 16.7981ZM36.2281 19.5423L37.4159 21.1513L39.0745 19.927L37.8004 18.3063L36.2281 19.5423ZM31.5393 23.0036L29.9302 24.1914L31.118 25.8004L32.7271 24.6126L31.5393 23.0036ZM29.2461 17.3648L27.2542 17.5446L27.2555 17.5582L29.2461 17.3648ZM30.2947 11.742L28.5002 10.8589L28.497 10.8654L30.2947 11.742ZM39.9978 4.66677L40.2425 6.65179L40.2562 6.65L39.9978 4.66677ZM45.6413 5.46635L44.8425 7.29996L44.8499 7.30312L45.6413 5.46635ZM52.405 16.5677L50.4203 16.3215L50.4191 16.3305L50.4181 16.3394L52.405 16.5677ZM51.6432 20.9566L49.6889 20.5312L49.6872 20.5395L51.6432 20.9566ZM48.7823 34.3725L47.6805 36.0417L50.127 37.6566L50.7383 34.7897L48.7823 34.3725ZM47.529 33.5452L46.3411 31.9361L44.0373 33.6368L46.4272 35.2143L47.529 33.5452ZM60.9148 23.6638L62.5239 22.476L61.3361 20.8669L59.727 22.0547L60.9148 23.6638ZM64.083 27.9556L65.2708 29.5646L66.8799 28.3768L65.6921 26.7677L64.083 27.9556ZM46.9557 40.5989L44.0247 36.6286L40.8066 39.0042L43.7375 42.9746L46.9557 40.5989ZM44.373 38.2273L48.3571 19.2502L44.4425 18.4284L40.4583 37.4055L44.373 38.2273ZM48.3566 19.2528C48.6973 17.6407 48.8108 16.1299 48.5696 14.7992L44.6338 15.5126C44.7475 16.1399 44.7264 17.0847 44.443 18.4258L48.3566 19.2528ZM48.5696 14.7992C48.3484 13.5784 47.9121 12.4557 47.2049 11.4976L43.9868 13.8732C44.2658 14.2512 44.5002 14.7755 44.6338 15.5126L48.5696 14.7992ZM47.2049 11.4976C46.3593 10.3521 45.3125 9.45487 44.0557 8.87953L42.3908 12.5165C42.9576 12.776 43.4925 13.2037 43.9868 13.8732L47.2049 11.4976ZM44.0693 8.8858C42.8287 8.30664 41.5104 8.07559 40.1505 8.20585L40.5319 12.1876C41.1725 12.1263 41.7756 12.2294 42.3772 12.5103L44.0693 8.8858ZM40.1667 8.20436C38.7691 8.32676 37.4834 8.85652 36.3295 9.70835L38.7051 12.9265C39.341 12.4571 39.9379 12.2397 40.5157 12.1891L40.1667 8.20436ZM36.3295 9.70835C35.1234 10.5986 34.202 11.7188 33.6429 13.0714L37.3395 14.5994C37.5912 13.9904 38.0205 13.4319 38.7051 12.9265L36.3295 9.70835ZM33.6468 13.062C33.1117 14.3381 32.923 15.6775 33.094 17.0461L37.0632 16.55C36.9802 15.8862 37.0665 15.2505 37.3356 14.6088L33.6468 13.062ZM33.094 17.0461C33.2666 18.4268 33.7942 19.6823 34.6557 20.7783L37.8004 18.3063C37.3833 17.7757 37.1446 17.2017 37.0632 16.55L33.094 17.0461ZM35.0403 17.9332L30.3514 21.3945L32.7271 24.6126L37.4159 21.1513L35.0403 17.9332ZM33.1483 21.8157C31.9894 20.2458 31.3856 18.7029 31.2367 17.1714L27.2555 17.5582C27.4845 19.9149 28.4094 22.1313 29.9302 24.1914L33.1483 21.8157ZM31.238 17.185C31.0951 15.6017 31.3738 14.0921 32.0923 12.6186L28.497 10.8654C27.4649 12.982 27.0445 15.2209 27.2542 17.5446L31.238 17.185ZM32.0891 12.625C32.8147 11.1506 33.9693 9.79192 35.6314 8.56492L33.2558 5.34679C31.1619 6.89254 29.5505 8.72456 28.5002 10.8589L32.0891 12.625ZM35.6314 8.56492C37.1204 7.46574 38.6517 6.84784 40.2425 6.65174L39.7531 2.68179C37.4171 2.96976 35.2456 3.87791 33.2558 5.34679L35.6314 8.56492ZM40.2562 6.65C41.8505 6.44225 43.3663 6.65687 44.8425 7.29994L46.44 3.63277C44.2997 2.70046 42.0532 2.38202 39.7393 2.68354L40.2562 6.65ZM44.8499 7.30312C46.2837 7.92089 47.5695 8.95315 48.6986 10.4826L51.9167 8.10699C50.4219 6.08202 48.5967 4.56198 46.4326 3.62958L44.8499 7.30312ZM48.6986 10.4826C49.5576 11.6463 50.0424 12.6373 50.2576 13.4617L54.1279 12.4512C53.7464 10.9899 52.9744 9.53982 51.9167 8.10699L48.6986 10.4826ZM50.2576 13.4617C50.4871 14.3407 50.5484 15.2882 50.4203 16.3215L54.3898 16.8139C54.5754 15.3178 54.4952 13.8578 54.1279 12.4512L50.2576 13.4617ZM50.4181 16.3394C50.2836 17.5102 50.043 18.9048 49.689 20.5312L53.5974 21.382C53.9707 19.6674 54.238 18.1361 54.392 16.7961L50.4181 16.3394ZM49.6872 20.5395L46.8263 33.9554L50.7383 34.7897L53.5992 21.3737L49.6872 20.5395ZM49.8841 32.7034L48.6308 31.8761L46.4272 35.2143L47.6805 36.0417L49.8841 32.7034ZM48.7168 35.1543L62.1026 25.2728L59.727 22.0547L46.3411 31.9361L48.7168 35.1543ZM59.3057 24.8516L62.4739 29.1434L65.6921 26.7677L62.5239 22.476L59.3057 24.8516ZM62.8952 26.3465L44.1588 40.1777L46.5344 43.3958L65.2708 29.5646L62.8952 26.3465Z" fill="#FF8C00"/>
</svg>
