<svg width="64" height="61" viewBox="0 0 64 61" fill="none" xmlns="http://www.w3.org/2000/svg">
<path opacity="0.4" d="M25.11 55.5289L25.354 57.514L25.3669 57.5124L25.11 55.5289ZM19.096 54.6231L18.2663 56.4429L18.2781 56.4483L19.096 54.6231ZM5.08337 35.641L3.09827 35.885L3.09994 35.8979L5.08337 35.641ZM6.00313 29.6459L7.82293 30.4756L7.82825 30.4637L6.00313 29.6459ZM16.1938 22.1231L16.4304 24.1091L16.4406 24.1079L16.4507 24.1066L16.1938 22.1231ZM22.1938 23.01L21.3759 24.8352L21.3759 24.8352L22.1938 23.01ZM36.2064 41.9922L34.2214 42.2362L36.2064 41.9922ZM35.3006 48.0062L37.1234 48.8293L37.1258 48.8241L35.3006 48.0062ZM30.0325 46.0532L31.8677 46.8483L31.8724 46.8373L31.8771 46.8263L30.0325 46.0532ZM30.5176 42.8326L32.507 42.6275L32.5063 42.6204L32.5055 42.6134L30.5176 42.8326ZM19.7011 28.1801L18.906 30.0152L18.9125 30.0181L18.919 30.0208L19.7011 28.1801ZM16.4804 27.695L16.6759 29.6854L16.6878 29.6842L16.6997 29.6829L16.4804 27.695ZM11.2622 31.5471L13.0974 32.3421L13.1022 32.3311L13.1068 32.3201L11.2622 31.5471ZM10.7772 34.7677L12.7666 34.5625L12.7659 34.5555L12.7651 34.5484L10.7772 34.7677ZM21.5937 49.4202L20.7986 51.2554L20.8051 51.2582L20.8117 51.261L21.5937 49.4202ZM24.8143 49.9053L25.0097 51.8957L25.0216 51.8946L25.0335 51.8933L24.8143 49.9053ZM29.9341 51.3804C28.2395 52.6314 26.5498 53.3257 24.8531 53.5455L25.3669 57.5124C27.8292 57.1934 30.1475 56.1948 32.3098 54.5986L29.9341 51.3804ZM24.866 53.5439C23.1391 53.7561 21.5016 53.5095 19.9139 52.798L18.2781 56.4483C20.5314 57.458 22.9033 57.8152 25.354 57.514L24.866 53.5439ZM19.9257 52.8034C18.369 52.0936 16.9588 50.9324 15.7078 49.2377L12.4897 51.6134C14.0859 53.7757 16.0072 55.4129 18.2663 56.4429L19.9257 52.8034ZM15.7078 49.2377L9.23185 40.4651L6.01371 42.8407L12.4897 51.6134L15.7078 49.2377ZM9.23185 40.4651C7.98086 38.7705 7.28657 37.0808 7.0668 35.3841L3.09994 35.8979C3.41886 38.3601 4.41751 40.6784 6.01371 42.8407L9.23185 40.4651ZM7.06843 35.397C6.85654 33.673 7.10668 32.0464 7.82289 30.4756L4.18336 28.8161C3.15974 31.0612 2.79671 33.4313 3.09831 35.8849L7.06843 35.397ZM7.82825 30.4637C8.52946 28.8989 9.68402 27.4867 11.3746 26.2388L8.99893 23.0206C6.83253 24.6199 5.19801 26.5518 4.178 28.828L7.82825 30.4637ZM11.3746 26.2388C13.0654 24.9906 14.7463 24.3098 16.4304 24.1091L15.9571 20.1372C13.4888 20.4314 11.165 21.4216 8.99893 23.0206L11.3746 26.2388ZM16.4507 24.1066C18.1628 23.8848 19.7909 24.1249 21.3759 24.8352L23.0117 21.1849C20.7556 20.174 18.3838 19.8228 15.9368 20.1397L16.4507 24.1066ZM21.3759 24.8352C22.9407 25.5364 24.3529 26.6909 25.6009 28.3815L28.819 26.0058C27.2198 23.8394 25.2879 22.2049 23.0117 21.1849L21.3759 24.8352ZM25.6009 28.3815L32.0769 37.1541L35.295 34.7785L28.819 26.0058L25.6009 28.3815ZM32.0769 37.1541C33.3248 38.8446 34.0122 40.5343 34.2214 42.2362L38.1915 41.7482C37.8872 39.2725 36.8942 36.9449 35.295 34.7785L32.0769 37.1541ZM34.2214 42.2362C34.4336 43.9631 34.187 45.6006 33.4755 47.1883L37.1258 48.8241C38.1355 46.5708 38.4927 44.1989 38.1915 41.7482L34.2214 42.2362ZM33.4778 47.1831C32.7814 48.7254 31.6291 50.1292 29.9341 51.3804L32.3098 54.5986C34.4717 53.0026 36.1052 51.0842 37.1234 48.8293L33.4778 47.1831ZM29.1137 50.269C30.3377 49.3654 31.2725 48.2222 31.8677 46.8483L28.1973 45.2582C27.8995 45.9455 27.4299 46.5401 26.738 47.0508L29.1137 50.269ZM31.8771 46.8263C32.4411 45.4805 32.6559 44.071 32.507 42.6275L28.5281 43.0378C28.6069 43.8019 28.4983 44.5395 28.1879 45.2802L31.8771 46.8263ZM32.5055 42.6134C32.3414 41.1251 31.7848 39.7573 30.8812 38.5333L27.6631 40.9089C28.1738 41.6007 28.4475 42.3073 28.5296 43.0519L32.5055 42.6134ZM30.8812 38.5333L23.9168 29.0989L20.6987 31.4745L27.6631 40.9089L30.8812 38.5333ZM23.9168 29.0989C23.0071 27.8666 21.8619 26.9251 20.4831 26.3393L18.919 30.0208C19.5829 30.3029 20.1755 30.7658 20.6987 31.4745L23.9168 29.0989ZM20.4961 26.3449C19.1464 25.7601 17.7233 25.5458 16.2612 25.707L16.6997 29.6829C17.4705 29.5979 18.1944 29.707 18.906 30.0152L20.4961 26.3449ZM16.285 25.7046C14.7809 25.8522 13.3995 26.4027 12.1671 27.3124L14.5428 30.5306C15.2263 30.026 15.9285 29.7588 16.6759 29.6854L16.285 25.7046ZM12.1671 27.3124C10.9348 28.2221 10.0018 29.3802 9.41767 30.774L13.1068 32.3201C13.3971 31.6275 13.8592 31.0351 14.5428 30.5306L12.1671 27.3124ZM9.42706 30.752C8.84232 32.1017 8.62798 33.5248 8.78922 34.9869L12.7651 34.5484C12.6801 33.7776 12.7891 33.0537 13.0974 32.3421L9.42706 30.752ZM8.78771 34.9728C8.94137 36.463 9.50379 37.8347 10.4135 39.067L13.6316 36.6914C13.1084 35.9827 12.8406 35.28 12.7666 34.5625L8.78771 34.9728ZM10.4135 39.067L17.378 48.5014L20.5961 46.1258L13.6316 36.6914L10.4135 39.067ZM17.378 48.5014C18.2815 49.7254 19.4247 50.6602 20.7986 51.2554L22.3888 47.5851C21.7014 47.2873 21.1068 46.8176 20.5961 46.1258L17.378 48.5014ZM20.8117 51.261C22.1473 51.8284 23.5575 52.0383 25.0097 51.8957L24.6189 47.9149C23.8196 47.9934 23.0827 47.8798 22.3757 47.5795L20.8117 51.261ZM25.0335 51.8933C26.5218 51.7291 27.8896 51.1726 29.1137 50.269L26.738 47.0508C26.0462 47.5616 25.3396 47.8353 24.5951 47.9174L25.0335 51.8933ZM49.5216 38.0925L49.9648 40.0428L49.5216 38.0925ZM44.7033 38.1734L44.3117 40.1347L44.3256 40.1374L44.7033 38.1734ZM40.2536 36.1421L38.687 34.8988L37.4148 36.5019L39.0467 37.7369L40.2536 36.1421ZM43.7796 31.699L44.9931 30.1092L43.433 28.9183L42.2129 30.4558L43.7796 31.699ZM47.3563 32.9435L47.3905 34.9432L47.4077 34.9429L47.4248 34.9423L47.3563 32.9435ZM50.7636 31.7426L49.5758 30.1336L49.5658 30.141L49.5558 30.1486L50.7636 31.7426ZM52.7042 29.3462L50.8639 28.563L52.7042 29.3462ZM53.1258 26.4353L55.1122 26.2023L55.1113 26.1948L55.1104 26.1873L53.1258 26.4353ZM48.1555 21.1663L47.8156 23.1372L48.1555 21.1663ZM42.6819 23.3667L41.1028 22.1394L41.0977 22.146L41.0926 22.1526L42.6819 23.3667ZM41.8964 24.6768L41.099 26.511L42.8958 27.2921L43.7138 25.5119L41.8964 24.6768ZM37.1649 22.6198L35.2164 22.1691L34.8414 23.7905L36.3675 24.454L37.1649 22.6198ZM40.5376 8.0374L41.6461 6.37275L39.2403 4.7706L38.589 7.58673L40.5376 8.0374ZM41.7441 8.84088L42.9319 10.45L45.2258 8.75661L42.8527 7.17623L41.7441 8.84088ZM28.7931 18.4013L27.1841 19.5891L28.3719 21.1982L29.9809 20.0104L28.7931 18.4013ZM25.6249 14.1095L24.4371 12.5004L22.828 13.6883L24.0159 15.2973L25.6249 14.1095ZM42.3194 1.78565L43.9285 0.597836L42.7407 -1.01123L41.1316 0.176582L42.3194 1.78565ZM45.5016 6.09634L47.473 6.43303L47.6164 5.59363L47.1106 4.90853L45.5016 6.09634ZM43.3668 18.5966L41.7918 19.8292L44.5774 23.3884L45.3382 18.9333L43.3668 18.5966ZM42.338 17.2821L41.2633 15.5954L39.4049 16.7795L40.763 18.5148L42.338 17.2821ZM47.573 15.5499L47.6292 17.5492L47.6393 17.5488L47.573 15.5499ZM52.5606 16.6877L51.6314 18.4587L51.6385 18.4624L51.6456 18.4661L52.5606 16.6877ZM58.7291 25.7165L56.7356 25.8776L56.7368 25.891L58.7291 25.7165ZM57.7504 31.4338L59.572 32.2594L59.5745 32.2539L57.7504 31.4338ZM52.7769 34.4303C51.6306 35.2765 50.4017 35.8414 49.0783 36.1422L49.9648 40.0428C51.843 39.6159 53.5762 38.8121 55.1525 37.6484L52.7769 34.4303ZM49.0783 36.1422C47.7471 36.4448 46.4206 36.467 45.0811 36.2094L44.3256 40.1374C46.2087 40.4996 48.0944 40.4679 49.9648 40.0428L49.0783 36.1422ZM45.0949 36.2121C43.8075 35.9551 42.6004 35.4099 41.4605 34.5472L39.0467 37.7369C40.6422 38.9443 42.4016 39.7533 44.3117 40.1347L45.0949 36.2121ZM41.8202 37.3853L45.3462 32.9423L42.2129 30.4558L38.687 34.8988L41.8202 37.3853ZM42.566 33.2888C43.9992 34.3828 45.6232 34.9734 47.3905 34.9432L47.3221 30.9438C46.551 30.957 45.7905 30.7179 44.9931 30.1092L42.566 33.2888ZM47.4248 34.9423C49.1028 34.8848 50.638 34.3471 51.9715 33.3367L49.5558 30.1486C48.8912 30.6521 48.1549 30.915 47.2878 30.9447L47.4248 34.9423ZM51.9514 33.3517C53.1063 32.4992 53.9931 31.425 54.5444 30.1294L50.8639 28.563C50.6177 29.1415 50.2108 29.6649 49.5758 30.1336L51.9514 33.3517ZM54.5444 30.1294C55.0784 28.8748 55.2708 27.5544 55.1122 26.2023L51.1394 26.6683C51.2163 27.3234 51.1275 27.9436 50.8639 28.563L54.5444 30.1294ZM55.1104 26.1873C54.9378 24.8068 54.4074 23.5378 53.5674 22.3998L50.3492 24.7754C50.8118 25.402 51.0598 26.0315 51.1412 26.6834L55.1104 26.1873ZM53.5674 22.3998C52.2901 20.6695 50.5825 19.5553 48.4954 19.1954L47.8156 23.1372C48.8077 23.3083 49.6354 23.8084 50.3492 24.7754L53.5674 22.3998ZM48.4954 19.1954C46.3655 18.8281 44.3647 19.3757 42.5974 20.6803L44.973 23.8984C45.9535 23.1747 46.8662 22.9735 47.8156 23.1372L48.4954 19.1954ZM42.5974 20.6803C42.0331 21.0969 41.5339 21.5847 41.1028 22.1394L44.261 24.5941C44.4691 24.3264 44.7055 24.096 44.973 23.8984L42.5974 20.6803ZM41.0926 22.1526C40.6935 22.6751 40.3559 23.2394 40.0791 23.8417L43.7138 25.5119C43.8703 25.1712 44.0563 24.8621 44.2712 24.5808L41.0926 22.1526ZM42.6938 22.8426L37.9623 20.7856L36.3675 24.454L41.099 26.511L42.6938 22.8426ZM39.1135 23.0705L42.4861 8.48807L38.589 7.58673L35.2164 22.1691L39.1135 23.0705ZM39.429 9.70205L40.6355 10.5055L42.8527 7.17623L41.6461 6.37275L39.429 9.70205ZM40.5563 7.23182L27.6053 16.7922L29.9809 20.0104L42.9319 10.45L40.5563 7.23182ZM30.4022 17.2135L27.234 12.9217L24.0159 15.2973L27.1841 19.5891L30.4022 17.2135ZM26.8127 15.7186L43.5072 3.39472L41.1316 0.176582L24.4371 12.5004L26.8127 15.7186ZM40.7103 2.97346L43.8925 7.28416L47.1106 4.90853L43.9285 0.597836L40.7103 2.97346ZM43.5301 5.75966L41.3953 18.2599L45.3382 18.9333L47.473 6.43303L43.5301 5.75966ZM44.9417 17.3639L43.913 16.0495L40.763 18.5148L41.7918 19.8292L44.9417 17.3639ZM43.4127 18.9688C44.8956 18.024 46.2937 17.5867 47.6292 17.5492L47.5168 13.5507C45.3422 13.6119 43.2502 14.3294 41.2633 15.5954L43.4127 18.9688ZM47.6393 17.5488C49.0631 17.5016 50.3824 17.8034 51.6314 18.4587L53.4898 14.9166C51.6241 13.9377 49.6183 13.481 47.5067 13.551L47.6393 17.5488ZM51.6456 18.4661C52.9242 19.124 54.0355 20.0747 54.9813 21.356L58.1995 18.9804C56.9122 17.2366 55.3369 15.867 53.4757 14.9093L51.6456 18.4661ZM54.9813 21.356C56.0416 22.7923 56.6074 24.2905 56.7356 25.8776L60.7226 25.5554C60.5301 23.1731 59.67 20.9724 58.1995 18.9804L54.9813 21.356ZM56.7368 25.891C56.8795 27.5205 56.6139 29.0843 55.9262 30.6137L59.5745 32.2539C60.5379 30.111 60.9248 27.8632 60.7215 25.542L56.7368 25.891ZM55.9287 30.6082C55.2562 32.0922 54.2213 33.364 52.7769 34.4303L55.1525 37.6484C57.1112 36.2025 58.6002 34.4039 59.572 32.2594L55.9287 30.6082Z" fill="#FF8C00"/>
</svg>
