<svg width="34" height="34" viewBox="0 0 34 34" fill="none" xmlns="http://www.w3.org/2000/svg">
<path d="M17.2696 6.1792C11.1749 6.1792 6.21484 11.0174 6.21484 16.9643C6.21484 22.9112 11.1749 27.7494 17.2696 27.7494C23.3642 27.7494 28.3243 22.9112 28.3243 16.9643C28.3243 11.0174 23.3642 6.1792 17.2696 6.1792ZM24.5203 17.4564C24.2717 17.9348 23.669 18.1321 23.1679 17.8844L21.0075 16.8101L18.8954 17.4797L20.2011 19.2329L22.5967 19.603C23.1444 19.6873 23.5193 20.1899 23.4329 20.7242C23.3465 21.2594 22.8126 21.6291 22.2826 21.5391L20.467 21.2595L20.1804 23.0299C20.0926 23.5699 19.5674 23.9311 19.0302 23.8437C18.4806 23.7595 18.1076 23.2568 18.1941 22.7216L18.5745 20.3837L17.2696 18.6317L15.9646 20.3838L16.345 22.7216C16.4314 23.2568 16.0585 23.7595 15.5089 23.8438C14.9721 23.9311 14.4466 23.5707 14.3587 23.0299L14.0721 21.2596L12.2565 21.5391C11.7187 21.6291 11.1926 21.2605 11.1063 20.7243C11.0199 20.19 11.3948 19.6874 11.9424 19.6031L14.338 19.2329L15.6437 17.4798L13.5316 16.8102L11.3712 17.8845C10.8709 18.1318 10.2678 17.9356 10.0188 17.4565C9.76562 16.9739 9.96386 16.3831 10.4565 16.138L12.0935 15.3242L11.2613 13.7271C11.0081 13.2445 11.2063 12.6537 11.7009 12.4086C12.1916 12.1673 12.8001 12.3521 13.0513 12.8366L14.152 14.9451L16.2646 15.6148V13.4484L14.5491 11.7748C14.1565 11.3918 14.1565 10.7713 14.5491 10.3883C14.9416 10.0054 15.5776 10.0054 15.9702 10.3883L17.2696 11.656L18.569 10.3883C18.9615 10.0053 19.5975 10.0053 19.9901 10.3883C20.3826 10.7712 20.3826 11.3917 19.9901 11.7747L18.2745 13.4484V15.6148L20.387 14.9451L21.4877 12.8365C21.7389 12.3521 22.3514 12.1663 22.8381 12.4085C23.3328 12.6536 23.531 13.2444 23.2778 13.727L22.4455 15.3241L24.0825 16.138C24.5752 16.3831 24.7735 16.9738 24.5203 17.4564Z" fill="#FF8C00"/>
<path d="M28.9807 29.0693H28.0768C31.6669 26.0405 33.8307 21.6133 33.8307 16.9019C33.8307 15.5429 33.6563 14.1894 33.3114 12.8794C33.1787 12.3737 32.6462 12.0677 32.1307 12.198C31.6114 12.3284 31.2987 12.8443 31.4313 13.3509C31.7364 14.5065 31.8899 15.7019 31.8899 16.9019C31.8899 21.3809 29.6918 25.5854 26.0678 28.2493V26.4474C26.0678 25.9242 25.6338 25.5007 25.0974 25.5007C24.5611 25.5007 24.1271 25.9242 24.1271 26.4474V30.016C24.1271 30.1377 24.1915 30.372 24.315 30.5465C24.5741 30.9093 24.921 30.928 25.1189 30.9627H28.9808C29.5172 30.9627 29.9512 30.5393 29.9512 30.016C29.9512 29.4928 29.5171 29.0693 28.9807 29.0693ZM13.6957 3.14897C14.8764 2.85221 16.1026 2.70149 17.3345 2.70149C21.9258 2.70149 26.2348 4.84588 28.9662 8.38166H27.0381C26.5018 8.38166 26.0678 8.80509 26.0678 9.32836C26.0678 9.85163 26.5018 10.2751 27.0381 10.2751H30.7812C30.9909 10.2751 31.2964 10.1785 31.5064 9.94163C31.6703 9.75765 31.7516 9.49561 31.7516 9.32836V5.54158C31.7516 5.01831 31.3176 4.59488 30.7812 4.59488C30.2449 4.59488 29.8109 5.01831 29.8109 5.54158V6.42693C26.7059 2.92037 22.166 0.808105 17.3345 0.808105C15.9397 0.808105 14.5523 0.978195 13.2105 1.31471C12.6931 1.44504 12.3804 1.96093 12.513 2.4676C12.6476 2.97332 13.1744 3.28024 13.6957 3.14897ZM20.844 30.7811C19.6633 31.0778 18.437 31.2286 17.2051 31.2286C12.6147 31.2286 8.30472 29.0843 5.57309 25.5484H7.42001C7.95636 25.5484 8.39037 25.125 8.39037 24.6017C8.39037 24.0784 7.95636 23.655 7.42001 23.655H3.75275C3.51857 23.7045 3.27553 23.708 3.02673 23.9897C2.86681 24.1707 2.78239 24.4406 2.78239 24.6017V28.358C2.78239 28.8813 3.2164 29.3047 3.75275 29.3047C4.2891 29.3047 4.72311 28.8813 4.72311 28.358V27.4967C7.82808 31.0068 12.3701 33.122 17.2051 33.122C18.6 33.122 19.9874 32.9519 21.3292 32.6153C21.8466 32.485 22.1593 31.9691 22.0266 31.4625C21.9949 31.3419 21.9392 31.2286 21.8626 31.1291C21.786 31.0295 21.69 30.9457 21.5802 30.8825C21.4703 30.8192 21.3488 30.7776 21.2224 30.7602C21.0961 30.7428 20.9675 30.7499 20.844 30.7811ZM3.10837 20.5792C2.80322 19.4235 2.64971 18.2282 2.64971 17.0281C2.64971 12.5487 4.84784 8.34342 8.47188 5.6791V7.52143C8.47188 8.0447 8.90589 8.46813 9.44224 8.46813C9.97859 8.46813 10.4126 8.0447 10.4126 7.52143V3.90197C10.36 3.64768 10.3552 3.43279 10.0657 3.191C9.88576 3.04161 9.6083 2.95527 9.44224 2.95527H5.56267C5.02632 2.95527 4.59231 3.3787 4.59231 3.90197C4.59231 4.42524 5.02632 4.84866 5.56267 4.84866H6.47714C2.87774 7.87771 0.708984 12.3104 0.708984 17.0281C0.708984 18.3872 0.883326 19.7407 1.22826 21.0506C1.36411 21.5695 1.90777 21.8601 2.40899 21.732C2.92833 21.6017 3.24105 21.0858 3.10837 20.5792Z" fill="#FF8C00"/>
</svg>
