<svg width="142" height="40" viewBox="0 0 142 40" fill="none" xmlns="http://www.w3.org/2000/svg">
<path d="M141.689 3.04406C141.713 2.11121 140.977 1.33526 140.044 1.31092L124.842 0.914336C123.909 0.889999 123.134 1.6265 123.109 2.55935C123.085 3.4922 123.821 4.26816 124.754 4.2925L138.267 4.64502L137.914 18.1577C137.89 19.0905 138.626 19.8665 139.559 19.8908C140.492 19.9151 141.268 19.1786 141.292 18.2458L141.689 3.04406ZM138.837 1.77448C137.763 2.79374 136.694 3.79911 135.628 4.7894L137.928 7.26488C139.004 6.26559 140.082 5.25201 141.163 4.22552L138.837 1.77448ZM129.109 10.6821C126.866 12.6456 124.633 14.5282 122.401 16.3184L124.515 18.9545C126.791 17.1294 129.061 15.215 131.335 13.2246L129.109 10.6821ZM115.438 21.5856C113.021 23.2971 110.597 24.8852 108.156 26.336L109.883 29.241C112.41 27.739 114.909 26.1007 117.391 24.3435L115.438 21.5856ZM100.509 30.3833C97.8698 31.6041 95.1996 32.6537 92.4856 33.5156L93.5085 36.7364C96.3677 35.8284 99.17 34.7261 101.928 33.4503L100.509 30.3833ZM84.1433 35.531C81.3622 35.9927 78.5217 36.2558 75.6091 36.3027L75.6635 39.6816C78.7452 39.6319 81.7525 39.3534 84.6967 38.8647L84.1433 35.531ZM67.0388 35.8285C64.292 35.4853 61.4738 34.9541 58.5752 34.221L57.7466 37.4972C60.7742 38.2629 63.7292 38.8205 66.6198 39.1818L67.0388 35.8285ZM50.3046 31.6522C47.6978 30.6971 45.0261 29.5853 42.2841 28.308L40.8571 31.3713C43.6803 32.6864 46.4402 33.8354 49.1421 34.8253L50.3046 31.6522ZM34.5365 24.3572C32.0831 23.0014 29.5754 21.5195 27.01 19.9062L25.2109 22.7668C27.8269 24.412 30.3895 25.9265 32.902 27.3149L34.5365 24.3572ZM19.7009 15.0597C17.3894 13.4506 15.033 11.7398 12.6295 9.92404L10.5925 12.6204C13.029 14.4611 15.4209 16.1977 17.7701 17.8332L19.7009 15.0597ZM5.72369 4.52158C4.58877 3.60411 3.44374 2.66429 2.28838 1.7018L0.125405 4.2982C1.2932 5.27105 2.45107 6.22142 3.59922 7.14957L5.72369 4.52158Z" fill="#FF8C00"/>
</svg>
