<svg width="27" height="30" viewBox="0 0 27 30" fill="none" xmlns="http://www.w3.org/2000/svg">
<path d="M16.6139 14.8168L19.9861 18.189C20.3931 17.1425 20.6257 15.9942 20.6257 14.8023C20.6257 13.6104 20.3931 12.4912 20.0006 11.4447L16.6139 14.8168ZM24.3031 7.11317L22.4716 8.94461C23.3874 10.7034 23.8961 12.6802 23.8961 14.7878C23.8961 16.8954 23.3728 18.8867 22.4716 20.6309L24.2159 22.3751C25.6772 20.066 26.4534 17.3896 26.4543 14.6569C26.4397 11.9098 25.6548 9.32253 24.3031 7.11317ZM18.7506 8.5667L10.451 0.26709H8.99749V11.2993L2.32583 4.62765L0.276367 6.67712L8.40155 14.8023L0.276367 22.9275L2.32583 24.9769L8.99749 18.3053V29.3375H10.451L18.7506 21.0379L12.5005 14.8023L18.7506 8.5667ZM11.9045 5.83408L14.6372 8.5667L11.9045 11.2993V5.83408ZM14.6372 21.0379L11.9045 23.7705V18.3053L14.6372 21.0379Z" fill="#FF8C00"/>
</svg>
