<svg width="34" height="29" viewBox="0 0 34 29" fill="none" xmlns="http://www.w3.org/2000/svg">
<path d="M5.00033 8.07601C7.27059 8.07601 9.111 6.28048 9.111 4.06559C9.111 1.8507 7.27059 0.0551758 5.00033 0.0551758C2.73006 0.0551758 0.889648 1.8507 0.889648 4.06559C0.889648 6.28048 2.73006 8.07601 5.00033 8.07601Z" fill="#FF8C00"/>
<path d="M5.00033 28.492C7.27059 28.492 9.111 26.6965 9.111 24.4816C9.111 22.2667 7.27059 20.4712 5.00033 20.4712C2.73006 20.4712 0.889648 22.2667 0.889648 24.4816C0.889648 26.6965 2.73006 28.492 5.00033 28.492Z" fill="#FF8C00"/>
<path d="M16.9593 8.07601C19.2296 8.07601 21.07 6.28048 21.07 4.06559C21.07 1.8507 19.2296 0.0551758 16.9593 0.0551758C14.689 0.0551758 12.8486 1.8507 12.8486 4.06559C12.8486 6.28048 14.689 8.07601 16.9593 8.07601Z" fill="#FF8C00"/>
<path d="M16.9593 28.492C19.2296 28.492 21.07 26.6965 21.07 24.4816C21.07 22.2667 19.2296 20.4712 16.9593 20.4712C14.689 20.4712 12.8486 22.2667 12.8486 24.4816C12.8486 26.6965 14.689 28.492 16.9593 28.492Z" fill="#FF8C00"/>
<path d="M28.9173 8.07601C31.1876 8.07601 33.028 6.28048 33.028 4.06559C33.028 1.8507 31.1876 0.0551758 28.9173 0.0551758C26.6471 0.0551758 24.8066 1.8507 24.8066 4.06559C24.8066 6.28048 26.6471 8.07601 28.9173 8.07601Z" fill="#FF8C00"/>
<path d="M28.9173 28.492C31.1876 28.492 33.028 26.6965 33.028 24.4816C33.028 22.2667 31.1876 20.4712 28.9173 20.4712C26.6471 20.4712 24.8066 22.2667 24.8066 24.4816C24.8066 26.6965 26.6471 28.492 28.9173 28.492Z" fill="#FF8C00"/>
<path d="M3.87891 6.98291V21.5662C3.87891 21.8563 3.99702 22.1345 4.20727 22.3396C4.41751 22.5448 4.70267 22.66 5 22.66C5.29733 22.66 5.58249 22.5448 5.79273 22.3396C6.00298 22.1345 6.12109 21.8563 6.12109 21.5662V6.98291C6.12109 6.69283 6.00298 6.41463 5.79273 6.20951C5.58249 6.00439 5.29733 5.88916 5 5.88916C4.70267 5.88916 4.41751 6.00439 4.20727 6.20951C3.99702 6.41463 3.87891 6.69283 3.87891 6.98291ZM15.8372 6.98291V21.5662C15.8372 21.8563 15.9554 22.1345 16.1656 22.3396C16.3758 22.5448 16.661 22.66 16.9583 22.66C17.2557 22.66 17.5408 22.5448 17.7511 22.3396C17.9613 22.1345 18.0794 21.8563 18.0794 21.5662V6.98291C18.0794 6.69283 17.9613 6.41463 17.7511 6.20951C17.5408 6.00439 17.2557 5.88916 16.9583 5.88916C16.661 5.88916 16.3758 6.00439 16.1656 6.20951C15.9554 6.41463 15.8372 6.69283 15.8372 6.98291Z" fill="#FF8C00"/>
<path d="M27.7956 6.98291V12.8162C27.7956 12.9129 27.7562 13.0057 27.6861 13.074C27.616 13.1424 27.521 13.1808 27.4219 13.1808H5C4.70267 13.1808 4.41751 13.2961 4.20727 13.5012C3.99702 13.7063 3.87891 13.9845 3.87891 14.2746C3.87891 14.5647 3.99702 14.8429 4.20727 15.048C4.41751 15.2531 4.70267 15.3683 5 15.3683H27.4219C28.1157 15.3683 28.781 15.0994 29.2716 14.6208C29.7622 14.1422 30.0378 13.4931 30.0378 12.8162V6.98291C30.0378 6.69283 29.9196 6.41463 29.7094 6.20951C29.4992 6.00439 29.214 5.88916 28.9167 5.88916C28.6193 5.88916 28.3342 6.00439 28.1239 6.20951C27.9137 6.41463 27.7956 6.69283 27.7956 6.98291Z" fill="#FF8C00"/>
</svg>
