<svg width="332" height="146" viewBox="0 0 332 146" fill="none" xmlns="http://www.w3.org/2000/svg">
<path d="M238.605 52.6279C238.665 51.7219 238.66 50.7153 238.54 49.5628C237.704 41.6206 235.198 37.4431 226.002 37.0254C216.807 36.6076 212.629 27.8299 190.066 22.817C167.503 17.8091 128.637 17.3913 113.593 20.3155C102.455 22.4798 91.1762 28.6855 81.714 34.7856C79.137 36.4465 76.7061 37.3575 74.2952 37.8206C68.6129 38.9178 63.1016 37.5639 56.2667 37.8759C47.9319 38.2585 39.4411 39.0285 31.2674 40.7951C20.6124 43.0952 1.59743 56.0454 0.344191 58.7632C0.288827 58.879 0.238497 58.9947 0.203266 59.1105C-0.692622 61.5817 1.62762 62.8148 2.22656 69.2119C2.85569 75.8958 1.39107 75.0603 2.22656 78.6137C3.06205 82.167 17.8996 80.0783 17.8996 80.0783C17.8996 80.0783 21.4529 81.5429 22.2683 81.3064C22.374 81.2762 23.0987 81.1906 24.2916 81.0598C22.4897 78.0953 21.4529 74.6124 21.4529 70.8829C21.4529 60.0366 30.2457 51.2438 41.092 51.2438C51.9383 51.2438 60.7311 60.0366 60.7311 70.8829C60.7311 73.787 60.1019 76.5501 58.9695 79.0264C60.9777 79.1573 62.1554 79.4391 62.0598 79.9374C61.5011 82.7207 67.9082 80.3904 67.9082 80.3904C67.9082 80.3904 161.861 78.6137 164.785 80.3904C167.709 82.167 170.845 80.3904 170.845 80.3904C170.845 80.3904 171.746 80.3048 173.276 80.1689C171.791 77.4007 170.95 74.245 170.95 70.8829C170.95 60.0366 179.743 51.2438 190.59 51.2438C201.436 51.2438 210.229 60.0366 210.229 70.8829C210.229 73.9983 209.504 76.9377 208.215 79.5549C208.623 80.8735 214.975 80.6269 227.261 78.8251C241.469 76.7363 242.304 71.3057 238.545 65.0344C235.324 59.6641 238.218 57.973 238.605 52.6279Z" fill="#C73228"/>
<path d="M48.6872 88.5719C58.6887 84.3755 63.3945 72.8658 59.1981 62.8644C55.0016 52.863 43.492 48.1571 33.4905 52.3535C23.4891 56.55 18.7832 68.0597 22.9797 78.0611C27.1762 88.0625 38.6858 92.7684 48.6872 88.5719Z" fill="#243145"/>
<path d="M209.318 75.2354C211.954 64.7145 205.561 54.0489 195.04 51.4132C184.519 48.7776 173.854 55.1699 171.218 65.6908C168.582 76.2118 174.975 86.8774 185.496 89.513C196.017 92.1487 206.682 85.7564 209.318 75.2354Z" fill="#243145"/>
<path d="M52.5943 76.2161C55.8065 69.8665 53.2631 62.1151 46.9135 58.9029C40.5639 55.6908 32.8125 58.2342 29.6003 64.5838C26.3882 70.9334 28.9316 78.6848 35.2812 81.897C41.6308 85.1091 49.3822 82.5657 52.5943 76.2161Z" fill="#E9F6FE"/>
<path d="M41.0919 67.8829C39.7078 67.8829 38.5854 69.0053 38.5854 70.3894C38.5854 71.7735 39.7078 72.8959 41.0919 72.8959C42.476 72.8959 43.5984 71.7735 43.5984 70.3894C43.5984 69.0053 42.476 67.8829 41.0919 67.8829Z" fill="#243145"/>
<path d="M202.702 73.7563C204.556 66.8865 200.49 59.814 193.621 57.9596C186.751 56.1052 179.678 60.171 177.824 67.0408C175.97 73.9106 180.035 80.9829 186.905 82.8374C193.775 84.6918 200.847 80.6261 202.702 73.7563Z" fill="#E9F6FE"/>
<path d="M190.277 67.8829C188.893 67.8829 187.771 69.0053 187.771 70.3894C187.771 71.7735 188.893 72.8959 190.277 72.8959C191.662 72.8959 192.784 71.7735 192.784 70.3894C192.784 69.0053 191.662 67.8829 190.277 67.8829Z" fill="#243145"/>
<path d="M133.339 21.8806C131.25 21.2515 117.459 21.1508 109.205 24.2814C100.951 27.417 80.4762 39.6373 82.4592 40.5785C84.4422 41.5197 127.772 40.5836 128.633 38.4898C128.638 38.4898 135.427 22.5098 133.339 21.8806Z" fill="#E9F6FE"/>
<path d="M144.934 21.5285C144.934 21.5285 140.022 21.151 139.398 23.0283C138.769 24.9107 136.579 38.0722 137.309 38.6963C138.039 39.3204 163.32 38.2786 165.132 37.1663C166.944 36.054 167.498 24.6289 166.109 23.3756C164.714 22.1274 144.934 21.5285 144.934 21.5285Z" fill="#E9F6FE"/>
<path d="M184.912 27.9756C182.124 25.61 168.756 24.075 168.756 24.075C168.756 24.075 168.897 33.6881 167.644 35.2182C166.391 36.7482 168.203 37.5837 174.192 36.1946C180.176 34.8004 187.701 30.3411 184.912 27.9756Z" fill="#E9F6FE"/>
<path d="M230.703 37.7199C226.974 37.0908 223.883 36.7737 223.883 36.7737C223.883 36.7737 210.964 41.0669 212.358 42.602C213.752 44.132 228.932 44.9675 232.414 43.9961C235.897 43.0197 235.993 41.2078 235.993 41.2078C235.993 41.2078 234.428 38.349 230.703 37.7199Z" fill="#E9F6FE"/>
<path d="M25.6352 42.6221C25.6352 42.6221 18.0303 45.3098 7.46582 52.7688C7.46582 52.7688 9.02104 55.7333 16.8525 52.0742C24.689 48.4202 27.4069 46.0144 26.9841 44.132C26.5664 42.2497 25.6352 42.6221 25.6352 42.6221Z" fill="#E9F6FE"/>
<path d="M238.605 52.6277C233.969 54.0873 227.608 57.4142 218.478 58.9795C202.598 61.7074 214.622 43.4222 190.272 47.4185C165.922 51.4198 167.915 60.0113 167.261 50.8158C166.607 41.6204 143.681 54.0219 133.741 53.8961C123.795 53.7753 125.295 52.6277 115.823 53.8961C106.356 55.1644 75.1507 50.6799 72.3624 55.6929C69.5791 60.7058 74.592 68.2303 70.6914 70.3844C66.7907 72.5436 61.7778 50.3981 47.5694 48.2389C33.361 46.0847 21.1055 59.8703 21.4528 57.4997C21.7296 55.6274 6.59512 58.0131 0.208147 59.1003C-0.687741 61.5715 1.63252 62.8046 2.23145 69.2017C2.86059 75.8856 1.39596 75.0501 2.23145 78.6034C3.06695 82.1568 17.9045 80.0681 17.9045 80.0681C17.9045 80.0681 21.4578 81.5327 22.2732 81.2961C22.3789 81.2659 23.1036 81.1804 24.2965 81.0495C22.4946 78.085 21.4578 74.6021 21.4578 70.8726C21.4578 60.0264 30.2506 51.2336 41.0969 51.2336C51.9432 51.2336 60.736 60.0264 60.736 70.8726C60.736 73.7767 60.1068 76.5399 58.9744 79.0162C60.9826 79.147 62.1603 79.4289 62.0647 79.9271C61.506 82.7104 67.9131 80.3801 67.9131 80.3801C67.9131 80.3801 161.866 78.6034 164.79 80.3801C167.714 82.1568 170.85 80.3801 170.85 80.3801C170.85 80.3801 171.751 80.2946 173.281 80.1587C171.796 77.3905 170.955 74.2347 170.955 70.8726C170.955 60.0264 179.748 51.2336 190.594 51.2336C201.441 51.2336 210.234 60.0264 210.234 70.8726C210.234 73.9881 209.509 76.9274 208.22 79.5446C208.628 80.8633 214.98 80.6167 227.265 78.8148C241.474 76.7261 242.309 71.2954 238.55 65.0242C235.323 59.664 238.217 57.9729 238.605 52.6277Z" fill="#B32D24"/>
<path d="M245.143 69.4182C240.674 65.8347 227.447 67.405 226.329 67.7019C225.212 67.9989 207.521 70.3141 203.545 79.1925C199.569 88.0708 200.58 103.376 202.498 104.056C204.415 104.735 205.659 102.214 205.659 102.214C205.659 102.214 214.315 113.231 225.957 112.335C237.598 111.439 243.422 104.796 243.422 104.796C245.214 105.913 249.839 104.796 249.839 104.796C249.839 104.796 257.675 90.9145 257.675 89.7468C257.675 88.5741 249.612 72.9967 245.143 69.4182Z" fill="#243145"/>
<path d="M99.1636 69.4182C94.6942 65.8347 81.4672 67.405 80.3499 67.7019C79.2326 67.9989 61.5413 70.3141 57.5652 79.1925C53.589 88.0708 54.6007 103.376 56.5183 104.056C58.4359 104.735 59.679 102.214 59.679 102.214C59.679 102.214 68.3359 113.231 79.9775 112.335C91.619 111.439 97.4422 104.796 97.4422 104.796C99.234 105.913 103.859 104.796 103.859 104.796C103.859 104.796 111.696 90.9145 111.696 89.7468C111.691 88.5741 103.633 72.9967 99.1636 69.4182Z" fill="#243145"/>
<path d="M24.8403 106.975C24.6389 106.965 24.4527 106.955 24.2866 106.955C24.4527 106.965 24.6389 106.97 24.8403 106.975Z" fill="#B9C2EC"/>
<path d="M279.73 92.5905C279.997 92.3238 280.198 86.0878 280.269 82.5042C280.284 81.6385 280.289 80.9339 280.289 80.496C280.289 78.2563 274.355 71.7636 271.783 70.3091C270.318 69.4786 269.216 68.472 268.949 67.6919C268.748 67.103 269.025 66.645 269.991 66.499C272.231 66.1618 273.796 64.0379 274.023 63.7006C274.244 63.3634 273.353 62.5833 272.457 62.2461C272.281 62.1807 272.181 62.0901 272.13 61.9844C271.909 61.5465 272.523 60.7764 272.347 59.7849C272.226 59.1105 271.833 59.347 271.26 59.6037C270.792 59.8151 270.203 60.0366 269.548 59.7849C268.094 59.2262 269.327 56.0906 271.677 55.7534C272.005 55.7031 272.307 55.6427 272.593 55.5471C272.603 55.542 272.608 55.542 272.614 55.542C272.619 55.542 272.619 55.542 272.619 55.542C274.41 54.9985 275.548 53.7351 276.605 52.3963C277.838 50.8311 277.274 49.8194 273.132 49.8194C268.99 49.8194 263.73 50.0409 262.16 52.1699C260.595 54.2988 259.024 53.1765 259.024 53.1765C257.947 53.3174 257.258 53.3375 256.588 53.403H256.583C255.682 53.4885 254.817 53.6546 253.09 54.2938C250.342 55.3105 247.685 57.4093 245.767 58.0082C245.576 58.0686 245.39 58.1089 245.218 58.1391C243.276 58.4411 233.275 53.8157 223.274 50.6801C213.268 47.5445 189.392 40.5283 172.823 39.6325C156.254 38.7366 149.54 40.3824 145.206 42.3201C140.883 44.2579 111.696 60.9022 111.696 60.9022C111.696 60.9022 108.112 59.8956 107.106 60.6808C106.099 61.466 106.547 61.5767 104.197 61.6723C101.846 61.7629 103.859 62.9205 95.4642 63.0312C87.0691 63.142 69.2671 65.3817 63.0009 66.3883C56.7297 67.3949 54.8272 67.5056 47.4386 73.0521C40.05 78.5935 34.5288 79.5649 32.5155 80.7527C30.5023 81.9506 32.1381 81.6486 29.083 83.7373C26.2343 85.6851 25.9071 89.1227 25.8769 90.9699C25.8719 91.1058 25.8719 91.2316 25.8719 91.3524C25.8719 92.359 26.0027 92.671 26.2292 92.9881C26.3852 93.2096 26.5966 93.431 26.8433 93.8941C27.3818 94.9057 26.7023 94.941 26.345 95.107C26.3097 95.1272 26.2745 95.1423 26.2443 95.1675C25.9423 95.3939 26.5413 97.7041 26.4658 100.165C26.4255 101.489 26.5916 102.158 26.7527 102.491C26.8936 102.772 27.0244 102.813 27.0244 102.813C27.0244 102.813 26.0279 103.86 24.8753 104.856L24.2713 105.505C24.216 105.561 24.1757 105.621 24.1455 105.687C23.8486 106.215 24.2009 106.925 24.8552 106.955C25.2578 106.975 25.6554 106.995 26.0581 107.015C26.0984 107.015 26.1336 107.02 26.1738 107.02C26.7224 107.04 27.3315 107.056 27.9958 107.076C28.2575 107.081 28.5344 107.091 28.8162 107.096C29.6265 107.116 30.4973 107.141 31.4133 107.161C31.7203 107.171 32.0324 107.181 32.3494 107.186C32.4702 107.186 32.586 107.191 32.7068 107.197C33.4064 107.217 34.1211 107.232 34.8559 107.247C35.2535 107.257 35.6562 107.267 36.0639 107.272C38.7566 107.337 41.6053 107.388 44.3483 107.423H44.8818C49.4116 107.408 53.9464 107.312 58.4661 107.131C58.7379 107.121 58.9744 106.99 59.1153 106.789C58.8788 106.286 58.6926 105.259 58.5567 103.98C58.5567 103.965 58.5516 103.955 58.5516 103.94C58.5516 103.94 58.5466 103.91 58.5365 103.839C58.5265 103.779 58.5214 103.709 58.5164 103.648C58.5114 103.603 58.5063 103.563 58.5013 103.517C58.3906 102.415 58.3151 101.167 58.2497 99.9287C58.2497 99.8985 58.2446 99.8633 58.2446 99.8281C58.1691 98.2175 58.1238 96.6421 58.0987 95.4644C58.0785 94.4427 58.0936 93.3455 58.2497 92.1426C58.3352 91.4732 58.4611 90.7786 58.6473 90.0387C59.2563 87.6229 60.4944 84.8094 62.9506 81.4322C63.5646 80.5917 64.2642 79.7864 65.0393 79.0415C65.764 78.3419 66.5643 77.6825 67.4149 77.0836C69.3375 75.7347 71.5672 74.6577 74.0183 73.9329C77.9844 72.7551 82.5443 72.5035 87.356 73.5252C88.3726 73.7416 89.334 74.0084 90.2449 74.3355C90.2651 74.3406 90.2852 74.3456 90.3053 74.3557C95.0012 76.0116 98.323 78.9609 100.528 82.3935C102.188 84.9755 103.225 87.8343 103.749 90.6226C103.749 90.6377 103.754 90.6427 103.754 90.6528C103.789 90.839 103.819 91.0303 103.854 91.2115C104.745 96.7176 104.307 101.69 104.277 104.046V104.051C104.262 104.851 104.297 105.354 104.453 105.465C104.479 105.485 104.675 105.5 105.022 105.51C105.027 105.515 105.032 105.515 105.032 105.515C105.213 105.52 105.445 105.526 105.707 105.531C109.486 105.596 121.375 105.495 135.608 105.314C136.237 105.309 136.871 105.304 137.501 105.294C138.195 105.284 138.885 105.279 139.579 105.269C149.333 105.133 159.898 104.972 169.561 104.806C170.246 104.796 170.93 104.786 171.615 104.771C171.73 104.771 171.851 104.771 171.967 104.766C186.563 104.504 198.708 104.242 202.231 104.061C202.382 104.056 202.518 104.046 202.639 104.041H202.659C203.036 104.021 203.243 103.995 203.263 103.98C203.565 103.719 203.474 100.598 203.464 97.1303C203.459 95.9425 203.469 94.7145 203.504 93.5418C203.514 93.2599 203.524 92.9881 203.535 92.7113C203.585 91.6695 203.665 90.6981 203.786 89.8727C204.013 88.3275 204.803 85.8865 206.242 83.3045C206.262 83.2743 206.283 83.2391 206.303 83.2038C207.048 81.8902 207.954 80.5464 209.051 79.2529C209.071 79.2327 209.081 79.2176 209.101 79.1975C211.98 75.8253 216.127 72.886 221.769 72.121C221.966 72.1008 222.162 72.0706 222.358 72.0505C222.555 72.0304 222.756 72.0103 222.962 71.9952C224.568 71.8693 226.108 71.8744 227.567 72.0002C233.23 72.4683 237.805 74.6728 241.273 77.7832C241.278 77.7832 241.278 77.7882 241.283 77.7882C244.156 80.3601 246.265 83.5461 247.594 86.883C248.223 88.4634 248.676 90.0689 248.993 91.6393C249.139 92.3691 249.255 93.0938 249.356 93.8035C249.376 93.9243 249.386 94.0451 249.406 94.1608C249.416 94.2363 249.426 94.3068 249.431 94.3823C249.914 98.4339 249.658 101.937 249.658 103.663C249.658 103.673 249.658 103.678 249.658 103.678C249.663 104.318 249.703 104.715 249.829 104.796C250.498 105.244 277.254 101.323 278.714 100.764C279.222 100.573 279.559 100.145 279.796 99.6016C280.229 98.5748 280.279 97.1203 280.279 95.9526C280.279 94.1608 278.598 94.7195 278.266 93.8236C277.939 92.9277 279.393 92.9277 279.73 92.5905Z" fill="#F49E87"/>
<path opacity="0.29" d="M258.123 57.5505C257.565 56.7654 260.736 53.5291 256.583 53.4133H256.578C255.677 53.4989 254.812 53.665 253.085 54.3042C250.337 55.3209 247.68 57.4197 245.762 58.0186C248.395 58.3357 251.299 58.5672 253.196 59.906C255.099 61.2498 253.533 61.9192 257.001 62.8151C260.474 63.711 270.047 60.7667 271.25 59.609C270.782 59.8204 270.193 60.0419 269.538 59.7902C268.084 59.2316 269.317 56.096 271.667 55.7587C271.995 55.7084 272.297 55.648 272.583 55.5524C271.924 55.6832 258.667 58.3155 258.123 57.5505Z" fill="#DC795F"/>
<path opacity="0.29" d="M272.452 62.251C272.276 62.1855 272.175 62.095 272.125 61.9893C271.078 62.6939 269.07 63.6753 265.512 64.2692C259.467 65.2759 254.318 63.0361 247.599 62.704C240.88 62.3667 219.499 62.0698 220.732 62.8348C221.965 63.5998 230.582 63.7106 237.412 64.0478C244.242 64.385 252.748 64.7172 255.883 65.9503C258.601 67.0223 265.2 67.7521 268.944 67.7018C268.743 67.1129 269.02 66.6549 269.986 66.509C272.226 66.1717 273.791 64.0478 274.018 63.7106C274.244 63.3683 273.348 62.5882 272.452 62.251Z" fill="#DC795F"/>
<path opacity="0.29" d="M202.76 92.9228C201.849 92.8372 200.933 91.6897 200.59 90.668C199.634 87.8041 199.413 84.7491 198.482 81.8802C194.636 70.0525 181.565 76.9075 172.813 75C171.691 74.7584 170.593 74.3709 169.461 74.1494C167.74 73.8021 165.968 73.8222 164.211 73.8424C148.85 74.0135 133.495 74.1897 118.139 74.3558C114.127 74.4011 109.95 74.4866 106.366 76.2583C106.185 76.3489 106.044 76.4998 105.959 76.6861C105.792 77.0535 105.646 77.4259 105.511 77.8034C104.982 79.258 104.675 80.788 104.579 82.3332C104.524 83.1536 103.462 83.4103 103.004 82.7258C99.7377 77.8487 94.6945 74.1595 89.0172 72.6244C82.2125 70.7823 74.6226 72.0758 68.8044 76.067C68.3363 76.3891 67.8732 76.7314 67.4203 77.0837C66.6099 77.7128 65.8248 78.3722 65.0447 79.0416C63.3284 80.5062 61.6222 81.9859 59.6945 83.1385C58.4513 83.8884 57.1327 84.4873 55.7737 84.9856C53.1062 85.9721 50.2726 86.566 47.4742 87.1549C46.2411 87.4166 45.018 87.6682 43.7849 87.93L26.8687 91.4682C26.456 91.5588 26.1641 91.9363 26.1893 92.354L26.2245 92.9983L26.3403 95.1172L26.753 102.46V102.496C26.758 102.717 26.6775 102.929 26.5265 103.09L24.8807 104.856L24.2767 105.505C24.2213 105.561 24.1811 105.621 24.1509 105.687C23.8539 106.215 24.2062 106.925 24.8605 106.955C25.2632 106.975 25.6608 106.995 26.0635 107.015C26.1037 107.015 26.1389 107.02 26.1792 107.02C26.7278 107.041 27.3368 107.056 28.0012 107.076C28.2629 107.081 28.5397 107.091 28.8216 107.096C29.6319 107.116 30.5026 107.141 31.4187 107.161C31.7257 107.171 32.0377 107.181 32.3548 107.187C32.4756 107.187 32.5914 107.192 32.7122 107.197C33.4118 107.217 34.1264 107.232 34.8613 107.247C35.2589 107.257 35.6615 107.267 36.0692 107.272C38.7619 107.338 41.6106 107.388 44.3537 107.423H44.8872C49.4169 107.408 53.9517 107.312 58.4715 107.131C58.7432 107.121 58.9798 106.99 59.1207 106.789C58.8842 106.286 58.6979 105.259 58.562 103.98L58.6224 103.975C58.5922 103.865 58.562 103.754 58.5369 103.638V103.633C58.5218 103.593 58.5167 103.558 58.5117 103.517C57.5957 99.803 57.5152 95.8873 58.2601 92.1427C58.8791 89.0221 60.0669 86.0275 61.8285 83.365C64.7175 79.0013 69.1063 75.6694 74.0287 73.9279C76.8774 72.9264 79.9073 72.4482 82.9322 72.6193C85.4488 72.7603 87.9301 73.3542 90.2553 74.3306C95.5501 76.5401 100.03 80.7176 102.305 85.9872C102.949 87.4871 103.422 89.0372 103.754 90.6176C103.754 90.6327 103.759 90.6378 103.759 90.6478C104.66 94.9159 104.59 99.4205 104.388 103.845C104.378 104.106 104.368 104.368 104.353 104.63C104.333 105.058 104.62 105.42 105.022 105.505C105.027 105.511 105.032 105.511 105.032 105.511C105.093 105.526 105.153 105.531 105.214 105.531C105.38 105.531 105.541 105.531 105.707 105.526C115.672 105.495 125.643 105.425 135.608 105.309C136.238 105.304 136.872 105.299 137.501 105.289C138.195 105.279 138.885 105.274 139.58 105.264C149.575 105.153 159.571 104.997 169.562 104.801C170.246 104.791 170.931 104.781 171.615 104.766C171.731 104.766 171.852 104.766 171.967 104.761C182.059 104.564 192.145 104.333 202.231 104.056C202.317 104.056 202.407 104.056 202.493 104.051C202.543 104.051 202.594 104.046 202.639 104.031H202.659C203.037 103.945 203.318 103.608 203.328 103.21L203.464 97.1153L203.54 93.7834C203.54 93.6928 203.53 93.6073 203.505 93.5268C203.414 93.2046 203.127 92.953 202.76 92.9228Z" fill="#DC795F"/>
<path d="M281.97 81.0347C282.287 80.2243 281.935 79.4895 281.935 79.4895L281.97 81.0347Z" fill="#B1B6CF"/>
<path opacity="0.29" d="M278.276 93.8185C277.939 92.9226 279.393 92.9226 279.73 92.5853C279.997 92.3186 280.198 86.0826 280.269 82.4991C279.076 82.9722 277.153 83.254 274.058 83.0678C264.173 82.4739 261.933 80.0479 255.808 83.1282C249.693 86.2034 248.193 78.4424 239.541 74.4159C234.458 72.0504 230.613 71.4816 227.578 71.995C237.936 72.8557 244.66 79.5245 247.604 86.8778C250.961 95.273 249.17 104.343 249.844 104.791C250.513 105.239 277.269 101.318 278.729 100.759C280.183 100.2 280.294 97.7342 280.294 95.9474C280.289 94.1557 278.608 94.7143 278.276 93.8185Z" fill="#DC795F"/>
<path d="M220.682 54.1729C212.448 51.1682 193.247 45.053 192.633 47.3632C192.633 47.3632 189.049 60.6857 189.387 60.9072C189.724 61.1286 204.687 60.8317 214.461 59.9358C224.241 59.0399 228.911 57.1726 220.682 54.1729Z" fill="#E9F6FE"/>
<path d="M159.606 44.2328C146.958 45.2444 127.027 60.1272 125.351 61.9895C123.67 63.8517 152.217 62.4777 167.297 61.9895C182.371 61.5013 182.673 60.9828 182.673 60.9828L187.449 45.5363C186.734 44.4844 172.259 43.2211 159.606 44.2328Z" fill="#E9F6FE"/>
<path d="M143.958 42.9289C129.317 50.3628 111.691 60.9071 111.691 60.9071C111.691 60.9071 114.827 63.0361 116.503 62.9354C118.184 62.8348 146.167 44.9019 146.615 43.8601C147.068 42.8232 143.958 42.9289 143.958 42.9289Z" fill="#E9F6FE"/>
<path d="M139.755 53.3979C137.269 53.4583 134.008 56.2818 133.338 57.2532C132.669 58.2246 132.815 59.5684 132.442 59.7899C132.07 60.0114 130.5 59.8654 130.877 59.191C131.249 58.5216 132.724 56.4026 132.724 56.4026L129.584 58.6071C129.584 58.6071 128.235 60.4593 129.181 61.5062C130.127 62.5531 134.904 62.2511 137.893 62.2511C140.878 62.2511 144.461 60.9827 144.386 57.3992C144.305 53.8156 142.242 53.3375 139.755 53.3979Z" fill="#F48E73"/>
<path d="M249.668 103.674C249.673 104.313 249.713 104.71 249.839 104.791C250.509 105.239 277.264 101.318 278.724 100.759C279.232 100.568 279.569 100.14 279.806 99.5968L279.801 99.5918L249.668 103.674Z" fill="#243145"/>
<path d="M249.668 103.658C249.693 103.387 250.066 99.35 249.441 94.3773C249.925 98.4289 249.663 101.932 249.668 103.658Z" fill="#243145"/>
<path d="M241.288 77.7834C244.161 80.3554 246.27 83.5413 247.599 86.8782C248.228 88.4586 248.681 90.0642 248.998 91.6345C248.007 86.5561 245.848 81.0751 241.288 77.7834Z" fill="#243145"/>
<path d="M209.106 79.1924C211.985 75.8202 216.133 72.8809 221.775 72.1158C217.079 72.7248 212.655 74.9495 209.106 79.1924Z" fill="#243145"/>
<path d="M202.483 102.219L104.398 103.658C104.398 103.658 107.005 91.7146 100.533 82.3933C102.309 85.1615 103.371 88.2417 103.855 91.2163C105.052 98.6049 103.855 105.022 104.448 105.47C105.047 105.918 202.739 104.428 203.263 103.98C203.691 103.613 203.867 97.8801 204.083 93.1591C204.134 92.1172 205.754 90.4462 205.875 89.6208C206.102 88.0757 204.803 85.8913 206.248 83.3043C200.852 92.7212 202.483 102.219 202.483 102.219Z" fill="#243145"/>
<path d="M58.6577 90.0388C59.2667 87.6229 60.8773 85.2775 63.3334 81.9003C67.8834 75.6291 76.8422 71.2855 87.3664 73.5252C88.4032 73.7467 89.3847 74.0235 90.3108 74.3557C90.2906 74.3456 90.2655 74.3356 90.2453 74.3305C71.9803 66.7507 60.0418 81.5429 58.6577 90.0388Z" fill="#243145"/>
<path d="M58.5416 103.84C58.4158 102.662 58.3252 101.288 58.2598 99.929C58.3252 102.133 58.4913 103.477 58.5416 103.84Z" fill="#243145"/>
<path d="M57.9378 104.006L56.5537 104.066H56.5486L24.2967 105.505L24.1406 105.687C23.8437 106.215 24.196 106.925 24.8503 106.955C25.2529 106.975 25.6505 106.995 26.0532 107.015C26.0935 107.015 26.1287 107.02 26.169 107.02C26.7176 107.036 27.3266 107.051 27.9909 107.076C28.2527 107.081 28.5295 107.091 28.8113 107.096C29.6217 107.116 30.4924 107.141 31.4084 107.161C31.7154 107.171 32.0275 107.182 32.3445 107.187C32.4653 107.187 32.5811 107.192 32.7019 107.197C33.4015 107.217 34.1162 107.232 34.851 107.247C35.2486 107.257 35.6513 107.267 36.059 107.272C38.9077 107.332 41.9477 107.388 44.8769 107.423C49.4067 107.408 53.9415 107.312 58.4612 107.131C58.733 107.121 58.9695 106.99 59.1105 106.789C58.8739 106.286 58.6877 105.259 58.5518 103.98L57.9378 104.006Z" fill="#243145"/>
<path d="M237.947 99.831C241.919 93.3233 239.864 84.8275 233.356 80.855C226.849 76.8826 218.353 78.9378 214.38 85.4454C210.408 91.9531 212.463 100.449 218.971 104.421C225.478 108.394 233.974 106.339 237.947 99.831Z" fill="#E9F6FE"/>
<path d="M226.178 89.938C224.694 89.938 223.491 91.1409 223.491 92.6257C223.491 94.1104 224.694 95.3133 226.178 95.3133C227.663 95.3133 228.866 94.1104 228.866 92.6257C228.866 91.1409 227.663 89.938 226.178 89.938Z" fill="#243145"/>
<path d="M88.5528 103.079C94.3247 98.097 94.9651 89.3793 89.9831 83.6074C85.0011 77.8355 76.2834 77.1951 70.5115 82.1771C64.7396 87.1591 64.0992 95.8768 69.0812 101.649C74.0632 107.421 82.7809 108.061 88.5528 103.079Z" fill="#E9F6FE"/>
<path d="M79.5348 89.938C78.0501 89.938 76.8472 91.1409 76.8472 92.6257C76.8472 94.1104 78.0501 95.3133 79.5348 95.3133C81.0196 95.3133 82.2225 94.1104 82.2225 92.6257C82.2225 91.1409 81.0196 89.938 79.5348 89.938Z" fill="#243145"/>
<path d="M329.976 99.068C330.046 98.0714 330.036 96.9692 329.9 95.7059C328.984 86.9986 326.231 82.4135 316.15 81.9555C306.069 81.4975 301.484 71.8742 276.731 66.3731C251.978 60.8719 209.353 60.4139 192.855 63.625C180.634 66.0006 168.268 72.8053 157.89 79.4993C155.061 81.3213 152.394 82.3179 149.756 82.8262C143.525 84.0341 137.476 82.5443 129.981 82.8866C120.836 83.3094 111.525 84.1499 102.561 86.0876C90.8744 88.6092 70.0173 102.818 68.6433 105.797C68.5829 105.923 68.5275 106.054 68.4872 106.18C67.5008 108.887 70.0525 110.246 70.7068 117.257C71.3964 124.591 69.7908 123.675 70.7068 127.57C71.6228 131.466 87.8948 129.176 87.8948 129.176C87.8948 129.176 91.7904 130.781 92.6863 130.525C92.802 130.494 93.5973 130.399 94.9059 130.253C92.9329 126.997 91.7954 123.181 91.7954 119.095C91.7954 107.196 101.439 97.553 113.337 97.553C125.235 97.553 134.879 107.196 134.879 119.095C134.879 122.281 134.184 125.31 132.946 128.028C135.15 128.169 136.444 128.481 136.333 129.03C135.719 132.085 142.75 129.523 142.75 129.523C142.75 129.523 245.798 127.575 249.009 129.523C252.215 131.471 255.652 129.523 255.652 129.523C255.652 129.523 256.644 129.433 258.32 129.282C256.694 126.247 255.768 122.784 255.768 119.1C255.768 107.201 265.412 97.558 277.31 97.558C289.208 97.558 298.851 107.201 298.851 119.1C298.851 122.512 298.056 125.743 296.642 128.612C297.09 130.062 304.055 129.79 317.529 127.812C333.111 125.522 334.027 119.563 329.905 112.687C326.372 106.784 329.548 104.931 329.976 99.068Z" fill="#FF9A63"/>
<path d="M118.368 139.575C129.934 136.791 137.054 125.158 134.27 113.591C131.486 102.025 119.853 94.9056 108.286 97.6895C96.7201 100.473 89.6006 112.107 92.3845 123.673C95.1684 135.239 106.802 142.359 118.368 139.575Z" fill="#243145"/>
<path d="M283.122 139.271C294.519 135.861 300.994 123.858 297.585 112.46C294.175 101.063 282.171 94.5874 270.774 97.9971C259.377 101.407 252.901 113.41 256.311 124.808C259.721 136.205 271.724 142.68 283.122 139.271Z" fill="#243145"/>
<path d="M116.034 132.423C123.697 130.939 128.707 123.524 127.223 115.861C125.739 108.197 118.324 103.188 110.661 104.672C102.998 106.156 97.988 113.571 99.4718 121.234C100.956 128.897 108.371 133.907 116.034 132.423Z" fill="#E9F6FE"/>
<path d="M113.337 115.798C111.817 115.798 110.589 117.031 110.589 118.546C110.589 120.066 111.822 121.294 113.337 121.294C114.857 121.294 116.085 120.061 116.085 118.546C116.09 117.031 114.857 115.798 113.337 115.798Z" fill="#243145"/>
<path d="M281.026 132.087C288.501 129.841 292.741 121.961 290.495 114.486C288.249 107.01 280.369 102.771 272.894 105.016C265.419 107.262 261.179 115.142 263.425 122.618C265.671 130.093 273.551 134.332 281.026 132.087Z" fill="#E9F6FE"/>
<path d="M276.967 115.798C275.447 115.798 274.219 117.031 274.219 118.546C274.219 120.066 275.452 121.294 276.967 121.294C278.487 121.294 279.715 120.061 279.715 118.546C279.715 117.031 278.482 115.798 276.967 115.798Z" fill="#243145"/>
<path d="M214.517 65.341C212.227 64.6515 197.103 64.5408 188.048 67.9784C178.994 71.416 156.536 84.8241 158.715 85.8559C160.895 86.8877 208.417 85.8609 209.363 83.5658C209.358 83.5608 216.807 66.0306 214.517 65.341Z" fill="#E9F6FE"/>
<path d="M227.236 64.9589C227.236 64.9589 221.851 64.5411 221.161 66.6047C220.471 68.6683 218.066 83.1031 218.871 83.7927C219.671 84.4822 247.403 83.3347 249.387 82.1116C251.375 80.8886 251.984 68.3613 250.459 66.9872C248.928 65.6082 227.236 64.9589 227.236 64.9589Z" fill="#E9F6FE"/>
<path d="M271.084 72.0251C268.029 69.428 253.362 67.7469 253.362 67.7469C253.362 67.7469 253.513 78.2912 252.139 79.9673C250.765 81.6483 252.748 82.5643 259.322 81.0343C265.89 79.5143 274.139 74.6221 271.084 72.0251Z" fill="#E9F6FE"/>
<path d="M321.304 82.7156C317.217 82.0261 313.825 81.6788 313.825 81.6788C313.825 81.6788 299.651 86.3898 301.181 88.0708C302.712 89.7519 319.361 90.6679 323.181 89.6009C327.001 88.5339 327.107 86.5408 327.107 86.5408C327.107 86.5408 325.396 83.4052 321.304 82.7156Z" fill="#E9F6FE"/>
<path d="M96.3854 88.0907C96.3854 88.0907 88.0456 91.0401 76.4595 99.2188C76.4595 99.2188 78.1657 102.47 86.7572 98.4588C95.3486 94.4475 98.3383 91.8152 97.8702 89.7516C97.4072 87.683 96.3854 88.0907 96.3854 88.0907Z" fill="#E9F6FE"/>
<path d="M329.976 99.0681C324.892 100.669 317.912 104.318 307.901 106.034C290.486 109.029 303.668 88.9717 276.962 93.3555C250.257 97.7393 252.441 107.166 251.722 97.08C251.007 86.9987 225.857 100.593 214.955 100.457C204.048 100.326 205.694 99.063 195.301 100.457C184.912 101.851 150.693 96.929 147.632 102.43C144.577 107.931 150.078 116.181 145.8 118.546C141.522 120.917 136.026 96.622 120.439 94.2564C104.856 91.8909 91.4129 107.01 91.7904 104.413C92.0924 102.36 75.4933 104.977 68.4872 106.17C67.5008 108.878 70.0525 110.236 70.7068 117.248C71.3964 124.581 69.7908 123.665 70.7068 127.56C71.6228 131.456 87.8948 129.166 87.8948 129.166C87.8948 129.166 91.7904 130.771 92.6863 130.515C92.802 130.485 93.5973 130.389 94.9059 130.243C92.9329 126.987 91.7954 123.171 91.7954 119.085C91.7954 107.186 101.439 97.543 113.337 97.543C125.235 97.543 134.879 107.186 134.879 119.085C134.879 122.271 134.184 125.3 132.946 128.018C135.15 128.159 136.444 128.471 136.333 129.02C135.719 132.075 142.75 129.513 142.75 129.513C142.75 129.513 245.798 127.565 249.009 129.513C252.215 131.461 255.652 129.513 255.652 129.513C255.652 129.513 256.644 129.423 258.32 129.272C256.694 126.237 255.768 122.774 255.768 119.09C255.768 107.191 265.412 97.5481 277.31 97.5481C289.208 97.5481 298.851 107.191 298.851 119.09C298.851 122.502 298.056 125.733 296.642 128.602C297.09 130.052 304.055 129.78 317.529 127.802C333.111 125.512 334.027 119.553 329.905 112.678C326.372 106.784 329.548 104.932 329.976 99.0681Z" fill="#FF9053"/>
<path d="M225.422 133.297C224.254 132.718 221.813 131.052 221.813 131.052C221.813 131.052 220.495 131.369 219.609 130.292C219.609 130.292 218.552 131.505 218.461 132.497C218.376 133.488 218.114 135.521 218.461 135.823C218.809 136.125 220.319 136.171 221.053 135.823C221.788 135.476 222.87 135.708 223.691 136.065C224.511 136.427 227.969 136.468 228.225 135.345C228.492 134.228 226.59 133.876 225.422 133.297Z" fill="#243145"/>
<path d="M244.487 133.297C243.32 132.718 240.879 131.052 240.879 131.052C240.879 131.052 239.56 131.369 238.674 130.292C238.674 130.292 237.617 131.505 237.527 132.497C237.441 133.488 237.179 135.521 237.527 135.823C237.874 136.125 239.384 136.171 240.119 135.823C240.854 135.476 241.936 135.708 242.756 136.065C243.577 136.427 247.034 136.468 247.296 135.345C247.558 134.228 245.655 133.876 244.487 133.297Z" fill="#243145"/>
<path d="M243.547 56.8293C243.547 56.8293 230.506 62.9143 220.752 56.8293C220.752 56.8293 213.293 67.0868 213.751 76.5993C214.209 86.1118 218.572 94.4667 216.851 97.8691C215.13 101.271 213.061 109.772 214.898 117.81C216.735 125.848 219.262 131.465 219.262 131.465H222.362C222.362 131.465 223.857 110.613 226.152 105.258C228.447 99.8974 229.826 93.4651 230.284 87.4959C230.742 81.5216 231.507 77.0422 232.121 76.6043C232.736 76.1664 235.061 94.0792 233.974 99.1324C232.886 104.186 232.736 118.782 237.94 131.465H241.614C241.614 131.465 243.753 106.269 245.243 100.23C246.425 95.4482 247.578 68.8987 243.879 57.7705C243.773 57.4384 243.662 57.1263 243.547 56.8293Z" fill="#243145"/>
<path d="M269.713 24.1091C269.713 24.1091 264.162 29.7663 260.03 34.3062C258.485 36.0023 256.743 33.0529 256.144 31.694C254.982 29.0567 253.99 26.3036 252.037 24.1242C248.751 20.4602 243.909 18.7489 239.163 18.009C234.406 17.2642 229.504 16.791 224.803 17.843C221.612 18.5577 218.708 19.9116 216.025 21.648C211.939 24.2954 208.365 27.8286 205.053 31.3316C201.284 35.3228 193.623 41.6041 197.232 47.7847C198.843 50.5429 216.851 59.698 216.851 59.698L218.763 57.3073C218.763 57.3073 208.546 45.6859 208.083 44.78C207.625 43.874 214.36 39.2587 216.197 40.9398C218.034 42.6258 220.747 56.8242 220.747 56.8242C230.964 64.9022 243.541 56.8242 243.541 56.8242C244.256 56.3661 244.568 52.1031 244.739 51.2978C245.368 48.3384 244.83 45.686 245.811 42.8574C246.244 41.6092 247.261 41.2518 248.539 41.7048C252.767 43.1895 256.335 49.9842 261.248 45.8772C264.494 43.1593 266.095 38.7755 267.846 35.0813C269.296 32.0211 270.609 28.8604 271.656 25.6392C270.614 25.3473 269.713 24.1091 269.713 24.1091Z" fill="#FF931E"/>
<path d="M222.247 56.8293C221.325 56.8293 218.764 57.3125 218.764 57.3125L216.851 59.7032C216.851 59.7032 218.114 60.3928 219.951 59.9348C221.789 59.4767 223.51 61.0823 224.431 60.8558C225.347 60.6193 223.163 56.8293 222.247 56.8293Z" fill="#AB5E27" fill-opacity="0.9"/>
<path d="M277.169 23.5268C275.704 24.1459 273.117 23.5268 273.117 23.5268C273.117 23.5268 274.975 23.0185 274.582 22.6813C274.19 22.344 271.597 23.245 270.697 23.245C269.796 23.245 268.447 25.1022 268.447 25.1022C268.955 26.9594 270.304 26.5668 270.304 26.5668C270.304 26.5668 271.376 25.4948 273.178 25.7212C274.98 25.9477 278.865 24.4831 278.88 23.854C278.885 23.2299 278.634 22.9078 277.169 23.5268Z" fill="#AB5E27" fill-opacity="0.9"/>
<path d="M229.112 4.92803C228.221 5.33068 227.4 5.94975 226.907 6.79027C226.308 7.81199 226.228 9.05516 226.333 10.2329C226.369 10.6154 226.404 11.013 226.444 11.4207C226.676 13.7259 227.073 16.328 228.654 17.9889C229.912 19.3126 231.719 19.5441 233.45 19.2874C236.852 18.7841 237.794 13.0514 237.794 13.0514C237.794 13.0514 238.237 10.5953 237.794 8.45622C236.958 4.39453 232.464 3.41811 229.112 4.92803Z" fill="#AB5E27" fill-opacity="0.9"/>
<path d="M237.149 4.77224C236.676 4.25384 236.726 4.11291 236.772 3.02576C236.817 1.93862 234.693 1.79769 234.034 2.12988C233.374 2.46206 232.614 1.93862 232.287 0.856508C231.96 -0.230637 228.694 0.715582 228.175 1.6618C227.657 2.60802 227.516 3.88139 227.043 4.02231C226.57 4.16324 225.86 4.82761 225.88 5.86442C225.895 6.90124 225.296 8.27527 224.874 8.9346C224.451 9.59393 224.541 10.1627 225.347 11.129C225.709 11.5669 225.981 11.8186 226.177 11.9695C226.046 12.9158 225.865 14.4358 225.961 15.1253C226.102 16.1621 226.333 17.2996 225.936 18.7139C225.538 20.1332 227.566 21.7035 228.608 21.8142C229.645 21.925 229.363 23.3896 231.915 23.294C234.467 23.1983 234.653 21.7035 235.458 21.8142C236.263 21.925 237.869 21.1197 238.483 19.9419C239.097 18.7592 238.246 15.7393 238.246 14.6018C238.246 13.8419 238.322 12.7497 238.231 12.1809C238.231 12.1809 239.283 10.3992 239.475 9.64426C239.666 8.8893 238.815 7.94308 238.704 7.09249C238.589 6.23687 237.622 5.29065 237.149 4.77224ZM235.649 14.8686C235.589 14.9542 235.524 15.0448 235.448 15.1152C235.403 15.1605 235.352 15.2008 235.297 15.231C235.025 15.3769 234.698 15.2813 234.401 15.2008C232.932 14.783 231.361 14.7075 229.856 14.9743C229.605 15.0196 229.338 15.075 229.091 15.0095C228.92 14.9642 228.769 14.8686 228.628 14.7629C227.702 14.0532 227.249 12.9007 226.836 11.8035C226.706 11.4511 226.57 11.0888 226.585 10.7163C226.61 9.90095 227.294 9.28188 227.924 8.76348C228.402 8.36586 228.9 7.96322 229.499 7.78202C230.022 7.62097 230.586 7.64613 231.13 7.57567C231.744 7.49514 232.343 7.28375 232.876 6.96163C233.103 6.82574 233.425 6.67978 233.591 6.89117C233.656 6.9717 233.661 7.08243 233.681 7.18309C233.777 7.72163 234.185 8.14441 234.592 8.50679C235.101 8.95473 235.649 9.36241 236.228 9.71976C238.528 11.1391 236.742 13.3436 235.649 14.8686Z" fill="#243145"/>
<path d="M231.719 15.6338C231.185 15.6338 230.501 16.0012 230.586 16.3233C230.622 16.4542 230.773 16.575 231.11 16.6656C231.558 16.7864 232.967 16.9474 233.183 16.3435C233.37 15.825 232.851 15.6338 231.719 15.6338Z" fill="#F49E87"/>
</svg>
