<svg width="21" height="20" viewBox="0 0 21 20" fill="none" xmlns="http://www.w3.org/2000/svg">
<path d="M10.4998 1.68701C5.93758 1.68701 2.23486 5.38972 2.23486 9.952C2.23486 14.5143 5.93758 18.217 10.4998 18.217C15.0621 18.217 18.7648 14.5143 18.7648 9.952C18.7648 5.38972 15.0704 1.68701 10.4998 1.68701Z" fill="#ACACAC"/>
<rect x="3.8877" y="3.34131" width="13.224" height="13.224" rx="6.61199" fill="white"/>
<path d="M10.4998 4.9939C7.7624 4.9939 5.54077 7.21552 5.54077 9.95289C5.54077 12.6902 7.7624 14.9119 10.4998 14.9119C13.2371 14.9119 15.4588 12.6902 15.4588 9.95289C15.4588 7.21552 13.2421 4.9939 10.4998 4.9939Z" fill="#ACACAC"/>
<rect x="7.19385" y="6.646" width="6.61199" height="6.61199" rx="3.30599" fill="white"/>
<rect x="9.67334" y="14.0853" width="1.653" height="3.30599" fill="#ACACAC"/>
<rect x="14.6323" y="9.12634" width="3.30599" height="1.653" fill="#ACACAC"/>
<rect x="3.06128" y="9.12634" width="3.30599" height="1.653" fill="#ACACAC"/>
</svg>
