<svg width="31" height="34" viewBox="0 0 31 34" fill="none" xmlns="http://www.w3.org/2000/svg">
<path d="M2.91929 0.773926C1.39321 0.773926 0.119141 2.01692 0.119141 3.50578V32.1902C0.119141 32.5525 0.266648 32.8999 0.529213 33.1561C0.791778 33.4123 1.14789 33.5562 1.51922 33.5562H18.3201C18.6914 33.5562 19.0476 33.4123 19.3101 33.1561C19.5727 32.8999 19.7202 32.5525 19.7202 32.1902V26.0436C19.7202 25.8624 19.7939 25.6887 19.9252 25.5606C20.0565 25.4326 20.2346 25.3606 20.4202 25.3606H21.1203C21.9099 25.3606 22.5203 25.9561 22.5203 26.7265V28.0925C22.5203 30.3394 24.4174 32.1902 26.7206 32.1902C29.0237 32.1902 30.9208 30.3394 30.9208 28.0925V10.3354C30.9208 9.04734 30.2978 7.8303 29.2407 7.05719L24.7605 3.77896C24.4631 3.56232 24.0899 3.46942 23.7226 3.52062C23.3552 3.57182 23.0236 3.76295 22.8004 4.05215C22.5787 4.34235 22.4837 4.70634 22.5361 5.06464C22.5886 5.42294 22.7842 5.74642 23.0804 5.96445L24.7605 7.19378C24.9343 7.32101 25.0755 7.48599 25.1727 7.67566C25.2699 7.86533 25.3205 8.07447 25.3205 8.28652V11.7013C25.3205 12.9607 26.2263 14.0425 27.429 14.3485C27.8014 14.4428 28.1206 14.7392 28.1206 15.1162V28.0925C28.1206 28.8628 27.5102 29.4584 26.7206 29.4584C25.9309 29.4584 25.3205 28.8628 25.3205 28.0925V26.7265C25.3205 24.4796 23.4234 22.6288 21.1203 22.6288H20.4202C20.2346 22.6288 20.0565 22.5568 19.9252 22.4287C19.7939 22.3006 19.7202 22.1269 19.7202 21.9458V3.50578C19.7202 2.01692 18.4461 0.773926 16.92 0.773926H2.91929ZM3.61933 3.50578H16.22C16.6078 3.50578 16.92 3.81038 16.92 4.18874V13.7502C16.92 14.1286 16.6078 14.4332 16.22 14.4332H3.61933C3.52735 14.4334 3.43623 14.4158 3.35122 14.3816C3.2662 14.3473 3.18896 14.297 3.12391 14.2336C3.05887 14.1701 3.00732 14.0947 2.9722 14.0118C2.93709 13.9289 2.91911 13.84 2.91929 13.7502V4.18874C2.91929 3.81038 3.23151 3.50578 3.61933 3.50578Z" fill="#FF8C00"/>
</svg>
