<svg width="119" height="42" viewBox="0 0 119 42" fill="none" xmlns="http://www.w3.org/2000/svg">
<path d="M10.2628 20.1035H111.18V33.8156H10.2628V20.1035Z" fill="#E0E0E0"/>
<g opacity="0.4">
<path d="M10.2628 20.1035H111.18V33.8156H10.2628V20.1035Z" fill="black"/>
</g>
<path d="M4.43751 19.2952C7.30463 17.5208 14.7451 14.7379 16.8103 14.5013C18.0614 14.357 23.6272 13.5911 23.6272 13.5911L25.4317 13.4467C25.4317 13.4467 44.6254 3.93104 47.673 2.75211C52.3987 0.923566 62.3875 -0.656359 72.9779 0.642871C72.9779 0.642871 87.129 1.93809 90.2749 2.84835C93.4207 3.75862 108.634 8.50441 108.634 8.50441C108.634 8.50441 115.305 9.20816 115.201 9.47081C115.201 9.47081 115.109 9.90188 114.553 10.4292V14.6838C114.553 14.6838 115.293 15.6863 115.478 16.1695C115.662 16.6527 116.079 20.4361 116.079 20.4361C116.079 20.4361 118.084 25.1819 118.084 26.427C118.084 27.6721 114.475 32.468 113.593 33.1878C112.711 33.9076 105.615 34.9542 105.615 34.9542L105.627 31.3652C105.441 25.9017 101.186 21.5308 95.963 21.5308C90.74 21.5308 86.4854 25.9017 86.297 31.3652L86.2769 36.0148H30.9053L30.9434 32.5642C30.9634 32.2915 30.9775 32.0169 30.9775 31.7382C30.9775 26.1001 26.6447 21.5308 21.3034 21.5308C15.9622 21.5308 11.6294 26.1001 11.6294 31.7382C11.6294 32.0169 11.6414 32.2915 11.6635 32.5642H11.463V36.0148H5.08111C5.08111 36.0148 -0.0997772 32.0369 0.0385666 30.0239V24.3578C0.0368652 23.6096 0.310158 22.8867 0.80648 22.3268C1.86819 21.1505 3.09058 20.1299 4.43751 19.2952Z" fill="#E0E0E0"/>
<g opacity="0.2">
<path d="M0.0425262 26.002L4.12467 24.4922L4.60988 26.7939L11.1421 26.435C11.1421 26.435 14.0132 20.7509 19.8838 20.2497C24.9103 19.8226 28.9063 22.413 28.9063 22.413L57.6156 19.4597C57.6156 19.4597 72.1838 18.8843 77.8038 18.9565C83.4238 19.0286 88.3761 23.2612 88.3761 23.2612C88.3761 23.2612 90.0342 20.767 95.9108 20.7108C101.787 20.6547 104.24 24.2316 104.24 24.2316C108.427 23.6496 112.382 21.9585 115.696 19.3334L115.981 19.57C116.041 20.0813 116.081 20.4422 116.081 20.4422C116.081 20.4422 118.086 25.188 118.086 26.433C118.086 27.6781 114.477 32.4741 113.595 33.1938C112.713 33.9136 105.617 34.9602 105.617 34.9602L105.629 31.3713C105.443 25.9077 101.188 21.5369 95.965 21.5369C90.742 21.5369 86.4874 25.9077 86.2989 31.3713L86.2789 36.0209H30.9052L30.9433 32.5703C30.9634 32.2976 30.9774 32.0229 30.9774 31.7442C30.9774 26.1062 26.6446 21.5369 21.3034 21.5369C15.9621 21.5369 11.6293 26.1062 11.6293 31.7442C11.6293 32.0229 11.6413 32.2976 11.6634 32.5703H11.4629V36.0209H5.08105C5.08105 36.0209 -0.0998306 32.043 0.0385132 30.03V26.002H0.0425262Z" fill="black"/>
</g>
<path d="M98.5591 8.81472C98.6689 8.89701 98.7521 9.00965 98.7985 9.13871C98.8449 9.26778 98.8524 9.40761 98.8202 9.54093C98.788 9.67424 98.7174 9.7952 98.6172 9.88884C98.517 9.98249 98.3916 10.0447 98.2564 10.0678L93.3903 10.7415L65.7395 13.8994L32.0258 15.8382C31.7566 15.8578 31.487 15.8056 31.2447 15.6869C31.0023 15.5681 30.7958 15.3872 30.6463 15.1625C30.3596 14.7174 30.2453 14.0978 30.9591 13.3921C32.3746 11.9886 38.6342 8.33954 40.1038 7.62175C41.5735 6.90397 51.8851 0.492029 67.2774 1.36821C71.937 1.53462 80.8772 2.91405 92.4319 4.48395C92.6811 4.51812 92.9177 4.61467 93.1196 4.76465L98.5591 8.81472Z" fill="#263238"/>
<path d="M92.8047 10.225C92.7345 10.0105 90.2463 5.13839 89.7631 4.85168C89.2799 4.56497 69.1599 1.91438 68.8852 2.27127C68.6105 2.62815 67.9188 12.8776 67.9188 12.8776L92.8047 10.225Z" fill="#455A64"/>
<path d="M85.138 4.1076L85.3145 11.2594H84.2759V3.9873L85.138 4.1076Z" fill="#263238"/>
<path d="M36.7921 9.4707C36.7921 9.4707 36.774 9.50679 36.7419 9.57897C36.7099 9.65115 36.6597 9.76143 36.5976 9.90378C36.5354 10.0461 36.4532 10.2226 36.371 10.4391C36.2888 10.6556 36.1966 10.9063 36.0903 11.189C35.5251 12.8504 35.1295 14.5647 34.9094 16.3057C34.5677 19.0097 34.4851 21.7402 34.6628 24.46C34.753 26.0339 34.9194 27.702 35.176 29.4484C35.3064 30.3205 35.4547 31.2127 35.6432 32.119C35.6838 32.3508 35.7435 32.5788 35.8216 32.8007C35.912 33.0188 36.0172 33.2305 36.1364 33.4343C36.3748 33.8452 36.6345 34.2434 36.9144 34.6272L36.9304 34.6493H36.9565L59.8133 34.2182L72.2823 33.9315C74.2652 33.8914 76.194 33.8513 78.0566 33.8373C78.2892 33.8373 78.5198 33.8373 78.7503 33.8373C78.9809 33.8373 79.2095 33.8373 79.4441 33.8373C79.9054 33.7984 80.3541 33.6668 80.7633 33.4503C81.1651 33.2373 81.5339 32.9672 81.8581 32.6483C82.1813 32.336 82.4666 31.9868 82.7082 31.6077C84.8375 28.5682 86.7623 25.7592 88.4444 23.253C89.2825 21.9978 90.0665 20.8209 90.7722 19.7202C91.478 18.6194 92.1216 17.6029 92.6649 16.6606C92.9293 16.2177 93.1676 15.7598 93.3787 15.2892L93.513 14.9543C93.5571 14.8441 93.5812 14.7298 93.6153 14.6195C93.6494 14.5092 93.6855 14.403 93.7035 14.2947C93.7216 14.1864 93.7436 14.0782 93.7617 13.9719C93.8785 13.2542 93.8312 12.5193 93.6233 11.8226C93.4994 11.394 93.3159 10.9849 93.078 10.6075C92.9985 10.4775 92.9087 10.3541 92.8093 10.2386L92.8775 10.3328C92.9216 10.395 92.9857 10.4872 93.0639 10.6155C93.6721 11.6195 93.9038 12.8069 93.7175 13.9659C93.6975 14.0681 93.6774 14.1664 93.6574 14.2827C93.6373 14.399 93.5972 14.4952 93.5692 14.6055C93.5411 14.7157 93.509 14.828 93.4649 14.9363L93.3306 15.2671C93.1183 15.7347 92.8787 16.1892 92.6128 16.6285C92.0674 17.5668 91.4238 18.5814 90.7121 19.6781C90.0003 20.7748 89.2184 21.9497 88.3763 23.2028C86.6881 25.7051 84.7673 28.51 82.626 31.5456C82.1553 32.2996 81.4996 32.9208 80.7212 33.3501C80.3244 33.5592 79.8892 33.6854 79.4421 33.721C79.2195 33.733 78.9909 33.733 78.7584 33.721C78.5258 33.709 78.2952 33.721 78.0606 33.721C76.198 33.733 74.2692 33.7711 72.2863 33.8112L59.8133 34.1019L36.9565 34.549L36.9986 34.5711C36.7214 34.1901 36.4637 33.7953 36.2266 33.3882C36.1091 33.1889 36.0053 32.9819 35.9159 32.7686C35.8408 32.5522 35.7825 32.3303 35.7414 32.105C35.553 31.2027 35.4026 30.3125 35.2703 29.4403C35.0116 27.7 34.8432 26.0319 34.749 24.464C34.5666 21.7489 34.6411 19.0228 34.9715 16.3217C35.1848 14.5836 35.5703 12.8709 36.1224 11.209C36.2246 10.9243 36.3229 10.6737 36.3971 10.4552C36.4713 10.2366 36.5575 10.0642 36.6156 9.91782L36.75 9.591C36.778 9.51281 36.7921 9.4707 36.7921 9.4707Z" fill="#263238"/>
<path d="M65.3124 13.9238C65.2868 13.9887 65.2674 14.0558 65.2543 14.1243C65.2242 14.2587 65.1841 14.4592 65.144 14.7258C65.0618 15.2431 64.9756 15.999 64.9194 16.9313C64.7991 18.804 64.8473 21.3944 64.8833 24.2515C64.9194 27.1086 64.9876 29.699 65.0397 31.5717C65.0678 32.498 65.0899 33.2539 65.1079 33.7892C65.1173 34.0418 65.1253 34.2423 65.132 34.3907C65.132 34.4529 65.132 34.505 65.142 34.5471C65.1352 34.5486 65.1292 34.5525 65.1252 34.5581C65.1212 34.5637 65.1193 34.5707 65.1201 34.5775C65.1208 34.5844 65.1241 34.5908 65.1292 34.5954C65.1344 34.6 65.1411 34.6026 65.148 34.6026C65.1549 34.6026 65.1616 34.6 65.1667 34.5954C65.1719 34.5908 65.1752 34.5844 65.1759 34.5775C65.1766 34.5707 65.1748 34.5637 65.1708 34.5581C65.1667 34.5525 65.1608 34.5486 65.154 34.5471C65.154 34.505 65.154 34.4529 65.154 34.3907C65.154 34.2423 65.154 34.0398 65.154 33.7892C65.154 33.2539 65.136 32.5 65.1239 31.5717C65.0919 29.689 65.0498 27.1046 65.0036 24.2515C64.9575 21.3984 64.9054 18.806 65.0036 16.9373C65.0478 16.003 65.1199 15.2491 65.1881 14.7318C65.2222 14.4732 65.2543 14.2727 65.2783 14.1303C65.2883 14.0682 65.2984 14.0181 65.3064 13.976C65.311 13.959 65.313 13.9414 65.3124 13.9238Z" fill="#263238"/>
<path d="M65.0762 2.068L63.0211 12.8789L41.0164 14.4969L37.628 9.73305C37.628 9.73305 46.1571 4.70856 53.6478 3.19279C61.2426 1.65096 65.0762 2.068 65.0762 2.068Z" fill="#455A64"/>
<g opacity="0.2">
<path d="M82.3809 27.0388C82.3809 27.0388 72.1053 31.5179 70.2367 31.939C68.368 32.36 38.2572 32.6026 38.2572 32.6026L37.6336 31.2092L69.0618 30.9946C69.0618 30.9946 81.6871 26.1125 82.3809 27.0388Z" fill="black"/>
</g>
<path d="M88.3756 23.2615C88.3952 23.2465 88.4133 23.2297 88.4298 23.2114C88.4638 23.1753 88.518 23.1272 88.5882 23.061C88.7988 22.8782 89.0197 22.7075 89.2498 22.5498C89.6163 22.3083 89.9996 22.0932 90.3967 21.9062C90.9232 21.6661 91.4667 21.4651 92.0227 21.3047C92.6965 21.1177 93.3835 20.9824 94.0778 20.8997C94.4507 20.8395 94.8397 20.8235 95.2387 20.7894C95.4392 20.7713 95.6397 20.7794 95.8402 20.7733C96.0407 20.7673 96.2552 20.7593 96.4677 20.7733C98.312 20.8576 100.115 21.3507 101.745 22.2169C102.473 22.5928 103.158 23.048 103.786 23.5743L103.834 23.6164L103.87 23.5643C104.851 22.1608 105.763 20.8355 106.553 19.6185C107.343 18.4014 108.012 17.2907 108.558 16.3584C109.103 15.4261 109.524 14.6682 109.815 14.1529C109.953 13.8963 110.064 13.6958 110.142 13.5514L110.226 13.395C110.237 13.3775 110.245 13.3586 110.25 13.3389C110.237 13.3546 110.226 13.3714 110.216 13.389L110.124 13.5394L109.787 14.1288L108.502 16.3203C107.948 17.2486 107.275 18.3513 106.479 19.5623C105.683 20.7733 104.774 22.1026 103.786 23.5061H103.87C103.235 22.9725 102.542 22.5112 101.805 22.1307C100.16 21.257 98.3406 20.7624 96.4798 20.6831C96.2672 20.6631 96.0547 20.6831 95.8482 20.6831C95.6417 20.6831 95.4352 20.6831 95.2327 20.7032C94.8317 20.7393 94.4407 20.7573 94.0658 20.8195C93.3673 20.9086 92.6768 21.0521 92.0006 21.2485C91.4414 21.4124 90.8957 21.6195 90.3686 21.8681C89.9708 22.0609 89.5881 22.2834 89.2237 22.5337C88.9944 22.6954 88.7767 22.873 88.5721 23.065C88.5039 23.1332 88.4518 23.1853 88.4217 23.2234C88.4049 23.2343 88.3895 23.2471 88.3756 23.2615Z" fill="#263238"/>
<path d="M114.672 28.9575C114.71 28.8467 114.738 28.7326 114.756 28.6167C114.802 28.3941 114.866 28.0733 114.938 27.6743C115.085 26.8723 115.265 25.7756 115.44 24.5526C115.614 23.3295 115.746 22.2168 115.829 21.4108C115.871 21.0098 115.899 20.681 115.915 20.4564C115.931 20.3395 115.935 20.2213 115.929 20.1035C115.899 20.2172 115.88 20.3333 115.871 20.4504L115.746 21.4007C115.642 22.2027 115.498 23.3115 115.323 24.5345C115.149 25.7576 114.98 26.8603 114.856 27.6603C114.798 28.0433 114.748 28.362 114.712 28.6067C114.688 28.7221 114.674 28.8396 114.672 28.9575Z" fill="#263238"/>
<path d="M105.415 29.7609C105.454 29.7657 105.494 29.7657 105.533 29.7609H105.87C106.165 29.7609 106.59 29.7609 107.113 29.7348C108.162 29.6987 109.611 29.6125 111.205 29.4481C112.799 29.2837 114.237 29.0732 115.273 28.8947C115.791 28.8065 116.208 28.7283 116.496 28.6702L116.827 28.598C116.866 28.5918 116.905 28.581 116.941 28.5659C116.902 28.5601 116.862 28.5601 116.823 28.5659L116.488 28.614L115.259 28.8025C114.223 28.9589 112.785 29.1554 111.193 29.3198C109.601 29.4842 108.158 29.5824 107.109 29.6406L105.87 29.7067L105.531 29.7268C105.491 29.7325 105.452 29.744 105.415 29.7609Z" fill="#263238"/>
<path d="M4.12453 24.4919C4.12453 24.4919 5.39569 21.4404 5.3596 21.3381C5.1591 20.7907 4.4333 19.291 4.4333 19.291C3.97658 19.5602 3.53484 19.8541 3.11001 20.1712C2.21866 20.8294 1.394 21.5735 0.647886 22.3927C0.256215 22.8482 0.0425682 23.4301 0.046391 24.0308V26.5871L4.12453 24.4919Z" fill="white"/>
<path d="M31.8058 10.3525C31.983 10.641 32.1807 10.9164 32.3973 11.1766C32.5819 11.4581 32.7862 11.7261 33.0088 11.9786C32.8827 11.6599 32.7075 11.3629 32.4895 11.0984C32.3025 10.8152 32.0717 10.5634 31.8058 10.3525Z" fill="#263238"/>
<path d="M114.556 10.4229C114.556 10.4229 104.92 11.2409 105.026 11.4594C105.132 11.678 114.556 14.6834 114.556 14.6834V10.4229Z" fill="#FF8C00"/>
<path d="M114.585 14.8123C114.643 14.0853 114.662 13.3558 114.643 12.6268C114.643 11.4238 114.619 10.4414 114.585 10.4414C114.527 11.1683 114.508 11.8978 114.527 12.6268C114.508 13.3558 114.527 14.0853 114.585 14.8123Z" fill="#263238"/>
<path d="M11.142 26.4351L11.1942 26.3489C11.2282 26.2928 11.2744 26.2066 11.3425 26.0963C11.4749 25.8737 11.6854 25.5549 11.9741 25.1499C12.3321 24.6578 12.7212 24.189 13.139 23.7465C13.6943 23.1514 14.3082 22.614 14.9715 22.1425C15.778 21.5556 16.6682 21.0933 17.6121 20.771C18.7132 20.4144 19.8632 20.2318 21.0206 20.2297C22.3338 20.2001 23.6452 20.3451 24.9203 20.6608C25.6073 20.828 26.2782 21.0554 26.9253 21.3405C27.6101 21.6277 28.2566 21.9988 28.85 22.4452L28.8701 22.4592H28.8901L43.5566 20.9575L57.1905 19.554L57.5815 19.5139L57.9704 19.4939L58.7443 19.4558L60.2581 19.3856L63.1573 19.2773C65.028 19.2192 66.7663 19.1831 68.3703 19.159C71.5522 19.1109 74.1286 19.1049 75.909 19.0949H77.9561L75.907 19.0829C74.1266 19.0829 71.5502 19.0708 68.3663 19.1089C66.7763 19.127 65.032 19.159 63.1533 19.2132C62.2176 19.2412 61.2506 19.2753 60.2521 19.3154L58.7363 19.3816L57.9624 19.4177L57.5714 19.4397L57.1805 19.4798L43.5466 20.8833L28.8801 22.3971L28.9182 22.4091C28.316 21.9574 27.66 21.5823 26.9654 21.2923C26.3105 21.0061 25.6315 20.7787 24.9363 20.6127C23.6526 20.2959 22.3323 20.153 21.0106 20.1876C19.8474 20.1781 18.6899 20.3506 17.58 20.6989C16.6304 21.031 15.7362 21.5041 14.9274 22.1024C14.2628 22.5776 13.6494 23.1205 13.0969 23.7224C12.6803 24.1643 12.2931 24.6332 11.938 25.1259C11.6533 25.5269 11.4468 25.8577 11.3205 26.0843C11.1942 26.3108 11.142 26.4351 11.142 26.4351Z" fill="#263238"/>
<path d="M38.2578 32.6027H38.3721H38.7089L40.0022 32.5867L44.762 32.5085L60.465 32.2017L69.1085 32.0193L69.6037 32.0072C69.7684 32.0081 69.9331 32.0001 70.097 31.9832C70.416 31.9193 70.7254 31.8142 71.0172 31.6704C71.5987 31.4238 72.1681 31.1952 72.7195 30.9767C73.8222 30.5396 74.8548 30.1446 75.7991 29.7857C77.6838 29.0679 79.2076 28.4745 80.2502 28.0434C80.7735 27.8268 81.1765 27.6564 81.4532 27.5361L81.762 27.3978L81.8662 27.3477L81.7579 27.3858L81.4432 27.5141L80.2402 27.9993C79.1916 28.4183 77.6658 29.0018 75.7751 29.7035C74.8307 30.0584 73.7962 30.4474 72.6914 30.8824C72.138 31.099 71.5686 31.3282 70.9832 31.5702C70.6999 31.7105 70.3992 31.8124 70.0889 31.8729C69.9291 31.8902 69.7685 31.8982 69.6077 31.897H69.1125L60.469 32.0714L44.772 32.4142L40.0142 32.5325L38.721 32.5706L38.3841 32.5827C38.2959 32.5967 38.2578 32.6027 38.2578 32.6027Z" fill="#263238"/>
<path d="M40.8016 9.6575C41.2166 10.5397 41.6697 11.8409 41.5855 13.1923C41.5674 13.6092 41.3917 14.0038 41.094 14.2963C40.7963 14.5888 40.3987 14.7574 39.9815 14.7682L36.0177 14.7983C35.7295 14.802 35.4498 14.7003 35.2313 14.5124C35.0127 14.3245 34.8703 14.0633 34.8307 13.7778C34.8034 13.5639 34.8382 13.3468 34.931 13.1522C35.342 12.282 35.6869 12.4484 35.6869 12.4484C35.6869 12.4484 36.8898 9.88206 38.7104 8.90764C38.896 8.81467 39.0987 8.76032 39.3059 8.74788C39.5132 8.73543 39.7209 8.76516 39.9164 8.83525C40.1118 8.90534 40.2911 9.01435 40.4432 9.15568C40.5954 9.29701 40.7173 9.46772 40.8016 9.6575Z" fill="#E0E0E0"/>
<path d="M36.6997 14.7939C36.5653 14.768 36.4409 14.7047 36.3408 14.6115C36.0647 14.4159 35.8622 14.1336 35.7653 13.8095C35.6934 13.4839 35.6657 13.15 35.6831 12.817C35.6748 12.6823 35.687 12.5471 35.7192 12.416C35.7617 12.5454 35.7827 12.6809 35.7814 12.817C35.7917 13.1386 35.8307 13.4587 35.8977 13.7734C35.989 14.072 36.1636 14.3384 36.4009 14.5413C36.5774 14.6977 36.7097 14.7739 36.6997 14.7939Z" fill="#263238"/>
<path d="M36.405 11.905C36.4497 11.7173 36.5241 11.5379 36.6256 11.3737C36.8453 10.9666 37.1206 10.5921 37.4436 10.2609C37.7628 9.93174 38.1266 9.64896 38.5243 9.42085C38.6822 9.31752 38.8564 9.2416 39.0396 9.19629C39.0616 9.23839 38.2737 9.59729 37.5399 10.3612C36.806 11.1251 36.4391 11.9291 36.405 11.905Z" fill="white"/>
<path d="M66.9814 1.35254C66.9662 1.39336 66.9554 1.43571 66.9494 1.47885L66.8752 1.83975C66.815 2.15654 66.7308 2.61167 66.6346 3.17707C66.4341 4.30989 66.1794 5.87378 65.9308 7.60809C65.6822 9.3424 65.4917 10.9203 65.3955 12.0652C65.3694 12.3519 65.3514 12.6105 65.3394 12.8391C65.3273 13.0677 65.3113 13.2641 65.3113 13.4245C65.3113 13.5849 65.3113 13.6972 65.3113 13.7955C65.3061 13.8381 65.3061 13.8812 65.3113 13.9238C65.3223 13.8819 65.3284 13.8388 65.3293 13.7955C65.3293 13.6972 65.3454 13.5769 65.3554 13.4266C65.3654 13.2762 65.3815 13.0717 65.4015 12.8451C65.4216 12.6185 65.4436 12.3599 65.4757 12.0732C65.594 10.9324 65.7965 9.36044 66.0451 7.62613C66.2937 5.89182 66.5383 4.32593 66.7128 3.19312C66.799 2.63774 66.8672 2.19062 66.9133 1.84777C66.9333 1.70141 66.9514 1.5791 66.9634 1.48286C66.9757 1.44052 66.9817 1.39662 66.9814 1.35254Z" fill="#455A64"/>
<g opacity="0.2">
<path d="M114.556 14.6836L109.788 11.7584L109.649 10.8682C107.801 11.0586 105.555 11.2391 105.024 11.4596C105.024 11.61 110.887 13.5348 114.556 14.6836Z" fill="black"/>
</g>
<g opacity="0.2">
<path d="M5.36426 21.3389L2.81793 23.5804L0.0430355 24.0316V26.5879L4.12518 24.4927C4.63044 23.2777 5.08958 22.1409 5.36426 21.3389Z" fill="black"/>
</g>
<path d="M5.39225 21.338C5.4145 21.3325 5.43604 21.3245 5.45641 21.3139L5.64086 21.2357L6.34662 20.923L8.93706 19.7741C10.0338 19.2929 11.343 18.7215 12.8067 18.122C13.5405 17.8313 14.3104 17.5205 15.1284 17.2719C15.5395 17.1636 15.9725 17.0975 16.4076 17.0213L17.7369 16.8027C21.3319 16.2353 24.592 15.7541 26.9599 15.3992L29.7508 14.9742L30.5087 14.8519L30.7092 14.8178C30.7325 14.8155 30.7554 14.8101 30.7773 14.8018H30.7092L30.5087 14.8238L29.7468 14.9221L26.9498 15.311C24.588 15.6479 21.3359 16.113 17.7269 16.6824L16.3976 16.901C15.9605 16.9792 15.5274 17.0453 15.1084 17.1556C14.2763 17.4042 13.5044 17.723 12.7746 18.0178C11.309 18.6192 10.0057 19.2027 8.913 19.6939C7.82028 20.1851 6.93809 20.5942 6.33259 20.8809L5.63486 21.2137L5.4544 21.3039C5.41029 21.324 5.39024 21.336 5.39225 21.338Z" fill="#263238"/>
<path d="M96.009 41.4444C91.0294 41.4444 86.9926 37.2604 86.9926 32.0991C86.9926 26.9379 91.0294 22.7539 96.009 22.7539C100.989 22.7539 105.025 26.9379 105.025 32.0991C105.025 37.2604 100.989 41.4444 96.009 41.4444Z" fill="#263238"/>
<path d="M105.021 31.9404C105.021 31.9404 105.021 31.9565 105.021 31.9645C105.094 37.1233 101.116 41.3679 96.1374 41.442C91.159 41.5162 87.0649 37.394 86.9927 32.2332V32.2091L105.021 31.9404Z" fill="#263238"/>
<path d="M102.336 32.0049C102.386 35.6279 99.5954 38.6073 96.0987 38.6594C92.6021 38.7115 89.7289 35.8163 89.6828 32.1933C89.6367 28.5703 92.4256 25.5909 95.9203 25.5388C99.415 25.4866 102.286 28.3818 102.336 32.0049Z" fill="#FAFAFA"/>
<path d="M95.9171 25.5388C99.4138 25.4866 102.287 28.3818 102.333 32.0049L89.6755 32.1933C89.6294 28.5703 92.4224 25.5909 95.9171 25.5388Z" fill="#E0E0E0"/>
<path d="M99.8648 32.0408C99.8949 34.2462 98.1927 36.0628 96.0554 36.0948C93.9181 36.1269 92.1737 34.3625 92.1436 32.157C92.1136 29.9516 93.8138 28.135 95.9431 28.103C98.0724 28.0709 99.8328 29.8333 99.8648 32.0408Z" fill="#263238"/>
<path d="M21.3996 41.4444C16.42 41.4444 12.3832 37.2604 12.3832 32.0991C12.3832 26.9379 16.42 22.7539 21.3996 22.7539C26.3792 22.7539 30.416 26.9379 30.416 32.0991C30.416 37.2604 26.3792 41.4444 21.3996 41.4444Z" fill="#263238"/>
<path d="M30.4121 31.9404C30.4121 31.9404 30.4121 31.9565 30.4121 31.9645C30.4843 37.1233 26.5064 41.3679 21.528 41.442C16.5497 41.5162 12.4555 37.394 12.3833 32.2332V32.2091L30.4121 31.9404Z" fill="#263238"/>
<path d="M27.7279 32.0049C27.778 35.6279 24.987 38.6073 21.4903 38.6594C17.9937 38.7115 15.1205 35.8163 15.0744 32.1933C15.0283 28.5703 17.8172 25.5909 21.3119 25.5388C24.8066 25.4866 27.6777 28.3818 27.7279 32.0049Z" fill="#FAFAFA"/>
<path d="M21.3077 25.5388C24.8044 25.4866 27.6775 28.3818 27.7236 32.0049L15.0662 32.1933C15.0201 28.5703 17.813 25.5909 21.3077 25.5388Z" fill="#E0E0E0"/>
<path d="M25.2555 32.0408C25.2855 34.2462 23.5833 36.0628 21.456 36.0948C19.3287 36.1269 17.5744 34.3625 17.5443 32.157C17.5142 29.9516 19.2144 28.135 21.3538 28.103C23.4931 28.0709 25.2234 29.8333 25.2555 32.0408Z" fill="#263238"/>
<path d="M55.4521 11.0625C55.4661 11.0324 53.7959 10.1281 51.7228 9.04145C49.6496 7.95475 47.9534 7.09862 47.9394 7.1287C47.9254 7.15877 49.5935 8.06302 51.6687 9.14972C53.7438 10.2364 55.432 11.0925 55.4521 11.0625Z" fill="white"/>
<path d="M57.7723 10.8262C57.7884 10.7961 56.2024 9.90186 54.2315 8.82117C52.2606 7.74049 50.6486 6.9004 50.6226 6.93047C50.5965 6.96055 52.1945 7.85477 54.1654 8.93545C56.1363 10.0161 57.7583 10.8562 57.7723 10.8262Z" fill="white"/>
<path d="M81.0156 10.4253C80.9109 10.3664 80.8016 10.3162 80.6888 10.2749L79.7886 9.90201L76.8152 8.66894L73.8538 7.4038L72.9576 7.02085C72.8498 6.96921 72.7378 6.92694 72.6228 6.89453C72.7226 6.96137 72.8287 7.01845 72.9396 7.06496C73.14 7.16721 73.4468 7.30956 73.8217 7.484C74.5696 7.83086 75.6102 8.28599 76.7711 8.78122C77.932 9.27645 78.9886 9.68948 79.7585 9.98421C80.1435 10.1306 80.4562 10.2449 80.6728 10.321C80.7836 10.3662 80.8984 10.4011 81.0156 10.4253Z" fill="white"/>
<path d="M78.866 7.86735C78.8801 7.83527 78.0159 7.4042 76.9372 6.90295C76.294 6.58177 75.6333 6.29662 74.9583 6.04883C74.9443 6.0789 75.8084 6.51198 76.8891 7.01322C77.5321 7.33357 78.1921 7.6187 78.866 7.86735Z" fill="white"/>
<path d="M0.040369 26.5871C0.0584235 26.4657 0.0664697 26.3429 0.0644279 26.2202C0.0644279 25.9615 0.0644336 25.6187 0.082478 25.2177C0.100523 24.8167 0.0824671 24.2854 0.108532 23.736C0.134596 23.1866 0.545624 22.6894 0.928576 22.1942C1.3096 21.7411 1.73698 21.3292 2.20374 20.9651C2.6288 20.6223 3.02378 20.3275 3.35661 20.0829L4.1586 19.5115C4.2592 19.4455 4.35501 19.3725 4.44531 19.293C4.33555 19.3422 4.2308 19.402 4.13254 19.4714C3.93204 19.5937 3.65735 19.7762 3.31651 20.0128C2.97566 20.2493 2.57667 20.5361 2.1456 20.8769C1.66796 21.2413 1.23222 21.6575 0.846376 22.118C0.648149 22.3607 0.466611 22.6166 0.303021 22.8839C0.13984 23.1375 0.0388484 23.426 0.00828266 23.726C-0.0117674 24.2954 0.00828266 24.7926 0.00828266 25.2177C0.00828266 25.6428 0.0223227 25.9636 0.0263329 26.2202C0.0204973 26.3427 0.0251942 26.4654 0.040369 26.5871Z" fill="#263238"/>
</svg>
