<svg width="440" height="345" viewBox="0 0 440 345" fill="none" xmlns="http://www.w3.org/2000/svg">
<g clip-path="url(#clip0_793_31750)">
<path fill-rule="evenodd" clip-rule="evenodd" d="M231.621 305.283C346.705 305.283 440 314.021 440 324.8C440 335.579 346.705 344.316 231.621 344.316C116.536 344.316 23.2466 335.579 23.2466 324.8C23.2466 314.021 116.539 305.283 231.621 305.283Z" fill="#EEE0D0"/>
<path fill-rule="evenodd" clip-rule="evenodd" d="M268.64 126.182C266.496 122.012 264.349 117.645 262.199 113.081C259.982 113.688 258.378 114.447 257.387 115.357C259.049 118.574 260.704 122.153 262.353 126.095C262.397 126.202 262.442 126.309 262.485 126.414C264.528 126.808 266.633 126.729 268.64 126.182Z" fill="#406FB5"/>
<path fill-rule="evenodd" clip-rule="evenodd" d="M338.603 124.263C337.908 125.691 337.478 127.233 337.333 128.815C337.526 128.74 337.718 128.667 337.909 128.599C341.96 127.151 345.76 127.807 349.309 130.565L349.286 130.611C349.723 130.955 350.16 131.328 350.591 131.749C351.737 130.187 352.585 128.428 353.094 126.56C347.685 123.335 342.855 122.57 338.603 124.263Z" fill="#406FB5"/>
<path fill-rule="evenodd" clip-rule="evenodd" d="M309.746 156.737C309.659 156.915 309.61 157.109 309.603 157.306C309.587 157.52 309.619 157.734 309.698 157.933C309.777 158.132 309.9 158.311 310.058 158.456C309.744 157.941 309.633 157.329 309.746 156.737Z" fill="#EF8F7D"/>
<path fill-rule="evenodd" clip-rule="evenodd" d="M311.021 78.3614C313.656 79.9159 314.466 82.4582 316.255 83.4186C321.436 83.9193 326.543 84.329 328.976 86.0519C338.485 97.8126 346.167 108.206 352.022 117.233C354.392 122.24 353.916 127.073 350.593 131.733C346.519 127.882 342.1 126.908 337.335 128.811C337.495 126.776 338.243 124.652 339.58 122.438C332.738 116.297 327.13 110.665 322.756 105.541C323.564 112.261 321.184 121.82 315.616 134.218C296.24 135.508 285.125 135.195 282.271 133.281C281.328 127.733 280.58 121.683 280.026 115.13C275.579 119.204 271.976 122.82 269.218 125.979C267.046 126.688 264.73 126.832 262.488 126.396C260.796 122.326 259.097 118.641 257.39 115.339C258.566 114.256 260.605 113.387 263.507 112.733C271.417 101.191 278.245 91.8723 283.991 84.7774C288.455 83.7153 291.786 83.1592 293.983 83.1091C294.925 81.9726 296.319 80.9993 298.164 80.189C297.087 86.2499 296.68 93.5171 296.737 98.6517C305.206 92.3313 309.965 84.0468 311.021 78.3614Z" fill="#FF8C00"/>
<path fill-rule="evenodd" clip-rule="evenodd" d="M325.389 186.245C329.408 160.786 326.146 143.452 315.602 134.243C299.239 135.333 288.77 135.28 284.194 134.084C284.136 136.318 283.958 138.547 283.659 140.762C280.809 162.226 277.4 195.551 277.864 228.284C289.412 232.434 307.495 232.26 332.112 227.763C329.305 215.028 327.064 201.189 325.389 186.245Z" fill="#6B3B00"/>
<path fill-rule="evenodd" clip-rule="evenodd" d="M293.99 83.1339C292.994 86.1215 292.463 88.5894 292.396 90.5377C293.203 89.8591 294.045 89.224 294.918 88.635C295.337 93.4297 295.944 96.7769 296.739 98.6766C296.682 93.542 297.09 86.2748 298.166 80.2139C296.324 81.0241 294.932 81.9975 293.99 83.1339Z" fill="#6B3B00"/>
<path fill-rule="evenodd" clip-rule="evenodd" d="M311.021 78.3614C309.965 84.0513 305.206 92.3313 296.744 98.6767C301.801 96.84 307.329 92.345 310.495 86.366C311.02 88.3901 311.683 90.7548 312.484 93.4602C314.687 90.6699 315.944 87.3227 316.253 83.4186C314.467 82.4695 313.656 79.9159 311.021 78.3614Z" fill="#6B3B00"/>
<path fill-rule="evenodd" clip-rule="evenodd" d="M337.909 128.604C334.533 135.659 330.582 142.699 326.647 148.295C325.737 147.308 324.874 145.161 323.597 144.34C323.09 144.012 322.28 144.859 321.738 144.597C319.159 143.354 316.298 143.004 313.988 144.768C313.408 145.212 313.098 146.081 313.014 148.138C313.112 150.967 315.427 151.507 318.647 150.173C322.972 154.985 325.828 156.546 328.179 154.868C338.82 145.097 345.863 136.998 349.309 130.57C345.762 127.81 341.961 127.155 337.909 128.604Z" fill="#AB5E27"/>
<path fill-rule="evenodd" clip-rule="evenodd" d="M228.193 127.395C244.134 127.937 255.521 127.506 262.353 126.102C260.704 122.157 259.049 118.578 257.387 115.364C244.675 117.297 233.791 118.717 224.734 119.623C221.479 117.347 218.76 116.407 216.575 116.805C215.968 118.208 216.613 119.235 218.511 119.884C219.019 120.61 219.224 121.291 219.121 121.917C214.41 123.976 210.263 125.245 206.681 125.724C206.262 130.067 208.885 132.829 214.549 134.011C220.328 132.485 224.877 130.279 228.193 127.395Z" fill="#AB5E27"/>
<path fill-rule="evenodd" clip-rule="evenodd" d="M327.055 299.592C324.096 310.934 325.088 316.972 330.696 317.8C338.132 318.349 340.148 310.836 337.231 295.348C337.294 296.192 337.344 296.973 337.376 297.669C338.198 313.89 325.896 310.26 326.754 302.79C326.864 301.75 326.961 300.683 327.055 299.592Z" fill="#444444"/>
<path fill-rule="evenodd" clip-rule="evenodd" d="M326.745 302.791C325.887 310.261 338.189 313.891 337.367 297.67C337.336 296.974 337.285 296.193 337.222 295.349C336.716 288.748 335.351 278.156 335.453 271.485C335.716 254.441 334.236 239.934 331.013 227.964C325.048 229.026 319.474 229.834 314.289 230.388C317.09 240.349 319.518 249.462 321.572 257.727C324.099 267.875 328.812 282.89 327.633 293.195C327.378 295.405 327.221 297.54 327.048 299.593C326.962 300.683 326.864 301.751 326.745 302.791Z" fill="#AB5E27"/>
<path fill-rule="evenodd" clip-rule="evenodd" d="M277.555 304.748C281.845 304.975 277.93 308.389 280.723 309.165C286.829 305.751 290.211 296.438 292.649 292.323C293.933 290.159 294.861 292.91 295.494 295.992C296.86 302.608 296.812 311.344 295.266 314.061C294.151 312.072 293.191 305.943 292.173 302.201C286.181 307.663 287.489 313.665 283.934 315.713C275.411 316.678 270.802 316.917 264.327 317.063C262.916 311.437 274.173 313.337 277.555 304.748Z" fill="#444444"/>
<path fill-rule="evenodd" clip-rule="evenodd" d="M280.736 229.186C281.554 261.898 284.499 291.053 279.166 305.151C280.65 306.132 278.433 308.535 280.723 309.163C286.832 305.749 290.211 296.436 292.649 292.321L292.69 292.253C292.325 291.286 292.079 290.279 291.957 289.253C292.062 262.119 298.694 245.384 297.419 231.255C290.965 231.16 285.404 230.471 280.736 229.186Z" fill="#AB5E27"/>
<path fill-rule="evenodd" clip-rule="evenodd" d="M298.043 76.6682C298.585 78.7575 298.529 80.5358 297.877 82.003C297.081 87.5246 296.7 93.0982 296.739 98.6768C304.818 92.6182 309.521 84.7934 310.85 79.1512C309.78 77.3881 309.342 75.3284 309.537 72.972C309.336 71.8689 309.948 69.8205 311.371 66.8269C316.205 65.9688 317.407 61.8197 315.395 58.5196C313.135 57.7025 311.917 59.5938 311.321 63.0191C310.033 62.8234 310.527 60.7204 310.659 59.7349C311.264 56.8808 310.756 55.3423 309.748 52.6407C303.942 56.8148 298.965 56.9469 291.037 54.5935C291.27 56.5372 291.44 58.4141 291.547 60.2243C289.369 65.6274 292.692 74.8314 298.043 76.6682Z" fill="#AB5E27"/>
<path fill-rule="evenodd" clip-rule="evenodd" d="M291.033 54.5826C298.96 56.9359 303.938 56.8039 309.744 52.6298C310.759 55.3314 311.267 56.8699 310.654 59.724C310.522 60.7095 310.028 62.8125 311.317 63.0082C311.913 59.5829 313.137 57.6915 315.391 58.5086C317.403 61.8065 316.201 65.9579 311.367 66.8159C309.947 69.8156 309.335 71.864 309.532 72.961C309.34 75.3159 309.777 77.3757 310.846 79.1403C310.909 78.8717 310.966 78.6077 311.014 78.3505C313.65 79.905 314.46 82.4473 316.249 83.4077C321.429 83.9085 326.536 84.3181 328.969 86.041C329.67 86.9105 330.362 87.7715 331.045 88.6243C332.702 84.6527 333.571 81.7349 333.28 80.4444C332.165 75.5169 327.091 77.9886 327.178 75.0731C327.314 70.5212 321.033 66.9684 321.877 62.4347C323.584 53.1578 320.056 50.3447 320.025 49.6391C319.813 42.6109 315.7 42.4289 311.603 40.0596C304.341 35.8536 298.03 40.9973 295.97 41.1361C285.478 41.8371 291.288 46.4505 286.588 50.611C282.719 54.0363 284.54 56.6332 284.947 58.693C285.127 59.6193 285.969 63.4384 283.29 65.3684C279.364 68.202 282.956 74.1445 280.639 74.8637C271.722 77.6268 275.743 80.3807 275.984 86.7557C276.062 88.8041 277.002 90.6249 278.26 92.1224C280.277 89.4596 282.187 87.0159 283.991 84.7915C288.455 83.7294 291.786 83.1733 293.983 83.1232C294.925 81.9868 296.319 81.0134 298.164 80.2032C298.061 80.7881 297.964 81.3867 297.87 81.9921C298.524 80.5233 298.58 78.745 298.036 76.6572C292.686 74.8205 289.363 65.6165 291.536 60.2019C291.431 58.4009 291.264 56.5278 291.033 54.5826Z" fill="#161616"/>
<path fill-rule="evenodd" clip-rule="evenodd" d="M298.043 76.6682C301.284 77.0414 302.752 77.0209 305.749 75.7987C303.994 77.7379 301.546 78.8 298.407 78.9851C298.369 78.202 298.246 77.4253 298.043 76.6682Z" fill="#8E4815"/>
<path fill-rule="evenodd" clip-rule="evenodd" d="M199.61 171.376C195.324 168.417 194.987 169.257 194.455 168.872C193.811 168.401 190.176 158.473 190.176 158.473C190.176 158.473 179.251 129.309 178.721 127.709L180.906 95.3652L165.138 89.9893C165.138 89.9893 163.702 125.217 163.945 127.06C164.189 128.904 183.591 166.553 185.189 169.933C185.189 169.933 185.601 174.66 185.959 177.642C186.316 180.623 187.975 183.268 188.207 184.073C188.95 186.122 189.95 188.068 191.184 189.864C192.93 192.435 192.466 189.181 192.466 189.181C192.466 189.181 190.11 183.807 190.563 183.703C190.922 183.598 192.042 186.593 193.938 189.468C194.421 190.212 194.91 190.936 195.358 191.6C196.542 193.334 197.962 193.105 197.022 191.065C196.597 190.145 196.113 189.254 195.572 188.398C194.987 187.581 194.737 186.602 194.357 185.835C193.61 184.278 193.041 183.174 193.121 183.17C193.201 183.165 193.303 182.756 193.842 183.516C194.498 184.447 195.436 186.725 196.508 188C197.115 188.726 198.281 190.314 198.281 190.314C198.281 190.314 200.468 192.681 200.634 192.59C201.544 192.087 200.466 189.945 199.521 189.062C199.205 188.191 197.928 186.559 197.928 186.559C197.928 186.559 196.107 182.64 196.658 182.367C197.113 182.139 203.32 190.624 204.189 190.066C204.906 189.611 203.149 186.991 203.149 186.991C203.149 186.991 201.965 185.471 201.613 184.929C201.194 184.319 200.099 182.339 200.099 182.339C200.099 182.339 196.599 175.313 197.14 175.086C197.682 174.858 199.305 174.858 199.673 175.225C200.042 175.591 200.356 176.59 200.736 176.954C201.116 177.318 201.899 177.48 202.384 177.043C202.869 176.606 201.763 174.193 201.763 174.193C201.763 174.193 200.848 172.222 199.61 171.376Z" fill="#AB5E27"/>
<path fill-rule="evenodd" clip-rule="evenodd" d="M119.736 310.879L114.345 323.677C114.117 325.079 113.188 328.588 113.188 329.876C113.188 334.695 134.84 325.78 129.99 323.629C129.55 323.442 128.169 321.897 128.03 320.238C127.803 317.711 129.851 314.53 129.851 314.53L119.736 310.879Z" fill="#AB5E27"/>
<path fill-rule="evenodd" clip-rule="evenodd" d="M111.955 331.466C111.955 331.466 112.458 324.214 114.277 323.372C115.99 322.576 119.079 325.805 121.491 325.421C123.904 325.036 129.339 323.061 129.339 323.061C138.964 326.5 146.127 328.673 144.693 331.457L111.955 331.466Z" fill="#444444"/>
<path fill-rule="evenodd" clip-rule="evenodd" d="M152.897 314.717L149.756 323.677C149.529 325.079 148.603 328.589 148.603 329.877C148.603 334.695 170.256 325.78 165.404 323.63C164.964 323.443 163.583 321.898 163.444 320.238C163.217 317.712 165.265 314.53 165.265 314.53L152.897 314.717Z" fill="#AB5E27"/>
<path fill-rule="evenodd" clip-rule="evenodd" d="M182.788 145.266L190.628 165.41C190.628 165.41 195.743 213.486 192.761 242.263C191.511 254.31 164.539 318.736 164.539 318.736L151.143 316.842L165.042 241.369L162.484 211.353L153.139 153.659L182.788 145.266Z" fill="#442500"/>
<path fill-rule="evenodd" clip-rule="evenodd" d="M173.39 147.631L178.191 168.686C178.191 168.686 176.195 216.996 169.027 245.045C166.023 256.791 129.881 316.706 129.881 316.706L116.908 312.937L141.739 240.204L139.426 168.57L142.84 151.748L173.39 147.631Z" fill="#6B3B00"/>
<path fill-rule="evenodd" clip-rule="evenodd" d="M147.369 331.465C147.369 331.465 147.886 324.285 149.829 323.442C151.671 322.6 155.064 325.805 157.663 325.429C160.263 325.054 165.352 323.584 165.352 323.584C175.744 327.022 184.256 328.682 182.708 331.465H147.369Z" fill="#444444"/>
<path fill-rule="evenodd" clip-rule="evenodd" d="M188.86 99.5052L168.72 106.511C168.72 106.511 160.071 90.8065 158.357 83.5234C156.295 74.6311 160.215 64.5486 161.33 64.5486C164.489 64.5736 169.296 63.4493 172.464 66.2328C183.432 75.8078 188.86 99.5052 188.86 99.5052Z" fill="#6B3B00"/>
<path fill-rule="evenodd" clip-rule="evenodd" d="M148.28 64.0411C148.28 64.0411 134.251 68.7455 131.588 70.6846C128.59 72.8605 129.869 80.1823 129.869 80.1823C129.869 80.1823 126.594 89.2748 130.452 101.101C135.853 117.649 142.237 138.688 141.8 144.378C141.054 154.165 138.932 168.615 138.932 168.615C138.932 168.615 176.434 170.98 190.636 165.411C190.636 165.411 186.15 143.279 186.15 137.475C186.15 131.672 182.877 87.7635 181.473 83.2958C180.428 79.9273 176.434 65.7708 169.583 64.3005C162.732 62.8302 148.28 64.0411 148.28 64.0411Z" fill="#FF8C00"/>
<path fill-rule="evenodd" clip-rule="evenodd" d="M151.036 48.3639L148.583 64.0385C148.583 64.0385 155.763 76.0169 161.214 74.3327C165.798 72.9284 164.883 63.7585 164.883 63.7585C164.883 63.7585 162.393 54.5636 163.137 49.9798C163.882 45.396 151.036 48.3639 151.036 48.3639Z" fill="#AB5E27"/>
<path fill-rule="evenodd" clip-rule="evenodd" d="M163.137 49.9805C163.89 45.3716 151.036 48.3645 151.036 48.3645L150.833 49.7301C151.149 50.5703 151.621 51.3427 152.226 52.0061C155.094 55.0468 159.577 56.8721 163.458 57.0132C163.071 54.5188 162.83 51.8513 163.137 49.9805Z" fill="#8E4815"/>
<path fill-rule="evenodd" clip-rule="evenodd" d="M148.931 25.3931C148.564 25.252 146.024 43.8967 150.854 49.0199C155.683 54.1432 165.11 55.8274 168.486 51.7807C172.227 47.313 172.039 27.2867 164.516 22.0224C156.994 16.758 148.931 25.3931 148.931 25.3931Z" fill="#AB5E27"/>
<path fill-rule="evenodd" clip-rule="evenodd" d="M161.66 12.033C155.852 13.2028 152.087 16.7124 150.699 18.21C148.061 18.5127 144.481 19.9397 140.775 26.0006C136.224 33.4158 139.583 41.6502 144.872 45.6992C150.162 49.7481 150.075 54.448 150.075 54.448L150.938 51.9922C151.568 50.1659 151.795 48.2247 151.602 46.3023C151.477 45.1643 151.229 43.892 150.746 42.8883C149.467 40.1754 153.478 38.3978 154.604 36.1515C155.476 34.4194 155.515 30.4615 156.88 27.612L158.512 25.4362C158.512 25.4362 162.27 22.5366 165.952 23.3537C169.635 24.1708 169.114 10.5354 161.66 12.033Z" fill="#161616"/>
<path fill-rule="evenodd" clip-rule="evenodd" d="M154.377 39.4742C154.411 41.7502 153.359 43.5914 152.03 43.6165C150.701 43.6415 149.588 41.8139 149.552 39.5447C149.515 37.2756 150.56 35.4047 151.891 35.382C153.223 35.3592 154.331 37.1823 154.377 39.4742Z" fill="#AB5E27"/>
<path fill-rule="evenodd" clip-rule="evenodd" d="M229.928 121.828C229.928 121.828 228.107 121.917 227.481 121.892C226.78 121.876 224.636 121.646 224.636 121.646C224.636 121.646 217.23 120.524 217.353 119.984C217.476 119.445 218.864 118.953 219.335 118.846C219.806 118.739 220.373 118.601 220.858 118.523C221.343 118.446 221.671 118.007 221.6 117.415C221.529 116.823 219.524 116.75 218.841 116.875C216.672 117.228 211.08 119.334 210.489 119.532C209.779 119.775 197.288 115.487 192.884 114.349C185.744 112.28 178.5 109.797 177.749 109.583L151.013 92.4042L140.846 99.594C140.846 99.594 170.249 119.072 171.82 119.862C172.585 120.26 189.513 123.783 189.513 123.783C197.959 125.001 205.404 126.059 206.811 126.287C206.811 126.287 210.887 128.144 213.411 129.473C215.935 130.802 218.778 131.023 219.542 131.294C221.509 132.013 223.58 132.408 225.674 132.461C228.633 132.511 225.831 131.109 225.831 131.109C225.831 131.109 220.369 130.026 220.514 129.61C220.635 129.289 223.591 130.065 226.864 130.151C227.702 130.174 228.533 130.201 229.3 130.219C231.309 130.256 231.885 129.041 229.796 128.67C228.849 128.491 227.891 128.385 226.928 128.351C225.947 128.328 225.057 128.01 224.245 127.871C222.62 127.598 221.441 127.436 221.482 127.37C221.523 127.304 221.27 127.024 222.164 127.026C223.239 127.026 225.519 127.513 227.096 127.393C228.007 127.327 229.875 127.29 229.875 127.29C229.875 127.29 232.927 126.919 232.934 126.726C233.048 125.788 230.786 125.442 229.575 125.681C228.721 125.454 226.748 125.545 226.748 125.545C226.748 125.545 222.702 124.846 222.788 124.272C222.843 123.788 232.864 123.642 232.898 122.679C232.95 121.921 229.928 121.828 229.928 121.828Z" fill="#AB5E27"/>
<path fill-rule="evenodd" clip-rule="evenodd" d="M160.381 95.1813L148.748 112.984C148.748 112.984 139.344 108.687 133.199 102.467C118.089 88.8609 127.766 70.9103 131.936 70.6281C141.274 69.9908 160.381 95.1813 160.381 95.1813Z" fill="#6B3B00"/>
<path fill-rule="evenodd" clip-rule="evenodd" d="M159.259 272.826L193.576 229.141C193.442 233.772 193.182 238.208 192.761 242.264C191.512 254.311 164.539 318.737 164.539 318.737L151.145 316.841L159.259 272.826Z" fill="#6B3B00"/>
<path fill-rule="evenodd" clip-rule="evenodd" d="M252.119 30.9077C251.967 30.9237 251.815 30.9313 251.663 30.9305H242.61C241.285 30.9305 240.199 30.3228 240.199 28.9959V28.741C240.076 21.6126 233.811 19.6143 233.305 11.7281C233.268 11.1512 233.272 10.5723 233.319 9.99607C234.298 4.01709 239.983 0 246.37 0C253.653 0 260.025 5.21426 259.545 12.6089C259.065 20.2584 253.097 22.1976 252.979 29.112V29.3555C252.995 29.6688 252.923 29.9803 252.771 30.2547C252.619 30.5291 252.393 30.7553 252.119 30.9077Z" fill="white"/>
<path fill-rule="evenodd" clip-rule="evenodd" d="M251.75 38.1022C251.712 38.471 251.539 38.8128 251.264 39.0617C250.989 39.3105 250.632 39.4487 250.261 39.4496H249.123L248.668 40.1779C248.413 40.5944 248.263 40.6331 247.771 40.6331H245.081C244.592 40.6331 244.444 40.6057 244.187 40.1779L243.732 39.4496H242.594C242.228 39.4483 241.876 39.3137 241.603 39.071C241.331 38.8283 241.156 38.4943 241.112 38.1318V37.6083C241.132 37.5236 241.18 37.4481 241.248 37.394C241.316 37.3399 241.401 37.3104 241.488 37.3101H251.363C251.451 37.3105 251.536 37.3406 251.605 37.3956C251.673 37.4506 251.721 37.5271 251.741 37.6128C251.741 37.6288 251.741 37.6606 251.741 37.6675V38.1022H251.75ZM241.635 34.6677H251.229C251.368 34.6683 251.502 34.7238 251.601 34.8222C251.699 34.9207 251.756 35.054 251.757 35.1935V36.0106C251.756 36.1504 251.7 36.2844 251.601 36.3833C251.502 36.4822 251.369 36.538 251.229 36.5386H241.635C241.495 36.5386 241.361 36.483 241.262 36.3839C241.163 36.2849 241.107 36.1506 241.107 36.0106V35.1935C241.108 35.0538 241.164 34.9201 241.263 34.8216C241.362 34.7231 241.496 34.6677 241.635 34.6677ZM241.656 31.9775H251.215C251.36 31.9781 251.499 32.0361 251.602 32.1389C251.705 32.2416 251.763 32.3808 251.764 32.526V33.375C251.763 33.5203 251.705 33.6594 251.602 33.7622C251.499 33.8649 251.36 33.9229 251.215 33.9235H241.656C241.511 33.9229 241.371 33.8649 241.269 33.7622C241.166 33.6594 241.108 33.5203 241.107 33.375V32.526C241.108 32.3808 241.166 32.2416 241.269 32.1389C241.371 32.0361 241.511 31.9781 241.656 31.9775Z" fill="#EEE0D0"/>
<path fill-rule="evenodd" clip-rule="evenodd" d="M244.845 30.9308L243.743 17.6163H242.18C241.858 17.6163 241.539 17.5527 241.242 17.4293C240.945 17.3059 240.675 17.125 240.448 16.8971C240.219 16.6703 240.037 16.4005 239.914 16.1032C239.79 15.806 239.726 15.4871 239.726 15.1651C239.726 14.8433 239.79 14.5247 239.913 14.2275C240.037 13.9303 240.217 13.6603 240.445 13.4331C240.672 13.2052 240.942 13.0244 241.24 12.901C241.537 12.7775 241.855 12.714 242.177 12.7139C242.489 12.7125 242.797 12.7734 243.085 12.893C243.373 13.0126 243.634 13.1885 243.852 13.4103C244.303 13.8721 244.577 14.4767 244.628 15.1196L244.749 16.517H249.529L249.652 15.1196C249.702 14.4766 249.977 13.8717 250.428 13.4103C250.646 13.1885 250.907 13.0126 251.195 12.893C251.483 12.7734 251.791 12.7125 252.103 12.7139C252.424 12.7143 252.743 12.7783 253.04 12.9021C253.336 13.0259 253.606 13.2071 253.833 13.4354C254.061 13.6625 254.242 13.9323 254.366 14.2295C254.49 14.5267 254.554 14.8454 254.554 15.1674C254.554 15.4897 254.49 15.8087 254.366 16.1063C254.242 16.4039 254.061 16.6742 253.833 16.9017C253.606 17.1295 253.336 17.3103 253.039 17.4337C252.743 17.5572 252.424 17.6208 252.103 17.6209H250.539L249.438 30.9353H248.338L249.433 17.6209H244.845L245.939 30.9353L244.845 30.9308ZM243.648 16.5148L243.534 15.2106C243.507 14.8264 243.346 14.4639 243.079 14.1864C242.962 14.0676 242.822 13.9734 242.668 13.9093C242.514 13.8452 242.349 13.8125 242.182 13.8132C241.824 13.8153 241.482 13.9575 241.228 14.2092C240.976 14.463 240.834 14.8054 240.832 15.1628C240.832 15.5203 240.974 15.8631 241.226 16.1165C241.351 16.2424 241.499 16.3425 241.663 16.4109C241.827 16.4792 242.002 16.5145 242.18 16.5148H243.648ZM250.639 16.5148H252.107C252.284 16.5147 252.46 16.4795 252.623 16.4111C252.786 16.3427 252.934 16.2426 253.059 16.1165C253.185 15.9918 253.285 15.8433 253.353 15.6796C253.422 15.5159 253.457 15.3402 253.457 15.1628C253.457 14.9855 253.421 14.8099 253.353 14.6462C253.285 14.4826 253.185 14.3341 253.059 14.2092C252.806 13.9576 252.464 13.8161 252.107 13.8155C251.94 13.815 251.775 13.8479 251.621 13.9124C251.467 13.9769 251.327 14.0717 251.211 14.191C250.943 14.4674 250.782 14.8293 250.755 15.2129L250.639 16.5148Z" fill="#EEE0D0"/>
<path fill-rule="evenodd" clip-rule="evenodd" d="M68.1837 178.691C67.2733 177.51 66.0146 176.618 64.756 175.832C64.5863 175.737 64.3857 175.713 64.1981 175.765C64.0105 175.817 63.851 175.941 63.7546 176.11C62.7805 177.931 61.8815 179.781 60.7662 181.515C60.3998 182.089 59.8763 182.845 59.4007 183.181C59.3711 183.202 59.2528 183.259 59.2004 183.288L59.1776 183.257C59.0926 183.121 59.0274 182.974 58.9841 182.82C58.1147 180.152 59.1685 177.296 58.4834 174.612C58.0633 173.128 57.2768 171.773 56.1961 170.673C55.0831 169.546 53.5924 169.023 52.8982 167.505C52.8561 167.405 52.7876 167.32 52.7001 167.257C52.6126 167.194 52.5095 167.156 52.4021 167.147H52.2632C52.1371 167.16 52.0151 167.199 51.905 167.262C51.7949 167.324 51.6991 167.41 51.6237 167.511C50.0305 169.819 47.775 172.202 47.3471 175.088C46.967 177.649 48.3508 179.788 49.8279 181.732C50.5638 182.658 51.2237 183.642 51.8012 184.674C52.1085 185.25 52.6342 186.29 52.0789 186.855C51.5235 187.419 50.6132 186.4 50.1534 185.919C49.2399 184.918 48.3871 183.862 47.5997 182.758C46.2478 180.976 44.1107 178.268 41.5684 178.759C40.4486 178.987 39.9934 180.125 39.9343 181.142C39.841 182.735 40.6171 184.47 41.4137 185.815C43.2026 188.865 46.8305 189.752 49.152 192.215C49.6891 192.779 51.1571 194.718 50.315 195.515C50.0191 195.79 49.334 195.699 48.9881 195.642C48.0926 195.526 47.2397 195.191 46.505 194.666C43.8808 192.638 42.9249 189.113 40.1687 187.189C38.9602 186.347 37.0984 185.824 35.6463 186.179C34.415 186.47 33.8483 187.631 33.7937 188.799C33.7254 190.216 34.3695 191.678 35.0842 192.859C35.8978 194.228 37.0499 195.366 38.4299 196.161C41.2088 197.741 44.7252 197.939 46.5733 200.848C46.8259 201.246 47.099 201.758 46.9738 202.252C46.8805 202.625 46.3457 202.743 46.0293 202.816C44.6046 203.13 42.736 202.602 41.4774 201.938C39.9661 201.132 38.8646 199.675 37.7038 198.46C36.4793 197.172 35.1138 196.125 33.3977 195.601C32.1505 195.224 30.6164 195.285 29.813 196.448C29.0756 197.52 29.2236 198.952 29.5263 200.147C29.9582 201.722 30.748 203.177 31.8341 204.398C32.9721 205.716 34.7656 206.465 36.3747 207.004C38.0475 207.566 39.7886 207.914 41.4364 208.529C41.8357 208.701 42.2598 208.807 42.6928 208.845C43.2051 208.846 43.7163 208.894 44.2199 208.989C44.641 209.096 44.3611 209.542 44.2199 209.847C43.8763 210.584 42.7792 210.55 42.0873 210.607C41.4319 210.657 40.7855 210.835 40.13 210.835C39.3759 210.811 38.6247 210.728 37.8836 210.586C36.4156 210.359 34.8611 210.104 33.4045 210.545C31.998 210.971 31.0079 212.296 30.7553 213.716C30.225 216.7 33.557 218.516 36.031 218.896C37.6242 219.14 39.0557 218.794 40.4486 218.004C42.167 217.034 43.5166 215.635 45.499 215.391C45.6287 216.185 45.3465 216.82 44.641 217.414C43.6714 218.234 42.3309 218.675 41.1588 219.11C38.8532 219.968 35.4688 220.728 34.2421 223.116C34.1636 223.257 34.1335 223.42 34.156 223.58C34.1786 223.741 34.2528 223.889 34.3673 224.003C35.4597 225.046 36.7184 225.865 38.2569 225.988C39.5315 226.088 40.7764 225.496 41.8097 224.811C43.6578 223.587 45.2487 221.68 47.3266 220.817C47.0398 221.343 46.5619 221.7 45.9793 222.153C44.9414 222.956 44.4089 224.076 44.1221 225.339C43.6874 227.247 44.3497 229.309 46.5869 229.32C47.8091 229.32 49.0336 228.712 50.0532 228.1C51.2034 227.38 52.1704 226.402 52.8777 225.244C53.7881 223.83 54.2752 222.198 54.5528 220.532C56.426 224.174 60.4908 227.986 64.3236 224.836C67.601 222.142 62.2047 220.077 60.0721 217.956C60.4931 218.127 60.9005 218.343 61.2897 218.541C62.4004 219.112 63.4815 219.743 64.64 220.214C66.8067 221.097 69.2328 221.01 70.5279 218.784C71.6454 216.864 69.3308 215.971 67.906 215.544C66.7453 215.193 64.5762 214.82 63.7341 213.652C66.595 213.966 69.7791 214.319 72.2462 212.669C73.3637 211.92 74.7089 210.477 74.8432 209.068C74.9524 207.917 73.7051 207.512 72.8084 207.421C70.3686 207.193 67.9925 208.256 65.5458 208.181C64.9588 208.163 64.3746 208.093 63.8001 207.971C63.5815 207.926 63.3679 207.859 63.1629 207.771C63.0894 207.732 63.02 207.685 62.9558 207.632C62.9717 207.589 62.9948 207.549 63.024 207.514C63.2526 207.271 63.5138 207.061 63.8001 206.89C64.4069 206.485 65.1041 206.235 65.8303 206.162C67.2528 206.009 68.673 206.189 70.0886 205.934C71.6818 205.659 72.9791 204.735 74.0306 203.545C74.966 202.491 75.8673 201.153 76.0153 199.714C76.17 198.228 75.2687 197.211 73.9418 196.714C70.2274 195.294 68.0562 199.129 65.4069 200.87C64.6876 201.31 63.911 201.647 63.0991 201.874C62.7737 201.974 61.8177 202.304 61.5059 202.049C61.317 201.897 61.9475 200.886 62.0658 200.684C62.5814 199.858 63.302 199.18 64.1574 198.715C66.3697 197.45 69.0735 197.056 70.8169 195.051C71.9549 193.737 72.8653 191.509 71.7455 189.907C70.5552 188.209 67.9083 188.667 66.4107 189.654C64.5307 190.899 63.5816 193.419 61.3193 194.02C61.1213 192.948 61.5469 191.971 62.2639 191.006C63.3199 189.611 64.6809 188.466 65.935 187.255C67.1367 186.099 68.3725 184.838 68.9984 183.261C69.6334 181.661 69.2238 180.025 68.1837 178.691Z" fill="#FF8C00"/>
<path fill-rule="evenodd" clip-rule="evenodd" d="M124.131 230.323C124.493 228.871 124.42 227.335 124.259 225.862C124.228 225.67 124.123 225.498 123.967 225.383C123.81 225.267 123.614 225.219 123.421 225.248C121.393 225.603 119.375 226.047 117.324 226.245C116.641 226.311 115.731 226.368 115.178 226.211C115.141 226.211 115.023 226.14 114.968 226.117C114.967 226.104 114.967 226.091 114.968 226.079C115.024 225.928 115.1 225.786 115.196 225.657C116.753 223.325 119.648 222.385 121.341 220.195C122.246 218.947 122.823 217.491 123.018 215.962C123.216 214.391 122.702 212.896 123.474 211.41C123.753 210.868 123.178 210.383 122.682 210.413C119.875 210.584 116.611 210.292 114.081 211.742C111.834 213.03 111.013 215.441 110.4 217.803C110.127 218.955 109.762 220.083 109.308 221.176C109.044 221.77 108.555 222.828 107.767 222.742C106.943 222.653 107.223 221.304 107.312 220.65C107.537 219.312 107.841 217.988 108.222 216.686C108.787 214.523 109.588 211.169 107.633 209.475C106.77 208.731 105.584 209.091 104.749 209.669C103.431 210.579 102.562 212.268 101.993 213.722C100.705 217.016 102.255 220.411 101.765 223.768C101.652 224.54 101.039 226.896 99.8922 226.727C99.4916 226.666 99.1411 226.072 98.9681 225.764C98.5072 224.988 98.2431 224.11 98.1989 223.209C98.167 219.895 100.345 216.961 100.152 213.606C100.065 212.136 99.3186 210.352 98.1465 209.427C97.1542 208.642 95.8933 208.911 94.9397 209.594C93.788 210.415 93.0392 211.829 92.5522 213.119C91.9803 214.606 91.8001 216.215 92.0287 217.792C92.5067 220.951 94.5323 223.837 93.3943 227.091C93.2396 227.533 92.9983 228.07 92.5431 228.273C92.1881 228.43 91.7647 228.084 91.5144 227.879C90.3764 226.955 89.6412 225.148 89.3909 223.766C89.0882 222.082 89.5502 220.316 89.7892 218.652C90.0418 216.893 90.0167 215.17 89.3681 213.499C88.8947 212.284 87.8978 211.119 86.4844 211.207C85.1871 211.289 84.1493 212.297 83.4028 213.269C82.4326 214.585 81.7784 216.107 81.491 217.717C81.1587 219.428 81.6821 221.297 82.2534 222.897C82.8474 224.556 83.6577 226.131 84.188 227.817C84.301 228.237 84.48 228.635 84.7183 228.999C85.0353 229.4 85.3142 229.831 85.5513 230.284C85.7265 230.683 85.2053 230.74 84.8685 230.815C84.0764 231.004 83.4233 230.132 82.9544 229.613C82.4856 229.094 81.978 228.723 81.5683 228.213C81.1199 227.606 80.7204 226.963 80.3734 226.292C79.6383 225 78.8804 223.618 77.6423 222.749C76.436 221.907 74.7837 221.95 73.5114 222.63C70.8417 224.06 71.4744 227.801 72.7103 229.98C73.4977 231.375 74.6585 232.29 76.1402 232.9C77.9609 233.646 79.9023 233.84 81.3203 235.248C80.7763 235.838 80.1026 236.011 79.1991 235.827C77.9564 235.572 76.7774 234.789 75.7122 234.14C73.6138 232.856 70.9327 230.681 68.2858 231.181C68.1263 231.207 67.9795 231.284 67.8678 231.401C67.7561 231.517 67.6855 231.667 67.6667 231.828C67.5233 233.334 67.6667 234.827 68.5157 236.111C69.2235 237.176 70.4593 237.788 71.636 238.173C73.7436 238.856 76.2244 238.94 78.1885 240.035C77.5991 240.135 77.021 239.982 76.3063 239.807C75.0295 239.491 73.8232 239.764 72.6647 240.317C70.8963 241.155 69.6855 242.953 71.0716 244.716C71.8226 245.681 73.063 246.262 74.176 246.687C75.4538 247.145 76.82 247.3 78.168 247.143C79.834 246.972 81.4227 246.355 82.9043 245.549C81.1996 249.273 80.7217 254.826 85.5718 255.885C89.714 256.795 87.9957 251.276 88.3416 248.29C88.4668 248.724 88.551 249.177 88.6352 249.605C88.8765 250.834 89.0495 252.07 89.3954 253.276C90.0418 255.523 91.6122 257.373 94.1636 257.016C96.3644 256.704 95.6339 254.332 95.0876 252.949C94.6324 251.822 93.5946 249.885 93.9883 248.501C95.5132 250.944 97.2065 253.663 100.029 254.58C101.312 254.995 103.274 255.156 104.465 254.389C105.436 253.763 104.986 252.532 104.501 251.774C103.176 249.708 100.859 248.508 99.4097 246.539C99.0603 246.069 98.7555 245.567 98.4993 245.04C98.4023 244.84 98.326 244.631 98.2717 244.416C98.257 244.333 98.2509 244.25 98.2535 244.166C98.2972 244.154 98.3425 244.148 98.3878 244.15C98.72 244.18 99.0464 244.257 99.3574 244.377C100.048 244.603 100.673 244.994 101.178 245.515C102.175 246.542 102.912 247.764 103.987 248.727C105.188 249.808 106.718 250.254 108.311 250.345C109.72 250.427 111.327 250.306 112.551 249.532C113.812 248.734 114.044 247.402 113.623 246.046C112.44 242.252 108.083 242.918 105.077 241.915C104.279 241.618 103.526 241.211 102.84 240.706C102.557 240.513 101.702 239.964 101.702 239.568C101.702 239.325 102.885 239.197 103.11 239.172C104.078 239.064 105.057 239.21 105.951 239.596C108.316 240.549 110.298 242.429 112.952 242.554C114.693 242.641 117.001 241.969 117.565 240.096C118.166 238.112 116.165 236.316 114.463 235.754C112.321 235.044 109.756 235.856 107.881 234.454C108.602 233.635 109.638 233.35 110.84 233.33C112.59 233.296 114.331 233.657 116.056 233.894C117.711 234.122 119.47 234.313 121.091 233.826C122.697 233.307 123.724 231.978 124.131 230.323Z" fill="#FF8C00"/>
<path fill-rule="evenodd" clip-rule="evenodd" d="M24.6986 189.918C23.3057 189.377 21.7717 189.256 20.29 189.236C20.0952 189.241 19.9105 189.323 19.7762 189.464C19.6418 189.606 19.5688 189.794 19.5731 189.989C19.6733 192.037 19.8553 194.102 19.8007 196.164C19.778 196.846 19.7188 197.757 19.4934 198.287C19.4775 198.319 19.407 198.428 19.3774 198.481H19.3387C19.1963 198.407 19.0652 198.314 18.9495 198.203C16.8306 196.364 16.2661 193.373 14.2952 191.423C13.1719 190.366 11.8006 189.609 10.3076 189.222C8.77364 188.828 7.22597 189.147 5.85128 188.202C5.34829 187.856 4.79522 188.366 4.76108 188.865C4.57445 191.666 3.87573 194.866 4.98868 197.559C5.97872 199.953 8.2661 201.073 10.533 201.979C11.6405 202.395 12.7129 202.9 13.7398 203.488C14.2974 203.825 15.2874 204.446 15.1054 205.217C14.9096 206.023 13.6101 205.573 12.9705 205.402C11.6716 205.013 10.397 204.547 9.15372 204.007C7.08031 203.176 3.85298 201.958 1.92751 203.681C1.07857 204.444 1.2834 205.67 1.75225 206.567C2.49649 207.99 4.05557 209.071 5.4257 209.813C8.52785 211.508 12.0943 210.4 15.3603 211.31C16.1114 211.52 18.3714 212.425 18.0573 213.543C17.9481 213.932 17.3131 214.203 16.9853 214.34C16.1559 214.696 15.2523 214.846 14.3521 214.777C11.0587 214.39 8.43453 211.854 5.07519 211.624C3.60491 211.524 1.74315 212.041 0.675721 213.086C-0.234668 213.971 -0.120883 215.255 0.434454 216.288C1.11725 217.533 2.41 218.455 3.62082 219.103C5.02344 219.858 6.5963 220.239 8.18871 220.212C11.3864 220.139 14.5023 218.498 17.5839 220.045C18.005 220.255 18.4943 220.56 18.6491 221.038C18.7606 221.406 18.3646 221.784 18.1301 222.007C17.0695 223.009 15.1964 223.521 13.7831 223.6C12.0715 223.687 10.3691 223.006 8.7577 222.558C7.04389 222.085 5.34375 221.875 3.59353 222.331C2.33037 222.647 1.0467 223.489 0.955661 224.902C0.873726 226.197 1.74315 227.356 2.61258 228.218C3.79446 229.347 5.22039 230.189 6.77989 230.679C8.43452 231.223 10.3554 230.941 12.0146 230.579C13.7375 230.199 15.4013 229.593 17.1401 229.281C17.5702 229.223 17.9882 229.096 18.3782 228.906C18.8175 228.641 19.2809 228.419 19.762 228.241C20.1785 228.118 20.1672 228.639 20.2036 228.979C20.2878 229.787 19.3319 230.324 18.7674 230.727C18.203 231.129 17.7615 231.582 17.2016 231.924C16.5451 232.292 15.8601 232.607 15.1532 232.866C13.7876 233.428 12.3128 234.004 11.2841 235.142C10.2963 236.234 10.1278 237.873 10.6422 239.225C11.7233 242.052 15.5174 241.897 17.8343 240.95C19.316 240.343 20.372 239.307 21.1617 237.916C22.1336 236.198 22.5729 234.302 24.1479 233.075C24.6668 233.688 24.7509 234.38 24.4528 235.253C24.0431 236.453 23.1191 237.529 22.3384 238.497C20.8021 240.418 18.3008 242.807 18.4693 245.491C18.4747 245.652 18.5325 245.807 18.634 245.933C18.7354 246.059 18.8748 246.148 19.0314 246.187C20.5062 246.52 22.0061 246.574 23.3899 245.889C24.5279 245.318 25.2972 244.171 25.8298 243.049C26.7834 241.048 27.1703 238.597 28.5063 236.79C28.5313 237.384 28.3037 237.928 28.0375 238.624C27.5618 239.851 27.6824 241.085 28.083 242.309C28.6906 244.168 30.318 245.598 32.2457 244.455C33.2949 243.832 34.0278 242.673 34.5877 241.626C35.2037 240.417 35.5302 239.08 35.5413 237.723C35.5846 236.048 35.1727 234.393 34.5559 232.82C38.0336 234.983 43.48 236.157 45.146 231.482C46.5685 227.488 40.8785 228.494 37.9607 227.77C38.4159 227.702 38.8711 227.677 39.3058 227.647C40.553 227.565 41.8094 227.549 43.0407 227.358C45.3508 227.001 47.3878 225.676 47.365 223.102C47.3355 220.881 44.8887 221.306 43.4481 221.673C42.2736 221.973 40.2184 222.763 38.8961 222.199C41.5112 220.997 44.4222 219.661 45.6876 216.964C46.2634 215.746 46.6708 213.816 46.0609 212.539C45.5624 211.497 44.2856 211.79 43.4708 212.173C41.254 213.227 39.7724 215.359 37.633 216.561C37.1216 216.85 36.5844 217.091 36.0284 217.28C35.8187 217.354 35.6022 217.406 35.382 217.437C35.2976 217.441 35.213 217.436 35.1294 217.424C35.1225 217.379 35.1225 217.334 35.1294 217.289C35.2002 216.963 35.3158 216.648 35.4731 216.354C35.7841 215.693 36.2531 215.118 36.8387 214.681C37.9767 213.823 39.2899 213.245 40.3778 212.305C41.6022 211.247 42.2373 209.788 42.5286 208.229C42.7881 206.843 42.8722 205.229 42.26 203.922C41.6273 202.557 40.3346 202.168 38.9371 202.416C35.0224 203.099 35.134 207.516 33.757 210.382C33.3606 211.135 32.862 211.831 32.2753 212.448C32.0477 212.701 31.3945 213.477 30.9939 213.42C30.755 213.388 30.7663 212.198 30.7663 211.973C30.7808 210.999 31.0491 210.047 31.5448 209.21C32.792 206.984 34.9063 205.256 35.3729 202.641C35.6779 200.92 35.3046 198.544 33.5203 197.75C31.6267 196.906 29.592 198.66 28.8159 200.283C27.844 202.313 28.3265 204.963 26.6946 206.656C25.9732 205.837 25.8252 204.776 25.955 203.583C26.1439 201.842 26.7197 200.169 27.1748 198.481C27.6096 196.867 28.0192 195.151 27.7438 193.473C27.4707 191.719 26.2781 190.533 24.6986 189.918Z" fill="#FF8C00"/>
<path fill-rule="evenodd" clip-rule="evenodd" d="M95.9347 210.129C95.7344 208.647 95.0972 207.248 94.4053 205.937C94.3057 205.77 94.1444 205.648 93.9562 205.599C93.7681 205.55 93.5681 205.576 93.3993 205.673C91.6468 206.756 89.9353 207.912 88.1008 208.859C87.4977 209.169 86.6647 209.562 86.0934 209.617C86.057 209.617 85.9273 209.617 85.8658 209.617C85.8644 209.604 85.8644 209.591 85.8658 209.578C85.8616 209.418 85.8792 209.258 85.9182 209.103C86.5031 206.372 88.8473 204.419 89.6029 201.751C89.9849 200.258 89.9849 198.693 89.6029 197.199C89.2046 195.665 88.1782 194.468 88.3398 192.804C88.3989 192.197 87.6843 191.96 87.2337 192.169C84.6891 193.362 81.5437 194.297 79.723 196.578C78.1093 198.604 78.2345 201.148 78.5372 203.57C78.7073 204.74 78.7834 205.922 78.7648 207.104C78.7398 207.758 78.6738 208.925 77.909 209.132C77.1443 209.339 76.8735 207.994 76.7141 207.355C76.3864 206.039 76.2589 204.683 76.0882 203.34C75.8151 201.121 75.3235 197.707 72.8791 196.856C71.8026 196.482 70.8307 197.254 70.2686 198.098C69.3832 199.439 69.1966 201.321 69.2057 202.878C69.2216 206.415 71.9164 209 72.6993 212.298C72.8791 213.058 73.1773 215.485 72.0507 215.737C71.6569 215.83 71.1084 215.407 70.8353 215.186C70.1205 214.634 69.5517 213.915 69.1784 213.092C67.9243 210.024 68.8689 206.492 67.4487 203.449C66.8273 202.115 65.4731 200.732 64.0347 200.301C62.8216 199.94 61.7587 200.657 61.1169 201.64C60.3476 202.83 60.1746 204.419 60.1951 205.8C60.2132 207.394 60.6403 208.955 61.4355 210.336C63.0446 213.097 65.9875 215.032 66.1263 218.475C66.1445 218.946 66.1263 219.533 65.7712 219.891C65.5004 220.168 64.9815 220.005 64.6697 219.907C63.2813 219.452 61.9385 218.07 61.1806 216.866C60.2702 215.412 60.054 213.6 59.6625 211.964C59.2483 210.236 58.5929 208.645 57.3684 207.332C56.4807 206.378 55.1243 205.661 53.8429 206.267C52.6685 206.82 52.0767 208.142 51.7399 209.321C51.324 210.901 51.2773 212.555 51.6033 214.155C51.9265 215.869 53.1032 217.415 54.223 218.687C55.3883 220.011 56.7265 221.19 57.8372 222.556C58.0959 222.907 58.4095 223.215 58.7658 223.466C59.2086 223.725 59.6275 224.023 60.0176 224.356C60.3271 224.661 59.8606 224.907 59.5829 225.098C58.9183 225.553 57.9897 224.987 57.3593 224.686C56.7675 224.404 56.1234 224.231 55.5567 223.896C54.9145 223.5 54.3055 223.051 53.7359 222.556C52.5775 221.625 51.3621 220.621 49.8827 220.28C48.4511 219.943 46.924 220.592 45.9999 221.693C44.0448 224.006 46.0158 227.249 47.9663 228.822C49.2136 229.828 50.6315 230.249 52.2338 230.267C54.2048 230.29 56.0756 229.753 57.9237 230.54C57.6369 231.289 57.0748 231.699 56.1644 231.858C54.9149 232.085 53.5334 231.79 52.2952 231.578C49.8713 231.161 46.5689 230.128 44.302 231.578C44.1734 231.661 44.0737 231.782 44.0163 231.924C43.9589 232.067 43.9466 232.223 43.9811 232.372C44.4044 233.824 45.0826 235.165 46.3504 236.041C47.4019 236.769 48.7766 236.883 50.0124 236.808C52.2269 236.674 54.5644 235.825 56.7903 236.125C56.2782 236.437 55.6841 236.508 54.9558 236.606C53.654 236.781 52.632 237.482 51.7535 238.426C50.4198 239.858 49.9578 241.975 51.8878 243.108C52.9416 243.725 54.3095 243.807 55.4975 243.791C56.8518 243.744 58.1765 243.382 59.3667 242.735C60.8529 241.965 62.0979 240.805 63.1812 239.503C62.9718 243.6 64.5764 248.928 69.4743 248.124C73.6598 247.441 70.0273 242.944 69.2467 240.042C69.5243 240.402 69.7679 240.791 70.0046 241.157C70.6874 242.211 71.2996 243.297 72.0666 244.287C73.4959 246.137 75.6399 247.28 77.8771 246.005C79.8072 244.901 78.2527 242.969 77.2331 241.884C76.4046 241 74.7158 239.585 74.5724 238.158C76.8894 239.862 79.468 241.765 82.4314 241.572C83.7742 241.485 85.6587 240.912 86.4826 239.751C87.154 238.811 86.28 237.835 85.5494 237.309C83.5579 235.877 80.9634 235.613 78.8854 234.318C78.3852 234.011 77.9149 233.658 77.4811 233.262C77.3131 233.115 77.1606 232.951 77.0259 232.773C76.9817 232.701 76.9451 232.625 76.9167 232.545C76.9521 232.518 76.9912 232.497 77.0328 232.481C77.3521 232.383 77.6841 232.332 78.0183 232.329C78.7472 232.28 79.477 232.413 80.1417 232.716C81.4458 233.299 82.5861 234.166 83.9358 234.662C85.4539 235.222 87.0357 235.074 88.5424 234.573C89.8829 234.118 91.3327 233.424 92.1839 232.256C93.0624 231.048 92.787 229.723 91.8926 228.615C89.389 225.526 85.5904 227.754 82.4268 227.932C81.5742 227.952 80.7231 227.852 79.8982 227.636C79.5659 227.561 78.5736 227.363 78.4257 226.985C78.3415 226.757 79.3907 226.2 79.5909 226.093C80.4503 225.637 81.4135 225.413 82.3858 225.442C84.9372 225.456 87.4726 226.471 89.9853 225.613C91.6376 225.05 93.5358 223.564 93.3697 221.627C93.1922 219.558 90.6727 218.628 88.8792 218.735C86.6305 218.869 84.5549 220.571 82.2789 219.952C82.643 218.928 83.5011 218.284 84.6072 217.822C86.2186 217.139 87.9734 216.836 89.6644 216.42C91.2849 216.022 92.985 215.548 94.3165 214.501C95.7003 213.427 96.1623 211.811 95.9347 210.129Z" fill="#FDB052"/>
<path fill-rule="evenodd" clip-rule="evenodd" d="M85.0961 195.932C84.2472 199.623 83.503 203.342 82.4492 206.984C81.3867 210.685 79.7756 214.207 77.6696 217.431C73.2634 224.154 67.6554 229.98 63.1171 236.61C63.0342 236.716 62.9892 236.847 62.9892 236.982C62.9892 237.117 63.0342 237.248 63.1171 237.354C62.2408 239.007 61.7333 240.884 61.3691 242.68C60.7341 245.81 60.5407 249.019 60.4132 252.203C60.2607 256.097 60.2903 259.966 60.4701 263.858C60.684 268.431 60.9868 273.008 60.7933 277.587L60.7523 278.381C60.6977 279.328 62.168 279.323 62.2203 278.381C62.4729 273.913 62.2203 269.439 61.9927 264.971C61.7993 260.99 61.7105 257.03 61.8516 253.045C61.9632 249.966 62.1156 246.879 62.6414 243.836C63.1216 241.073 63.8863 237.942 65.9734 235.921C66.0999 235.807 66.1788 235.651 66.194 235.482C66.2093 235.312 66.1597 235.144 66.0553 235.01C70.2955 229.245 75.1592 223.949 79.0853 217.94C81.147 214.74 82.7318 211.256 83.7897 207.598C84.9049 203.891 85.6401 200.088 86.5073 196.31C86.7235 195.399 85.3078 195.008 85.0961 195.932Z" fill="#FDB052"/>
<path fill-rule="evenodd" clip-rule="evenodd" d="M61.1235 278.601C60.3246 271.459 57.0403 265.063 53.6355 258.852C50.2602 252.691 46.7029 246.444 45.6696 239.391C45.533 238.455 44.1174 238.856 44.2516 239.782C46.3182 253.859 58.0691 264.388 59.6555 278.601C59.7579 279.532 61.2281 279.543 61.1235 278.601Z" fill="#FDB052"/>
<path fill-rule="evenodd" clip-rule="evenodd" d="M82.7224 245.118C76.4339 247.849 70.2751 252.059 66.0554 257.529C63.7522 260.512 62.3979 263.901 61.549 267.465C61.2281 263.756 60.5453 260.082 59.8375 256.434C58.1806 247.915 56.9083 239.364 56.1072 230.715C55.7885 227.285 55.5503 223.849 55.3925 220.407C55.3493 219.463 53.879 219.461 53.9245 220.407C54.3638 229.967 55.4631 239.46 56.9447 248.903C57.9462 255.289 59.6395 261.598 60.1311 268.055C59.5733 264.567 58.7516 261.127 57.673 257.763C56.1641 252.939 54.0577 248.324 51.4028 244.023C51.4107 243.923 51.3978 243.822 51.3649 243.728C51.332 243.633 51.2798 243.546 51.2116 243.472C51.0295 243.27 50.8451 243.07 50.6585 242.871C49.9985 241.871 49.3012 240.897 48.5669 239.947C48.2391 239.523 47.768 239.676 47.5222 240.017C46.3862 239.145 45.1752 238.375 43.9034 237.716C40.8832 236.155 37.1233 235.142 35.6781 231.719C35.3093 230.85 34.0416 231.601 34.408 232.461C35.8465 235.864 39.356 237.127 42.424 238.606C45.1122 239.903 47.5386 241.684 49.582 243.859C52.518 248.329 54.7075 253.293 56.3302 258.368C58.3347 264.545 59.3817 270.993 59.4346 277.487C59.4346 277.521 59.4346 277.555 59.4346 277.587C59.4152 277.687 59.4183 277.791 59.4436 277.891C59.4689 277.99 59.5158 278.083 59.581 278.162C59.6463 278.241 59.7282 278.305 59.8209 278.348C59.9136 278.392 60.0149 278.415 60.1174 278.415C60.3132 279.08 61.4967 278.986 61.5627 278.147C62.0998 271.198 62.8918 263.904 67.3436 258.239C71.4518 253.004 77.408 249.021 83.4598 246.381C84.3292 246.028 83.5827 244.749 82.7224 245.118Z" fill="#FF8C00"/>
<path fill-rule="evenodd" clip-rule="evenodd" d="M38.7462 195.774C37.4102 195.091 35.8967 194.832 34.4218 194.661C34.2272 194.648 34.0354 194.713 33.888 194.841C33.7406 194.969 33.6495 195.149 33.6344 195.344C33.5342 197.392 33.5182 199.468 33.2565 201.512C33.1723 202.183 33.0289 203.093 32.7467 203.596C32.7285 203.626 32.6466 203.731 32.6102 203.781C32.6 203.772 32.5884 203.765 32.576 203.76C32.4417 203.673 32.3199 203.569 32.2142 203.449C30.2841 201.414 30.011 198.382 28.238 196.25C27.2216 195.091 25.9303 194.206 24.4827 193.676C22.9919 193.134 21.4215 193.305 20.1447 192.228C19.6781 191.837 19.0772 192.292 18.9953 192.783C18.5401 195.553 17.5341 198.671 18.3853 201.462C19.141 203.938 21.3099 205.274 23.4767 206.394C24.5397 206.918 25.5589 207.527 26.5242 208.214C27.0477 208.601 27.9695 209.316 27.71 210.065C27.4414 210.85 26.1897 210.276 25.5683 210.044C24.3134 209.531 23.0898 208.945 21.904 208.287C19.9216 207.259 16.8286 205.729 14.7438 207.265C13.8334 207.948 13.9108 209.184 14.2886 210.119C14.894 211.608 16.337 212.828 17.632 213.704C20.5566 215.691 24.2141 214.933 27.3777 216.153C28.106 216.435 30.2636 217.555 29.8448 218.636C29.6992 219.016 29.0391 219.226 28.7068 219.319C27.8471 219.595 26.9332 219.657 26.044 219.501C22.8053 218.795 20.4269 216.021 17.1131 215.468C15.661 215.227 13.756 215.559 12.593 216.494C11.6075 217.286 11.5915 218.579 12.0445 219.66C12.593 220.967 13.8015 222.009 14.9554 222.772C16.2773 223.659 17.806 224.191 19.3936 224.315C22.5799 224.542 25.8437 223.222 28.7592 225.057C29.1575 225.307 29.6287 225.657 29.7265 226.147C29.7994 226.527 29.3692 226.864 29.1143 227.057C27.9626 227.954 26.0463 228.284 24.6329 228.218C22.9213 228.138 21.3031 227.308 19.7304 226.695C18.0735 226.058 16.3916 225.698 14.6163 225.965C13.3281 226.158 11.9694 226.875 11.7418 228.268C11.5347 229.552 12.288 230.785 13.0709 231.732C14.1374 232.97 15.4757 233.944 16.9811 234.579C18.5743 235.283 20.5157 235.187 22.1999 234.984C23.9524 234.773 25.6662 234.336 27.4346 234.188C27.869 234.173 28.298 234.087 28.7046 233.933C29.1676 233.714 29.6499 233.538 30.1453 233.407C30.5709 233.323 30.5095 233.844 30.5117 234.183C30.5117 234.996 29.5149 235.437 28.9186 235.776C28.3222 236.116 27.8352 236.532 27.2457 236.819C26.5545 237.121 25.8407 237.368 25.1109 237.559C23.6861 237.986 22.1703 238.421 21.0482 239.443C19.9603 240.433 19.6326 242.056 20.0149 243.446C20.8161 246.367 24.6055 246.578 27.0044 245.857C28.5407 245.402 29.6901 244.468 30.6096 243.16C31.7476 241.546 32.3621 239.698 34.0509 238.628C34.5061 239.291 34.5243 239.994 34.1442 240.825C33.6184 241.981 32.5965 242.955 31.7271 243.849C30.011 245.613 27.2912 247.753 27.1979 250.436C27.188 250.597 27.2307 250.758 27.3198 250.893C27.4089 251.028 27.5394 251.13 27.6918 251.185C29.1279 251.658 30.6164 251.868 32.0571 251.308C33.252 250.852 34.1214 249.783 34.761 248.722C35.8989 246.822 36.5249 244.416 38.0293 242.745C37.9951 243.342 37.7174 243.883 37.3852 244.53C36.7934 245.702 36.7957 246.94 37.0756 248.199C37.5012 250.108 38.9829 251.688 41.0085 250.739C42.1169 250.22 42.9567 249.146 43.6167 248.146C44.3466 247.002 44.8001 245.704 44.9414 244.355C45.1462 242.693 44.8959 241.004 44.4338 239.382C47.6885 241.867 52.9938 243.565 55.1036 239.072C56.9062 235.232 51.1457 235.685 48.3121 234.684C48.7673 234.661 49.2225 234.684 49.6617 234.684C50.9112 234.72 52.1653 234.827 53.4057 234.755C55.7408 234.623 57.8962 233.503 58.1102 230.933C58.2945 228.721 55.8205 228.908 54.3503 229.135C53.1531 229.317 51.0319 229.909 49.771 229.219C52.4885 228.27 55.5156 227.226 57.0359 224.667C57.7187 223.511 58.3196 221.631 57.8348 220.3C57.4388 219.216 56.1391 219.389 55.2925 219.688C52.9847 220.521 51.3005 222.51 49.0586 223.491C48.5213 223.729 47.9627 223.917 47.3903 224.051C47.1746 224.103 46.9544 224.134 46.7326 224.144C46.648 224.14 46.564 224.127 46.4822 224.105C46.4788 224.061 46.4826 224.016 46.4936 223.973C46.5961 223.651 46.7423 223.345 46.9283 223.063C47.3018 222.436 47.824 221.911 48.4486 221.533C49.6663 220.787 51.0274 220.336 52.1995 219.508C53.5218 218.572 54.2933 217.182 54.7349 215.657C55.1264 214.291 55.3676 212.698 54.8828 211.333C54.3844 209.921 53.1372 209.402 51.7215 209.512C47.759 209.821 47.4427 214.221 45.804 216.927C45.3383 217.641 44.7744 218.286 44.1288 218.843C43.8785 219.071 43.1547 219.783 42.7633 219.69C42.5357 219.633 42.6631 218.452 42.6882 218.226C42.7976 217.259 43.1576 216.336 43.7328 215.55C45.1872 213.456 47.4586 211.938 48.1755 209.382C48.6466 207.702 48.5055 205.303 46.8099 204.336C45.0074 203.312 42.8111 204.864 41.8848 206.4C40.7195 208.331 40.9448 211.014 39.1536 212.527C38.5163 211.644 38.4708 210.575 38.7143 209.402C39.0694 207.686 39.8068 206.066 40.4213 204.436C41.0085 202.875 41.5843 201.207 41.4728 199.516C41.3408 197.831 40.2665 196.539 38.7462 195.774Z" fill="#FF8C00"/>
<path fill-rule="evenodd" clip-rule="evenodd" d="M77.8043 321.784H46.1182L35.7466 280.81H87.4544L77.8043 321.784Z" fill="#FDB052"/>
<path d="M90.1922 275.481H32.2915V280.81H90.1922V275.481Z" fill="#FF8C00"/>
<path fill-rule="evenodd" clip-rule="evenodd" d="M61.6016 280.81H35.7466L46.1182 321.784H61.6016V280.81Z" fill="#FF8C00"/>
<path d="M61.6015 275.481H32.2915V280.81H61.6015V275.481Z" fill="#442500"/>
<path fill-rule="evenodd" clip-rule="evenodd" d="M77.8043 322.398H46.1182L35.7466 316.865H87.4544L77.8043 322.398Z" fill="#FF8C00"/>
<path fill-rule="evenodd" clip-rule="evenodd" d="M61.6016 316.865H35.7466L46.1182 322.398H61.6016V316.865Z" fill="#442500"/>
</g>
<defs>
<clipPath id="clip0_793_31750">
<rect width="440" height="344.316" fill="white"/>
</clipPath>
</defs>
</svg>
