<svg width="15" height="14" viewBox="0 0 15 14" fill="none" xmlns="http://www.w3.org/2000/svg">
<path d="M7.73513 8.46705L2.4356 13.601C2.23732 13.7931 1.98496 13.8891 1.67852 13.8891C1.37209 13.8891 1.11973 13.7931 0.921446 13.601C0.723164 13.4089 0.624023 13.1644 0.624023 12.8676C0.624023 12.5707 0.723164 12.3262 0.921446 12.1341L6.22098 7.00022L0.921446 1.86629C0.723164 1.67421 0.624023 1.42973 0.624023 1.13287C0.624023 0.836015 0.723164 0.591542 0.921446 0.399456C1.11973 0.207371 1.37209 0.111328 1.67852 0.111328C1.98496 0.111328 2.23732 0.207371 2.4356 0.399456L7.73513 5.53338L13.0347 0.399456C13.233 0.207371 13.4853 0.111328 13.7917 0.111328C14.0982 0.111328 14.3505 0.207371 14.5488 0.399456C14.7471 0.591542 14.8462 0.836015 14.8462 1.13287C14.8462 1.42973 14.7471 1.67421 14.5488 1.86629L9.24929 7.00022L14.5488 12.1341C14.7471 12.3262 14.8462 12.5707 14.8462 12.8676C14.8462 13.1644 14.7471 13.4089 14.5488 13.601C14.3505 13.7931 14.0982 13.8891 13.7917 13.8891C13.4853 13.8891 13.233 13.7931 13.0347 13.601L7.73513 8.46705Z" fill="#444444"/>
</svg>
