<svg width="456" height="374" viewBox="0 0 456 374" fill="none" xmlns="http://www.w3.org/2000/svg">
<g clip-path="url(#clip0_793_31811)">
<path d="M101.878 310.446V226.791C101.878 226.791 100.949 204.248 112.756 197.745C124.564 191.242 174.347 194.724 174.347 194.724V310.446H101.878Z" fill="#444444"/>
<path d="M189.916 116.403C189.916 116.403 186.905 141.731 185.752 143.82C184.599 145.909 184.599 145.909 184.599 145.909L178.813 149.863C178.813 149.863 189.927 165.666 203.593 168.216C217.258 170.777 216.094 162.633 216.094 162.633L214.013 158.219L216.788 134.048C216.777 134.071 191.997 122.681 189.916 116.403Z" fill="#AB5E27"/>
<path d="M171.616 151.964L180.648 148.01C180.648 148.01 186.435 157.535 199.865 163.117C213.296 168.699 213.531 165.442 214.225 163.117C214.919 160.792 213.99 158.243 213.99 158.243L214.986 150.111L220.358 151.908L239.005 303.258L191.068 305.583L171.616 151.964Z" fill="white"/>
<path d="M215.848 150.256C215.848 150.256 219.094 157.77 222.105 175.427C225.115 193.084 227.891 222.837 228.585 243.279C229.279 263.721 229.738 310.435 229.738 310.435C229.738 310.435 289.482 310.435 290.176 310.435C290.87 310.435 295.033 287.432 295.033 287.432C295.033 287.432 268.631 264.732 267.243 261.014C266.314 258.532 266.784 212.605 262.844 191.455C258.905 170.305 253.812 166.048 243.157 160.781C232.166 155.344 215.848 150.256 215.848 150.256Z" fill="#FF8C00"/>
<path d="M247.343 283.815C247.029 283.815 246.783 283.568 246.783 283.254C246.783 281.591 246.492 257.982 246.201 235.159C245.921 212.324 245.619 188.715 245.619 187.052C245.619 186.738 245.865 186.491 246.179 186.491C246.492 186.491 246.738 186.738 246.738 187.052C246.738 188.715 247.029 212.324 247.32 235.147C247.6 257.982 247.902 281.591 247.902 283.254C247.902 283.568 247.656 283.815 247.343 283.815Z" fill="#494949"/>
<path d="M126.926 278.143L126.467 310.446H196.866C196.866 310.446 199.877 283.029 198.724 280.468C197.56 277.907 126.926 278.143 126.926 278.143Z" fill="#FF8C00"/>
<path d="M205.271 143.124C208.136 145.449 212.065 147.303 215.12 148.437L216.777 134.06C216.777 134.06 198.164 125.501 191.852 119.144C193.172 126.378 196.418 135.958 205.271 143.124Z" fill="#672E05"/>
<path d="M238.546 69.2295C238.546 69.2295 243.403 77.5973 244.332 87.8183C245.261 98.0394 244.332 124.3 235.994 135.453C227.656 146.606 210.285 143.349 202.417 136.61C195.187 130.421 188.058 123.592 186.211 110.114C184.353 96.6354 190.151 71.0716 206.592 65.7252C223.033 60.4013 238.546 69.2295 238.546 69.2295Z" fill="#AB5E27"/>
<path d="M259.43 295.832C259.43 295.832 258.613 295.832 257.371 295.798C257.08 295.787 256.755 295.798 256.42 295.787C255.222 295.753 253.767 295.72 252.301 295.675C251.976 295.664 251.64 295.652 251.316 295.641C249.861 295.607 248.619 295.787 247.455 295.72H247.421C247.175 295.709 246.817 295.742 246.526 295.753C246.38 295.765 246.246 295.776 246.156 295.765C245.485 295.641 245.35 295.484 244.623 295.158C243.683 294.731 230.957 291.878 220.604 291.946C210.263 291.991 200.984 292.698 199.473 291.429C197.951 290.138 197.034 277.097 205.864 276.244L216.721 280.377C216.721 280.377 241.511 277.423 250.6 284.151C259.71 290.879 259.43 295.832 259.43 295.832Z" fill="#AB5E27"/>
<path d="M247.421 295.72C247.175 295.709 246.817 295.743 246.526 295.754C246.302 295.395 245.832 294.743 245.574 294.474C242.776 291.61 236.016 289.756 233.565 289.161C233.341 289.105 233.196 288.88 233.252 288.656C233.297 288.431 233.532 288.296 233.767 288.341C237.337 289.206 244.914 291.419 247.063 295.047C247.13 295.148 247.309 295.496 247.421 295.72Z" fill="#223A7A"/>
<path d="M252.301 295.675C251.976 295.663 251.64 295.663 251.316 295.641C248.26 290.047 243.257 288.441 237.09 286.453L236.721 286.33C236.508 286.262 236.385 286.015 236.452 285.79C236.52 285.577 236.755 285.453 236.99 285.521L237.348 285.644C243.873 287.756 249.133 289.441 252.301 295.675Z" fill="#223A7A"/>
<path d="M257.371 295.798C257.08 295.787 256.755 295.798 256.419 295.787C254.561 291.879 248.428 285.33 240.325 283.814C240.09 283.769 239.944 283.556 239.978 283.32C240.023 283.095 240.247 282.949 240.47 282.983C248.82 284.555 255.569 291.407 257.371 295.798Z" fill="#223A7A"/>
<path d="M191.762 98.6232C191.762 98.6232 196.855 96.1858 200.447 89.3232C204.04 82.4717 203.57 76.3054 203.57 76.3054C203.57 76.3054 210.05 75.2608 219.776 78.1699C229.502 81.0789 241.075 85.0213 250.801 79.4503C260.527 73.868 260.527 64.9275 255.782 61.2097C250.466 57.0427 239.922 59.5811 239.922 59.5811C239.922 59.5811 243.974 55.6274 241.78 53.3024C239.576 50.9774 231.595 53.9988 231.595 53.9988C231.595 53.9988 221.869 46.2151 203.458 47.1473C185.047 48.0796 176.25 60.9738 175.209 75.3844C174.168 89.7949 179.372 104.205 179.372 104.205L191.762 98.6232Z" fill="black"/>
<path d="M229.111 102.117C228.07 104.7 228.092 107.699 227.835 110.429C227.633 112.563 227.242 115.045 229.189 116.483C230.118 117.168 234.517 119.021 232.256 120.526C231.394 121.099 229.95 120.942 228.965 120.897C228.294 120.863 227.611 120.841 226.928 120.784C226.201 120.728 225.496 120.515 224.768 120.504C224.343 120.504 224.209 121.065 224.556 121.29C225.72 122.02 227.443 122.256 228.797 122.301C230.163 122.357 231.081 122.29 232.312 121.683C233.062 121.312 233.8 120.773 233.912 119.875C234.047 118.864 233.285 117.954 232.524 117.381C231.651 116.73 230.577 116.426 229.693 115.786C228.462 114.91 228.562 113.416 228.652 112.046C228.865 108.744 229.614 105.498 229.905 102.207C229.973 101.724 229.279 101.724 229.111 102.117Z" fill="#672E05"/>
<path d="M238.58 109.844C238.233 111.798 236.811 113.191 235.412 112.944C234.002 112.697 233.151 110.9 233.487 108.945C233.834 106.991 235.256 105.598 236.655 105.845C238.065 106.092 238.927 107.89 238.58 109.844Z" fill="#381E00"/>
<path d="M220.862 108.294C220.549 110.406 219.06 111.933 217.549 111.709C216.038 111.484 215.053 109.586 215.367 107.474C215.68 105.363 217.169 103.835 218.68 104.06C220.191 104.284 221.176 106.183 220.862 108.294Z" fill="#381E00"/>
<path d="M234.46 101.768C235.546 101.948 236.632 101.768 237.729 101.847C237.986 101.87 238.255 101.903 238.512 101.926C238.702 101.948 238.165 101.87 238.423 101.914C238.478 101.926 238.534 101.937 238.59 101.937C238.725 101.959 238.859 101.993 238.993 102.027C239.228 102.083 239.452 102.173 239.687 102.218C239.9 102.263 240.135 102.319 240.348 102.308C240.471 102.296 240.583 102.274 240.706 102.263C240.627 102.274 240.56 102.285 240.482 102.308C240.482 102.33 240.885 102.263 240.93 102.263C241.545 102.117 241.937 101.398 241.758 100.791C241.713 100.612 241.635 100.466 241.523 100.32C241.478 100.263 241.433 100.196 241.377 100.14C241.422 100.185 241.467 100.241 241.512 100.286C241.467 100.218 241.422 100.162 241.366 100.095C241.31 99.9938 241.221 99.9039 241.12 99.8478C241.03 99.7804 240.952 99.713 240.862 99.6456C240.571 99.4434 240.202 99.3311 239.855 99.2412C239.206 99.0728 238.534 98.9941 237.863 98.9829C237.203 98.9829 236.542 99.0503 235.893 99.1402C235.311 99.2188 234.673 99.421 234.203 99.7691C233.845 100.039 233.621 100.387 233.677 100.859C233.722 101.252 234.035 101.701 234.46 101.768Z" fill="#381E00"/>
<path d="M222.104 98.6683C221.959 98.5785 221.802 98.4999 221.657 98.4325C221.522 98.3763 221.164 98.1854 221.433 98.3314C221.332 98.2752 221.231 98.2191 221.131 98.1741C220.683 97.9495 220.213 97.7923 219.732 97.6687C218.68 97.3991 217.56 97.3318 216.475 97.4441C215.322 97.5676 214.259 97.8484 213.263 98.4549C213.117 98.5448 212.972 98.6234 212.86 98.747C212.781 98.8481 212.703 98.9491 212.625 99.0502C212.647 99.0165 212.669 98.9828 212.692 98.9491C212.378 99.1626 212.199 99.522 212.21 99.8926C212.21 100.252 212.401 100.555 212.714 100.724C213.095 100.937 213.453 100.836 213.845 100.735C213.654 100.735 213.453 100.735 213.263 100.735C213.587 100.791 213.811 100.802 214.136 100.724C214.147 100.724 214.449 100.645 214.247 100.69C214.057 100.735 214.561 100.656 214.617 100.645C214.684 100.634 215.031 100.6 214.662 100.634C214.729 100.623 214.796 100.623 214.863 100.611C215.042 100.589 215.21 100.567 215.389 100.555C216.15 100.499 216.911 100.465 217.683 100.432C218.389 100.409 219.116 100.398 219.832 100.432C220.135 100.443 220.437 100.454 220.739 100.465C220.907 100.465 220.84 100.499 220.717 100.465C220.784 100.488 220.84 100.499 220.907 100.51C221.03 100.544 221.153 100.589 221.276 100.634C221.769 100.825 222.362 100.465 222.541 100.005C222.742 99.5107 222.574 98.9491 222.104 98.6683Z" fill="#381E00"/>
<path d="M227.6 130.97C228.663 128.825 230.599 127.253 232.827 126.242C230.89 126.04 221.724 125.197 219.418 126.511C216.833 127.983 219.9 133.913 225.25 134.205C225.809 134.239 226.324 134.194 226.816 134.115C226.861 133.037 227.107 131.959 227.6 130.97Z" fill="#381E00"/>
<path d="M185.282 118.492C185.282 118.492 186.211 122.098 191.539 126.276C196.866 130.454 204.589 133.521 204.589 133.521L205.204 130.814C205.204 130.814 197.213 127.332 193.509 123.491C189.804 119.66 189.345 117.56 189.345 117.56L185.282 118.492Z" fill="#DEE1EB"/>
<path d="M206.122 128.803C210.408 128.601 212.804 132.004 213.095 134.206C213.397 136.407 211.337 138.878 206.513 136.71C200.537 134.015 201.835 129.005 206.122 128.803Z" fill="#223A7A"/>
<path d="M188.64 91.8844C188.64 91.8844 190.486 78.5297 199.406 69.4543C216.43 52.1459 230.901 53.1905 230.901 53.1905C230.901 53.1905 230.789 50.7532 225.339 48.8887C220.224 47.1477 217.93 48.08 217.93 48.08C217.93 48.08 203.917 49.2369 192.109 62.367C180.301 75.4971 179.025 92.2326 179.025 92.2326L188.64 91.8844Z" fill="#DEE1EB"/>
<path d="M187.364 90.2662C176.216 88.368 169.993 97.1177 169.534 105.957C169.076 114.785 175.466 121.502 184.006 120.828C203.234 119.312 201.029 92.58 187.364 90.2662Z" fill="white"/>
<path d="M181.812 112.236C178.869 112.236 176.384 110.754 174.963 108.137C173.44 105.34 173.563 101.892 175.287 99.3533C175.421 99.1623 175.679 99.1174 175.869 99.241C176.059 99.3757 176.115 99.6341 175.981 99.825C174.436 102.105 174.325 105.205 175.701 107.732C176.999 110.125 179.305 111.484 182.036 111.394C184.588 111.326 186.748 110.158 188.113 108.103C189.68 105.755 190.038 102.521 189.031 99.8475C188.024 97.1968 185.282 95.3997 182.786 95.7254C182.562 95.7591 182.349 95.5906 182.316 95.366C182.282 95.1301 182.45 94.9279 182.674 94.8942C185.595 94.5011 188.662 96.5116 189.815 99.5555C190.923 102.476 190.52 106.014 188.807 108.575C187.274 110.866 184.879 112.169 182.058 112.236C181.969 112.236 181.891 112.236 181.812 112.236Z" fill="#818FB3"/>
<path d="M173.709 148.707C173.709 148.707 139.897 157.074 128.09 170.553C116.282 184.031 110.719 250.49 110.495 262.811C110.26 275.133 118.834 280.243 123.926 283.725C129.019 287.207 151.481 293.486 169.546 294.418C187.61 295.35 204.745 294.418 204.745 294.418C204.745 294.418 204.689 290.464 207.465 284.658C210.039 279.266 213.307 278.154 213.307 278.154L197.795 272.572C197.795 272.572 195.075 223.724 190.845 200.07C185.976 172.878 173.709 148.707 173.709 148.707Z" fill="#FF8C00"/>
<path d="M229.749 264.765C229.67 264.765 229.592 264.754 229.525 264.72C229.245 264.597 229.111 264.26 229.245 263.979C232.412 256.802 235.692 242.728 237.538 232.844L237.695 232.047C238.255 229.138 238.949 225.532 237.561 223.027C236.856 221.758 235.255 218.995 233.711 216.344C232.11 213.593 230.61 210.987 230.185 210.212C229.368 208.695 231.942 204.641 235.658 199.081C236.665 197.576 237.527 196.284 238.031 195.408C239.352 193.106 238.479 191.005 237.449 188.557L237.102 187.714C236.173 185.434 235.121 183.154 234.102 180.941C233.688 180.043 233.274 179.133 232.86 178.223C232.312 177.021 231.774 175.797 231.215 174.562C227.947 167.239 224.555 159.668 220.224 152.356C220.067 152.087 220.157 151.75 220.414 151.581C220.683 151.424 221.019 151.514 221.187 151.772C225.552 159.14 228.954 166.744 232.233 174.09C232.782 175.325 233.33 176.55 233.867 177.74C234.281 178.65 234.696 179.549 235.11 180.447C236.128 182.671 237.191 184.962 238.12 187.265L238.467 188.096C239.508 190.578 240.583 193.162 238.982 195.936C238.456 196.846 237.583 198.16 236.565 199.676C234.628 202.574 230.599 208.606 231.148 209.65C231.562 210.414 233.062 213.009 234.651 215.749C236.195 218.411 237.796 221.174 238.512 222.455C240.101 225.307 239.363 229.149 238.77 232.226L238.613 233.024C237.941 236.618 234.371 255.038 230.241 264.406C230.163 264.642 229.961 264.765 229.749 264.765Z" fill="#494949"/>
<path d="M196.743 266.742C196.597 266.742 196.452 266.686 196.351 266.574C193.721 263.912 181.029 241.863 180.089 237.719C179.574 235.45 180.872 229.688 182.126 224.117C183.099 219.804 184.107 215.345 183.816 214.132C183.39 212.323 180.145 209.661 177 207.089C173.205 203.978 169.288 200.766 168.527 197.868C167.665 194.577 168.404 173.978 168.885 160.353C169.064 155.456 169.199 151.581 169.199 150.2C169.199 149.885 169.445 149.638 169.758 149.638C170.072 149.638 170.318 149.885 170.318 150.2C170.318 151.604 170.183 155.479 170.004 160.387C169.545 173.124 168.784 194.442 169.601 197.576C170.273 200.114 174.213 203.349 177.693 206.202C181.129 209.021 184.364 211.672 184.879 213.851C185.226 215.311 184.286 219.501 183.189 224.342C182.014 229.531 180.693 235.416 181.152 237.438C182.081 241.504 194.538 263.137 197.123 265.754C197.336 265.978 197.336 266.326 197.123 266.551C197.034 266.686 196.888 266.742 196.743 266.742Z" fill="#494949"/>
<path d="M151.247 257.094C151.224 257.094 151.191 257.094 151.168 257.094C150.866 257.049 150.654 256.768 150.687 256.454C151.101 253.533 157.526 195.352 157.817 190.893C157.839 190.578 158.108 190.343 158.41 190.365C158.723 190.387 158.947 190.657 158.936 190.96C158.645 195.419 152.209 253.679 151.795 256.6C151.762 256.892 151.515 257.094 151.247 257.094Z" fill="#494949"/>
<path d="M197.325 272.897C197.258 272.897 197.179 272.886 197.112 272.853C195.691 272.268 189.401 270.146 181.443 267.45C165.371 262.014 143.367 254.567 139.181 252.377C138.901 252.231 138.801 251.894 138.946 251.624C139.092 251.343 139.427 251.242 139.696 251.388C143.804 253.534 166.669 261.272 181.801 266.394C189.781 269.101 196.083 271.224 197.538 271.819C197.829 271.932 197.963 272.268 197.851 272.549C197.75 272.763 197.549 272.897 197.325 272.897Z" fill="#494949"/>
<path d="M189.602 296.058C175.455 296.058 148.046 293.497 127.217 286.106C126.926 286.005 126.769 285.679 126.881 285.387C126.982 285.095 127.306 284.938 127.597 285.05C153.91 294.395 190.722 295.99 197.571 294.44C197.873 294.373 198.176 294.564 198.243 294.867C198.31 295.17 198.12 295.474 197.817 295.541C196.318 295.878 193.441 296.058 189.602 296.058Z" fill="#494949"/>
<path d="M438.73 214.233L394.464 302.235L265.407 303.167L305.229 212.998L438.73 214.233Z" fill="#F6F7FA"/>
<path d="M179.753 302.617L179.775 295.574H263.325L301.76 210.987H435.372L438.73 214.244H308.206L268.261 302.549C268.261 302.549 179.753 302.381 179.753 302.617Z" fill="#D9DEE8"/>
<path d="M371.711 262.8C370.256 267.191 362.343 270.583 354.039 270.37C345.734 270.157 340.183 266.439 341.649 262.047C343.104 257.655 351.017 254.263 359.321 254.477C367.626 254.679 373.166 258.408 371.711 262.8Z" fill="#FF8C00"/>
<path d="M268.261 303.11C268.183 303.11 268.105 303.099 268.026 303.065C267.746 302.942 267.623 302.605 267.746 302.324L307.837 213.693H438.719C439.032 213.693 439.279 213.94 439.279 214.254C439.279 214.569 439.032 214.816 438.719 214.816H308.553L268.754 302.796C268.675 302.987 268.474 303.11 268.261 303.11Z" fill="white"/>
<path d="M173.934 309.289H20.4097V343.445H173.934V309.289Z" fill="#B89249"/>
<path d="M449.285 309.289H173.061V343.445H449.285V309.289Z" fill="#FFEDBF"/>
<path d="M173.934 309.289H173.061H20.4097V315.556H173.061H173.934H449.285V309.289H173.934Z" fill="#ACACAC"/>
<path d="M180.649 302.549H13V310.917H180.649V302.549Z" fill="#B89249"/>
<path d="M456 302.549H179.775V310.917H456V302.549Z" fill="#FFEDBF"/>
<path d="M411.097 0.444824H285.979C277.943 0.444824 271.429 6.9818 271.429 15.0463V74.6091C271.429 82.6736 277.943 89.2106 285.979 89.2106H297.193C297.507 94.6131 296.734 102.644 292.246 112.91C306.707 106.216 315.022 96.1744 319.376 89.2106H411.108C419.144 89.2106 425.658 82.6736 425.658 74.6091V15.0463C425.647 6.9818 419.133 0.444824 411.097 0.444824Z" fill="#FF8C00"/>
<path d="M357.721 28.8391H295.66C293.959 28.8391 292.571 27.4463 292.571 25.739C292.571 24.0318 293.959 22.639 295.66 22.639H357.721C359.422 22.639 360.81 24.0318 360.81 25.739C360.81 27.4463 359.422 28.8391 357.721 28.8391Z" fill="white"/>
<path d="M402.221 46.8887H294.462C293.421 46.8887 292.571 46.035 292.571 44.9905C292.571 43.9459 293.421 43.0923 294.462 43.0923H402.221C403.262 43.0923 404.113 43.9459 404.113 44.9905C404.113 46.035 403.262 46.8887 402.221 46.8887Z" fill="white"/>
<path d="M402.221 57.4131H294.462C293.421 57.4131 292.571 56.5595 292.571 55.5149C292.571 54.4703 293.421 53.6167 294.462 53.6167H402.221C403.262 53.6167 404.113 54.4703 404.113 55.5149C404.113 56.5707 403.262 57.4131 402.221 57.4131Z" fill="white"/>
<path d="M378.718 68.6447H294.474C293.433 68.6447 292.582 67.791 292.582 66.7465C292.582 65.7019 293.433 64.8483 294.474 64.8483H378.718C379.758 64.8483 380.609 65.7019 380.609 66.7465C380.609 67.8023 379.758 68.6447 378.718 68.6447Z" fill="white"/>
<path d="M401.371 28.8391H371.767C370.066 28.8391 368.678 27.4463 368.678 25.739C368.678 24.0318 370.066 22.639 371.767 22.639H401.371C403.072 22.639 404.46 24.0318 404.46 25.739C404.46 27.4463 403.083 28.8391 401.371 28.8391Z" fill="white"/>
</g>
<defs>
<clipPath id="clip0_793_31811">
<rect width="456" height="373" fill="white" transform="translate(0 0.444824)"/>
</clipPath>
</defs>
</svg>
