<svg width="9" height="6" viewBox="0 0 9 6" fill="none" xmlns="http://www.w3.org/2000/svg">
<path d="M8.80482 1.59643L4.9759 5.50901C4.93032 5.55545 4.88094 5.58827 4.82776 5.60746C4.77458 5.62697 4.7176 5.63672 4.65682 5.63672C4.59605 5.63672 4.53907 5.62697 4.48589 5.60746C4.43271 5.58827 4.38333 5.55545 4.33775 5.50901L0.497429 1.59643C0.39107 1.48807 0.33789 1.35262 0.33789 1.19008C0.33789 1.02753 0.394868 0.888215 0.508824 0.772114C0.62278 0.656014 0.755729 0.597964 0.907671 0.597964C1.05961 0.597964 1.19256 0.656014 1.30652 0.772114L4.65682 4.18546L8.00713 0.772114C8.11349 0.663754 8.24446 0.609573 8.40005 0.609573C8.55594 0.609573 8.69087 0.667624 8.80482 0.783724C8.91878 0.899824 8.97576 1.03527 8.97576 1.19008C8.97576 1.34488 8.91878 1.48033 8.80482 1.59643Z" fill="#444444"/>
</svg>
