<svg width="16" height="21" viewBox="0 0 16 21" fill="none" xmlns="http://www.w3.org/2000/svg">
<path d="M6.12891 9.47852C6.37513 9.47852 6.61895 9.43002 6.84644 9.33579C7.07392 9.24156 7.28062 9.10345 7.45473 8.92934C7.62884 8.75523 7.76695 8.54853 7.86118 8.32105C7.95541 8.09356 8.00391 7.84974 8.00391 7.60352C8.00391 7.35729 7.95541 7.11347 7.86118 6.88598C7.76695 6.6585 7.62884 6.4518 7.45473 6.27769C7.28062 6.10358 7.07392 5.96547 6.84644 5.87124C6.61895 5.77701 6.37513 5.72852 6.12891 5.72852C5.63163 5.72852 5.15471 5.92606 4.80308 6.27769C4.45145 6.62932 4.25391 7.10623 4.25391 7.60352C4.25391 8.1008 4.45145 8.57771 4.80308 8.92934C5.15471 9.28097 5.63163 9.47852 6.12891 9.47852Z" fill="#0F91D2"/>
<path d="M15.5 18.2285C15.5 18.8916 15.2366 19.5274 14.7678 19.9963C14.2989 20.4651 13.663 20.7285 13 20.7285H3C2.33696 20.7285 1.70107 20.4651 1.23223 19.9963C0.763392 19.5274 0.5 18.8916 0.5 18.2285V3.22852C0.5 2.56547 0.763392 1.92959 1.23223 1.46075C1.70107 0.991908 2.33696 0.728516 3 0.728516L9.875 0.728516L15.5 6.35352V18.2285ZM3 1.97852C2.66848 1.97852 2.35054 2.11021 2.11612 2.34463C1.8817 2.57905 1.75 2.897 1.75 3.22852V15.7285L4.53 12.9485C4.62852 12.8502 4.75702 12.7876 4.89515 12.7707C5.03327 12.7537 5.17311 12.7833 5.2925 12.8548L8 14.4785L10.6962 10.7035C10.749 10.6297 10.8172 10.5683 10.8961 10.5235C10.9749 10.4788 11.0626 10.4517 11.153 10.4442C11.2434 10.4367 11.3344 10.449 11.4195 10.4801C11.5047 10.5113 11.5821 10.5607 11.6462 10.6248L14.25 13.2285V6.35352H11.75C11.2527 6.35352 10.7758 6.15597 10.4242 5.80434C10.0725 5.45271 9.875 4.9758 9.875 4.47852V1.97852H3Z" fill="#0F91D2"/>
</svg>
