<svg width="20" height="20" viewBox="0 0 20 20" fill="none" xmlns="http://www.w3.org/2000/svg">
<path d="M18.4641 7.71119L16.8111 6.88469C16.5053 6.73592 16.1251 6.85163 15.9763 7.15743C15.8193 7.4715 15.9432 7.84343 16.249 7.9922L17.5632 8.64513V12.6041L14.4638 12.6123V4.13245C14.4638 2.47945 13.3563 1.65295 11.9843 1.65295H5.37232C4.00033 1.65295 2.89282 2.47945 2.89282 4.13245V17.563H1.65308C1.31421 17.563 1.0332 17.8441 1.0332 18.1829C1.0332 18.5218 1.31421 18.8028 1.65308 18.8028H15.7036C16.0424 18.8028 16.3234 18.5218 16.3234 18.1829C16.3234 17.8441 16.0424 17.563 15.7036 17.563H14.4638V13.8521L18.183 13.8438C18.5302 13.8438 18.8029 13.5628 18.8029 13.2239V8.26494C18.8029 8.03352 18.6707 7.81863 18.4641 7.71119ZM4.95907 5.69453C4.95907 4.5457 5.66159 4.13245 6.52115 4.13245H10.8437C11.695 4.13245 12.3976 4.5457 12.3976 5.69453V6.71112C12.3976 7.85169 11.695 8.26494 10.8355 8.26494H6.52115C5.66159 8.26494 4.95907 7.85169 4.95907 6.70286V5.69453ZM5.37232 10.1246H7.85182C8.19068 10.1246 8.47169 10.4056 8.47169 10.7444C8.47169 11.0833 8.19068 11.3643 7.85182 11.3643H5.37232C5.03346 11.3643 4.75245 11.0833 4.75245 10.7444C4.75245 10.4056 5.03346 10.1246 5.37232 10.1246Z" fill="#ACACAC"/>
</svg>
