<svg width="222" height="232" viewBox="0 0 222 232" fill="none" xmlns="http://www.w3.org/2000/svg">
<g filter="url(#filter0_d_322_10020)">
<circle cx="92" cy="92" r="60" fill="#FF8C00" fill-opacity="0.15" shape-rendering="crispEdges"/>
</g>
<g clip-path="url(#clip0_322_10020)">
<path d="M78.8985 87.7675H91.5341V91.5582H78.8985V87.7675Z" fill="#FF8C00"/>
<path d="M110.74 89.3046C111.016 84.0983 107.455 79.3799 102.354 78.2663L99.7638 66.1538H70.6687L68.0788 78.2663C63.21 79.3465 59.6795 83.6822 59.6924 88.6817V100.859H63.4831V108.988H74.8551V100.859H95.6258C93.6951 109.714 100.772 118.446 109.856 118.339C128.597 117.653 129.341 91.0953 110.74 89.3046ZM96.698 69.9445L98.4001 77.9049H72.0324L73.7346 69.9445H96.698ZM71.0644 105.198H67.2738V100.859H71.0644V105.198ZM63.4831 97.068V91.8041H74.3497V88.0134H63.517C63.793 85.1912 65.7973 82.793 68.5819 82.0546L69.9361 81.6956H100.497L101.851 82.0546C104.635 82.7929 106.64 85.1912 106.916 88.0134H96.0829V91.8041H101.676C99.7071 93.1503 98.0969 94.9574 96.9857 97.068H63.4831ZM109.856 114.548C103.933 114.548 99.1154 109.73 99.1154 103.808C99.7053 89.5595 120.008 89.5636 120.596 103.808C120.596 109.73 115.778 114.548 109.856 114.548Z" fill="#FF8C00"/>
<path d="M108.213 104.072L106.458 102.316L103.777 104.997L108.213 109.433L115.934 101.711L113.254 99.031L108.213 104.072Z" fill="#FF8C00"/>
</g>
<path opacity="0.4" d="M30.11 59.529L30.354 61.5141L30.3669 61.5124L30.11 59.529ZM24.096 58.6232L23.2663 60.443L23.2781 60.4483L24.096 58.6232ZM10.0834 39.641L8.09827 39.885L8.09994 39.8979L10.0834 39.641ZM11.0031 33.6459L12.8229 34.4756L12.8283 34.4638L11.0031 33.6459ZM21.1938 26.1232L21.4304 28.1091L21.4406 28.1079L21.4507 28.1066L21.1938 26.1232ZM27.1938 27.0101L26.3759 28.8352L26.3759 28.8352L27.1938 27.0101ZM41.2064 45.9922L39.2214 46.2362L39.2214 46.2362L41.2064 45.9922ZM40.3006 52.0062L42.1234 52.8293L42.1258 52.8241L40.3006 52.0062ZM35.0325 50.0533L36.8677 50.8483L36.8724 50.8373L36.8771 50.8263L35.0325 50.0533ZM35.5176 46.8327L37.507 46.6275L37.5063 46.6205L37.5055 46.6134L35.5176 46.8327ZM24.7011 32.1801L23.906 34.0153L23.9125 34.0181L23.919 34.0209L24.7011 32.1801ZM21.4804 31.695L21.6759 33.6854L21.6878 33.6843L21.6997 33.683L21.4804 31.695ZM16.2622 35.5471L18.0974 36.3422L18.1022 36.3312L18.1068 36.3201L16.2622 35.5471ZM15.7772 38.7677L17.7666 38.5626L17.7659 38.5555L17.7651 38.5485L15.7772 38.7677ZM26.5937 53.4203L25.7986 55.2555L25.8051 55.2583L25.8117 55.261L26.5937 53.4203ZM29.8143 53.9054L30.0097 55.8958L30.0216 55.8946L30.0335 55.8933L29.8143 53.9054ZM34.9341 55.3805C33.2395 56.6315 31.5498 57.3258 29.8531 57.5455L30.3669 61.5124C32.8292 61.1935 35.1475 60.1948 37.3098 58.5986L34.9341 55.3805ZM29.866 57.5439C28.1391 57.7562 26.5016 57.5095 24.9139 56.798L23.2781 60.4483C25.5314 61.458 27.9033 61.8152 30.354 61.514L29.866 57.5439ZM24.9257 56.8034C23.369 56.0936 21.9588 54.9324 20.7078 53.2378L17.4897 55.6134C19.0859 57.7757 21.0072 59.4129 23.2663 60.4429L24.9257 56.8034ZM20.7078 53.2378L14.2318 44.4651L11.0137 46.8408L17.4897 55.6134L20.7078 53.2378ZM14.2318 44.4651C12.9809 42.7705 12.2866 41.0808 12.0668 39.3841L8.09994 39.8979C8.41886 42.3602 9.41751 44.6785 11.0137 46.8408L14.2318 44.4651ZM12.0684 39.397C11.8565 37.6731 12.1067 36.0464 12.8229 34.4756L9.18336 32.8162C8.15974 35.0612 7.79671 37.4313 8.09831 39.885L12.0684 39.397ZM12.8283 34.4638C13.5295 32.899 14.684 31.4868 16.3746 30.2388L13.9989 27.0207C11.8325 28.6199 10.198 30.5518 9.178 32.828L12.8283 34.4638ZM16.3746 30.2388C18.0654 28.9906 19.7463 28.3098 21.4304 28.1091L20.9571 24.1372C18.4888 24.4314 16.165 25.4217 13.9989 27.0207L16.3746 30.2388ZM21.4507 28.1066C23.1628 27.8848 24.7909 28.1249 26.3759 28.8352L28.0117 25.1849C25.7556 24.174 23.3838 23.8228 20.9368 24.1397L21.4507 28.1066ZM26.3759 28.8352C27.9407 29.5364 29.3529 30.691 30.6009 32.3815L33.819 30.0059C32.2198 27.8395 30.2879 26.205 28.0117 25.1849L26.3759 28.8352ZM30.6009 32.3815L37.0769 41.1541L40.295 38.7785L33.819 30.0059L30.6009 32.3815ZM37.0769 41.1541C38.3248 42.8447 39.0122 44.5343 39.2214 46.2362L43.1915 45.7483C42.8872 43.2725 41.8942 40.9449 40.295 38.7785L37.0769 41.1541ZM39.2214 46.2362C39.4336 47.9631 39.187 49.6006 38.4755 51.1884L42.1258 52.8241C43.1355 50.5708 43.4927 48.199 43.1915 45.7483L39.2214 46.2362ZM38.4778 51.1832C37.7814 52.7254 36.6291 54.1292 34.9341 55.3805L37.3098 58.5986C39.4717 57.0027 41.1052 55.0843 42.1234 52.8293L38.4778 51.1832ZM34.1137 54.269C35.3377 53.3654 36.2725 52.2223 36.8677 50.8483L33.1973 49.2582C32.8995 49.9456 32.4299 50.5402 31.738 51.0509L34.1137 54.269ZM36.8771 50.8263C37.4411 49.4805 37.6559 48.0711 37.507 46.6275L33.5281 47.0378C33.6069 47.8019 33.4983 48.5396 33.1879 49.2802L36.8771 50.8263ZM37.5055 46.6134C37.3414 45.1251 36.7848 43.7573 35.8812 42.5333L32.6631 44.9089C33.1738 45.6008 33.4475 46.3073 33.5296 47.0519L37.5055 46.6134ZM35.8812 42.5333L28.9168 33.0989L25.6987 35.4746L32.6631 44.9089L35.8812 42.5333ZM28.9168 33.0989C28.0071 31.8666 26.8619 30.9251 25.4831 30.3393L23.919 34.0209C24.5829 34.3029 25.1755 34.7658 25.6987 35.4746L28.9168 33.0989ZM25.4961 30.3449C24.1464 29.7602 22.7233 29.5458 21.2612 29.7071L21.6997 33.683C22.4705 33.598 23.1944 33.707 23.906 34.0153L25.4961 30.3449ZM21.285 29.7046C19.7809 29.8523 18.3995 30.4027 17.1671 31.3124L19.5428 34.5306C20.2263 34.026 20.9285 33.7588 21.6759 33.6854L21.285 29.7046ZM17.1671 31.3124C15.9348 32.2222 15.0018 33.3802 14.4177 34.7741L18.1068 36.3201C18.3971 35.6275 18.8592 35.0352 19.5428 34.5306L17.1671 31.3124ZM14.4271 34.752C13.8423 36.1017 13.628 37.5249 13.7892 38.9869L17.7651 38.5485C17.6801 37.7777 17.7891 37.0537 18.0974 36.3422L14.4271 34.752ZM13.7877 38.9728C13.9414 40.463 14.5038 41.8347 15.4135 43.0671L18.6316 40.6914C18.1084 39.9827 17.8406 39.28 17.7666 38.5626L13.7877 38.9728ZM15.4135 43.0671L22.378 52.5014L25.5961 50.1258L18.6316 40.6914L15.4135 43.0671ZM22.378 52.5014C23.2815 53.7255 24.4247 54.6602 25.7986 55.2555L27.3888 51.5851C26.7014 51.2873 26.1068 50.8176 25.5961 50.1258L22.378 52.5014ZM25.8117 55.261C27.1473 55.8285 28.5575 56.0384 30.0097 55.8958L29.6189 51.9149C28.8196 51.9934 28.0827 51.8799 27.3757 51.5795L25.8117 55.261ZM30.0335 55.8933C31.5218 55.7292 32.8896 55.1726 34.1137 54.269L31.738 51.0509C31.0462 51.5616 30.3396 51.8353 29.5951 51.9174L30.0335 55.8933ZM54.5216 42.0925L54.9648 44.0428L54.5216 42.0925ZM49.7033 42.1734L49.3117 44.1348L49.3256 44.1374L49.7033 42.1734ZM45.2536 40.1421L43.687 38.8988L42.4148 40.5019L44.0467 41.7369L45.2536 40.1421ZM48.7796 35.699L49.9931 34.1093L48.433 32.9184L47.2129 34.4558L48.7796 35.699ZM52.3563 36.9435L52.3905 38.9432L52.4077 38.9429L52.4248 38.9424L52.3563 36.9435ZM55.7636 35.7427L54.5758 34.1336L54.5658 34.141L54.5558 34.1486L55.7636 35.7427ZM57.7042 33.3462L55.8639 32.563L57.7042 33.3462ZM58.1258 30.4354L60.1122 30.2024L60.1113 30.1948L60.1104 30.1873L58.1258 30.4354ZM53.1555 25.1664L52.8156 27.1373L52.8156 27.1373L53.1555 25.1664ZM47.6819 27.3668L46.1028 26.1394L46.0977 26.146L46.0926 26.1527L47.6819 27.3668ZM46.8964 28.6768L46.099 30.511L47.8958 31.2921L48.7138 29.5119L46.8964 28.6768ZM42.1649 26.6198L40.2164 26.1692L39.8414 27.7905L41.3675 28.454L42.1649 26.6198ZM45.5376 12.0374L46.6461 10.3728L44.2403 8.77063L43.589 11.5868L45.5376 12.0374ZM46.7441 12.8409L47.9319 14.45L50.2258 12.7566L47.8527 11.1763L46.7441 12.8409ZM33.7931 22.4013L32.1841 23.5891L33.3719 25.1982L34.9809 24.0104L33.7931 22.4013ZM30.6249 18.1095L29.4371 16.5005L27.828 17.6883L29.0159 19.2974L30.6249 18.1095ZM47.3194 5.78568L48.9285 4.59787L47.7407 2.9888L46.1316 4.17661L47.3194 5.78568ZM50.5016 10.0964L52.473 10.4331L52.6164 9.59366L52.1106 8.90856L50.5016 10.0964ZM48.3668 22.5966L46.7918 23.8293L49.5774 27.3885L50.3382 22.9333L48.3668 22.5966ZM47.338 21.2822L46.2633 19.5955L44.4049 20.7796L45.763 22.5148L47.338 21.2822ZM52.573 19.55L52.6292 21.5492L52.6393 21.5489L52.573 19.55ZM57.5606 20.6877L56.6314 22.4587L56.6385 22.4624L56.6456 22.4661L57.5606 20.6877ZM63.7291 29.7165L61.7356 29.8776L61.7368 29.891L63.7291 29.7165ZM62.7504 35.4338L64.5721 36.2594L64.5745 36.2539L62.7504 35.4338ZM57.7769 38.4303C56.6306 39.2765 55.4017 39.8415 54.0783 40.1423L54.9648 44.0428C56.843 43.6159 58.5762 42.8121 60.1525 41.6485L57.7769 38.4303ZM54.0783 40.1423C52.7471 40.4448 51.4206 40.4671 50.0811 40.2094L49.3256 44.1374C51.2087 44.4996 53.0944 44.4679 54.9648 44.0428L54.0783 40.1423ZM50.0949 40.2122C48.8075 39.9551 47.6004 39.4099 46.4605 38.5473L44.0467 41.7369C45.6422 42.9443 47.4016 43.7533 49.3117 44.1347L50.0949 40.2122ZM46.8202 41.3853L50.3462 36.9423L47.2129 34.4558L43.687 38.8988L46.8202 41.3853ZM47.566 37.2888C48.9992 38.3828 50.6232 38.9735 52.3905 38.9432L52.3221 34.9438C51.551 34.957 50.7905 34.718 49.9931 34.1093L47.566 37.2888ZM52.4248 38.9424C54.1028 38.8849 55.638 38.3472 56.9715 37.3368L54.5558 34.1486C53.8912 34.6521 53.1549 34.915 52.2878 34.9447L52.4248 38.9424ZM56.9514 37.3517C58.1063 36.4992 58.9931 35.425 59.5444 34.1295L55.8639 32.563C55.6177 33.1415 55.2108 33.6649 54.5758 34.1336L56.9514 37.3517ZM59.5444 34.1295C60.0784 32.8748 60.2708 31.5545 60.1122 30.2024L56.1394 30.6684C56.2163 31.3234 56.1275 31.9437 55.8639 32.563L59.5444 34.1295ZM60.1104 30.1873C59.9378 28.8068 59.4074 27.5378 58.5674 26.3998L55.3492 28.7754C55.8118 29.402 56.0598 30.0315 56.1412 30.6834L60.1104 30.1873ZM58.5674 26.3998C57.2901 24.6695 55.5825 23.5554 53.4954 23.1955L52.8156 27.1373C53.8077 27.3084 54.6354 27.8084 55.3492 28.7754L58.5674 26.3998ZM53.4954 23.1955C51.3655 22.8282 49.3647 23.3757 47.5974 24.6803L49.973 27.8985C50.9535 27.1747 51.8662 26.9736 52.8156 27.1373L53.4954 23.1955ZM47.5974 24.6803C47.0331 25.0969 46.5339 25.5847 46.1028 26.1394L49.261 28.5941C49.4691 28.3264 49.7055 28.096 49.973 27.8985L47.5974 24.6803ZM46.0926 26.1527C45.6935 26.6751 45.3559 27.2394 45.0791 27.8418L48.7138 29.5119C48.8703 29.1713 49.0563 28.8622 49.2712 28.5808L46.0926 26.1527ZM47.6938 26.8427L42.9623 24.7857L41.3675 28.454L46.099 30.511L47.6938 26.8427ZM44.1135 27.0705L47.4861 12.4881L43.589 11.5868L40.2164 26.1692L44.1135 27.0705ZM44.429 13.7021L45.6355 14.5056L47.8527 11.1763L46.6461 10.3728L44.429 13.7021ZM45.5563 11.2318L32.6053 20.7923L34.9809 24.0104L47.9319 14.45L45.5563 11.2318ZM35.4022 21.2135L32.234 16.9217L29.0159 19.2974L32.1841 23.5891L35.4022 21.2135ZM31.8127 19.7186L48.5072 7.39475L46.1316 4.17661L29.4371 16.5005L31.8127 19.7186ZM45.7103 6.97349L48.8925 11.2842L52.1106 8.90856L48.9285 4.59787L45.7103 6.97349ZM48.5301 9.75969L46.3953 22.2599L50.3382 22.9333L52.473 10.4331L48.5301 9.75969ZM49.9417 21.364L48.913 20.0495L45.763 22.5148L46.7918 23.8293L49.9417 21.364ZM48.4127 22.9689C49.8956 22.024 51.2937 21.5867 52.6292 21.5492L52.5168 17.5508C50.3422 17.6119 48.2502 18.3294 46.2633 19.5955L48.4127 22.9689ZM52.6393 21.5489C54.0631 21.5016 55.3824 21.8034 56.6314 22.4587L58.4898 18.9167C56.6241 17.9378 54.6183 17.481 52.5067 17.5511L52.6393 21.5489ZM56.6456 22.4661C57.9242 23.124 59.0355 24.0747 59.9813 25.356L63.1995 22.9804C61.9122 21.2366 60.3369 19.867 58.4757 18.9093L56.6456 22.4661ZM59.9813 25.356C61.0416 26.7923 61.6074 28.2905 61.7356 29.8776L65.7226 29.5554C65.5301 27.1731 64.67 24.9724 63.1995 22.9804L59.9813 25.356ZM61.7368 29.891C61.8795 31.5205 61.6139 33.0843 60.9262 34.6137L64.5745 36.2539C65.5379 34.111 65.9248 31.8632 65.7215 29.542L61.7368 29.891ZM60.9287 34.6083C60.2562 36.0923 59.2213 37.3641 57.7769 38.4303L60.1525 41.6485C62.1112 40.2025 63.6002 38.4039 64.572 36.2594L60.9287 34.6083Z" fill="#FF8C00"/>
<defs>
<filter id="filter0_d_322_10020" x="2" y="12" width="220" height="220" filterUnits="userSpaceOnUse" color-interpolation-filters="sRGB">
<feFlood flood-opacity="0" result="BackgroundImageFix"/>
<feColorMatrix in="SourceAlpha" type="matrix" values="0 0 0 0 0 0 0 0 0 0 0 0 0 0 0 0 0 0 127 0" result="hardAlpha"/>
<feOffset dx="20" dy="30"/>
<feGaussianBlur stdDeviation="25"/>
<feComposite in2="hardAlpha" operator="out"/>
<feColorMatrix type="matrix" values="0 0 0 0 0 0 0 0 0 0 0 0 0 0 0 0 0 0 0.1 0"/>
<feBlend mode="normal" in2="BackgroundImageFix" result="effect1_dropShadow_322_10020"/>
<feBlend mode="normal" in="SourceGraphic" in2="effect1_dropShadow_322_10020" result="shape"/>
</filter>
<clipPath id="clip0_322_10020">
<rect width="64.6154" height="64.6154" fill="white" transform="translate(59.6924 59.6923)"/>
</clipPath>
</defs>
</svg>
