<svg width="220" height="230" viewBox="0 0 220 230" fill="none" xmlns="http://www.w3.org/2000/svg">
<g filter="url(#filter0_d_322_10110)">
<circle cx="90" cy="90" r="60" fill="#FF8C00" fill-opacity="0.15"/>
<g clip-path="url(#clip0_322_10110)">
<path d="M117.004 83.4634L118.836 80.4087H120.415C121.46 80.4087 122.308 79.5611 122.308 78.5156C122.308 77.4702 121.46 76.6226 120.415 76.6226H117.765C117.438 76.6226 117.116 76.7073 116.832 76.8683C116.547 77.0294 116.309 77.2614 116.141 77.5417L114.6 80.1104L112.058 71.214C111.057 67.711 107.814 65.2644 104.171 65.2644H75.8295C72.1864 65.2644 68.9429 67.711 67.942 71.2141L65.4002 80.1106L63.8589 77.5418C63.6907 77.2615 63.4528 77.0295 63.1684 76.8684C62.8839 76.7073 62.5626 76.6226 62.2357 76.6226H59.5854C58.54 76.6226 57.6924 77.4702 57.6924 78.5156C57.6924 79.5611 58.54 80.4087 59.5854 80.4087H61.1638L62.9966 83.4634C59.9002 84.6372 57.6924 87.6328 57.6924 91.1358V105.27C57.6924 106.316 58.54 107.163 59.5854 107.163H62.8667V110.319C62.8667 112.754 64.8482 114.736 67.2837 114.736H72.3318C74.7674 114.736 76.7489 112.754 76.7489 110.319V107.163H103.251V110.319C103.251 112.754 105.233 114.736 107.668 114.736H112.716C115.152 114.736 117.133 112.754 117.133 110.319V107.163H120.415C121.46 107.163 122.308 106.316 122.308 105.27V91.1358C122.308 87.6328 120.1 84.6372 117.004 83.4634ZM71.5824 72.2541C72.1213 70.3679 73.8678 69.0505 75.8295 69.0505H104.171C106.132 69.0505 107.879 70.3679 108.418 72.2541L111.469 82.9327H108.109C107.23 78.6176 103.405 75.3606 98.8342 75.3606C94.2633 75.3606 90.439 78.6176 89.5595 82.9327H68.5314L71.5824 72.2541ZM93.4795 82.9327C94.2608 80.7291 96.3662 79.1466 98.8342 79.1466C101.302 79.1466 103.408 80.7291 104.189 82.9327H93.4795ZM72.9628 110.319C72.9628 110.666 72.6797 110.95 72.3318 110.95H67.2837C66.9358 110.95 66.6527 110.666 66.6527 110.319V107.163H72.9628V110.319ZM84.321 103.377V98.0769H95.6792V103.377H84.321ZM113.347 110.319C113.347 110.666 113.064 110.95 112.716 110.95H107.668C107.32 110.95 107.037 110.666 107.037 110.319V107.163H113.347V110.319ZM118.522 103.377H99.4652V96.1839C99.4652 95.1384 98.6176 94.2909 97.5722 94.2909H82.428C81.3825 94.2909 80.5349 95.1384 80.5349 96.1839V103.377H61.4784V91.1358C61.4784 88.7002 63.4599 86.7187 65.8955 86.7187H66.0138L66.0235 86.719L66.0328 86.7187H113.967L113.977 86.719L113.986 86.7187H114.105C116.54 86.7187 118.522 88.7002 118.522 91.1358V103.377Z" fill="#FF8C00"/>
<path d="M108.93 89.369C105.799 89.369 103.251 91.9166 103.251 95.0481C103.251 98.1795 105.799 100.727 108.93 100.727C112.062 100.727 114.609 98.1795 114.609 95.0481C114.609 91.9166 112.062 89.369 108.93 89.369ZM108.93 96.9411C107.887 96.9411 107.037 96.0919 107.037 95.0481C107.037 94.0043 107.887 93.155 108.93 93.155C109.974 93.155 110.823 94.0043 110.823 95.0481C110.823 96.0919 109.974 96.9411 108.93 96.9411ZM71.0698 89.369C67.9383 89.369 65.3907 91.9166 65.3907 95.0481C65.3907 98.1795 67.9383 100.727 71.0698 100.727C74.2012 100.727 76.7489 98.1795 76.7489 95.0481C76.7489 91.9166 74.2012 89.369 71.0698 89.369ZM71.0698 96.9411C70.026 96.9411 69.1768 96.0919 69.1768 95.0481C69.1768 94.0043 70.026 93.155 71.0698 93.155C72.1136 93.155 72.9628 94.0043 72.9628 95.0481C72.9628 96.0919 72.1136 96.9411 71.0698 96.9411Z" fill="#FF8C00"/>
</g>
</g>
<path opacity="0.4" d="M30.5992 55.2427L30.8432 57.2278L30.8561 57.2261L30.5992 55.2427ZM24.5852 54.3369L23.7554 56.1567L23.7673 56.162L24.5852 54.3369ZM10.5725 35.3547L8.58743 35.5987L8.5891 35.6116L10.5725 35.3547ZM11.4923 29.3596L13.3121 30.1894L13.3174 30.1775L11.4923 29.3596ZM21.6829 21.8369L21.9196 23.8229L21.9297 23.8217L21.9398 23.8203L21.6829 21.8369ZM27.683 22.7238L26.8651 24.5489L26.8651 24.5489L27.683 22.7238ZM41.6956 41.706L39.7105 41.95L39.7105 41.95L41.6956 41.706ZM40.7898 47.72L42.6126 48.5431L42.6149 48.5378L40.7898 47.72ZM35.5217 45.767L37.3569 46.5621L37.3616 46.5511L37.3662 46.54L35.5217 45.767ZM36.0067 42.5464L37.9962 42.3413L37.9955 42.3342L37.9947 42.3272L36.0067 42.5464ZM25.1902 27.8938L24.3952 29.729L24.4017 29.7318L24.4082 29.7346L25.1902 27.8938ZM21.9696 27.4088L22.165 29.3992L22.1769 29.398L22.1888 29.3967L21.9696 27.4088ZM16.7514 31.2608L18.5866 32.0559L18.5913 32.0449L18.596 32.0339L16.7514 31.2608ZM16.2663 34.4814L18.2558 34.2763L18.2551 34.2693L18.2543 34.2622L16.2663 34.4814ZM27.0829 49.134L26.2878 50.9692L26.2943 50.972L26.3008 50.9748L27.0829 49.134ZM30.3035 49.6191L30.4989 51.6095L30.5108 51.6083L30.5227 51.607L30.3035 49.6191ZM35.4233 51.0942C33.7287 52.3452 32.039 53.0395 30.3423 53.2593L30.8561 57.2261C33.3183 56.9072 35.6367 55.9086 37.7989 54.3124L35.4233 51.0942ZM30.3552 53.2576C28.6283 53.4699 26.9908 53.2233 25.403 52.5118L23.7673 56.162C26.0206 57.1717 28.3924 57.529 30.8432 57.2278L30.3552 53.2576ZM25.4149 52.5171C23.8582 51.8073 22.448 50.6462 21.197 48.9515L17.9788 51.3271C19.575 53.4894 21.4964 55.1266 23.7554 56.1567L25.4149 52.5171ZM21.197 48.9515L14.721 40.1789L11.5029 42.5545L17.9788 51.3271L21.197 48.9515ZM14.721 40.1789C13.47 38.4842 12.7757 36.7946 12.556 35.0978L8.5891 35.6116C8.90803 38.0739 9.90668 40.3922 11.5029 42.5545L14.721 40.1789ZM12.5576 35.1107C12.3457 33.3868 12.5958 31.7602 13.3121 30.1894L9.67252 28.5299C8.64891 30.7749 8.28588 33.145 8.58747 35.5987L12.5576 35.1107ZM13.3174 30.1775C14.0186 28.6127 15.1732 27.2005 16.8637 25.9525L14.4881 22.7344C12.3217 24.3336 10.6872 26.2655 9.66716 28.5418L13.3174 30.1775ZM16.8637 25.9525C18.5546 24.7043 20.2355 24.0236 21.9196 23.8229L21.4462 19.851C18.9779 20.1451 16.6542 21.1354 14.4881 22.7344L16.8637 25.9525ZM21.9398 23.8203C23.6519 23.5986 25.2801 23.8387 26.8651 24.5489L28.5008 20.8987C26.2448 19.8877 23.8729 19.5365 21.426 19.8535L21.9398 23.8203ZM26.8651 24.5489C28.4299 25.2501 29.8421 26.4047 31.0901 28.0952L34.3082 25.7196C32.709 23.5532 30.7771 21.9187 28.5008 20.8987L26.8651 24.5489ZM31.0901 28.0952L37.566 36.8679L40.7842 34.4923L34.3082 25.7196L31.0901 28.0952ZM37.566 36.8679C38.814 38.5584 39.5013 40.2481 39.7105 41.95L43.6807 41.462C43.3764 38.9863 42.3834 36.6586 40.7842 34.4923L37.566 36.8679ZM39.7105 41.95C39.9228 43.6769 39.6762 45.3143 38.9647 46.9021L42.6149 48.5378C43.6246 46.2846 43.9819 43.9127 43.6807 41.462L39.7105 41.95ZM38.967 46.8969C38.2706 48.4392 37.1183 49.843 35.4233 51.0942L37.7989 54.3124C39.9609 52.7164 41.5944 50.798 42.6126 48.543L38.967 46.8969ZM34.6028 49.9828C35.8269 49.0792 36.7616 47.936 37.3569 46.5621L33.6865 44.9719C33.3887 45.6593 32.919 46.2539 32.2272 46.7646L34.6028 49.9828ZM37.3662 46.54C37.9302 45.1942 38.145 43.7848 37.9962 42.3413L34.0173 42.7515C34.0961 43.5157 33.9875 44.2533 33.6771 44.994L37.3662 46.54ZM37.9947 42.3272C37.8306 40.8389 37.274 39.4711 36.3704 38.247L33.1523 40.6227C33.663 41.3145 33.9367 42.0211 34.0188 42.7656L37.9947 42.3272ZM36.3704 38.247L29.406 28.8127L26.1878 31.1883L33.1523 40.6227L36.3704 38.247ZM29.406 28.8127C28.4963 27.5803 27.3511 26.6388 25.9723 26.0531L24.4082 29.7346C25.072 30.0166 25.6646 30.4796 26.1878 31.1883L29.406 28.8127ZM25.9853 26.0586C24.6356 25.4739 23.2124 25.2596 21.7504 25.4208L22.1888 29.3967C22.9597 29.3117 23.6836 29.4207 24.3952 29.729L25.9853 26.0586ZM21.7742 25.4183C20.2701 25.566 18.8886 26.1165 17.6563 27.0262L20.0319 30.2443C20.7154 29.7397 21.4176 29.4726 22.165 29.3992L21.7742 25.4183ZM17.6563 27.0262C16.424 27.9359 15.491 29.0939 14.9068 30.4878L18.596 32.0339C18.8862 31.3412 19.3484 30.7489 20.0319 30.2443L17.6563 27.0262ZM14.9162 30.4658C14.3315 31.8155 14.1171 33.2386 14.2784 34.7007L18.2543 34.2622C18.1693 33.4914 18.2783 32.7675 18.5866 32.0559L14.9162 30.4658ZM14.2769 34.6866C14.4305 36.1768 14.993 37.5485 15.9027 38.7808L19.1208 36.4052C18.5976 35.6964 18.3298 34.9938 18.2558 34.2763L14.2769 34.6866ZM15.9027 38.7808L22.8671 48.2152L26.0853 45.8395L19.1208 36.4052L15.9027 38.7808ZM22.8671 48.2152C23.7707 49.4392 24.9139 50.374 26.2878 50.9692L27.8779 47.2988C27.1906 47.0011 26.596 46.5314 26.0853 45.8395L22.8671 48.2152ZM26.3008 50.9748C27.6365 51.5422 29.0467 51.7521 30.4989 51.6095L30.1081 47.6287C29.3088 47.7071 28.5719 47.5936 27.8649 47.2932L26.3008 50.9748ZM30.5227 51.607C32.011 51.4429 33.3788 50.8863 34.6028 49.9828L32.2272 46.7646C31.5354 47.2753 30.8288 47.549 30.0842 47.6311L30.5227 51.607ZM56.0142 37.5037L54.4051 38.6915L55.5929 40.3006L57.202 39.1127L56.0142 37.5037ZM39.587 15.2507L41.1961 14.0629L39.0781 11.1938L37.7344 14.4971L39.587 15.2507ZM36.7851 22.1386L35.176 23.3264L37.294 26.1955L38.6377 22.8922L36.7851 22.1386ZM33.0726 17.1095L31.2262 16.3408L30.791 17.3862L31.4635 18.2973L33.0726 17.1095ZM35.9164 10.2783L34.7285 8.66919L34.2829 8.99819L34.07 9.50961L35.9164 10.2783ZM40.5674 6.84488L42.1764 5.65706L40.9886 4.048L39.3795 5.23581L40.5674 6.84488ZM60.6652 34.0703L61.853 35.6794L63.4621 34.4916L62.2742 32.8825L60.6652 34.0703ZM57.6232 36.3159L41.1961 14.0629L37.9779 16.4385L54.4051 38.6915L57.6232 36.3159ZM37.7344 14.4971L34.9325 21.385L38.6377 22.8922L41.4396 16.0043L37.7344 14.4971ZM38.3942 20.9508L34.6817 15.9216L31.4635 18.2973L35.176 23.3264L38.3942 20.9508ZM34.919 17.8781L37.7628 11.0469L34.07 9.50961L31.2262 16.3408L34.919 17.8781ZM37.1042 11.8873L41.7552 8.45395L39.3795 5.23581L34.7285 8.66919L37.1042 11.8873ZM38.9583 8.03269L59.0561 35.2581L62.2742 32.8825L42.1764 5.65706L38.9583 8.03269ZM59.4774 32.4612L54.8263 35.8946L57.202 39.1127L61.853 35.6794L59.4774 32.4612Z" fill="#FF8C00"/>
<defs>
<filter id="filter0_d_322_10110" x="0" y="10" width="220" height="220" filterUnits="userSpaceOnUse" color-interpolation-filters="sRGB">
<feFlood flood-opacity="0" result="BackgroundImageFix"/>
<feColorMatrix in="SourceAlpha" type="matrix" values="0 0 0 0 0 0 0 0 0 0 0 0 0 0 0 0 0 0 127 0" result="hardAlpha"/>
<feOffset dx="20" dy="30"/>
<feGaussianBlur stdDeviation="25"/>
<feComposite in2="hardAlpha" operator="out"/>
<feColorMatrix type="matrix" values="0 0 0 0 0 0 0 0 0 0 0 0 0 0 0 0 0 0 0.1 0"/>
<feBlend mode="normal" in2="BackgroundImageFix" result="effect1_dropShadow_322_10110"/>
<feBlend mode="normal" in="SourceGraphic" in2="effect1_dropShadow_322_10110" result="shape"/>
</filter>
<clipPath id="clip0_322_10110">
<rect width="64.6154" height="64.6154" fill="white" transform="translate(57.6924 57.6923)"/>
</clipPath>
</defs>
</svg>
