<svg width="222" height="232" viewBox="0 0 222 232" fill="none" xmlns="http://www.w3.org/2000/svg">
<g filter="url(#filter0_d_322_10052)">
<circle cx="92" cy="92" r="60" fill="#FF8C00" fill-opacity="0.15" shape-rendering="crispEdges"/>
</g>
<g clip-path="url(#clip0_322_10052)">
<path d="M122.414 61.5995H61.5858C60.5401 61.5995 59.6924 62.447 59.6924 63.4926V120.506C59.6924 121.552 60.5401 122.399 61.5858 122.399H122.414C123.46 122.399 124.308 121.552 124.308 120.506V63.4926C124.308 62.447 123.46 61.5995 122.414 61.5995ZM120.521 69.2013H116.704V65.3856H120.521V69.2013ZM112.917 65.3856V69.2013H63.4793V65.3856H112.917ZM63.4793 118.613V72.9874H120.521V118.613H63.4793Z" fill="#FF8C00"/>
<path d="M111.024 86.306H108.279L103.128 77.7227C102.96 77.4424 102.722 77.2104 102.437 77.0494C102.153 76.8883 101.831 76.8037 101.504 76.8037H80.5947C80.2677 76.8037 79.9464 76.8883 79.6618 77.0494C79.3773 77.2104 79.1393 77.4424 78.9711 77.7227L73.82 86.306H72.9761C69.844 86.306 67.2958 88.8535 67.2958 91.9848L67.2954 99.6012C67.2753 100.618 68.1716 101.514 69.1888 101.494H74.2737C75.0559 103.706 77.1674 105.296 79.6443 105.296C82.1211 105.296 84.2326 103.706 85.0148 101.494H98.9853C99.7675 103.706 101.879 105.296 104.356 105.296C106.833 105.296 108.944 103.706 109.726 101.494H114.811C115.857 101.494 116.705 100.647 116.705 99.6013V91.985C116.705 88.8536 114.156 86.306 111.024 86.306ZM103.863 86.306H93.8936V80.5898H100.432L103.863 86.306ZM81.6668 80.5898H90.1065V86.306H78.2362L81.6668 80.5898ZM79.6443 101.51C78.592 101.51 77.736 100.654 77.736 99.6017C77.736 98.5497 78.592 97.6938 79.6443 97.6938C80.6965 97.6938 81.5526 98.5497 81.5526 99.6017C81.5526 100.654 80.6965 101.51 79.6443 101.51ZM104.356 101.51C103.304 101.51 102.448 100.654 102.448 99.6017C102.448 98.5497 103.304 97.6938 104.356 97.6938C105.408 97.6938 106.264 98.5497 106.264 99.6017C106.264 100.654 105.408 101.51 104.356 101.51ZM112.918 97.7083H109.726C108.944 95.4969 106.832 93.9077 104.356 93.9077C101.879 93.9077 99.768 95.4969 98.9856 97.7083H85.0145C84.2321 95.4969 82.1208 93.9077 79.6443 93.9077C77.1677 93.9077 75.0564 95.4969 74.274 97.7083H71.0823L71.0826 91.9849C71.0826 90.9411 71.9321 90.092 72.976 90.092H111.024C112.068 90.092 112.918 90.9412 112.918 91.985V97.7083H112.918ZM86.2974 110.062H70.1399C69.0941 110.062 68.2465 110.909 68.2465 111.955C68.2465 113 69.0941 113.848 70.1399 113.848H86.2974C87.3431 113.848 88.1908 113 88.1908 111.955C88.1908 110.909 87.3431 110.062 86.2974 110.062ZM113.86 110.062H97.7027C96.657 110.062 95.8093 110.909 95.8093 111.955C95.8093 113 96.657 113.848 97.7027 113.848H113.86C114.906 113.848 115.754 113 115.754 111.955C115.754 110.909 114.906 110.062 113.86 110.062Z" fill="#FF8C00"/>
</g>
<path opacity="0.4" d="M29.8331 59.7334L30.077 61.7185L30.09 61.7168L29.8331 59.7334ZM23.8191 58.8276L22.9893 60.6474L23.0012 60.6527L23.8191 58.8276ZM9.80642 39.8454L7.82131 40.0894L7.82299 40.1023L9.80642 39.8454ZM10.7262 33.8503L12.546 34.6801L12.5513 34.6682L10.7262 33.8503ZM20.9168 26.3276L21.1535 28.3136L21.1636 28.3124L21.1737 28.3111L20.9168 26.3276ZM26.9168 27.2145L26.099 29.0396L26.099 29.0396L26.9168 27.2145ZM40.9295 46.1967L38.9444 46.4407L38.9444 46.4407L40.9295 46.1967ZM40.0237 52.2107L41.8465 53.0338L41.8488 53.0285L40.0237 52.2107ZM34.7556 50.2577L36.5907 51.0528L36.5955 51.0418L36.6001 51.0307L34.7556 50.2577ZM35.2406 47.0371L37.2301 46.832L37.2294 46.8249L37.2286 46.8179L35.2406 47.0371ZM24.4241 32.3845L23.629 34.2197L23.6355 34.2225L23.6421 34.2253L24.4241 32.3845ZM21.2035 31.8995L21.3989 33.8899L21.4108 33.8887L21.4227 33.8874L21.2035 31.8995ZM15.9853 35.7515L17.8205 36.5466L17.8252 36.5356L17.8299 36.5246L15.9853 35.7515ZM15.5002 38.9721L17.4897 38.767L17.4889 38.76L17.4882 38.7529L15.5002 38.9721ZM26.3167 53.6247L25.5217 55.4599L25.5282 55.4627L25.5347 55.4655L26.3167 53.6247ZM29.5374 54.1098L29.7328 56.1002L29.7447 56.0991L29.7566 56.0977L29.5374 54.1098ZM34.6572 55.5849C32.9626 56.8359 31.2729 57.5302 29.5761 57.75L30.09 61.7168C32.5522 61.3979 34.8705 60.3993 37.0328 58.8031L34.6572 55.5849ZM29.5891 57.7483C27.8622 57.9606 26.2247 57.714 24.6369 57.0025L23.0012 60.6527C25.2545 61.6625 27.6263 62.0197 30.077 61.7185L29.5891 57.7483ZM24.6488 57.0078C23.092 56.298 21.6818 55.1369 20.4309 53.4422L17.2127 55.8178C18.8089 57.9801 20.7302 59.6173 22.9893 60.6474L24.6488 57.0078ZM20.4309 53.4422L13.9549 44.6696L10.7368 47.0452L17.2127 55.8178L20.4309 53.4422ZM13.9549 44.6696C12.7039 42.9749 12.0096 41.2853 11.7898 39.5885L7.82299 40.1023C8.14191 42.5646 9.14056 44.8829 10.7368 47.0452L13.9549 44.6696ZM11.7915 39.6014C11.5796 37.8775 11.8297 36.2509 12.5459 34.6801L8.90641 33.0206C7.88279 35.2656 7.51976 37.6357 7.82136 40.0894L11.7915 39.6014ZM12.5513 34.6682C13.2525 33.1034 14.4071 31.6912 16.0976 30.4432L13.722 27.2251C11.5556 28.8243 9.92106 30.7562 8.90105 33.0325L12.5513 34.6682ZM16.0976 30.4432C17.7885 29.195 19.4694 28.5143 21.1535 28.3136L20.6801 24.3417C18.2118 24.6358 15.888 25.6261 13.722 27.2251L16.0976 30.4432ZM21.1737 28.3111C22.8858 28.0893 24.5139 28.3294 26.099 29.0396L27.7347 25.3894C25.4787 24.3784 23.1068 24.0273 20.6599 24.3442L21.1737 28.3111ZM26.099 29.0396C27.6638 29.7409 29.076 30.8954 30.3239 32.5859L33.5421 30.2103C31.9428 28.0439 30.0109 26.4094 27.7347 25.3894L26.099 29.0396ZM30.3239 32.5859L36.7999 41.3586L40.018 38.983L33.5421 30.2103L30.3239 32.5859ZM36.7999 41.3586C38.0479 43.0491 38.7352 44.7388 38.9444 46.4407L42.9145 45.9527C42.6102 43.477 41.6173 41.1494 40.018 38.983L36.7999 41.3586ZM38.9444 46.4407C39.1567 48.1676 38.91 49.8051 38.1985 51.3928L41.8488 53.0285C42.8585 50.7753 43.2158 48.4034 42.9145 45.9527L38.9444 46.4407ZM38.2009 51.3876C37.5045 52.9299 36.3522 54.3337 34.6572 55.5849L37.0328 58.8031C39.1948 57.2071 40.8282 55.2887 41.8465 53.0338L38.2009 51.3876ZM33.8367 54.4735C35.0607 53.5699 35.9955 52.4267 36.5907 51.0528L32.9204 49.4627C32.6226 50.15 32.1529 50.7446 31.4611 51.2553L33.8367 54.4735ZM36.6001 51.0307C37.1641 49.6849 37.3789 48.2755 37.2301 46.832L33.2512 47.2422C33.33 48.0064 33.2214 48.744 32.911 49.4847L36.6001 51.0307ZM37.2286 46.8179C37.0644 45.3296 36.5079 43.9618 35.6043 42.7377L32.3862 45.1134C32.8969 45.8052 33.1706 46.5118 33.2527 47.2563L37.2286 46.8179ZM35.6043 42.7377L28.6398 33.3034L25.4217 35.679L32.3862 45.1134L35.6043 42.7377ZM28.6398 33.3034C27.7301 32.071 26.5849 31.1295 25.2061 30.5438L23.6421 34.2253C24.3059 34.5073 24.8985 34.9703 25.4217 35.679L28.6398 33.3034ZM25.2192 30.5494C23.8695 29.9646 22.4463 29.7503 20.9843 29.9115L21.4227 33.8874C22.1935 33.8024 22.9175 33.9114 23.629 34.2197L25.2192 30.5494ZM21.0081 29.909C19.504 30.0567 18.1225 30.6072 16.8902 31.5169L19.2658 34.735C19.9493 34.2304 20.6515 33.9633 21.3989 33.8899L21.0081 29.909ZM16.8902 31.5169C15.6578 32.4266 14.7249 33.5846 14.1407 34.9785L17.8299 36.5246C18.1201 35.8319 18.5823 35.2396 19.2658 34.735L16.8902 31.5169ZM14.1501 34.9565C13.5654 36.3062 13.351 37.7293 13.5123 39.1914L17.4882 38.7529C17.4032 37.9821 17.5122 37.2582 17.8205 36.5466L14.1501 34.9565ZM13.5108 39.1773C13.6644 40.6675 14.2268 42.0392 15.1366 43.2715L18.3547 40.8959C17.8315 40.1871 17.5636 39.4845 17.4897 38.767L13.5108 39.1773ZM15.1366 43.2715L22.101 52.7059L25.3191 50.3302L18.3547 40.8959L15.1366 43.2715ZM22.101 52.7059C23.0046 53.9299 24.1478 54.8647 25.5217 55.4599L27.1118 51.7895C26.4244 51.4918 25.8298 51.0221 25.3191 50.3302L22.101 52.7059ZM25.5347 55.4655C26.8704 56.0329 28.2805 56.2428 29.7328 56.1002L29.3419 52.1194C28.5427 52.1978 27.8058 52.0843 27.0988 51.784L25.5347 55.4655ZM29.7566 56.0977C31.2449 55.9336 32.6127 55.377 33.8367 54.4735L31.4611 51.2553C30.7693 51.766 30.0627 52.0397 29.3181 52.1218L29.7566 56.0977ZM49.7372 46.004L48.1282 47.1919L49.316 48.8009L50.925 47.6131L49.7372 46.004ZM46.8063 42.0337L44.849 41.6227L44.6648 42.5002L45.1972 43.2215L46.8063 42.0337ZM50.7904 23.0566L48.8337 22.6431L48.8331 22.6457L50.7904 23.0566ZM50.9923 19.3732L52.9603 19.0165L52.9603 19.0165L50.9923 19.3732ZM47.6139 14.9153L46.7678 16.7276L46.7746 16.7307L46.7814 16.7338L47.6139 14.9153ZM44.7318 14.414L44.9063 16.4064L44.9144 16.4057L44.9225 16.4049L44.7318 14.414ZM39.8818 18.0527L41.7263 18.8261L41.7302 18.8167L39.8818 18.0527ZM39.4692 21.0153L37.4847 21.2634L37.4847 21.2634L39.4692 21.0153ZM40.6187 23.7596L41.8065 25.3686L43.4651 24.1443L42.1911 22.5235L40.6187 23.7596ZM35.9299 27.2208L34.3208 28.4087L35.5086 30.0177L37.1177 28.8299L35.9299 27.2208ZM33.6367 21.5821L31.6448 21.7618L31.6461 21.7755L33.6367 21.5821ZM34.6853 15.9593L32.8908 15.0762L32.8876 15.0827L34.6853 15.9593ZM44.3884 8.88405L44.6331 10.8691L44.6468 10.8673L44.3884 8.88405ZM50.0319 9.68364L49.2332 11.5172L49.2405 11.5204L50.0319 9.68364ZM56.7957 20.785L54.8109 20.5388L54.8098 20.5478L54.8087 20.5567L56.7957 20.785ZM56.0338 25.1739L54.0796 24.7485L54.0778 24.7568L56.0338 25.1739ZM53.1729 38.5898L52.0711 40.259L54.5176 41.8739L55.129 39.0069L53.1729 38.5898ZM51.9196 37.7625L50.7318 36.1534L48.428 37.8541L50.8178 39.4316L51.9196 37.7625ZM65.3054 27.8811L66.9145 26.6932L65.7267 25.0842L64.1176 26.272L65.3054 27.8811ZM68.4736 32.1728L69.6614 33.7819L71.2705 32.5941L70.0827 30.985L68.4736 32.1728ZM51.3463 44.8162L48.4154 40.8459L45.1972 43.2215L48.1282 47.1919L51.3463 44.8162ZM48.7636 42.4446L52.7478 23.4675L48.8331 22.6457L44.849 41.6227L48.7636 42.4446ZM52.7472 23.4701C53.0879 21.8579 53.2014 20.3472 52.9603 19.0165L49.0244 19.7299C49.1381 20.3572 49.117 21.302 48.8337 22.6431L52.7472 23.4701ZM52.9603 19.0165C52.739 17.7957 52.3028 16.6729 51.5955 15.7149L48.3774 18.0905C48.6564 18.4685 48.8908 18.9928 49.0244 19.7299L52.9603 19.0165ZM51.5955 15.7149C50.7499 14.5694 49.7032 13.6722 48.4464 13.0968L46.7814 16.7338C47.3482 16.9933 47.8832 17.421 48.3774 18.0905L51.5955 15.7149ZM48.4599 13.1031C47.2193 12.5239 45.9011 12.2929 44.5411 12.4231L44.9225 16.4049C45.5631 16.3435 46.1662 16.4467 46.7678 16.7276L48.4599 13.1031ZM44.5573 12.4216C43.1597 12.544 41.874 13.0738 40.7201 13.9256L43.0957 17.1438C43.7316 16.6744 44.3285 16.457 44.9063 16.4064L44.5573 12.4216ZM40.7201 13.9256C39.5141 14.8159 38.5926 15.936 38.0335 17.2887L41.7302 18.8167C41.9819 18.2077 42.4111 17.6492 43.0957 17.1438L40.7201 13.9256ZM38.0374 17.2793C37.5023 18.5554 37.3136 19.8948 37.4847 21.2634L41.4538 20.7673C41.3708 20.1035 41.4572 19.4678 41.7262 18.8261L38.0374 17.2793ZM37.4847 21.2634C37.6572 22.6441 38.1848 23.8996 39.0464 24.9956L42.1911 22.5235C41.774 21.993 41.5352 21.419 41.4538 20.7673L37.4847 21.2634ZM39.4309 22.1505L34.7421 25.6118L37.1177 28.8299L41.8065 25.3686L39.4309 22.1505ZM37.539 26.033C36.38 24.4631 35.7762 22.9202 35.6274 21.3886L31.6461 21.7755C31.8751 24.1322 32.8 26.3485 34.3208 28.4087L37.539 26.033ZM35.6287 21.4023C35.4858 19.819 35.7644 18.3094 36.4829 16.8359L32.8876 15.0827C31.8555 17.1993 31.4351 19.4382 31.6448 21.7618L35.6287 21.4023ZM36.4798 16.8423C37.2053 15.3679 38.3599 14.0092 40.0221 12.7822L37.6464 9.56407C35.5525 11.1098 33.9411 12.9418 32.8908 15.0762L36.4798 16.8423ZM40.0221 12.7822C41.5111 11.683 43.0424 11.0651 44.6331 10.869L44.1437 6.89908C41.8077 7.18704 39.6362 8.0952 37.6464 9.56407L40.0221 12.7822ZM44.6468 10.8673C46.2411 10.6595 47.7569 10.8742 49.2332 11.5172L50.8306 7.85005C48.6903 6.91774 46.4438 6.5993 44.13 6.90082L44.6468 10.8673ZM49.2405 11.5204C50.6743 12.1382 51.9601 13.1704 53.0892 14.6999L56.3073 12.3243C54.8125 10.2993 52.9874 8.77927 50.8233 7.84686L49.2405 11.5204ZM53.0892 14.6999C53.9482 15.8636 54.433 16.8545 54.6483 17.679L58.5185 16.6684C58.137 15.2072 57.365 13.7571 56.3073 12.3243L53.0892 14.6999ZM54.6483 17.679C54.8778 18.558 54.9391 19.5055 54.8109 20.5388L58.7805 21.0312C58.966 19.5351 58.8858 18.0751 58.5185 16.6684L54.6483 17.679ZM54.8087 20.5567C54.6742 21.7275 54.4336 23.1221 54.0796 24.7485L57.9881 25.5993C58.3613 23.8847 58.6286 22.3534 58.7826 21.0134L54.8087 20.5567ZM54.0778 24.7568L51.2169 38.1727L55.129 39.0069L57.9898 25.591L54.0778 24.7568ZM54.2747 36.9207L53.0214 36.0933L50.8178 39.4316L52.0711 40.259L54.2747 36.9207ZM53.1074 39.3716L66.4932 29.4901L64.1176 26.272L50.7318 36.1534L53.1074 39.3716ZM63.6964 29.0689L66.8646 33.3607L70.0827 30.985L66.9145 26.6932L63.6964 29.0689ZM67.2858 30.5638L48.5494 44.395L50.925 47.6131L69.6614 33.7819L67.2858 30.5638Z" fill="#FF8C00"/>
<defs>
<filter id="filter0_d_322_10052" x="2" y="12" width="220" height="220" filterUnits="userSpaceOnUse" color-interpolation-filters="sRGB">
<feFlood flood-opacity="0" result="BackgroundImageFix"/>
<feColorMatrix in="SourceAlpha" type="matrix" values="0 0 0 0 0 0 0 0 0 0 0 0 0 0 0 0 0 0 127 0" result="hardAlpha"/>
<feOffset dx="20" dy="30"/>
<feGaussianBlur stdDeviation="25"/>
<feComposite in2="hardAlpha" operator="out"/>
<feColorMatrix type="matrix" values="0 0 0 0 0 0 0 0 0 0 0 0 0 0 0 0 0 0 0.1 0"/>
<feBlend mode="normal" in2="BackgroundImageFix" result="effect1_dropShadow_322_10052"/>
<feBlend mode="normal" in="SourceGraphic" in2="effect1_dropShadow_322_10052" result="shape"/>
</filter>
<clipPath id="clip0_322_10052">
<rect width="64.6154" height="64.6154" fill="white" transform="translate(59.6924 59.6923)"/>
</clipPath>
</defs>
</svg>
