<svg width="332" height="185" viewBox="0 0 332 185" fill="none" xmlns="http://www.w3.org/2000/svg">
<g clip-path="url(#clip0_793_31912)">
<path d="M57.3169 92.7894H55.2245V89.0342H48.0348V92.7894H45.9424V88.8193C45.9424 87.7834 46.7076 86.9418 47.6493 86.9418H55.5953C56.0705 86.9654 56.517 87.1761 56.8374 87.5279C57.1578 87.8797 57.3259 88.344 57.3051 88.8193L57.3169 92.7894Z" fill="black"/>
<path d="M66.7345 121.459H36.5193C32.4218 121.459 29.1001 118.138 29.1001 114.04L29.1001 99.2695C29.1001 95.172 32.4218 91.8503 36.5193 91.8503H66.7345C70.832 91.8503 74.1537 95.172 74.1537 99.2695V114.04C74.1537 118.138 70.832 121.459 66.7345 121.459Z" fill="#FA7267"/>
<path d="M61.5962 91.02H65.5073V92.7858H61.5962V91.02Z" fill="black"/>
<path d="M36.7778 91.02H40.689V92.7858H36.7778V91.02Z" fill="black"/>
<path d="M48.276 90.123C48.276 90.123 49.0971 86.3207 49.6445 86.3678C50.1919 86.4149 50.2331 89.505 50.2331 89.4579C50.2331 89.4108 50.7451 86.1853 51.4927 85.997C52.2402 85.8086 52.1224 89.3608 52.1224 89.3608C52.1224 89.3608 52.3638 86.3031 52.8847 86.2001C53.4056 86.0971 53.4909 89.0518 53.694 89.0518C53.8971 89.0518 53.6322 86.5179 54.2826 86.3648C54.933 86.2118 55.4362 89.764 54.8712 90.2437C54.7039 90.3769 54.4964 90.4495 54.2826 90.4495C54.0688 90.4495 53.8613 90.3769 53.694 90.2437C53.694 90.2437 52.6551 90.9441 52.0636 90.5968C52.0636 90.5968 50.395 90.9824 50.083 90.2878C50.0889 90.3025 48.8941 91.2089 48.276 90.123Z" fill="#E57A7A"/>
<path d="M104.395 139.917C104.395 139.917 111.049 149.308 110.814 151.036C110.678 152.022 100.481 161.336 99.0861 160.068C97.6911 158.8 104.648 150.624 103.277 147.434C102.381 145.415 101.18 143.546 99.7159 141.892L104.395 139.917Z" fill="#FB9391"/>
<path d="M108.969 146.893C105.405 153.924 102.789 154.321 101.5 153.856C100.01 156.696 98.3329 159.389 99.0863 160.066C100.481 161.322 110.679 152.02 110.814 151.031C110.905 150.401 110.069 148.741 108.969 146.893Z" fill="black"/>
<path d="M71.9316 141.78C71.9316 141.78 71.3695 148.428 71.2194 149.653C71.0693 150.877 71.8492 154.706 70.8545 155.206C69.8598 155.706 59.0827 160.862 58.1998 159.135C57.3169 157.407 66.3665 150.8 66.5078 149.129C66.649 147.457 66.9875 140.594 66.9875 140.594L71.9316 141.78Z" fill="#FB9391"/>
<path d="M62.0078 154.056C59.8123 156.148 57.7287 158.261 58.1819 159.135C59.0884 160.863 69.8537 155.707 70.8366 155.206C71.7372 154.753 71.1809 151.56 71.1839 150.056C66.7606 155.139 63.4086 154.591 62.0078 154.056Z" fill="black"/>
<path d="M92.7117 83.1097C92.7117 83.1097 89.4745 85.0491 88.4503 86.0114C87.4262 86.9738 85.7369 87.1475 86.0636 87.8891C86.3903 88.6307 88.9153 87.7066 88.9153 87.7066C88.9153 87.7066 87.9647 90.3906 87.5468 91.1704C87.1289 91.9503 86.7375 93.5248 87.2849 93.8868C87.8323 94.2488 89.5775 90.3552 89.5775 90.3552C89.5775 90.3552 88.4297 93.772 88.8653 94.2017C89.3008 94.6314 91.3992 90.4994 91.3992 90.4994C91.3992 90.4994 89.9983 94.084 90.1337 94.4636C90.2691 94.8432 90.7576 94.6814 91.561 93.5336C92.0929 92.7396 92.5389 91.8911 92.8912 91.0027C92.8912 91.0027 92.0937 93.5954 92.1084 93.9456C92.1231 94.2958 92.4027 94.755 93.4033 92.9274C94.4039 91.0998 95.9548 86.7913 95.8548 84.3251L92.7117 83.1097Z" fill="#FB9391"/>
<path d="M324.84 157.422L321.455 159.044C320.022 159.73 318.454 160.087 316.864 160.088H40.6569C38.2879 160.084 35.9285 159.787 33.632 159.205L7.1926 152.566C4.79639 151.963 2.72882 150.452 1.42755 148.351C0.126282 146.251 -0.306519 143.726 0.220734 141.312C0.220734 141.312 -0.623901 121.05 6.69522 110.073C6.69522 110.073 5.10016 100.973 9.60287 98.1599C9.60287 98.1599 9.13495 89.902 11.0096 89.2457C12.8842 88.5894 34.6503 86.8913 39.9035 85.5876C45.1566 84.2839 88.5004 64.7603 110.64 64.0099C132.78 63.2594 178.372 61.1965 199.762 69.2631C221.151 77.3297 251.828 95.161 251.828 95.161C251.828 95.161 312.524 101.541 322.459 117.678C328.004 126.671 330.602 136.786 331.818 143.979C332.27 146.673 331.834 149.442 330.576 151.867C329.317 154.292 327.304 156.242 324.84 157.422Z" fill="#FF8C00"/>
<path d="M240.851 101.642C240.851 101.642 206.236 75.4676 179.779 72.3716C153.322 69.2756 99.8515 66.1914 68.8916 84.1934C68.8916 84.1934 80.1514 93.3401 82.8236 93.7609C85.4958 94.1818 208.579 102.295 216.837 102.487C225.095 102.678 240.851 101.642 240.851 101.642Z" fill="black"/>
<path d="M199.761 69.2751L195.821 71.1527C195.821 71.1527 245.557 97.9835 248.544 97.7952C251.531 97.6068 251.828 95.1671 251.828 95.1671C251.828 95.1671 216.092 74.7166 199.761 69.2751Z" fill="#FFF9F3"/>
<path d="M324.908 126.5C324.908 126.5 321.906 118.245 315.714 115.611C309.522 112.977 298.077 112.421 298.077 113.922C298.077 115.423 307.085 121.053 307.085 122.928C307.085 124.802 305.958 126.492 305.958 126.492L324.908 126.5Z" fill="#FFF9F3"/>
<path d="M323.509 148.596C323.509 148.596 322.524 153.099 321.023 153.099C319.522 153.099 316.24 143.481 316.608 142.31C316.976 141.139 325.004 141.886 325.193 142.122C325.381 142.357 323.509 148.596 323.509 148.596Z" fill="black"/>
<path d="M154.879 72.6538L159.052 97.7954C159.052 97.7954 220.171 101.916 222.284 101.359C224.397 100.803 224.674 94.1844 222.284 92.0743C219.894 89.9642 197.234 79.1253 184.288 76.4531C171.342 73.7809 154.879 72.6538 154.879 72.6538Z" fill="#FFF9F3"/>
<path d="M229.968 95.2625C229.968 95.2625 222.872 91.2454 221.357 91.4367C219.841 91.628 217.21 97.0577 219.002 100.154L228.29 100.904C228.29 100.904 229.877 99.1943 229.968 95.2625Z" fill="#24204A"/>
<path d="M146.991 96.7183L145.443 72.6538C145.443 72.6538 111.202 73.2159 98.8181 76.0323L88.3118 92.916L146.1 96.7183H146.991Z" fill="#FFF9F3"/>
<path d="M89.545 80.6343L82.7762 89.5368C82.6057 89.7563 82.3554 89.8996 82.0798 89.9354C81.8042 89.9712 81.5256 89.8967 81.3047 89.7281L75.5924 85.2783C75.4432 85.1623 75.328 85.0084 75.2588 84.8325C75.1896 84.6567 75.1689 84.4654 75.199 84.2788C75.2291 84.0923 75.3088 83.9172 75.4298 83.7721C75.5508 83.6269 75.7086 83.5169 75.8867 83.4537L88.3766 79.0039C88.5889 78.9358 88.8174 78.9369 89.0291 79.0069C89.2408 79.0769 89.4249 79.2123 89.5548 79.3935C89.6847 79.5748 89.7537 79.7925 89.7519 80.0155C89.7502 80.2385 89.6777 80.4552 89.545 80.6343Z" fill="#FFF9F3"/>
<path d="M112.753 153.509H229.506C231.403 153.516 233.241 152.851 234.695 151.633C236.15 150.415 237.126 148.721 237.452 146.852C238.464 141.052 239.65 132.432 239.541 124.25C239.353 110.498 236.186 100.93 236.154 100.836L235.822 100.948C235.854 101.042 239.006 110.56 239.191 124.253C239.3 132.402 238.12 141.008 237.108 146.79C236.797 148.576 235.866 150.195 234.477 151.36C233.089 152.526 231.333 153.163 229.521 153.159H112.768C111.509 153.159 110.27 152.851 109.158 152.261C108.046 151.671 107.096 150.817 106.391 149.775L79.3154 109.789C78.4881 108.57 78.04 107.134 78.0274 105.662C78.0148 104.189 78.4384 102.745 79.2448 101.513L84.91 92.8256L84.6157 92.6343L78.9505 101.325C78.106 102.614 77.6622 104.124 77.6753 105.665C77.6884 107.206 78.1578 108.708 79.0241 109.983L106.099 149.972C106.835 151.06 107.827 151.951 108.986 152.568C110.146 153.184 111.44 153.508 112.753 153.509Z" fill="black"/>
<path d="M152.93 153.376C157.933 133.776 152.983 96.506 152.93 96.1323L152.586 96.1793C152.636 96.5531 157.589 133.755 152.586 153.29L152.93 153.376Z" fill="black"/>
<path d="M164.019 114.096C164.019 111.804 166.162 109.944 168.805 109.944C171.447 109.944 173.587 111.804 173.587 114.096C173.587 116.389 171.444 118.246 168.805 118.246C166.165 118.246 164.019 116.389 164.019 114.096Z" fill="#E06900"/>
<path d="M160.391 112.477H177.498C177.593 112.477 177.669 112.553 177.669 112.648V115.12C177.669 115.214 177.593 115.291 177.498 115.291H160.391C160.297 115.291 160.22 115.214 160.22 115.12V112.648C160.22 112.553 160.297 112.477 160.391 112.477Z" fill="#FABD97"/>
<path d="M91.2669 111.083C91.2669 108.79 93.4094 106.93 96.0522 106.93C98.6949 106.93 100.837 108.79 100.837 111.083C100.837 113.375 98.6949 115.232 96.0522 115.232C93.4094 115.232 91.2669 113.375 91.2669 111.083Z" fill="#E06900"/>
<path d="M87.638 109.461H104.745C104.84 109.461 104.916 109.538 104.916 109.632V112.104C104.916 112.198 104.84 112.275 104.745 112.275H87.638C87.5437 112.275 87.4673 112.198 87.4673 112.104V109.632C87.4673 109.538 87.5437 109.461 87.638 109.461Z" fill="#FABD97"/>
<path d="M9.6029 98.1714H28.3642C32.1635 98.1714 37.5109 98.8276 33.9941 101.079C30.4772 103.33 19.2175 107.409 19.5 108.819C19.7826 110.229 20.3447 112.277 20.3447 112.277C20.3447 112.277 8.52283 112.618 6.69526 110.084C6.69526 110.081 4.98246 101.382 9.6029 98.1714Z" fill="#FFF9F3"/>
<path d="M49.4963 166.256C38.8354 155.595 38.8354 138.31 49.4963 127.649C60.1571 116.989 77.4418 116.989 88.1026 127.649C98.7634 138.31 98.7634 155.595 88.1026 166.256C77.4418 176.917 60.1571 176.917 49.4963 166.256Z" fill="black"/>
<path d="M68.8004 167.669C74.2824 167.663 79.5381 165.482 83.4145 161.606C87.2908 157.73 89.4713 152.474 89.4775 146.992C89.4713 141.51 87.2908 136.254 83.4145 132.378C79.5381 128.502 74.2824 126.321 68.8004 126.315C63.3178 126.32 58.0614 128.5 54.1844 132.377C50.3074 136.253 48.1265 141.51 48.1203 146.992C48.1265 152.475 50.3074 157.731 54.1844 161.607C58.0614 165.484 63.3178 167.664 68.8004 167.669ZM68.8004 128.269C73.7644 128.274 78.5235 130.249 82.0336 133.759C85.5436 137.269 87.518 142.028 87.5234 146.992C87.518 151.956 85.5436 156.715 82.0336 160.225C78.5235 163.735 73.7644 165.71 68.8004 165.715C63.8361 165.71 59.0767 163.735 55.5662 160.225C52.0556 156.715 50.0806 151.956 50.0744 146.992C50.0806 142.028 52.0556 137.269 55.5662 133.759C59.0767 130.249 63.8361 128.274 68.8004 128.269Z" fill="#B3B3B3"/>
<path d="M62.3259 146.993C62.3259 145.275 63.008 143.629 64.2222 142.414C65.4364 141.2 67.0833 140.518 68.8004 140.518C70.5176 140.518 72.1644 141.2 73.3786 142.414C74.5928 143.629 75.2749 145.275 75.2749 146.993C75.2749 148.71 74.5928 150.357 73.3786 151.571C72.1644 152.785 70.5176 153.467 68.8004 153.467C67.0833 153.467 65.4364 152.785 64.2222 151.571C63.008 150.357 62.3259 148.71 62.3259 146.993Z" fill="#B3B3B3"/>
<path d="M67.7672 142.062L65.5158 127.992H72.0815L69.7478 142.062H67.7672Z" fill="#B3B3B3"/>
<path d="M64.0181 144.254L53.0939 135.099L58.0557 130.796L65.5161 142.954L64.0181 144.254Z" fill="#B3B3B3"/>
<path d="M63.1351 149.018L48.9383 150.268L49.4033 143.717L63.2734 147.04L63.1351 149.018Z" fill="#B3B3B3"/>
<path d="M73.5797 144.254L84.501 135.099L79.5421 130.796L72.0817 142.954L73.5797 144.254Z" fill="#B3B3B3"/>
<path d="M67.7672 152.458L65.5158 166.531H72.0815L69.7478 152.458H67.7672Z" fill="#B3B3B3"/>
<path d="M64.0181 150.227L53.0939 159.383L58.0557 163.723L65.5161 151.566L64.0181 150.227Z" fill="#B3B3B3"/>
<path d="M73.5797 150.268L84.501 159.421L79.5421 163.723L72.0817 151.566L73.5797 150.268Z" fill="#B3B3B3"/>
<path d="M74.4624 149.018L88.6592 150.268L88.1942 143.717L74.3211 147.04L74.4624 149.018Z" fill="#B3B3B3"/>
<path d="M251.472 166.257C240.811 155.596 240.811 138.311 251.472 127.651C262.133 116.99 279.417 116.99 290.078 127.651C300.739 138.311 300.739 155.596 290.078 166.257C279.417 176.918 262.133 176.918 251.472 166.257Z" fill="black"/>
<path d="M270.778 167.669C276.26 167.663 281.516 165.482 285.392 161.606C289.268 157.73 291.449 152.474 291.455 146.992C291.449 141.51 289.268 136.254 285.392 132.378C281.516 128.502 276.26 126.321 270.778 126.315C265.296 126.321 260.04 128.502 256.164 132.378C252.287 136.254 250.107 141.51 250.101 146.992C250.107 152.474 252.287 157.73 256.164 161.606C260.04 165.482 265.296 167.663 270.778 167.669ZM270.778 128.269C275.742 128.274 280.501 130.249 284.011 133.759C287.521 137.269 289.495 142.028 289.501 146.992C289.495 151.956 287.521 156.715 284.011 160.225C280.501 163.735 275.742 165.71 270.778 165.715C265.814 165.71 261.055 163.735 257.545 160.225C254.035 156.715 252.06 151.956 252.055 146.992C252.06 142.028 254.035 137.269 257.545 133.759C261.055 130.249 265.814 128.274 270.778 128.269Z" fill="#B3B3B3"/>
<path d="M270.778 153.464C267.204 153.464 264.306 150.567 264.306 146.993C264.306 143.419 267.204 140.521 270.778 140.521C274.352 140.521 277.25 143.419 277.25 146.993C277.25 150.567 274.352 153.464 270.778 153.464Z" fill="#B3B3B3"/>
<path d="M269.745 142.062L267.493 127.992H274.059L271.728 142.062H269.745Z" fill="#B3B3B3"/>
<path d="M265.996 144.254L255.074 135.099L260.033 130.796L267.494 142.954L265.996 144.254Z" fill="#B3B3B3"/>
<path d="M265.113 149.018L250.916 150.268L251.381 143.717L265.254 147.04L265.113 149.018Z" fill="#B3B3B3"/>
<path d="M275.557 144.254L286.481 135.099L281.52 130.796L274.059 142.954L275.557 144.254Z" fill="#B3B3B3"/>
<path d="M269.745 152.458L267.493 166.531H274.059L271.728 152.458H269.745Z" fill="#B3B3B3"/>
<path d="M265.996 150.227L255.074 159.383L260.033 163.723L267.494 151.566L265.996 150.227Z" fill="#B3B3B3"/>
<path d="M275.557 150.268L286.481 159.421L281.52 163.723L274.059 151.566L275.557 150.268Z" fill="#B3B3B3"/>
<path d="M276.443 149.018L290.637 150.268L290.172 143.717L276.302 147.04L276.443 149.018Z" fill="#B3B3B3"/>
<path d="M218.741 106.305C218.741 106.305 217.24 109.519 216.954 110.802C216.669 112.085 215.442 113.115 216.071 113.522C216.701 113.928 218.196 111.877 218.196 111.877C218.196 111.877 218.867 114.463 218.953 115.287C219.038 116.111 219.568 117.553 220.177 117.536C220.786 117.518 220.097 113.58 220.097 113.58C220.097 113.58 221.004 116.841 221.569 116.947C222.134 117.053 221.589 112.736 221.589 112.736C221.589 112.736 222.387 116.267 222.69 116.482C222.993 116.697 223.279 116.323 223.311 115.011C223.309 114.114 223.21 113.22 223.017 112.344C223.017 112.344 223.761 114.778 223.953 115.04C224.144 115.302 224.6 115.52 224.424 113.569C224.247 111.618 223.182 107.453 221.804 105.59L218.741 106.305Z" fill="#8E5E59"/>
<path d="M181.495 11.6311C181.495 11.6311 183.26 8.55572 183.658 7.30202C184.055 6.04833 185.359 5.12718 184.752 4.65337C184.146 4.17955 182.498 6.12484 182.498 6.12484C182.498 6.12484 182.048 3.47618 182.033 2.66099C182.018 1.84579 181.612 0.353713 181.003 0.306626C180.394 0.259539 180.747 4.25604 180.747 4.25604C180.747 4.25604 180.123 0.93056 179.57 0.777527C179.017 0.624494 179.19 4.97123 179.19 4.97123C179.19 4.97123 178.696 1.3926 178.413 1.1454C178.131 0.898188 177.801 1.25129 177.669 2.5609C177.596 3.45452 177.62 4.35341 177.739 5.24196C177.739 5.24196 177.204 2.7552 177.033 2.47856C176.862 2.20192 176.445 1.9429 176.445 3.90585C176.445 5.86879 177.163 10.1008 178.378 12.0755L181.495 11.6311Z" fill="#8E5E59"/>
<path d="M204.067 170.188C204.067 170.188 204.326 177.84 204.391 177.955C204.456 178.07 203.885 179.05 203.885 179.05L201.489 179.6L199.238 178.693C199.238 178.693 199.088 171.566 198.802 170.453C198.517 169.341 204.067 170.188 204.067 170.188Z" fill="#FFF9F3"/>
<path d="M199.238 178.694C199.238 178.694 202.066 179.533 204.368 177.811C204.368 177.811 213.803 180.839 213.647 183.494C213.647 183.494 214.079 184.262 210.056 184.286C206.033 184.309 199.785 184.433 199.612 184.347C199.438 184.262 198.676 184.718 199.238 178.694Z" fill="black"/>
<path d="M171.047 170.188C171.047 170.188 170.788 177.84 170.723 177.955C170.659 178.07 171.23 179.05 171.23 179.05L173.622 179.6L175.877 178.693C175.877 178.693 176.024 171.566 176.309 170.453C176.595 169.341 171.047 170.188 171.047 170.188Z" fill="#FFF9F3"/>
<path d="M175.876 178.694C175.876 178.694 173.045 179.533 170.744 177.811C170.744 177.811 161.309 180.839 161.465 183.494C161.465 183.494 161.032 184.262 165.055 184.286C169.078 184.309 175.329 184.433 175.5 184.347C175.67 184.262 176.436 184.718 175.876 178.694Z" fill="black"/>
<path d="M195.4 44.6606L205.029 50.2817L206.351 56.8798L198.893 93.4194L182.633 90.9326L188.881 53.8544L195.4 44.6606Z" fill="#FFF9F3"/>
<path d="M176.33 87.7427C176.33 87.7427 170.994 105.648 168.887 172.299L178.304 174.318C178.304 174.318 189.343 115.709 190.15 114.98C190.956 114.25 196.869 174.318 196.869 174.318H207.084L207.619 93.0164L176.33 87.7427Z" fill="#24204A"/>
<path d="M195.4 44.662C195.4 44.662 184.785 77.161 183.44 101.755L171.347 100.855C171.347 100.855 177.795 73.759 177.795 68.2056C177.795 62.6523 174.034 35.8656 174.034 29.55C174.034 23.2345 177.271 10.1089 177.271 10.1089L183.384 11.5804C183.384 11.5804 179.305 35.277 195.4 44.662Z" fill="#24096E"/>
<path d="M205.03 50.2847C205.03 50.2847 197.863 81.0267 197.504 86.5271C197.145 92.0274 195.4 103.169 195.4 103.169L208.076 103.902L209.332 82.1862C209.332 82.1862 213.273 90.4618 214.167 94.0257C215.062 97.5896 216.681 107.434 216.681 107.434H223.847C223.847 107.434 224.921 85.3969 221.16 73.9283C217.399 62.4596 216.004 56.7592 205.03 50.2847Z" fill="#24096E"/>
<path d="M197.551 33.4771C197.551 33.4771 197.328 32.3559 196.718 32.5236C195.167 32.9563 195.859 34.6161 196.536 35.2017L197.551 33.4771Z" fill="#8E5E59"/>
<path d="M198.634 30.1163C198.67 30.0221 198.705 29.928 198.743 29.8367C199.148 28.851 199.751 27.959 200.515 27.216C201.278 26.4731 202.187 25.895 203.183 25.5178C204.18 25.1405 205.243 24.9721 206.307 25.023C207.372 25.0739 208.414 25.343 209.37 25.8137C211.022 26.6319 212.33 28.0086 213.063 29.6996C213.797 31.3907 213.907 33.2868 213.376 35.0516C212.987 36.3344 212.272 37.4944 211.301 38.4183C209.944 39.828 208.767 41.0258 207.651 41.9676C205.819 43.535 204.546 45.6554 204.023 48.0094L203.605 49.8606C198.219 50.3962 197.101 47.3796 197.101 47.3796L198.325 44.1718C198.401 43.9703 198.399 43.7477 198.319 43.5478C198.239 43.3479 198.087 43.1853 197.893 43.0918C192.548 40.4814 197.619 32.5854 198.634 30.1163Z" fill="#8E5E59"/>
<path d="M199.005 33.3066C199.065 33.1706 199.176 33.0636 199.314 33.0086C199.452 32.9535 199.607 32.9549 199.744 33.0123C199.88 33.0724 199.987 33.1834 200.042 33.3215C200.097 33.4596 200.095 33.6138 200.038 33.7509C199.981 33.8895 199.871 33.9999 199.732 34.0578C199.594 34.1157 199.438 34.1164 199.299 34.0599C199.23 34.0302 199.168 33.9871 199.115 33.933C199.063 33.8789 199.022 33.8149 198.995 33.7448C198.967 33.6747 198.954 33.5999 198.956 33.5247C198.958 33.4494 198.974 33.3753 199.005 33.3066Z" fill="black"/>
<path d="M204.747 37.1931C204.806 37.0574 204.917 36.9504 205.054 36.8954C205.192 36.8403 205.346 36.8416 205.482 36.8988C205.618 36.959 205.725 37.07 205.78 37.2081C205.836 37.3462 205.834 37.5004 205.777 37.6375C205.719 37.7761 205.61 37.8864 205.471 37.9443C205.333 38.0022 205.177 38.003 205.038 37.9465C204.969 37.9168 204.906 37.8736 204.854 37.8194C204.802 37.7653 204.761 37.7012 204.734 37.6311C204.707 37.5609 204.694 37.486 204.696 37.4108C204.698 37.3356 204.716 37.2616 204.747 37.1931Z" fill="black"/>
<path d="M207.322 36.8763C207.393 36.906 207.47 36.9152 207.546 36.9028C207.601 36.8945 207.654 36.8754 207.702 36.8467C207.749 36.8179 207.791 36.7801 207.824 36.7353C207.857 36.6905 207.881 36.6395 207.894 36.5854C207.908 36.5313 207.91 36.4752 207.902 36.4201C207.796 35.7226 207.119 34.4365 205.312 34.5719C205.255 34.5744 205.198 34.5887 205.146 34.6137C205.094 34.6388 205.048 34.6742 205.011 34.7177C204.973 34.7612 204.944 34.812 204.927 34.8669C204.909 34.9217 204.903 34.9796 204.909 35.0369C204.917 35.1489 204.97 35.253 205.055 35.3264C205.14 35.3998 205.25 35.4365 205.362 35.4284C206.834 35.3195 207.046 36.5084 207.051 36.5584C207.066 36.63 207.098 36.6969 207.146 36.7525C207.193 36.8081 207.254 36.8507 207.322 36.8763Z" fill="black"/>
<path d="M201.475 33.2512C201.545 33.2806 201.623 33.2898 201.698 33.2777C201.753 33.2694 201.806 33.2504 201.854 33.2217C201.902 33.1929 201.943 33.1551 201.976 33.1102C202.009 33.0654 202.033 33.0145 202.047 32.9604C202.06 32.9063 202.063 32.8501 202.054 32.795C201.948 32.0975 201.271 30.8115 199.464 30.9469C199.353 30.9552 199.248 31.0076 199.175 31.0925C199.102 31.1775 199.065 31.2881 199.073 31.4001C199.081 31.512 199.134 31.6162 199.219 31.6895C199.304 31.7629 199.414 31.7996 199.526 31.7915C200.998 31.6826 201.21 32.8716 201.216 32.9216C201.226 32.9943 201.256 33.0629 201.301 33.1206C201.347 33.1784 201.406 33.2234 201.475 33.2512Z" fill="black"/>
<path d="M213.487 36.597L209.623 40.5729L208.422 39.7754L210.218 33.1743L213.487 36.597Z" fill="black"/>
<path d="M208.284 39.5361C208.498 39.3528 208.771 39.2544 209.052 39.2595C209.641 39.2595 210.597 39.4036 210.954 40.2541C211.474 41.499 208.735 43.1118 207.454 41.2253C207.454 41.2165 207.16 40.5161 208.284 39.5361Z" fill="#8E5E59"/>
<path d="M200.056 37.9476C200.212 38.1164 200.405 38.2465 200.62 38.3272C200.835 38.4079 201.066 38.4372 201.295 38.4126C201.311 38.4097 201.326 38.4038 201.34 38.395C201.354 38.3862 201.365 38.3747 201.375 38.3613C201.384 38.3479 201.391 38.3328 201.394 38.3169C201.397 38.3009 201.398 38.2844 201.395 38.2684C201.392 38.252 201.387 38.2364 201.378 38.2223C201.369 38.2082 201.358 38.196 201.344 38.1864C201.331 38.1768 201.316 38.17 201.3 38.1664C201.283 38.1628 201.267 38.1624 201.251 38.1653C200.995 38.1947 200.738 38.1399 200.517 38.0092C200.296 37.8785 200.123 37.6791 200.026 37.4414C199.97 37.3542 199.946 37.2501 199.959 37.1471C199.988 37.0647 200.126 37 200.318 36.9117C201.115 36.5722 201.768 35.964 202.163 35.193C202.179 35.164 202.183 35.1299 202.174 35.098C202.165 35.0661 202.144 35.0389 202.116 35.0223C202.101 35.0139 202.085 35.0084 202.069 35.0063C202.052 35.0041 202.035 35.0053 202.019 35.0096C202.003 35.014 201.988 35.0215 201.975 35.0318C201.961 35.042 201.95 35.0549 201.942 35.0694C201.574 35.7953 200.961 36.3676 200.212 36.6851C199.973 36.794 199.788 36.8793 199.723 37.0588C199.702 37.1412 199.698 37.227 199.711 37.311C199.724 37.395 199.754 37.4754 199.8 37.5473C199.866 37.6922 199.952 37.8269 200.056 37.9476Z" fill="black"/>
<path d="M202.26 40.2783C202.26 40.2783 199.391 39.4896 197.993 37.9739C197.993 37.9739 197.557 40.2518 199.076 41.0699C200.595 41.8881 202.26 40.2783 202.26 40.2783Z" fill="#FFF9F3"/>
<path d="M214.309 36.3856C214.71 36.0013 215.013 35.5258 215.191 34.9995C216.056 32.9074 216.34 30.6207 216.013 28.3808C215.907 27.6539 215.718 26.9093 215.197 26.3767C215.128 26.295 215.034 26.2381 214.93 26.2148C214.674 26.1824 214.526 26.4914 214.462 26.7416C214.306 27.3302 214.153 27.9188 214 28.4867C213.423 27.2595 212.728 26.0914 211.925 24.9993C211.111 23.9045 209.994 23.0734 208.711 22.6097C208.349 22.4949 207.905 22.4361 207.634 22.7039C207.266 23.0659 207.513 23.6809 207.772 24.1223C205.159 23.4396 202.366 22.7568 199.806 23.6161C199.453 23.7339 199.046 23.9634 199.046 24.3372C199.046 24.7109 199.411 24.9258 199.753 25.0082C200.101 25.0443 200.441 25.144 200.753 25.3025C200.335 25.5055 199.87 25.5261 199.417 25.6674C198.964 25.8086 198.534 26.1383 198.508 26.6003C198.476 27.3008 199.338 27.6392 200.024 27.7775L205.792 28.8576C205.518 29.2519 205.027 29.4196 204.653 29.7169C204.279 30.0141 204.041 30.6381 204.403 30.95C204.575 31.0698 204.781 31.1335 204.991 31.1325L209.294 31.6268C209.017 31.7919 208.795 32.0356 208.657 32.3269C208.518 32.6183 208.47 32.9441 208.517 33.2631C208.643 33.7897 208.93 34.264 209.338 34.6199C210.306 35.6028 212.975 37.501 214.309 36.3856Z" fill="black"/>
<path d="M200.938 27.7966C200.938 27.7966 199.608 28.0909 197.56 32.3611C197.56 32.3611 199.208 27.3581 199.97 27.0344C200.732 26.7107 200.938 27.7966 200.938 27.7966Z" fill="black"/>
<path d="M197.549 49.1627V51.829L198.938 52.4765L200.954 51.1345L199.7 49.1627H197.549Z" fill="#F10D0E"/>
<path d="M204.42 49.9258L204.029 48.0129L199.744 48.9693L197.928 45.2288L197.089 45.6467L196.609 49.4755L199.496 49.4108L200.953 51.718L204.42 49.9258Z" fill="#FFF9F3"/>
<path d="M197.549 51.8296L187.113 82.9454L189.62 91.4034L196.162 85.132L199.029 52.0297L197.549 51.8296Z" fill="#F10D0E"/>
</g>
<defs>
<clipPath id="clip0_793_31912">
<rect width="332" height="184.055" fill="white" transform="matrix(-1 0 0 1 332 0.315918)"/>
</clipPath>
</defs>
</svg>
