<svg width="17" height="16" viewBox="0 0 17 16" fill="none" xmlns="http://www.w3.org/2000/svg">
<path d="M15.8156 8.39672C16.1556 7.9918 16.3438 7.49568 16.3438 6.9795C16.3438 6.16055 15.8359 5.38536 15.0184 4.95308C14.8079 4.84181 14.5683 4.78325 14.3244 4.78346H9.47216L9.59356 2.54181C9.62189 2.0001 9.40943 1.48574 8.99665 1.09359C8.79407 0.900302 8.54968 0.746515 8.27856 0.641733C8.00745 0.53695 7.71537 0.483399 7.42039 0.484388C6.3682 0.484388 5.43742 1.12277 5.15819 2.03658L3.42005 7.70909H3.41398V15.5156H12.9707C13.1568 15.5156 13.3389 15.4828 13.5069 15.4171C14.47 15.0469 15.0912 14.1987 15.0912 13.2576C15.0912 13.0277 15.0548 12.8016 14.982 12.5827C15.3219 12.1778 15.5101 11.6817 15.5101 11.1655C15.5101 10.9357 15.4737 10.7095 15.4008 10.4906C15.7408 10.0857 15.9289 9.58959 15.9289 9.07341C15.9249 8.84359 15.8885 8.61559 15.8156 8.39672ZM0.15625 8.29275V14.932C0.15625 15.2548 0.445602 15.5156 0.80375 15.5156H2.11898V7.70909H0.80375C0.445602 7.70909 0.15625 7.96991 0.15625 8.29275Z" fill="#ACACAC"/>
</svg>
