<svg width="171" height="41" viewBox="0 0 171 41" fill="none" xmlns="http://www.w3.org/2000/svg">
<g clip-path="url(#clip0_790_28374)">
<path fill-rule="evenodd" clip-rule="evenodd" d="M33.95 0.731263C35.6313 1.13024 37.1296 2.0847 38.2035 3.44084C39.2774 4.79699 39.8644 6.47585 39.8698 8.20694V32.8497C39.8641 34.8844 39.0548 36.8342 37.6187 38.273C36.1826 39.7118 34.2365 40.5226 32.2055 40.5283H7.65894C6.65257 40.5283 5.65605 40.3297 4.72632 39.9438C3.79658 39.5578 2.95184 38.9922 2.24034 38.2792C1.52883 37.5661 0.964515 36.7196 0.57961 35.788C0.194705 34.8564 -0.00324234 33.858 -0.00292932 32.8497V8.20694C0.00272757 6.1726 0.811697 4.22316 2.24728 2.78443C3.68287 1.34571 5.62841 0.53462 7.65894 0.52832H32.2055C32.7928 0.528631 33.3782 0.596724 33.95 0.731263Z" fill="#FF8B00"/>
<path fill-rule="evenodd" clip-rule="evenodd" d="M9.40747 32.9678L13.7949 27.9777V15.3805C13.7955 14.8866 13.9915 14.413 14.3399 14.0635C14.6883 13.714 15.1607 13.5171 15.6537 13.5158H22.0454C23.0491 13.5177 24.0112 13.918 24.721 14.6291C25.4308 15.3402 25.8303 16.3041 25.8322 17.3097V19.7881C25.8285 20.7368 25.4506 21.6456 24.781 22.3164C24.1115 22.9872 23.2044 23.3658 22.2575 23.3696H19.2595L15.2629 27.9777H22.4624C24.5624 27.9739 26.5754 27.1366 28.0605 25.6491C29.5457 24.1616 30.382 22.1451 30.3864 20.0412V17.4005C30.3864 17.2413 30.3817 17.0885 30.3721 16.9421C30.2507 14.8478 29.3359 12.879 27.8144 11.4377C26.293 9.99643 24.2798 9.19139 22.186 9.18701H15.4702C13.8628 9.19017 12.3222 9.83147 11.1859 10.9704C10.0495 12.1094 9.40999 13.6531 9.40747 15.2635V32.9678Z" fill="white"/>
<path fill-rule="evenodd" clip-rule="evenodd" d="M15.4634 20.7466H19.3789L15.4634 25.3093V20.7466Z" fill="white"/>
<path fill-rule="evenodd" clip-rule="evenodd" d="M33.9498 0.731689V27.9507C33.9466 29.5961 33.2928 31.1733 32.1315 32.3368C30.9701 33.5003 29.3959 34.1554 27.7536 34.1585H0.108887C0.421953 35.9386 1.34969 37.5517 2.72983 38.7158C4.10997 39.8798 5.85466 40.5207 7.65874 40.5263H32.2053C34.2363 40.5207 36.1824 39.7099 37.6185 38.2711C39.0546 36.8323 39.8639 34.8825 39.8696 32.8477V8.20736C39.8642 6.47627 39.2772 4.79741 38.2033 3.44127C37.1294 2.08512 35.6311 1.13067 33.9498 0.731689Z" fill="url(#paint0_linear_790_28374)"/>
<path fill-rule="evenodd" clip-rule="evenodd" d="M9.40872 32.9672V15.2725C9.41124 13.6621 10.0507 12.1183 11.1871 10.9794C12.3235 9.84042 13.8641 9.19913 15.4715 9.19598H22.1872C24.2811 9.20035 26.2943 10.0054 27.8157 11.4467C29.3371 12.8879 30.2519 14.8568 30.3734 16.951C30.3829 17.1102 30.3877 17.263 30.3877 17.4094V20.0358C30.3833 22.1398 29.5469 24.1562 28.0618 25.6437C26.5766 27.1312 24.5637 27.9685 22.4637 27.9723H15.2642L19.2607 23.369H22.2516C23.1985 23.3652 24.1056 22.9867 24.7751 22.3158C25.4447 21.645 25.8226 20.7362 25.8263 19.7875V17.3091C25.8244 16.3035 25.4249 15.3396 24.7151 14.6285C24.0053 13.9174 23.0432 13.5171 22.0395 13.5152H15.655C15.162 13.5165 14.6895 13.7134 14.3411 14.0629C13.9927 14.4124 13.7968 14.886 13.7961 15.3799V27.9771L9.40872 32.9672ZM15.4596 25.3101L19.3775 20.7426H15.4596V25.3029V25.3101ZM0.11201 34.1611H27.7567C29.3991 34.1579 30.9733 33.5028 32.1346 32.3393C33.2959 31.1758 33.9498 29.5987 33.9529 27.9532V0.734207C33.3811 0.599668 32.7958 0.531561 32.2084 0.53125H7.66187C5.63175 0.537547 3.68657 1.34832 2.25105 2.78653C0.815535 4.22474 0.00628768 6.17357 2.4391e-06 8.20749V32.8503C-0.000348285 33.2896 0.0371253 33.7282 0.11201 34.1611Z" fill="#FF8B00"/>
</g>
<mask id="mask0_790_28374" style="mask-type:alpha" maskUnits="userSpaceOnUse" x="41" y="0" width="130" height="41">
<g clip-path="url(#clip1_790_28374)">
<path d="M50.5151 10.8232C53.027 10.8232 54.8588 11.339 56.0107 12.3704C57.1625 13.4019 57.7393 14.8464 57.7409 16.704C57.7449 17.5224 57.6128 18.3358 57.35 19.1107C57.0865 19.8739 56.6463 20.5636 56.0655 21.1235C55.3941 21.7524 54.5914 22.2238 53.7157 22.5035C52.5564 22.8705 51.3444 23.0424 50.129 23.0121H48.0533V30.3182H44.8599V10.8232H50.5151ZM50.303 13.4783H48.0533V20.3451H49.7954C50.6611 20.3642 51.5243 20.2449 52.3525 19.9917C52.9921 19.7984 53.5522 19.4031 53.9492 18.8648C54.3382 18.2575 54.5289 17.5441 54.495 16.8234C54.495 15.6964 54.1558 14.8567 53.4774 14.3044C52.799 13.7521 51.7408 13.4767 50.303 13.4783Z" fill="#444444"/>
<path d="M69.9674 15.2781C70.2057 15.2781 70.4845 15.2781 70.7776 15.3163C71.0328 15.3383 71.2866 15.3742 71.5379 15.4237L71.2328 18.3533C71.0083 18.2914 70.7786 18.2506 70.5465 18.2316C70.2772 18.2053 70.0341 18.1934 69.8315 18.1934C69.2876 18.1907 68.7473 18.2828 68.2348 18.4655C67.734 18.6436 67.2761 18.9251 66.8907 19.2917C66.4879 19.6794 66.174 20.1503 65.9708 20.6717C65.74 21.2815 65.6275 21.9298 65.6396 22.5818V30.301H62.489V15.5574H64.9365L65.3631 18.1575H65.5085C65.8047 17.6319 66.172 17.1499 66.6 16.725C67.0338 16.2895 67.5414 15.9346 68.099 15.6768C68.6849 15.4077 69.3229 15.2715 69.9674 15.2781Z" fill="#444444"/>
<path d="M77.0281 9.90436C77.4738 9.89381 77.9107 10.0297 78.2721 10.2912C78.6216 10.549 78.7972 10.9931 78.7988 11.6235C78.8004 12.2538 78.6248 12.6963 78.2721 12.951C77.9055 13.2075 77.4692 13.345 77.0221 13.345C76.575 13.345 76.1387 13.2075 75.7721 12.951C75.429 12.6883 75.2598 12.2347 75.2598 11.6235C75.2598 11.0122 75.429 10.549 75.7721 10.2912C76.1363 10.026 76.5782 9.88991 77.0281 9.90436ZM78.5724 15.5583V30.3186H75.448V15.5583H78.5724Z" fill="#444444"/>
<path d="M100.886 15.2778C102.537 15.2778 103.781 15.7044 104.618 16.5576C105.456 17.4108 105.875 18.7797 105.877 20.6643V30.3175H102.75V21.2183C102.75 20.104 102.532 19.2596 102.097 18.685C101.663 18.1167 101.001 17.8326 100.114 17.8326C98.8735 17.8326 97.9798 18.2305 97.4332 19.0264C96.8867 19.8223 96.6134 20.9755 96.6134 22.4861V30.3128H93.4867V21.2183C93.5043 20.5822 93.4074 19.9481 93.2007 19.3464C93.0412 18.8831 92.7349 18.4849 92.3285 18.2122C91.8834 17.9443 91.3699 17.8123 90.8509 17.8326C90.1198 17.795 89.3967 18.0007 88.7943 18.4176C88.2515 18.8595 87.8668 19.4662 87.698 20.1462C87.457 21.0572 87.3446 21.9975 87.3644 22.9398V30.3128H84.2377V15.5572H86.6733L87.1118 17.5437H87.2857C87.569 17.0463 87.952 16.613 88.4106 16.2711C88.8613 15.9351 89.3681 15.6821 89.9072 15.5238C90.4645 15.3609 91.0426 15.2804 91.6231 15.285C92.5827 15.2549 93.5357 15.4529 94.4042 15.8628C95.152 16.2436 95.7485 16.8673 96.0963 17.632H96.3346C96.7746 16.8511 97.4505 16.23 98.265 15.858C99.0857 15.4744 99.9807 15.2763 100.886 15.2778Z" fill="#444444"/>
<path d="M117.303 15.2805C118.481 15.2473 119.647 15.5274 120.682 16.0923C121.618 16.6289 122.373 17.4316 122.853 18.3987C123.386 19.5154 123.645 20.743 123.611 21.9802V23.6515H113.776C113.812 25.0841 114.196 26.1864 114.927 26.9584C115.658 27.7304 116.685 28.1164 118.008 28.1164C118.861 28.126 119.712 28.0347 120.544 27.8442C121.34 27.6458 122.117 27.3757 122.865 27.0372V29.5776C122.148 29.9174 121.394 30.1722 120.618 30.3369C119.714 30.5093 118.795 30.5893 117.875 30.5756C116.554 30.6034 115.247 30.3127 114.062 29.728C112.969 29.1672 112.073 28.286 111.493 27.2019C110.878 26.0877 110.57 24.6965 110.568 23.0283C110.566 21.3602 110.846 19.9618 111.407 18.8333C111.913 17.7378 112.734 16.8184 113.764 16.1925C114.838 15.5695 116.062 15.254 117.303 15.2805ZM117.303 17.6395C116.861 17.6219 116.42 17.6978 116.01 17.8624C115.599 18.027 115.228 18.2764 114.92 18.5945C114.31 19.2344 113.954 20.1727 113.847 21.4071H120.556C120.559 20.737 120.435 20.0725 120.189 19.4493C119.976 18.9073 119.604 18.4422 119.124 18.1146C118.578 17.7762 117.944 17.6106 117.303 17.6395Z" fill="#444444"/>
<path d="M134.269 30.5865C133.014 30.6178 131.77 30.3382 130.649 29.7724C129.616 29.2178 128.79 28.3434 128.294 27.2797C127.743 26.1654 127.467 24.7432 127.467 23.013C127.467 21.2175 127.769 19.7507 128.373 18.6126C128.922 17.5274 129.801 16.6446 130.882 16.0912C132.027 15.5322 133.289 15.254 134.562 15.2794C135.364 15.2712 136.164 15.3586 136.945 15.5397C137.572 15.6814 138.181 15.8937 138.761 16.1724L137.832 18.6794C137.288 18.4563 136.731 18.2689 136.163 18.1183C135.631 17.9682 135.082 17.888 134.529 17.8796C133.773 17.8519 133.026 18.0515 132.384 18.4526C131.786 18.8691 131.338 19.4678 131.106 20.1598C130.802 21.0653 130.66 22.0174 130.687 22.9724C130.662 23.9042 130.805 24.833 131.111 25.7134C131.349 26.3889 131.791 26.9732 132.377 27.3847C132.992 27.7782 133.711 27.9755 134.44 27.9506C135.174 27.9607 135.905 27.8618 136.609 27.6569C137.236 27.466 137.842 27.2116 138.418 26.8977V29.6172C137.856 29.9398 137.251 30.181 136.621 30.3335C135.849 30.5094 135.06 30.5943 134.269 30.5865Z" fill="#444444"/>
<path d="M148.835 15.2778C150.695 15.2778 152.104 15.6909 153.06 16.517C154.017 17.3431 154.493 18.6317 154.49 20.3826V30.3175H152.267L151.669 28.2236H151.564C151.188 28.7144 150.754 29.1577 150.272 29.5439C149.813 29.8982 149.291 30.1631 148.735 30.3247C148.043 30.5116 147.328 30.5992 146.611 30.5849C145.801 30.6022 144.997 30.4391 144.257 30.1074C143.573 29.7905 143.001 29.2715 142.62 28.6199C142.193 27.8462 141.985 26.9702 142.019 26.0867C142.019 24.5665 142.585 23.4244 143.716 22.6604C144.847 21.8964 146.558 21.4706 148.849 21.383L151.404 21.2899V20.5163C151.404 19.4944 151.166 18.7654 150.689 18.3292C150.212 17.8947 149.545 17.6774 148.685 17.6774C147.958 17.6762 147.235 17.784 146.54 17.9974C145.848 18.2107 145.172 18.4732 144.517 18.7829L143.506 16.5696C145.152 15.7185 146.978 15.2755 148.83 15.2778H148.835ZM151.39 23.2645L149.483 23.3313C147.923 23.3838 146.828 23.6505 146.197 24.1312C145.889 24.3571 145.642 24.655 145.476 24.9987C145.31 25.3424 145.23 25.7217 145.244 26.1034C145.244 26.834 145.46 27.364 145.894 27.6983C146.396 28.0512 147 28.2267 147.612 28.1973C148.594 28.2332 149.553 27.9031 150.305 27.2709C151.02 26.6517 151.378 25.7428 151.378 24.5442L151.39 23.2645Z" fill="#444444"/>
<path d="M167.529 15.278C167.767 15.278 168.046 15.278 168.339 15.3162C168.594 15.3382 168.848 15.3741 169.099 15.4236L168.806 18.3532C168.582 18.2913 168.352 18.2505 168.12 18.2315C167.848 18.2052 167.607 18.1933 167.405 18.1933C166.861 18.1906 166.321 18.2827 165.808 18.4654C165.307 18.6435 164.849 18.925 164.464 19.2916C164.061 19.6793 163.747 20.1502 163.544 20.6716C163.313 21.2814 163.201 21.9297 163.213 22.5817V30.3009H160.062V15.5573H162.51L162.936 18.1574H163.082C163.378 17.6318 163.745 17.1497 164.173 16.7249C164.607 16.2894 165.115 15.9345 165.672 15.6767C166.255 15.4093 166.888 15.2732 167.529 15.278Z" fill="#444444"/>
</g>
</mask>
<g mask="url(#mask0_790_28374)">
<rect x="42.9385" y="0.52832" width="131.075" height="40" fill="white"/>
</g>
<defs>
<linearGradient id="paint0_linear_790_28374" x1="19.9892" y1="0.941801" x2="19.9916" y2="34.1561" gradientUnits="userSpaceOnUse">
<stop stop-color="#FBD356"/>
<stop offset="1" stop-color="#F36C21"/>
</linearGradient>
<clipPath id="clip0_790_28374">
<rect width="39.9251" height="40" fill="white" transform="translate(0 0.52832)"/>
</clipPath>
<clipPath id="clip1_790_28374">
<rect width="129.568" height="40" fill="white" transform="translate(41.4318 0.52832)"/>
</clipPath>
</defs>
</svg>
