<svg width="171" height="40" viewBox="0 0 171 40" fill="none" xmlns="http://www.w3.org/2000/svg">
<g clip-path="url(#clip0_790_24020)">
<path fill-rule="evenodd" clip-rule="evenodd" d="M32.4631 0.202943C34.0709 0.601924 35.5036 1.55638 36.5304 2.91252C37.5573 4.26867 38.1185 5.94753 38.1237 7.67862V32.3214C38.1183 34.3561 37.3444 36.3059 35.9712 37.7447C34.598 39.1835 32.7371 39.9943 30.7951 40H7.32341C6.36111 40 5.40824 39.8014 4.51922 39.4154C3.6302 39.0295 2.82244 38.4639 2.1421 37.7508C1.46176 37.0378 0.922149 36.1913 0.5541 35.2597C0.186051 34.3281 -0.00322865 33.3296 -0.00292933 32.3214V7.67862C0.00247983 5.64428 0.776024 3.69484 2.14874 2.25611C3.52146 0.817385 5.3818 0.00630017 7.32341 0H30.7951C31.3567 0.000310747 31.9164 0.0684034 32.4631 0.202943Z" fill="#FF8B00"/>
<path fill-rule="evenodd" clip-rule="evenodd" d="M8.99548 32.4396L13.1908 27.4495V14.8523C13.1914 14.3584 13.3787 13.8848 13.7119 13.5353C14.045 13.1858 14.4968 12.9889 14.9682 12.9876H21.08C22.0398 12.9895 22.9597 13.3898 23.6384 14.1009C24.3171 14.812 24.6992 15.7759 24.701 16.7815V19.2599C24.6974 20.2086 24.3361 21.1174 23.6958 21.7882C23.0556 22.459 22.1882 22.8376 21.2828 22.8414H18.416L14.5945 27.4495H21.4788C23.4868 27.4457 25.4116 26.6084 26.8317 25.1209C28.2518 23.6334 29.0515 21.6169 29.0558 19.513V16.8723C29.0558 16.7131 29.0512 16.5603 29.0421 16.4139C28.926 14.3196 28.0512 12.3508 26.5964 10.9095C25.1416 9.46823 23.2166 8.66319 21.2144 8.65881H14.7928C13.2558 8.66197 11.7826 9.30327 10.696 10.4422C9.60937 11.5812 8.99789 13.1249 8.99548 14.7353V32.4396Z" fill="white"/>
<path fill-rule="evenodd" clip-rule="evenodd" d="M14.7861 20.2181H18.5302L14.7861 24.7809V20.2181Z" fill="white"/>
<path fill-rule="evenodd" clip-rule="evenodd" d="M32.4631 0.203369V27.4224C32.4601 29.0678 31.8349 30.645 30.7244 31.8085C29.6139 32.972 28.1087 33.6271 26.5382 33.6302H0.104126C0.403482 35.4103 1.29059 37.0234 2.61029 38.1875C3.93 39.3515 5.59828 39.9924 7.32337 39.998H30.795C32.737 39.9924 34.5979 39.1815 35.9711 37.7428C37.3444 36.304 38.1182 34.3542 38.1236 32.3194V7.67905C38.1185 5.94796 37.5572 4.26909 36.5304 2.91295C35.5035 1.5568 34.0708 0.60235 32.4631 0.203369Z" fill="url(#paint0_linear_790_24020)"/>
<path fill-rule="evenodd" clip-rule="evenodd" d="M8.99671 32.4393V14.7445C8.99911 13.1341 9.6106 11.5904 10.6972 10.4514C11.7838 9.31246 13.257 8.67118 14.794 8.66802H21.2156C23.2178 8.6724 25.1428 9.47743 26.5976 10.9187C28.0524 12.36 28.9272 14.3288 29.0433 16.423C29.0524 16.5822 29.057 16.735 29.057 16.8815V19.5079C29.0528 21.6118 28.2531 23.6283 26.8329 25.1158C25.4128 26.6033 23.488 27.4406 21.48 27.4444H14.5957L18.4173 22.841H21.2772C22.1826 22.8372 23.05 22.4587 23.6902 21.7879C24.3305 21.117 24.6918 20.2083 24.6954 19.2596V16.7812C24.6936 15.7756 24.3115 14.8116 23.6328 14.1006C22.9541 13.3895 22.0341 12.9891 21.0743 12.9872H14.9694C14.498 12.9885 14.0463 13.1854 13.7131 13.535C13.38 13.8845 13.1926 14.358 13.192 14.852V27.4491L8.99671 32.4393ZM14.7826 24.7821L18.5289 20.2146H14.7826V24.775V24.7821ZM0.107104 33.6331H26.5412C28.1116 33.6299 29.6169 32.9749 30.7274 31.8114C31.8379 30.6479 32.4631 29.0707 32.4661 27.4253V0.206253C31.9193 0.0717139 31.3596 0.00360665 30.798 0.0032959H7.32634C5.38513 0.00959293 3.52513 0.820365 2.15248 2.25858C0.779822 3.69679 0.00601234 5.64561 2.33229e-06 7.67954V32.3223C-0.000333034 32.7616 0.0354995 33.2002 0.107104 33.6331Z" fill="#FF8B00"/>
<path d="M48.3029 10.2946C50.7047 10.2946 52.4564 10.8103 53.5578 11.8417C54.6592 12.8732 55.2107 14.3177 55.2122 16.1753C55.216 16.9937 55.0897 17.8071 54.8385 18.582C54.5865 19.3452 54.1656 20.0349 53.6102 20.5948C52.9682 21.2237 52.2007 21.6951 51.3633 21.9748C50.2548 22.3419 49.0959 22.5137 47.9337 22.4834H45.9489V29.7896H42.8953V10.2946H48.3029ZM48.1 12.9496H45.9489V19.8164H47.6147C48.4425 19.8355 49.2679 19.7162 50.0598 19.4631C50.6714 19.2697 51.207 18.8744 51.5866 18.3361C51.9585 17.7289 52.1409 17.0154 52.1085 16.2947C52.1085 15.1677 51.7841 14.3281 51.1354 13.7757C50.4867 13.2234 49.4749 12.948 48.1 12.9496Z" fill="#444444"/>
<path d="M66.9033 14.7496C67.1312 14.7496 67.3978 14.7496 67.6781 14.7878C67.9221 14.8099 68.1648 14.8457 68.405 14.8953L68.1134 17.8249C67.8987 17.763 67.679 17.7222 67.4571 17.7031C67.1996 17.6768 66.9671 17.6649 66.7734 17.6649C66.2533 17.6622 65.7367 17.7543 65.2466 17.9371C64.7678 18.1152 64.3299 18.3966 63.9614 18.7632C63.5762 19.151 63.276 19.6219 63.0818 20.1433C62.861 20.753 62.7535 21.4014 62.765 22.0534V29.7726H59.7524V15.029H62.0928L62.5007 17.6291H62.6397C62.923 17.1035 63.2742 16.6214 63.6834 16.1965C64.0982 15.761 64.5835 15.4061 65.1167 15.1483C65.677 14.8793 66.287 14.7431 66.9033 14.7496Z" fill="#444444"/>
<path d="M73.655 9.37604C74.0812 9.36549 74.4989 9.50133 74.8445 9.76284C75.1787 10.0207 75.3466 10.4648 75.3481 11.0951C75.3497 11.7255 75.1818 12.168 74.8445 12.4227C74.494 12.6792 74.0768 12.8167 73.6493 12.8167C73.2218 12.8167 72.8045 12.6792 72.4541 12.4227C72.1259 12.16 71.9641 11.7064 71.9641 11.0951C71.9641 10.4839 72.1259 10.0207 72.4541 9.76284C72.8022 9.49768 73.2248 9.36159 73.655 9.37604ZM75.1316 15.03V29.7903H72.1441V15.03H75.1316Z" fill="#444444"/>
<path d="M96.4685 14.7494C98.047 14.7494 99.2365 15.176 100.037 16.0292C100.838 16.8823 101.239 18.2513 101.24 20.1359V29.7891H98.2505V20.6898C98.2505 19.5756 98.0424 18.7312 97.6262 18.1566C97.2114 17.5883 96.5779 17.3042 95.7302 17.3042C94.5437 17.3042 93.6891 17.7021 93.1665 18.498C92.6439 19.2939 92.3826 20.4471 92.3826 21.9577V29.7843H89.3929V20.6898C89.4096 20.0537 89.317 19.4196 89.1194 18.8179C88.9669 18.3547 88.674 17.9564 88.2854 17.6838C87.8597 17.4158 87.3687 17.2839 86.8725 17.3042C86.1733 17.2666 85.4819 17.4723 84.9059 17.8891C84.3869 18.3311 84.019 18.9378 83.8576 19.6178C83.6271 20.5287 83.5197 21.4691 83.5386 22.4113V29.7843H80.5488V15.0287H82.8778L83.2971 17.0153H83.4634C83.7343 16.5178 84.1005 16.0846 84.539 15.7427C84.97 15.4067 85.4546 15.1536 85.9701 14.9953C86.503 14.8324 87.0557 14.752 87.6108 14.7566C88.5284 14.7265 89.4397 14.9245 90.2702 15.3344C90.9852 15.7151 91.5556 16.3389 91.8881 17.1036H92.116C92.5368 16.3226 93.183 15.7015 93.9618 15.3296C94.7467 14.9459 95.6025 14.7478 96.4685 14.7494Z" fill="#444444"/>
<path d="M112.166 14.752C113.293 14.7189 114.408 14.999 115.397 15.5638C116.292 16.1005 117.014 16.9032 117.473 17.8703C117.983 18.987 118.231 20.2146 118.198 21.4517V23.1231H108.793C108.828 24.5556 109.195 25.6579 109.894 26.4299C110.593 27.2019 111.575 27.5879 112.841 27.5879C113.656 27.5976 114.47 27.5062 115.265 27.3157C116.027 27.1174 116.77 26.8473 117.485 26.5087V29.0492C116.799 29.389 116.078 29.6438 115.336 29.8084C114.472 29.9809 113.593 30.0609 112.713 30.0472C111.45 30.075 110.2 29.7843 109.067 29.1996C108.022 28.6388 107.165 27.7576 106.61 26.6735C106.022 25.5592 105.728 24.1681 105.726 22.4999C105.725 20.8317 105.992 19.4334 106.528 18.3048C107.012 17.2093 107.797 16.2899 108.782 15.6641C109.809 15.0411 110.98 14.7256 112.166 14.752ZM112.166 17.111C111.744 17.0934 111.322 17.1694 110.93 17.3339C110.537 17.4985 110.182 17.748 109.887 18.0661C109.304 18.7059 108.964 19.6443 108.862 20.8787H115.277C115.28 20.2086 115.161 19.544 114.926 18.9208C114.722 18.3789 114.367 17.9138 113.907 17.5861C113.386 17.2478 112.779 17.0822 112.166 17.111Z" fill="#444444"/>
<path d="M128.389 30.0581C127.189 30.0894 126 29.8097 124.928 29.2439C123.94 28.6894 123.15 27.8149 122.676 26.7512C122.149 25.637 121.885 24.2148 121.885 22.4845C121.885 20.689 122.174 19.2222 122.751 18.0841C123.277 16.9989 124.117 16.1162 125.151 15.5628C126.246 15.0038 127.452 14.7255 128.669 14.751C129.436 14.7428 130.201 14.8301 130.948 15.0113C131.548 15.153 132.13 15.3652 132.685 15.644L131.796 18.151C131.276 17.9279 130.743 17.7405 130.201 17.5899C129.692 17.4398 129.166 17.3595 128.637 17.3511C127.915 17.3235 127.2 17.523 126.587 17.9242C126.015 18.3407 125.586 18.9394 125.365 19.6313C125.074 20.5368 124.939 21.489 124.964 22.444C124.94 23.3758 125.077 24.3045 125.37 25.1849C125.597 25.8605 126.02 26.4447 126.58 26.8563C127.168 27.2498 127.856 27.4471 128.553 27.4222C129.254 27.4323 129.953 27.3333 130.627 27.1285C131.226 26.9376 131.806 26.6832 132.356 26.3692V29.0887C131.819 29.4114 131.24 29.6526 130.638 29.805C129.9 29.9809 129.146 30.0659 128.389 30.0581Z" fill="#444444"/>
<path d="M142.317 14.7494C144.096 14.7494 145.443 15.1625 146.358 15.9886C147.272 16.8147 147.728 18.1032 147.725 19.8542V29.7891H145.599L145.027 27.6951H144.926C144.567 28.186 144.152 28.6293 143.691 29.0155C143.252 29.3698 142.754 29.6346 142.222 29.7963C141.56 29.9832 140.876 30.0708 140.191 30.0565C139.416 30.0737 138.647 29.9106 137.94 29.579C137.285 29.262 136.739 28.743 136.374 28.0915C135.966 27.3177 135.767 26.4417 135.8 25.5582C135.8 24.0381 136.341 22.896 137.422 22.132C138.504 21.3679 140.14 20.9421 142.331 20.8546L144.774 20.7615V19.9879C144.774 18.966 144.546 18.2369 144.09 17.8008C143.634 17.3663 142.996 17.149 142.174 17.149C141.479 17.1477 140.787 17.2556 140.123 17.4689C139.461 17.6822 138.814 17.9447 138.188 18.2544L137.222 16.0411C138.796 15.1901 140.542 14.7471 142.313 14.7494H142.317ZM144.76 22.736L142.937 22.8029C141.445 22.8554 140.398 23.122 139.795 23.6027C139.501 23.8287 139.264 24.1265 139.105 24.4703C138.946 24.814 138.87 25.1932 138.883 25.5749C138.883 26.3055 139.09 26.8356 139.505 27.1699C139.985 27.5227 140.563 27.6983 141.148 27.6689C142.086 27.7047 143.004 27.3746 143.723 26.7425C144.407 26.1233 144.749 25.2144 144.749 24.0158L144.76 22.736Z" fill="#444444"/>
<path d="M160.193 14.7495C160.42 14.7495 160.687 14.7495 160.967 14.7877C161.211 14.8098 161.454 14.8456 161.694 14.8952L161.414 17.8248C161.199 17.7629 160.98 17.7221 160.758 17.703C160.498 17.6767 160.268 17.6648 160.074 17.6648C159.554 17.6621 159.037 17.7542 158.547 17.937C158.068 18.1151 157.631 18.3965 157.262 18.7631C156.877 19.1509 156.577 19.6218 156.382 20.1432C156.162 20.7529 156.054 21.4013 156.066 22.0533V29.7725H153.053V15.0289H155.393L155.801 17.629H155.94C156.224 17.1034 156.575 16.6213 156.984 16.1964C157.399 15.7609 157.884 15.406 158.417 15.1482C158.974 14.8809 159.58 14.7448 160.193 14.7495Z" fill="#444444"/>
</g>
<defs>
<linearGradient id="paint0_linear_790_24020" x1="19.1139" y1="0.413481" x2="19.1164" y2="33.6278" gradientUnits="userSpaceOnUse">
<stop stop-color="#FBD356"/>
<stop offset="1" stop-color="#F36C21"/>
</linearGradient>
<clipPath id="clip0_790_24020">
<rect width="171" height="40" fill="white"/>
</clipPath>
</defs>
</svg>
