<svg width="37" height="41" viewBox="0 0 37 41" fill="none" xmlns="http://www.w3.org/2000/svg">
<path fill-rule="evenodd" clip-rule="evenodd" d="M0.735352 0.950002C0.735352 0.425331 1.16068 0 1.68535 0L21.2354 0L36.6104 15.375V40.05C36.6104 40.5747 36.185 41 35.6604 41H1.68535C1.16068 41 0.735352 40.5747 0.735352 40.05V0.950002Z" fill="#F85640"/>
<path d="M10.125 27.3721C11.0462 27.3721 11.7184 27.5609 12.1416 27.9385C12.5648 28.3161 12.7764 28.8451 12.7764 29.5254C12.7764 29.8346 12.7275 30.1292 12.6299 30.4092C12.5355 30.6859 12.3792 30.9316 12.1611 31.1465C11.943 31.3581 11.6549 31.5257 11.2969 31.6494C10.9421 31.7731 10.5042 31.835 9.9834 31.835H9.22168V34.5107H8.0498V27.3721H10.125ZM10.0469 28.3438H9.22168V30.8584H9.86133C10.2292 30.8584 10.5417 30.8161 10.7988 30.7314C11.056 30.6436 11.2513 30.5052 11.3848 30.3164C11.5182 30.1276 11.585 29.8786 11.585 29.5693C11.585 29.1559 11.4596 28.8483 11.209 28.6465C10.9616 28.4447 10.5742 28.3438 10.0469 28.3438ZM20.498 30.873C20.498 31.6771 20.3483 32.3493 20.0488 32.8896C19.7493 33.4268 19.3148 33.832 18.7451 34.1055C18.1755 34.3757 17.4886 34.5107 16.6846 34.5107H14.7021V27.3721H16.8994C17.6383 27.3721 18.2764 27.5055 18.8135 27.7725C19.3506 28.0361 19.7656 28.4284 20.0586 28.9492C20.3516 29.4668 20.498 30.1081 20.498 30.873ZM19.2773 30.9072C19.2773 30.3213 19.1846 29.8395 18.999 29.4619C18.8167 29.0843 18.5465 28.8044 18.1885 28.6221C17.8337 28.4365 17.3958 28.3438 16.875 28.3438H15.874V33.5293H16.7041C17.5667 33.5293 18.2113 33.3096 18.6377 32.8701C19.0641 32.4307 19.2773 31.7764 19.2773 30.9072ZM23.6982 34.5107H22.5361V27.3721H26.5693V28.3584H23.6982V30.585H26.3838V31.5664H23.6982V34.5107Z" fill="white"/>
<path fill-rule="evenodd" clip-rule="evenodd" d="M21.2354 0L36.6104 15.375H22.1854C21.6607 15.375 21.2354 14.9497 21.2354 14.425V0Z" fill="#D13F2B"/>
</svg>
