<svg width="26" height="34" viewBox="0 0 26 34" fill="none" xmlns="http://www.w3.org/2000/svg">
<path d="M24.9927 25.8105C24.5825 25.1058 23.9279 24.5786 23.1547 24.3301L23.0607 24.3017C22.9476 24.2654 22.831 24.2416 22.7128 24.2308C22.1092 24.381 21.5412 24.6503 21.0417 25.0229C20.5422 25.3956 20.1212 25.8642 19.803 26.4017L19.3517 32.8814C19.2812 32.8814 19.3141 32.8814 19.3517 32.8814L19.3141 33.8274H19.6713C24.3111 33.8274 25.1808 29.8733 25.256 29.4713C25.6415 28.0004 25.5427 26.7659 24.9927 25.8105ZM6.34902 32.8814L5.87893 26.4159C5.47935 26.047 4.59088 24.3348 2.96908 24.2402C2.85139 24.2543 2.73505 24.278 2.62121 24.3112H2.5554C1.76496 24.5527 1.09374 25.0846 0.675042 25.801C0.115636 26.747 0.0263189 27.9909 0.411792 29.4619C0.487006 29.8592 1.35197 33.8179 5.99645 33.8179H6.35372L6.31611 32.872C6.38662 32.8814 6.41483 32.8814 6.34902 32.8814ZM9.24946 7.73821H10.1896V9.2801H8.59134V16.2896H17.1141V9.2801H15.5157V7.73821H16.4559C16.6943 7.73828 16.93 7.68783 17.1477 7.59014C17.3654 7.49245 17.5602 7.34971 17.7194 7.17123C17.8786 6.99274 17.9987 6.78251 18.0718 6.55423C18.1448 6.32595 18.1693 6.08474 18.1435 5.84631L17.7393 2.25645C17.6982 1.83332 17.5013 1.44096 17.1873 1.15651C16.8732 0.872054 16.4648 0.716093 16.0422 0.719286H9.65844C9.23745 0.717164 8.83078 0.872998 8.51786 1.15636C8.20493 1.43972 8.00822 1.83026 7.96612 2.25172L7.56184 5.85104C7.53609 6.08947 7.56055 6.33068 7.63363 6.55896C7.70671 6.78724 7.82677 6.99747 7.98598 7.17596C8.14519 7.35444 8.33999 7.49718 8.55769 7.59487C8.77539 7.69256 9.0111 7.74301 9.24946 7.74294V7.73821ZM14.5756 9.2801H11.1251V7.73821H14.5756V9.2801Z" fill="#FF8C00"/>
<path d="M22.5108 23.3079L22.6518 23.2747H22.8916C22.5155 20.9572 22.0266 17.1923 22.2476 14.2079C22.3516 13.6083 22.3341 12.9938 22.1959 12.4012C22.0578 11.8087 21.8019 11.2503 21.4437 10.7599C20.7151 9.85651 19.5634 9.34097 18.0544 9.27002V25.7248H7.6466V9.2984C6.12822 9.38353 4.9859 9.88488 4.25726 10.7883C3.89826 11.2784 3.64155 11.8365 3.5026 12.4291C3.36364 13.0216 3.34531 13.6364 3.44871 14.2362C3.66965 17.2207 3.18076 20.9856 2.80469 23.3031C2.82657 23.3053 2.84862 23.3053 2.8705 23.3031H3.03973C4.73675 23.4025 5.76155 24.722 6.33035 25.4504C6.39891 25.5489 6.47267 25.6437 6.5513 25.7342L6.80044 25.9802L6.85215 26.3585V26.6896L7.35045 33.7842H7.32224V33.8268H18.3693L18.4445 31.9349H18.4916L18.9005 26.1079L19.0228 25.9092C19.4021 25.2633 19.9062 24.7003 20.5052 24.2535C21.1043 23.8067 21.7862 23.4852 22.5108 23.3079Z" fill="#FF8C00"/>
<path d="M8.58594 17.2349H17.1134V24.7788H8.58594V17.2349Z" fill="#FF8C00"/>
</svg>
