<svg width="65" height="62" viewBox="0 0 65 62" fill="none" xmlns="http://www.w3.org/2000/svg">
<path d="M62.6246 0.888672H2.37537C1.33962 0.888672 0.5 1.72805 0.5 2.76367V59.2343C0.5 60.2698 1.33962 61.1093 2.37537 61.1093H62.6245C63.6602 61.1093 64.4999 60.2698 64.4999 59.2343V2.76367C64.5 1.72805 63.6604 0.888672 62.6246 0.888672ZM60.7491 8.41805H56.9689V4.63867H60.7491V8.41805ZM53.218 4.63867V8.41805H4.25087V4.63867H53.218ZM4.25087 57.3592V12.168H60.7491V57.3592H4.25087Z" fill="#FF8C00"/>
<path d="M51.343 25.359H48.6241L43.522 16.8575C43.3553 16.5799 43.1196 16.3501 42.8378 16.1906C42.556 16.0311 42.2377 15.9473 41.9139 15.9473H21.2032C20.8794 15.9472 20.5611 16.0311 20.2793 16.1906C19.9975 16.3501 19.7618 16.5799 19.5951 16.8575L14.4931 25.359H13.6572C10.555 25.359 8.03098 27.8823 8.03098 30.9838L8.0306 38.5276C8.01073 39.535 8.89848 40.4225 9.90598 40.4028H14.9425C15.7172 42.5935 17.8086 44.1679 20.2619 44.1679C22.7151 44.1679 24.8065 42.5936 25.5812 40.4028H39.4187C40.1935 42.5935 42.2849 44.1679 44.7381 44.1679C47.1914 44.1679 49.2827 42.5936 50.0575 40.4028H55.094C56.1297 40.4028 56.9694 39.5633 56.9694 38.5278V30.984C56.9694 27.8824 54.4454 25.359 51.343 25.359ZM44.25 25.359H34.3755V19.6973H40.8521L44.25 25.359ZM22.2651 19.6973H30.6245V25.359H18.8672L22.2651 19.6973ZM20.2619 40.4179C19.2196 40.4179 18.3717 39.5701 18.3717 38.5281C18.3717 37.4861 19.2196 36.6384 20.2619 36.6384C21.3041 36.6384 22.152 37.4861 22.152 38.5281C22.152 39.5701 21.3041 40.4179 20.2619 40.4179ZM44.7381 40.4179C43.6959 40.4179 42.848 39.5701 42.848 38.5281C42.848 37.4861 43.6959 36.6384 44.7381 36.6384C45.7804 36.6384 46.6282 37.4861 46.6282 38.5281C46.6282 39.5701 45.7804 40.4179 44.7381 40.4179ZM53.2185 36.6528H50.0572C49.2822 34.4624 47.1911 32.8884 44.7381 32.8884C42.2851 32.8884 40.194 34.4624 39.419 36.6528H25.581C24.806 34.4624 22.7149 32.8884 20.2619 32.8884C17.8089 32.8884 15.7177 34.4624 14.9427 36.6528H11.7815L11.7817 30.9839C11.7817 29.95 12.6231 29.109 13.6571 29.109H51.3429C52.377 29.109 53.2182 29.9501 53.2182 30.984V36.6528H53.2185ZM26.8516 48.8885H10.848C9.81223 48.8885 8.9726 49.728 8.9726 50.7635C8.9726 51.799 9.81223 52.6385 10.848 52.6385H26.8516C27.8874 52.6385 28.727 51.799 28.727 50.7635C28.727 49.728 27.8874 48.8885 26.8516 48.8885ZM54.152 48.8885H38.1484C37.1126 48.8885 36.273 49.728 36.273 50.7635C36.273 51.799 37.1126 52.6385 38.1484 52.6385H54.152C55.1877 52.6385 56.0274 51.799 56.0274 50.7635C56.0274 49.728 55.1877 48.8885 54.152 48.8885Z" fill="#FF8C00"/>
</svg>
