<svg width="459" height="350" viewBox="0 0 459 350" fill="none" xmlns="http://www.w3.org/2000/svg">
<mask id="mask0_796_34561" style="mask-type:luminance" maskUnits="userSpaceOnUse" x="42" y="37" width="375" height="300">
<path d="M278.516 321.089C378.185 284.636 437.034 195.072 409.959 121.043C382.883 47.0129 280.137 16.5508 180.467 53.0035C80.798 89.4563 21.9489 179.02 49.0243 253.05C76.0997 327.079 178.847 357.542 278.516 321.089Z" fill="white"/>
</mask>
<g mask="url(#mask0_796_34561)">
<path d="M596.478 4.11328H-112.912V287.133H596.478V4.11328Z" fill="url(#paint0_linear_796_34561)"/>
<path d="M596.478 283.543H-112.912V287.143H596.478V283.543Z" fill="white"/>
<path d="M596.478 287.143H-112.912V403.093H596.478V287.143Z" fill="url(#paint1_linear_796_34561)"/>
<g opacity="0.25">
<path d="M596.478 324.653V328.003L-112.912 327.093V325.563L596.478 324.653Z" fill="#564C62"/>
<path d="M596.478 299.624V300.644L-112.912 301.494V298.764L596.478 299.624Z" fill="#564C62"/>
</g>
<path opacity="0.25" d="M-112.912 325.563L596.478 324.653V322.533L-112.912 325.083V325.563Z" fill="white"/>
<path opacity="0.5" d="M-112.912 298.763L596.478 299.623L-112.912 297.863V298.763Z" fill="white"/>
<path opacity="0.25" d="M596.478 309.943V403.093H-112.912V287.133L-60.5721 327.173L-26.8721 351.663L50.3779 352.553L235.228 353.163H237.588L253.938 353.223L294.238 353.353L310.508 353.413H311.608L575.458 354.293L596.478 309.943Z" fill="white"/>
<path opacity="0.35" d="M411.877 37.4329L392.257 37.2729L297.937 36.5029L257.417 36.1729L223.247 35.8929L78.7773 34.7129L79.0673 45.2329L79.9373 77.9929L80.1873 87.2229L81.6673 142.363L83.4073 207.183H407.907L409.567 136.383L407.917 207.183H410.717L412.887 38.1329L411.877 37.4329Z" fill="#A3868E"/>
<path d="M403.778 32.9837L402.608 82.8737L399.808 202.734H75.3077L73.5577 137.914L72.0778 82.7737L71.8378 73.5437L70.9578 40.7837L70.6777 30.2637L215.138 31.4437L249.318 31.7237L289.828 32.0537L384.148 32.8237L403.778 32.9837Z" fill="#DF5829"/>
<path opacity="0.25" d="M402.608 82.8727L399.808 202.733H75.2981L73.5581 137.913L72.0781 82.7727L76.8281 74.4127L77.1781 73.8027L78.8481 70.8527L79.7281 69.3027L79.8381 73.3727L79.8681 74.6527L80.1081 83.5627L80.1681 85.5927L80.3881 93.7527L80.4681 96.5427L80.6581 103.943V103.953L80.7581 107.483L80.9581 115.093L81.1781 123.073L82.0281 155.213L82.2481 163.353L82.6881 179.433L82.8181 184.463L83.0381 192.423V192.573H392.028L392.348 179.193L392.898 155.403L393.358 135.803L393.768 118.363L393.848 115.093L394.078 105.203L394.178 101.083V101.033L394.348 93.5127L394.428 90.0927L394.618 81.8127L394.678 79.1427L394.898 70.1127L397.968 75.1927L402.608 82.8727Z" fill="white"/>
<path d="M398.957 36.7743L396.407 135.804L394.877 195.564L355.737 195.934L351.437 195.974L316.057 196.314H315.357L308.127 196.384L291.707 196.544L269.477 196.754L263.827 196.804L252.187 196.914L245.837 196.984L216.897 197.254L189.857 197.514L169.647 197.704L166.397 197.734L158.967 197.804L136.477 198.014L81.2675 198.544L81.2374 197.604L81.0875 193.004L79.8474 155.214L75.8975 34.9043L213.247 35.7043L247.457 35.8943L288.017 36.1343L382.437 36.6843L398.957 36.7743Z" fill="#EEFFFF"/>
<g opacity="0.5">
<path d="M396.408 135.804L394.878 195.564L355.738 195.934L351.448 195.974L316.058 196.314H315.368L308.138 196.384L269.478 196.754L263.828 196.804L252.198 196.914L245.838 196.974L189.858 197.514L169.648 197.704L158.968 197.804L81.2677 198.544L81.2377 197.614L81.0877 193.004L79.8477 155.214H103.718V140.644L131.608 136.824V114.214H169.648V186.294H210.898V120.424L231.058 126.274V134.894H245.838V84.0437H251.918V48.1737L252.958 48.9537L253.418 79.9137L263.828 84.5637V140.414H315.368V73.9237L334.778 76.4037V88.9237L351.448 93.7037V135.804H396.408Z" fill="url(#paint2_linear_796_34561)"/>
<path d="M351.447 93.7037V195.974L316.057 196.314L315.367 140.414V73.9237L334.777 76.4037V88.9237L351.447 93.7037Z" fill="#B0CFEE"/>
<path d="M355.737 135.804V195.934L351.447 195.974V135.804H355.737Z" fill="#91B2DD"/>
<path d="M269.478 140.414V196.754L263.828 196.804V140.414H269.478Z" fill="#91B2DD"/>
<path d="M315.368 140.414V196.314L308.138 196.384L315.368 140.414Z" fill="#91B2DD"/>
<path d="M169.647 114.214V197.704L158.967 197.804L81.2673 198.544L81.2373 197.614L104.197 190.714L103.717 155.214V140.644L131.607 136.824V114.214H169.647Z" fill="#B0CFEE"/>
<path d="M189.858 197.514L169.648 197.704L158.968 197.804V114.214H169.648V193.914L189.858 197.514Z" fill="#91B2DD"/>
<path d="M218.188 134.933H214.248V157.553H218.188V134.933Z" fill="#B0CFEE"/>
<path d="M135.948 147.733H111.558V155.383H135.948V147.733Z" fill="#91B2DD"/>
<path d="M324.188 102.754H318.308V183.614H324.188V102.754Z" fill="#91B2DD"/>
<path d="M304.548 151.304H272.878V157.554H304.548V151.304Z" fill="#B0CFEE"/>
<path d="M308.448 167.374H287.208V173.624H308.448V167.374Z" fill="#B0CFEE"/>
<path d="M240.078 168.943H218.838V175.193H240.078V168.943Z" fill="#B0CFEE"/>
<path d="M252.198 196.913L245.838 196.973V84.0428H251.918L252.198 196.913Z" fill="#B0CFEE"/>
<path d="M104.198 190.714L81.2379 197.614L81.0879 193.004L97.0978 188.254L98.4379 155.214H103.718L104.198 190.714Z" fill="#91B2DD"/>
</g>
<path d="M394.877 195.084V195.564L311.537 196.354L216.477 197.254L175.647 197.634L166.407 197.724L141.207 197.964L136.477 198.004L79.7574 198.544L75.8975 34.9141H77.5875L83.2274 196.074L137.307 195.904L142.127 195.894L167.167 195.804L176.467 195.774L217.187 195.654L311.987 195.344L394.877 195.084Z" fill="#B25146"/>
<path d="M403.778 32.9844L404.778 33.6844L402.608 202.734H399.808L403.778 32.9844Z" fill="#672338"/>
<g opacity="0.5">
<path d="M247.458 35.8931L180.678 186.293L177.898 192.573L176.738 195.173L176.468 195.773L167.168 195.803L142.128 195.893L143.598 192.573L158.968 157.953L169.648 133.913L213.248 35.7031L247.458 35.8931Z" fill="white"/>
<path d="M382.438 36.6828L351.438 106.483L324.188 167.863L318.307 181.103L315.938 186.443V186.453L315.357 187.733L313.218 192.573L311.987 195.343L217.188 195.653L218.557 192.573L226.278 175.193L229.047 168.943L244.167 134.893L245.838 131.133L251.997 117.253L263.828 90.6028L288.018 36.1328L382.438 36.6828Z" fill="white"/>
</g>
<path opacity="0.5" d="M596.478 3.58398H-114.242V402.374H596.478V3.58398Z" fill="#B17B84"/>
<path d="M596.478 309.944V300.644V299.624V287.144V283.544V7.54398V4.11398V3.58398H-114.242V402.384H-112.912V403.094H596.478V391.844V309.944Z" fill="#FFE5C6"/>
</g>
<path d="M269.888 282.715H411.157C412.647 282.715 413.857 281.505 413.857 280.015V194.855C413.857 193.365 412.647 192.155 411.157 192.155H269.888C268.398 192.155 267.188 193.365 267.188 194.855V280.015C267.188 281.505 268.398 282.715 269.888 282.715Z" fill="#FF8C00"/>
<path d="M265.117 282.715H406.387C407.877 282.715 409.087 281.505 409.087 280.015V194.855C409.087 193.365 407.877 192.155 406.387 192.155H265.117C263.627 192.155 262.417 193.365 262.417 194.855V280.015C262.417 281.505 263.627 282.715 265.117 282.715Z" fill="#EBD9C8"/>
<path d="M404.314 277.944V196.914L267.184 196.914V277.944H404.314Z" fill="#FAFCFD"/>
<path d="M267.185 277.952H404.315V275.482H267.185V277.952Z" fill="#FF8C00"/>
<path opacity="0.25" d="M364.187 275.285H372.347L337.207 196.915H329.037L364.187 275.285Z" fill="#E7ECF4"/>
<path opacity="0.25" d="M318.777 275.285H343.917L308.767 196.915H283.627L318.777 275.285Z" fill="#E7ECF4"/>
<path d="M269.651 278.008V196.838H267.181V278.008H269.651Z" fill="#FF8C00"/>
<path d="M77.1776 282.715H218.448C219.938 282.715 221.148 281.505 221.148 280.015V194.855C221.148 193.365 219.938 192.155 218.448 192.155H77.1776C75.6876 192.155 74.4776 193.365 74.4776 194.855V280.015C74.4676 281.505 75.6776 282.715 77.1776 282.715Z" fill="#FF8C00"/>
<path d="M72.3973 282.715H213.667C215.157 282.715 216.367 281.505 216.367 280.015V194.855C216.367 193.365 215.157 192.155 213.667 192.155H72.3973C70.9073 192.155 69.6973 193.365 69.6973 194.855V280.015C69.6973 281.505 70.9073 282.715 72.3973 282.715Z" fill="#EBD9C8"/>
<path d="M211.601 277.949L211.601 196.919L74.4706 196.919L74.4706 277.949H211.601Z" fill="#FAFCFD"/>
<path d="M74.4765 277.952H211.606V275.482H74.4765V277.952Z" fill="#FF8C00"/>
<path opacity="0.25" d="M171.467 275.285H179.637L144.487 196.915H136.327L171.467 275.285Z" fill="#E7ECF4"/>
<path opacity="0.25" d="M126.057 275.285H151.207L116.057 196.915H90.917L126.057 275.285Z" fill="#E7ECF4"/>
<path d="M76.9375 278.012L76.9375 196.842H74.4675L74.4675 278.012H76.9375Z" fill="#FF8C00"/>
<path d="M278.127 171.144C278.127 171.144 278.277 171.624 278.617 171.694C279.057 171.774 286.147 172.124 286.147 172.124L290.017 171.144H278.127Z" fill="#653701"/>
<path d="M293.827 173.294L292.167 173.284L289.197 173.264L289.787 167.814C291.317 168.014 292.837 168.134 294.317 168.194C294.627 168.204 294.947 168.214 295.257 168.224C295.217 168.354 294.067 171.174 293.827 173.294Z" fill="#AB5E27"/>
<path d="M293.578 173.294L292.168 173.284C291.978 170.674 293.748 168.944 294.328 168.194C294.608 168.204 294.888 168.214 295.158 168.214C294.748 168.774 293.658 170.424 293.578 173.294Z" fill="#653701"/>
<path d="M362.677 304.225L362.637 305.524L362.587 307.234L362.387 314.124L356.207 314.404L355.677 307.274L355.587 306.005L355.507 304.984L355.457 304.225H362.677Z" fill="#AB5E27"/>
<path d="M364.908 318.914L363.948 331.994H363.108L362.268 323.454L364.908 318.914Z" fill="#433545"/>
<path d="M336.768 245.205C336.778 245.175 347.608 215.105 351.538 177.055H323.308C316.828 204.545 315.978 245.175 315.978 245.205L317.718 248.485C317.718 248.485 323.848 273.165 327.888 302.585C328.088 304.055 328.288 305.525 328.478 307.015C332.008 307.505 336.208 306.945 337.518 306.745C337.588 305.275 337.678 303.835 337.788 302.425C338.978 286.975 342.268 274.885 341.838 264.035C339.048 251.565 336.768 245.205 336.768 245.205Z" fill="#433545"/>
<path d="M363.177 300.895C363.077 302.355 362.997 303.855 362.947 305.405C360.257 306.505 356.307 306.105 354.827 305.915C354.637 304.345 354.437 302.795 354.227 301.255C350.187 271.275 343.687 247.395 343.687 247.395L341.947 244.115C335.197 203.905 335.297 195.735 335.297 195.735C335.297 195.735 332.427 186.535 332.427 177.055H361.257C361.257 177.055 364.287 181.275 365.817 187.865C366.177 189.415 366.457 191.095 366.587 192.875C366.587 192.925 366.577 192.985 366.577 193.035C365.817 206.865 364.857 219.605 364.097 228.905C363.327 238.235 362.757 244.105 362.757 244.115C362.757 244.115 365.037 250.475 367.817 262.935C368.247 274.285 364.307 285.015 363.177 300.895Z" fill="#59465C"/>
<path d="M337.507 306.734C337.477 307.324 337.457 307.914 337.437 308.504C337.377 310.324 337.347 312.194 337.367 314.114H330.787C330.877 312.254 330.717 310.004 330.587 308.544C330.507 307.614 330.427 307.004 330.427 307.004C330.427 307.004 336.197 306.934 337.507 306.734Z" fill="#AB5E27"/>
<path d="M339.386 320.064L338.166 331.994H337.076L336.146 322.594L339.386 320.064Z" fill="#433545"/>
<path d="M338.807 321.264C336.847 322.954 333.217 328.054 329.847 331.994H318.627L318.167 330.674C317.747 329.484 318.407 328.184 319.617 327.824L320.737 327.494L325.077 326.204L330.797 314.124H337.387C338.497 315.834 339.187 317.774 339.397 319.804C339.437 320.354 339.227 320.904 338.807 321.264Z" fill="#433545"/>
<path d="M363.437 305.184C363.277 305.264 363.117 305.344 362.947 305.404C362.937 305.414 362.917 305.414 362.907 305.424C360.597 306.354 357.377 306.194 355.577 306.004C355.287 305.974 355.027 305.944 354.827 305.914C354.457 305.864 354.237 305.824 354.237 305.824C354.237 305.824 353.897 304.484 353.897 301.304C354.007 301.284 354.107 301.274 354.217 301.254C358.597 300.614 361.897 300.784 363.167 300.894C363.537 300.924 363.737 300.954 363.737 300.954C363.737 300.954 364.037 303.254 363.437 305.184Z" fill="#383D4C"/>
<path d="M337.917 306.674C337.917 306.674 337.767 306.694 337.507 306.744C336.197 306.944 331.987 307.504 328.467 307.014C328.327 306.994 328.197 306.974 328.057 306.954C327.347 304.584 327.557 302.654 327.557 302.654C327.557 302.654 327.667 302.634 327.867 302.594C329.057 302.364 333.407 301.644 337.767 302.424C337.907 302.444 338.047 302.474 338.177 302.504C338.537 304.884 337.917 306.674 337.917 306.674Z" fill="#2B2F3B"/>
<path d="M333.097 171.054C333.097 171.054 331.467 173.284 327.157 174.934C324.107 176.104 315.868 176.564 304.648 175.734C304.648 175.734 304.648 175.734 304.628 175.734C304.478 175.724 303.298 175.674 293.828 175.224C293.708 174.844 293.618 174.474 293.578 174.104C293.468 173.324 293.508 172.564 293.638 171.874C293.678 171.624 293.727 171.384 293.787 171.154C294.187 169.664 294.907 168.564 295.157 168.214C295.187 168.164 295.217 168.134 295.237 168.114C310.827 168.464 323.537 162.084 326.997 163.284C330.847 164.624 333.097 171.054 333.097 171.054Z" fill="#9E6262"/>
<path d="M355.737 90.834C355.737 90.834 360.567 99.034 357.507 104.954C354.437 110.874 345.607 107.614 345.607 107.614L344.007 99.664C344.007 99.664 344.707 95.754 345.337 95.294C345.967 94.854 355.737 90.834 355.737 90.834Z" fill="#0D0D0D"/>
<path d="M328.827 119.414C328.827 119.414 323.997 123.364 323.707 126.984C322.897 136.954 321.417 164.074 321.417 164.074L329.617 164.674L334.027 126.074L328.827 119.414Z" fill="#9E6262"/>
<path d="M342.737 111.445L335.077 130.625L327.177 135.725C327.177 135.725 327.167 131.335 327.527 126.915C327.767 124.025 328.167 121.115 328.827 119.415C330.687 117.325 332.637 115.365 334.137 113.915C335.397 112.695 336.347 111.825 336.657 111.545C336.727 111.475 336.777 111.435 336.777 111.435H342.737V111.445Z" fill="#BDBDEF"/>
<path d="M350.867 111.444H347.787C346.027 112.904 343.177 114.474 338.747 115.094L336.537 117.454L337.107 114.504C337.107 114.504 336.467 113.544 336.617 111.884C336.617 111.884 336.617 111.884 336.617 111.874C336.667 111.734 336.717 111.584 336.767 111.444C337.647 110.214 338.287 108.774 338.747 107.194C338.877 106.744 338.997 106.284 339.097 105.814C339.217 105.244 339.327 104.664 339.407 104.064C340.707 95.2138 337.877 84.4238 337.877 84.4238H349.897C349.897 84.4238 349.367 92.3238 349.667 100.384C349.797 103.974 350.097 107.604 350.677 110.574C350.747 110.884 350.807 111.164 350.867 111.444Z" fill="#AB5E27"/>
<path d="M361.257 177.055C346.947 181.335 337.707 181.585 331.927 180.645C330.657 180.435 329.547 180.175 328.597 179.885C324.687 178.695 323.317 177.055 323.317 177.055C323.317 177.055 324.057 175.485 324.827 172.565C325.597 169.655 326.397 165.395 326.517 160.015C326.797 152.295 326.637 143.085 326.377 143.435C326.267 143.295 326.157 143.165 326.057 143.025C322.707 138.575 323.027 132.375 326.577 128.075C328.397 125.875 330.447 123.505 332.377 120.525C332.517 120.315 332.657 120.095 332.787 119.875C333.587 118.585 334.357 117.195 335.087 115.645C335.637 114.475 336.157 113.225 336.637 111.875C336.497 113.535 337.127 114.495 337.127 114.495L336.557 117.445L338.767 115.085C343.187 114.465 346.037 112.895 347.807 111.435H350.887C350.887 111.435 351.347 111.645 352.087 111.975C354.147 112.925 358.337 114.925 360.407 116.435C366.597 132.505 356.257 146.475 356.797 159.995C357.877 174.225 361.257 177.055 361.257 177.055Z" fill="#D5D4F4"/>
<path d="M332.777 119.874C332.767 119.884 332.777 119.884 332.777 119.874C332.677 120.634 327.017 163.134 331.927 180.644C330.657 180.434 329.547 180.174 328.597 179.884C327.227 161.054 327.447 136.934 332.357 120.524C332.417 120.314 332.487 120.104 332.547 119.884C332.697 119.884 332.777 119.874 332.777 119.874Z" fill="#BDBDEF"/>
<path d="M350.687 110.594L349.437 111.444L347.857 112.524C347.857 112.524 348.007 112.164 348.197 111.444C348.497 110.294 348.907 108.244 348.997 105.344C346.457 106.214 339.267 107.534 339.267 107.534C339.267 107.534 339.177 106.664 339.097 105.824C339.017 105.074 338.947 104.344 338.947 104.294C338.947 104.274 339.117 104.204 339.417 104.084C340.987 103.454 345.957 101.664 346.067 101.474C346.187 101.274 349.087 100.554 349.677 100.414C349.817 103.994 350.107 107.624 350.687 110.594Z" fill="#653701"/>
<path d="M327.927 154.624C327.717 163.794 328.057 172.984 328.677 181.114C328.807 182.784 328.947 184.414 329.097 185.994C329.107 186.104 329.117 186.224 329.127 186.334C328.987 186.414 328.847 186.494 328.707 186.574C324.867 188.644 320.617 186.924 320.617 186.924C320.617 186.924 320.657 181.464 323.287 172.934C323.377 172.634 323.467 172.334 323.547 172.044C325.397 165.814 326.017 160.744 325.697 154.694C325.597 152.754 325.387 150.704 325.107 148.484C324.927 147.094 324.717 145.634 324.467 144.094C322.987 134.824 322.297 129.064 328.187 120.304C328.387 120.014 328.587 119.714 328.797 119.414C330.457 117.074 335.167 112.894 335.317 112.764C334.257 114.904 333.327 117.294 332.527 119.884C329.917 128.274 328.577 138.774 328.087 149.584C328.027 150.814 327.977 152.044 327.947 153.284C327.947 153.734 327.937 154.184 327.927 154.624Z" fill="#B9796D"/>
<path d="M366.577 187.625C364.697 188.185 362.857 188.675 361.047 189.075C351.067 191.315 342.277 191.025 335.167 185.655C334.987 185.505 334.787 185.365 334.607 185.215C332.987 175.795 331.907 165.595 331.717 156.345C331.707 155.905 331.707 155.485 331.707 155.055C331.687 153.645 331.697 152.265 331.717 150.905C331.777 148.145 331.927 145.505 332.187 143.055C332.627 138.925 333.367 135.295 334.427 132.445C334.597 132.025 334.767 131.605 334.937 131.225C339.687 120.675 352.057 111.965 352.057 111.965C352.057 111.965 357.227 114.095 360.377 116.425C361.057 117.715 361.597 119.035 362.017 120.375C362.407 121.615 362.667 122.875 362.867 124.155C364.687 136.405 358.517 150.525 358.517 161.905V162.475C358.527 162.965 358.537 163.425 358.567 163.865C358.577 164.245 358.607 164.595 358.627 164.945C358.707 166.125 358.847 167.205 359.007 168.195C359.067 168.525 359.117 168.835 359.187 169.145C359.367 170.095 359.597 170.955 359.837 171.755C359.997 172.285 360.167 172.795 360.357 173.295C361.897 177.335 364.047 179.955 365.527 183.955C365.627 184.225 365.717 184.505 365.817 184.795C365.897 185.065 365.987 185.315 366.067 185.595C366.267 186.245 366.437 186.915 366.577 187.625Z" fill="#B9796D"/>
<path d="M340.557 115.995L340.307 116.085L336.547 117.445L338.757 115.085L339.397 115.405C339.407 115.405 339.417 115.415 339.417 115.415L340.557 115.995Z" fill="#BDBDEF"/>
<path d="M352.067 111.984C347.387 117.594 341.827 117.924 341.827 117.924C341.827 117.924 341.247 116.944 340.297 116.084C340.027 115.844 339.737 115.624 339.417 115.424C339.407 115.424 339.397 115.414 339.397 115.414C339.187 115.294 338.977 115.184 338.757 115.094C343.177 114.474 346.027 112.904 347.797 111.444C349.697 109.874 350.337 108.444 350.337 108.444C350.337 108.444 351.777 109.044 352.067 111.984Z" fill="#DDDDF6"/>
<path d="M337.117 114.505L336.547 117.455L335.507 115.385L335.347 115.065L337.087 114.525C337.107 114.505 337.117 114.505 337.117 114.505Z" fill="#BDBDEF"/>
<path d="M338.757 107.194C338.297 108.764 337.657 110.214 336.777 111.444C336.777 111.444 336.737 111.474 336.657 111.554C336.827 110.374 337.377 108.904 338.757 107.194Z" fill="#BDBDEF"/>
<path d="M337.117 114.504C337.117 114.504 337.107 114.504 337.087 114.514C336.987 114.554 336.557 114.734 335.507 115.374C335.377 115.454 335.227 115.544 335.077 115.644C334.917 115.744 334.747 115.854 334.567 115.974C334.317 115.234 334.187 114.554 334.147 113.914C333.817 109.134 338.617 107.244 338.757 107.194C337.387 108.894 336.827 110.374 336.667 111.544C336.647 111.654 336.637 111.764 336.627 111.864C336.627 111.864 336.627 111.864 336.627 111.874C336.477 113.534 337.117 114.504 337.117 114.504Z" fill="#DDDDF6"/>
<path d="M361.177 77.4445C359.727 80.2945 356.107 81.3545 353.107 79.8245C350.107 78.2945 348.847 74.7345 350.297 71.8945C351.747 69.0445 355.367 67.9845 358.367 69.5145C361.367 71.0445 362.627 74.5945 361.177 77.4445Z" fill="#0D0D0D"/>
<path d="M335.777 74.8242C335.777 74.8242 327.747 77.1742 328.357 90.1042C328.527 93.7142 324.617 98.7242 326.267 103.244C327.417 105.754 329.277 105.914 329.277 105.914C329.277 105.914 325.947 103.404 327.367 98.9442C328.797 94.4842 332.417 91.9942 332.607 86.2042C332.797 80.3942 335.777 74.8242 335.777 74.8242Z" fill="#0D0D0D"/>
<path d="M355.467 93.7535L353.267 96.3735L352.077 97.7935L351.817 98.1035C350.787 102.274 348.327 104.364 341.917 106.634C341.017 106.954 340.047 107.274 338.987 107.604L338.207 107.504L335.177 107.114C332.007 104.684 330.477 101.694 329.787 98.8335C329.357 97.0435 329.247 95.2935 329.287 93.7635C329.317 92.5035 329.427 91.3835 329.527 90.5135C329.537 90.4135 329.547 90.3135 329.557 90.2135C329.627 89.5135 329.717 88.8335 329.817 88.1835C329.937 87.4035 330.087 86.6635 330.247 85.9435C331.247 81.6035 332.977 78.5035 335.137 76.4835C338.037 73.7535 341.707 72.9735 345.367 73.7135C350.347 74.7235 351.817 75.6735 353.707 77.0735C357.817 80.1135 357.297 86.2235 355.467 93.7535Z" fill="#AB5E27"/>
<path opacity="0.5" d="M334.347 89.5254C334.537 90.1554 334.657 90.8054 334.737 91.4654C334.817 92.1254 334.847 92.7854 334.817 93.4454C334.797 93.7754 334.767 94.1054 334.707 94.4354C334.647 94.7654 334.587 95.0854 334.477 95.4054C334.377 95.7254 334.247 96.0354 334.097 96.3254C333.937 96.6154 333.747 96.8954 333.527 97.1354C333.917 96.6054 334.197 96.0054 334.367 95.3754C334.537 94.7454 334.637 94.0954 334.667 93.4454C334.707 92.7954 334.677 92.1354 334.627 91.4854C334.597 91.1554 334.567 90.8354 334.517 90.5054C334.457 90.1754 334.407 89.8454 334.347 89.5254Z" fill="#653701"/>
<path d="M356.118 93.3438C356.118 93.3438 355.478 93.9637 353.888 94.6337C353.228 94.9137 352.398 95.2038 351.378 95.4638C350.738 95.6238 350.098 95.3437 349.748 94.8337C349.608 94.6237 349.508 94.3738 349.478 94.1038C348.538 84.6538 340.848 88.1738 338.988 78.5438C336.298 78.9038 333.278 78.5737 330.678 84.3137C330.898 76.4737 335.278 73.8337 343.078 72.7337C345.608 72.3737 348.508 72.1837 351.738 72.0237C352.068 72.0037 352.398 72.0337 352.718 72.0937C353.458 72.2437 354.138 72.5937 354.678 73.1337C362.698 81.0737 356.118 93.3438 356.118 93.3438Z" fill="#161616"/>
<path d="M356.887 94.8041C356.867 95.6641 354.137 99.1941 352.307 99.1941C352.237 99.1841 352.167 99.1741 352.097 99.1641C351.907 99.1241 351.727 99.0741 351.567 99.0041C350.707 98.6441 350.277 97.9441 350.277 97.9441C350.277 97.9441 350.057 96.4341 350.517 94.7741C350.647 94.2841 350.847 93.7741 351.117 93.2841C351.117 93.2841 351.137 93.2441 351.187 93.1641C351.197 93.1541 351.207 93.1341 351.217 93.1241C351.367 92.8941 351.657 92.4741 352.057 92.0941C352.077 92.0741 352.107 92.0441 352.127 92.0241C352.157 92.0041 352.177 91.9741 352.207 91.9541C352.227 91.9341 352.257 91.9141 352.277 91.8941C352.307 91.8741 352.327 91.8541 352.357 91.8341C352.407 91.7941 352.467 91.7541 352.517 91.7141C352.547 91.6941 352.577 91.6741 352.607 91.6541C352.637 91.6441 352.657 91.6241 352.687 91.6141C352.717 91.5941 352.747 91.5841 352.777 91.5741C352.947 91.4941 353.117 91.4341 353.307 91.4241C353.347 91.4141 353.387 91.4141 353.427 91.4141C354.047 91.6041 354.697 92.0041 355.257 92.4941C355.577 92.7641 355.867 93.0541 356.107 93.3441C356.587 93.9041 356.897 94.4541 356.887 94.8041Z" fill="#AB5E27"/>
<path d="M352.207 98.5245C351.827 98.5245 351.247 98.4245 351.007 97.8745C350.567 96.6345 350.757 95.0145 351.457 93.9345C351.867 93.3045 352.407 92.9345 352.997 92.8845C354.657 92.7545 355.757 93.7945 355.807 93.8445C355.837 93.8745 355.837 93.9245 355.807 93.9545C355.777 93.9845 355.727 93.9845 355.697 93.9545C355.687 93.9445 354.597 92.9145 353.007 93.0345C352.317 93.0845 351.857 93.5945 351.587 94.0145C350.907 95.0545 350.727 96.6245 351.147 97.8145C351.467 98.5545 352.527 98.3445 352.547 98.3445C352.587 98.3345 352.627 98.3645 352.637 98.4045C352.647 98.4445 352.617 98.4845 352.577 98.4945C352.567 98.4945 352.417 98.5245 352.207 98.5245Z" fill="#653701"/>
<path d="M350.978 97.5945C350.958 97.5945 350.938 97.5845 350.928 97.5745C350.898 97.5445 350.898 97.4945 350.928 97.4645C350.968 97.4245 352.008 96.4445 353.848 96.6145C353.888 96.6145 353.918 96.6545 353.918 96.6945C353.918 96.7345 353.878 96.7645 353.838 96.7645C352.068 96.5945 351.048 97.5645 351.038 97.5745C351.018 97.5945 350.998 97.5945 350.978 97.5945Z" fill="#653701"/>
<path opacity="0.5" d="M336.977 87.7138C336.977 87.7138 336.297 89.6738 336.357 92.1438C338.667 92.7438 342.557 91.5238 342.557 91.5238L343.627 88.2138L342.427 86.6438L340.937 86.4238C340.937 86.4238 339.477 86.5638 339.397 86.6138C339.307 86.6438 336.977 87.7138 336.977 87.7138Z" fill="#653701"/>
<path opacity="0.5" d="M334.497 92.1342C334.497 92.1342 332.987 91.8542 332.657 91.8442C332.317 91.8342 331.647 91.9642 329.667 91.1942C329.597 90.9642 329.567 90.6142 329.567 90.2342C329.637 89.5342 329.727 88.8542 329.827 88.2042L330.167 88.0742H331.767C331.767 88.0742 333.247 88.3342 334.167 89.0042C334.417 89.9642 334.497 92.1342 334.497 92.1342Z" fill="#653701"/>
<path opacity="0.5" d="M336.468 98.355C336.468 98.945 335.677 99.185 334.427 99.185C333.407 99.185 332.438 98.425 332.438 97.965C332.438 97.505 333.727 97.085 334.747 97.085C335.967 97.095 336.468 97.735 336.468 98.355Z" fill="#653701"/>
<path d="M336.117 97.8945C336.117 98.3545 335.287 98.7245 334.267 98.7245C333.247 98.7245 332.417 98.3545 332.417 97.8945C332.417 97.4345 333.247 97.0645 334.267 97.0645C335.287 97.0645 336.117 97.4345 336.117 97.8945Z" fill="#653701"/>
<path d="M334.497 92.1239C334.407 92.1439 333.417 92.4039 332.537 92.6039C332.287 92.6639 332.027 92.6939 331.767 92.7139C331.387 92.7339 331.007 92.7239 330.627 92.6539H330.617C330.197 92.5839 329.837 92.2839 329.727 91.8639C329.727 91.8539 329.717 91.8439 329.717 91.8239C329.677 91.6439 329.647 91.4539 329.647 91.2739C329.647 91.2339 329.647 91.2039 329.657 91.1639C329.657 91.1239 329.657 91.0738 329.667 91.0338C329.667 90.9838 329.677 90.9239 329.687 90.8739V90.8639C329.777 90.4239 330.237 90.1239 330.677 90.0839C332.007 89.9739 334.017 90.5339 334.417 91.7739C334.477 91.9139 334.487 92.0439 334.497 92.1239Z" fill="white"/>
<path d="M329.688 90.8745C329.717 90.6245 329.897 90.3945 330.107 90.2445C330.317 90.0945 330.597 90.0245 330.847 90.0245C331.357 89.9945 331.877 90.0645 332.367 90.1745C332.857 90.3145 333.348 90.5045 333.758 90.8245C334.168 91.1345 334.487 91.6045 334.487 92.1245C334.417 91.6145 334.088 91.1945 333.688 90.9245C333.287 90.6345 332.808 90.4545 332.328 90.3345C331.848 90.2045 331.347 90.1445 330.847 90.1545C330.597 90.1445 330.358 90.1945 330.148 90.3245C329.938 90.4345 329.758 90.6345 329.688 90.8745Z" fill="#EA9181"/>
<path d="M342.558 91.0546C342.558 91.2946 342.528 91.5346 342.468 91.7646C342.468 91.7846 342.458 91.7946 342.458 91.8146C342.318 92.3546 341.858 92.7346 341.318 92.8246H341.298C340.818 92.9046 340.328 92.9246 339.838 92.8946C339.808 92.8946 339.768 92.8846 339.728 92.8846C339.428 92.8646 339.138 92.8146 338.848 92.7546C337.798 92.5146 336.618 92.2146 336.388 92.1546C336.368 92.1546 336.358 92.1446 336.358 92.1446H336.348C336.368 92.0346 336.378 91.8746 336.428 91.7046C336.938 90.1146 339.518 89.4046 341.218 89.5446C341.788 89.5846 342.378 89.9746 342.488 90.5446C342.488 90.5446 342.488 90.5446 342.488 90.5546C342.498 90.6246 342.518 90.6946 342.518 90.7646C342.528 90.8146 342.528 90.8746 342.528 90.9346C342.558 90.9646 342.558 91.0146 342.558 91.0546Z" fill="white"/>
<path d="M336.407 92.1544L336.377 92.1443H336.367C336.377 91.8243 336.477 91.4944 336.647 91.2144C336.817 90.9344 337.047 90.6844 337.317 90.4944C337.837 90.0844 338.467 89.8543 339.087 89.6743C339.727 89.5243 340.377 89.4343 341.027 89.4743C341.347 89.4743 341.697 89.5643 341.967 89.7543C342.237 89.9443 342.457 90.2244 342.507 90.5444C342.427 90.2244 342.197 89.9743 341.927 89.8143C341.657 89.6543 341.347 89.5844 341.017 89.5944C340.377 89.5844 339.737 89.6644 339.117 89.8244C338.497 89.9844 337.897 90.2244 337.377 90.5944C337.117 90.7744 336.887 91.0044 336.707 91.2644C336.517 91.5244 336.397 91.8244 336.367 92.1544H336.377H336.407Z" fill="#EA9181"/>
<path d="M329.757 88.0244C330.127 87.8244 330.497 87.7144 330.897 87.6544C331.287 87.5944 331.697 87.5944 332.097 87.6544C332.497 87.7244 332.887 87.8344 333.247 88.0244C333.437 88.1044 333.597 88.2244 333.767 88.3244C333.927 88.4344 334.087 88.5644 334.237 88.6944C334.397 88.8244 334.417 89.0544 334.287 89.2144C334.167 89.3644 333.947 89.3944 333.787 89.2844L333.757 89.2644C333.477 89.0644 333.207 88.8644 332.897 88.7144C332.597 88.5544 332.277 88.4444 331.957 88.3644C331.627 88.2844 331.287 88.2544 330.947 88.2544C330.607 88.2544 330.247 88.3144 329.937 88.3944L329.917 88.4044C329.807 88.4344 329.697 88.3744 329.667 88.2644C329.637 88.1644 329.677 88.0644 329.757 88.0244Z" fill="#654038"/>
<path d="M337.048 87.4748C337.558 87.0848 338.108 86.7648 338.698 86.4948C338.988 86.3648 339.288 86.2348 339.608 86.1448C339.918 86.0448 340.248 85.9648 340.588 85.9248C340.928 85.8748 341.288 85.8648 341.648 85.9348C341.838 85.9648 342.048 86.0348 342.208 86.1148C342.378 86.1948 342.528 86.2948 342.678 86.3948C342.958 86.6048 343.208 86.8348 343.428 87.0948C343.648 87.3548 343.838 87.6348 343.978 87.9648C344.058 88.1548 343.978 88.3748 343.788 88.4548C343.628 88.5248 343.448 88.4748 343.348 88.3448L343.338 88.3248C342.998 87.8948 342.578 87.4848 342.128 87.1948C341.908 87.0448 341.678 86.9348 341.478 86.8948C341.238 86.8548 340.968 86.8348 340.688 86.8548C340.128 86.8948 339.548 87.0248 338.978 87.2048C338.408 87.3748 337.828 87.5948 337.268 87.8248H337.258C337.158 87.8648 337.038 87.8148 336.988 87.7148C336.948 87.6248 336.978 87.5248 337.048 87.4748Z" fill="#654038"/>
<path opacity="0.5" d="M355.267 92.4945C354.707 92.0145 354.057 91.6045 353.437 91.4145C353.217 91.4145 352.997 91.4745 352.787 91.5745C351.837 92.0245 351.117 93.2845 351.117 93.2845C350.837 93.7745 350.647 94.2745 350.517 94.7745C350.267 94.7945 350.017 94.8145 349.767 94.8345C349.627 94.6245 349.527 94.3745 349.497 94.1045C348.687 85.8845 342.767 87.4745 340.007 81.7045C339.697 81.0545 339.427 80.3145 339.207 79.4545C339.137 79.1645 339.067 78.8645 339.007 78.5445C336.317 78.9045 333.297 78.5745 330.697 84.3145C330.917 76.4745 335.297 73.8345 343.097 72.7345C343.167 73.3645 343.397 74.9745 343.977 76.8845C344.857 79.8145 346.557 83.4145 349.757 85.1545C350.417 85.5145 351.007 85.8845 351.527 86.2545C354.597 88.4745 355.377 90.9245 355.267 92.4945Z" fill="#2C2C2C"/>
<path d="M351.277 98.8649C351.277 99.1849 351.267 99.5049 351.257 99.8249C351.097 104.735 349.997 109.405 349.537 110.545C350.047 107.305 350.297 104.275 350.297 101.555C350.297 98.8049 350.047 96.3849 349.537 94.4049C349.527 94.3749 349.517 94.3349 349.507 94.3049C348.787 91.5649 347.567 89.6849 345.857 88.9949C341.637 87.2849 339.887 84.7949 339.207 82.6749V82.6649C338.787 81.3749 338.777 80.2149 338.837 79.4549C338.887 78.8849 338.977 78.5449 338.977 78.5449C339.637 81.6549 342.127 85.1149 346.647 87.2549C350.307 88.9549 351.317 93.9249 351.277 98.8649Z" fill="black"/>
<path d="M356.38 93.26C356.14 92.97 355.85 92.68 355.53 92.41C354.97 91.93 354.32 91.52 353.7 91.33C353.66 91.33 353.62 91.33 353.58 91.34C359.54 79.84 354.39 73.43 353 72C353.74 72.15 354.42 72.5 354.96 73.04C362.96 80.99 356.38 93.26 356.38 93.26Z" fill="#2C2C2C"/>
<path opacity="0.5" d="M338.997 78.5449C338.997 78.5449 338.907 78.8849 338.857 79.4549C334.677 79.6449 331.567 83.8349 330.247 85.9549C330.377 85.3849 330.527 84.8349 330.677 84.3049C333.287 78.5649 336.307 78.8949 338.997 78.5449Z" fill="#653701"/>
<path d="M341.167 101.675C340.987 102.105 340.647 102.445 340.287 102.725C339.917 103.015 339.497 103.215 339.067 103.375C338.627 103.535 338.177 103.615 337.727 103.665C337.497 103.685 337.267 103.685 337.047 103.685C336.817 103.665 336.597 103.655 336.367 103.615L337.667 103.315C338.087 103.195 338.517 103.105 338.917 102.945C339.327 102.805 339.717 102.635 340.097 102.435C340.477 102.225 340.837 101.985 341.167 101.675Z" fill="#653701"/>
<path d="M331.927 92.045C331.927 92.285 331.867 92.515 331.767 92.715C331.387 92.735 331.007 92.725 330.627 92.655H330.617C330.197 92.585 329.837 92.285 329.727 91.865C329.727 91.855 329.717 91.845 329.717 91.825C329.677 91.645 329.647 91.455 329.647 91.275C329.647 91.235 329.647 91.205 329.657 91.165C329.657 91.125 329.657 91.075 329.667 91.035C329.907 90.775 330.237 90.625 330.607 90.625C331.337 90.625 331.927 91.255 331.927 92.045Z" fill="#654038"/>
<path d="M332.267 91.5142C332.267 91.7542 332.067 91.9542 331.827 91.9542C331.587 91.9542 331.387 91.7542 331.387 91.5142C331.387 91.2742 331.587 91.0742 331.827 91.0742C332.077 91.0842 332.267 91.2742 332.267 91.5142Z" fill="white"/>
<path d="M339.767 92.5739C339.767 92.6839 339.757 92.7839 339.747 92.8839C339.447 92.8639 339.157 92.8139 338.867 92.7539C337.817 92.5139 336.637 92.2139 336.407 92.1539C336.587 91.3539 337.257 90.7539 338.067 90.7539C339.007 90.7539 339.767 91.5639 339.767 92.5739Z" fill="#654038"/>
<path d="M366.577 187.624C364.697 188.184 362.857 188.674 361.047 189.074C351.067 191.314 342.277 191.024 335.167 185.654C334.987 185.504 334.787 185.364 334.607 185.214C352.367 192.114 363.317 184.974 363.317 184.974C363.317 184.974 361.767 181.434 357.837 174.984C349.717 161.334 359.477 131.734 359.477 131.734L332.197 143.074C332.637 138.944 333.377 135.314 334.437 132.464C337.797 131.344 341.897 129.994 342.727 129.734C344.167 129.294 355.947 125.594 356.827 125.284C357.327 125.114 357.837 116.864 360.377 116.444C361.057 117.734 361.597 119.054 362.017 120.394C362.407 121.634 362.667 122.894 362.867 124.174C364.687 136.424 358.517 150.544 358.517 161.924V162.494C358.527 162.984 358.537 163.444 358.567 163.884C358.577 164.264 358.607 164.614 358.627 164.964C358.707 166.144 358.847 167.224 359.007 168.214C359.067 168.544 359.117 168.854 359.187 169.164C359.367 170.114 359.597 170.974 359.837 171.774C359.997 172.304 360.167 172.814 360.357 173.314C361.897 177.354 364.047 179.974 365.527 183.974C365.627 184.244 365.717 184.524 365.817 184.814C365.897 185.084 365.987 185.334 366.067 185.614C366.267 186.244 366.437 186.914 366.577 187.624Z" fill="#9E6262"/>
<path d="M339.987 91.5144C339.987 91.8044 339.747 92.0444 339.457 92.0444C339.167 92.0444 338.927 91.8044 338.927 91.5144C338.927 91.2244 339.167 90.9844 339.457 90.9844C339.757 90.9844 339.987 91.2244 339.987 91.5144Z" fill="white"/>
<path d="M337.368 314.124C337.368 314.124 330.318 333.214 320.728 327.494L325.068 326.204L330.788 314.124H337.368Z" fill="#AB5E27"/>
<path d="M364.907 318.785C363.717 324.075 361.267 329.014 360.177 331.035C359.867 331.604 359.667 331.944 359.647 331.994H350.017L349.667 331.035L349.367 330.204C349.337 330.124 349.307 330.035 349.287 329.945C348.957 328.695 349.617 327.394 350.767 326.794L353.217 325.514L356.207 314.404C356.207 314.404 356.207 314.404 356.537 314.384L356.697 314.374C356.717 314.374 356.747 314.374 356.777 314.374L356.987 314.364C357.087 314.354 357.197 314.354 357.317 314.344L357.487 314.334C357.937 314.314 358.537 314.285 359.347 314.255L359.737 314.234C359.997 314.224 360.287 314.215 360.587 314.195L361.047 314.174C361.467 314.154 361.907 314.134 362.397 314.114C362.387 314.124 364.037 315.375 364.907 318.785Z" fill="#433545"/>
<path d="M362.387 314.124C362.367 319.774 359.787 326.164 355.887 326.454C353.257 326.654 353.217 325.514 353.217 325.514L356.207 314.414C356.207 314.414 356.207 314.414 356.537 314.394L356.697 314.384C356.727 314.384 356.747 314.384 356.777 314.384C356.837 314.384 356.907 314.374 356.987 314.374C357.087 314.364 357.197 314.364 357.317 314.354L357.487 314.344C357.937 314.324 358.537 314.294 359.347 314.264C359.467 314.254 359.597 314.254 359.727 314.244C359.987 314.234 360.277 314.214 360.577 314.204C360.727 314.194 360.877 314.184 361.037 314.184C361.447 314.164 361.897 314.144 362.387 314.124Z" fill="#AB5E27"/>
<path d="M366.577 192.864C366.577 192.914 366.567 192.974 366.567 193.024C341.437 197.934 335.167 185.654 335.167 185.654C342.277 191.034 351.057 191.314 361.037 189.074C362.597 188.724 364.187 188.314 365.807 187.844C366.167 189.404 366.447 191.084 366.577 192.864Z" fill="#433545"/>
<path d="M358.277 126.795C351.657 131.535 334.157 140.165 326.107 143.675C325.997 143.725 325.887 143.775 325.787 143.815C323.997 144.585 321.957 144.465 320.277 143.495C319.867 143.265 319.437 143.005 318.967 142.745C318.867 142.685 318.767 142.635 318.667 142.575C318.097 142.245 317.487 141.895 316.847 141.525C309.897 137.525 300.977 132.175 298.237 129.875C298.217 129.435 298.237 128.975 298.277 128.505C298.277 128.505 298.467 125.445 299.427 122.885C299.477 122.915 299.527 122.945 299.577 122.975C309.427 126.875 316.257 128.875 322.287 132.365C335.387 122.155 338.977 120.835 348.347 116.495C354.777 113.515 360.417 116.445 360.417 116.445C360.417 116.445 360.627 118.285 360.517 120.445C360.377 122.855 359.877 125.645 358.277 126.795Z" fill="#C7948A"/>
<path d="M298.257 128.505C296.917 127.515 296.117 126.915 296.117 126.915L297.997 122.005C298.457 122.305 298.927 122.595 299.407 122.885C298.447 125.445 298.257 128.505 298.257 128.505Z" fill="#AB5E27"/>
<path opacity="0.25" d="M358.277 126.794C351.657 131.534 334.157 140.164 326.107 143.674C325.997 143.724 325.887 143.774 325.787 143.814C323.997 144.584 321.957 144.464 320.277 143.494C319.787 143.214 319.247 142.894 318.667 142.564C311.887 138.664 301.227 132.374 298.237 129.864C298.217 129.424 298.237 128.964 298.277 128.494C298.277 128.494 317.887 141.394 322.297 142.394C329.467 139.694 355.207 123.754 360.517 120.434C360.377 122.854 359.877 125.644 358.277 126.794Z" fill="#9E6262"/>
<path d="M337.507 306.734C337.477 307.324 337.457 307.915 337.437 308.505C335.767 308.955 332.037 308.674 330.577 308.544C330.497 307.614 330.417 307.005 330.417 307.005C330.417 307.005 336.197 306.934 337.507 306.734Z" fill="#653701"/>
<path d="M362.637 305.524L362.587 307.234C360.887 307.734 357.167 307.424 355.677 307.274L355.577 306.005C357.307 306.185 360.357 306.334 362.637 305.524Z" fill="#653701"/>
<path d="M356.647 169.444C356.647 169.444 351.677 175.854 336.377 174.644C341.197 176.074 351.377 177.884 357.857 171.474C356.647 169.444 356.277 169.444 356.277 169.444H356.647Z" fill="#9E6262"/>
<path d="M329.107 185.995C328.987 186.205 328.857 186.395 328.717 186.575C326.457 178.565 326.347 154.745 326.347 154.745L325.717 154.695C325.687 154.045 325.637 153.385 325.577 152.715C326.297 152.885 326.977 153.055 327.617 153.215C327.737 153.245 327.847 153.275 327.957 153.295C327.937 153.745 327.937 154.185 327.917 154.635C327.707 163.805 328.047 172.995 328.667 181.125C328.807 182.795 328.947 184.425 329.107 185.995Z" fill="#9E6262"/>
<path d="M274.487 109.814H245.617C243.497 109.814 241.777 111.534 241.777 113.654V167.804C241.777 169.924 243.497 171.644 245.617 171.644H290.567C292.687 171.644 294.407 169.924 294.407 167.804V124.874C294.407 123.994 293.997 123.174 293.297 122.644L277.587 110.854C276.697 110.174 275.607 109.814 274.487 109.814Z" fill="#F7C875"/>
<path d="M292.917 123.474V167.794C292.917 169.914 291.197 171.634 289.077 171.634H244.127C242.007 171.634 240.287 169.914 240.287 167.794V113.644C240.287 111.524 242.007 109.804 244.127 109.804H274.717L292.917 123.474Z" fill="#FBE3BA"/>
<path d="M281.337 119.454H245.567C244.817 119.454 244.197 118.844 244.197 118.084C244.197 117.334 244.807 116.714 245.567 116.714H281.337C282.087 116.714 282.707 117.324 282.707 118.084C282.707 118.834 282.097 119.454 281.337 119.454Z" fill="#F7C875"/>
<path d="M281.337 133.464H245.567C244.817 133.464 244.197 132.854 244.197 132.094C244.197 131.344 244.807 130.724 245.567 130.724H281.337C282.087 130.724 282.707 131.334 282.707 132.094C282.707 132.854 282.097 133.464 281.337 133.464Z" fill="#F7C875"/>
<path d="M281.337 147.485H245.567C244.817 147.485 244.197 146.875 244.197 146.115C244.197 145.365 244.807 144.745 245.567 144.745H281.337C282.087 144.745 282.707 145.355 282.707 146.115C282.707 146.875 282.097 147.485 281.337 147.485Z" fill="#F7C875"/>
<path d="M281.337 161.504H245.567C244.817 161.504 244.197 160.894 244.197 160.134C244.197 159.384 244.807 158.764 245.567 158.764H281.337C282.087 158.764 282.707 159.374 282.707 160.134C282.707 160.894 282.097 161.504 281.337 161.504Z" fill="#F7C875"/>
<path d="M292.917 123.474H278.347C276.337 123.474 274.717 121.844 274.717 119.844V109.814L292.917 123.474Z" fill="#FDF8F1"/>
<path d="M289.197 173.264L283.307 173.104C283.307 173.104 279.837 171.324 279.707 171.084C279.597 170.874 279.847 170.684 280.037 170.724C280.227 170.754 283.797 171.884 283.797 171.884C283.797 171.884 287.337 170.744 289.707 171.644L289.197 173.264Z" fill="#AB5E27"/>
<path d="M297.998 122.004C297.998 122.004 293.948 117.924 291.688 117.754C290.508 117.664 290.198 117.824 290.198 117.824L289.328 124.554C289.328 124.554 293.338 127.394 296.118 126.914C297.518 126.674 297.998 122.004 297.998 122.004Z" fill="#AB5E27"/>
<path d="M290.188 117.834L281.988 118.694C281.778 118.714 281.618 118.904 281.638 119.114C281.658 119.324 281.828 119.484 282.038 119.474L289.348 119.354L281.608 120.274C281.318 120.314 281.108 120.574 281.138 120.874C281.168 121.134 281.398 121.334 281.658 121.334L289.068 121.424L282.328 121.944C282.048 121.964 281.838 122.224 281.878 122.504C281.908 122.714 282.078 122.884 282.288 122.914L282.728 122.974C282.858 123.504 283.308 123.904 283.848 123.964L289.308 124.544L290.188 117.834Z" fill="#AB5E27"/>
<path d="M144.677 162.565L135.067 162.375C134.487 159.095 126.177 111.265 129.107 97.7246C129.107 97.7246 136.107 102.575 140.877 106.615C143.597 110.545 144.357 112.285 144.977 115.545C145.707 119.375 146.007 123.805 146.007 129.115C146.007 131.285 145.957 133.605 145.867 136.095V136.115C145.807 137.705 145.727 139.365 145.637 141.095L144.637 162.445C144.627 162.455 144.647 162.495 144.677 162.565Z" fill="#C0BADE"/>
<path d="M173.757 166.495L167.977 167.035L165.237 167.285L164.497 160.755L164.517 160.745C164.567 160.745 165.607 160.715 166.937 160.665C169.277 160.585 172.497 160.485 172.717 160.465L173.757 166.495Z" fill="#FDCFBF"/>
<path d="M166.907 168.274C165.257 168.584 163.487 168.904 161.687 169.224C154.317 170.514 146.307 171.674 142.457 171.424C139.807 171.254 137.487 169.454 136.957 166.724C136.207 162.754 138.147 160.084 141.227 159.554C145.777 158.774 153.697 159.674 162.207 160.144C163.657 160.224 165.047 160.294 166.317 160.344C166.357 160.564 167.417 165.364 166.907 168.274Z" fill="#C0BADE"/>
<path d="M167.028 167.125C167.008 167.535 166.968 167.915 166.908 168.285C166.888 168.375 166.878 168.475 166.858 168.565C166.808 168.805 166.618 169.005 166.378 169.065C162.858 169.995 161.598 169.915 161.598 169.915C161.598 169.915 161.638 169.665 161.688 169.235C161.918 167.455 162.488 162.655 162.208 160.165V160.155C164.548 159.655 166.318 160.355 166.318 160.355C166.318 160.355 166.318 160.355 166.318 160.365C166.328 160.395 166.348 160.515 166.388 160.705C166.588 161.695 167.148 164.715 167.028 167.125Z" fill="#C0BADE"/>
<path d="M162.077 290.905C161.227 305.635 160.677 318.495 160.677 319.975C163.627 325.155 151.957 326.105 149.957 322.565C149.957 322.565 147.837 321.265 149.987 319.725C149.807 310.455 147.207 298.445 144.757 286.865C143.397 280.425 142.077 274.115 141.247 268.475C141.247 263.055 144.307 254.805 144.307 254.805C144.307 254.805 129.927 236.245 118.547 212.765C112.727 200.745 107.687 187.445 105.777 174.675H141.957C141.957 174.675 142.177 175.145 142.587 176.075C145.277 182.175 155.997 207.935 163.447 247.185C163.917 249.675 164.377 252.215 164.817 254.805C163.767 264.185 162.807 278.235 162.077 290.905Z" fill="#76A6CE"/>
<path d="M99.7875 322.565C99.7875 322.565 98.0176 325.985 98.0176 327.745C98.0176 329.515 99.0776 331.985 99.0776 331.985H121.908L122.058 330.395C122.178 329.135 121.458 327.945 120.278 327.455C117.908 326.485 114.008 324.675 111.888 322.555H99.7875V322.565Z" fill="#2E4A61"/>
<path d="M129.637 177.245C129.617 178.355 129.587 179.765 129.507 181.315C129.497 181.415 129.497 181.515 129.497 181.615C129.357 184.335 129.097 187.495 128.607 190.355C128.037 191.285 127.527 192.075 127.117 192.705C126.427 193.755 126.017 194.355 126.017 194.355C126.017 194.355 126.427 206.695 124.147 223.565C123.447 228.715 122.507 234.285 121.217 240.065C119.997 245.565 118.457 251.255 116.537 256.925C114.947 269.145 113.857 283.625 113.137 295.865C112.497 306.625 112.147 315.655 111.987 319.925C113.077 321.625 111.897 322.565 111.897 322.565C111.897 322.565 100.847 323.975 99.7869 322.565C99.0569 321.595 98.7269 320.915 99.5069 319.275C98.4769 307.985 96.8269 295.665 95.4469 285.485C94.4369 278.015 93.4069 271.705 93.1869 267.765C92.7469 259.835 95.2869 256.515 95.2869 256.515H95.3569C95.3569 256.515 95.3569 256.515 95.3569 256.505C95.3169 256.145 96.2669 244.885 94.9469 231.035C93.7969 219.105 92.6169 205.545 92.1469 196.195C91.9669 192.465 91.8869 189.415 91.9869 187.395C93.2869 180.555 96.8169 174.665 96.8169 174.665H129.647C129.647 174.685 129.657 175.665 129.637 177.245Z" fill="#76A6CE"/>
<path d="M149.957 322.564C149.957 322.564 148.177 324.694 147.957 326.684C147.607 329.864 148.427 331.984 148.427 331.984H175.057L175.267 330.104C175.417 328.774 174.547 327.544 173.247 327.234C169.597 326.374 162.687 324.524 160.797 322.564H149.957Z" fill="#2E4A61"/>
<path d="M129.097 97.7352V75.1152L114.387 76.9752C114.387 76.9752 115.237 84.4852 113.867 92.6852C113.777 93.2152 113.677 93.7552 113.567 94.2952C113.487 94.6752 113.407 95.0552 113.317 95.4252C113.097 96.3952 112.837 97.3552 112.537 98.3152C113.507 99.3752 117.687 99.2252 121.607 98.8152C122.487 99.1252 123.437 99.4052 124.427 99.6352L127.707 102.785C127.737 102.715 128.657 100.415 129.057 97.9052C129.407 98.1852 129.637 98.3852 129.777 98.5152C129.557 98.2552 129.327 97.9952 129.097 97.7352Z" fill="#653701"/>
<path d="M143.598 128.275C143.538 128.815 143.478 129.365 143.408 129.925C142.048 141.795 140.058 157.355 140.058 157.355C140.058 157.355 140.348 168.585 141.948 174.675C141.498 174.945 140.908 175.225 140.208 175.505C138.978 175.995 137.388 176.485 135.568 176.955C133.788 177.415 131.778 177.845 129.628 178.225C127.858 178.545 125.988 178.825 124.078 179.065C123.818 179.095 123.558 179.125 123.308 179.155C121.678 179.345 120.028 179.495 118.388 179.605C116.508 179.735 114.628 179.805 112.828 179.805C111.778 179.805 110.748 179.785 109.748 179.735C103.568 179.425 98.5678 178.115 97.0578 175.205C96.9678 175.035 96.8978 174.865 96.8278 174.675C96.1078 173.535 95.0478 171.805 98.1578 169.985C98.4578 168.685 98.7178 167.335 98.9478 165.995C99.1078 165.065 99.2578 164.145 99.3878 163.265C100.058 158.835 100.358 155.205 100.358 155.205C100.358 155.205 95.7678 135.915 94.9378 126.715C94.9378 126.705 94.9378 126.695 94.9378 126.695C94.8178 122.845 95.5478 117.435 96.2878 113.115C96.9578 109.215 97.6178 106.215 97.6478 106.075V106.065C97.6978 105.645 97.9678 105.065 99.1778 105.035C105.408 100.915 109.538 99.2545 111.408 98.6345C112.168 98.3845 112.558 98.3045 112.558 98.3045L119.738 98.0545C120.338 98.3145 120.968 98.5645 121.628 98.8045C122.518 99.1145 123.458 99.3945 124.448 99.6245L127.728 102.775C127.758 102.705 128.678 100.405 129.078 97.8945C129.418 98.1745 129.648 98.3745 129.798 98.5045C129.858 98.5645 129.908 98.6245 129.958 98.6845C134.748 104.065 137.928 107.765 140.368 112.125C143.108 117.035 144.228 122.685 143.598 128.275Z" fill="#F5F0F6"/>
<path d="M130.308 98.8047C130.308 98.8047 132.098 101.035 133.258 101.495C132.558 101.645 129.778 100.575 129.218 99.7247C129.458 98.7847 130.308 98.8047 130.308 98.8047Z" fill="#C0BADE"/>
<path d="M129.958 98.6645C129.958 98.6645 129.958 98.6745 129.948 98.6845C129.848 98.9945 128.738 102.195 127.718 102.775C127.748 102.705 128.668 100.405 129.068 97.8945C129.418 98.1745 129.648 98.3745 129.788 98.5045C129.908 98.6045 129.958 98.6645 129.958 98.6645Z" fill="#C0BADE"/>
<path d="M115.107 61.8349C115.107 61.8349 113.437 59.9649 115.567 56.3249C115.237 58.4749 116.087 59.2549 116.087 59.2549C116.087 59.2549 116.227 55.8249 117.507 55.2949C116.867 57.4949 119.177 60.1849 119.177 60.1849L115.107 61.8349Z" fill="#070707"/>
<path d="M140.827 74.9441C140.017 77.0341 139.347 78.7641 138.877 79.9941C138.757 80.3141 138.647 80.6041 138.547 80.8541C138.487 81.0041 138.437 81.1541 138.387 81.2741C138.187 81.7941 138.087 82.0641 138.087 82.0641C138.087 82.0641 138.097 82.2941 138.087 82.6941C138.057 83.7141 137.907 85.8641 137.187 88.1141C135.677 92.6741 131.257 97.5841 129.837 99.3941C129.587 99.7141 129.177 99.8641 128.787 99.7941C127.587 99.5641 125.067 99.0641 124.287 98.7141C122.817 98.0941 116.367 91.6441 115.627 88.8641C115.677 87.2741 115.127 81.6041 115.127 81.6041C115.127 81.6041 114.717 79.9441 113.877 78.4641C113.147 77.1841 111.227 71.9441 111.827 70.0541C114.687 65.3741 117.527 62.3341 117.527 62.3341C117.527 62.3341 121.477 60.6941 128.327 61.0641C134.417 63.5341 141.507 73.2041 140.827 74.9441Z" fill="#AB5E27"/>
<path d="M103.437 168.714C103.917 166.404 105.417 164.434 107.527 163.374C115.067 159.594 132.937 150.554 135.377 148.674C138.487 146.294 138.337 142.094 138.337 142.094L106.247 154.184C107.797 145.704 109.807 134.014 110.787 125.684C106.057 111.884 97.6272 106.064 97.6272 106.064C97.6272 106.064 97.6272 106.064 97.6272 106.074C97.5972 106.224 96.9272 109.224 96.2672 113.114C95.5372 117.424 94.7972 122.834 94.9172 126.694V126.704C95.7472 135.904 100.337 155.214 100.337 155.214C100.337 155.214 100.037 158.854 99.3672 163.274C99.2372 164.164 99.0872 165.074 98.9272 166.004C98.6972 167.334 98.4272 168.694 98.1372 169.994C95.0372 171.814 96.0972 173.544 96.8072 174.684C96.8672 174.864 96.9472 175.034 97.0372 175.214C98.5472 178.124 103.547 179.434 109.727 179.744C110.727 179.794 111.757 179.814 112.807 179.814C114.617 179.814 116.487 179.744 118.367 179.614C120.007 179.504 121.657 179.344 123.287 179.164C123.547 179.134 123.807 179.104 124.057 179.074C125.967 178.834 127.837 178.554 129.607 178.234C131.757 177.854 133.767 177.424 135.547 176.964C137.377 176.494 138.957 176.004 140.187 175.514C124.917 178.354 115.667 178.564 110.107 177.934C105.627 177.424 102.527 173.154 103.437 168.714Z" fill="#C0BADE"/>
<path d="M125.588 78.7152C125.588 78.7152 126.538 80.6552 127.418 81.1152C128.668 81.6152 132.688 82.1852 132.688 82.1852C132.688 82.1852 133.868 79.7252 133.908 78.2852C133.098 77.7852 128.638 77.6152 128.638 77.6152L125.588 78.7152Z" fill="#AB5E27"/>
<path d="M138.878 79.9843C138.758 80.3043 138.648 80.5943 138.548 80.8443C138.488 80.9943 138.438 81.1443 138.388 81.2643L137.778 81.3243L136.218 80.8143V80.2243C136.218 80.2243 136.708 78.8143 137.118 78.6543C137.548 78.8143 138.548 79.6743 138.548 79.6743L138.878 79.9843Z" fill="#AB5E27"/>
<path d="M131.137 94.8848C131.117 94.9448 131.107 95.0048 131.097 95.0548C131.087 95.1148 131.077 95.1748 131.067 95.2248C131.007 95.5648 131.047 95.7148 131.047 95.7148C130.987 95.6948 130.927 95.6748 130.877 95.6548C128.967 94.9648 127.777 94.1548 127.037 93.3648C126.697 93.0048 126.457 92.6448 126.287 92.3048C126.207 92.1548 126.147 92.0048 126.097 91.8548C126.027 91.6548 125.977 91.4748 125.947 91.2948C125.887 90.9448 125.887 90.6548 125.907 90.4548C125.927 90.2548 125.968 90.1348 125.968 90.1348C125.968 90.1348 127.577 92.1548 131.387 93.4648C131.477 93.4948 131.577 93.5248 131.667 93.5548C131.607 93.6848 131.547 93.8048 131.497 93.9148C131.317 94.3148 131.207 94.6248 131.137 94.8848Z" fill="#653701"/>
<path d="M125.957 90.1348C126.177 90.3748 126.417 90.5948 126.667 90.7948C126.917 91.0048 127.167 91.2048 127.437 91.3848C127.967 91.7548 128.517 92.0948 129.087 92.3948C129.667 92.6848 130.247 92.9648 130.847 93.1948C131.147 93.3148 131.457 93.4148 131.757 93.5248L132.687 93.8148L132.647 93.8248C132.707 93.7448 132.757 93.6448 132.797 93.5448C132.837 93.4448 132.867 93.3448 132.897 93.2348C132.947 93.0248 132.967 92.8048 132.967 92.5948C132.977 92.7048 132.977 92.8148 132.977 92.9248C132.977 93.0348 132.957 93.1448 132.937 93.2548C132.917 93.3648 132.887 93.4748 132.857 93.5748C132.817 93.6748 132.777 93.7848 132.707 93.8748C132.697 93.8848 132.677 93.8948 132.667 93.8948L131.727 93.6348C131.567 93.5948 131.417 93.5348 131.267 93.4848C131.117 93.4348 130.957 93.3848 130.807 93.3248C130.197 93.0948 129.597 92.8348 129.027 92.5248C128.457 92.2148 127.897 91.8748 127.377 91.4748C126.857 91.0848 126.357 90.6448 125.957 90.1348Z" fill="#653701"/>
<path d="M126.237 89.4355C126.237 89.5555 126.197 89.6755 126.137 89.7755C126.077 89.8855 125.977 89.9655 125.867 90.0155C125.747 90.0655 125.627 90.0855 125.507 90.0755C125.447 90.0655 125.387 90.0555 125.327 90.0455C125.267 90.0255 125.217 90.0055 125.157 89.9855C125.217 89.9855 125.277 89.9955 125.327 90.0055C125.387 90.0055 125.447 90.0155 125.497 90.0155C125.607 90.0055 125.727 89.9955 125.827 89.9455C125.927 89.9055 126.017 89.8255 126.087 89.7355C126.157 89.6555 126.207 89.5555 126.237 89.4355Z" fill="#FDB0A8"/>
<path d="M131.047 94.0148C127.807 92.9348 125.907 90.4548 125.907 90.4548C125.927 90.2548 125.967 90.1348 125.967 90.1348C125.967 90.1348 127.577 92.1548 131.387 93.4648C131.377 93.4648 131.277 93.9648 131.047 94.0148Z" fill="#F6F7E9"/>
<path d="M131.047 95.7152C130.987 95.6952 130.927 95.6752 130.877 95.6552C128.967 94.9652 127.777 94.1552 127.037 93.3652C127.907 93.5852 129.837 94.1352 131.097 95.0552C131.087 95.1152 131.077 95.1752 131.067 95.2252C131.007 95.5652 131.047 95.7152 131.047 95.7152Z" fill="#F6F7E9"/>
<path d="M134.257 77.6942L134.047 78.1642C134.007 78.2542 133.917 78.3042 133.817 78.2842C133.647 78.2542 133.357 78.2042 132.987 78.1442C132.957 78.1442 132.927 78.1342 132.897 78.1342C131.687 77.9442 129.737 77.6942 128.577 77.8242C126.787 78.2342 125.647 78.6842 125.577 78.7142C125.657 78.6542 127.287 77.5142 128.437 77.0642C129.627 77.0242 130.817 77.0942 131.817 77.1942C131.947 77.2042 132.087 77.2242 132.207 77.2342C133.137 77.3442 133.847 77.4642 134.157 77.5142C134.247 77.5342 134.297 77.6242 134.257 77.6942Z" fill="#383737"/>
<path d="M132.697 82.1834C132.697 82.1834 132.287 82.5234 131.027 82.6034C130.607 82.6334 130.097 82.6334 129.477 82.5734C129.317 82.5634 129.147 82.5434 128.967 82.5234C127.687 82.1434 127.427 81.1134 127.427 81.1134C127.427 81.1134 128.287 80.1734 129.617 79.6934C129.987 79.5634 130.397 79.4634 130.837 79.4434C131.097 79.5234 131.337 79.6434 131.557 79.7834C131.627 79.8334 131.707 79.8834 131.777 79.9334C132.017 80.1234 132.197 80.3834 132.337 80.6734C132.647 81.3834 132.697 82.1834 132.697 82.1834Z" fill="#F6F7E9"/>
<path d="M127.417 81.124C127.607 80.854 127.837 80.624 128.087 80.404C128.337 80.194 128.617 80.004 128.907 79.844C128.977 79.804 129.057 79.764 129.127 79.734L129.357 79.634C129.437 79.604 129.517 79.574 129.587 79.544L129.707 79.504C129.747 79.494 129.787 79.484 129.827 79.474L130.067 79.414L130.317 79.374C130.357 79.364 130.397 79.364 130.437 79.354L130.557 79.344L130.807 79.334H130.817C130.827 79.334 130.837 79.334 130.847 79.344C130.947 79.384 131.047 79.424 131.137 79.474C131.227 79.524 131.317 79.574 131.407 79.634C131.487 79.694 131.577 79.754 131.647 79.824C131.727 79.894 131.797 79.964 131.857 80.044C131.767 79.994 131.687 79.944 131.597 79.894C131.507 79.844 131.417 79.804 131.327 79.764C131.237 79.724 131.147 79.684 131.057 79.654C130.967 79.624 130.877 79.594 130.777 79.574H130.817L130.587 79.614L130.467 79.634C130.427 79.644 130.387 79.654 130.357 79.664L130.127 79.714L129.907 79.784L129.797 79.814L129.687 79.854C129.617 79.884 129.537 79.904 129.467 79.934L129.247 80.024C129.177 80.054 129.107 80.094 129.037 80.124C128.477 80.384 127.937 80.724 127.417 81.124Z" fill="#FDB0A8"/>
<path d="M136.137 89.234C135.667 90.004 134.457 90.254 134.457 90.254C134.457 90.254 133.437 89.744 133.257 89.654C133.267 89.644 133.287 89.634 133.297 89.614C133.697 89.184 132.357 89.014 131.977 88.974C131.917 88.964 131.877 88.964 131.877 88.964C131.877 88.964 131.887 88.964 131.907 88.954C131.917 88.954 131.917 88.954 131.927 88.954C132.367 88.864 135.377 88.294 136.067 89.144C136.097 89.174 136.117 89.204 136.137 89.234Z" fill="#AB5E27"/>
<path d="M137.187 78.4044L136.897 78.8244C136.837 78.9144 136.877 79.0344 136.977 79.0744C137.297 79.1944 138.007 79.4944 139.107 80.2244C139.337 79.8444 138.757 79.0144 137.397 78.3544C137.317 78.3144 137.227 78.3344 137.187 78.4044Z" fill="#383737"/>
<path d="M138.087 82.0645C138.087 82.0645 138.087 82.0645 138.087 82.0745C138.087 82.1045 138.087 82.1545 138.087 82.2445C138.087 82.3545 138.087 82.5045 138.077 82.6845C138.027 82.6945 137.917 82.7145 137.777 82.7345C137.507 82.7645 137.097 82.7645 136.557 82.6545C136.457 82.6345 136.347 82.6045 136.227 82.5745C136.147 81.5245 136.067 80.8445 136.067 80.8445C136.067 80.8445 136.147 80.5545 136.277 80.1745C136.537 80.1645 136.767 80.1845 136.977 80.2045C137.107 80.2245 137.237 80.2445 137.347 80.2645C138.187 80.4545 138.547 80.8445 138.547 80.8445C138.467 81.0445 138.397 81.2245 138.347 81.3845C138.177 81.8245 138.087 82.0645 138.087 82.0645Z" fill="#F6F7E9"/>
<path d="M133.298 89.6146L131.978 88.9746C132.358 89.0146 133.698 89.1846 133.298 89.6146Z" fill="#653701"/>
<path d="M136.967 78.7246C136.857 78.8846 136.767 79.0546 136.677 79.2246C136.597 79.3946 136.517 79.5746 136.457 79.7546C136.327 80.1146 136.207 80.4746 136.107 80.8446C136.197 81.5346 136.257 82.2346 136.317 82.9346C136.377 83.6346 136.397 84.3346 136.417 85.0346C136.437 85.7346 136.427 86.4346 136.397 87.1446C136.367 87.8446 136.307 88.5446 136.217 89.2446C136.217 89.2546 136.207 89.2646 136.207 89.2746C136.117 89.4246 135.997 89.5546 135.867 89.6646C135.737 89.7746 135.587 89.8746 135.447 89.9546C135.297 90.0346 135.137 90.1046 134.987 90.1646C134.827 90.2246 134.667 90.2746 134.497 90.3146C134.487 90.3146 134.467 90.3146 134.457 90.3046L131.887 88.9946C131.877 88.9846 131.867 88.9846 131.867 88.9646C131.847 88.7946 131.867 88.6246 131.897 88.4546C131.937 88.2846 131.997 88.1246 132.087 87.9746C132.177 87.8246 132.297 87.6946 132.437 87.6046C132.577 87.5046 132.737 87.4446 132.897 87.3846C132.737 87.4446 132.587 87.5146 132.457 87.6146C132.317 87.7146 132.207 87.8446 132.127 87.9846C132.047 88.1246 131.987 88.2846 131.967 88.4546C131.937 88.6146 131.927 88.7746 131.947 88.9346L131.967 88.9446L132.007 88.9646L133.327 89.6046L134.497 90.1746C134.807 90.0946 135.117 89.9846 135.397 89.8246C135.537 89.7446 135.677 89.6546 135.797 89.5446C135.917 89.4446 136.017 89.3246 136.097 89.1946C136.097 89.1746 136.097 89.1546 136.107 89.1346C136.187 88.4646 136.237 87.7946 136.267 87.1246C136.297 86.4246 136.307 85.7246 136.297 85.0246C136.287 84.3246 136.257 83.6246 136.227 82.9246C136.187 82.2246 136.137 81.5246 136.057 80.8346V80.8246C136.167 80.4546 136.297 80.0946 136.447 79.7346C136.517 79.5546 136.597 79.3846 136.687 79.2046C136.747 79.0446 136.837 78.8746 136.967 78.7246Z" fill="#653701"/>
<path d="M127.717 102.774L124.187 100.204C124.187 100.204 123.777 101.254 122.907 102.504C122.027 103.784 120.667 105.284 118.807 106.064C116.857 102.234 111.387 98.6345 111.387 98.6345C111.387 98.6345 111.327 96.1845 112.537 93.3545C112.537 93.3545 112.887 93.7145 113.567 94.2845C114.057 94.6945 114.727 95.2145 115.557 95.7645C116.667 96.5045 118.067 97.3245 119.727 98.0545C120.317 98.3145 120.957 98.5645 121.617 98.7945C122.497 99.1045 123.447 99.3845 124.437 99.6145L127.717 102.774Z" fill="#F9F6FA"/>
<path d="M127.717 102.775C127.717 102.775 124.977 102.655 122.907 102.515C123.767 101.265 124.187 100.215 124.187 100.215L127.717 102.775Z" fill="#C0BADE"/>
<path d="M113.867 92.6748C113.777 93.2048 113.677 93.7448 113.567 94.2848C112.897 93.7248 112.537 93.3548 112.537 93.3548C112.537 93.3548 113.027 92.8848 113.867 92.6748Z" fill="#C0BADE"/>
<path d="M130.737 178.095C130.727 178.095 130.727 178.095 130.717 178.095C130.677 178.085 130.647 178.045 130.657 178.005C130.677 177.925 132.157 170.175 132.887 158.075C132.777 155.775 132.707 153.405 132.637 150.895C132.377 141.385 132.117 131.555 129.187 124.145C127.607 118.785 127.627 102.925 127.627 102.765C127.627 102.725 127.657 102.685 127.707 102.685C127.747 102.685 127.787 102.715 127.787 102.765C127.787 102.925 127.777 118.765 129.337 124.095C132.267 131.525 132.537 141.365 132.797 150.885C132.867 153.395 132.927 155.755 133.037 158.065C132.307 170.185 130.817 177.945 130.807 178.025C130.807 178.075 130.777 178.095 130.737 178.095Z" fill="#8F77A9"/>
<path d="M106.277 126.545C106.037 128.535 103.277 141.635 102.907 143.365C104.137 145.055 102.307 146.155 102.307 146.155C101.927 147.895 101.447 150.095 101.057 151.895C100.647 153.775 100.327 155.215 100.327 155.215C100.327 155.215 96.6174 156.295 93.7474 157.135C91.9374 157.665 90.4574 158.085 90.4474 158.085C89.9974 156.365 89.6074 154.685 89.2574 153.065C84.9874 133.265 87.4674 120.835 88.5674 115.505C92.2174 110.435 97.6474 106.075 97.6474 106.075C97.6474 106.075 97.8574 106.335 98.2274 106.795C100.287 109.445 107.177 118.925 106.277 126.545Z" fill="#F5F0F6"/>
<path d="M118.318 153.095C118.108 154.545 117.777 156.035 117.297 157.475C107.777 159.955 107.778 159.955 107.778 159.955L106.417 158.685C105.547 159.025 104.677 159.345 103.787 159.655C103.727 159.675 103.687 159.695 103.657 159.705C103.647 159.715 103.627 159.715 103.617 159.725C103.607 159.725 103.607 159.725 103.597 159.735C101.947 160.305 100.268 160.825 98.5675 161.275C94.2075 161.275 90.4375 158.095 90.4375 158.095C90.4375 158.095 91.3475 152.135 93.3875 149.525C93.6975 149.125 94.0375 148.805 94.4075 148.595C94.5775 148.495 94.7475 148.405 94.9075 148.315C95.8575 147.805 96.7375 147.425 97.5775 147.135C99.1375 146.605 100.597 146.365 102.297 146.165C103.337 146.045 104.468 145.925 105.758 145.765C106.118 145.725 106.498 145.675 106.888 145.615C109.738 145.225 113.347 144.545 118.367 143.055C118.367 143.055 118.568 144.375 118.638 146.405C118.718 148.215 118.688 150.595 118.318 153.095Z" fill="#F5F0F6"/>
<path d="M141.868 80.2257C141.858 80.2857 141.838 80.3457 141.828 80.3957C140.098 76.1357 134.328 74.4157 132.328 73.9157C134.378 76.1357 133.508 78.9057 133.508 78.9057C133.478 78.8557 133.438 78.7957 133.408 78.7457C129.748 73.0757 119.488 70.7957 119.488 70.7957C119.488 70.7957 122.028 77.0057 120.518 77.9357C118.918 78.9157 118.798 80.7557 118.788 81.0757V81.1157V81.1257L118.668 81.0857L117.018 80.4757L113.488 79.1757C113.488 79.1757 110.268 76.4257 110.428 70.3657C111.318 66.8857 112.748 64.3657 114.178 62.5757C114.448 62.2457 114.708 61.9357 114.968 61.6557C117.058 59.3957 118.948 58.6257 118.948 58.6257C118.948 58.6257 123.138 57.0557 129.878 58.3157C141.388 63.6657 143.208 70.6757 143.238 70.8057C143.168 70.7657 140.848 69.4457 139.288 68.9357C143.288 72.5657 142.268 78.4457 141.868 80.2257Z" fill="#383737"/>
<path opacity="0.5" d="M117.587 78.7242C117.507 79.3942 117.307 79.9742 117.007 80.4742L113.477 79.1742C113.477 79.1742 110.257 76.4242 110.417 70.3642C111.307 66.8842 112.737 64.3642 114.167 62.5742C114.167 62.5742 112.747 73.6042 117.587 78.7242Z" fill="#070707"/>
<path d="M117.318 84.4443C117.178 84.5243 117.028 84.5843 116.858 84.6243C115.298 85.0343 113.548 83.4743 112.938 81.1543C112.328 78.8343 113.098 76.6143 114.658 76.2143C115.468 76.0043 116.328 76.3243 117.048 76.9943C117.628 77.5343 118.128 78.3143 118.438 79.2343C118.488 79.3843 118.528 79.5243 118.568 79.6743C118.688 80.1443 118.758 80.6143 118.778 81.0643V81.1043C118.818 82.6343 118.268 83.9243 117.318 84.4443Z" fill="#AB5E27"/>
<path d="M114.168 77.4434C114.398 77.4634 114.618 77.5334 114.828 77.6034L114.988 77.6634L115.148 77.7334C115.258 77.7734 115.348 77.8334 115.448 77.8934C115.848 78.1234 116.198 78.4234 116.518 78.7534L116.748 79.0034C116.818 79.0934 116.888 79.1834 116.958 79.2734L117.068 79.4134C117.108 79.4534 117.128 79.5134 117.168 79.5534L117.358 79.8434L117.408 79.9134L117.448 79.9934L117.528 80.1434L117.688 80.4434L117.968 81.0734C117.978 81.1034 117.978 81.1334 117.958 81.1534C117.828 81.2834 117.708 81.4134 117.598 81.5534C117.488 81.6934 117.398 81.8434 117.348 82.0134C117.288 82.1734 117.278 82.3534 117.308 82.5134C117.338 82.6834 117.418 82.8334 117.518 82.9834C117.538 83.0034 117.528 83.0334 117.518 83.0634C117.458 83.1434 117.388 83.2034 117.318 83.2534C117.248 83.3034 117.178 83.3434 117.098 83.3834C116.948 83.4634 116.788 83.5234 116.618 83.5534C116.288 83.6234 115.938 83.6234 115.608 83.5134C115.448 83.4634 115.298 83.3834 115.158 83.2934C115.018 83.2034 114.888 83.0834 114.778 82.9634C114.548 82.7234 114.368 82.4334 114.228 82.1434C114.388 82.4334 114.588 82.7034 114.818 82.9334C115.058 83.1634 115.338 83.3434 115.638 83.4234C115.948 83.5134 116.278 83.5134 116.588 83.4334C116.748 83.3934 116.898 83.3334 117.038 83.2634C117.108 83.2234 117.178 83.1834 117.238 83.1434C117.298 83.0934 117.358 83.0434 117.398 82.9934V83.0734C117.288 82.9234 117.198 82.7434 117.158 82.5534C117.118 82.3634 117.138 82.1534 117.198 81.9734C117.258 81.7934 117.358 81.6234 117.468 81.4734C117.578 81.3234 117.708 81.1834 117.848 81.0534L117.828 81.1334L117.558 80.5134L117.398 80.2134L117.318 80.0634L117.278 79.9934L117.238 79.9234L117.058 79.6334C117.028 79.5834 116.998 79.5334 116.968 79.4934L116.868 79.3634C116.798 79.2734 116.738 79.1834 116.668 79.0934L116.448 78.8434C116.148 78.5134 115.808 78.2134 115.428 77.9734C115.028 77.7234 114.618 77.5334 114.168 77.4434Z" fill="#653701"/>
<path d="M115.438 78.6836C115.248 79.0136 115.098 79.3736 114.988 79.7336C114.888 80.0936 114.828 80.4736 114.828 80.8436C114.828 81.2236 114.898 81.5936 115.008 81.9536C115.128 82.3136 115.298 82.6536 115.508 82.9736C115.248 82.6836 115.038 82.3536 114.898 81.9936C114.828 81.8136 114.768 81.6236 114.728 81.4336C114.688 81.2436 114.668 81.0436 114.668 80.8536C114.668 80.4636 114.738 80.0736 114.868 79.7036C115.008 79.3236 115.188 78.9736 115.438 78.6836Z" fill="#653701"/>
<path d="M131.827 77.1949C128.547 74.6849 122.117 72.0449 120.057 71.1849C120.597 71.7549 121.697 74.4149 122.007 76.7249C122.327 79.0749 119.957 80.0049 119.957 80.0049C119.807 83.6049 117.417 84.4149 117.317 84.4449C118.267 83.9249 118.817 82.6249 118.777 81.1149V81.0749C118.787 80.7549 118.907 78.9149 120.507 77.9349C122.027 77.0049 119.477 70.7949 119.477 70.7949C119.477 70.7949 127.907 72.6649 132.207 77.2349C132.097 77.2249 131.957 77.2049 131.827 77.1949Z" fill="#653701"/>
<path opacity="0.5" d="M141.868 80.2253C141.858 80.2853 141.838 80.3453 141.828 80.3953C140.098 76.1353 134.328 74.4153 132.328 73.9153C134.378 76.1353 133.508 78.9053 133.508 78.9053C133.478 78.8553 133.438 78.7953 133.408 78.7453C129.748 73.0753 119.488 70.7953 119.488 70.7953C119.488 70.7953 122.028 77.0053 120.518 77.9353C118.918 78.9153 118.798 80.7553 118.788 81.0753C118.768 80.6253 118.708 80.1553 118.578 79.6853C118.538 79.5353 118.498 79.3853 118.448 79.2453C119.138 78.1153 120.728 74.6253 118.178 69.6253C121.768 69.2853 128.288 71.0053 132.228 76.1553C131.628 73.6853 128.688 71.0753 128.688 71.0753C128.688 71.0753 139.958 72.7153 141.868 80.2253Z" fill="#070707"/>
<path d="M132.698 82.1852C132.698 82.1852 132.288 82.5252 131.028 82.6052C130.638 82.3152 130.388 81.8452 130.388 81.3252C130.388 80.5952 130.878 79.9752 131.548 79.7852C131.618 79.8352 131.698 79.8852 131.768 79.9352C132.008 80.1252 132.188 80.3852 132.328 80.6752C132.648 81.3852 132.698 82.1852 132.698 82.1852Z" fill="#383737"/>
<path d="M138.087 82.0654C138.087 82.0654 138.087 82.0654 138.087 82.0754C138.087 82.1054 138.087 82.1554 138.087 82.2454C138.087 82.3554 138.087 82.5054 138.077 82.6854C138.027 82.6954 137.917 82.7154 137.777 82.7354C137.287 82.4654 136.947 81.9354 136.947 81.3354C136.947 80.9254 137.097 80.5654 137.347 80.2754C138.187 80.4654 138.547 80.8554 138.547 80.8554C138.467 81.0554 138.397 81.2354 138.347 81.3954C138.177 81.8254 138.087 82.0654 138.087 82.0654Z" fill="#383737"/>
<path d="M130.868 81.3357C130.868 81.6057 130.648 81.8257 130.378 81.8257C130.108 81.8257 129.888 81.6057 129.888 81.3357C129.888 81.0657 130.108 80.8457 130.378 80.8457C130.648 80.8457 130.868 81.0657 130.868 81.3357Z" fill="#F6F7E9"/>
<path d="M137.437 81.3357C137.437 81.6057 137.217 81.8257 136.947 81.8257C136.677 81.8257 136.457 81.6057 136.457 81.3357C136.457 81.0657 136.677 80.8457 136.947 80.8457C137.217 80.8457 137.437 81.0657 137.437 81.3357Z" fill="#F6F7E9"/>
<path opacity="0.5" d="M106.428 158.685C104.758 159.305 104.078 159.555 103.798 159.655C103.738 159.675 103.698 159.695 103.668 159.705C103.658 159.715 103.638 159.715 103.628 159.725C103.608 159.735 103.608 159.735 103.608 159.735C103.598 159.595 103.258 151.805 105.768 145.765C106.128 145.725 106.508 145.675 106.898 145.615C106.898 145.605 105.328 152.315 106.428 158.685Z" fill="#C0BADE"/>
<path d="M143.747 248.105C136.487 237.485 127.717 222.995 127.717 222.995L131.757 195.465L132.317 180.845C137.587 179.525 141.637 176.765 142.577 176.075C142.167 175.155 141.947 174.675 141.947 174.675C139.917 175.895 135.237 177.225 129.617 178.225C127.847 178.545 125.977 178.825 124.067 179.065C123.807 179.095 123.547 179.125 123.297 179.155C121.667 179.345 120.017 179.495 118.377 179.605C116.497 179.735 114.617 179.805 112.817 179.805C111.767 179.805 110.737 179.785 109.737 179.735C103.557 179.425 98.5574 178.115 97.0474 175.205C96.9574 175.035 96.8874 174.865 96.8174 174.675C96.8174 174.675 93.2874 180.565 91.9874 187.405C91.8974 189.425 91.9674 192.485 92.1474 196.205C92.6174 205.555 93.7974 219.105 94.9474 231.045C96.2774 244.895 95.3274 256.155 95.3574 256.515V256.525C95.3574 256.525 96.2774 230.315 96.4174 208.485C96.5074 194.625 107.307 183.175 121.147 182.345C124.967 182.115 128.057 181.785 129.487 181.615C129.347 184.345 129.087 187.495 128.607 190.355C127.077 192.825 126.017 194.365 126.017 194.365C126.017 194.365 126.427 206.705 124.147 223.575C130.617 235.315 137.157 244.945 140.967 250.275C142.967 253.075 143.587 256.625 142.677 259.945C141.947 262.625 141.237 265.875 141.237 268.475C143.557 284.275 149.707 305.295 149.987 319.725C149.987 319.725 149.937 283.635 149.357 265.265C149.157 259.125 147.217 253.175 143.747 248.105Z" fill="#708ABD"/>
<path opacity="0.5" d="M94.9178 148.305C94.7578 148.395 94.5878 148.485 94.4178 148.585C94.0478 148.795 93.7078 149.115 93.3978 149.515C91.3578 152.125 90.4478 158.085 90.4478 158.085C89.9978 156.365 89.6078 154.685 89.2578 153.065C90.4878 151.605 92.5578 149.475 94.9178 148.305Z" fill="#C0BADE"/>
<path d="M167.028 167.125C167.148 164.715 166.588 161.705 166.388 160.695C166.568 160.685 166.748 160.685 166.938 160.675C167.138 161.475 167.878 164.525 167.988 167.035L167.028 167.125Z" fill="#FDB0A8"/>
<path d="M170.148 126.975L179.657 171.995C180.047 173.835 178.868 175.635 177.028 176.025L138.057 184.255C136.217 184.645 134.418 183.465 134.028 181.625L124.117 134.685C123.727 132.845 124.907 131.045 126.747 130.655L153.267 125.055L163.797 122.835C166.697 122.215 169.538 124.075 170.148 126.975Z" fill="#F7C875"/>
<path d="M168.247 127.375L177.757 172.395C178.147 174.235 176.967 176.035 175.127 176.425L136.157 184.655C134.317 185.045 132.517 183.865 132.127 182.025L122.217 135.085C121.827 133.245 123.007 131.445 124.847 131.055L151.367 125.455L161.897 123.235C164.787 122.625 167.637 124.475 168.247 127.375Z" fill="#FBE3BA"/>
<path d="M161.427 140.265L130.417 146.815C129.767 146.955 129.117 146.535 128.977 145.885C128.837 145.235 129.257 144.585 129.907 144.455L160.917 137.905C161.567 137.765 162.217 138.185 162.357 138.835C162.497 139.485 162.087 140.135 161.427 140.265Z" fill="#F7C875"/>
<path d="M163.997 152.425L132.987 158.975C132.337 159.115 131.687 158.695 131.557 158.045C131.417 157.395 131.837 156.745 132.487 156.615L163.497 150.065C164.147 149.925 164.797 150.345 164.927 150.995C165.067 151.645 164.647 152.285 163.997 152.425Z" fill="#F7C875"/>
<path d="M166.557 164.575L135.547 171.125C134.897 171.265 134.247 170.845 134.107 170.195C133.967 169.545 134.387 168.895 135.037 168.765L166.047 162.215C166.697 162.075 167.347 162.495 167.477 163.145C167.637 163.795 167.217 164.435 166.557 164.575Z" fill="#F7C875"/>
<path d="M118.317 153.094C119.087 147.804 118.377 143.044 118.377 143.044C121.097 142.234 124.237 141.184 127.887 139.814L130.737 145.234C130.737 145.234 125.757 149.014 118.317 153.094Z" fill="#AB5E27"/>
<path d="M135.708 134.935L144.368 133.545C144.648 133.505 144.908 133.695 144.948 133.975C144.978 134.225 144.828 134.465 144.588 134.525L136.978 136.655L144.958 134.815C145.258 134.745 145.568 134.925 145.648 135.225C145.728 135.525 145.568 135.835 145.268 135.935L137.248 138.605L145.138 136.575C145.438 136.495 145.738 136.685 145.818 136.975C145.888 137.255 145.728 137.535 145.458 137.625L137.508 140.385L145.278 138.325C145.568 138.245 145.868 138.435 145.928 138.735C145.978 138.985 145.838 139.225 145.598 139.315L136.298 143.345L134.218 139.615L135.708 134.935Z" fill="#AB5E27"/>
<path d="M130.737 145.235C130.737 145.235 134.687 144.595 137.377 142.885C137.757 140.755 135.707 134.935 135.707 134.935C135.707 134.935 134.317 135.255 132.437 135.695C130.267 136.205 129.207 137.225 127.917 139.605C127.847 139.725 127.897 139.815 127.897 139.815L130.737 145.235Z" fill="#AB5E27"/>
<path d="M173.917 140.455L173.697 139.975C173.477 139.485 172.877 139.315 172.427 139.605L170.847 140.615C170.477 140.855 170.337 141.325 170.527 141.725C170.707 142.125 171.157 142.325 171.577 142.205L173.367 141.675C173.887 141.515 174.137 140.945 173.917 140.455Z" fill="#AB5E27"/>
<path d="M174.997 142.865L174.817 142.295C174.627 141.715 173.977 141.435 173.427 141.705L171.507 142.635C171.057 142.855 170.837 143.365 170.997 143.845C171.147 144.315 171.627 144.605 172.117 144.525L174.217 144.165C174.817 144.055 175.177 143.445 174.997 142.865Z" fill="#AB5E27"/>
<path d="M175.277 145.634V145.104C175.277 144.574 174.807 144.154 174.277 144.234L172.427 144.494C171.997 144.554 171.667 144.924 171.667 145.364C171.667 145.804 171.987 146.174 172.427 146.234L174.277 146.494C174.797 146.584 175.277 146.164 175.277 145.634Z" fill="#AB5E27"/>
<path d="M175.357 147.994L175.447 147.514C175.537 147.024 175.177 146.574 174.677 146.554L172.947 146.484C172.547 146.464 172.187 146.754 172.117 147.144C172.047 147.544 172.277 147.934 172.657 148.064L174.297 148.614C174.767 148.784 175.267 148.484 175.357 147.994Z" fill="#AB5E27"/>
<path d="M236.168 267.525L175.978 237.425L236.168 207.335V267.525Z" fill="#FBE3BA"/>
<path d="M243.787 267.525L303.977 237.425L243.787 207.335V267.525Z" fill="#FBE3BA"/>
<path d="M238.078 207.335H236.168V267.525H238.078V207.335Z" fill="#F7C875"/>
<path d="M243.787 207.335H247.597L307.787 237.425H303.977L243.787 207.335Z" fill="#F7C875"/>
<path d="M243.787 267.525H247.597L307.787 237.425H303.977L243.787 267.525Z" fill="#F7C875"/>
<defs>
<linearGradient id="paint0_linear_796_34561" x1="241.782" y1="287.14" x2="241.782" y2="4.1174" gradientUnits="userSpaceOnUse">
<stop stop-color="#DAD5F5"/>
<stop offset="1" stop-color="#F8E0DC"/>
</linearGradient>
<linearGradient id="paint1_linear_796_34561" x1="35.4464" y1="551.449" x2="448.116" y2="138.779" gradientUnits="userSpaceOnUse">
<stop stop-color="#9890A8"/>
<stop offset="1" stop-color="#C6B8C7"/>
</linearGradient>
<linearGradient id="paint2_linear_796_34561" x1="79.847" y1="123.359" x2="396.412" y2="123.359" gradientUnits="userSpaceOnUse">
<stop stop-color="#ABC8E8"/>
<stop offset="1" stop-color="#A5C7ED"/>
</linearGradient>
</defs>
</svg>
