<svg width="80" height="65" viewBox="0 0 80 65" fill="none" xmlns="http://www.w3.org/2000/svg">
<path d="M23.7793 26.7598H39.4233V31.453H23.7793V26.7598Z" fill="#FF8C00"/>
<path d="M63.202 28.6628C63.5436 22.2169 59.135 16.3751 52.8188 14.9964L49.6123 0H13.5897L10.3831 14.9964C4.35519 16.3338 -0.0159134 21.7017 4.35462e-05 27.8916V42.9679H4.69325V53.0333H18.7729V42.9679H44.489C42.0986 53.932 50.8608 64.7421 62.107 64.6097C85.3101 63.7602 86.2314 30.8799 63.202 28.6628ZM45.8164 4.69321L47.9238 14.549H15.2782L17.3856 4.69321H45.8164ZM14.0797 48.3401H9.38647V42.9679H14.0797V48.3401ZM4.69325 38.2747V31.7574H18.1471V27.0642H4.73518C5.077 23.5701 7.55846 20.6009 11.0061 19.6866L12.6827 19.2422H50.5195L52.1959 19.6866C55.6435 20.6007 58.1251 23.5701 58.4668 27.0642H45.0549V31.7574H51.98C49.5421 33.4242 47.5484 35.6615 46.1726 38.2747H4.69325ZM62.1069 59.9167C54.7747 59.9167 48.8094 53.9514 48.8094 46.6192C49.5399 28.9784 74.6765 28.9835 75.4043 46.6194C75.4043 53.9514 69.4391 59.9167 62.1069 59.9167Z" fill="#FF8C00"/>
<path d="M60.073 46.946L57.8996 44.7725L54.5811 48.0911L60.073 53.5832L69.6326 44.0236L66.3141 40.7051L60.073 46.946Z" fill="#FF8C00"/>
</svg>
