<svg width="400" height="390" viewBox="0 0 400 390" fill="none" xmlns="http://www.w3.org/2000/svg">
<g clip-path="url(#clip0_796_33910)">
<path d="M377.65 58.3926H181.186V337.376H377.65V58.3926Z" fill="#EBEBEB"/>
<path d="M352.132 27.5273C354.154 26.2987 356.299 25.3639 358.514 24.7318L359.829 18.3575L370.51 18.1705L372.045 24.4914C374.287 25.0434 376.468 25.907 378.524 27.0643L383.917 23.4943L391.605 30.9815L388.26 36.5457C389.478 38.5844 390.405 40.7477 391.032 42.9912L397.352 44.3177L397.537 55.09L391.27 56.639C390.723 58.8914 389.867 61.0993 388.719 63.1736L392.259 68.6221L384.844 76.3763L379.327 73.0022C377.306 74.2308 375.161 75.1655 372.937 75.7976L371.622 82.1719L360.941 82.3589L359.406 76.038C357.164 75.486 354.983 74.6225 352.927 73.4651L347.534 77.0351L339.846 69.5479L343.191 63.9838C341.973 61.945 341.046 59.7817 340.419 57.5382L334.099 56.2117L333.914 45.4395L340.181 43.8904C340.728 41.638 341.584 39.4301 342.732 37.3558L339.192 31.9163L346.607 24.162L352.132 27.5273ZM357.826 41.8784C353.43 46.4722 353.553 53.7902 358.108 58.2237C362.663 62.6573 369.918 62.5237 374.314 57.9388C378.71 53.3451 378.586 46.027 374.031 41.5935C369.477 37.1511 362.221 37.2846 357.826 41.8784Z" fill="#E0E0E0"/>
<path d="M357.825 41.8779C357.825 41.8779 358.426 41.0233 359.961 39.9906C361.471 38.9756 364.101 37.8539 367.438 38.21C369.079 38.397 370.88 38.94 372.522 40.0262C374.146 41.1212 375.673 42.6792 376.626 44.6912C377.129 45.6794 377.482 46.7833 377.668 47.9318C377.871 49.0802 377.906 50.291 377.73 51.4928C377.438 53.9055 376.309 56.2825 374.552 58.152C372.76 59.9949 370.448 61.2146 368.064 61.5974C366.882 61.811 365.681 61.8288 364.534 61.6597C363.386 61.5084 362.283 61.1968 361.285 60.7249C359.247 59.8346 357.658 58.339 356.51 56.7454C355.372 55.134 354.771 53.3357 354.524 51.6887C354.056 48.3413 355.08 45.6438 356.025 44.0947C357.005 42.51 357.825 41.8779 357.825 41.8779C357.887 41.9313 357.137 42.6347 356.254 44.2193C355.389 45.7773 354.48 48.4125 354.992 51.6175C355.257 53.1932 355.848 54.9026 356.96 56.4249C358.064 57.9295 359.6 59.3361 361.533 60.164C362.486 60.6092 363.536 60.8941 364.622 61.0276C365.708 61.179 366.837 61.1611 367.958 60.9564C370.209 60.5914 372.389 59.434 374.084 57.6891C375.744 55.9175 376.821 53.6829 377.103 51.4038C377.271 50.2643 377.244 49.1247 377.059 48.0386C376.882 46.9525 376.565 45.9019 376.088 44.9583C375.196 43.0353 373.758 41.5396 372.222 40.4802C370.668 39.4208 368.965 38.8777 367.385 38.6641C364.189 38.2634 361.612 39.2783 360.103 40.2042C358.558 41.1479 357.878 41.9313 357.825 41.8779Z" fill="#E0E0E0"/>
<path d="M352.133 27.5268C352.133 27.5357 352.009 27.4734 351.779 27.3399C351.524 27.1885 351.17 26.9838 350.72 26.7256C349.758 26.1469 348.364 25.319 346.563 24.2506L346.695 24.2328C344.806 26.227 342.326 28.8533 339.325 32.0227L339.343 31.8179C340.42 33.4649 341.62 35.29 342.9 37.2486L342.962 37.3465L342.909 37.4533C341.858 39.3674 340.976 41.5485 340.402 43.9434L340.375 44.068L340.252 44.1036C338.301 44.5933 336.183 45.1185 333.985 45.6705L334.161 45.439C334.232 48.8309 334.303 52.4276 334.373 56.2113L334.17 55.962C336.13 56.3715 338.283 56.8167 340.49 57.2796L340.649 57.3152L340.693 57.4755C341.285 59.5587 342.194 61.7665 343.447 63.8409L343.535 63.9922L343.447 64.1436C342.414 65.8707 341.276 67.7759 340.111 69.7166L340.066 69.3516C342.485 71.7019 345.089 74.2303 347.763 76.821L347.384 76.7854C349.061 75.6725 350.906 74.4529 352.777 73.2154L352.936 73.1086L353.103 73.1976C354.984 74.257 357.19 75.1651 359.503 75.7349L359.688 75.7794L359.732 75.9663C360.218 77.9427 360.739 80.1061 361.277 82.2872L360.959 82.038C364.34 81.9756 367.968 81.9133 371.64 81.8421L371.322 82.1003C371.737 80.0883 372.187 77.916 372.637 75.726L372.681 75.5301L372.875 75.4767C374.976 74.8802 377.156 73.9454 379.178 72.7169H379.186L379.363 72.61L379.531 72.7169C381.384 73.8475 383.22 74.9781 385.047 76.091L384.641 76.1444C387.148 73.527 389.62 70.9452 392.065 68.3991L392.029 68.8086C390.838 66.9746 389.664 65.1585 388.499 63.3601L388.393 63.191L388.49 63.0218C389.62 60.9742 390.467 58.7931 391.014 56.5674L391.058 56.3804L391.244 56.3359C393.362 55.8106 395.454 55.2943 397.511 54.7868L397.272 55.0984C397.211 51.4216 397.149 47.8338 397.096 44.3262L397.334 44.62C395.189 44.1659 393.088 43.7208 391.014 43.2846L390.838 43.249L390.794 43.0798C390.149 40.7918 389.222 38.6552 388.057 36.7055L387.969 36.5541L388.057 36.4028C389.205 34.4976 390.326 32.6459 391.411 30.8475L391.456 31.1858C388.755 28.5506 386.212 26.0579 383.785 23.6898L384.094 23.7165C382.196 24.9628 380.404 26.138 378.692 27.2686L378.569 27.3488L378.445 27.2775C376.291 26.0668 374.138 25.2477 372.028 24.7136L371.904 24.678L371.878 24.5533C371.331 22.2564 370.828 20.1821 370.36 18.2235L370.554 18.3749C366.414 18.4283 362.892 18.4728 359.874 18.5173L360.015 18.4016C359.476 20.9477 359.026 23.031 358.655 24.767L358.638 24.8293L358.576 24.8471C356.316 25.4792 354.728 26.227 353.695 26.7434C353.201 27.0016 352.821 27.2063 352.547 27.3488C352.256 27.4734 352.133 27.5357 352.133 27.5268C352.133 27.5179 352.256 27.4378 352.486 27.2864C352.733 27.1351 353.103 26.9036 353.615 26.6276C354.639 26.0757 356.219 25.3011 358.488 24.6245L358.417 24.7047C358.761 22.9597 359.185 20.8676 359.688 18.3214L359.715 18.2057H359.829C362.848 18.1434 366.37 18.0633 370.51 17.9653H370.66L370.695 18.1167C371.181 20.0664 371.684 22.1407 372.249 24.4376L372.09 24.2773C374.235 24.8026 376.432 25.6305 378.63 26.8502L378.383 26.8591C380.096 25.7196 381.879 24.5355 383.776 23.2802L383.944 23.1734L384.085 23.3158C386.521 25.6751 389.072 28.1589 391.782 30.7852L391.941 30.9365L391.826 31.1235C390.741 32.9307 389.637 34.7825 388.49 36.6966V36.4028C389.681 38.3881 390.643 40.5782 391.305 42.9107L391.085 42.697C393.159 43.1332 395.26 43.5695 397.405 44.0146L397.643 44.068V44.3084C397.705 47.8071 397.775 51.4038 397.837 55.0806L397.846 55.3299L397.599 55.3922C395.533 55.8997 393.45 56.4249 391.332 56.9502L391.561 56.7187C391.005 58.9978 390.149 61.2324 388.984 63.3334L388.975 62.9951C390.14 64.7935 391.323 66.6096 392.515 68.4347L392.656 68.6572L392.479 68.8442C390.043 71.3904 387.572 73.981 385.065 76.5984L384.88 76.7854L384.659 76.6518C382.832 75.539 380.996 74.4084 379.142 73.2777H379.487H379.478C377.403 74.5419 375.17 75.4945 373.017 76.1088L373.246 75.8595C372.796 78.0496 372.346 80.2218 371.931 82.2338L371.878 82.492L371.613 82.5009C367.941 82.5632 364.313 82.6255 360.933 82.6879L360.677 82.6968L360.615 82.4475C360.085 80.2663 359.565 78.103 359.079 76.1266L359.309 76.358C356.934 75.7705 354.683 74.8357 352.75 73.7496L353.077 73.7407C351.206 74.9781 349.361 76.1978 347.675 77.3017L347.472 77.4353L347.295 77.2661C344.63 74.6665 342.035 72.1293 339.616 69.7701L339.449 69.6098L339.572 69.4051C340.737 67.4732 341.885 65.568 342.926 63.8498V64.1436C341.655 62.0158 340.72 59.7545 340.128 57.6268L340.331 57.8227C338.125 57.3508 335.971 56.8968 334.011 56.4873L333.808 56.4427V56.238C333.755 52.4543 333.694 48.8577 333.649 45.4657V45.2788L333.835 45.2343C336.033 44.7001 338.151 44.1748 340.111 43.703L339.952 43.8632C340.552 41.4328 341.461 39.2249 342.538 37.2842L342.547 37.4889C341.285 35.5214 340.093 33.6875 339.034 32.0316L338.963 31.9158L339.051 31.8179C342.088 28.6753 344.603 26.0846 346.51 24.1082L346.572 24.0459L346.642 24.0904C348.408 25.1943 349.767 26.049 350.711 26.6455C351.153 26.9303 351.497 27.1529 351.753 27.3132C352.018 27.4378 352.133 27.5179 352.133 27.5268Z" fill="#E0E0E0"/>
<path d="M305.536 5.72429C306.745 4.98537 308.034 4.4334 309.358 4.05059L310.143 0.231336L316.534 0.115601L317.452 3.89924C318.793 4.22864 320.1 4.745 321.327 5.43941L324.557 3.30276L329.156 7.78081L327.152 11.1104C327.885 12.3301 328.441 13.6299 328.812 14.9653L332.598 15.7576L332.713 22.2032L328.971 23.1469C328.644 24.5001 328.132 25.8177 327.444 27.0551L329.562 30.3135L325.122 34.9518L321.821 32.9309C320.612 33.6698 319.323 34.2218 317.999 34.6046L317.213 38.4239L310.823 38.5396L309.905 34.756C308.563 34.4266 307.257 33.9102 306.03 33.2158L302.799 35.3524L298.201 30.8744L300.204 27.5448C299.472 26.3251 298.916 25.0253 298.545 23.6899L294.758 22.8976L294.644 16.452L298.395 15.5262C298.721 14.1729 299.233 12.8553 299.922 11.6179L297.804 8.35949L302.243 3.72119L305.536 5.72429ZM308.943 14.3154C306.312 17.0663 306.392 21.4464 309.111 24.0994C311.838 26.7524 316.181 26.6723 318.811 23.9303C321.441 21.1794 321.362 16.7992 318.643 14.1462C315.916 11.4843 311.573 11.5645 308.943 14.3154Z" fill="#F5F5F5"/>
<path d="M308.943 14.3153C308.943 14.3153 309.305 13.8079 310.223 13.1847C311.123 12.5793 312.703 11.9027 314.698 12.1164C315.678 12.2321 316.755 12.5526 317.744 13.2025C318.714 13.8613 319.632 14.7872 320.206 15.9979C320.506 16.5944 320.718 17.2532 320.833 17.9387C320.956 18.6242 320.974 19.3453 320.868 20.0665C320.692 21.5087 320.021 22.9331 318.962 24.0549C317.894 25.1588 316.499 25.8888 315.078 26.1114C314.372 26.236 313.648 26.2449 312.968 26.147C312.28 26.058 311.618 25.871 311.026 25.5861C309.808 25.052 308.855 24.1617 308.167 23.2091C307.487 22.2387 307.125 21.1704 306.984 20.1822C306.701 18.1791 307.319 16.5677 307.884 15.6329C308.449 14.6892 308.943 14.3153 308.943 14.3153C308.979 14.3509 308.528 14.7694 307.999 15.7219C307.478 16.6567 306.94 18.2325 307.24 20.1466C307.399 21.0903 307.752 22.1141 308.414 23.0221C309.076 23.9213 309.994 24.7671 311.15 25.2567C311.724 25.5238 312.35 25.693 312.995 25.7731C313.648 25.8621 314.319 25.8532 314.99 25.7286C316.34 25.506 317.646 24.8116 318.661 23.7789C319.659 22.7195 320.294 21.3841 320.462 20.013C320.559 19.3364 320.55 18.6509 320.436 18.001C320.33 17.3511 320.136 16.719 319.853 16.1582C319.324 15.0097 318.458 14.1106 317.541 13.4785C316.614 12.8464 315.59 12.517 314.645 12.3923C312.73 12.152 311.194 12.7574 310.285 13.3093C309.376 13.8791 308.979 14.3509 308.943 14.3153Z" fill="#F5F5F5"/>
<path d="M305.536 5.72443C305.536 5.73333 305.466 5.68882 305.324 5.60869C305.166 5.51967 304.962 5.39503 304.689 5.24368C304.115 4.89648 303.277 4.40683 302.2 3.75693L302.279 3.74803C301.149 4.94099 299.666 6.51677 297.866 8.41304L297.875 8.2884C298.519 9.2766 299.234 10.3716 300.002 11.5379L300.037 11.6002L300.002 11.6625C299.375 12.811 298.846 14.1197 298.501 15.553L298.484 15.6331L298.404 15.6509C297.239 15.9447 295.968 16.2563 294.653 16.5857L294.759 16.4433C294.803 18.4731 294.838 20.6275 294.882 22.8888L294.759 22.7375C295.933 22.9778 297.221 23.2449 298.545 23.5209L298.643 23.5387L298.669 23.6366C299.022 24.883 299.569 26.2006 300.32 27.447L300.373 27.536L300.32 27.625C299.702 28.6577 299.013 29.7973 298.325 30.9635L298.298 30.741C299.746 32.1476 301.308 33.6611 302.906 35.219L302.676 35.2012C303.683 34.5335 304.786 33.8035 305.907 33.0646L306.004 33.0023L306.101 33.0557C307.231 33.6878 308.546 34.2308 309.932 34.5691L310.047 34.5958L310.073 34.7116C310.364 35.8956 310.673 37.1865 311 38.4952L310.806 38.3439C312.827 38.3083 314.998 38.2637 317.196 38.2281L317.011 38.3884C317.258 37.1865 317.523 35.8867 317.797 34.5691L317.823 34.4534L317.938 34.4178C319.2 34.0617 320.498 33.5008 321.707 32.7619L321.813 32.6996L321.91 32.7619C323.022 33.4385 324.125 34.1151 325.211 34.7828L324.964 34.8184C326.464 33.2515 327.947 31.7025 329.404 30.1801L329.377 30.4205C328.662 29.3254 327.956 28.2393 327.259 27.1621L327.197 27.0642L327.25 26.9573C327.93 25.7288 328.433 24.429 328.759 23.0936L328.786 22.9778L328.901 22.9511C330.172 22.6395 331.416 22.3279 332.652 22.0252L332.511 22.2122C332.475 20.0132 332.44 17.8588 332.405 15.7667L332.546 15.9447C331.266 15.6776 330.004 15.4106 328.759 15.1435L328.653 15.1257L328.627 15.0188C328.247 13.6478 327.682 12.3658 326.994 11.1996L326.941 11.1106L326.994 11.0215C327.682 9.88198 328.353 8.77805 328.998 7.69192L329.024 7.89668C327.409 6.32091 325.882 4.82526 324.434 3.40973L324.62 3.42753C323.481 4.17536 322.413 4.87867 321.38 5.55528L321.31 5.59979L321.239 5.55528C319.95 4.82526 318.662 4.33561 317.399 4.01511L317.32 3.99731L317.302 3.91718C316.976 2.53727 316.676 1.29979 316.393 0.124638L316.508 0.213664C314.028 0.249275 311.918 0.275983 310.117 0.302691L310.206 0.23147C309.879 1.75383 309.614 3.00021 309.393 4.04182L309.385 4.07743L309.349 4.08633C307.999 4.46915 307.046 4.91428 306.428 5.21697C306.136 5.36832 305.907 5.49296 305.739 5.58198C305.607 5.68882 305.536 5.73333 305.536 5.72443C305.536 5.71552 305.607 5.67101 305.748 5.58198C305.898 5.49296 306.119 5.35942 306.419 5.19027C307.028 4.86087 307.981 4.39793 309.341 3.9884L309.296 4.03292C309.508 2.9913 309.755 1.73602 310.055 0.213664L310.073 0.142443H310.144C311.953 0.106832 314.063 0.0534161 316.534 0H316.623L316.649 0.0890269C316.94 1.25528 317.24 2.49275 317.585 3.87267L317.488 3.77474C318.776 4.09524 320.091 4.58488 321.407 5.3149L321.257 5.32381C322.28 4.6383 323.349 3.93499 324.478 3.17826L324.575 3.11594L324.664 3.19606C326.12 4.61159 327.647 6.08944 329.271 7.66521L329.368 7.75424L329.298 7.86998C328.653 8.9561 327.983 10.06 327.303 11.2085V11.0304C328.018 12.2145 328.592 13.5321 328.989 14.9298L328.856 14.8052C330.092 15.0633 331.354 15.3304 332.643 15.5975L332.784 15.6242V15.7667C332.82 17.8588 332.864 20.0132 332.899 22.2122V22.3636L332.767 22.3992C331.531 22.7019 330.286 23.0134 329.015 23.3339L329.157 23.1915C328.821 24.5536 328.309 25.8979 327.612 27.1532L327.603 26.9484C328.3 28.0257 329.006 29.1118 329.721 30.2068L329.81 30.3404L329.704 30.4561C328.247 31.9785 326.764 33.5275 325.264 35.0944L325.158 35.2101L325.026 35.13C323.931 34.4623 322.828 33.7857 321.724 33.1091H321.927C320.692 33.8658 319.35 34.4356 318.061 34.8006L318.203 34.6493C317.929 35.958 317.664 37.2577 317.417 38.4685L317.382 38.6199H317.223C315.025 38.6555 312.854 38.6911 310.832 38.7267H310.682L310.647 38.5753C310.329 37.2666 310.02 35.9758 309.729 34.7917L309.87 34.9341C308.449 34.578 307.099 34.0261 305.942 33.3762L306.136 33.3673C305.015 34.1062 303.912 34.8362 302.906 35.5039L302.782 35.584L302.676 35.4772C301.079 33.9192 299.525 32.3969 298.086 30.9903L297.989 30.8923L298.06 30.7677C298.757 29.6103 299.446 28.4708 300.064 27.4381V27.6161C299.305 26.3431 298.748 24.9898 298.395 23.7168L298.519 23.8325C297.195 23.5565 295.906 23.2805 294.741 23.0313L294.618 23.0045V22.8799C294.582 20.6186 294.547 18.4642 294.521 16.4344V16.3186L294.626 16.2919C295.942 15.9714 297.213 15.6598 298.387 15.3749L298.29 15.4729C298.651 14.0217 299.199 12.6952 299.843 11.5379V11.6625C299.084 10.4874 298.378 9.38343 297.742 8.39523L297.698 8.32401L297.751 8.2706C299.569 6.39213 301.07 4.83416 302.217 3.659L302.253 3.62339L302.297 3.6501C303.356 4.3089 304.168 4.82526 304.733 5.18136C304.998 5.35051 305.21 5.48406 305.36 5.58198C305.466 5.67101 305.536 5.71552 305.536 5.72443Z" fill="#F5F5F5"/>
<path d="M134.289 19.9242H18.7383V212.845H134.289V19.9242Z" fill="#E0E0E0"/>
<path d="M130.45 19.9242H14.8994V212.845H130.45V19.9242Z" fill="#EBEBEB"/>
<path d="M125.534 23.8417H19.8164V208.937H125.534V23.8417Z" fill="#FAFAFA"/>
<path d="M104.95 47.8876H39.9414V184.882H104.95V47.8876Z" fill="#EBEBEB"/>
<path d="M39.9409 136.407C39.7909 123.614 51.195 111.114 63.7642 109.334C69.7575 108.479 76.1216 109.681 81.7177 107.366C91.7096 103.236 94.8872 89.846 104.95 85.8754L105.409 184.891H39.9409V136.407Z" fill="#E0E0E0"/>
<path d="M293.444 347.659C294.768 346.849 296.189 346.234 297.645 345.816L298.51 341.623L305.536 341.498L306.551 345.656C308.025 346.021 309.455 346.582 310.815 347.347L314.363 344.997L319.421 349.92L317.223 353.579C318.026 354.923 318.635 356.348 319.05 357.817L323.207 358.689L323.331 365.776L319.209 366.8C318.847 368.286 318.291 369.729 317.532 371.1L319.862 374.678L314.981 379.78L311.353 377.563C310.029 378.373 308.608 378.987 307.152 379.406L306.287 383.599L299.26 383.724L298.245 379.566C296.771 379.201 295.341 378.64 293.982 377.875L290.434 380.225L285.376 375.302L287.574 371.643C286.771 370.307 286.162 368.874 285.747 367.405L281.589 366.533L281.466 359.446L285.588 358.422C285.95 356.935 286.506 355.493 287.265 354.122L284.935 350.543L289.816 345.442L293.444 347.659ZM297.186 357.096C294.291 360.114 294.379 364.93 297.372 367.841C300.364 370.761 305.139 370.672 308.025 367.654C310.912 364.636 310.832 359.82 307.84 356.909C304.848 353.998 300.081 354.078 297.186 357.096Z" fill="#F5F5F5"/>
<path d="M394.889 389.769C394.889 389.769 395.304 389.751 396.152 389.742C397.008 389.733 398.279 389.724 400 389.715V389.813C380.14 389.92 299.261 389.991 202.564 389.991C146.62 389.964 95.9905 389.938 59.3243 389.92C41.0001 389.893 26.1712 389.866 15.9146 389.849C10.7951 389.831 6.82305 389.813 4.11325 389.804C2.77159 389.795 1.74769 389.786 1.04155 389.777C0.353068 389.777 0 389.769 0 389.769C0 389.769 0.353068 389.751 1.04155 389.742C1.73886 389.733 2.77159 389.733 4.11325 389.715C6.82305 389.706 10.7951 389.688 15.9146 389.671C26.1712 389.653 41.0001 389.626 59.3243 389.599C95.9905 389.582 146.62 389.555 202.564 389.528C299.261 389.528 380.14 389.608 400 389.706V389.804C398.288 389.795 397.008 389.786 396.152 389.777C395.304 389.786 394.889 389.769 394.889 389.769Z" fill="#263238"/>
<path d="M361.868 43.8546H164.035V325.402H361.868V43.8546Z" fill="white"/>
<path d="M361.868 325.402C361.868 323.533 361.78 210.184 361.656 43.8546L361.868 44.0683C302.041 44.0772 234.852 44.0861 164.053 44.0861H164.026L164.256 43.8546C164.238 149.36 164.221 246.925 164.212 325.402L164.026 325.215C284.202 325.331 360.341 325.402 361.868 325.402C360.341 325.402 284.193 325.473 164.035 325.589H163.85V325.402C163.841 246.925 163.823 149.36 163.806 43.8546V43.6232H164.035H164.062C234.852 43.6321 302.05 43.641 361.877 43.641H362.089V43.8546C361.956 210.184 361.868 323.533 361.868 325.402Z" fill="#263238"/>
<path d="M255.912 250.317H183.26C180.003 250.317 177.354 247.655 177.354 244.361V236.741C177.354 233.456 179.994 230.785 183.26 230.785H255.912C259.169 230.785 261.817 233.447 261.817 236.741V244.361C261.817 247.655 259.169 250.317 255.912 250.317Z" fill="#F5F5F5"/>
<path d="M344.029 250.317H273.257C270 250.317 267.352 247.655 267.352 244.361V236.741C267.352 233.456 269.991 230.785 273.257 230.785H344.029C347.286 230.785 349.934 233.447 349.934 236.741V244.361C349.934 247.655 347.295 250.317 344.029 250.317Z" fill="#F5F5F5"/>
<path d="M345.204 290.352H182.863C179.606 290.352 176.958 287.691 176.958 284.397V276.776C176.958 273.491 179.597 270.82 182.863 270.82H345.204C348.461 270.82 351.109 273.482 351.109 276.776V284.397C351.109 287.682 348.461 290.352 345.204 290.352Z" fill="#F5F5F5"/>
<path d="M216.14 222.933C216.14 223.057 207.975 223.164 197.913 223.164C187.841 223.164 179.686 223.057 179.686 222.933C179.686 222.808 187.85 222.701 197.913 222.701C207.975 222.701 216.14 222.799 216.14 222.933Z" fill="#263238"/>
<path d="M302.385 222.933C302.385 223.057 295.959 223.164 288.033 223.164C280.107 223.164 273.681 223.057 273.681 222.933C273.681 222.808 280.107 222.701 288.033 222.701C295.959 222.701 302.385 222.799 302.385 222.933Z" fill="#263238"/>
<path d="M239.274 262.762C239.274 262.887 226.034 262.994 209.704 262.994C193.366 262.994 180.135 262.887 180.135 262.762C180.135 262.638 193.375 262.531 209.704 262.531C226.034 262.531 239.274 262.629 239.274 262.762Z" fill="#263238"/>
<path d="M345.362 207.797H179.597C176.428 207.797 173.851 205.207 173.851 202.002V192.244C173.851 189.048 176.419 186.449 179.597 186.449H345.362C348.531 186.449 351.109 189.039 351.109 192.244V202.002C351.109 205.207 348.531 207.797 345.362 207.797Z" fill="#E0E0E0"/>
<path d="M300.231 197.123C300.231 197.248 284.502 197.355 265.11 197.355C245.709 197.355 229.988 197.248 229.988 197.123C229.988 196.999 245.709 196.892 265.11 196.892C284.511 196.892 300.231 196.999 300.231 197.123Z" fill="#263238"/>
<path d="M345.362 77.9876H179.597C176.428 77.9876 173.851 75.3969 173.851 72.1919V62.4346C173.851 59.2385 176.419 56.6389 179.597 56.6389H345.362C348.531 56.6389 351.109 59.2296 351.109 62.4346V72.2008C351.109 75.3969 348.531 77.9876 345.362 77.9876Z" fill="#E0E0E0"/>
<path d="M300.231 67.3129C300.231 67.4375 284.502 67.5444 265.11 67.5444C245.709 67.5444 229.988 67.4375 229.988 67.3129C229.988 67.1883 245.709 67.0814 265.11 67.0814C284.511 67.0814 300.231 67.1883 300.231 67.3129Z" fill="#263238"/>
<path d="M361.868 83.1603C361.868 83.2849 317.54 83.3918 262.868 83.3918C208.177 83.3918 163.858 83.2849 163.858 83.1603C163.858 83.0357 208.177 82.9288 262.868 82.9288C317.54 82.9288 361.868 83.0357 361.868 83.1603Z" fill="#EBEBEB"/>
<path d="M361.868 177.609C361.868 177.733 317.54 177.84 262.868 177.84C208.177 177.84 163.858 177.733 163.858 177.609C163.858 177.484 208.177 177.377 262.868 177.377C317.54 177.377 361.868 177.475 361.868 177.609Z" fill="#EBEBEB"/>
<path d="M255.912 124.095H183.26C180.003 124.095 177.354 121.433 177.354 118.139V110.518C177.354 107.233 179.994 104.562 183.26 104.562H255.912C259.169 104.562 261.817 107.224 261.817 110.518V118.139C261.817 121.433 259.169 124.095 255.912 124.095Z" fill="#F5F5F5"/>
<path d="M344.029 124.095H273.257C270 124.095 267.352 121.433 267.352 118.139V110.518C267.352 107.233 269.991 104.562 273.257 104.562H344.029C347.286 104.562 349.934 107.224 349.934 110.518V118.139C349.934 121.433 347.295 124.095 344.029 124.095Z" fill="#F5F5F5"/>
<path d="M345.204 164.13H182.863C179.606 164.13 176.958 161.468 176.958 158.174V150.553C176.958 147.268 179.597 144.597 182.863 144.597H345.204C348.461 144.597 351.109 147.259 351.109 150.553V158.174C351.109 161.459 348.461 164.13 345.204 164.13Z" fill="#F5F5F5"/>
<path d="M216.139 96.7099C216.139 96.8345 207.974 96.9413 197.912 96.9413C187.84 96.9413 179.685 96.8345 179.685 96.7099C179.685 96.5852 187.849 96.4784 197.912 96.4784C207.974 96.4784 216.139 96.5763 216.139 96.7099Z" fill="#263238"/>
<path d="M302.385 96.71C302.385 96.8346 295.959 96.9415 288.033 96.9415C280.107 96.9415 273.681 96.8346 273.681 96.71C273.681 96.5853 280.107 96.4785 288.033 96.4785C295.959 96.4785 302.385 96.5764 302.385 96.71Z" fill="#263238"/>
<path d="M239.274 136.54C239.274 136.665 226.034 136.772 209.704 136.772C193.366 136.772 180.135 136.665 180.135 136.54C180.135 136.416 193.375 136.309 209.704 136.309C226.034 136.3 239.274 136.407 239.274 136.54Z" fill="#263238"/>
<path d="M344.991 302.22C344.991 302.344 332.078 302.451 316.146 302.451C300.213 302.451 287.3 302.344 287.3 302.22C287.3 302.095 300.213 301.988 316.146 301.988C332.078 301.988 344.991 302.095 344.991 302.22Z" fill="#263238"/>
<path d="M248.842 116.385C248.842 116.385 248.383 116.554 247.474 116.732C246.565 116.901 245.197 117.08 243.44 116.964C241.693 116.83 239.53 116.421 237.279 115.263C236.723 114.961 236.176 114.578 235.708 114.07C235.24 113.563 234.896 112.904 234.764 112.174C234.64 111.453 234.72 110.616 235.214 109.966C235.717 109.316 236.617 109.005 237.447 109.254C237.862 109.37 238.233 109.69 238.427 110.091C238.63 110.492 238.674 110.963 238.595 111.391C238.444 112.263 237.959 113.029 237.376 113.679C236.229 114.987 234.702 116.073 232.945 116.732C231.198 117.391 229.203 117.64 227.226 117.258C226.246 117.062 225.257 116.688 224.428 116.02C223.624 115.361 222.954 114.337 223.068 113.162C223.121 112.601 223.342 112.067 223.677 111.613C224.013 111.168 224.472 110.759 225.072 110.634C225.672 110.483 226.325 110.741 226.723 111.186C227.129 111.64 227.305 112.254 227.314 112.833C227.332 113.421 227.19 114.008 226.908 114.524C226.617 115.05 226.184 115.459 225.708 115.798C224.745 116.456 223.624 116.759 222.548 117.08C220.403 117.694 218.064 118.353 215.68 117.818C214.515 117.542 213.385 116.982 212.52 116.091C211.664 115.219 211.073 113.972 211.152 112.69C211.188 111.898 211.479 111.079 212.106 110.527C212.768 109.975 213.703 109.922 214.436 110.278C214.807 110.456 215.142 110.75 215.318 111.141C215.495 111.533 215.521 111.969 215.424 112.37C215.213 113.18 214.63 113.75 214.047 114.204C211.629 115.895 208.875 116.901 206.103 117.249C204.726 117.427 203.27 117.436 201.964 116.884C200.666 116.332 199.633 115.148 199.422 113.741C199.201 112.325 200.137 110.839 201.522 110.536C202.22 110.394 202.979 110.678 203.402 111.222C203.853 111.747 204.038 112.423 204.064 113.073C204.1 113.723 203.959 114.373 203.658 114.952C203.341 115.522 202.899 115.967 202.405 116.332C201.408 117.053 200.26 117.409 199.166 117.703C197.003 118.281 194.717 118.691 192.704 117.934C191.716 117.56 190.86 116.928 190.251 116.127C189.65 115.326 189.297 114.346 189.377 113.385C189.465 112.432 189.915 111.569 190.56 110.963C191.195 110.358 192.104 110.046 192.916 110.251L193.013 110.278V110.376C193.075 112.334 192.254 113.999 191.283 115.112C190.312 116.26 189.156 116.901 188.194 117.24C187.214 117.569 186.402 117.578 185.873 117.542C185.343 117.471 185.078 117.391 185.078 117.391C185.069 117.302 186.208 117.783 188.141 117.115C189.077 116.768 190.198 116.118 191.124 114.987C192.06 113.892 192.828 112.272 192.749 110.394L192.846 110.509C192.131 110.331 191.327 110.607 190.745 111.177C190.162 111.738 189.748 112.548 189.677 113.412C189.544 115.192 190.966 116.946 192.819 117.614C194.717 118.308 196.924 117.925 199.069 117.338C200.145 117.044 201.249 116.688 202.176 116.02C202.635 115.682 203.041 115.254 203.305 114.765C203.561 114.266 203.685 113.679 203.658 113.1C203.632 112.521 203.455 111.934 203.093 111.498C202.74 111.061 202.149 110.848 201.602 110.954C200.481 111.186 199.633 112.486 199.845 113.688C200.022 114.907 200.966 115.993 202.131 116.483C203.323 116.99 204.7 116.982 206.042 116.812C208.734 116.474 211.444 115.468 213.765 113.848C214.312 113.429 214.824 112.904 214.974 112.272C215.142 111.64 214.842 110.972 214.233 110.705C213.65 110.42 212.882 110.474 212.397 110.892C211.894 111.328 211.629 112.023 211.602 112.726C211.532 113.866 212.053 114.978 212.838 115.78C213.624 116.599 214.683 117.124 215.777 117.382C218.002 117.89 220.279 117.275 222.415 116.661C223.492 116.349 224.569 116.047 225.452 115.45C225.884 115.157 226.272 114.774 226.511 114.337C226.758 113.892 226.881 113.376 226.864 112.869C226.855 112.361 226.705 111.863 226.387 111.515C226.069 111.168 225.593 110.981 225.151 111.097C224.242 111.319 223.58 112.317 223.483 113.251C223.377 114.204 223.951 115.139 224.684 115.735C225.434 116.349 226.361 116.706 227.296 116.901C229.185 117.275 231.109 117.044 232.804 116.421C234.508 115.798 235.982 114.756 237.103 113.492C237.668 112.877 238.118 112.156 238.25 111.391C238.409 110.643 238.047 109.815 237.341 109.628C236.661 109.423 235.867 109.681 235.452 110.224C235.02 110.776 234.931 111.524 235.046 112.192C235.267 113.572 236.335 114.533 237.394 115.112C239.583 116.269 241.719 116.706 243.44 116.857C245.179 116.999 246.539 116.848 247.448 116.715C247.898 116.634 248.251 116.572 248.48 116.519C248.719 116.394 248.842 116.376 248.842 116.385Z" fill="#FF8C00"/>
<path d="M335.194 115.325C335.194 115.325 334.841 115.574 334.082 115.886C333.332 116.189 332.166 116.563 330.604 116.625C329.059 116.678 327.109 116.411 325.149 115.343C324.187 114.809 323.163 114.106 322.492 112.993C322.166 112.432 321.945 111.773 322.016 111.061C322.104 110.366 322.439 109.681 323.04 109.227C323.34 109.004 323.719 108.853 324.117 108.871C324.514 108.88 324.893 109.058 325.185 109.334C325.749 109.895 325.988 110.722 325.9 111.524C325.794 112.334 325.352 113.055 324.796 113.643C324.231 114.23 323.569 114.702 322.863 115.129C321.442 115.966 319.791 116.536 318.044 116.687C316.305 116.821 314.425 116.634 312.774 115.699C311.962 115.236 311.203 114.577 310.726 113.705C310.497 113.269 310.312 112.806 310.259 112.28C310.214 111.764 310.294 111.257 310.479 110.776C310.832 109.832 311.556 108.969 312.58 108.639C313.092 108.479 313.692 108.524 314.169 108.8C314.654 109.058 315.007 109.512 315.228 110.001C315.661 110.99 315.599 112.165 315.113 113.117C314.645 114.088 313.86 114.844 313.013 115.45C311.3 116.661 309.226 117.391 307.09 117.515C304.954 117.64 302.809 117.168 300.964 116.189C300.046 115.699 299.181 115.094 298.475 114.319C297.778 113.554 297.23 112.556 297.239 111.461C297.275 110.366 297.919 109.334 298.943 108.924C299.455 108.719 300.081 108.8 300.532 109.111C300.991 109.432 301.264 109.912 301.405 110.411C301.714 111.426 301.37 112.512 300.814 113.295C300.249 114.106 299.516 114.711 298.784 115.272C295.783 117.489 292.023 118.165 288.81 117.426C287.212 117.061 285.685 116.278 284.767 114.987C284.308 114.355 284.017 113.58 284.017 112.824C283.999 112.067 284.193 111.328 284.546 110.696C284.908 110.073 285.482 109.556 286.179 109.387C286.868 109.209 287.592 109.423 288.112 109.823C289.145 110.642 289.578 111.96 289.41 113.091C289.242 114.23 288.571 115.138 287.848 115.753C287.115 116.367 286.294 116.741 285.544 116.937C284.026 117.31 282.799 117.204 281.995 117.159C281.607 117.124 281.307 117.097 281.077 117.079C280.874 117.052 280.769 117.043 280.769 117.035C280.769 117.026 280.874 117.026 281.086 117.035C281.316 117.043 281.625 117.052 282.004 117.07C282.808 117.079 284.026 117.159 285.5 116.767C286.232 116.563 287.009 116.198 287.706 115.592C288.395 114.996 289.013 114.123 289.154 113.064C289.295 112.031 288.871 110.803 287.936 110.073C287.468 109.725 286.85 109.547 286.25 109.708C285.659 109.859 285.155 110.313 284.829 110.883C284.176 112.031 284.149 113.643 285.05 114.809C285.906 116.002 287.353 116.741 288.889 117.088C291.987 117.791 295.642 117.124 298.528 114.969C299.243 114.426 299.949 113.83 300.452 113.091C300.964 112.361 301.238 111.444 300.982 110.58C300.858 110.162 300.629 109.761 300.276 109.53C299.931 109.289 299.49 109.236 299.093 109.387C298.29 109.699 297.707 110.616 297.689 111.506C297.681 112.432 298.157 113.34 298.81 114.052C299.472 114.773 300.302 115.352 301.185 115.824C302.959 116.767 305.016 117.213 307.072 117.097C309.129 116.972 311.115 116.278 312.757 115.12C313.569 114.542 314.292 113.83 314.716 112.957C315.149 112.102 315.193 111.079 314.831 110.224C314.487 109.369 313.569 108.817 312.721 109.111C311.883 109.378 311.212 110.144 310.903 110.981C310.744 111.399 310.673 111.853 310.709 112.289C310.753 112.717 310.912 113.153 311.124 113.545C311.547 114.328 312.236 114.942 312.995 115.379C314.54 116.269 316.349 116.465 318.026 116.34C319.712 116.198 321.318 115.663 322.687 114.862C323.375 114.453 324.019 113.999 324.549 113.447C325.07 112.904 325.476 112.245 325.573 111.542C325.661 110.847 325.441 110.099 324.973 109.645C324.505 109.165 323.755 109.165 323.252 109.556C322.74 109.93 322.422 110.553 322.342 111.168C322.272 111.773 322.466 112.405 322.766 112.913C323.384 113.963 324.364 114.657 325.29 115.192C327.188 116.26 329.104 116.545 330.613 116.527C332.149 116.5 333.305 116.162 334.064 115.886C334.814 115.512 335.185 115.29 335.194 115.325Z" fill="#FF8C00"/>
<path d="M253.141 154.64C253.141 154.649 253.026 154.702 252.805 154.809C252.558 154.925 252.223 155.076 251.79 155.272C250.899 155.673 249.575 156.251 247.836 156.919C246.097 157.569 243.917 158.29 241.286 158.673C239.971 158.869 238.559 158.967 237.049 158.931C235.558 158.878 233.934 158.824 232.336 158.21C230.756 157.64 229.238 156.314 228.752 154.453C228.505 153.545 228.576 152.477 229.097 151.613C229.591 150.759 230.465 150.037 231.533 149.957C232.618 149.868 233.633 150.643 234.066 151.604C234.534 152.566 234.64 153.723 234.287 154.774C233.951 155.815 233.254 156.723 232.442 157.453C231.621 158.183 230.677 158.771 229.67 159.261C227.675 160.213 225.266 160.738 222.971 160.053C220.676 159.376 218.796 157.347 218.319 154.88C218.213 154.266 218.204 153.625 218.31 152.993C218.399 152.37 218.663 151.738 219.069 151.23C219.467 150.732 220.04 150.269 220.773 150.242C221.497 150.215 222.176 150.723 222.406 151.391C222.838 152.717 222.406 154.079 221.753 155.174C221.1 156.278 220.27 157.293 219.281 158.13C217.313 159.821 214.744 160.765 212.211 160.667C209.695 160.587 207.233 159.626 205.441 157.916C204.567 157.053 203.852 155.967 203.649 154.729C203.552 154.124 203.552 153.474 203.764 152.877C203.976 152.29 204.338 151.765 204.797 151.364C205.247 150.954 205.821 150.661 206.438 150.58C207.056 150.483 207.718 150.714 208.177 151.132C209.095 152.005 209.254 153.358 208.963 154.471C208.654 155.602 207.921 156.519 207.136 157.266C206.341 158.014 205.476 158.664 204.567 159.198C202.749 160.284 200.763 160.934 198.803 161.175C196.844 161.406 194.893 161.264 193.137 160.658C192.263 160.347 191.451 159.884 190.806 159.252C190.153 158.629 189.712 157.801 189.544 156.955C189.368 156.109 189.421 155.219 189.774 154.453C190.109 153.688 190.824 153.091 191.627 152.993C192.413 152.877 193.198 153.109 193.781 153.59C194.363 154.07 194.619 154.889 194.469 155.575C194.337 156.278 193.913 156.83 193.454 157.257C192.986 157.685 192.475 157.996 191.963 158.255C190.939 158.753 189.959 159.118 189.059 159.376C187.258 159.893 185.802 159.991 184.822 160.008C183.842 160.017 183.33 159.946 183.33 159.946C183.33 159.937 183.462 159.937 183.71 159.937C183.957 159.937 184.336 159.937 184.822 159.919C185.793 159.875 187.24 159.741 189.014 159.207C189.897 158.94 190.859 158.575 191.866 158.068C192.36 157.809 192.863 157.498 193.295 157.088C193.728 156.679 194.116 156.162 194.222 155.539C194.346 154.916 194.125 154.239 193.613 153.812C193.101 153.394 192.377 153.18 191.68 153.296C190.974 153.394 190.374 153.901 190.065 154.596C189.756 155.281 189.703 156.109 189.871 156.892C190.171 158.513 191.592 159.777 193.26 160.329C194.946 160.899 196.853 161.032 198.759 160.801C200.666 160.56 202.599 159.911 204.364 158.86C205.247 158.335 206.077 157.694 206.853 156.973C207.612 156.252 208.283 155.388 208.557 154.364C208.822 153.376 208.645 152.165 207.886 151.462C207.127 150.723 205.865 150.963 205.079 151.702C204.673 152.058 204.355 152.521 204.17 153.038C203.985 153.545 203.985 154.115 204.073 154.667C204.258 155.78 204.92 156.795 205.741 157.605C207.427 159.216 209.801 160.151 212.211 160.213C214.63 160.302 217.075 159.412 218.972 157.783C219.926 156.982 220.72 156.011 221.347 154.943C221.664 154.409 221.912 153.866 222.026 153.278C222.15 152.699 222.168 152.085 221.973 151.56C221.797 151.043 221.294 150.687 220.782 150.705C220.261 150.723 219.767 151.079 219.422 151.524C218.69 152.414 218.593 153.679 218.769 154.8C219.202 157.079 220.985 159.011 223.103 159.635C225.257 160.284 227.57 159.804 229.503 158.887C231.418 157.961 233.272 156.608 233.925 154.667C234.243 153.723 234.154 152.673 233.731 151.809C233.333 150.937 232.477 150.304 231.568 150.367C230.668 150.429 229.865 151.061 229.423 151.827C228.955 152.601 228.885 153.545 229.105 154.391C229.547 156.118 230.941 157.373 232.46 157.934C233.987 158.531 235.584 158.602 237.067 158.664C238.55 158.709 239.962 158.629 241.26 158.442C243.864 158.077 246.035 157.391 247.783 156.768C249.53 156.136 250.863 155.575 251.764 155.21C252.205 155.032 252.54 154.889 252.796 154.791C253.017 154.685 253.132 154.64 253.141 154.64Z" fill="#FF8C00"/>
<path d="M336.845 350.526C336.845 350.526 316.534 326.951 308.873 303.368C301.211 279.794 304.848 282.491 304.848 282.491C304.848 282.491 315.193 305.398 323.049 316.455C330.904 327.521 344.895 343.751 344.895 343.751L336.845 350.526Z" fill="#455A64"/>
<path d="M340.895 286.168C340.242 285.019 338.495 285.616 338.689 286.924C339.925 295.204 342.608 314.638 342.502 327.245C342.37 343.617 342.511 349.946 342.511 349.946H350.967C350.967 349.946 349.466 316.098 347.56 305.771C346.209 298.542 343.367 290.512 340.895 286.168Z" fill="#455A64"/>
<path d="M345.504 347.205C345.504 347.205 350.826 335.925 352.459 321.743C353.157 315.716 351.912 307.57 350.067 296.7C349.176 291.438 348.973 287.423 348.999 284.645C349.017 282.544 351.771 281.859 352.786 283.693C353.81 285.527 356.758 291.803 357.508 295.738C359.556 306.475 361.877 311.834 360.103 322.019C358.329 332.204 351.78 347.89 351.78 347.89L345.504 347.205Z" fill="#455A64"/>
<path d="M353.121 347.89C353.121 347.89 375.426 299.548 376.971 292.382C378.516 285.206 383.767 268.683 384.394 269.617C385.012 270.552 385.939 279.286 381.923 289.257C377.906 299.237 360.747 349.359 360.747 349.359H353.13" fill="#455A64"/>
<path d="M343.058 345.727C343.049 345.736 342.837 345.594 342.431 345.291C342.034 344.988 341.434 344.561 340.701 343.964C339.218 342.789 337.135 341 334.708 338.632C329.836 333.913 323.781 326.649 318.529 317.684C313.268 308.728 309.728 299.967 307.486 293.557C306.365 290.343 305.545 287.717 305.015 285.892C304.741 284.984 304.556 284.263 304.424 283.782C304.291 283.301 304.238 283.043 304.247 283.034C304.265 283.026 304.353 283.275 304.512 283.756C304.68 284.272 304.909 284.966 305.191 285.839C305.774 287.646 306.639 290.254 307.804 293.442C310.126 299.816 313.7 308.523 318.943 317.443C324.178 326.364 330.162 333.628 334.946 338.391C337.33 340.786 339.377 342.611 340.825 343.822C341.54 344.445 342.114 344.89 342.493 345.22C342.873 345.54 343.067 345.718 343.058 345.727Z" fill="#263238"/>
<path d="M345.504 322.536C345.468 322.536 345.398 322.028 345.301 321.12C345.195 320.123 345.054 318.814 344.886 317.247C344.533 313.98 343.985 309.466 343.191 304.516C342.397 299.558 341.523 295.106 340.843 291.884C340.517 290.343 340.243 289.061 340.031 288.073C339.837 287.174 339.749 286.676 339.784 286.667C339.819 286.658 339.969 287.147 340.216 288.029C340.464 288.919 340.799 290.21 341.179 291.803C341.947 295.008 342.873 299.469 343.668 304.427C344.453 309.395 344.956 313.918 345.221 317.203C345.354 318.841 345.442 320.176 345.486 321.093C345.53 322.028 345.53 322.536 345.504 322.536Z" fill="#263238"/>
<path d="M350.729 283.319C350.747 283.31 350.835 283.524 350.994 283.933C351.161 284.387 351.382 284.984 351.665 285.731C351.956 286.506 352.3 287.467 352.618 288.607C352.953 289.746 353.377 291.02 353.704 292.48C353.88 293.201 354.065 293.966 354.26 294.75C354.445 295.542 354.577 296.379 354.754 297.234C355.116 298.952 355.345 300.813 355.61 302.762C356.043 306.679 356.281 311.024 356.14 315.573C355.954 320.122 355.416 324.44 354.701 328.313C354.295 330.245 353.933 332.079 353.448 333.77C353.218 334.616 353.024 335.444 352.786 336.219C352.538 336.993 352.3 337.732 352.071 338.444C351.647 339.869 351.126 341.115 350.711 342.228C350.305 343.341 349.899 344.275 349.555 345.032C349.228 345.753 348.964 346.332 348.761 346.777C348.575 347.169 348.469 347.374 348.452 347.374C348.434 347.365 348.513 347.151 348.672 346.742C348.849 346.287 349.087 345.7 349.387 344.97C349.714 344.204 350.093 343.261 350.464 342.148C350.853 341.035 351.347 339.788 351.753 338.355C351.974 337.643 352.194 336.904 352.432 336.129C352.662 335.355 352.847 334.527 353.068 333.69C353.536 332.008 353.871 330.174 354.268 328.251C354.957 324.387 355.487 320.105 355.663 315.573C355.804 311.051 355.584 306.733 355.169 302.833C354.913 300.893 354.701 299.032 354.357 297.323C354.198 296.468 354.074 295.631 353.898 294.839C353.721 294.046 353.545 293.29 353.377 292.569C353.077 291.118 352.671 289.836 352.362 288.696C352.062 287.556 351.753 286.586 351.488 285.803C351.25 285.046 351.056 284.441 350.905 283.978C350.773 283.541 350.711 283.319 350.729 283.319Z" fill="#263238"/>
<path d="M384.13 270.588C384.139 270.588 384.13 270.659 384.112 270.801C384.086 270.971 384.051 271.175 384.015 271.434C383.918 271.986 383.795 272.796 383.574 273.837C383.141 275.92 382.426 278.912 381.314 282.535C380.202 286.167 378.684 290.423 376.874 295.106C375.074 299.789 372.982 304.881 371.005 310.312C368.992 315.733 367.448 321.021 365.991 325.82C364.552 330.619 363.184 334.936 361.86 338.489C360.554 342.05 359.292 344.863 358.338 346.75C357.879 347.712 357.473 348.424 357.209 348.914C357.085 349.136 356.979 349.314 356.9 349.466C356.829 349.59 356.785 349.653 356.776 349.644C356.767 349.644 356.794 349.572 356.856 349.439C356.926 349.288 357.014 349.092 357.129 348.86C357.367 348.353 357.747 347.632 358.18 346.661C359.08 344.747 360.289 341.925 361.551 338.355C362.831 334.794 364.164 330.476 365.576 325.669C367.006 320.87 368.551 315.555 370.563 310.125C372.549 304.685 374.65 299.593 376.468 294.928C378.296 290.263 379.849 286.025 380.997 282.419C382.153 278.814 382.912 275.84 383.397 273.784C383.645 272.751 383.795 271.941 383.927 271.398C383.989 271.149 384.033 270.944 384.068 270.775C384.095 270.659 384.121 270.588 384.13 270.588Z" fill="#263238"/>
<path d="M315.361 259.914C313.957 258.507 311.618 259.976 312.201 261.89C312.792 263.831 313.684 266.333 314.999 269.155C318.062 275.725 327.074 299.308 331.284 312.253C335.503 325.197 341.444 349.359 341.444 349.359L350.447 347.89C350.447 347.89 342.212 308.193 334.162 293.895C327.7 282.402 321.23 265.798 315.361 259.914Z" fill="#455A64"/>
<path d="M333.756 320.354C333.791 320.345 333.95 320.728 334.223 321.44C334.488 322.153 334.85 323.194 335.265 324.485C336.095 327.076 337.11 330.69 338.134 334.714C339.149 338.738 340.005 342.388 340.596 345.041C340.87 346.297 341.091 347.347 341.276 348.184C341.426 348.932 341.497 349.341 341.461 349.35C341.426 349.359 341.303 348.959 341.091 348.229C340.87 347.401 340.596 346.359 340.27 345.122C339.581 342.388 338.672 338.801 337.675 334.83C336.651 330.815 335.689 327.192 334.947 324.583C334.594 323.354 334.294 322.322 334.056 321.494C333.826 320.773 333.72 320.363 333.756 320.354Z" fill="#263238"/>
<path d="M345.972 348.629C345.963 348.629 345.945 348.549 345.919 348.389C345.892 348.202 345.857 347.962 345.813 347.677C345.716 347.045 345.636 346.119 345.442 344.926C345.116 342.54 344.524 339.103 343.553 334.91C342.591 330.717 341.188 325.785 339.343 320.408C337.498 315.031 335.177 309.217 332.555 303.199C327.259 291.18 321.972 280.524 318.494 272.645C316.738 268.71 315.378 265.505 314.478 263.27C314.019 262.158 313.692 261.276 313.463 260.689C313.357 260.413 313.278 260.19 313.216 260.012C313.163 259.861 313.136 259.781 313.145 259.772C313.154 259.772 313.189 259.843 313.26 259.994C313.339 260.172 313.437 260.386 313.551 260.653C313.816 261.267 314.178 262.122 314.646 263.199C315.59 265.407 317.003 268.594 318.794 272.511C322.343 280.346 327.683 290.976 332.988 303.012C335.618 309.039 337.922 314.87 339.758 320.265C341.594 325.66 342.962 330.619 343.889 334.839C344.815 339.05 345.354 342.504 345.628 344.908C345.786 346.101 345.848 347.045 345.91 347.668C345.936 347.962 345.954 348.202 345.963 348.389C345.972 348.54 345.981 348.629 345.972 348.629Z" fill="#263238"/>
<path d="M350.447 347.89C350.411 347.89 350.306 347.347 350.147 346.368C349.97 345.3 349.732 343.893 349.449 342.193C348.832 338.676 347.878 333.833 346.519 328.554C345.168 323.274 343.65 318.583 342.485 315.209C341.911 313.579 341.435 312.235 341.082 311.22C340.746 310.276 340.57 309.751 340.605 309.742C340.632 309.733 340.87 310.232 341.258 311.149C341.647 312.075 342.185 313.41 342.812 315.093C344.065 318.44 345.636 323.141 346.996 328.438C348.364 333.726 349.255 338.605 349.794 342.139C350.05 343.911 350.244 345.344 350.35 346.341C350.438 347.329 350.482 347.881 350.447 347.89Z" fill="#263238"/>
<path d="M368.93 346.581H333.791V389.759H368.93V346.581Z" fill="#FF8C00"/>
<g opacity="0.3">
<path d="M368.93 346.581H333.791V389.759H368.93V346.581Z" fill="black"/>
</g>
<path d="M357.72 346.581H326.544V389.759H357.72V346.581Z" fill="#FF8C00"/>
<path d="M72.1757 117.658L71.1783 198.779C71.0105 212.569 73.5526 232.876 95.1869 232.146C113.908 230.09 118.878 212.213 119.028 199.34C119.098 193.232 119.169 188.14 119.213 187.517C119.213 187.517 139.709 185.834 141.439 165.412C142.277 155.547 142.357 135.08 142.216 116.562C142.066 96.6739 126.778 80.2484 107.112 78.7973L105.161 78.6549C83.9858 78.3344 71.8932 96.3 72.1757 117.658Z" fill="#AB5E27"/>
<path d="M119.214 187.508C119.214 187.508 106.388 187.321 93.3955 177.697C93.3955 177.697 98.7533 193.099 119.108 192.752L119.214 187.508Z" fill="#8C4F23"/>
<path d="M107.598 124.923C107.192 125.332 104.862 123.436 101.464 123.347C98.0745 123.204 95.5412 124.932 95.1793 124.495C95.0028 124.299 95.4265 123.543 96.5298 122.759C97.6155 121.976 99.4603 121.246 101.57 121.317C103.679 121.388 105.436 122.252 106.433 123.107C107.466 123.961 107.802 124.736 107.598 124.923Z" fill="#263238"/>
<path d="M107.502 132C107.449 133.46 106.178 134.618 104.659 134.591C103.15 134.564 101.967 133.354 102.02 131.893C102.073 130.433 103.344 129.267 104.862 129.303C106.372 129.33 107.555 130.531 107.502 132Z" fill="#263238"/>
<path d="M116.099 148.72C116.099 148.542 118.058 148.346 121.227 148.168C122.03 148.141 122.789 148.043 122.966 147.5C123.195 146.93 122.922 146.049 122.604 145.087C121.995 143.093 121.359 141.001 120.697 138.811C118.058 129.873 116.213 122.555 116.575 122.448C116.937 122.341 119.365 129.499 121.995 138.437C122.622 140.636 123.231 142.737 123.804 144.749C124.043 145.684 124.484 146.752 123.99 147.927C123.734 148.506 123.116 148.907 122.595 149.005C122.074 149.12 121.624 149.103 121.227 149.094C118.058 149.031 116.099 148.898 116.099 148.72Z" fill="#263238"/>
<path d="M106.16 112.058C105.833 112.815 103.114 112.245 99.8661 112.414C96.609 112.512 93.9433 113.304 93.5638 112.574C93.3961 112.227 93.8992 111.524 95.0114 110.847C96.1059 110.171 97.8183 109.574 99.769 109.494C101.72 109.414 103.467 109.868 104.606 110.447C105.753 111.043 106.301 111.693 106.16 112.058Z" fill="#263238"/>
<path d="M138.377 118.396C138.024 119.011 135.376 118.325 132.163 118.227C128.959 118.067 126.293 118.539 125.958 117.898C125.808 117.586 126.337 117.034 127.458 116.545C128.57 116.055 130.283 115.681 132.207 115.752C134.131 115.832 135.826 116.349 136.92 116.928C138.015 117.506 138.536 118.103 138.377 118.396Z" fill="#263238"/>
<path d="M72.7324 132.908C72.397 132.73 59.1128 127.726 58.539 141.73C57.9741 155.734 72.0263 153.42 72.0704 153.019C72.1145 152.627 72.7324 132.908 72.7324 132.908Z" fill="#AB5E27"/>
<path d="M68.0454 147.544C67.9837 147.499 67.7983 147.704 67.3834 147.873C66.9774 148.042 66.2889 148.14 65.574 147.838C64.1264 147.232 62.9877 144.837 63.0231 142.309C63.0407 141.036 63.3585 139.834 63.8439 138.846C64.3118 137.84 64.9914 137.154 65.7417 137.047C66.4831 136.905 66.9862 137.377 67.1451 137.778C67.3128 138.178 67.2157 138.454 67.2864 138.481C67.3217 138.516 67.5953 138.258 67.507 137.68C67.4629 137.404 67.3128 137.065 66.9951 136.78C66.6685 136.496 66.1918 136.335 65.6711 136.371C64.5942 136.398 63.5968 137.359 63.0584 138.436C62.4581 139.522 62.0786 140.876 62.0609 142.309C62.0345 145.131 63.3585 147.838 65.3445 148.505C66.3066 148.799 67.1363 148.541 67.5688 148.229C68.0013 147.882 68.0896 147.57 68.0454 147.544Z" fill="#8C4F23"/>
<path d="M112.823 158.414C112.973 158.058 110.255 157.239 108.339 154.666C107.386 153.401 106.83 152.022 106.415 151.007C106.009 149.992 105.7 149.351 105.55 149.395C105.409 149.44 105.444 150.125 105.665 151.238C105.894 152.333 106.371 153.9 107.448 155.333C108.516 156.784 109.946 157.657 110.996 158.075C112.073 158.512 112.788 158.538 112.823 158.414Z" fill="#263238"/>
<path d="M138.527 126.213C138.121 126.622 135.791 124.726 132.393 124.637C129.003 124.495 126.47 126.222 126.108 125.785C125.931 125.59 126.355 124.833 127.459 124.049C128.544 123.266 130.389 122.536 132.499 122.607C134.608 122.678 136.365 123.542 137.362 124.397C138.395 125.242 138.721 126.026 138.527 126.213Z" fill="#263238"/>
<path d="M137.97 132.988C137.917 134.448 136.646 135.605 135.128 135.578C133.619 135.552 132.436 134.341 132.489 132.881C132.542 131.421 133.813 130.263 135.331 130.29C136.841 130.317 138.023 131.528 137.97 132.988Z" fill="#263238"/>
<path d="M156.34 89.4364C153.736 84.8426 147.425 82.8306 142.676 85.0741C143.929 78.6464 140.487 71.5776 134.679 68.6398C128.871 65.7019 121.2 67.153 116.84 72.005C116.566 70.26 115.348 68.7733 113.857 67.8652C112.365 66.9482 110.608 66.5565 108.87 66.3696C103.459 65.7731 97.8626 67.1085 93.2904 70.082C90.8895 71.64 88.7976 73.6431 87.094 75.9489C79.0617 74.9963 70.544 77.9609 65.1067 84.0414C58.5838 91.3327 57.3569 108.221 64.4977 122.813L66.1836 131.965C68.4256 131.956 70.4734 132.116 71.8591 133.371C73.7392 135.072 74.5778 138.277 77.6936 137.057C79.2824 136.434 80.73 133.077 81.2596 131.448C84.7814 120.623 85.9554 109.031 84.6844 97.7159C86.8999 95.33 89.5832 93.3803 92.5313 92.0093L92.293 92.223C97.9509 90.2377 104.35 88.288 109.717 90.9677C113.883 93.042 116.328 97.4043 119.444 100.885C125.34 107.473 133.302 111.061 142.102 111.444C142.402 117.195 141.926 125.323 142.226 131.074L147.019 121.86V121.905C147.416 121.228 147.734 120.551 148.051 119.866L148.157 119.661V119.634V119.625C149.031 118.904 149.702 117.587 151.185 115.877C154.045 112.566 154.839 107.58 153.153 103.529C157.469 100.538 158.943 94.0302 156.34 89.4364Z" fill="#263238"/>
<path d="M149.808 116.402C149.799 116.393 149.799 116.393 149.79 116.385L149.808 116.402Z" fill="#263238"/>
<path d="M148.041 89.6503C148.059 89.6503 148.085 89.7482 148.138 89.953C148.191 90.1488 148.244 90.4604 148.262 90.861C148.306 91.6534 148.174 92.8641 147.45 94.1461C147.088 94.7782 146.585 95.4192 145.896 95.9534C145.208 96.4786 144.343 96.8971 143.363 97.0395C141.439 97.36 139.065 96.7012 137.573 94.8405L137.917 94.5378C138.57 95.2501 138.932 96.265 138.897 97.2799C138.861 98.642 138.27 99.924 137.343 100.805C136.399 101.678 135.198 102.096 134.06 102.212C131.756 102.435 129.752 101.571 128.349 100.627C126.928 99.6747 125.957 98.6865 125.295 98.0099C124.642 97.3244 124.306 96.9238 124.324 96.906C124.35 96.8793 124.73 97.2443 125.418 97.8853C126.116 98.5173 127.113 99.461 128.517 100.351C129.902 101.233 131.835 102.025 134.007 101.785C135.066 101.669 136.187 101.259 137.026 100.467C137.855 99.6747 138.394 98.4906 138.429 97.2621C138.464 96.3451 138.147 95.4548 137.582 94.8405L137.926 94.5378C139.276 96.2472 141.501 96.8971 143.301 96.6211C145.146 96.3718 146.488 95.1521 147.185 93.9681C147.909 92.7662 148.077 91.6089 148.085 90.8432C148.112 90.0776 147.997 89.6592 148.041 89.6503Z" fill="#455A64"/>
<path d="M130.662 74.3019C130.671 74.284 130.768 74.3375 130.962 74.4354C131.148 74.5422 131.421 74.7114 131.739 74.9607C132.366 75.4592 133.257 76.3228 133.831 77.7027C134.414 79.0559 134.484 81.059 133.354 82.7505C132.807 83.5785 131.907 84.2818 130.821 84.5043C129.762 84.7269 128.553 84.5577 127.582 83.8722C127.282 83.6497 127.017 83.3826 126.814 83.0977L127.211 82.8751C127.652 83.9257 127.538 85.0919 127.105 86.0267C126.681 86.9704 125.922 87.7093 125.084 88.1099C123.38 88.9379 121.58 88.6708 120.353 88.101C119.099 87.5223 118.296 86.7211 117.802 86.1602C117.308 85.5905 117.104 85.2165 117.122 85.2076C117.149 85.1809 117.405 85.5192 117.925 86.0445C118.446 86.5609 119.258 87.2998 120.476 87.8072C121.659 88.3147 123.354 88.5105 124.898 87.736C125.658 87.3532 126.32 86.6944 126.699 85.8397C127.079 84.994 127.167 83.9613 126.787 83.0621L126.055 81.3439L127.185 82.8395C127.361 83.0799 127.582 83.3114 127.847 83.5072C128.685 84.1037 129.771 84.2729 130.724 84.0681C131.686 83.8722 132.481 83.2669 133.001 82.519C134.052 80.9878 134.034 79.1271 133.522 77.8362C133.019 76.5097 132.198 75.6462 131.616 75.112C131.033 74.56 130.645 74.3375 130.662 74.3019Z" fill="#455A64"/>
<path d="M248.498 176.407L216.457 201.085C214.551 202.554 214.277 205.332 215.84 207.157C217.287 208.83 219.776 209.08 221.515 207.718L253.291 182.817L257.59 174.27L248.498 176.407Z" fill="#FF8C00"/>
<path opacity="0.5" d="M253.486 175.232L255.754 177.902L253.3 182.817C253.3 182.817 250.944 182.941 251.164 180.582C251.164 180.582 248.781 180.831 249.222 178.339C249.222 178.339 247.554 178.187 248.499 176.416L253.486 175.232Z" fill="white"/>
<path d="M216.467 201.085L221.719 207.566L223.484 206.178L218.444 199.563L216.467 201.085Z" fill="#263238"/>
<path d="M214.101 262.941L212.953 262.736L236.556 221.116L232.822 209.115C232.822 209.115 228.497 192.031 232.098 187.669C232.098 187.669 239.981 178.312 242.54 178.437C245.1 178.561 247.148 179.078 247.66 181.018C247.66 181.018 252.011 180.502 253.159 181.917C254.306 183.333 255.207 185.016 255.207 185.016C255.207 185.016 259.938 184.633 261.218 188.755C261.218 188.755 265.693 191.078 266.081 194.426C266.461 197.782 265.19 213.388 263.777 217.386C262.374 221.383 257.131 229.769 255.595 242.153C254.059 254.537 248.648 262.576 243.847 280.666L230.792 285.874L214.101 262.941Z" fill="#AB5E27"/>
<path d="M247.429 180.761C247.527 180.894 245.902 181.98 244.676 183.974C243.422 185.96 243.157 187.9 242.998 187.874C242.866 187.892 242.893 185.799 244.225 183.69C245.532 181.562 247.385 180.627 247.429 180.761Z" fill="#EB996E"/>
<path d="M254.951 185.016C255.039 185.158 253.486 186.102 252.259 187.891C250.997 189.672 250.644 191.461 250.485 191.426C250.352 191.435 250.485 189.485 251.818 187.58C253.133 185.666 254.907 184.882 254.951 185.016Z" fill="#EB996E"/>
<path d="M260.961 188.631C261.058 188.755 259.884 189.788 258.807 191.364C257.713 192.931 257.157 194.399 257.007 194.346C256.874 194.319 257.227 192.699 258.366 191.052C259.505 189.405 260.882 188.515 260.961 188.631Z" fill="#EB996E"/>
<path d="M238.798 190.001C238.719 190.135 237.651 189.432 236.177 189.547C234.703 189.628 233.741 190.473 233.644 190.349C233.599 190.304 233.767 190.01 234.2 189.69C234.623 189.369 235.329 189.058 236.142 189.004C236.962 188.951 237.695 189.165 238.163 189.423C238.631 189.681 238.834 189.948 238.798 190.001Z" fill="#EB996E"/>
<path d="M248.207 195.939C248.057 195.993 247.615 194.604 246.256 193.589C244.923 192.538 243.476 192.476 243.493 192.316C243.493 192.254 243.855 192.165 244.455 192.245C245.047 192.316 245.85 192.601 246.592 193.162C247.324 193.723 247.801 194.435 248.03 194.996C248.26 195.539 248.269 195.922 248.207 195.939Z" fill="#EB996E"/>
<path d="M257.554 197.952C257.439 198.067 256.416 196.892 254.65 196.429C252.902 195.931 251.428 196.42 251.384 196.269C251.358 196.207 251.693 195.993 252.32 195.842C252.938 195.69 253.847 195.655 254.791 195.913C255.736 196.171 256.504 196.67 256.963 197.115C257.422 197.551 257.607 197.907 257.554 197.952Z" fill="#EB996E"/>
<path d="M19.4103 243.336C19.4103 243.336 4.94332 326.203 5.64063 333.957C6.33794 341.702 10.1864 354.032 18.916 356.142C27.6456 358.252 35.6779 356.142 35.6779 356.142L25.2006 254.358L19.4103 243.336Z" fill="#FF8C00"/>
<path d="M61.7698 200.595C61.7698 200.595 44.4606 213.005 40.6298 216.655C24.627 231.924 21.2729 238.173 19.4104 243.337C17.548 248.5 30.5233 368.482 30.5233 368.482L33.1536 389.448L154.671 389.759V282.66L136.417 207.29L125.181 204.067L122.912 195.084C122.912 195.084 108.957 184.686 85.9373 184.392C78.8583 184.303 68.84 187.107 63.2439 191.488L61.7698 200.595Z" fill="#FF8C00"/>
<path d="M122.816 207.601C122.816 207.601 135.305 207.031 136.409 207.289C140.257 208.189 150.832 217.955 162.862 230C174.346 241.494 196.942 265.397 196.942 265.397C196.942 265.397 201.003 261.258 205.637 266.786L223.475 240.612C223.475 240.612 250.256 243.933 254.466 264.311C254.466 264.311 246.257 280.113 239.54 291.42C239.54 291.42 214.657 333.075 194.992 325.535C177.038 318.644 154.521 300.225 151.352 296.281L124.916 277.256C124.916 277.256 106.813 242.428 114.81 225.015C122.816 207.601 122.816 207.601 122.816 207.601Z" fill="#FF8C00"/>
<path d="M125.172 204.067C125.163 204.085 124.943 204.04 124.528 203.934C124.06 203.809 123.46 203.649 122.727 203.453C121.156 203.052 118.879 202.5 116.036 201.957C110.361 200.826 102.417 199.767 93.6078 199.171C84.7899 198.628 76.7752 198.681 71.0202 199.242C68.1427 199.491 65.8213 199.856 64.2325 200.141C63.4822 200.292 62.882 200.408 62.4053 200.506C61.9817 200.586 61.761 200.613 61.761 200.595C61.7522 200.577 61.9728 200.506 62.3789 200.399C62.8467 200.275 63.4469 200.123 64.1883 199.936C65.7683 199.58 68.0897 199.162 70.9761 198.859C76.7488 198.2 84.7899 198.084 93.6342 198.628C102.47 199.224 110.423 200.355 116.098 201.583C118.94 202.171 121.218 202.785 122.771 203.248C123.504 203.488 124.086 203.675 124.554 203.827C124.969 203.969 125.181 204.049 125.172 204.067Z" fill="#263238"/>
<path d="M77.8427 197.826C77.6926 197.844 77.2954 195.796 76.9424 193.241C76.5893 190.686 76.4216 188.603 76.5716 188.585C76.7217 188.567 77.1189 190.615 77.472 193.17C77.825 195.725 77.9927 197.808 77.8427 197.826Z" fill="#263238"/>
<path d="M82.3802 197.435C82.2566 197.479 81.4799 195.476 81.3122 192.85C81.1268 190.224 81.6123 188.132 81.7447 188.158C81.9036 188.185 81.6652 190.259 81.8506 192.814C82.0183 195.369 82.5391 197.39 82.3802 197.435Z" fill="#263238"/>
<g opacity="0.3">
<path d="M62.167 200.488C81.1886 203.88 100.457 200.524 120.582 202.919C101.155 198.868 80.9149 196.945 62.167 200.488Z" fill="black"/>
</g>
<g opacity="0.3">
<path d="M28.8025 356.303C18.1045 331.037 19.3756 302.477 20.8231 275.039L28.8025 356.303Z" fill="black"/>
</g>
<path d="M19.4102 261.41C19.419 261.41 19.4367 261.516 19.4632 261.73C19.4896 261.97 19.5249 262.282 19.5779 262.674C19.6662 263.537 19.7986 264.748 19.9575 266.288C20.2664 269.466 20.7165 274.007 21.2638 279.598C22.3495 290.842 23.8324 306.368 25.6065 323.506C27.3807 340.652 29.1549 356.143 30.5672 367.352C31.2645 372.951 31.8647 377.483 32.2884 380.608C32.4914 382.148 32.6503 383.35 32.7562 384.213C32.8003 384.605 32.8356 384.908 32.8621 385.157C32.8798 385.371 32.8886 385.477 32.8798 385.477C32.8709 385.477 32.8444 385.371 32.8091 385.166C32.765 384.925 32.712 384.623 32.6503 384.231C32.5179 383.376 32.3237 382.174 32.0765 380.643C31.5911 377.527 30.9291 373.005 30.1876 367.405C28.6694 356.214 26.8423 340.715 25.0681 323.568C23.2939 306.43 21.8728 290.895 20.8843 279.642C20.4076 274.042 20.0192 269.502 19.7456 266.315C19.622 264.766 19.5338 263.555 19.4632 262.692C19.4367 262.3 19.419 261.988 19.4014 261.748C19.4014 261.516 19.4014 261.41 19.4102 261.41Z" fill="#263238"/>
<path d="M101.684 247.85C101.684 247.868 101.41 247.886 100.898 247.895C100.333 247.895 99.5829 247.904 98.6561 247.913C96.7054 247.904 93.8897 247.931 90.412 248.02C83.4477 248.18 73.8354 248.696 63.2875 249.951C52.7308 251.225 43.2685 252.996 36.4631 254.492C33.0649 255.24 30.3109 255.872 28.422 256.344C27.5129 256.557 26.7891 256.726 26.233 256.86C25.7299 256.976 25.4651 257.02 25.4651 257.002C25.4562 256.985 25.7122 256.896 26.2065 256.753C26.7538 256.602 27.4687 256.397 28.3691 256.139C30.2491 255.605 32.9854 254.91 36.3749 254.118C43.1626 252.524 52.6425 250.69 63.2169 249.408C73.7913 248.144 83.4301 247.69 90.4032 247.628C93.8897 247.592 96.7143 247.628 98.6561 247.699C99.5918 247.735 100.333 247.761 100.898 247.788C101.41 247.806 101.684 247.833 101.684 247.85Z" fill="#263238"/>
<path d="M55.0168 274.683C54.8668 274.674 55.1492 263.199 55.6435 249.052C56.1378 234.897 56.6586 223.439 56.7998 223.439C56.9499 223.448 56.6674 234.915 56.1731 249.07C55.6877 263.216 55.1669 274.683 55.0168 274.683Z" fill="#263238"/>
<path d="M117.122 273.267C117.104 273.276 116.946 273.027 116.663 272.546C116.363 272.021 115.957 271.318 115.445 270.436C114.359 268.558 112.832 265.914 110.961 262.664C109.116 259.361 106.918 255.382 105.338 250.574C104.57 248.171 103.97 245.58 103.661 242.847C103.388 240.114 103.397 237.256 103.635 234.354C104.164 228.576 105.4 223.074 107.642 218.534C108.746 216.263 110.105 214.251 111.597 212.578C113.097 210.904 114.739 209.586 116.345 208.58C119.585 206.551 122.674 205.838 124.775 205.732C126.893 205.616 128.041 205.919 128.041 205.919C128.032 205.99 126.876 205.767 124.792 205.945C122.718 206.114 119.699 206.871 116.548 208.91C114.986 209.925 113.38 211.233 111.923 212.889C110.476 214.545 109.16 216.522 108.084 218.765C105.894 223.243 104.685 228.674 104.164 234.416C103.926 237.283 103.917 240.105 104.173 242.802C104.465 245.5 105.056 248.055 105.797 250.432C107.324 255.186 109.487 259.165 111.279 262.486C113.088 265.762 114.562 268.433 115.613 270.338C116.089 271.246 116.46 271.959 116.743 272.502C117.007 272.991 117.14 273.258 117.122 273.267Z" fill="#263238"/>
<g opacity="0.3">
<path d="M27.4248 256.931C35.104 256.531 42.748 255.516 50.2595 253.895C49.3327 257.243 48.9002 260.724 48.9796 264.196C51.354 261.498 53.1105 258.249 54.055 254.768C54.5846 258.56 56.7207 262.095 59.8188 264.303C60.5779 260.866 60.7545 257.296 60.3308 253.806C71.6908 252.426 82.9978 250.539 94.19 248.153C71.5319 247.592 48.7943 250.45 26.9658 256.593" fill="black"/>
</g>
<path d="M173.507 314.06C173.498 314.069 173.321 313.962 172.986 313.749C172.615 313.499 172.13 313.179 171.538 312.769C170.285 311.915 168.476 310.66 166.26 309.084C161.82 305.941 155.747 301.534 149.119 296.549C142.49 291.563 136.567 286.943 132.313 283.551C130.185 281.859 128.482 280.471 127.308 279.5C126.752 279.037 126.31 278.663 125.966 278.378C125.666 278.12 125.507 277.978 125.516 277.96C125.525 277.951 125.701 278.067 126.019 278.307C126.372 278.574 126.84 278.93 127.414 279.367C128.658 280.328 130.388 281.663 132.507 283.302C136.805 286.631 142.755 291.207 149.383 296.193C156.012 301.178 162.059 305.621 166.445 308.834C168.608 310.419 170.364 311.71 171.636 312.636C172.218 313.072 172.677 313.419 173.039 313.686C173.357 313.909 173.516 314.043 173.507 314.06Z" fill="#263238"/>
<path d="M203.173 286.738C203.094 286.738 203.147 285.393 202.988 283.239C202.838 281.084 202.406 278.129 201.443 274.986C200.472 271.843 199.157 269.155 198.08 267.303C196.995 265.442 196.2 264.365 196.262 264.312C196.289 264.294 196.509 264.543 196.88 265.024C197.26 265.496 197.772 266.217 198.354 267.134C199.519 268.968 200.896 271.665 201.885 274.852C202.865 278.04 203.244 281.049 203.315 283.23C203.35 284.316 203.341 285.197 203.288 285.812C203.244 286.408 203.2 286.738 203.173 286.738Z" fill="#263238"/>
<path d="M208.637 284.725C208.567 284.708 208.734 283.675 208.858 281.983C208.99 280.301 209.026 277.951 208.743 275.387C208.452 272.823 207.878 270.552 207.375 268.941C206.872 267.33 206.475 266.35 206.537 266.324C206.563 266.315 206.696 266.537 206.907 266.974C207.119 267.401 207.393 268.042 207.684 268.843C208.275 270.446 208.902 272.742 209.202 275.342C209.494 277.942 209.405 280.328 209.185 282.019C209.079 282.865 208.964 283.55 208.849 284.013C208.743 284.476 208.664 284.734 208.637 284.725Z" fill="#263238"/>
<path d="M250.088 273.259C250.061 273.268 250.097 273.09 249.885 272.921C249.779 272.85 249.62 272.725 249.523 272.529C249.417 272.342 249.355 272.111 249.223 271.897C248.984 271.452 248.402 271.105 247.978 270.446C247.537 269.814 247.219 268.995 246.91 268.096C246.372 266.288 245.489 264.214 243.883 262.327C243.097 261.374 242.161 260.475 241.155 259.585C240.149 258.694 239.054 257.831 237.863 257.047C236.662 256.228 235.55 255.418 234.341 254.839C233.132 254.243 231.958 253.664 230.846 253.112C229.725 252.578 228.692 252.026 227.677 251.59C226.662 251.154 225.717 250.753 224.852 250.379C224.42 250.183 224.005 250.041 223.625 249.809C223.255 249.587 222.937 249.338 222.619 249.16C222.292 248.981 221.992 248.821 221.701 248.67C221.41 248.519 221.18 248.314 220.968 248.18C220.536 247.904 220.148 247.753 219.909 247.619C219.662 247.495 219.538 247.406 219.547 247.397C219.556 247.379 219.689 247.441 219.945 247.539C220.2 247.646 220.589 247.762 221.066 248.029C221.507 248.349 222.054 248.599 222.743 248.937C223.087 249.115 223.413 249.355 223.766 249.56C224.111 249.756 224.561 249.898 224.985 250.085C225.858 250.442 226.812 250.833 227.827 251.243C228.842 251.661 229.91 252.213 231.04 252.738C232.161 253.282 233.335 253.851 234.544 254.439C235.788 255.018 236.945 255.863 238.119 256.665C239.328 257.457 240.44 258.338 241.455 259.246C242.47 260.154 243.415 261.08 244.209 262.06C245.833 264 246.725 266.181 247.219 267.998C247.501 268.897 247.793 269.689 248.19 270.303C248.561 270.927 249.134 271.292 249.382 271.808C249.514 272.057 249.558 272.289 249.646 272.467C249.717 272.654 249.841 272.752 249.947 272.85C250.176 273.072 250.097 273.277 250.088 273.259Z" fill="#263238"/>
<path d="M136.858 387.694C136.735 387.694 136.629 365.17 136.629 337.385C136.629 309.6 136.735 287.076 136.858 287.076C136.982 287.076 137.088 309.6 137.088 337.385C137.088 365.162 136.982 387.694 136.858 387.694Z" fill="#263238"/>
</g>
<defs>
<clipPath id="clip0_796_33910">
<rect width="400" height="390" fill="white"/>
</clipPath>
</defs>
</svg>
