<svg width="407" height="400" viewBox="0 0 407 400" fill="none" xmlns="http://www.w3.org/2000/svg">
<g clip-path="url(#clip0_796_33780)">
<path d="M406.08 380.102C406.08 391.092 315.288 400 203.289 400C91.2926 400 0.5 391.092 0.5 380.102C0.5 369.114 91.2926 360.206 203.289 360.206C315.288 360.204 406.08 369.114 406.08 380.102Z" fill="#FFF4D5"/>
<path d="M257.399 50.583C257.399 50.583 250.47 76.5354 265.54 86.1648C280.61 95.7942 277.725 80.8368 277.725 80.8368L273.921 57.9114L265.54 47.3203L257.399 50.583Z" fill="black"/>
<path d="M290.043 35.0099C290.043 35.0099 290.091 35.5557 290.293 36.491C291.005 39.7681 292.479 55.1078 301.593 61.222C313.31 69.0842 321.956 87.8861 307.741 105.277L278.375 72.1618L273.922 57.9089L274.047 42.5307L277.086 38.3977L284.585 33.0264" fill="black"/>
<path d="M202.246 102.63L207.66 103.553L242.324 92.8224L255.745 83.9817L253.309 96.0755L243.817 116.726L241.258 113.884C241.258 113.884 211.358 118.28 200.553 118.643C189.743 119.008 202.246 102.63 202.246 102.63Z" fill="#FFD198"/>
<path d="M161.242 94.6309L161.824 97.2756L168.943 101.969L172.487 98.0498L167.679 93.2772L164.731 91.6543L161.242 94.6309Z" fill="#F59188"/>
<path d="M232.651 356.009C232.002 356.295 231.355 356.588 230.745 356.942C229.225 357.822 227.992 359.19 226.636 360.308C223.556 362.849 220.517 365.434 217.504 368.057C214.472 370.692 212.378 373.854 207.793 373.044C206.684 372.846 205.756 372.382 204.982 371.738C202.806 373.916 200.525 375.847 198.176 377.367C198.176 377.367 190.804 384.606 203.181 384.584C211.948 384.57 218.062 381.141 218.983 379.99C219.904 378.838 225.765 371.091 225.765 371.091L228.843 367.689L229.504 375.455L232.036 375.686C232.036 375.686 234.798 362.195 233.024 357.235C232.875 356.817 232.757 356.41 232.651 356.009Z" fill="#03022A"/>
<path d="M257.647 261.879L238.259 261.078C237.049 263.636 237.059 266.99 237.177 269.505C237.174 269.515 230.791 302.555 229.062 310.675C228.074 315.31 221.561 350.839 221.561 350.839C223.619 354.34 229.798 350.839 229.798 350.839C239.682 329.633 254.757 299.12 256.159 290.108C257.424 281.96 256.303 274.605 256.246 271.575L257.647 261.879Z" fill="#A75340"/>
<path d="M233.587 342.775C233.587 342.775 231.284 351.174 232.863 357.865C232.863 357.865 228.629 366.696 213.636 376.27C213.636 376.27 209.517 378.946 202.516 378.018C197.919 377.41 209.645 367.812 212.604 363.296C218.68 354.03 222.9 345.949 222.9 345.949L233.587 342.775Z" fill="#A75340"/>
<path d="M289.855 39.3375L288.691 37.4213L275.251 32.3024C275.251 32.3024 267.037 25.7146 265.857 28.5685C262.508 36.6783 267.013 65.2827 271.882 70.0938C276.198 74.3591 282.827 86.7679 282.827 86.7679C278.561 68.3603 285.072 65.4006 290.744 55.7904L289.855 39.3375Z" fill="#141732"/>
<path d="M161.591 97.91C161.591 97.91 159.896 95.7509 158.444 91.8871C157.821 90.2257 158.306 86.8428 158.112 85.3089C157.915 83.7725 158.732 84.9915 158.732 84.9915C158.732 84.9915 159.785 85.1261 160.11 87.3742C160.187 87.9176 160.574 89.24 160.574 89.24C160.574 89.24 161.026 85.5253 160.603 83.3157C160.179 81.1037 159.569 78.9758 159.569 78.9758C159.569 78.9758 158.773 77.4948 159.689 76.9129C160.081 76.6629 159.533 75.7661 159.636 74.7779C159.739 73.7921 160.713 73.2126 161.05 73.6623C162.074 75.0303 164.055 77.7208 164.808 79.2043C165.563 80.6901 167.104 85.4892 167.481 86.4918C168.042 87.9873 169.621 93.7144 169.215 96.3712C168.816 99.0304 163.113 99.4945 161.591 97.91Z" fill="#A75340"/>
<path d="M180.638 97.3713C188.392 99.3837 200.472 102.382 202.246 102.632C203.174 106.258 204.655 107.183 205.054 110.891C198.063 112.076 200.551 118.647 200.551 118.647C200.551 118.647 199.245 119.066 195.072 117.435C178.813 111.093 164.873 101.786 164.873 101.786C165.892 97.1597 169.285 92.8223 169.285 92.8223C169.285 92.8223 176.104 96.1931 180.638 97.3713Z" fill="#FFD198"/>
<path d="M300.509 358.783L290.182 358.132C290.182 358.132 288.088 358.718 284.919 366.593C282.137 373.493 281.211 377.217 286.624 384.794C291.019 390.946 295.731 380.064 295.731 380.064L297.486 383.428C297.486 383.428 304.815 380.372 302.362 368.545" fill="#03022A"/>
<path d="M285.02 304.486C287.429 320.622 289.597 330.737 289.355 342.535C289.117 354.338 284.909 361.707 284.909 367.004C284.909 368.273 284.063 370.983 284.132 372.769C285.58 376.213 288.729 374.489 289.67 376.479C290.554 376.467 291.439 376.465 292.322 376.414C292.622 376.402 292.918 376.371 293.218 376.347C293.129 376.338 293.343 376.282 293.863 376.179C293.935 376.155 293.988 376.14 294.045 376.121C295.149 374.39 297.501 376.172 300.184 376.172C301.042 376.172 301.775 375.193 302.057 373.515C302.273 372.034 302.384 370.387 302.36 368.547C302.36 368.547 298.989 353.859 299.229 344.228C299.47 334.593 304.288 319.422 305.25 314.123C306.214 308.824 311.751 288.836 305.25 269.09L305.009 259.734L282.901 262.182C282.901 262.182 284.301 269.568 285.022 273.663C285.743 277.755 282.613 288.353 285.02 304.486Z" fill="#A75340"/>
<path d="M302.762 373.568C292.899 377.912 284.265 372.471 284.251 372.474C284.364 378.167 285.655 385.645 289.146 386.609C289.146 386.609 300.172 389.956 302.762 373.568Z" fill="#03022A"/>
<path d="M237.733 261.504C237.733 261.504 240.131 211.381 246.326 178.485C246.92 178.809 247.639 179.175 248.45 179.574C247.772 177.316 250.496 171.752 249.767 169.245L252.667 155.665L264.883 171.37L286.691 167.704L297.21 167.528C297.21 167.528 306.471 179.92 308.839 188.96C312.867 202.292 308.604 222.775 305.043 260.881C305.072 261.023 305.091 261.124 305.091 261.124C305.069 261.124 305.04 261.122 305.021 261.119C304.978 261.559 304.939 261.99 304.896 262.434C304.896 262.434 296.683 260.02 282.901 262.184C282.901 262.184 282.798 261.956 282.622 261.571C264.705 262.201 242.261 262.99 237.733 261.504Z" fill="#B94600"/>
<path d="M294.656 123.682C294.656 123.682 288.559 140.397 289.513 148.855C289.876 152.084 294.55 162.461 300.484 172.261C300.484 172.261 247.673 192.991 246.327 178.486C246.327 178.486 248.327 166.284 246.483 151.257C245.42 142.589 241.559 132.984 239.203 124.237C236.041 112.497 294.656 123.682 294.656 123.682Z" fill="#FFD198"/>
<path d="M276.304 179.458L312.751 205.341L331.094 179.638L295.183 152.758L276.304 179.458Z" fill="#F79B75"/>
<path d="M276.304 179.942L312.751 205.824L331.976 182.218L296.844 154.552L276.304 179.942Z" fill="#FDC076"/>
<path d="M288.448 80.834C273.789 83.1446 306.783 87.5204 308.579 96.7074C310.436 106.193 302.179 116.668 287.609 130.767C287.609 130.767 259.033 138.629 246.052 131.784C246.052 131.784 235.516 125.771 240.578 114.848C244.23 106.964 249.969 90.0089 252.07 87.6599C253.417 86.1548 257.018 82.5266 258.389 82.0073C259.759 81.488 288.448 80.834 288.448 80.834Z" fill="#FFD198"/>
<path d="M259.979 84.4717C259.979 84.4717 254.293 102.733 257.459 113.656L261.304 112.425L280.697 86.2918L259.979 84.4717Z" fill="#893522"/>
<path d="M282.051 45C282.051 45 281.152 60.0319 281.188 69.0722C281.245 84.6403 287.326 84.121 287.872 84.472C288.418 84.823 285.583 91.0094 269.089 89.7567C263.309 89.3191 259.347 85.9507 259.347 85.9507C259.347 85.9507 264.009 81.5291 266.149 75.6938C268 70.6447 267.57 61.4529 267.57 61.4529L282.051 45Z" fill="#893522"/>
<path d="M255.425 37.5828C255.425 37.5828 255.006 53.55 258.81 62.785C260.082 65.877 261.26 68.4472 266.175 67.7596C268.459 67.4398 276.316 64.8672 278.607 62.3066C282.082 58.4284 283.029 48.7052 283.846 44.4544C285.941 33.5819 285.659 27.2585 271.524 26.53C256.175 25.739 255.425 37.5828 255.425 37.5828Z" fill="#A75340"/>
<path d="M292.24 53.4274C294.149 48.0969 293.5 42.0813 291.588 36.4624C289.838 31.3195 286.693 27.0422 280.978 26.494C280.822 26.4771 279.901 25.4505 279.759 25.4024C267.348 20.9928 255.41 26.494 255.41 26.494C245.689 29.9322 255.482 42.8555 255.482 42.8555C255.482 42.8555 255.333 40.7349 255.872 36.4816C256.437 32.0312 255.408 36.6691 255.408 36.6691L255.872 36.4816C256.67 44.2332 267.379 39.386 275.419 48.9072C277.266 51.0928 278.869 53.5235 280.341 55.9711C281.726 58.2721 281.891 59.8686 284.695 60.9313C285.051 61.0659 285.416 61.203 285.796 61.2198C286.71 61.2583 287.496 60.6115 288.133 59.9575C290.069 57.9764 291.401 55.7692 292.24 53.4274Z" fill="black"/>
<path d="M284.582 55.0307C284.315 55.5453 284.017 56.0646 283.644 56.5984C281.97 58.9907 280.812 58.1299 280.812 58.1299C279.035 55.8386 278.595 52.9486 279.136 50.5947C281.124 51.8474 282.997 53.2347 284.582 55.0307Z" fill="#A75340"/>
<path d="M265.54 77.2812C265.54 77.2812 257.454 92.2795 258.591 112.298L257.398 116.732C257.398 116.732 253.342 107.124 249.765 91.7265L258.004 87.4925L253.342 83.5638L265.54 77.2812Z" fill="white"/>
<path d="M260.486 58.3799C260.486 58.3799 263.499 59.1829 267.67 58.6371C267.67 58.6371 265.846 60.7169 263.338 60.2913C260.91 59.8778 260.486 58.3799 260.486 58.3799Z" fill="white"/>
<path d="M259.169 50.2674C259.38 50.6665 259.84 50.467 259.953 50.289C260.311 49.7216 260.277 48.0602 259.89 47.5264C259.717 47.2884 259.26 47.2427 259.063 47.4567C258.611 47.9496 258.844 49.6663 259.169 50.2674Z" fill="#141732"/>
<path d="M269.021 50.2696C269.233 50.7385 269.82 50.587 269.981 50.4067C270.491 49.8392 270.659 48.0095 270.25 47.3652C270.067 47.079 269.517 46.9612 269.247 47.168C268.632 47.6417 268.704 49.5603 269.021 50.2696Z" fill="#141732"/>
<path d="M256.264 44.6847C256.341 44.853 257.997 44.1558 258.933 44.5116C260.224 45.0045 260.686 45.3652 261.041 45.043C261.664 44.4828 259.798 43.0666 258.012 42.9704C256.759 42.9031 256.014 44.1245 256.264 44.6847Z" fill="#141732"/>
<path d="M274.354 45.3527C274.222 45.533 271.952 44.3766 270.569 44.5953C268.66 44.8983 267.954 45.2157 267.489 44.7709C266.677 43.9919 269.536 42.744 272.094 43.0037C273.892 43.1864 274.789 44.7564 274.354 45.3527Z" fill="#141732"/>
<path d="M261.2 54.4007C261.017 54.7974 260.885 55.2542 261.277 55.5211C261.46 55.6461 261.731 55.7062 261.993 55.7639C262.102 55.788 262.229 55.8096 262.347 55.7687C262.498 55.7158 262.534 55.5932 262.544 55.4922C262.602 54.9296 262.662 54.3694 262.722 53.8068C262.751 53.5447 262.777 53.285 262.804 53.0254C262.83 52.7777 262.979 52.4123 262.893 52.1839C262.823 52.0011 262.808 51.9915 262.563 52.1959C262.33 52.393 262.186 52.6984 262.037 52.9196C261.71 53.4077 261.428 53.903 261.2 54.4007Z" fill="#893522"/>
<path d="M283.455 58.3226C283.433 59.1353 282.755 59.7748 281.943 59.7508C281.13 59.7267 280.49 59.0511 280.514 58.2384C280.538 57.4258 281.214 56.7862 282.027 56.8103C282.839 56.8343 283.479 57.5123 283.455 58.3226Z" fill="white"/>
<path d="M258.591 112.297C258.591 112.297 284.676 86.941 282.081 74.2148L296.575 85.7797L279.886 92.6946L288.523 98.7463L257.398 116.728L258.591 112.297Z" fill="white"/>
<path d="M255.745 112.367L252.884 125.514L254.314 183.637H257.399L260.775 123.168L268.88 110.098L257.738 113.166L255.745 112.367Z" fill="white"/>
<path d="M293.386 115.418C293.386 115.418 313.888 142.482 317.87 146.867C321.851 151.253 333.229 147.031 333.512 146.867C333.796 146.704 327.256 131.345 324.979 126.51C322.705 121.674 309.575 97.345 308.139 95.472C306.709 93.5991 292.511 101.197 293.386 115.418Z" fill="#FFD198"/>
<path d="M299.564 181.04C299.564 181.04 290.37 188.25 289.812 189.407C289.254 190.563 290.247 191.395 290.036 193.126C289.822 194.858 289.81 195.718 291.865 196.432C293.919 197.146 296.244 197.401 297.645 198.596C299.045 199.791 300.543 199.558 301.521 198.527C302.5 197.495 307.679 189.878 307.551 185.875C307.496 184.18 300.482 180.982 299.564 181.04Z" fill="#A75340"/>
<path d="M317.586 140.161L297.529 181.836L307.774 187.743L333.513 146.867L317.586 140.161Z" fill="#FFD198"/>
<path d="M122.318 55.0354C122.318 55.0354 139.704 55.9634 145.448 59.8368C149.557 62.609 151.372 75.2534 152.029 82.2957C153.481 97.8855 153.443 107.274 153.443 107.274C153.443 107.274 159.456 106.967 175.421 101.117C184.038 97.96 185.908 96.8228 185.908 96.8228C185.908 96.8228 193.494 109.164 194.444 111.302C194.444 111.302 165.993 129.567 148.35 131.342C144.051 131.775 134.044 124.122 133.967 119.801C133.845 113.095 128.187 106.07 128.548 105.519C129.156 104.594 133.215 75.869 133.215 75.869L122.318 55.0354Z" fill="#FFBC6A"/>
<path d="M93.0692 340.42C93.0692 340.42 90.5951 356.948 92.7783 370.782C92.7783 370.782 90.0902 381.232 88.3086 384.942C86.527 388.651 78.0805 386.091 75.0174 385.119C75.0174 385.119 69.5379 378.837 69.7928 370.494C69.8842 367.529 78.4316 338.567 78.4316 338.567L93.0692 340.42Z" fill="#01092C"/>
<path d="M120.909 334.045C120.909 334.045 119.54 335.754 118.175 338.659C116.807 341.563 115.27 352.327 115.783 360.358C115.783 360.358 116.977 362.921 129.417 361.896C134.325 361.49 139.018 360.1 149.953 363.945C157.192 366.491 165.331 364.972 170.284 363.091C170.284 363.091 171.438 362.522 171.955 361.353C172.556 359.983 172.207 357.626 172.207 357.626C172.207 357.626 167.038 355.732 155.079 351.808C143.12 347.886 139.352 343.349 136.96 334.977C134.57 326.603 120.909 334.045 120.909 334.045Z" fill="#01092C"/>
<path d="M122.44 204.504L126.016 168.679L133.236 167.953L127.497 156.164L154.735 173.25L148.234 257.144L120.231 265.064L118.122 263.797V201.337L122.44 204.504Z" fill="#B94600"/>
<path d="M121.647 259.135L118.077 262.703L115.978 344.251C115.978 344.251 117.899 346.814 128.011 347.543C138.124 348.269 142.728 344.573 142.728 344.573L148.234 257.147L121.647 259.135Z" fill="#B94600"/>
<path d="M142.047 168.133L127.528 207.004L109.957 277.186L94.5738 283.288L80.3281 277.73L85.2185 217.124L87.4714 163.805L142.047 168.133Z" fill="#FF8C00"/>
<path d="M153.41 174.012L87.4713 167.429L86.9062 177.174C86.9062 177.174 131.512 197.647 153.41 174.012Z" fill="#2C0435"/>
<path d="M97.2499 269.231L80.4388 276.787L72.3915 351.726C72.3915 351.726 71.8024 358.232 82.5906 358.143C86.9906 358.107 93.3404 358.338 97.5745 354.551L109.957 277.187L97.2499 269.231Z" fill="#FF8C00"/>
<path d="M121.849 47.8087L120.474 46.847C120.474 46.847 108.486 45.6136 94.7765 47.424L94.0889 54.5793L94.5216 58.5609L111.395 63.7495L122.804 59.8545L124.047 54.1418L121.849 47.8087Z" fill="#FFBC6A"/>
<path d="M91.3434 127.224C91.3434 127.224 91.1751 149.435 86.1572 173.967C86.1572 173.967 119.794 189.398 154.739 173.248C154.739 173.248 153.885 137.048 150.625 107.063C149.165 93.6593 91.3434 127.224 91.3434 127.224Z" fill="#FFD198"/>
<path d="M93.1126 59.5222C85.2216 62.9556 69.4323 69.2093 68.5523 79.5552C67.6435 90.2376 70.5407 108.619 87.0753 141.207C87.0753 141.207 137.893 123.199 151.387 114.091C151.387 114.091 150.519 108.253 149.211 92.1395C147.816 74.9364 142.108 66.5044 138.307 62.5685C134.804 58.9428 125.655 55.3675 124.081 54.9588C122.508 54.5501 93.1126 59.5222 93.1126 59.5222Z" fill="#FFD198"/>
<path d="M100.042 63.9101C100.186 63.951 100.33 63.9919 100.475 64.0328C100.246 63.4557 100.638 62.6767 101.384 62.8907C104.711 63.85 107.964 65.0714 111.335 65.8793C113.059 66.2904 114.896 66.3914 116.665 66.7064C118.548 66.9709 120.399 67.3628 122.001 68.3702C122.253 68.5289 122.347 68.7789 122.369 69.0338C124.1 65.4802 125.309 61.6597 124.857 57.8151C122.724 55.6657 120.366 52.9079 118.952 50.0539C116.305 44.7067 115.55 37.3927 115.55 37.3927L91.7373 19.0813C91.7373 19.0813 97.5534 35.2625 97.2625 45.2885C97.1158 50.3905 95.1467 54.2687 92.9202 57.0698C95.2837 59.1471 97.5895 61.6525 99.0826 64.4896C99.2124 64.1025 99.573 63.7827 100.042 63.9101Z" fill="#893522"/>
<path d="M122.765 68.2235L121.717 59.2C121.717 59.2 121.532 52.2106 120.472 46.8465L122.987 46.5724L128.928 56.5841L126.829 56.8125C126.829 56.8149 134.667 61.1379 122.765 68.2235Z" fill="#FFD198"/>
<path d="M71.4614 69.6277C77.215 65.2301 92.8384 57.5363 92.8384 57.5363C98.7963 64.1434 106.041 79.3724 109.034 85.9699C108.411 87.5929 107.726 89.1918 106.986 90.7642C104.127 96.8472 100.652 102.615 97.837 108.722C96.7887 110.999 95.863 113.324 94.9807 115.666C85.861 107.768 75.3613 100.954 74.1855 99.439C66.0012 88.8792 67.6337 72.5537 71.4614 69.6277Z" fill="#FFBC6A"/>
<path d="M117.319 58.7288C113.46 56.084 108.163 55.1511 100.794 50.8065L94.7737 47.426L92.4799 47.676L87.0918 58.9716L89.6524 65.8144C89.6524 65.8144 122.089 70.4139 122.931 69.053C123.265 68.5096 119.257 62.381 117.319 58.7288Z" fill="#FFD198"/>
<path d="M102.978 101.433C102.978 101.433 104.298 132.251 104.274 133.554C104.252 134.858 92.4565 149.676 88.0903 150.443L70.9521 87.5739L82.8921 86.0832L102.978 101.433Z" fill="#FFBC6A"/>
<path d="M184.848 103.065C184.848 103.065 185.942 99.8643 188.962 95.7746C190.258 94.017 194.081 92.2522 195.535 91.0212C196.99 89.7902 196.278 91.4515 196.278 91.4515C196.278 91.4515 196.846 92.6273 194.742 94.4714C194.232 94.9186 193.126 96.2025 193.126 96.2025C193.126 96.2025 197.264 94.1805 199.267 92.2594C201.267 90.3407 203.056 88.2802 203.056 88.2802C203.056 88.2802 204.051 86.4674 205.266 87.0228C205.79 87.2632 206.347 86.0947 207.437 85.5369C208.526 84.9815 209.776 85.6018 209.538 86.2486C208.812 88.2249 207.362 92.0719 206.331 93.8487C205.302 95.6255 201.38 100.434 200.594 101.497C199.423 103.077 194.566 108.546 191.551 109.912C188.536 111.28 184.23 105.7 184.848 103.065Z" fill="#893522"/>
<path d="M113.734 69.6442L121.486 69.9664L118.928 64.9269L125.374 62.3254C125.374 62.3254 126.845 66.7446 126.86 67.0644C126.874 67.3841 126.482 70.6035 126.482 70.6035L122.58 71.6687L113.734 69.6442Z" fill="#2B0008"/>
<path d="M122.544 70.8827C122.544 70.8827 129.113 128.666 129.36 138.377L137.891 145.814L141.043 136.581L126.48 70.6038L122.544 70.8827Z" fill="#2B0008"/>
<path d="M139.557 133.188C139.557 133.188 142.007 131.027 146.499 129.043C148.429 128.19 152.481 128.541 154.291 128.204C156.104 127.867 154.707 128.921 154.707 128.921C154.707 128.921 154.618 130.178 151.971 130.717C151.331 130.846 149.785 131.397 149.785 131.397C149.785 131.397 154.226 131.681 156.828 131.029C159.427 130.378 161.913 129.505 161.913 129.505C161.913 129.505 163.617 128.461 164.37 129.51C164.692 129.959 165.721 129.248 166.902 129.303C168.08 129.358 168.835 130.476 168.325 130.907C166.77 132.217 163.709 134.749 161.994 135.746C160.283 136.742 154.688 138.901 153.519 139.415C151.781 140.182 144.029 142.07 140.846 141.772C137.66 141.476 137.778 135.102 139.557 133.188Z" fill="#A75340"/>
<path d="M138.277 127.985L98.642 128.957C98.642 128.957 87.457 142.575 88.5149 151.05L143.5 144.647C143.5 144.647 143.062 129.389 138.277 127.985Z" fill="#FFBC6A"/>
<path d="M85.4157 20.7287C85.4157 20.7287 85.1801 32.9595 89.6233 43.1106C91.1116 46.508 93.2467 50.2876 98.1708 49.0421C100.652 48.4146 109.089 44.9932 111.57 42.0984C115.328 37.7105 118.552 26.2154 119.358 21.4788C121.416 9.36816 116.338 3.09044 100.64 2.6264C83.5957 2.11908 85.4157 20.7287 85.4157 20.7287Z" fill="#A75340"/>
<path d="M114.957 18.7904C114.224 23.0725 113.022 26.6213 112.712 27.9269C111.57 32.7019 117.145 30.009 117.145 30.009L117.992 27.345C117.992 27.345 120.564 22.4979 120.687 17.8094C120.81 13.121 118.124 14.9483 118.124 14.9483L114.957 18.7904Z" fill="black"/>
<path d="M113.914 37.4099C113.914 37.4099 115.22 38.338 117.018 35.6427C121.478 28.9587 118.345 23.4792 115.4 24.4674C111.366 25.821 110.18 32.8152 113.914 37.4099Z" fill="#A75340"/>
<path d="M90.6914 38.3594C90.6914 38.3594 96.1324 39.2057 100.744 38.4964C100.744 38.4964 99.2749 40.4752 94.7235 40.3285C91.7782 40.2324 90.6914 38.3594 90.6914 38.3594Z" fill="white"/>
<path d="M89.7181 29.2176C89.9633 29.6552 90.4659 29.4244 90.5885 29.2224C90.9708 28.5877 90.8962 26.7436 90.4514 26.1593C90.2543 25.902 89.747 25.8588 89.5354 26.104C89.0425 26.6594 89.3454 28.5564 89.7181 29.2176Z" fill="#2B0008"/>
<path d="M100.648 28.9792C100.893 29.4937 101.54 29.3134 101.713 29.109C102.263 28.467 102.405 26.433 101.936 25.7285C101.727 25.4159 101.112 25.2957 100.821 25.5337C100.15 26.0747 100.275 28.2001 100.648 28.9792Z" fill="#2B0008"/>
<path d="M86.3612 23.0942C86.4501 23.2793 88.2726 22.4643 89.3185 22.8369C90.7611 23.3515 91.2828 23.7386 91.6699 23.3755C92.348 22.7384 90.2418 21.2116 88.2606 21.1515C86.8661 21.1058 86.0678 22.4811 86.3612 23.0942Z" fill="#280738"/>
<path d="M106.44 23.3944C106.298 23.5963 103.752 22.3701 102.223 22.6466C100.114 23.0289 99.3374 23.3992 98.8085 22.9159C97.89 22.0696 101.028 20.6149 103.874 20.8434C105.875 21.0044 106.909 22.7235 106.44 23.3944Z" fill="#280738"/>
<path d="M90.9537 33.9422C90.6411 34.8558 90.4536 35.8945 91.3744 36.3898C91.8024 36.6206 92.4083 36.6903 93.0022 36.7577C93.2474 36.7865 93.5311 36.8057 93.7788 36.6903C94.1009 36.5389 94.149 36.26 94.149 36.0364C94.1538 34.7885 94.1562 33.5407 94.1587 32.2928C94.1587 31.7134 94.1611 31.1339 94.1635 30.5545C94.1635 30.0063 94.4087 29.1672 94.1683 28.6887C93.9735 28.3016 93.9374 28.2824 93.447 28.7921C92.9781 29.2802 92.7305 29.9846 92.4564 30.5016C91.8457 31.6436 91.3432 32.7953 90.9537 33.9422Z" fill="#6A3A4A"/>
<path d="M86.2653 11.2479C86.2653 11.2479 89.7275 13.1377 93.5456 12.6136C97.8566 12.0221 102.269 7.31925 108.806 8.67048C111.362 9.19944 114.995 14.4481 114.959 18.7903L120.457 20.0574C120.621 20.2233 121.256 14.8184 120.938 13.1906C120.705 11.9957 120.881 4.48694 115.702 1.93834C110.523 -0.610259 101.92 -0.636707 93.4182 1.79889C89.8429 2.82313 84.7217 4.88365 84.7217 4.88365L86.2653 11.2479Z" fill="black"/>
</g>
<defs>
<clipPath id="clip0_796_33780">
<rect width="405.58" height="400" fill="white" transform="translate(0.5)"/>
</clipPath>
</defs>
</svg>
