<svg width="543" height="423" viewBox="0 0 543 423" fill="none" xmlns="http://www.w3.org/2000/svg">
<g clip-path="url(#clip0_322_14506)">
<path d="M219.18 249.84C219.18 249.84 215.7 253.65 218.02 256.06C220.34 258.46 227.97 254.65 227.97 254.65L219.18 249.84Z" fill="#0B212E"/>
<path d="M400.4 54.8818C400.38 55.0518 400.35 55.2218 400.32 55.3918C400.16 56.2718 399.94 57.1318 399.67 58.0218V58.0318C398.77 61.0918 397.33 64.1818 395.74 66.9918C395.37 67.6518 394.99 68.2818 394.62 68.9018C391.67 73.7418 388.53 77.5018 387.52 78.5218C385.66 80.3818 377.7 83.3618 377.7 83.3618L352.73 64.7218L342.01 35.1218C341.66 34.9018 334.21 21.2918 348.51 18.3618H348.52C349.44 18.1618 350.45 18.0118 351.56 17.9218C351.94 17.8918 352.33 17.8618 352.72 17.8418C358.08 17.5718 362.55 17.9718 366.32 18.7718C368.36 19.2018 370.19 19.7418 371.84 20.3718C378.47 22.8518 382.26 26.4818 385.02 28.4818C387.32 30.1418 389.21 32.6518 390.54 34.7818C391.4 36.1518 392.02 37.3818 392.38 38.1118C392.61 38.5818 392.73 38.8618 392.73 38.8618C392.73 38.8618 401.87 45.1018 400.4 54.8818Z" fill="#424447"/>
<path d="M395.75 66.9914C395.38 67.6514 395 68.2814 394.63 68.9014C390.53 62.6214 384.96 57.8914 378.18 53.9814C373.69 51.3914 369.03 48.1414 364.03 46.6314C359.14 45.1614 354.18 44.3314 349.08 44.0314C347.81 43.9514 347.8 41.9614 349.08 42.0414C354.23 42.3514 359.68 42.9314 364.56 44.7114C369.73 46.6014 374.45 49.4914 379.19 52.2614C385.92 56.1814 391.54 60.8514 395.75 66.9914Z" fill="#0B212E"/>
<path d="M392.389 38.1095C387.349 34.8895 382.129 31.5695 376.479 29.9195C369.129 27.7695 356.509 24.5295 351.789 32.8195C351.299 33.6695 350.199 33.2895 349.979 32.5695C349.329 32.5895 348.619 31.8695 348.969 31.0595C351.979 24.1095 358.899 20.0295 366.339 18.7695C368.379 19.1995 370.209 19.7395 371.859 20.3695C364.489 20.2595 356.839 23.0195 352.579 28.7895C357.229 24.8295 364.569 25.2595 370.429 26.3995C377.899 27.8695 384.249 31.0495 390.549 34.7595C391.409 36.1495 392.039 37.3795 392.389 38.1095Z" fill="#0B212E"/>
<path d="M351.19 18.3497C347.54 22.6597 345.72 28.0797 346.71 33.6997C346.94 34.9497 345.02 35.4897 344.79 34.2297C343.84 28.8397 345.07 22.7597 348.52 18.3697H348.53C349.45 18.1697 350.46 18.0197 351.57 17.9297C351.44 18.0597 351.32 18.1997 351.19 18.3497Z" fill="#0B212E"/>
<path d="M400.4 54.8791C400.38 55.0491 400.35 55.2191 400.32 55.3891C400.16 56.2691 399.94 57.1291 399.67 58.0191C395.73 51.4391 391.33 45.5791 384.31 41.0691C380.02 38.3091 375.3 35.8591 370.2 35.1191C364.81 34.3391 356.03 33.6491 350.93 36.1491C349.79 36.7191 348.77 34.9991 349.93 34.4291C354.58 32.1391 361.73 32.2791 366.75 32.7291C372.38 33.2291 377.76 34.7791 382.63 37.6791C387.51 40.5891 392.74 44.2591 396.29 48.7691C397.8 50.6891 399.15 52.7591 400.4 54.8791Z" fill="#0B212E"/>
<path d="M234.1 227.081V221.371L262.2 221.991L268.17 246.981L245.54 251.081L234.1 227.081Z" fill="#AB5E27"/>
<path d="M238.72 223.85L256.23 239.4L240.08 228.75L238.72 223.85Z" fill="#0B212E"/>
<path d="M272.27 255.309L265.87 246.479L273.26 241.199L272.27 255.309Z" fill="#0B212E"/>
<path d="M258.22 221.902C258.22 221.902 264.31 219.132 264.68 219.872C265.05 220.622 275.37 245.982 274.87 245.982L264.48 247.642C264.48 247.642 265.67 241.832 263.18 233.772C260.71 225.722 258.22 221.902 258.22 221.902Z" fill="#FEEDC5"/>
<path d="M333.559 191.9C333.809 192.65 319.019 218.13 319.019 218.13L272.269 255.31C272.269 255.31 272.389 242.26 268.159 232.43C263.929 222.6 259.439 221.37 259.439 221.37L296.519 196.85L298.289 195.69L298.749 195.38C298.749 195.38 294.269 190.66 294.149 190.28C294.099 190.13 294.879 189.98 295.839 189.86C297.229 189.69 299.019 189.59 299.239 189.66C299.249 189.66 299.299 189.58 299.369 189.41C300.419 187.15 307.439 168.7 313.949 151.42C314.189 150.78 314.429 150.15 314.669 149.51C320.429 134.2 325.599 120.33 325.599 120.16C325.619 120.16 327.939 141.5 330.069 160.91C330.119 161.39 330.169 161.85 330.219 162.32C331.909 177.75 333.449 191.58 333.559 191.9Z" fill="#2E576B"/>
<path d="M322.17 212.671L326.7 151.201L327.34 203.611L322.17 212.671Z" fill="#0B212E"/>
<path d="M330.35 161.882C330.31 162.032 330.26 162.172 330.22 162.322C330.14 162.572 330.07 162.822 330 163.072C329.63 164.292 327.71 163.782 328.08 162.542C328.47 161.222 319.19 155.462 317.95 154.512C316.61 153.492 315.27 152.462 313.95 151.422C314.19 150.782 314.43 150.152 314.67 149.512C319.6 153.442 324.63 157.312 329.89 160.762C329.96 160.802 330.02 160.852 330.07 160.912C330.33 161.162 330.46 161.522 330.35 161.882Z" fill="#0B212E"/>
<path d="M420.53 536.771L421.42 538.101L418.28 548.881L412.1 543.601L410.33 542.091L410.32 542.081L401.2 551.871L396.23 545.241L391.09 482.911L392.42 547.731L385.96 551.881L373.45 546.841L371.37 545.991L366.23 543.921C366.23 543.921 363.78 535.391 362.16 529.271C361.94 528.441 361.73 527.661 361.55 526.951C361 524.811 360.66 523.321 360.75 523.191C360.91 522.961 361.84 520.321 362.8 517.541C363.03 516.891 363.25 516.251 363.47 515.631C364.34 513.101 365.07 510.931 365.07 510.931L359.6 506.781L366.39 497.001L350.31 426.211L353.29 420.581C353.29 420.581 331.08 333.211 327.6 319.631C324.12 306.031 331.91 257.131 331.91 257.131L434.2 258.961L416.26 525.411L416.12 527.401L415.96 529.831L419.15 534.661L420.53 536.771Z" fill="#2E576B"/>
<path d="M384.79 279.84C384.79 279.84 395.77 323.43 398.74 331.64C401.7 339.85 427.71 355.29 427.71 355.29L430.34 316.23L384.79 279.84Z" fill="#0B212E"/>
<path d="M341.63 265.311C341.63 265.311 342.29 281.171 340.78 299.571C339.27 317.971 330.85 332.941 330.85 332.941L326.7 318.151L341.63 265.311Z" fill="#0B212E"/>
<path d="M376.3 311.491C375.31 308.831 369.09 310.241 366.97 310.211C366.1 310.201 365.24 310.191 364.37 310.181C364.16 307.861 363.95 305.541 363.74 303.231C366.31 303.131 368.87 303.041 371.44 302.941C371.63 303.051 371.87 303.101 372.14 303.041C372.71 302.981 373.28 302.921 373.86 302.851C375.14 302.801 375.15 300.881 373.86 300.861C373.25 300.851 372.95 300.861 372.61 300.911C369.6 301.021 366.58 301.131 363.57 301.251C362.7 291.491 361.85 281.731 361.08 271.961C361 270.891 359.4 270.551 359.13 271.701C359.03 272.121 358.93 272.541 358.83 272.961C358.71 273.451 358.94 273.821 359.27 274.021C359.89 281.781 360.54 289.541 361.22 297.301C361.34 298.641 361.46 299.981 361.58 301.321L354.99 301.561C353.88 291.521 352.77 281.481 351.66 271.451C351.52 270.191 349.53 270.181 349.67 271.451L353.01 301.641C350.43 301.741 347.86 301.831 345.28 301.931C344 301.981 344 303.971 345.28 303.921L353.23 303.621L353.94 310.051C351.14 310.021 348.33 309.981 345.53 309.951C344.25 309.931 344.25 311.921 345.53 311.941C348.41 311.981 351.29 312.011 354.17 312.051L354.41 314.191C354.89 318.551 354.27 324.561 357.37 328.001C358.75 329.531 361.37 330.611 363.07 331.811C366.18 334.021 368.95 336.681 371.55 339.471C372.43 340.411 374.51 338.061 373.64 337.121C370.52 333.771 366.44 331.771 362.71 329.121C361.79 328.491 360.86 327.881 359.9 327.311C357.27 325.661 357.31 323.501 357.13 320.971C359.83 320.281 362.15 319.241 364.51 317.641C364.78 317.461 365.04 317.141 365 316.781C364.85 315.191 364.71 313.591 364.57 312.001C367.99 311.931 372.05 311.851 373.68 311.921C373.64 312.551 374.13 313.211 374.89 312.961C375.14 312.881 375.39 312.791 375.64 312.711C376.08 312.561 376.49 312.021 376.3 311.491ZM361.73 303.311C361.9 305.201 362.07 307.101 362.24 308.991C362.28 309.381 362.31 309.771 362.35 310.161C360.2 310.131 358.05 310.111 355.9 310.081C355.66 307.901 355.42 305.731 355.18 303.551C357.37 303.471 359.55 303.391 361.73 303.311ZM362.79 314.831C363.05 317.541 359.26 318.481 356.89 319.001L356.12 312.071C357.13 312.081 358.14 312.101 359.15 312.111C359.53 312.111 360.83 312.091 362.52 312.051C362.62 312.981 362.71 313.911 362.79 314.831Z" fill="#0B212E"/>
<path d="M337.87 271.881C337.87 271.881 339.28 273.041 361.41 275.201C383.54 277.351 393.9 276.031 393.9 276.031L389.68 258.161L340.77 257.281L337.87 271.881Z" fill="#0B212E"/>
<path d="M391.08 482.909L373.6 337.109H370.12L391.08 482.909Z" fill="#0B212E"/>
<path d="M434.189 258.961L370.179 257.821L331.909 257.131L325.609 120.161L359.679 101.891L347.249 86.7211L368.389 59.8711C368.389 59.8711 376.329 73.5111 385.969 85.4911C387.399 87.2611 388.859 89.0011 390.349 90.6511C393.789 94.4911 397.329 97.8611 400.709 100.151C415.379 110.101 430.049 107.111 430.049 107.111C430.049 107.111 430.059 107.581 430.089 108.521L434.189 258.961Z" fill="#FEEDC5"/>
<path d="M345.17 257.371L344.27 273.211L364.4 275.481V257.711L345.17 257.371Z" fill="#6A8C9E"/>
<path d="M385.96 85.4911L362.41 105.791L359.67 101.891L347.24 86.7211L368.38 59.8711C368.37 59.8611 376.31 73.5011 385.96 85.4911Z" fill="#AB5E27"/>
<path d="M365.39 70.8105C365.39 70.8105 367.05 77.0306 365.31 82.8306C363.24 89.7106 355.22 96.4605 355.22 96.4605L347.24 86.7306L365.39 70.8105Z" fill="#0B212E"/>
<path d="M376.21 63.0998L376.29 72.3198L365.39 70.8098C363.9 79.0198 355.2 89.5898 349.23 91.4498C343.26 93.3098 336.17 93.4398 333.56 86.4798C330.95 79.5198 331.45 71.6898 331.45 71.6898C331.45 71.6898 325.35 71.3098 326.6 68.3298C327.84 65.3498 333.31 62.4798 333.06 59.8798C332.88 57.9398 331.45 54.6098 331.2 51.6498C331.11 50.6398 331.16 49.6698 331.45 48.8198C331.53 48.5898 331.61 48.3298 331.71 48.0498C333.05 44.2098 336.53 35.8598 343.26 32.1498C350.47 28.1698 356.56 28.1698 355.82 28.7998C355.06 29.4298 349.72 37.0098 350.59 42.2298C351.47 47.4498 357.31 49.3198 357.31 50.0598C357.31 50.8198 358.8 60.5298 358.8 60.5298C358.8 60.5298 363.77 60.1298 365.38 54.9098C366.99 49.6898 373.22 44.9598 377.43 47.8298C381.68 50.6598 376.21 63.0998 376.21 63.0998Z" fill="#AB5E27"/>
<path d="M347.22 108.57C347.22 108.57 345.33 131.31 345.33 154.18C345.33 159.46 345.17 167.57 344.91 177.13C344.83 180 344.75 183.02 344.65 186.12C343.72 217.33 342.04 258.13 341.35 270.89C340.36 289.12 326.43 329.57 325.61 328.24C324.78 326.92 314.17 309.68 314.5 308.02C314.84 306.36 329.41 257.84 328.1 226.46C326.79 195.08 325.61 120.15 325.61 120.15L342.02 111.36L344.14 110.22L347.22 108.57Z" fill="#2E576B"/>
<path d="M454.079 325.259C454.409 326.249 432.849 331.889 420.259 332.889C407.659 333.879 401.359 329.909 400.569 328.279C399.769 326.649 379.889 258.949 379.889 258.949L370.169 257.809C370.169 257.809 366.719 242.459 367.169 185.289C367.179 183.899 367.199 182.479 367.209 181.029C367.209 180.779 367.219 180.519 367.219 180.269C367.909 133.129 383.569 101.949 390.329 90.6289C392.599 93.1689 394.919 95.4889 397.189 97.4289C397.799 97.9589 398.399 98.4389 398.999 98.9089C399.569 99.3389 400.129 99.7489 400.689 100.119C415.359 110.069 430.029 107.079 430.029 107.079C430.029 107.079 430.039 107.549 430.069 108.489C430.269 114.279 431.159 138.049 434.179 183.659C437.689 236.769 453.739 324.259 454.079 325.259Z" fill="#2E576B"/>
<path d="M404.71 266.85L446.43 281L441.2 246.43L404.71 266.85Z" fill="#0B212E"/>
<path d="M435.909 202.59L419.229 230.49L436.729 211.47L435.909 202.59Z" fill="#0B212E"/>
<path d="M413.64 155.81L418.83 189.41L435.91 203.75L433.35 170.74L413.64 155.81Z" fill="#0B212E"/>
<path d="M412.66 299.32C412.62 298.78 412.24 298.48 411.82 298.4C407.22 289.75 402.78 281.03 398.51 272.22C397.95 271.07 396.23 272.08 396.79 273.22C401.31 282.53 406 291.75 410.88 300.88C411.33 301.73 412.8 301.37 412.73 300.38C412.71 300.03 412.69 299.68 412.66 299.32Z" fill="#0B212E"/>
<path d="M418.37 292.491C415.71 289.171 413.05 285.841 410.39 282.521C407.73 279.201 403.91 275.651 402.34 271.661C401.88 270.481 399.95 270.991 400.42 272.191C401.8 275.701 404.65 278.521 406.98 281.431C410.31 285.591 413.63 289.741 416.96 293.901C417.77 294.901 419.17 293.481 418.37 292.491Z" fill="#0B212E"/>
<path d="M392.33 251.92C388.48 240.33 383.37 229.24 378.42 218.1C377.9 216.93 376.19 217.94 376.7 219.1C381.58 230.09 386.62 241.02 390.41 252.45C390.81 253.66 392.73 253.14 392.33 251.92Z" fill="#0B212E"/>
<path d="M428.48 253.241C428.48 253.241 409.98 268.741 400.53 275.031C391.08 281.341 388.93 282.491 386.87 282.661C385.69 282.761 385.17 281.811 384.95 281.001C384.79 280.381 384.78 279.851 384.78 279.851C384.78 279.851 383.85 280.261 382.79 280.351C382.04 280.411 381.22 280.331 380.59 279.851C379.72 279.191 379.27 277.831 379.03 276.791C378.85 275.991 378.81 275.381 378.81 275.381C378.81 275.381 378.2 275.431 377.37 275.281C376.76 275.181 376.04 274.961 375.33 274.541C374.45 274.011 374 273.001 373.77 272.141C373.55 271.361 373.51 270.731 373.51 270.731C373.51 270.731 373.05 270.731 372.39 270.631C371.22 270.471 369.43 270.001 368.37 268.741C366.71 266.751 375.16 261.801 375.16 261.801C375.16 261.801 373.67 261.611 370.11 261.781C366.55 261.951 364.39 260.951 364.39 260.951C364.39 260.951 379.31 249.341 379.89 249.341C380.48 249.341 397.22 251.081 397.22 251.081L415.29 236.221L428.48 253.241Z" fill="#AB5E27"/>
<path d="M482.26 210.549C482.26 210.549 457.71 240.759 450.26 249.169C442.81 257.569 437.17 263.429 437.17 263.429L413.96 236.219L426.29 222.809L427.88 221.089L442.3 205.399L438.82 201.919L439.22 200.439L439.99 197.619C439.99 197.619 439.88 197.509 439.67 197.299C439.24 196.859 438.4 195.999 437.27 194.789C436.85 194.339 436.39 193.859 435.91 193.319C429.07 185.819 415.79 169.979 413.96 157.999C411.47 141.749 410.61 116.059 430.04 107.109L450.93 137.279L450.27 138.119L447.94 141.099L448.4 141.289L448.53 141.339L450.59 142.179L452.42 142.929L455.83 150.839L456.61 152.659L482.26 210.549Z" fill="#2E576B"/>
<path d="M414.51 236.861L403.88 245.601L423.41 266.911L433.77 259.441L414.51 236.861Z" fill="#FEEDC5"/>
<path d="M361.58 107.109L369.2 116.229L359.42 124.679L365.72 257.459L354.28 268.239L347.24 257.399L356.11 124.349L350.47 118.709L361.58 107.109Z" fill="#CF4040"/>
<path d="M253.37 249.671C253.36 249.671 253.35 249.671 253.35 249.671C253.35 249.671 253.38 249.741 253.44 249.871C253.46 249.891 253.47 249.911 253.47 249.941C253.59 250.191 253.79 250.631 254.01 251.141C254.65 252.591 255.51 254.641 255.43 255.001C255.34 255.371 253.47 255.881 252.23 256.171C251.74 256.291 251.35 256.371 251.21 256.411C251.16 256.421 251.14 256.421 251.14 256.421C251.14 256.421 251.77 258.291 251.14 258.671C250.81 258.871 249.85 259.141 249.02 259.351C248.55 259.471 248.14 259.571 247.92 259.621C247.8 259.651 247.73 259.671 247.73 259.671C247.73 259.671 246.61 262.031 245.36 262.711C244.12 263.391 242.19 263.521 242.19 263.521L241.88 263.361L241.03 262.931L240.99 262.911L237.24 260.991L236.32 260.521L231.94 258.281L231.03 257.811L225.46 254.971L213.58 248.901L218.01 232.431L235.26 225.641C235.26 225.641 260.7 242.001 261.37 243.171C262.03 244.331 261.2 249.061 261.03 249.271C260.91 249.421 256.76 249.571 254.61 249.651C254.6 249.651 254.6 249.651 254.59 249.651C253.94 249.651 253.48 249.671 253.37 249.671Z" fill="#AB5E27"/>
<path d="M242.719 256.049C242.719 256.919 242.209 260.909 241.019 262.919C240.759 263.369 240.459 263.729 240.119 263.909C239.939 264.009 239.759 264.069 239.559 264.079C238.269 264.129 237.499 263.399 237.079 262.789C236.769 262.329 236.649 261.929 236.649 261.929C236.649 261.929 236.439 262.069 236.089 262.229C235.269 262.609 233.709 263.149 232.259 262.509C231.289 262.089 231.029 261.469 231.019 260.919C231.019 260.909 231.019 260.909 231.019 260.899C231.019 260.279 231.349 259.779 231.349 259.779C231.349 259.779 230.919 259.859 230.289 259.929C228.519 260.129 225.069 260.309 224.389 258.789C224.039 258.009 224.549 256.529 225.449 254.969C226.939 252.379 229.529 249.609 231.179 249.509C231.559 249.489 231.879 249.529 232.159 249.619C233.889 250.139 234.079 252.399 234.079 252.399C234.079 252.399 235.649 251.499 237.579 251.899C239.509 252.319 239.879 255.299 239.879 255.299C239.879 255.299 242.719 254.889 242.719 256.049Z" fill="#AB5E27"/>
<path d="M235.65 221.371C235.65 221.371 230.74 220.441 230.43 222.991C230.12 225.541 233.48 236.791 234.1 236.911C234.72 237.031 239.38 237.531 239.45 236.231C239.51 234.921 238.83 224.541 238.83 224.541L235.65 221.371Z" fill="#AB5E27"/>
<path d="M184.37 444.041L183.87 509.681L186.61 516.641L183.87 525.101L183.98 525.251L185.24 526.911L187.85 530.321L187.8 530.601L187.42 532.671L185.37 543.921L162.98 548.721L151.3 455.231L149.3 438.311V438.301L149.03 436.011L148.79 433.971L147.87 426.141V426.131L147.25 420.871L133.39 303.301L174.84 293.311L188.1 290.121V335.621L184.95 427.171L184.85 430.131L184.58 438.001L184.48 440.751L184.37 444.041Z" fill="#5E85A6"/>
<path d="M156.32 416.98L163.2 435.5L150.7 450.15L147.87 426.14L156.32 416.98Z" fill="#0B212E"/>
<path d="M149.3 438.311L188.1 321.321V290.121L183.39 293.101L178.4 327.071L168.71 334.531L149.3 438.311Z" fill="#0B212E"/>
<path d="M174.84 293.311L151.78 432.741L151.4 435.041L151.38 435.151L149.3 438.311L147.81 440.581L145.89 443.471L140.11 452.241L134.41 532.401L134.25 534.681L134.14 536.171L133.39 538.161L135.35 541.171L136.38 542.751L136.27 542.961L132.08 551.051L131.65 551.871L129.35 552.811L106.72 562.011L99.0801 551.871L101.94 543.921L102.56 424.011L107.66 420.291L104.8 417.181L113.87 390.821L105.63 290.121L174.84 293.311Z" fill="#5E85A6"/>
<path d="M188.38 290.83C188.38 290.83 188.1 299.32 182.13 305.04C176.16 310.76 160.67 312.62 143.99 312C127.3 311.38 106.91 305.78 106.91 305.78L106.49 300.63L188.38 290.83Z" fill="#0B212E"/>
<path d="M162.24 305.542C146.08 307.282 97.3398 299.212 97.3398 299.212L106.76 233.232L106.96 231.812C106.96 231.812 106.84 230.562 106.63 228.302C105.99 221.272 104.5 204.492 103.18 185.792C102 169.092 100.93 150.862 100.7 136.642C100.57 128.282 100.73 121.302 101.32 116.852C103.16 102.982 112.62 86.9117 122.72 73.1917C123.15 72.6017 123.59 72.0217 124.01 71.4417C124.37 70.9717 124.73 70.5017 125.08 70.0317C126.92 67.6117 128.77 65.2917 130.58 63.0817C140.92 50.3917 150.01 41.5117 150.01 41.5117L180.87 55.4117L162.22 90.6717L164.09 95.2817L170.73 111.612L190.47 160.152C190.49 160.202 190.51 160.232 190.52 160.262C190.55 160.322 190.56 160.352 190.56 160.352C190.56 160.352 190.54 161.802 190.51 164.402C190.5 165.332 190.49 166.412 190.48 167.622C190.39 176.542 190.23 192.632 190.15 210.002V212.262C190.06 234.822 190.11 259.052 190.56 272.252C191.58 301.312 178.4 303.802 162.24 305.542Z" fill="#5E85A6"/>
<path d="M129.17 219.751L103.18 185.781C102 169.081 100.93 150.851 100.7 136.631L101.07 135.711L129.17 219.751Z" fill="#0B212E"/>
<path d="M190.5 160.12C189.28 157.49 175.9 128.75 165.23 113.57C157.39 102.43 136.76 81.5304 125.1 70.0104C126.94 67.5904 128.79 65.2704 130.6 63.0604L162.25 90.6504L190.5 160.12Z" fill="#FEEDC5"/>
<path d="M181 55.1375L162.461 91L131 62.9386C141.278 50.0317 150.314 41 150.314 41L181 55.1375Z" fill="#AB5E27"/>
<path d="M164.11 95.25L160 103.46L170.76 111.59L168.79 118.98L190.5 160.12L164.11 95.25Z" fill="#FA9778"/>
<path d="M220.77 231.349L215.41 249.839L206.91 247.799L213.59 227.789L220.77 231.349Z" fill="#FEEDC5"/>
<path d="M216.03 227.789L204.43 257.369L129.17 219.749C129.17 219.749 101.92 149.549 100.7 136.779C99.5001 124.019 100.82 103.799 119.39 104.949C137.95 106.109 149.89 119.539 151.87 139.759C153.86 159.989 158.2 191.149 158.2 191.149L160 193.139L158.2 195.299L165.14 196.789L197.8 216.679L200 218.019L216.03 227.789Z" fill="#5E85A6"/>
<path d="M188.73 43.5704C188.73 43.5704 196.43 71.9204 186.24 72.5404C176.04 73.1704 167.08 65.0804 163.48 59.6104C160.11 54.4804 160 48.8004 160 48.1104V48.0404L133.83 59.1404C133.83 59.1404 114.49 39.8404 120.21 20.3204C125.93 0.800362 142.34 -0.699638 152.42 0.180362C158.91 0.750362 164.13 1.30036 168.74 4.25036H168.75C171.28 5.86036 173.62 8.19036 175.91 11.6204C178.57 15.6104 180.26 19.1304 181.42 22.0504C181.82 23.0404 182.16 23.9604 182.43 24.8104C183.37 27.5604 183.87 29.5104 184.48 30.5204C185.85 32.7604 194.06 39.0904 194.06 40.8404C194.07 42.5804 188.73 43.5704 188.73 43.5704Z" fill="#AB5E27"/>
<path d="M345.34 73.5503C345.32 73.5403 345.3 73.5303 345.28 73.5303C344.53 73.2303 344.05 73.8803 344.09 74.5203C344.09 74.5203 344.09 74.5103 344.08 74.5103C344.07 74.6403 343.07 75.5703 342.87 75.7703C342.36 76.2803 341.78 76.6803 341.18 77.0703C340.05 77.8103 338.48 78.7003 337.1 78.6003C335.82 78.5103 335.83 80.5003 337.1 80.5903C338.99 80.7303 341.05 79.5303 342.59 78.5303C343.81 77.7403 345.98 76.1003 346.07 74.5103C346.1 74.0403 345.74 73.7103 345.34 73.5503Z" fill="#0B212E"/>
<path d="M338.559 51.1015C336.449 50.0115 333.099 50.0915 331.209 51.6415C331.119 50.6315 331.169 49.6615 331.459 48.8115C331.539 48.5815 331.619 48.3215 331.719 48.0415C334.399 47.0515 337.569 47.2215 340.059 48.5315C341.759 49.4215 340.259 52.0015 338.559 51.1015Z" fill="#0B212E"/>
<path d="M340.3 56.5991C340.85 58.2691 340.41 59.9091 339.32 60.2591C338.24 60.6091 336.91 59.5491 336.37 57.8791C335.82 56.2091 336.26 54.5691 337.35 54.2191C338.44 53.8691 339.76 54.9291 340.3 56.5991Z" fill="#0B212E"/>
<path d="M399.01 98.9312C398.38 104.371 397.92 109.831 397.6 115.301C397.56 115.891 397.17 116.241 396.61 116.291C394.02 116.531 391.86 117.101 389.59 118.131C391.55 120.541 393.75 122.461 396.43 124.131C396.9 124.431 397.06 125.021 396.79 125.491C385.98 144.941 376.09 164.891 367.18 185.291C367.19 183.901 367.21 182.481 367.22 181.031C367.22 180.781 367.23 180.521 367.23 180.271C375.55 161.561 384.69 143.231 394.62 125.321C391.72 123.381 389.31 121.091 387.19 118.271C386.88 117.851 387.1 117.141 387.55 116.911C389.9 115.721 392.23 114.921 394.85 114.471C396.44 114.211 396.03 108.851 396.14 107.631C396.44 104.231 396.79 100.831 397.2 97.4512C397.8 97.9812 398.41 98.4712 399.01 98.9312Z" fill="#0B212E"/>
<path d="M344.91 177.13C344.83 180 344.75 183.02 344.65 186.12C342.27 174 339.88 161.88 337.5 149.77C336.52 144.75 334.47 139.04 334.74 133.92C334.88 131.5 338.08 128.52 340 126.47C338.88 125.42 338.76 123.69 339.2 121.99C340.13 118.45 341.06 114.91 342 111.37L344.12 110.23C342.32 116.4 340.14 124.75 341.77 125.31C342.53 125.57 342.69 126.38 342.21 126.97C340.71 128.81 338.07 131.12 337.12 133.26C336.04 135.65 337.45 139.31 337.93 141.72C338.91 146.73 339.91 151.76 340.89 156.78C342.25 163.55 343.58 170.35 344.91 177.13Z" fill="#0B212E"/>
<path d="M405.809 156.57C405.529 156.16 403.289 152.36 403.289 152.36C402.579 151.3 400.979 152.22 401.569 153.36C401.659 153.53 401.759 153.7 401.849 153.87C394.959 156.57 388.059 159.25 381.149 161.92C379.969 162.38 380.479 164.3 381.679 163.84C388.739 161.11 395.789 158.37 402.829 155.61C403.229 156.27 403.639 156.92 404.079 157.56C404.809 158.62 406.539 157.63 405.809 156.57Z" fill="#0B212E"/>
<path d="M448.4 141.282C441.68 144.592 434.8 147.562 427.75 150.162C426.55 150.612 426.03 148.692 427.22 148.242C435.11 145.332 442.79 141.942 450.27 138.102L447.94 141.082L448.4 141.282Z" fill="#0B212E"/>
<path d="M450.59 142.17C444.72 147.19 439.02 152.4 433.51 157.83C432.59 158.74 431.19 157.33 432.11 156.43C437.41 151.21 442.9 146.19 448.53 141.34L450.59 142.17Z" fill="#0B212E"/>
<path d="M456.61 152.64C451.95 155.15 447.22 157.56 442.46 159.87C441.31 160.43 440.3 158.72 441.46 158.15C446.3 155.8 451.1 153.37 455.84 150.82L456.61 152.64Z" fill="#0B212E"/>
<path d="M451.82 179.691C451.74 179.941 451.65 180.201 451.57 180.451C451.38 181.021 450.87 181.201 450.41 181.111C445.59 185.251 441.18 189.801 437.27 194.811C436.85 194.361 436.39 193.881 435.91 193.341C440.15 187.981 444.88 183.111 450.16 178.731C450.87 178.121 452.16 178.651 451.82 179.691Z" fill="#0B212E"/>
<path d="M466.12 191.13C457.85 193.68 449.58 196.23 441.31 198.78C441.2 198.82 441.1 198.82 440.99 198.82C440.4 199.36 439.81 199.89 439.22 200.44L439.99 197.62C439.99 197.62 439.88 197.51 439.67 197.3C444.89 192.5 450.41 188.07 456.21 183.99C456.27 183.54 456.57 183.11 457.14 183.06C457.41 183.03 457.68 183.01 457.94 182.98C459.01 182.87 459.17 184.32 458.45 184.83C453.56 188.21 448.89 191.86 444.43 195.75C450.69 193.82 456.94 191.89 463.2 189.96C463.27 189.53 463.57 189.16 464.12 189.16C464.7 189.16 465.28 189.17 465.86 189.17C466.99 189.18 467.18 190.81 466.12 191.13Z" fill="#0B212E"/>
<path d="M452.67 225.7C443.79 225.42 435.01 224.47 426.29 222.82L427.88 221.1C436.08 222.59 444.33 223.46 452.67 223.72C453.95 223.75 453.95 225.74 452.67 225.7Z" fill="#0B212E"/>
<path d="M379.99 268.7C377.92 269.84 375.84 270.99 373.77 272.13C373.55 271.35 373.51 270.72 373.51 270.72C373.51 270.72 373.05 270.72 372.39 270.62C374.59 269.41 376.79 268.19 378.98 266.98C380.11 266.37 381.11 268.09 379.99 268.7Z" fill="#0B212E"/>
<path d="M385.08 272.701C383.34 274.481 381.3 275.851 379.03 276.781C378.85 275.981 378.81 275.371 378.81 275.371C378.81 275.371 378.2 275.421 377.37 275.271C379.77 274.461 381.88 273.141 383.67 271.291C384.57 270.381 385.98 271.781 385.08 272.701Z" fill="#0B212E"/>
<path d="M389.14 278.52C387.84 279.51 386.44 280.33 384.95 281C384.79 280.38 384.78 279.85 384.78 279.85C384.78 279.85 383.85 280.26 382.79 280.35C382.83 280 383.04 279.67 383.45 279.5C385.14 278.83 386.7 277.91 388.13 276.8C389.16 276.03 390.15 277.76 389.14 278.52Z" fill="#0B212E"/>
<path d="M395.229 269.71C393.429 269.87 391.709 269.68 389.989 269.13C388.759 268.74 388.239 270.66 389.459 271.05C391.329 271.65 393.269 271.87 395.229 271.7C396.489 271.59 396.509 269.6 395.229 269.71Z" fill="#0B212E"/>
<path d="M386.81 264.461L386.06 264.231C384.83 263.851 384.31 265.771 385.53 266.151L386.28 266.381C387.52 266.761 388.04 264.841 386.81 264.461Z" fill="#0B212E"/>
<path d="M382.76 536.08C382.44 536.27 382.12 536.46 381.82 536.66C381 537.15 380.25 536.33 380.36 535.61C376.49 534.27 372.63 532.92 368.77 531.57C369.75 535.5 371.98 539.13 372.82 543.14C373.08 544.37 373.29 545.61 373.45 546.84C373.73 548.98 373.86 551.13 373.84 553.32C373.83 554.6 371.84 554.6 371.85 553.32C371.87 550.87 371.74 548.42 371.37 545.99C371.08 544.11 370.64 542.25 370.02 540.45C369 537.5 367.03 534.37 366.61 531.22C366.59 531.08 366.59 530.94 366.58 530.81C365.11 530.29 363.64 529.79 362.16 529.27C361.94 528.44 361.73 527.66 361.55 526.95C363.25 527.55 364.95 528.14 366.66 528.73C367.02 526.29 368.14 523.63 369.09 521.01C369.06 521 369.04 520.98 369.01 520.97C366.95 519.8 364.88 518.66 362.8 517.54C363.03 516.89 363.25 516.25 363.47 515.63C365.57 516.75 367.67 517.91 369.74 519.09C370.79 515.65 371.1 512.42 368.38 510C367.96 509.62 368.03 508.98 368.38 508.59C372.82 503.72 368.77 495.57 368.18 489.87C367.57 483.96 367.69 477.98 366.93 472.09C366.02 465.17 363.48 458.7 362.17 451.88C361.09 446.22 360.51 440.51 360 434.76C359.88 433.44 359.73 432.12 359.59 430.8C358.47 430.09 357.36 429.37 356.24 428.67C355.16 428 356.15 426.28 357.24 426.96C357.93 427.38 358.59 427.82 359.27 428.24C359.02 426.29 358.73 424.33 358.42 422.38C357.96 421.82 357.52 421.25 357.11 420.65C356.61 419.94 357.22 419.28 357.9 419.21C354.02 397.5 346.54 376.25 339.29 355.56C338.86 354.34 340.79 353.82 341.21 355.02C347.93 374.22 354.64 393.83 359 413.71C359.59 416.37 360.04 419.03 360.42 421.7C363.48 425.39 367.24 428.46 370.84 431.62C371.8 432.48 370.39 433.87 369.43 433.03C366.52 430.47 363.55 427.97 360.89 425.17C361.07 426.63 361.23 428.1 361.39 429.58C363.56 430.99 365.73 432.41 367.86 433.88C368.11 433.86 368.37 433.93 368.6 434.14C368.94 434.46 369.29 434.78 369.62 435.08C370.45 435.84 369.35 437.29 368.42 436.64C366.19 435.09 363.93 433.59 361.66 432.1C362 435.48 362.32 438.87 362.71 442.28C363.82 451.8 367.13 460.65 368.66 470.05C370.16 479.22 369.79 488.44 371.63 497.6C372.17 500.29 372.98 503.64 372.01 506.31C371.16 508.62 370.59 508.44 371.49 510.5C372.43 512.63 372.78 514.87 372.26 517.17C372.04 518.09 371.69 519.03 371.3 519.97C373.04 520.97 374.78 522 376.5 523.05C377.6 523.73 379.42 525.3 380.86 525.83L380.91 525.82C381.42 525.71 382 525.97 382.13 526.52C382.14 526.58 382.15 526.64 382.17 526.69C382.35 527.5 381.69 528.01 380.95 527.91C379.09 527.66 377.08 525.73 375.5 524.78C373.84 523.78 372.17 522.78 370.49 521.8C369.35 524.29 368.2 526.81 368.4 529.32C373.11 530.96 377.84 532.61 382.55 534.25C383.32 534.54 383.52 535.61 382.76 536.08Z" fill="#0B212E"/>
<path d="M420.529 536.77C420.089 536.84 419.589 536.889 418.969 536.969C417.179 537.189 415.379 537.409 413.579 537.559C413.469 537.569 413.359 537.57 413.249 537.58C413.149 538.33 412.999 539.07 412.829 539.82C412.559 541.07 412.249 542.339 412.089 543.609C411.929 544.849 411.909 546.12 412.189 547.39C412.469 548.64 410.549 549.169 410.269 547.919C409.829 545.909 409.929 544.049 410.319 542.099C410.409 541.679 410.499 541.25 410.609 540.83C410.869 539.78 411.159 538.739 411.329 537.729C408.789 537.899 406.269 537.999 403.719 538.039C402.799 538.059 401.869 538.059 400.949 538.059C399.669 538.059 399.669 536.07 400.949 536.07C402.939 536.08 404.939 536.049 406.929 535.979C408.099 535.949 409.269 535.889 410.439 535.809C410.779 535.799 411.129 535.769 411.459 535.749C411.389 534.519 410.989 533.3 409.979 532.09C409.589 531.63 409.139 531.16 408.969 530.59C408.689 529.69 408.579 528.77 408.549 527.82C407.599 527.86 406.629 527.899 405.679 527.929C404.399 527.959 404.399 525.969 405.679 525.939C406.649 525.909 407.629 525.87 408.599 525.83C408.719 524.18 409.009 522.509 409.139 520.919C409.439 516.999 409.709 513.09 409.899 509.16C410.739 491.51 410.569 473.83 410.169 456.16C410.019 449.149 409.869 442.14 409.659 435.13C406.379 431.21 402.599 427.619 399.039 424.089C398.119 423.179 399.539 421.769 400.439 422.679C403.469 425.689 406.649 428.74 409.559 431.98C409.479 429.61 409.389 427.239 409.279 424.859C408.119 423.599 406.959 422.329 405.819 421.049C403.949 418.959 401.399 416.799 400.249 414.219C399.739 413.059 401.449 412.039 401.969 413.219C403.299 416.209 406.539 418.909 408.729 421.329C408.859 421.469 408.999 421.62 409.129 421.76C408.849 416.14 408.499 410.53 408.009 404.92C406.479 387.68 404.099 370.539 401.649 353.409C401.469 352.149 403.389 351.609 403.569 352.869C405.949 369.539 408.329 386.219 409.819 402.999C410.449 409.979 410.869 416.98 411.189 423.98C412.399 425.3 413.619 426.629 414.849 427.929C415.449 428.559 415.019 429.61 414.139 429.63C413.889 429.63 413.629 429.64 413.379 429.64C412.579 429.65 412.289 428.889 412.479 428.309C412.089 427.899 411.709 427.48 411.329 427.07C411.429 429.52 411.519 431.95 411.599 434.39C412.349 435.3 413.079 436.219 413.759 437.179C414.119 437.219 414.469 437.419 414.639 437.829C414.919 438.479 415.189 439.119 415.459 439.779C415.919 440.849 414.219 441.459 413.649 440.549C413.039 439.599 412.389 438.66 411.709 437.76C411.879 443.25 411.999 448.739 412.129 454.239C412.529 471.889 412.839 489.589 411.989 507.239C411.769 511.819 411.519 516.39 411.139 520.96C410.979 522.86 410.769 524.369 410.759 525.789C412.589 525.699 414.429 525.59 416.259 525.45L416.119 527.439C414.379 527.569 412.639 527.67 410.889 527.76C411.089 529.03 411.529 530.339 412.389 531.919C413.069 533.169 413.329 534.41 413.369 535.64C413.439 535.63 413.519 535.629 413.589 535.619C415.349 535.449 417.249 535.03 419.149 534.71L420.529 536.77Z" fill="#0B212E"/>
<path d="M307.98 205.191C307.54 204.971 307.09 204.751 306.66 204.531C306.34 204.371 306.2 204.131 306.17 203.871C302.96 201.521 299.73 199.191 296.52 196.851L298.29 195.691C301.85 198.291 305.42 200.871 308.98 203.471C310.01 204.221 309.14 205.771 307.98 205.191Z" fill="#0B212E"/>
<path d="M314.509 197.61C313.949 197.61 313.399 197.62 312.849 197.62C312.269 197.62 311.959 197.22 311.909 196.77C306.389 194.84 301.039 192.54 295.859 189.86C297.249 189.69 299.039 189.59 299.259 189.66C299.269 189.66 299.319 189.58 299.389 189.41C304.359 191.84 309.499 193.92 314.779 195.66C315.819 196 315.649 197.6 314.509 197.61Z" fill="#0B212E"/>
<path d="M182.44 24.8104C180.29 25.4204 178.38 26.8004 177.12 28.7304C176.08 30.3404 173.49 28.8504 174.54 27.2304C176.22 24.6504 178.66 22.8704 181.42 22.0604C181.82 23.0504 182.16 23.9704 182.44 24.8104Z" fill="#0B212E"/>
<path d="M136.63 150.34C125.53 149.41 114.57 150.37 103.8 153.19C102.56 153.51 103.09 155.43 104.33 155.11C114.38 152.48 124.59 151.54 134.92 152.22C135.04 152.93 135.94 153.49 136.59 152.82C136.84 152.56 137.09 152.3 137.34 152.04C137.97 151.38 137.48 150.41 136.63 150.34Z" fill="#0B212E"/>
<path d="M136.77 155.921C132.11 155.481 126.99 156.491 122.34 156.951C117.14 157.471 111.95 158.131 106.77 158.861C105.5 159.041 106.04 160.961 107.3 160.781C112.3 160.071 117.31 159.461 122.34 158.941C126.98 158.461 132.12 157.481 136.77 157.911C138.05 158.031 138.04 156.041 136.77 155.921Z" fill="#0B212E"/>
<path d="M140.3 114.07C133.62 106.2 123.72 102.65 113.62 105.07C104.52 107.25 98.3095 116.04 98.6395 125.21C98.6895 126.49 100.679 126.49 100.629 125.21C100.299 115.83 106.749 108.77 115.629 106.64C124.379 104.54 133.329 108.92 138.899 115.48C139.719 116.46 141.12 115.04 140.3 114.07Z" fill="#0B212E"/>
<path d="M190.18 209.972C185.67 207.552 180.55 205.772 176.35 203.582C172.07 201.342 168.07 199.142 164.41 195.982C162.63 194.452 160.09 194.212 157.75 194.192C158.99 192.102 160.43 190.212 162.17 188.422C162.65 187.932 162.51 186.872 161.73 186.762C157.26 186.092 157.82 176.902 157.72 172.702C161.1 174.622 164.49 176.552 167.88 178.472C169 179.122 169.94 177.462 168.88 176.762C168.56 176.552 168.25 176.342 167.95 176.142C167.8 176.042 167.66 175.992 167.52 175.982C164.22 174.102 160.92 172.222 157.62 170.342C157.6 170.322 157.57 170.302 157.55 170.282C157.46 169.202 157.34 168.122 157.23 167.042C160.45 169.802 163.91 172.222 167.65 174.252C168.62 174.782 169.68 173.492 168.85 172.692C168.2 172.062 167.56 171.432 166.91 170.802C166.49 170.392 165.98 170.472 165.62 170.762C162.53 168.842 159.64 166.632 156.95 164.162C156.66 161.472 156.35 158.792 156.02 156.102C155.7 153.632 154.91 151.492 153.8 149.552C155.91 146.042 158.65 142.812 156.98 138.802L152.86 128.972C152.31 127.652 152.08 126.422 150.74 125.832C149.59 125.312 148.57 127.022 149.75 127.552C151.76 128.452 153.54 135.692 154.37 137.692C155.32 139.982 156.22 140.782 154.9 143.242L154.8 143.422C154.21 142.732 153.66 141.852 153.22 141.282C152.58 140.442 151.97 139.592 151.36 138.732C150.15 137.022 149.02 135.242 147.94 133.442C147.28 132.342 145.56 133.342 146.23 134.442C147.58 136.702 149.02 138.892 150.57 141.012C151.5 142.302 152.56 144.072 153.82 145.252C153.4 146.032 152.98 146.802 152.57 147.592C150.29 144.342 147.27 141.512 144.46 138.302C143.61 137.332 142.21 138.742 143.06 139.702C145.52 142.512 149.27 145.782 151.66 149.262C151.59 149.382 151.53 149.512 151.46 149.632C150.96 150.562 152.02 151.372 152.74 151.032C153.07 151.642 153.34 152.252 153.55 152.872C154.65 156.232 154.94 160.232 155.15 164.102C154.9 164.432 154.85 164.892 155.22 165.262C155.3 166.812 155.39 168.322 155.52 169.752C155.54 169.992 155.56 170.242 155.58 170.492C155.44 170.792 155.45 171.132 155.65 171.422C155.91 175.322 155.89 179.332 156.5 183.172C156.88 185.582 157.7 187.402 159.66 188.252C157.91 190.222 156.43 192.332 155.17 194.722C154.83 195.372 155.25 196.222 156.03 196.212C159.05 196.172 161.55 196.152 164.05 198.312C164.83 198.982 165.49 199.722 166.37 200.282C169.26 202.132 172.33 203.712 175.35 205.312C176.5 205.922 177.74 206.502 179.03 207.072C177.39 207.992 174.55 208.442 173.11 208.912C170.82 209.642 168.5 210.282 166.17 210.902C161.52 212.142 156.79 213.062 152.05 213.832C150.79 214.042 151.32 215.952 152.58 215.752C157.93 214.882 163.21 213.752 168.45 212.362C171.87 211.452 178.54 210.562 181.14 208.002C184.18 209.312 187.35 210.632 190.2 212.252V209.972H190.18Z" fill="#0B212E"/>
<path d="M119.81 257.091C115 249.371 110.65 241.411 106.76 233.231L106.96 231.811C106.96 231.811 106.84 230.561 106.63 228.301C110.98 237.881 115.94 247.151 121.52 256.091C122.21 257.171 120.48 258.171 119.81 257.091Z" fill="#0B212E"/>
<path d="M165.97 245.511C151.96 244.271 137.92 243.831 123.87 244.181C124.58 242.061 125.14 239.921 125.58 237.731C137.06 238.111 148.54 238.531 160.01 239.031C161.29 239.091 161.29 237.101 160.01 237.041C148.5 236.541 136.99 236.121 125.47 235.741C125.07 235.371 124.43 235.301 124.08 235.691C122.79 235.651 121.49 235.601 120.2 235.561C118.92 235.521 118.92 237.511 120.2 237.551C121.32 237.581 122.44 237.631 123.56 237.661C123.04 240.141 122.37 242.541 121.51 244.941C121.29 245.541 121.86 246.221 122.47 246.201C136.26 245.811 150.04 246.191 163.79 247.321C164.02 247.791 166.05 247.541 166.47 247.361C167.48 246.931 166.83 245.581 165.97 245.511Z" fill="#0B212E"/>
<path d="M187.8 530.602L187.42 532.672C185.76 533.002 184.11 533.432 182.46 533.902C181.71 536.282 181.56 538.672 181.91 541.302C182.08 542.572 180.09 542.552 179.92 541.302C179.63 539.122 179.54 536.772 180.09 534.612C176.61 535.672 173.15 536.852 169.75 537.652C168.51 537.942 167.98 536.032 169.22 535.732C173.01 534.832 176.86 533.522 180.72 532.372C180.96 530.992 180.44 530.222 179.39 529.082C175.65 530.602 172.06 532.362 168.92 534.622C167.88 535.372 166.89 533.642 167.92 532.902C171.04 530.652 174.62 528.882 178.36 527.362C178.36 527.342 178.36 527.312 178.37 527.292C179.76 523.382 182.52 518.642 181.26 514.452C180.45 511.772 180.51 509.022 180.39 506.242C180.03 497.882 179.66 489.502 179.31 481.132C178.94 472.772 178.58 464.392 178.22 456.032C178.1 453.192 177.8 450.242 177.76 447.332C177.38 447.722 176.99 448.102 176.63 448.482C175.74 449.402 174.33 448.002 175.22 447.072C176.08 446.182 176.95 445.322 177.82 444.442C177.85 443.802 177.9 443.162 177.98 442.532C178.3 439.982 178.95 437.562 179.48 435.062C177.52 436.942 175.55 438.842 173.23 440.252C172.14 440.932 171.13 439.212 172.23 438.542C175.09 436.792 177.61 434.282 180.09 431.882C182.87 415.832 182.77 398.672 183.18 382.482C183.6 366.292 183.53 350.102 182.98 333.902C182.93 332.622 184.92 332.632 184.97 333.902C185.57 351.392 185.64 368.882 185.05 386.362C184.75 395.422 184.32 404.482 183.7 413.532C183.33 418.842 183.16 424.292 182.46 429.632C182.57 429.532 182.67 429.432 182.78 429.332C183.48 428.712 184.2 427.952 184.97 427.172L184.87 430.132C183.9 431.002 182.93 431.872 181.98 432.752C181.77 433.902 181.53 435.062 181.25 436.192C180.76 438.142 180.44 440.102 180.23 442.072C181.66 440.692 183.12 439.322 184.61 438.002L184.51 440.762C182.98 442.182 181.48 443.612 179.99 445.092C179.67 451.282 180.3 457.542 180.57 463.762C180.93 472.122 181.3 480.502 181.65 488.862C181.85 493.372 182.05 497.882 182.24 502.392C182.41 506.282 181.88 511.062 183.54 514.652C184.49 516.722 183.6 518.552 182.88 520.562C182.24 522.382 181.6 524.192 180.95 526.012C180.9 526.142 180.87 526.272 180.84 526.402C181.89 526.002 182.95 525.622 184 525.262L185.26 526.922C183.96 527.372 182.64 527.842 181.35 528.332C181.88 529.082 182.68 529.712 183.25 530.322C183.58 530.672 183.61 531.112 183.41 531.522C183.39 531.562 183.38 531.602 183.36 531.642C184.83 531.232 186.31 530.882 187.8 530.602Z" fill="#0B212E"/>
<path d="M147.87 426.141C147 429.371 145.94 432.521 144.75 435.671C146.09 435.091 147.45 434.531 148.8 433.971C149.79 433.551 150.79 433.141 151.78 432.741L151.4 435.041C150.6 435.361 149.82 435.691 149.03 436.011C147.26 436.751 145.5 437.491 143.75 438.261C143.12 439.821 142.48 441.401 141.81 443.001C143.81 442.191 145.81 441.381 147.81 440.571L145.89 443.461C144.17 444.171 142.44 444.861 140.72 445.561C138.92 449.701 136.92 453.871 135.83 458.211C134.37 464.081 134.14 470.031 133.89 476.041L132.55 509.161C132.31 515.011 132.07 520.861 131.83 526.711C131.73 529.061 131.64 531.411 131.54 533.771C132.49 533.301 133.45 532.841 134.41 532.391L134.25 534.671C133.29 535.141 132.32 535.601 131.37 536.071C131.21 537.551 131.1 539.311 131.93 540.191C132.45 540.751 132.84 541.311 133.13 541.881C133.87 541.641 134.61 541.401 135.36 541.161L136.38 542.741L136.27 542.951C135.43 543.211 134.59 543.491 133.75 543.761C134.13 546.131 133.14 548.591 132.08 551.041C131.21 553.031 130.3 555.021 130.03 556.941C129.85 558.211 127.94 557.671 128.11 556.411C128.26 555.401 128.76 554.151 129.34 552.801C130.54 550.041 132.14 546.871 131.88 544.361C124.78 546.681 117.74 549.161 110.74 551.811C109.54 552.271 109.02 550.351 110.21 549.891C117.15 547.261 124.15 544.811 131.21 542.501C130.87 542.011 130.4 541.571 129.77 541.211C129.47 541.041 129.26 540.701 129.27 540.351C129.32 539.251 129.36 538.141 129.41 537.041C124.46 539.521 119.58 542.131 114.79 544.921C113.68 545.571 112.67 543.851 113.79 543.211C118.93 540.221 124.18 537.421 129.5 534.791C130.25 516.511 130.99 498.231 131.73 479.961C132.08 471.361 131.91 462.381 135.04 454.221C136.01 451.651 137.1 449.121 138.2 446.591C136.71 447.201 135.22 447.801 133.72 448.411C132.53 448.891 132.02 446.971 133.18 446.491C135.23 445.661 137.28 444.831 139.33 444.001C140.03 442.431 140.71 440.871 141.39 439.291C138.81 440.421 136.24 441.581 133.68 442.761C132.53 443.301 131.51 441.591 132.68 441.041C135.93 439.541 139.2 438.081 142.5 436.651C143.39 434.471 144.23 432.271 144.98 430.051C145.97 427.071 146.69 424.001 147.25 420.881C148.41 414.441 148.89 407.831 149.72 401.421C150.95 391.741 152.19 382.051 153.43 372.381C155.9 353.011 158.37 333.651 160.85 314.291C161.01 313.041 163 313.021 162.84 314.291C159.95 336.881 157.06 359.471 154.18 382.051C152.7 393.671 151.23 405.281 149.73 416.901C149.32 420.111 148.68 423.161 147.87 426.141Z" fill="#0B212E"/>
<path d="M183.37 302.601C183.31 301.901 182.79 301.551 182.11 301.641C181.99 301.661 181.86 301.671 181.74 301.691C181.3 301.751 181.02 302.251 181.01 302.651L181 302.951C180.99 303.311 181.14 303.551 181.36 303.711C181.16 305.901 180.03 308.511 179.56 310.471C178.82 313.531 178.24 316.621 177.7 319.721C177.33 321.871 177.22 325.941 175.69 327.581C173.64 329.771 170.34 331.391 167.72 332.821C166.59 333.431 167.6 335.151 168.72 334.541C172.18 332.661 178.25 330.021 178.84 325.591C179.41 321.311 180.15 317.071 181.06 312.851C181.73 309.671 183.65 305.821 183.37 302.601Z" fill="#0B212E"/>
<path d="M190.54 164.37C190.53 165.3 190.52 166.38 190.51 167.59L166.66 136.13C162.14 130.18 156.84 124.34 153 117.94C151.07 114.73 149.78 111.54 150.62 108.1C144.38 108.72 140.43 99.5799 137.54 95.3099C132.6 87.9899 127.26 80.7899 122.72 73.1699C123.15 72.5799 123.59 71.9999 124.01 71.4199C127.42 77.1799 131.37 82.6399 135.11 88.1799C137.16 91.1999 139.21 94.2299 141.25 97.2599C143.41 100.45 146.67 107.74 151.87 105.76C152.77 105.41 153.31 106.52 152.99 107.22C149.79 114.09 158.69 122.37 162.39 127.25C166.37 132.49 170.35 137.74 174.33 142.98L190.54 164.37Z" fill="#0B212E"/>
<path d="M167.63 16.7704C167.46 17.4304 164.31 25.2004 162.66 28.4504C161 31.6904 158.2 33.6804 158.2 33.6804C158.2 33.6804 153.7 24.3504 148.06 29.4304C142.42 34.5004 146.33 45.2404 146.33 45.2404L133.83 59.1404C133.83 59.1404 114.49 39.8404 120.21 20.3204C125.93 0.800362 142.34 -0.699638 152.42 0.180362C158.91 0.750362 164.13 1.30036 168.74 4.25036C166.74 4.59036 164.3 5.18036 162.98 6.15036C160.49 7.97036 159.33 8.14036 161.16 10.1304C162.98 12.1204 167.79 16.1004 167.63 16.7704Z" fill="#0B212E"/>
<path d="M186.24 72.5505C176.04 73.1805 167.08 65.0905 163.48 59.6205C160.11 54.4905 160 48.8105 160 48.1205V48.0505C160 48.0505 160.5 44.4505 160 40.3005C159.5 36.1605 158.2 33.6805 158.2 33.6805L160 25.4805C160 25.4805 163.98 33.6805 168.74 41.4805C173.5 49.2905 182.87 50.5505 182.87 50.5505C182.87 50.5505 182.2 47.9205 183.04 46.4305C183.87 44.9405 188.72 43.5705 188.72 43.5705C188.72 43.5705 196.42 71.9205 186.24 72.5505Z" fill="#0B212E"/>
<path d="M146.33 45.2404C146.33 45.2404 147.94 48.5104 150.86 49.0304C153.78 49.5404 156.61 49.0304 156.61 49.0304L156.89 51.2904C156.89 51.2904 147.65 52.8104 146.33 45.2404Z" fill="#0B212E"/>
<path d="M367.13 67.3196V68.8896C367.13 68.8896 370.8 68.6196 373 67.8196C375.21 67.0096 376.21 63.0996 376.21 63.0996C376.21 63.0996 373.84 67.7296 367.13 67.3196Z" fill="#0B212E"/>
<path d="M148.439 33.5103C148.439 33.5103 149.809 29.5303 152.669 31.2703C155.529 33.0103 155.739 39.2303 155.739 39.2303L148.439 33.5103Z" fill="#0B212E"/>
<path d="M154.53 39.2303C154.41 39.6003 152.66 39.3903 153.41 41.4903C154.16 43.5803 155.58 43.9603 155.74 43.5803C155.9 43.2003 154.53 39.2303 154.53 39.2303Z" fill="#0B212E"/>
<path d="M369.2 54.6415C369.2 54.6415 372.25 49.0015 374.91 49.7715C377.57 50.5415 376.7 54.6415 376.7 54.6415H369.2Z" fill="#0B212E"/>
<path d="M369.2 55.4707C369.2 55.4707 371.23 55.9207 371.11 58.0207C370.99 60.1207 369.2 59.8707 369.2 59.8707V55.4707Z" fill="#0B212E"/>
<path d="M182.42 33.2707C182.17 34.8807 181.38 36.1007 180.67 35.9807C179.95 35.8707 179.58 34.4707 179.83 32.8607C180.08 31.2507 180.87 30.0307 181.58 30.1507C182.3 30.2707 182.68 31.6607 182.42 33.2707Z" fill="#0B212E"/>
<path d="M239.19 224.199C239.07 223.569 238.11 223.839 238.23 224.459C238.69 226.789 239.02 229.129 239.23 231.489C239.3 232.339 239.34 233.189 239.36 234.039C239.42 237.029 233.6 236.749 234.21 236.929C235.84 237.429 239.39 237.889 240.07 235.599C241.08 232.189 239.86 227.639 239.19 224.199Z" fill="#0B212E"/>
<path d="M243.06 259.31C242.76 260.49 242.52 262.12 241.87 263.36L241.02 262.93C240.76 263.38 240.46 263.74 240.12 263.92C240.15 263.89 240.18 263.86 240.22 263.83C240.53 263.63 240.77 263.3 240.98 262.9C241.49 261.91 241.74 260.48 241.93 259.67C242.09 259.04 242.35 258.29 242.32 257.64C242.37 256.01 241.44 255.58 239.54 256.35C238.35 257.62 237.53 259.26 237.22 260.98C237.11 261.58 237.06 262.16 237.08 262.76V262.79C236.77 262.33 236.65 261.93 236.65 261.93C236.65 261.93 236.44 262.07 236.09 262.23C236.1 261.66 236.17 261.09 236.3 260.51C236.58 259.1 237.18 257.73 238.03 256.59C238.37 256.15 238.89 255.6 239.49 255.19C239.46 255.15 239.43 255.12 239.42 255.07C238.82 253.3 237.83 252.39 235.91 252.73C234.58 252.97 234.01 254.05 233.41 255.14C232.84 256.15 232.35 257.2 231.92 258.27C231.58 259.12 231.27 260 231.01 260.9C231.01 260.91 231.01 260.91 231.01 260.92L230.27 259.93C230.48 259.21 230.73 258.51 231.01 257.81C231.36 256.91 231.76 256.05 232.22 255.21C232.62 254.49 233.12 253.39 233.82 252.65C233.7 252.54 233.62 252.38 233.65 252.18C233.79 251.3 232.06 249.55 232.34 249.67C233.4 250.16 234.64 250.89 234.64 252.05C234.69 252.03 234.74 252 234.8 251.98C237.62 251.07 239.43 252.05 240.35 254.75C240.9 254.58 241.45 254.61 241.97 254.99C243.46 256.08 243.47 257.66 243.06 259.31Z" fill="#0B212E"/>
<path d="M249.01 259.35C248.54 259.47 248.13 259.57 247.91 259.62C247.38 259.06 246.87 258.51 246.34 257.95C245.68 257.25 244.83 256.59 244.47 255.69C244.23 255.09 245.19 254.84 245.42 255.43C245.65 256 246.35 256.51 246.76 256.96C247.12 257.34 247.48 257.72 247.83 258.1C248.22 258.51 248.62 258.93 249.01 259.35Z" fill="#0B212E"/>
<path d="M252.22 256.169C251.73 256.289 251.34 256.369 251.2 256.409C250.27 254.979 249.42 253.439 249.01 251.869C248.85 251.249 249.81 250.979 249.97 251.609C250.37 253.169 251.26 254.729 252.22 256.169Z" fill="#0B212E"/>
<path d="M254.81 249.511C254.76 249.561 254.69 249.601 254.62 249.641C254.61 249.641 254.61 249.641 254.6 249.641C253.94 249.651 253.48 249.671 253.37 249.671C252.75 248.081 251.68 246.631 251.35 244.921C251.23 244.351 252.03 244.081 252.26 244.531C253.06 245.121 253.85 245.701 254.65 246.291C255.02 246.561 255.38 246.821 255.73 247.091C255.88 247.201 256.21 247.381 256.3 247.571C256.71 248.431 255.59 249.141 254.81 249.511Z" fill="#0B212E"/>
<path d="M337.869 258.291C337.869 260.761 337.159 262.771 336.299 262.771C335.429 262.771 334.729 260.771 334.729 258.291C334.729 255.821 335.439 253.811 336.299 253.811C337.169 253.821 337.869 255.821 337.869 258.291Z" fill="#0B212E"/>
<path d="M340.789 224.679C340.789 227.149 340.079 229.159 339.219 229.159C338.349 229.159 337.649 227.159 337.649 224.679C337.649 222.209 338.359 220.199 339.219 220.199C340.079 220.199 340.789 222.199 340.789 224.679Z" fill="#0B212E"/>
<path d="M200 218.031C189.51 221.701 179 225.371 168.51 229.051C167.3 229.481 166.78 227.551 167.98 227.131C177.92 223.651 187.86 220.171 197.8 216.691L200 218.031Z" fill="#0B212E"/>
<path d="M127.92 219.789L190.18 264.769L190.21 250.259L127.92 219.789Z" fill="#0B212E"/>
<path d="M161.82 195.961L190.18 200.601V212.231L161.82 195.961Z" fill="#0B212E"/>
<path d="M125.75 245.42V250.09L166.03 251.2V246.79L125.75 245.42Z" fill="#0B212E"/>
<path d="M158.2 183.031L168.95 199.371L161.82 195.961L157.18 195.381L159.66 188.241L158.2 183.031Z" fill="#0B212E"/>
<path d="M164.11 95.25L158.98 105.66L157.83 104.32L164.11 95.25Z" fill="#0B212E"/>
</g>
<defs>
<clipPath id="clip0_322_14506">
<rect width="543" height="423" fill="white"/>
</clipPath>
</defs>
</svg>
