<svg width="20" height="20" viewBox="0 0 20 20" fill="none" xmlns="http://www.w3.org/2000/svg">
<path d="M7.43856 1.65295C5.27314 1.65295 3.5127 3.4134 3.5127 5.57882C3.5127 7.70292 5.17396 9.42204 7.33938 9.49642C7.4055 9.48816 7.47162 9.48816 7.52121 9.49642C7.53774 9.49642 7.54601 9.49642 7.56254 9.49642C7.5708 9.49642 7.5708 9.49642 7.57907 9.49642C9.6949 9.42204 11.3562 7.70292 11.3644 5.57882C11.3644 3.4134 9.60399 1.65295 7.43856 1.65295Z" fill="#ACACAC"/>
<path d="M11.6373 11.695C9.33135 10.1577 5.57078 10.1577 3.24832 11.695C2.19867 12.3975 1.62012 13.348 1.62012 14.3645C1.62012 15.3811 2.19867 16.3233 3.24005 17.0176C4.39715 17.7945 5.91791 18.183 7.43867 18.183C8.95942 18.183 10.4802 17.7945 11.6373 17.0176C12.6787 16.3151 13.2572 15.3729 13.2572 14.348C13.249 13.3314 12.6787 12.3892 11.6373 11.695Z" fill="#ACACAC"/>
<path d="M16.5214 6.06643C16.6537 7.66984 15.5131 9.07489 13.9345 9.26498C13.9262 9.26498 13.9262 9.26498 13.918 9.26498H13.8932C13.8436 9.26498 13.794 9.26498 13.7527 9.28151C12.951 9.32284 12.2154 9.06662 11.6616 8.59552C12.5129 7.83514 13.0005 6.69457 12.9014 5.45483C12.8435 4.78536 12.6121 4.17375 12.265 3.65306C12.579 3.49602 12.9427 3.39685 13.3146 3.36379C14.9346 3.22328 16.3809 4.42997 16.5214 6.06643Z" fill="#ACACAC"/>
<path d="M18.175 13.7116C18.1089 14.5133 17.5964 15.2076 16.7369 15.6787C15.9104 16.1333 14.869 16.3482 13.8359 16.3234C14.4309 15.7861 14.7781 15.1167 14.8442 14.4059C14.9268 13.381 14.4392 12.3975 13.4639 11.6123C12.9102 11.1743 12.2655 10.8272 11.563 10.5709C13.3895 10.042 15.6872 10.3974 17.1005 11.5379C17.8609 12.1496 18.2494 12.9182 18.175 13.7116Z" fill="#ACACAC"/>
</svg>
