<svg width="65" height="64" viewBox="0 0 65 64" fill="none" xmlns="http://www.w3.org/2000/svg">
<g clip-path="url(#clip0_796_33723)">
<path d="M46.4462 32.1136C45.2249 31.5325 43.9686 31.0282 42.6846 30.6035C46.82 27.4995 49.5 22.5569 49.5 17C49.5 7.62625 41.8738 0 32.5 0C23.1261 0 15.5 7.62625 15.5 17C15.5 22.563 18.186 27.5105 22.3291 30.6139C18.5331 31.8636 14.9712 33.8083 11.8537 36.3725C6.1372 41.0746 2.16258 47.6332 0.662202 54.8404C0.191952 57.0986 0.755327 59.4181 2.20758 61.2039C3.6527 62.9809 5.79558 64 8.08658 64H38.875C40.2557 64 41.375 62.8807 41.375 61.5C41.375 60.1193 40.2557 59 38.875 59H8.08658C7.01933 59 6.37545 58.4043 6.0867 58.0493C5.58808 57.4361 5.39508 56.638 5.5572 55.8594C8.15158 43.3975 19.1436 34.2943 31.8372 33.9873C32.281 34.0044 32.7254 34.0043 33.1692 33.987C37.0592 34.0783 40.8005 34.966 44.2997 36.6295C45.5468 37.222 47.0381 36.6919 47.6308 35.4448C48.2236 34.1978 47.6933 32.7064 46.4462 32.1136ZM33.1097 28.9846C32.7048 28.9771 32.2998 28.9772 31.895 28.9849C25.5581 28.6687 20.5 23.414 20.5 17C20.5 10.3831 25.8831 5 32.5 5C39.1168 5 44.5 10.3831 44.5 17C44.5 23.4124 39.4443 28.6661 33.1097 28.9846Z" fill="#FF8C00"/>
<path d="M62 49.625H55.125V42.75C55.125 41.3693 54.0057 40.25 52.625 40.25C51.2443 40.25 50.125 41.3693 50.125 42.75V49.625H43.25C41.8693 49.625 40.75 50.7443 40.75 52.125C40.75 53.5057 41.8693 54.625 43.25 54.625H50.125V61.5C50.125 62.8808 51.2443 64 52.625 64C54.0057 64 55.125 62.8808 55.125 61.5V54.625H62C63.3808 54.625 64.5 53.5057 64.5 52.125C64.5 50.7443 63.3808 49.625 62 49.625Z" fill="#FF8C00"/>
</g>
<defs>
<clipPath id="clip0_796_33723">
<rect width="64" height="64" fill="white" transform="translate(0.5)"/>
</clipPath>
</defs>
</svg>
