<svg width="182" height="180" viewBox="0 0 182 180" fill="none" xmlns="http://www.w3.org/2000/svg">
<g clip-path="url(#clip0_1101_20533)">
<path d="M147.979 118.153L18.4795 121.189V99.0391H149.225L147.979 118.153Z" fill="#1A2E35"/>
<path opacity="0.5" d="M147.979 118.153L18.4795 121.189V99.0391H149.225L147.979 118.153Z" fill="black"/>
<path d="M13.5152 104.724V115.952C13.5151 117.124 13.8904 118.265 14.5862 119.209C15.2819 120.152 16.2615 120.847 17.3814 121.193L18.284 121.47C18.8478 121.644 19.436 121.726 20.026 121.714L26.0734 121.572C25.4312 119.322 25.313 116.955 25.7278 114.652C26.1427 112.349 27.0796 110.171 28.4667 108.287C29.8538 106.402 31.6541 104.86 33.7297 103.779C35.8052 102.698 38.1007 102.108 40.4401 102.052C42.7795 101.996 45.1006 102.477 47.2253 103.457C49.35 104.438 51.2218 105.892 52.6972 107.709C54.1725 109.525 55.2121 111.655 55.7363 113.936C56.2605 116.217 56.2552 118.587 55.721 120.865L117.261 119.403C116.969 117.318 117.111 115.195 117.677 113.168C118.242 111.14 119.22 109.25 120.548 107.617C121.876 105.984 123.526 104.641 125.396 103.674C127.266 102.707 129.315 102.135 131.416 101.995C133.516 101.855 135.623 102.149 137.605 102.859C139.587 103.569 141.401 104.68 142.934 106.122C144.468 107.564 145.688 109.307 146.518 111.241C147.348 113.176 147.771 115.261 147.76 117.366C147.76 117.667 147.736 117.968 147.736 118.254C147.817 118.221 147.901 118.187 147.982 118.148L150.088 117.21C151.105 116.75 151.967 116.008 152.572 115.071C153.178 114.133 153.5 113.042 153.5 111.926V89.0604C153.498 88.0069 153.209 86.9739 152.663 86.0727C152.118 85.1714 151.337 84.436 150.404 83.9456L134.588 75.6266C134.406 75.5316 134.266 75.3716 134.196 75.1784C134.121 74.9708 134.13 74.7417 134.222 74.541C134.315 74.3404 134.483 74.1844 134.69 74.1073L136.627 73.4122C136.724 73.3795 136.807 73.3147 136.863 73.2286C136.918 73.1426 136.942 73.0402 136.932 72.9385C136.921 72.8367 136.877 72.7415 136.805 72.6685C136.733 72.5955 136.639 72.5491 136.537 72.5367C129.016 71.4897 99.7892 67.6687 84.4238 69.5461C66.6937 71.6973 49.7067 87.0687 49.7067 87.0687C36.664 86.5782 24.4879 91.1184 19.2437 93.3869C18.4065 93.7526 17.6551 94.2895 17.038 94.9632C16.4208 95.6368 15.9516 96.4322 15.6604 97.2982L13.8552 102.612C13.6267 103.292 13.5118 104.006 13.5152 104.724Z" fill="#FF8C00"/>
<path d="M117.276 119.41C117.185 118.734 117.141 118.054 117.143 117.373C117.143 117.027 117.143 116.684 117.173 116.341L106.041 111.789C105.389 111.524 104.686 111.41 103.983 111.455L65.2767 113.994C64.6471 114.035 64.0326 114.205 63.4715 114.493L56.1153 118.275C56.0636 119.15 55.9388 120.018 55.7422 120.872L117.276 119.41Z" fill="#1A2E35"/>
<path d="M153.497 111.933V111.349L147.203 113.275C147.57 114.61 147.756 115.988 147.757 117.373C147.757 117.674 147.733 117.975 147.733 118.26C147.814 118.227 147.898 118.194 147.979 118.155L150.085 117.216C151.102 116.757 151.965 116.015 152.57 115.078C153.175 114.14 153.497 113.049 153.497 111.933Z" fill="#1A2E35"/>
<path d="M15.2847 119.99C15.8884 120.543 16.6079 120.954 17.3907 121.193L18.2934 121.47C18.8572 121.644 19.4454 121.727 20.0354 121.714L26.0828 121.573C25.864 120.808 25.7061 120.027 25.6105 119.238L15.2847 119.99Z" fill="#1A2E35"/>
<path d="M132.475 100.607C130.099 100.607 127.75 101.112 125.584 102.089C123.418 103.065 121.484 104.492 119.911 106.273C118.338 108.054 117.162 110.149 116.461 112.42C115.76 114.69 115.549 117.084 115.843 119.442L117.294 119.405C117.003 117.32 117.144 115.198 117.71 113.17C118.275 111.142 119.253 109.253 120.581 107.619C121.909 105.986 123.559 104.644 125.429 103.677C127.299 102.709 129.348 102.138 131.449 101.997C133.549 101.857 135.656 102.151 137.638 102.861C139.62 103.571 141.434 104.682 142.967 106.124C144.501 107.567 145.721 109.309 146.551 111.244C147.381 113.179 147.804 115.263 147.793 117.369C147.793 117.669 147.769 117.97 147.769 118.256C147.85 118.223 147.934 118.19 148.015 118.151L149.219 117.603V117.369C149.213 112.925 147.446 108.666 144.304 105.524C141.163 102.382 136.904 100.614 132.46 100.607H132.475Z" fill="#1A2E35"/>
<path d="M40.8251 100.607C38.2625 100.606 35.7339 101.193 33.4335 102.322C31.1332 103.451 29.1224 105.093 27.5557 107.121C25.9889 109.149 24.9081 111.509 24.3961 114.02C23.8841 116.531 23.9546 119.125 24.6023 121.605L26.0916 121.575C25.4493 119.325 25.3311 116.957 25.746 114.654C26.1608 112.351 27.0977 110.174 28.4848 108.289C29.8719 106.404 31.6722 104.863 33.7478 103.782C35.8233 102.701 38.1188 102.11 40.4582 102.054C42.7976 101.998 45.1187 102.479 47.2434 103.46C49.3681 104.441 51.24 105.895 52.7153 107.711C54.1906 109.528 55.2303 111.658 55.7544 113.938C56.2786 116.219 56.2733 118.589 55.7391 120.868L57.2224 120.832C57.7396 118.39 57.7049 115.865 57.1208 113.438C56.5367 111.012 55.4181 108.748 53.8465 106.809C52.275 104.871 50.2903 103.308 48.0374 102.235C45.7846 101.162 43.3204 100.606 40.8251 100.607Z" fill="#1A2E35"/>
<path d="M55.4082 87.7237C55.2249 87.8849 55.0992 88.1015 55.0501 88.3405C54.9801 88.6073 55.0131 88.8906 55.1424 89.1342C55.2717 89.3778 55.488 89.5638 55.7481 89.6553L62.1446 91.4605C62.7086 91.6205 63.2992 91.6645 63.8806 91.5899L111.312 85.7139C112.502 85.5492 113.587 84.9475 114.357 84.0261L120.579 76.7751C120.792 76.5259 120.922 76.2169 120.952 75.8906C121.037 75.0662 120.519 74.3231 119.797 74.2298C108.439 72.7254 94.0788 71.3535 85.0106 72.4607C73.1263 73.8988 61.1608 82.8346 55.4082 87.7237Z" fill="#FF8C00"/>
<path opacity="0.8" d="M55.6368 87.7237C55.4899 87.8542 55.3787 88.02 55.314 88.2055C55.2492 88.391 55.2329 88.5899 55.2667 88.7835C55.3004 88.977 55.3831 89.1587 55.5069 89.3113C55.6306 89.4639 55.7913 89.5823 55.9738 89.6553L62.3702 91.4605C62.9342 91.6205 63.5248 91.6645 64.1062 91.5899L110.476 88.4127C111.631 88.2653 113.416 86.1442 114.688 84.4232L120.817 76.7751C121.03 76.5259 121.16 76.2169 121.19 75.8906C121.274 75.0662 120.757 74.3231 120.035 74.2298C108.677 72.7254 94.3164 71.3535 85.2482 72.4607C73.3399 73.8988 61.3743 82.8346 55.6368 87.7237Z" fill="white"/>
<g opacity="0.3">
<path d="M86.608 92.2444C86.4646 92.1883 86.3482 92.0793 86.2827 91.94C86.2172 91.8006 86.2077 91.6415 86.256 91.4953C86.3225 91.3115 86.4421 91.1517 86.5996 91.036C86.757 90.9203 86.9453 90.854 87.1405 90.8454L92.7848 90.6077C92.8604 90.6046 92.936 90.6159 93.0075 90.6408C93.1533 90.6958 93.2722 90.8052 93.339 90.9461C93.4058 91.087 93.4153 91.2482 93.3655 91.396C93.2986 91.5798 93.1785 91.7396 93.0204 91.8548C92.8623 91.97 92.6734 92.0355 92.4779 92.0428L86.8336 92.2775C86.757 92.2803 86.6806 92.2691 86.608 92.2444Z" fill="black"/>
</g>
<path d="M128.588 76.0685C128.469 76.1737 128.371 76.3015 128.301 76.4446C128.232 76.5877 128.191 76.7433 128.182 76.9022C128.172 77.0612 128.195 77.2204 128.248 77.3706C128.3 77.5208 128.382 77.6591 128.489 77.7774L129.828 79.2336C129.981 79.3961 130.176 79.5146 130.39 79.5766L146.8 84.1227C147.085 84.2008 147.379 84.2402 147.675 84.2401H150.922C150.753 84.1287 150.579 84.0234 150.398 83.9392L134.581 75.6112C134.39 75.5161 134.244 75.349 134.176 75.1465C134.108 74.9439 134.123 74.7226 134.217 74.531L129.079 75.8188C128.898 75.863 128.73 75.9485 128.588 76.0685Z" fill="#FF8C00"/>
<path d="M26.4768 95.5507L20.8806 94.949L17.6673 96.2638C17.3336 96.3992 17.0365 96.6115 16.8002 96.8833C16.5639 97.1552 16.3951 97.4789 16.3074 97.8283C16.2026 98.2357 16.262 98.6679 16.4729 99.0318L16.5271 99.1281C16.7036 99.43 16.9654 99.673 17.2796 99.8266C17.5939 99.9802 17.9464 100.038 18.2932 99.9916L21.5185 99.5463C21.8336 99.5011 22.1324 99.378 22.388 99.1882L26.1067 96.3661L26.4768 95.5507Z" fill="white"/>
<path d="M49.7188 87.0686L50.6214 87.3213C50.9624 87.4191 51.3223 87.4313 51.6692 87.3568C52.0161 87.2823 52.3393 87.1233 52.6101 86.8941C57.7941 82.5074 66.8111 75.78 76.5381 72.6419C76.572 72.6314 76.6021 72.6112 76.6246 72.5837C76.6471 72.5562 76.6609 72.5227 76.6644 72.4874C76.668 72.4521 76.661 72.4165 76.6444 72.3852C76.6279 72.3538 76.6024 72.328 76.5712 72.311L75.3678 71.6912C61.3142 76.5592 49.7188 87.0686 49.7188 87.0686Z" fill="#FF8C00"/>
<path opacity="0.8" d="M49.7188 87.0686L50.6214 87.3213C50.9624 87.4191 51.3223 87.4313 51.6692 87.3568C52.0161 87.2823 52.3393 87.1233 52.6101 86.8941C57.7941 82.5074 66.8111 75.78 76.5381 72.6419C76.572 72.6314 76.6021 72.6112 76.6246 72.5837C76.6471 72.5562 76.6609 72.5227 76.6644 72.4874C76.668 72.4521 76.661 72.4165 76.6444 72.3852C76.6279 72.3538 76.6024 72.328 76.5712 72.311L75.3678 71.6912C61.3142 76.5592 49.7188 87.0686 49.7188 87.0686Z" fill="white"/>
<path opacity="0.2" d="M102.894 92.9958L55.7393 96.3655L56.6419 102.181C56.9136 103.963 57.5741 105.663 58.5765 107.161L62.5178 113.052L102.762 107.612L121.789 92.9958H102.894Z" fill="white"/>
<path d="M132.461 130.135C139.511 130.135 145.227 124.42 145.227 117.369C145.227 110.319 139.511 104.603 132.461 104.603C125.41 104.603 119.695 110.319 119.695 117.369C119.695 124.42 125.41 130.135 132.461 130.135Z" fill="#1A2E35"/>
<path opacity="0.4" d="M132.46 125.194C136.782 125.194 140.286 121.69 140.286 117.368C140.286 113.046 136.782 109.543 132.46 109.543C128.138 109.543 124.635 113.046 124.635 117.368C124.635 121.69 128.138 125.194 132.46 125.194Z" fill="white"/>
<g opacity="0.3">
<path d="M132.463 110.332H132.46C132.115 110.332 131.834 110.612 131.834 110.958V114.968C131.834 115.314 132.115 115.594 132.46 115.594H132.463C132.809 115.594 133.089 115.314 133.089 114.968V110.958C133.089 110.612 132.809 110.332 132.463 110.332Z" fill="white"/>
</g>
<g opacity="0.3">
<path d="M132.463 119.15H132.46C132.115 119.15 131.834 119.43 131.834 119.776V123.786C131.834 124.132 132.115 124.412 132.46 124.412H132.463C132.809 124.412 133.089 124.132 133.089 123.786V119.776C133.089 119.43 132.809 119.15 132.463 119.15Z" fill="white"/>
</g>
<g opacity="0.3">
<path d="M134.852 116.713C134.781 116.754 134.703 116.78 134.621 116.791C134.54 116.801 134.458 116.796 134.378 116.774C134.299 116.753 134.225 116.716 134.16 116.665C134.096 116.615 134.041 116.553 134.001 116.481C133.96 116.41 133.934 116.332 133.923 116.251C133.913 116.169 133.918 116.087 133.94 116.008C133.961 115.928 133.998 115.854 134.048 115.79C134.099 115.725 134.161 115.671 134.232 115.63L137.704 113.614C137.776 113.573 137.854 113.546 137.936 113.535C138.018 113.524 138.101 113.529 138.181 113.55C138.26 113.571 138.335 113.608 138.401 113.658C138.466 113.709 138.521 113.771 138.562 113.843C138.644 113.987 138.666 114.157 138.623 114.317C138.58 114.477 138.476 114.614 138.333 114.697L134.861 116.713H134.852Z" fill="white"/>
</g>
<g opacity="0.3">
<path d="M127.216 121.106C127.072 121.188 126.902 121.21 126.742 121.167C126.582 121.124 126.445 121.02 126.362 120.877C126.321 120.806 126.294 120.727 126.284 120.646C126.273 120.564 126.279 120.481 126.301 120.402C126.322 120.323 126.359 120.248 126.409 120.183C126.46 120.118 126.522 120.064 126.594 120.023L130.066 118.007C130.209 117.925 130.379 117.902 130.539 117.944C130.699 117.987 130.836 118.09 130.92 118.233C131.003 118.377 131.027 118.548 130.984 118.709C130.942 118.871 130.838 119.008 130.694 119.093L127.216 121.109V121.106Z" fill="white"/>
</g>
<g opacity="0.3">
<path d="M137.701 121.12L134.229 119.104C134.158 119.063 134.095 119.008 134.045 118.943C133.995 118.877 133.958 118.803 133.937 118.723C133.915 118.643 133.91 118.56 133.921 118.479C133.932 118.397 133.959 118.318 134.001 118.247C134.042 118.176 134.097 118.113 134.163 118.063C134.228 118.013 134.303 117.977 134.382 117.956C134.462 117.935 134.545 117.93 134.627 117.941C134.708 117.952 134.787 117.98 134.858 118.021L138.33 120.037C138.473 120.121 138.577 120.257 138.62 120.417C138.663 120.577 138.641 120.748 138.559 120.891C138.518 120.963 138.463 121.026 138.397 121.076C138.332 121.126 138.257 121.163 138.178 121.184C138.098 121.205 138.015 121.211 137.933 121.2C137.851 121.189 137.773 121.162 137.701 121.12Z" fill="white"/>
</g>
<g opacity="0.3">
<path d="M130.917 116.482C130.877 116.553 130.822 116.616 130.757 116.666C130.692 116.716 130.618 116.753 130.539 116.774C130.46 116.795 130.377 116.801 130.296 116.79C130.215 116.779 130.136 116.752 130.066 116.711L126.594 114.695C126.451 114.611 126.346 114.475 126.304 114.315C126.261 114.155 126.283 113.984 126.365 113.84C126.405 113.769 126.46 113.707 126.525 113.657C126.59 113.606 126.664 113.57 126.743 113.548C126.822 113.527 126.905 113.522 126.986 113.533C127.067 113.544 127.146 113.57 127.216 113.612L130.694 115.628C130.837 115.712 130.94 115.849 130.983 116.009C131.025 116.168 131.002 116.339 130.92 116.482H130.917Z" fill="white"/>
</g>
<path d="M131.41 117.37C131.41 117.092 131.521 116.825 131.718 116.628C131.915 116.431 132.182 116.32 132.46 116.32C132.669 116.32 132.872 116.382 133.045 116.498C133.218 116.613 133.353 116.778 133.433 116.97C133.513 117.163 133.534 117.374 133.493 117.579C133.452 117.783 133.352 117.97 133.205 118.118C133.058 118.265 132.87 118.365 132.666 118.406C132.461 118.447 132.25 118.426 132.057 118.346C131.865 118.266 131.7 118.131 131.585 117.958C131.469 117.785 131.407 117.581 131.407 117.373L131.41 117.37Z" fill="#1A2E35"/>
<path d="M40.8249 130.139C47.8753 130.139 53.5908 124.423 53.5908 117.373C53.5908 110.323 47.8753 104.607 40.8249 104.607C33.7745 104.607 28.0591 110.323 28.0591 117.373C28.0591 124.423 33.7745 130.139 40.8249 130.139Z" fill="#1A2E35"/>
<path opacity="0.4" d="M40.8251 125.198C45.147 125.198 48.6507 121.694 48.6507 117.372C48.6507 113.05 45.147 109.547 40.8251 109.547C36.5031 109.547 32.9995 113.05 32.9995 117.372C32.9995 121.694 36.5031 125.198 40.8251 125.198Z" fill="white"/>
<g opacity="0.3">
<path d="M40.8251 110.332H40.8221C40.4765 110.332 40.1963 110.612 40.1963 110.958V114.968C40.1963 115.314 40.4765 115.594 40.8221 115.594H40.8251C41.1707 115.594 41.4509 115.314 41.4509 114.968V110.958C41.4509 110.612 41.1707 110.332 40.8251 110.332Z" fill="white"/>
</g>
<g opacity="0.3">
<path d="M40.8251 119.15H40.8221C40.4765 119.15 40.1963 119.43 40.1963 119.776V123.786C40.1963 124.132 40.4765 124.412 40.8221 124.412H40.8251C41.1707 124.412 41.4509 124.132 41.4509 123.786V119.776C41.4509 119.43 41.1707 119.15 40.8251 119.15Z" fill="white"/>
</g>
<g opacity="0.3">
<path d="M43.2109 116.715C43.14 116.756 43.0618 116.781 42.9809 116.791C42.9001 116.801 42.818 116.795 42.7395 116.773C42.6609 116.752 42.5875 116.714 42.5233 116.664C42.4591 116.614 42.4055 116.552 42.3654 116.481C42.3239 116.41 42.2967 116.331 42.2856 116.25C42.2744 116.169 42.2795 116.086 42.3004 116.006C42.3214 115.927 42.3579 115.853 42.4078 115.787C42.4576 115.722 42.5199 115.667 42.5911 115.626L46.0661 113.61C46.2098 113.532 46.3786 113.512 46.5365 113.556C46.6944 113.6 46.829 113.703 46.9115 113.845C46.9525 113.916 46.9791 113.994 46.9898 114.075C47.0005 114.157 46.995 114.239 46.9738 114.318C46.9526 114.397 46.9159 114.471 46.866 114.536C46.8161 114.601 46.7539 114.656 46.6829 114.697L43.2109 116.712V116.715Z" fill="white"/>
</g>
<g opacity="0.3">
<path d="M34.7233 120.877C34.6412 120.733 34.6192 120.562 34.662 120.402C34.7048 120.242 34.809 120.106 34.952 120.022L38.424 118.006C38.5682 117.923 38.7395 117.9 38.9007 117.942C39.0618 117.984 39.1998 118.089 39.2845 118.232C39.3674 118.377 39.3896 118.549 39.3462 118.71C39.3028 118.871 39.1973 119.009 39.0528 119.093L35.5838 121.108C35.4389 121.191 35.267 121.213 35.1058 121.17C34.9445 121.127 34.807 121.021 34.7233 120.877Z" fill="white"/>
</g>
<g opacity="0.3">
<path d="M46.9115 120.893C46.8707 120.965 46.8161 121.027 46.7509 121.077C46.6858 121.128 46.6113 121.164 46.5319 121.186C46.4525 121.207 46.3696 121.212 46.2881 121.201C46.2066 121.19 46.1281 121.163 46.057 121.122L42.582 119.106C42.5108 119.065 42.4484 119.01 42.3985 118.944C42.3486 118.879 42.3121 118.804 42.2911 118.724C42.2701 118.645 42.2651 118.561 42.2763 118.48C42.2875 118.398 42.3147 118.32 42.3563 118.249C42.3974 118.177 42.4522 118.115 42.5174 118.065C42.5827 118.015 42.6572 117.979 42.7366 117.958C42.816 117.937 42.8988 117.932 42.9802 117.943C43.0616 117.954 43.14 117.981 43.2108 118.023L46.6828 120.039C46.8258 120.122 46.93 120.259 46.9728 120.419C47.0156 120.579 46.9936 120.749 46.9115 120.893Z" fill="white"/>
</g>
<g opacity="0.3">
<path d="M39.2815 116.489C39.1968 116.631 39.0592 116.735 38.8986 116.777C38.738 116.818 38.5674 116.795 38.424 116.711L34.952 114.696C34.809 114.612 34.7048 114.475 34.662 114.315C34.6192 114.155 34.6412 113.985 34.7233 113.841C34.7647 113.769 34.8199 113.707 34.8855 113.657C34.9512 113.606 35.0262 113.569 35.1061 113.548C35.186 113.527 35.2694 113.522 35.3513 113.533C35.4333 113.544 35.5123 113.571 35.5838 113.612L39.0528 115.628C39.1958 115.712 39.3 115.848 39.3428 116.008C39.3856 116.168 39.3636 116.339 39.2815 116.483V116.489Z" fill="white"/>
</g>
<path d="M40.825 116.32C41.0333 116.32 41.2369 116.382 41.4101 116.498C41.5832 116.613 41.7182 116.778 41.7979 116.97C41.8776 117.163 41.8985 117.374 41.8578 117.579C41.8172 117.783 41.7169 117.97 41.5696 118.118C41.4224 118.265 41.2347 118.365 41.0305 118.406C40.8262 118.447 40.6145 118.426 40.422 118.346C40.2296 118.266 40.0652 118.131 39.9494 117.958C39.8337 117.785 39.772 117.581 39.772 117.373C39.772 117.094 39.8829 116.826 40.0804 116.629C40.2779 116.431 40.5457 116.32 40.825 116.32Z" fill="#1A2E35"/>
<path opacity="0.3" d="M152.158 93.2908C152.26 93.2592 152.354 93.208 152.435 93.1402C152.516 93.0723 152.584 92.989 152.633 92.8951C152.682 92.8012 152.712 92.6985 152.722 92.593C152.731 92.4874 152.72 92.381 152.688 92.2798C152.54 89.5931 151.969 87.1982 150.323 85.5554C150.269 85.3795 150.157 85.2271 150.005 85.1237C149.853 85.0202 149.67 84.9719 149.487 84.9868L139.76 85.9044C139.612 85.9211 139.472 85.9781 139.354 86.0693C139.237 86.1604 139.147 86.2821 139.094 86.421C139.041 86.5599 139.027 86.7107 139.055 86.8568C139.082 87.0029 139.149 87.1387 139.248 87.2493L142.034 90.258C142.13 90.3613 142.252 90.438 142.386 90.4807L151.713 93.3028C151.86 93.3402 152.014 93.336 152.158 93.2908Z" fill="black"/>
<path d="M55.0501 88.3345C54.9801 88.6013 55.0131 88.8846 55.1424 89.1282C55.2717 89.3718 55.488 89.5578 55.7481 89.6493L62.1446 91.4545C62.7217 91.6317 63.3195 91.7329 63.9227 91.7554L65.9355 91.623L64.0371 81.3513C59.6504 84.2337 59.3495 84.36 55.4112 87.7177C55.2267 87.8783 55.0998 88.095 55.0501 88.3345Z" fill="#1A2E35"/>
<path d="M96.7232 72.1189L92.7036 89.6445L97.9598 89.2654L100.367 72.2844C99.1312 72.2122 97.9167 72.157 96.7232 72.1189Z" fill="#1A2E35"/>
<path d="M113.403 85.9881L120.787 76.7635C121.004 76.5096 121.137 76.1939 121.166 75.8609C121.25 75.0365 120.729 74.2933 120.007 74.2031C118.503 73.9955 116.884 73.7999 115.275 73.6013" fill="#1A2E35"/>
<path d="M60.8688 90.1162C60.2549 90.1235 59.6632 89.8867 59.2237 89.458C58.7842 89.0292 58.5329 88.4436 58.525 87.8296C58.5201 87.3001 58.6964 86.7849 59.0248 86.3695C59.3532 85.954 59.8139 85.6635 60.3302 85.5461L63.4141 84.824L64.1964 89.9899L60.941 90.1162H60.8688Z" fill="#FF8C00"/>
<path opacity="0.3" d="M63.2847 90.026L64.1873 89.9899L63.4021 84.824L62.5205 85.0316L63.2847 90.026Z" fill="black"/>
<path opacity="0.6" d="M97.8515 89.2637C97.8876 91.0689 97.8695 93.0005 97.674 93.9843C97.2377 96.1656 93.8379 112.118 93.8379 112.118" stroke="black" stroke-width="0.196091" stroke-linecap="round" stroke-linejoin="round"/>
<path opacity="0.6" d="M55.0347 88.7207C55.0347 88.7207 56.0516 102.516 57.6011 105.305C59.1054 108.027 63.4831 114.493 63.4831 114.493" stroke="black" stroke-width="0.196091" stroke-linecap="round" stroke-linejoin="round"/>
<path opacity="0.6" d="M51.4726 87.4082C51.4726 87.4082 40.6023 90.095 37.401 90.6064C34.7745 91.0276 24.0967 93.6151 20.8804 94.9419" stroke="black" stroke-width="0.196091" stroke-linecap="round" stroke-linejoin="round"/>
<path opacity="0.8" d="M128.588 76.0687C128.469 76.1739 128.371 76.3017 128.301 76.4448C128.232 76.5879 128.191 76.7435 128.182 76.9024C128.172 77.0614 128.195 77.2206 128.248 77.3708C128.3 77.521 128.382 77.6593 128.489 77.7776L129.828 79.2338C129.981 79.3964 130.176 79.5148 130.39 79.5768L146.8 84.1229C147.085 84.201 147.379 84.2405 147.675 84.2403H150.922C150.753 84.129 150.579 84.0236 150.398 83.9394L134.581 75.6114C134.39 75.5163 134.244 75.3492 134.176 75.1467C134.108 74.9441 134.123 74.7228 134.217 74.5312L129.079 75.819C128.898 75.8632 128.73 75.9487 128.588 76.0687Z" fill="white"/>
<path d="M66.9973 86.5507C66.8499 86.6379 65.1108 88.4371 65.1108 88.4371L65.4508 90.6695L67.6381 88.41L66.9973 86.5507Z" fill="#1A2E35"/>
<path d="M69.6207 91.2025C69.5293 91.2479 69.4298 91.2748 69.328 91.2816C69.2261 91.2885 69.1239 91.2752 69.0272 91.2425C68.9305 91.2098 68.8412 91.1583 68.7644 91.0911C68.6877 91.0238 68.6249 90.9421 68.5797 90.8505L65.1077 83.8132C65.062 83.7219 65.0348 83.6223 65.0277 83.5204C65.0207 83.4184 65.0339 83.3161 65.0666 83.2193C65.0994 83.1225 65.151 83.0332 65.2184 82.9564C65.2859 82.8797 65.3679 82.8171 65.4597 82.7722C65.5512 82.7269 65.6507 82.7 65.7525 82.6932C65.8544 82.6863 65.9566 82.6996 66.0533 82.7323C66.1499 82.765 66.2393 82.8165 66.316 82.8837C66.3928 82.951 66.4556 83.0327 66.5007 83.1242L69.9728 90.1615C70.0181 90.253 70.045 90.3525 70.0518 90.4543C70.0587 90.5562 70.0454 90.6584 70.0127 90.7551C69.98 90.8518 69.9285 90.941 69.8613 91.0178C69.794 91.0946 69.7123 91.1574 69.6207 91.2025Z" fill="#1A2E35"/>
<path d="M70.5418 117.693L67.5813 115.35C65.6918 117.501 64.1664 119.643 63.0171 120.922L63.7301 122.601L65.6617 122.213C67.1982 120.612 68.8277 119.103 70.5418 117.693Z" fill="#CD7A63"/>
<path d="M67.7046 120.783L66.5523 120.049C65.3729 120.651 65.1382 120.169 64.9938 119.11C64.693 118.861 64.35 119.185 64.2567 119.27L62.1777 121.15C62.0933 121.225 62.0422 121.331 62.0354 121.444C62.0287 121.556 62.0668 121.667 62.1416 121.752C62.1693 121.784 62.2018 121.811 62.2379 121.833L65.0029 123.596L68.875 126.06C69.9311 126.731 70.8277 125.808 70.4576 125.431C68.7757 123.753 67.7498 122.296 67.5151 121.343C67.467 121.171 67.6294 121.171 67.7046 120.783Z" fill="#FF8C00"/>
<path d="M67.873 121.801C67.7158 121.729 67.5449 121.691 67.372 121.691C67.1991 121.691 67.0283 121.729 66.8711 121.801" stroke="#1A2E35" stroke-width="0.196091" stroke-linecap="round" stroke-linejoin="round"/>
<path d="M68.1465 122.526C67.9889 122.454 67.8175 122.416 67.644 122.416C67.4706 122.416 67.2992 122.454 67.1416 122.526" stroke="#1A2E35" stroke-width="0.196091" stroke-linecap="round" stroke-linejoin="round"/>
<path d="M68.5742 123.267C68.417 123.195 68.2461 123.158 68.0732 123.158C67.9003 123.158 67.7295 123.195 67.5723 123.267" stroke="#1A2E35" stroke-width="0.196091" stroke-linecap="round" stroke-linejoin="round"/>
<path opacity="0.7" d="M62.1413 121.749C62.169 121.781 62.2015 121.808 62.2376 121.83L65.0026 123.593L68.8748 126.06C69.076 126.21 69.3191 126.293 69.5699 126.298C69.8208 126.303 70.0669 126.229 70.2738 126.088C70.1113 125.985 62.376 121.141 62.2978 121.045L62.1443 121.186C62.0752 121.264 62.0367 121.363 62.0361 121.467C62.0356 121.571 62.073 121.671 62.1413 121.749Z" fill="white"/>
<path d="M88.0131 117.609L83.4219 120.441C83.7649 123.885 84.6103 127.015 84.2914 128.705L85.7717 129.767L87.7905 127.661C87.7905 127.661 87.616 121.503 88.0131 117.609Z" fill="#CD7A63"/>
<path d="M87.9708 126.143L86.6049 126.116C85.9068 127.238 85.4586 126.952 84.7996 126.116C84.4055 126.062 84.2882 126.513 84.2551 126.636L83.4548 129.32C83.4218 129.428 83.4327 129.544 83.4851 129.644C83.5375 129.744 83.6271 129.819 83.7346 129.853C83.7746 129.865 83.8161 129.871 83.8579 129.871L87.1374 129.94L91.7287 130.039C92.9803 130.066 93.2661 128.809 92.7516 128.682C90.4439 128.12 88.8162 127.404 88.1152 126.715C87.9708 126.597 88.1092 126.513 87.9708 126.143Z" fill="#FF8C00"/>
<path d="M88.645 126.924C88.4731 126.945 88.3077 127.003 88.1603 127.094C88.0128 127.185 87.8867 127.306 87.7905 127.45" stroke="#1A2E35" stroke-width="0.196091" stroke-linecap="round" stroke-linejoin="round"/>
<path d="M89.2524 127.402C89.0805 127.423 88.9151 127.481 88.7677 127.572C88.6202 127.663 88.4941 127.785 88.3979 127.929" stroke="#1A2E35" stroke-width="0.196091" stroke-linecap="round" stroke-linejoin="round"/>
<path d="M90.0107 127.809C89.8388 127.83 89.6734 127.888 89.526 127.979C89.3785 128.069 89.2524 128.191 89.1562 128.335" stroke="#1A2E35" stroke-width="0.196091" stroke-linecap="round" stroke-linejoin="round"/>
<path opacity="0.7" d="M83.7197 129.859C83.7597 129.871 83.8012 129.877 83.843 129.877L87.1225 129.946L91.7137 130.045C91.9623 130.068 92.2116 130.012 92.4272 129.887C92.6428 129.761 92.814 129.571 92.9172 129.344C92.7277 129.344 83.5903 129.218 83.482 129.176L83.4278 129.374C83.4084 129.477 83.4274 129.583 83.4813 129.672C83.5351 129.762 83.62 129.828 83.7197 129.859Z" fill="white"/>
<path d="M81.8122 51.836C81.8122 51.836 82.3267 50.1421 81.7851 46.974C81.7851 46.974 81.9536 46.9168 81.9566 46.9138C81.8814 46.4715 81.7941 46.0624 81.7129 45.7104V45.6953L85.6242 48.7612C85.4166 49.733 85.555 51.6645 85.6723 52.4889C85.6723 52.4889 86.0394 53.9933 84.1048 53.8428C82.6727 53.7255 81.8122 51.836 81.8122 51.836Z" fill="#CD7A63"/>
<path opacity="0.2" d="M85.5247 50.1415L83.1719 49.3262C83.3043 50.0994 83.8699 51.0652 85.5397 51.3269C85.5027 50.9329 85.4976 50.5364 85.5247 50.1415Z" fill="black"/>
<path d="M81.9055 43.6498C81.8874 46.3395 81.8242 47.8619 83.0849 49.3121C84.9864 51.5024 88.3019 50.5156 89.1263 47.886C89.8665 45.5121 89.7732 41.5106 87.2158 40.2891C86.6492 40.0189 86.0233 39.8969 85.3967 39.9343C84.7701 39.9718 84.1632 40.1675 83.6327 40.5032C83.1023 40.8389 82.6657 41.3036 82.3636 41.8539C82.0615 42.4041 81.9039 43.022 81.9055 43.6498Z" fill="#CD7A63"/>
<path d="M81.7852 40.4053C82.2546 38.9522 85.9553 39.2019 86.9361 40.0142C87.0835 40.1376 84.83 41.0883 84.9534 41.0492L83.8973 41.335C83.7409 41.2899 83.4159 41.4554 83.2204 41.9368C83.2204 41.9368 83.0579 46.0526 81.8123 47.1628C80.9097 46.6423 80.9639 45.0116 80.7352 44.0218C80.3952 42.5385 80.0071 40.3963 81.7852 40.4053Z" fill="#1A2E35"/>
<path d="M80.6958 45.8094C80.7751 46.1341 80.9184 46.4398 81.1173 46.7084C81.3162 46.977 81.5667 47.2033 81.8541 47.3739C82.6274 47.8252 82.9854 46.9707 82.9673 46.1223C82.9493 45.3581 82.7898 44.4164 81.9203 44.3171C81.0508 44.2178 80.5032 45.0061 80.6958 45.8094Z" fill="#CD7A63"/>
<path d="M85.6872 44.6839C85.6692 44.9577 85.7985 45.1894 85.9881 45.1984C86.1776 45.2074 86.3281 44.9968 86.3461 44.7231C86.3642 44.4493 86.2348 44.2176 86.0453 44.2056C85.8557 44.1935 85.7053 44.4102 85.6872 44.6839Z" fill="#1A2E35"/>
<path d="M88.3743 44.922C88.3532 45.1958 88.4856 45.4245 88.6751 45.4365C88.8647 45.4485 89.0181 45.2319 89.0362 44.9581C89.0542 44.6843 88.9249 44.4527 88.7353 44.4436C88.5458 44.4346 88.3923 44.6452 88.3743 44.922Z" fill="#1A2E35"/>
<path d="M87.5078 44.7089C87.5078 44.7089 88.284 46.132 88.5247 46.7037C88.1185 47.0226 87.4717 46.821 87.4717 46.821L87.5078 44.7089Z" fill="#B94D3C"/>
<path d="M85.1215 43.3451C85.141 43.3568 85.1634 43.3629 85.1861 43.3629C85.2089 43.3629 85.2313 43.3568 85.2508 43.3451C85.3822 43.2505 85.534 43.1882 85.6939 43.1631C85.8539 43.138 86.0174 43.1509 86.1715 43.2007C86.203 43.2137 86.2384 43.2137 86.27 43.2008C86.3015 43.1878 86.3267 43.1629 86.34 43.1315C86.3469 43.1161 86.3507 43.0995 86.3511 43.0826C86.3515 43.0658 86.3486 43.049 86.3424 43.0333C86.3362 43.0176 86.327 43.0033 86.3152 42.9912C86.3034 42.9791 86.2893 42.9696 86.2738 42.963C86.0795 42.8972 85.8724 42.8785 85.6695 42.9083C85.4665 42.9381 85.2736 43.0156 85.1064 43.1345C85.0922 43.1436 85.08 43.1555 85.0704 43.1695C85.0609 43.1834 85.0542 43.1991 85.0509 43.2156C85.0475 43.2322 85.0475 43.2492 85.0508 43.2658C85.0542 43.2824 85.0608 43.2981 85.0703 43.312C85.0841 43.3274 85.1018 43.3388 85.1215 43.3451Z" fill="#1A2E35"/>
<path d="M86.5147 47.6327C86.2986 47.6077 86.0898 47.5391 85.9011 47.431C85.7123 47.3229 85.5474 47.1776 85.4165 47.0039" stroke="#1A2E35" stroke-width="0.294137" stroke-linecap="round" stroke-linejoin="round"/>
<path opacity="0.2" d="M81.3579 45.1123C81.4222 45.0398 81.5065 44.988 81.6002 44.9634C81.6939 44.9387 81.7928 44.9424 81.8844 44.9739C82.0667 45.0429 82.2197 45.1725 82.3177 45.341C82.4446 45.5381 82.5163 45.7656 82.5253 45.9999" stroke="black" stroke-width="0.196091" stroke-linecap="round" stroke-linejoin="round"/>
<path d="M89.6345 43.8448C89.6603 43.8406 89.6843 43.8291 89.7037 43.8117C89.7272 43.7875 89.7404 43.7551 89.7404 43.7214C89.7404 43.6877 89.7272 43.6553 89.7037 43.6311C89.5725 43.476 89.4058 43.3548 89.2178 43.2778C89.0298 43.2008 88.8259 43.1703 88.6236 43.1889C88.5913 43.1954 88.5627 43.2141 88.5437 43.241C88.5247 43.2679 88.5167 43.3011 88.5213 43.3337C88.5259 43.3664 88.5428 43.396 88.5685 43.4166C88.5942 43.4372 88.6269 43.4472 88.6597 43.4446C88.8202 43.4292 88.9819 43.4539 89.1305 43.5164C89.2791 43.5789 89.4099 43.6772 89.5112 43.8026C89.5262 43.8199 89.5455 43.833 89.5671 43.8404C89.5888 43.8478 89.6121 43.8493 89.6345 43.8448Z" fill="#1A2E35"/>
<path d="M81.3159 39.2026C81.5656 38.6189 82.3539 38.5527 82.9316 38.7272C82.9677 37.9901 83.9545 37.6501 84.5563 37.7193C84.8649 37.7237 85.16 37.8465 85.3806 38.0623C85.3325 38.0623 85.6033 37.7163 85.7628 37.5809C86.0522 37.3391 86.4069 37.1889 86.7819 37.1492C87.1569 37.1096 87.5353 37.1823 87.8688 37.3582C88.2024 37.5584 88.4725 37.8488 88.6482 38.1959C88.8239 38.5429 88.8979 38.9326 88.8617 39.3199C88.9666 39.2343 89.0875 39.1705 89.2174 39.132C89.3472 39.0935 89.4834 39.0812 89.618 39.0958C89.7526 39.1103 89.883 39.1515 90.0016 39.2168C90.1202 39.2821 90.2246 39.3703 90.3089 39.4763C90.4662 39.7102 90.5331 39.9933 90.4971 40.2729C90.4612 40.5524 90.3247 40.8093 90.1133 40.9957C90.2311 41.017 90.3434 41.0615 90.4438 41.1266C90.5442 41.1917 90.6307 41.2762 90.6981 41.375C90.7656 41.4738 90.8128 41.5851 90.8368 41.7023C90.8609 41.8195 90.8615 41.9404 90.8384 42.0578C90.7885 42.2889 90.6499 42.4911 90.4524 42.6211C90.2549 42.751 90.0143 42.7983 89.7824 42.7528C89.7071 43.2944 89.5928 43.9563 89.5176 44.5039L88.967 42.4519C88.606 42.2865 88.5488 42.1089 88.5097 41.6968C88.1908 42.1842 87.7635 42.1059 87.2099 42.0367C86.929 41.9945 86.6651 41.8755 86.4475 41.6929C86.2298 41.5102 86.0668 41.2711 85.9764 41.0017C85.8217 41.2591 85.6001 41.4698 85.3352 41.6112C85.0703 41.7527 84.772 41.8197 84.472 41.8051C84.176 41.7649 83.9054 41.6161 83.713 41.3876C83.5206 41.159 83.4201 40.8671 83.431 40.5685C83.2395 40.8083 82.9678 40.9708 82.6659 41.0261C82.364 41.0814 82.0524 41.0257 81.7883 40.8694C81.5325 40.686 81.3465 40.4213 81.2607 40.1186C81.1749 39.8158 81.1943 39.4928 81.3159 39.2026Z" fill="#1A2E35"/>
<path d="M77.2388 51.6678C77.2388 51.6678 74.8469 51.734 73.8842 54.4027C72.9996 56.8608 70.7461 62.2794 70.7461 62.2794L76.1347 63.856L78.2768 57.4384L77.2388 51.6678Z" fill="#FF8C00"/>
<path d="M86.0392 77.263L82.7928 84.1829C82.7928 84.1829 87.9497 99.7047 88.2596 101.332C88.5695 102.96 88.7139 123.332 88.7139 123.332H82.9764L80.7259 103.451C80.7259 103.451 73.7577 86.5628 73.2493 85.1909C72.2925 82.6214 73.2944 79.1735 73.2944 79.1735L75.0695 76.6131L86.0392 77.263Z" fill="#1A2E35"/>
<path d="M89.1896 80.7505C89.1896 81.3823 86.9541 102.879 86.584 102.958C86.214 103.036 70.0032 120.766 70.0032 120.766L65.3999 116.722L77.2992 100.584L78.617 86.0879L79.0774 76.9746L89.4513 77.7418L89.1896 80.7505Z" fill="#1A2E35"/>
<path opacity="0.4" d="M81.3216 108.554L81.0358 103.505L77.7021 96.1191L80.2054 103.927L80.4431 109.273L81.3216 108.554Z" fill="black"/>
<path opacity="0.4" d="M87.3361 98.0442L82.793 84.1922L84.3755 82.748L83.8731 84.7338L87.5316 96.3984L87.3361 98.0442Z" fill="black"/>
<path d="M103.026 58.3983L96.001 64.8459L92.7275 58.7533C92.7275 58.7533 89.1532 62.2795 89.2766 62.3306C89.3999 62.3818 93.4887 71.3266 96.4252 69.72C99.3617 68.1133 104.353 60.0501 104.353 60.0501L103.026 58.3983Z" fill="#CD7A63"/>
<path opacity="0.2" d="M96.0009 64.8468C96.0009 64.8468 95.3992 65.8216 95.4684 66.7423C95.285 66.3771 95.2188 65.9641 95.2788 65.5599C95.3287 65.1186 95.479 64.6946 95.7181 64.3203L96.0009 64.8468Z" fill="black"/>
<path d="M89.5323 53.2694C87.6158 54.2532 86.8455 57.7493 90.9674 66.1766L95.8896 62.3797C95.1014 60.2736 94.3011 59.1815 93.0374 56.6271C91.0366 52.6647 89.5323 53.2694 89.5323 53.2694Z" fill="#FF8C00"/>
<path d="M89.5958 53.1383C88.2419 52.8375 82.8624 51.4294 77.1068 51.6701L74.068 73.104C74.068 73.104 73.4662 75.9141 72.6689 78.7001C78.1508 81.8713 85.7567 82.3858 89.8365 80.6528C89.7823 80.74 89.9117 78.3662 90.0862 74.8851C90.3871 68.7564 90.8504 59.1948 90.709 53.6167C90.703 53.4783 89.7312 53.1684 89.5958 53.1383Z" fill="#FF8C00"/>
<path opacity="0.2" d="M90.5225 65.2426L90.718 58.3105L91.5936 65.6939L90.9677 66.1752L90.5225 65.2426Z" fill="black"/>
<path opacity="0.2" d="M75.8337 63.7685L76.1345 63.8558L78.0962 58.5996L76.6249 64.614L75.623 64.62L75.8337 63.7685Z" fill="black"/>
<path d="M102.349 59.5135C102.349 59.5135 101.811 58.6621 102 57.8527C102.19 57.0434 102.133 56.3484 102.301 55.7466C102.47 55.1449 102.822 55.9242 102.903 56.3694C102.984 56.8147 103.111 57.3172 103.433 57.1908C103.754 57.0645 105.626 54.7478 106.092 54.6244C106.559 54.5011 106.375 54.9704 106.375 54.9704C106.375 54.9704 106.841 54.4198 107.112 54.5462C107.181 54.5793 107.29 54.7688 107.112 55.0547C106.721 55.6925 105.827 56.9922 105.827 56.9922C105.879 56.917 107.094 55.3916 107.305 55.187C107.581 54.9193 107.849 54.9343 108 55.0998C108.213 55.3375 106.769 57.2811 106.766 57.4044C106.766 57.4044 107.56 56.2581 107.97 56.3002C108.379 56.3424 107.918 57.0915 107.389 57.6752C106.902 58.2108 106.086 59.3872 105.539 59.8836C104.862 60.4853 104.272 60.7531 103.49 60.4131C103.039 60.2156 102.646 59.9059 102.349 59.5135Z" fill="#CD7A63"/>
<path opacity="0.3" d="M106.324 55.0352C105.959 55.4865 105.616 55.9528 105.295 56.4342" stroke="black" stroke-width="0.0980456" stroke-linecap="round" stroke-linejoin="round"/>
<path opacity="0.3" d="M106.504 57.8626C106.06 57.2533 105.449 56.7861 104.744 56.5177" stroke="black" stroke-width="0.0980456" stroke-linecap="round" stroke-linejoin="round"/>
<path opacity="0.3" d="M103.556 57.5566C103.764 57.7836 103.886 58.0762 103.902 58.3839C103.917 58.6915 103.825 58.9949 103.64 59.2415" stroke="black" stroke-width="0.0980456" stroke-linecap="round" stroke-linejoin="round"/>
<path d="M71.1526 62.3965C71.1526 62.3965 69.531 66.2356 68.842 69.6805C68.5411 71.248 69.7807 72.2499 71.0624 72.5598C75.094 73.5346 84.1802 73.5376 84.1802 73.5376L84.4179 70.7666L73.9507 68.5011L75.8311 63.7684L71.1526 62.3965Z" fill="#CD7A63"/>
<path d="M84.201 74.1311L87.6309 74.5162C87.6887 74.5231 87.7474 74.5169 87.8026 74.4982C87.8577 74.4794 87.908 74.4486 87.9498 74.4079L93.1698 69.245C93.2189 69.1967 93.2542 69.1362 93.2722 69.0697C93.2901 69.0032 93.2901 68.9331 93.272 68.8667C93.2539 68.8002 93.2185 68.7397 93.1694 68.6915C93.1202 68.6432 93.0591 68.609 92.9923 68.5921L89.9836 67.8129C89.9181 67.7963 89.8495 67.7968 89.7842 67.8141C89.7189 67.8315 89.6592 67.8652 89.6106 67.9122L83.9783 73.4662C83.9254 73.5171 83.8881 73.582 83.8706 73.6533C83.8531 73.7246 83.8562 73.7994 83.8795 73.869C83.9028 73.9386 83.9454 74.0002 84.0023 74.0466C84.0592 74.093 84.1281 74.1223 84.201 74.1311Z" fill="#1A2E35"/>
<path d="M83.8821 70.7829C83.8821 70.7829 83.9784 70.3768 85.4948 69.9164C86.6471 69.5644 87.7934 68.4843 87.98 68.5204C88.1665 68.5565 88.3681 69.1462 87.8897 69.6637C87.4113 70.1812 86.9119 70.4761 87.0382 70.6746C87.3391 71.153 91.097 70.7649 91.1601 71.1741C91.2233 71.5833 90.5103 72.7536 88.5035 73.5389C86.4967 74.3242 83.7407 73.5389 83.7407 73.5389L83.8821 70.7829Z" fill="#CD7A63"/>
<path d="M116.319 45.9745C119.433 40.5424 117.553 33.6149 112.121 30.5014C106.689 27.3879 99.7612 29.2674 96.6477 34.6995C93.5342 40.1316 95.4138 47.0591 100.846 50.1726C106.278 53.2861 113.206 51.4066 116.319 45.9745Z" fill="#FF8C00"/>
<path d="M105.987 44.6458H106.357C106.456 44.6458 106.501 44.6909 106.498 44.7872V45.4882C106.498 45.5875 106.453 45.6296 106.354 45.6296H105.987V46.466C105.987 46.5503 105.957 46.6074 105.867 46.6074H105.039C104.946 46.6074 104.916 46.5533 104.916 46.469C104.916 46.1953 104.916 45.9245 104.916 45.6386H104.777H103.174C103.002 45.6386 102.987 45.6386 102.987 45.4581C102.987 45.2385 102.987 45.0189 102.987 44.8022C102.992 44.7064 103.024 44.6138 103.078 44.5345C103.655 43.7793 104.242 43.0301 104.823 42.2719C104.851 42.2328 104.889 42.2011 104.932 42.1796C104.976 42.1581 105.024 42.1475 105.072 42.1486H105.824C105.966 42.1486 105.993 42.1757 105.993 42.3201V44.6458H105.987ZM104.907 44.6458V43.6078L104.101 44.6458H104.907Z" fill="white"/>
<path d="M100.926 45.597H102.533C102.699 45.597 102.72 45.618 102.72 45.7805C102.72 46.0061 102.72 46.2318 102.72 46.4574C102.72 46.5838 102.69 46.6139 102.569 46.6139H99.8283C99.7531 46.6139 99.6839 46.5958 99.6869 46.5086C99.6797 46.2611 99.6938 46.0135 99.729 45.7684C99.7981 45.451 99.9439 45.1553 100.154 44.9072C100.363 44.6591 100.631 44.4662 100.932 44.3453C101.038 44.2942 101.152 44.2611 101.257 44.21C101.355 44.1649 101.448 44.1094 101.534 44.0445C101.615 43.977 101.672 43.8858 101.697 43.7839C101.722 43.6821 101.715 43.5748 101.675 43.4775C101.636 43.3802 101.567 43.298 101.477 43.2425C101.388 43.1871 101.284 43.1613 101.179 43.1689C101.076 43.1711 100.976 43.2066 100.895 43.27C100.814 43.3335 100.755 43.4215 100.728 43.521C100.725 43.5412 100.718 43.5607 100.707 43.5782C100.697 43.5958 100.683 43.611 100.666 43.6231C100.65 43.6351 100.631 43.6437 100.611 43.6484C100.591 43.6531 100.571 43.6538 100.55 43.6503C100.319 43.6503 100.084 43.6503 99.8524 43.6503C99.7109 43.6503 99.6839 43.6172 99.6989 43.4728C99.7619 43.0738 99.9809 42.7163 100.308 42.4787C100.634 42.2412 101.042 42.1431 101.441 42.2062C101.84 42.2692 102.197 42.4882 102.435 42.8149C102.673 43.1415 102.771 43.5492 102.708 43.9482C102.633 44.3123 102.423 44.6346 102.121 44.8508C101.937 44.9862 101.73 45.0885 101.519 45.2088L100.981 45.5338C100.966 45.5488 100.957 45.5488 100.926 45.597Z" fill="white"/>
<path d="M111.703 42.1465H113.144C113.283 42.1465 113.304 42.1766 113.268 42.309C112.899 43.6929 112.528 45.0769 112.155 46.4609C112.121 46.5873 112.085 46.6144 111.95 46.6144H110.746C110.614 46.6144 110.596 46.5903 110.641 46.4609C110.984 45.4801 111.328 44.5003 111.673 43.5214C111.73 43.362 111.718 43.3409 111.547 43.3409H110.256C110.109 43.3409 110.082 43.3139 110.082 43.1664V42.3059C110.082 42.1796 110.115 42.1495 110.241 42.1465H111.703Z" fill="white"/>
<path d="M109.191 40.8403H109.492C109.633 40.8403 109.667 40.8854 109.63 41.0208L109.08 43.0517C108.663 44.6022 108.243 46.1536 107.822 47.7061C107.771 47.8896 107.729 47.9227 107.521 47.9227H106.974C106.811 47.9227 106.781 47.8836 106.823 47.7272C107.371 45.6993 107.919 43.6715 108.469 41.6436C108.526 41.436 108.58 41.2284 108.638 41.0208C108.641 40.9932 108.65 40.9665 108.664 40.9423C108.677 40.9181 108.696 40.897 108.718 40.8802C108.74 40.8633 108.766 40.8511 108.793 40.8443C108.82 40.8374 108.848 40.8361 108.875 40.8403H109.176H109.191Z" fill="white"/>
<path d="M106.483 32.7556C108.014 32.7565 109.487 33.3407 110.602 34.3894L110.647 34.4345C110.665 34.4519 110.679 34.4727 110.689 34.4957C110.699 34.5187 110.704 34.5434 110.704 34.5684C110.704 34.5934 110.699 34.6181 110.689 34.6411C110.679 34.6641 110.665 34.6849 110.647 34.7023C110.612 34.7366 110.565 34.7559 110.516 34.7559C110.467 34.7559 110.42 34.7366 110.386 34.7023C110.253 34.5849 110.127 34.4646 109.988 34.3563C109.256 33.772 108.39 33.3798 107.468 33.2152C106.546 33.0507 105.598 33.119 104.709 33.414C103.82 33.709 103.019 34.2213 102.378 34.9044C101.738 35.5876 101.278 36.4199 101.041 37.3258C100.747 38.417 100.794 39.5719 101.176 40.6354V40.6655C101.23 40.8159 101.2 40.9152 101.089 40.9663C100.977 41.0175 100.89 40.9513 100.836 40.8039C100.65 40.2992 100.537 39.7702 100.502 39.2333C100.439 38.4083 100.546 37.5791 100.818 36.7975C101.09 36.0159 101.519 35.2988 102.081 34.6908C102.642 34.0829 103.323 33.5973 104.08 33.2643C104.838 32.9314 105.656 32.7582 106.483 32.7556Z" fill="white"/>
<path d="M107.533 38.0803L107.154 37.6952L107.211 37.632C107.94 36.9059 108.667 36.1788 109.393 35.4507C109.423 35.4128 109.461 35.3826 109.505 35.3627C109.549 35.3428 109.597 35.3338 109.645 35.3364C109.693 35.3402 109.739 35.3564 109.779 35.3836C109.818 35.4107 109.85 35.4478 109.871 35.4911C109.892 35.5343 109.901 35.5823 109.897 35.6301C109.893 35.678 109.877 35.724 109.85 35.7636C109.833 35.786 109.813 35.8071 109.793 35.8268L107.582 38.0261L107.533 38.0803Z" fill="white"/>
<path d="M107.154 38.7461C107.155 38.8792 107.116 39.0094 107.042 39.1203C106.969 39.2311 106.864 39.3176 106.741 39.3686C106.618 39.4197 106.483 39.4331 106.352 39.407C106.222 39.381 106.102 39.3167 106.008 39.2224C105.914 39.1281 105.85 39.008 105.825 38.8774C105.799 38.7467 105.813 38.6115 105.865 38.4888C105.917 38.3662 106.004 38.2616 106.115 38.1885C106.226 38.1154 106.356 38.077 106.489 38.0782C106.577 38.0773 106.664 38.0941 106.746 38.1274C106.827 38.1607 106.901 38.2099 106.963 38.2722C107.024 38.3344 107.073 38.4084 107.106 38.4898C107.139 38.5711 107.156 38.6583 107.154 38.7461Z" fill="white"/>
<path d="M105.433 38.0813L104.807 37.4555L104.124 36.7726C104.097 36.748 104.074 36.7181 104.058 36.6845C104.042 36.6509 104.033 36.6144 104.031 36.5773C104.03 36.5401 104.036 36.5031 104.05 36.4684C104.063 36.4336 104.083 36.402 104.109 36.3754C104.135 36.3488 104.166 36.3278 104.201 36.3136C104.235 36.2995 104.272 36.2924 104.309 36.293C104.346 36.2936 104.383 36.3017 104.417 36.3169C104.451 36.3321 104.481 36.3541 104.507 36.3814C104.934 36.8057 105.361 37.2359 105.788 37.6631L105.818 37.6992L105.433 38.0813Z" fill="white"/>
<path d="M111.411 35.5112L111.664 35.3638C111.733 35.3277 111.775 35.3457 111.775 35.43C111.775 35.7639 111.775 36.1009 111.775 36.4379C111.775 36.5251 111.736 36.5462 111.658 36.5041C111.357 36.3416 111.077 36.1761 110.788 36.0106C110.704 35.9625 110.707 35.9234 110.788 35.8722L111.029 35.7278L110.764 35.2735C110.728 35.2133 110.668 35.1381 110.737 35.084C110.822 35.0219 110.917 34.9751 111.017 34.9456C111.038 34.9456 111.089 34.9937 111.113 35.0298C111.222 35.1832 111.312 35.3427 111.411 35.5112Z" fill="white"/>
<path d="M102.434 39.0202H102.166C102.093 39.0202 102.024 38.9914 101.972 38.94C101.921 38.8887 101.892 38.8191 101.892 38.7464C101.892 38.6738 101.921 38.6042 101.972 38.5528C102.024 38.5015 102.093 38.4727 102.166 38.4727H102.701C102.774 38.4727 102.844 38.5015 102.895 38.5528C102.946 38.6042 102.975 38.6738 102.975 38.7464C102.975 38.8191 102.946 38.8887 102.895 38.94C102.844 38.9914 102.774 39.0202 102.701 39.0202H102.434Z" fill="white"/>
<path d="M110.542 38.4728H110.819C110.892 38.4728 110.961 38.5017 111.013 38.553C111.064 38.6043 111.093 38.674 111.093 38.7466C111.093 38.8192 111.064 38.8888 111.013 38.9402C110.961 38.9915 110.892 39.0204 110.819 39.0204C110.628 39.0204 110.439 39.0204 110.25 39.0204C110.214 39.0208 110.179 39.014 110.145 39.0004C110.112 38.9868 110.081 38.9666 110.056 38.9411C110.03 38.9156 110.01 38.8852 109.997 38.8518C109.983 38.8184 109.976 38.7827 109.977 38.7466C109.977 38.7099 109.984 38.6735 109.998 38.6397C110.013 38.6059 110.034 38.5753 110.06 38.5497C110.086 38.5242 110.118 38.5042 110.152 38.491C110.186 38.4778 110.223 38.4716 110.259 38.4728H110.542Z" fill="white"/>
<path d="M106.76 34.6983C106.76 34.7916 106.76 34.8848 106.76 34.9781C106.759 35.0505 106.73 35.1196 106.679 35.1708C106.628 35.222 106.559 35.2511 106.486 35.2519C106.45 35.2523 106.415 35.2456 106.382 35.2321C106.348 35.2187 106.318 35.1988 106.293 35.1736C106.267 35.1485 106.247 35.1185 106.233 35.0854C106.22 35.0524 106.212 35.0169 106.212 34.9811C106.212 34.7926 106.212 34.603 106.212 34.4125C106.212 34.3398 106.241 34.2702 106.293 34.2189C106.344 34.1675 106.414 34.1387 106.486 34.1387C106.559 34.1387 106.628 34.1675 106.68 34.2189C106.731 34.2702 106.76 34.3398 106.76 34.4125C106.763 34.5057 106.76 34.602 106.76 34.6983Z" fill="white"/>
<path d="M97.274 30.2343C95.7829 31.3282 94.5847 32.7732 93.7859 34.4411C92.9871 36.109 92.6123 37.9483 92.6948 39.7958" stroke="#FF8C00" stroke-width="0.196091" stroke-linecap="round" stroke-linejoin="round"/>
<path d="M92.8481 41.4805C92.8332 42.044 92.9356 42.6044 93.149 43.1262" stroke="#FF8C00" stroke-width="0.196091" stroke-linecap="round" stroke-linejoin="round"/>
</g>
<ellipse cx="90.5028" cy="90" rx="90.5028" ry="90" fill="#FF8C00" fill-opacity="0.05"/>
<defs>
<clipPath id="clip0_1101_20533">
<rect width="140" height="101.137" fill="white" transform="translate(13.5 29)"/>
</clipPath>
</defs>
</svg>
