<svg width="141" height="102" viewBox="0 0 141 102" fill="none" xmlns="http://www.w3.org/2000/svg">
<g clip-path="url(#clip0_793_31496)">
<path d="M134.979 89.1532L5.47949 92.189V70.0391H136.225L134.979 89.1532Z" fill="#1A2E35"/>
<path opacity="0.5" d="M134.979 89.1532L5.47949 92.189V70.0391H136.225L134.979 89.1532Z" fill="black"/>
<path d="M0.51521 75.7236V86.952C0.515085 88.1241 0.890406 89.2654 1.58616 90.2086C2.28192 91.1518 3.26152 91.8473 4.38137 92.1932L5.28397 92.47C5.84784 92.644 6.43602 92.7263 7.026 92.7137L13.0734 92.5723C12.4312 90.3221 12.313 87.9546 12.7278 85.6516C13.1427 83.3486 14.0796 81.1713 15.4667 79.2866C16.8538 77.4019 18.6541 75.8601 20.7297 74.7793C22.8052 73.6985 25.1007 73.1076 27.4401 73.0518C29.7795 72.996 32.1006 73.4768 34.2253 74.4574C36.35 75.4381 38.2218 76.8923 39.6972 78.7087C41.1725 80.5251 42.2121 82.6554 42.7363 84.936C43.2605 87.2166 43.2552 89.587 42.721 91.8652L104.261 90.403C103.969 88.318 104.111 86.1954 104.677 84.1676C105.242 82.1398 106.22 80.2503 107.548 78.6169C108.876 76.9836 110.526 75.6414 112.396 74.6741C114.266 73.7068 116.315 73.1352 118.416 72.995C120.516 72.8547 122.623 73.1487 124.605 73.8588C126.587 74.5688 128.401 75.6796 129.934 77.1218C131.468 78.5641 132.688 80.3069 133.518 82.2415C134.348 84.1761 134.771 86.261 134.76 88.3661C134.76 88.667 134.736 88.9679 134.736 89.2537C134.817 89.2206 134.901 89.1875 134.982 89.1484L137.088 88.2097C138.105 87.7503 138.967 87.0076 139.572 86.0706C140.178 85.1335 140.5 84.0419 140.5 82.9264V60.0604C140.498 59.0069 140.209 57.974 139.663 57.0727C139.118 56.1714 138.337 55.436 137.404 54.9457L121.588 46.6267C121.406 46.5316 121.266 46.3716 121.196 46.1784C121.121 45.9709 121.13 45.7418 121.222 45.5411C121.315 45.3404 121.483 45.1845 121.69 45.1073L123.627 44.4123C123.724 44.3795 123.807 44.3148 123.863 44.2287C123.918 44.1426 123.942 44.0403 123.932 43.9385C123.921 43.8367 123.877 43.7415 123.805 43.6685C123.733 43.5955 123.639 43.5491 123.537 43.5368C116.016 42.4897 86.7892 38.6687 71.4238 40.5461C53.6937 42.6973 36.7067 58.0687 36.7067 58.0687C23.664 57.5783 11.4879 62.1184 6.24374 64.3869C5.40652 64.7526 4.65514 65.2896 4.03798 65.9632C3.42082 66.6368 2.95156 67.4322 2.6604 68.2982L0.855193 73.6115C0.626669 74.2921 0.511803 75.0057 0.51521 75.7236Z" fill="#FF8C00"/>
<path d="M104.276 90.4096C104.185 89.7345 104.141 89.0539 104.143 88.3727C104.143 88.0267 104.143 87.6838 104.173 87.3408L93.0413 82.7886C92.3892 82.5239 91.6858 82.4098 90.9834 82.4547L52.2767 84.994C51.6471 85.035 51.0326 85.205 50.4715 85.4934L43.1153 89.2753C43.0636 90.1497 42.9388 91.0183 42.7422 91.8718L104.276 90.4096Z" fill="#1A2E35"/>
<path d="M140.497 82.9331V82.3494L134.203 84.275C134.57 85.61 134.756 86.9882 134.757 88.3728C134.757 88.6737 134.733 88.9745 134.733 89.2604C134.814 89.2273 134.898 89.1942 134.979 89.1551L137.085 88.2164C138.102 87.7573 138.965 87.0147 139.57 86.0776C140.175 85.1404 140.497 84.0486 140.497 82.9331Z" fill="#1A2E35"/>
<path d="M2.28467 90.9901C2.88838 91.543 3.6079 91.9541 4.39075 92.1936L5.29335 92.4704C5.85721 92.6444 6.4454 92.7267 7.03538 92.7141L13.0828 92.5726C12.864 91.8081 12.7061 91.0274 12.6105 90.2379L2.28467 90.9901Z" fill="#1A2E35"/>
<path d="M119.475 71.6072C117.099 71.6069 114.75 72.1118 112.584 73.0886C110.418 74.0654 108.484 75.4917 106.911 77.2729C105.338 79.054 104.162 81.1493 103.461 83.4197C102.76 85.6901 102.549 88.0837 102.843 90.4416L104.294 90.4055C104.003 88.3205 104.144 86.1979 104.71 84.1701C105.275 82.1423 106.253 80.2528 107.581 78.6194C108.909 76.986 110.559 75.6439 112.429 74.6766C114.299 73.7093 116.348 73.1377 118.449 72.9974C120.549 72.8572 122.656 73.1512 124.638 73.8612C126.62 74.5713 128.434 75.6821 129.967 77.1243C131.501 78.5666 132.721 80.3093 133.551 82.2439C134.381 84.1785 134.804 86.2634 134.793 88.3686C134.793 88.6695 134.769 88.9703 134.769 89.2562C134.85 89.2231 134.934 89.19 135.015 89.1509L136.219 88.6033V88.3686C136.213 83.9254 134.446 79.6658 131.304 76.5237C128.163 73.3817 123.904 71.6136 119.46 71.6072H119.475Z" fill="#1A2E35"/>
<path d="M27.8251 71.6072C25.2625 71.6064 22.7339 72.1931 20.4335 73.3223C18.1332 74.4515 16.1224 76.0931 14.5557 78.1209C12.9889 80.1488 11.9081 82.5088 11.3961 85.0197C10.8841 87.5306 10.9546 90.1255 11.6023 92.6048L13.0916 92.5747C12.4493 90.3245 12.3311 87.9571 12.746 85.6541C13.1608 83.3511 14.0977 81.1737 15.4848 79.2891C16.8719 77.4044 18.6722 75.8626 20.7478 74.7818C22.8233 73.701 25.1188 73.1101 27.4582 73.0543C29.7976 72.9985 32.1187 73.4793 34.2434 74.4599C36.3681 75.4405 38.24 76.8948 39.7153 78.7112C41.1906 80.5276 42.2303 82.6578 42.7544 84.9385C43.2786 87.2191 43.2733 89.5894 42.7391 91.8677L44.2224 91.8316C44.7396 89.3904 44.7049 86.8646 44.1208 84.4385C43.5367 82.0125 42.4181 79.7476 40.8465 77.8092C39.275 75.8709 37.2903 74.3082 35.0374 73.2351C32.7846 72.1621 30.3204 71.6059 27.8251 71.6072Z" fill="#1A2E35"/>
<path d="M42.4082 58.7238C42.2249 58.885 42.0992 59.1015 42.0501 59.3405C41.9801 59.6073 42.0131 59.8906 42.1424 60.1343C42.2717 60.3778 42.488 60.5639 42.7481 60.6553L49.1446 62.4605C49.7086 62.6205 50.2992 62.6645 50.8806 62.5899L98.3125 56.714C99.5019 56.5492 100.587 55.9475 101.357 55.0261L107.579 47.7752C107.792 47.526 107.922 47.2169 107.952 46.8906C108.037 46.0662 107.519 45.3231 106.797 45.2298C95.4392 43.7255 81.0788 42.3535 72.0106 43.4607C60.1263 44.8989 48.1608 53.8346 42.4082 58.7238Z" fill="#FF8C00"/>
<path opacity="0.8" d="M42.6368 58.7238C42.4899 58.8542 42.3787 59.02 42.314 59.2055C42.2492 59.391 42.2329 59.59 42.2667 59.7835C42.3004 59.9771 42.3831 60.1587 42.5069 60.3113C42.6306 60.4639 42.7913 60.5823 42.9738 60.6553L49.3702 62.4605C49.9342 62.6205 50.5248 62.6645 51.1062 62.5899L97.476 59.4127C98.6314 59.2653 100.416 57.1442 101.688 55.4232L107.817 47.7752C108.03 47.526 108.16 47.2169 108.19 46.8906C108.274 46.0662 107.757 45.3231 107.035 45.2298C95.6768 43.7255 81.3164 42.3535 72.2482 43.4607C60.3399 44.8989 48.3743 53.8346 42.6368 58.7238Z" fill="white"/>
<g opacity="0.3">
<path d="M73.608 63.2445C73.4646 63.1883 73.3482 63.0794 73.2827 62.94C73.2172 62.8007 73.2077 62.6415 73.256 62.4953C73.3225 62.3116 73.4421 62.1517 73.5996 62.036C73.757 61.9203 73.9453 61.854 74.1405 61.8454L79.7848 61.6077C79.8604 61.6047 79.936 61.6159 80.0075 61.6408C80.1533 61.6958 80.2722 61.8053 80.339 61.9461C80.4058 62.087 80.4153 62.2483 80.3655 62.396C80.2986 62.5799 80.1785 62.7396 80.0204 62.8548C79.8623 62.97 79.6734 63.0355 79.4779 63.0429L73.8336 63.2775C73.757 63.2803 73.6806 63.2691 73.608 63.2445Z" fill="black"/>
</g>
<path d="M115.588 47.0685C115.469 47.1737 115.371 47.3015 115.301 47.4446C115.232 47.5878 115.191 47.7433 115.182 47.9022C115.172 48.0612 115.195 48.2204 115.248 48.3706C115.3 48.5209 115.382 48.6591 115.489 48.7774L116.828 50.2336C116.981 50.3962 117.176 50.5146 117.39 50.5766L133.8 55.1227C134.085 55.2008 134.379 55.2403 134.675 55.2401H137.922C137.753 55.1288 137.579 55.0235 137.398 54.9392L121.581 46.6112C121.39 46.5162 121.244 46.349 121.176 46.1465C121.108 45.944 121.123 45.7226 121.217 45.5311L116.079 46.8188C115.898 46.863 115.73 46.9485 115.588 47.0685Z" fill="#FF8C00"/>
<path d="M13.4768 66.5508L7.88062 65.949L4.66734 67.2638C4.33358 67.3993 4.03648 67.6115 3.80019 67.8834C3.56389 68.1552 3.39506 68.479 3.30742 68.8283C3.20262 69.2357 3.26204 69.6679 3.47289 70.0318L3.52705 70.1281C3.70363 70.43 3.96544 70.673 4.27965 70.8266C4.59385 70.9803 4.94645 71.0377 5.29315 70.9916L8.51846 70.5463C8.83356 70.5011 9.13242 70.3781 9.38796 70.1883L13.1067 67.3661L13.4768 66.5508Z" fill="white"/>
<path d="M36.7188 58.0686L37.6214 58.3213C37.9624 58.4192 38.3223 58.4314 38.6692 58.3568C39.0161 58.2823 39.3393 58.1234 39.6101 57.8941C44.7941 53.5074 53.8111 46.78 63.5381 43.642C63.572 43.6315 63.6021 43.6112 63.6246 43.5837C63.6471 43.5563 63.6609 43.5228 63.6644 43.4875C63.668 43.4521 63.661 43.4166 63.6444 43.3852C63.6279 43.3538 63.6024 43.328 63.5712 43.311L62.3678 42.6912C48.3142 47.5593 36.7188 58.0686 36.7188 58.0686Z" fill="#FF8C00"/>
<path opacity="0.8" d="M36.7188 58.0686L37.6214 58.3213C37.9624 58.4192 38.3223 58.4314 38.6692 58.3568C39.0161 58.2823 39.3393 58.1234 39.6101 57.8941C44.7941 53.5074 53.8111 46.78 63.5381 43.642C63.572 43.6315 63.6021 43.6112 63.6246 43.5837C63.6471 43.5563 63.6609 43.5228 63.6644 43.4875C63.668 43.4521 63.661 43.4166 63.6444 43.3852C63.6279 43.3538 63.6024 43.328 63.5712 43.311L62.3678 42.6912C48.3142 47.5593 36.7188 58.0686 36.7188 58.0686Z" fill="white"/>
<path opacity="0.2" d="M89.8943 63.9958L42.7393 67.3655L43.6419 73.1813C43.9136 74.9629 44.5741 76.6629 45.5765 78.1607L49.5178 84.0517L89.762 78.612L108.789 63.9958H89.8943Z" fill="white"/>
<path d="M119.461 101.135C126.511 101.135 132.227 95.4195 132.227 88.3692C132.227 81.3188 126.511 75.6033 119.461 75.6033C112.41 75.6033 106.695 81.3188 106.695 88.3692C106.695 95.4195 112.41 101.135 119.461 101.135Z" fill="#1A2E35"/>
<path opacity="0.4" d="M119.46 96.1939C123.782 96.1939 127.286 92.6903 127.286 88.3684C127.286 84.0464 123.782 80.5428 119.46 80.5428C115.138 80.5428 111.635 84.0464 111.635 88.3684C111.635 92.6903 115.138 96.1939 119.46 96.1939Z" fill="white"/>
<g opacity="0.3">
<path d="M119.463 81.3321H119.46C119.115 81.3321 118.834 81.6122 118.834 81.9579V85.9684C118.834 86.3141 119.115 86.5942 119.46 86.5942H119.463C119.809 86.5942 120.089 86.3141 120.089 85.9684V81.9579C120.089 81.6122 119.809 81.3321 119.463 81.3321Z" fill="white"/>
</g>
<g opacity="0.3">
<path d="M119.463 90.1501H119.46C119.115 90.1501 118.834 90.4303 118.834 90.7759V94.7865C118.834 95.1322 119.115 95.4123 119.46 95.4123H119.463C119.809 95.4123 120.089 95.1322 120.089 94.7865V90.7759C120.089 90.4303 119.809 90.1501 119.463 90.1501Z" fill="white"/>
</g>
<g opacity="0.3">
<path d="M121.852 87.7131C121.781 87.754 121.703 87.7804 121.621 87.7909C121.54 87.8013 121.458 87.7956 121.378 87.7741C121.299 87.7526 121.225 87.7157 121.16 87.6654C121.096 87.6152 121.041 87.5527 121.001 87.4815C120.96 87.4104 120.934 87.3319 120.923 87.2506C120.913 87.1693 120.918 87.0867 120.94 87.0076C120.961 86.9285 120.998 86.8544 121.048 86.7896C121.099 86.7248 121.161 86.6706 121.232 86.63L124.704 84.6142C124.776 84.5727 124.854 84.5457 124.936 84.5347C125.018 84.5237 125.101 84.529 125.181 84.5502C125.26 84.5715 125.335 84.6083 125.401 84.6585C125.466 84.7087 125.521 84.7714 125.562 84.8428C125.644 84.9867 125.666 85.1571 125.623 85.3171C125.58 85.4771 125.476 85.6137 125.333 85.6973L121.861 87.7131H121.852Z" fill="white"/>
</g>
<g opacity="0.3">
<path d="M114.216 92.106C114.072 92.1881 113.902 92.2101 113.742 92.1673C113.582 92.1245 113.445 92.0203 113.362 91.8773C113.321 91.806 113.294 91.7274 113.284 91.6458C113.273 91.5643 113.279 91.4815 113.301 91.4021C113.322 91.3228 113.359 91.2484 113.409 91.1833C113.46 91.1183 113.522 91.0637 113.594 91.0229L117.066 89.0071C117.209 88.9247 117.379 88.9022 117.539 88.9445C117.699 88.9867 117.836 89.0903 117.92 89.2327C118.003 89.3769 118.027 89.5482 117.984 89.7094C117.942 89.8705 117.838 90.0085 117.694 90.0932L114.216 92.109V92.106Z" fill="white"/>
</g>
<g opacity="0.3">
<path d="M124.701 92.1201L121.229 90.1043C121.158 90.0632 121.095 90.0083 121.045 89.9429C120.995 89.8775 120.958 89.8028 120.937 89.7231C120.915 89.6434 120.91 89.5603 120.921 89.4786C120.932 89.3969 120.959 89.3181 121.001 89.2469C121.042 89.1756 121.097 89.1133 121.163 89.0633C121.228 89.0134 121.303 88.9769 121.382 88.956C121.462 88.935 121.545 88.93 121.627 88.9412C121.708 88.9524 121.787 88.9796 121.858 89.0212L125.33 91.037C125.473 91.1206 125.577 91.2573 125.62 91.4172C125.663 91.5772 125.641 91.7476 125.559 91.8915C125.518 91.963 125.463 92.0256 125.397 92.0758C125.332 92.126 125.257 92.1628 125.178 92.1841C125.098 92.2053 125.015 92.2106 124.933 92.1997C124.851 92.1887 124.773 92.1617 124.701 92.1201Z" fill="white"/>
</g>
<g opacity="0.3">
<path d="M117.917 87.4821C117.877 87.5534 117.822 87.6159 117.757 87.6661C117.692 87.7162 117.618 87.753 117.539 87.7743C117.46 87.7955 117.377 87.8009 117.296 87.79C117.215 87.7791 117.136 87.7522 117.066 87.7108L113.594 85.695C113.451 85.6114 113.346 85.4747 113.304 85.3147C113.261 85.1547 113.283 84.9843 113.365 84.8405C113.405 84.7692 113.46 84.7067 113.525 84.6566C113.59 84.6064 113.664 84.5696 113.743 84.5484C113.822 84.5271 113.905 84.5218 113.986 84.5327C114.067 84.5436 114.146 84.5705 114.216 84.6118L117.694 86.6277C117.837 86.7118 117.94 86.8486 117.983 87.0086C118.025 87.1685 118.002 87.3387 117.92 87.4821H117.917Z" fill="white"/>
</g>
<path d="M118.41 88.3702C118.41 88.0917 118.521 87.8246 118.718 87.6277C118.915 87.4308 119.182 87.3201 119.46 87.3201C119.669 87.3201 119.872 87.3819 120.045 87.4976C120.218 87.6133 120.353 87.7778 120.433 87.9702C120.513 88.1626 120.534 88.3743 120.493 88.5786C120.452 88.7829 120.352 88.9705 120.205 89.1178C120.058 89.2651 119.87 89.3653 119.666 89.406C119.461 89.4466 119.25 89.4258 119.057 89.3461C118.865 89.2663 118.7 89.1314 118.585 88.9582C118.469 88.785 118.407 88.5814 118.407 88.3732L118.41 88.3702Z" fill="#1A2E35"/>
<path d="M27.8249 101.139C34.8753 101.139 40.5908 95.4235 40.5908 88.3731C40.5908 81.3227 34.8753 75.6072 27.8249 75.6072C20.7745 75.6072 15.0591 81.3227 15.0591 88.3731C15.0591 95.4235 20.7745 101.139 27.8249 101.139Z" fill="#1A2E35"/>
<path opacity="0.4" d="M27.8251 96.1979C32.147 96.1979 35.6507 92.6943 35.6507 88.3723C35.6507 84.0504 32.147 80.5468 27.8251 80.5468C23.5031 80.5468 19.9995 84.0504 19.9995 88.3723C19.9995 92.6943 23.5031 96.1979 27.8251 96.1979Z" fill="white"/>
<g opacity="0.3">
<path d="M27.8251 81.3321H27.8221C27.4765 81.3321 27.1963 81.6122 27.1963 81.9579V85.9684C27.1963 86.3141 27.4765 86.5942 27.8221 86.5942H27.8251C28.1707 86.5942 28.4509 86.3141 28.4509 85.9684V81.9579C28.4509 81.6122 28.1707 81.3321 27.8251 81.3321Z" fill="white"/>
</g>
<g opacity="0.3">
<path d="M27.8251 90.1501H27.8221C27.4765 90.1501 27.1963 90.4303 27.1963 90.7759V94.7865C27.1963 95.1322 27.4765 95.4123 27.8221 95.4123H27.8251C28.1707 95.4123 28.4509 95.1322 28.4509 94.7865V90.7759C28.4509 90.4303 28.1707 90.1501 27.8251 90.1501Z" fill="white"/>
</g>
<g opacity="0.3">
<path d="M30.2109 87.7154C30.14 87.7556 30.0618 87.7814 29.9809 87.7913C29.9001 87.8013 29.818 87.7952 29.7395 87.7734C29.6609 87.7516 29.5875 87.7145 29.5233 87.6643C29.4591 87.6141 29.4055 87.5517 29.3654 87.4807C29.3239 87.4099 29.2967 87.3315 29.2856 87.2501C29.2744 87.1687 29.2795 87.0859 29.3004 87.0065C29.3214 86.9271 29.3579 86.8526 29.4078 86.7873C29.4576 86.7221 29.5199 86.6673 29.5911 86.6262L33.0661 84.6104C33.2098 84.5316 33.3786 84.5121 33.5365 84.5559C33.6944 84.5998 33.829 84.7035 33.9115 84.8451C33.9525 84.916 33.9791 84.9943 33.9898 85.0755C34.0005 85.1567 33.995 85.2392 33.9738 85.3182C33.9526 85.3973 33.9159 85.4715 33.866 85.5364C33.8161 85.6013 33.7539 85.6557 33.6829 85.6965L30.2109 87.7124V87.7154Z" fill="white"/>
</g>
<g opacity="0.3">
<path d="M21.7233 91.8767C21.6412 91.7329 21.6192 91.5625 21.662 91.4025C21.7048 91.2425 21.809 91.1059 21.952 91.0223L25.424 89.0064C25.5682 88.923 25.7395 88.8999 25.9007 88.9422C26.0618 88.9844 26.1998 89.0886 26.2845 89.2321C26.3674 89.377 26.3896 89.5489 26.3462 89.7101C26.3028 89.8714 26.1973 90.0089 26.0528 90.0926L22.5838 92.1084C22.4389 92.1913 22.267 92.2135 22.1058 92.1701C21.9445 92.1267 21.807 92.0212 21.7233 91.8767Z" fill="white"/>
</g>
<g opacity="0.3">
<path d="M33.9115 91.8932C33.8707 91.9646 33.8161 92.0272 33.7509 92.0774C33.6858 92.1276 33.6113 92.1644 33.5319 92.1856C33.4525 92.2069 33.3696 92.2122 33.2881 92.2012C33.2066 92.1903 33.1281 92.1633 33.057 92.1219L29.582 90.1061C29.5108 90.0647 29.4484 90.0097 29.3985 89.9441C29.3486 89.8786 29.3121 89.8039 29.2911 89.7242C29.2701 89.6445 29.2651 89.5615 29.2763 89.4799C29.2875 89.3983 29.3147 89.3197 29.3563 89.2486C29.3974 89.1775 29.4522 89.1152 29.5174 89.0653C29.5827 89.0154 29.6572 88.9789 29.7366 88.958C29.816 88.937 29.8988 88.9319 29.9802 88.9431C30.0616 88.9542 30.14 88.9814 30.2108 89.023L33.6828 91.0388C33.8258 91.1224 33.93 91.259 33.9728 91.419C34.0156 91.579 33.9936 91.7494 33.9115 91.8932Z" fill="white"/>
</g>
<g opacity="0.3">
<path d="M26.2815 87.4887C26.1968 87.6315 26.0592 87.735 25.8986 87.7767C25.738 87.8184 25.5674 87.7949 25.424 87.7114L21.952 85.6956C21.809 85.612 21.7048 85.4753 21.662 85.3153C21.6192 85.1554 21.6412 84.9849 21.7233 84.8411C21.7647 84.7695 21.8199 84.7068 21.8855 84.6566C21.9512 84.6063 22.0262 84.5695 22.1061 84.5483C22.186 84.527 22.2694 84.5217 22.3513 84.5328C22.4333 84.5438 22.5123 84.5709 22.5838 84.6124L26.0528 86.6283C26.1958 86.7119 26.3 86.8485 26.3428 87.0085C26.3856 87.1685 26.3636 87.3389 26.2815 87.4827V87.4887Z" fill="white"/>
</g>
<path d="M27.825 87.3201C28.0333 87.3201 28.2369 87.3819 28.4101 87.4976C28.5832 87.6133 28.7182 87.7778 28.7979 87.9702C28.8776 88.1626 28.8985 88.3743 28.8578 88.5786C28.8172 88.7829 28.7169 88.9705 28.5696 89.1178C28.4224 89.2651 28.2347 89.3653 28.0305 89.406C27.8262 89.4466 27.6145 89.4258 27.422 89.3461C27.2296 89.2663 27.0652 89.1314 26.9494 88.9582C26.8337 88.785 26.772 88.5814 26.772 88.3732C26.772 88.0939 26.8829 87.826 27.0804 87.6286C27.2779 87.4311 27.5457 87.3201 27.825 87.3201Z" fill="#1A2E35"/>
<path opacity="0.3" d="M139.158 64.2908C139.26 64.2593 139.354 64.2081 139.435 64.1402C139.516 64.0723 139.584 63.989 139.633 63.8951C139.682 63.8012 139.712 63.6986 139.722 63.593C139.731 63.4874 139.72 63.381 139.688 63.2799C139.54 60.5931 138.969 58.1982 137.323 56.5555C137.269 56.3795 137.157 56.2271 137.005 56.1237C136.853 56.0203 136.67 55.972 136.487 55.9868L126.76 56.9045C126.612 56.9212 126.472 56.9782 126.354 57.0693C126.237 57.1604 126.147 57.2821 126.094 57.421C126.041 57.5599 126.027 57.7107 126.055 57.8568C126.082 58.0029 126.149 58.1388 126.248 58.2494L129.034 61.258C129.13 61.3614 129.252 61.4381 129.386 61.4807L138.713 64.3028C138.86 64.3402 139.014 64.3361 139.158 64.2908Z" fill="black"/>
<path d="M42.0501 59.3345C41.9801 59.6013 42.0131 59.8846 42.1424 60.1282C42.2717 60.3718 42.488 60.5579 42.7481 60.6493L49.1446 62.4545C49.7217 62.6318 50.3195 62.7329 50.9227 62.7554L52.9355 62.623L51.0371 52.3514C46.6504 55.2337 46.3495 55.3601 42.4112 58.7178C42.2267 58.8784 42.0998 59.095 42.0501 59.3345Z" fill="#1A2E35"/>
<path d="M83.7232 43.119L79.7036 60.6445L84.9598 60.2654L87.3667 43.2844C86.1312 43.2122 84.9167 43.1571 83.7232 43.119Z" fill="#1A2E35"/>
<path d="M100.403 56.9881L107.787 47.7635C108.004 47.5096 108.137 47.194 108.166 46.8609C108.25 46.0365 107.729 45.2934 107.007 45.2031C105.503 44.9955 103.884 44.8 102.275 44.6014" fill="#1A2E35"/>
<path d="M47.8688 61.1163C47.2549 61.1235 46.6632 60.8867 46.2237 60.458C45.7842 60.0292 45.5329 59.4436 45.525 58.8297C45.5201 58.3002 45.6964 57.7849 46.0248 57.3695C46.3532 56.9541 46.8139 56.6635 47.3302 56.5461L50.4141 55.824L51.1964 60.9899L47.941 61.1163H47.8688Z" fill="#FF8C00"/>
<path opacity="0.3" d="M50.2847 61.026L51.1873 60.9899L50.4021 55.824L49.5205 56.0316L50.2847 61.026Z" fill="black"/>
<path opacity="0.6" d="M84.8515 60.2637C84.8876 62.0689 84.8695 64.0005 84.674 64.9843C84.2377 67.1656 80.8379 83.1176 80.8379 83.1176" stroke="black" stroke-width="0.196091" stroke-linecap="round" stroke-linejoin="round"/>
<path opacity="0.6" d="M42.0347 59.7207C42.0347 59.7207 43.0516 73.5155 44.6011 76.3046C46.1054 79.0274 50.4831 85.4931 50.4831 85.4931" stroke="black" stroke-width="0.196091" stroke-linecap="round" stroke-linejoin="round"/>
<path opacity="0.6" d="M38.4726 58.4082C38.4726 58.4082 27.6023 61.095 24.401 61.6064C21.7745 62.0276 11.0967 64.6151 7.88037 65.9419" stroke="black" stroke-width="0.196091" stroke-linecap="round" stroke-linejoin="round"/>
<path opacity="0.8" d="M115.588 47.0687C115.469 47.1739 115.371 47.3017 115.301 47.4448C115.232 47.5879 115.191 47.7435 115.182 47.9024C115.172 48.0614 115.195 48.2206 115.248 48.3708C115.3 48.521 115.382 48.6593 115.489 48.7776L116.828 50.2338C116.981 50.3964 117.176 50.5148 117.39 50.5768L133.8 55.1229C134.085 55.201 134.379 55.2405 134.675 55.2403H137.922C137.753 55.129 137.579 55.0236 137.398 54.9394L121.581 46.6114C121.39 46.5163 121.244 46.3492 121.176 46.1467C121.108 45.9441 121.123 45.7228 121.217 45.5312L116.079 46.819C115.898 46.8632 115.73 46.9487 115.588 47.0687Z" fill="white"/>
<path d="M53.9973 57.5507C53.8499 57.6379 52.1108 59.4371 52.1108 59.4371L52.4508 61.6695L54.6381 59.41L53.9973 57.5507Z" fill="#1A2E35"/>
<path d="M56.6207 62.2025C56.5293 62.2479 56.4298 62.2748 56.328 62.2816C56.2261 62.2885 56.1239 62.2752 56.0272 62.2425C55.9305 62.2098 55.8412 62.1583 55.7644 62.0911C55.6877 62.0238 55.6249 61.9421 55.5797 61.8505L52.1077 54.8132C52.062 54.7219 52.0348 54.6223 52.0277 54.5204C52.0207 54.4184 52.0339 54.3161 52.0666 54.2193C52.0994 54.1225 52.151 54.0332 52.2184 53.9564C52.2859 53.8797 52.3679 53.8171 52.4597 53.7722C52.5512 53.7269 52.6507 53.7 52.7525 53.6932C52.8544 53.6863 52.9566 53.6996 53.0533 53.7323C53.1499 53.765 53.2393 53.8165 53.316 53.8837C53.3928 53.951 53.4556 54.0327 53.5007 54.1242L56.9728 61.1615C57.0181 61.253 57.045 61.3525 57.0518 61.4543C57.0587 61.5562 57.0454 61.6584 57.0127 61.7551C56.98 61.8518 56.9285 61.941 56.8613 62.0178C56.794 62.0946 56.7123 62.1574 56.6207 62.2025Z" fill="#1A2E35"/>
<path d="M57.5418 88.6935L54.5813 86.3497C52.6918 88.5009 51.1664 90.6431 50.0171 91.9218L50.7301 93.6006L52.6617 93.2125C54.1982 91.6115 55.8277 90.1026 57.5418 88.6935Z" fill="#CD7A63"/>
<path d="M54.7046 91.7831L53.5523 91.0489C52.3729 91.6507 52.1382 91.1693 51.9938 90.1102C51.693 89.8605 51.35 90.1854 51.2567 90.2697L49.1777 92.1501C49.0933 92.2253 49.0422 92.3308 49.0354 92.4435C49.0287 92.5563 49.0668 92.6672 49.1416 92.7518C49.1693 92.7838 49.2018 92.8112 49.2379 92.8331L52.0029 94.5962L55.875 97.0603C56.9311 97.7312 57.8277 96.8076 57.4576 96.4315C55.7757 94.7526 54.7498 93.2964 54.5151 92.3427C54.467 92.1712 54.6294 92.1712 54.7046 91.7831Z" fill="#FF8C00"/>
<path d="M54.873 92.8006C54.7158 92.7287 54.5449 92.6914 54.372 92.6914C54.1991 92.6914 54.0283 92.7287 53.8711 92.8006" stroke="#1A2E35" stroke-width="0.196091" stroke-linecap="round" stroke-linejoin="round"/>
<path d="M55.1465 93.5259C54.9889 93.4535 54.8175 93.416 54.644 93.416C54.4706 93.416 54.2992 93.4535 54.1416 93.5259" stroke="#1A2E35" stroke-width="0.196091" stroke-linecap="round" stroke-linejoin="round"/>
<path d="M55.5742 94.2674C55.417 94.1955 55.2461 94.1582 55.0732 94.1582C54.9003 94.1582 54.7295 94.1955 54.5723 94.2674" stroke="#1A2E35" stroke-width="0.196091" stroke-linecap="round" stroke-linejoin="round"/>
<path opacity="0.7" d="M49.1413 92.749C49.169 92.7809 49.2015 92.8083 49.2376 92.8303L52.0026 94.5933L55.8748 97.0605C56.076 97.2102 56.3191 97.2934 56.5699 97.2982C56.8208 97.3031 57.0669 97.2294 57.2738 97.0875C57.1113 96.9852 49.376 92.1413 49.2978 92.045L49.1443 92.1864C49.0752 92.2636 49.0367 92.3635 49.0361 92.4671C49.0356 92.5708 49.073 92.6711 49.1413 92.749Z" fill="white"/>
<path d="M75.0131 88.6094L70.4219 91.4405C70.7649 94.8855 71.6103 98.0145 71.2914 99.7054L72.7717 100.767L74.7905 98.6614C74.7905 98.6614 74.616 92.5026 75.0131 88.6094Z" fill="#CD7A63"/>
<path d="M74.9708 97.1429L73.6049 97.1158C72.9068 98.2381 72.4586 97.9522 71.7996 97.1158C71.4055 97.0617 71.2882 97.513 71.2551 97.6363L70.4548 100.32C70.4218 100.428 70.4327 100.544 70.4851 100.644C70.5375 100.744 70.6271 100.819 70.7346 100.853C70.7746 100.865 70.8161 100.871 70.8579 100.871L74.1374 100.94L78.7287 101.039C79.9803 101.066 80.2661 99.8086 79.7516 99.6822C77.4439 99.1196 75.8162 98.4035 75.1152 97.7145C74.9708 97.5972 75.1092 97.513 74.9708 97.1429Z" fill="#FF8C00"/>
<path d="M75.645 97.9238C75.4731 97.9449 75.3077 98.0029 75.1603 98.0938C75.0128 98.1846 74.8867 98.3063 74.7905 98.4503" stroke="#1A2E35" stroke-width="0.196091" stroke-linecap="round" stroke-linejoin="round"/>
<path d="M76.2524 98.4023C76.0805 98.4234 75.9151 98.4814 75.7677 98.5723C75.6202 98.6631 75.4941 98.7848 75.3979 98.9289" stroke="#1A2E35" stroke-width="0.196091" stroke-linecap="round" stroke-linejoin="round"/>
<path d="M77.0107 98.8087C76.8388 98.8298 76.6734 98.8877 76.526 98.9786C76.3785 99.0695 76.2524 99.1911 76.1562 99.3352" stroke="#1A2E35" stroke-width="0.196091" stroke-linecap="round" stroke-linejoin="round"/>
<path opacity="0.7" d="M70.7197 100.859C70.7597 100.871 70.8012 100.877 70.843 100.877L74.1225 100.946L78.7137 101.045C78.9623 101.068 79.2116 101.012 79.4272 100.887C79.6428 100.761 79.814 100.571 79.9172 100.344C79.7277 100.344 70.5903 100.218 70.482 100.176L70.4278 100.374C70.4084 100.477 70.4274 100.583 70.4813 100.672C70.5351 100.762 70.62 100.828 70.7197 100.859Z" fill="white"/>
<path d="M68.8122 22.836C68.8122 22.836 69.3267 21.1421 68.7851 17.974C68.7851 17.974 68.9536 17.9168 68.9566 17.9138C68.8814 17.4715 68.7941 17.0624 68.7129 16.7104V16.6953L72.6242 19.7612C72.4166 20.733 72.555 22.6645 72.6723 23.4889C72.6723 23.4889 73.0394 24.9933 71.1048 24.8428C69.6727 24.7255 68.8122 22.836 68.8122 22.836Z" fill="#CD7A63"/>
<path opacity="0.2" d="M72.5247 21.1415L70.1719 20.3262C70.3043 21.0994 70.8699 22.0652 72.5397 22.3269C72.5027 21.9329 72.4976 21.5364 72.5247 21.1415Z" fill="black"/>
<path d="M68.9055 14.6498C68.8874 17.3395 68.8242 18.8619 70.0849 20.3121C71.9864 22.5024 75.3019 21.5156 76.1263 18.886C76.8665 16.5121 76.7732 12.5106 74.2158 11.2891C73.6492 11.0189 73.0233 10.8969 72.3967 10.9343C71.7701 10.9718 71.1632 11.1675 70.6327 11.5032C70.1023 11.8389 69.6657 12.3036 69.3636 12.8539C69.0615 13.4041 68.9039 14.022 68.9055 14.6498Z" fill="#CD7A63"/>
<path d="M68.7852 11.4053C69.2546 9.95215 72.9553 10.2019 73.9361 11.0142C74.0835 11.1376 71.83 12.0883 71.9534 12.0492L70.8973 12.335C70.7409 12.2899 70.4159 12.4554 70.2204 12.9368C70.2204 12.9368 70.0579 17.0526 68.8123 18.1628C67.9097 17.6423 67.9639 16.0116 67.7352 15.0218C67.3952 13.5385 67.0071 11.3963 68.7852 11.4053Z" fill="#1A2E35"/>
<path d="M67.6958 16.8094C67.7751 17.1341 67.9184 17.4398 68.1173 17.7084C68.3162 17.977 68.5667 18.2033 68.8541 18.3739C69.6274 18.8252 69.9854 17.9707 69.9673 17.1223C69.9493 16.3581 69.7898 15.4164 68.9203 15.3171C68.0508 15.2178 67.5032 16.0061 67.6958 16.8094Z" fill="#CD7A63"/>
<path d="M72.6872 15.6839C72.6692 15.9577 72.7985 16.1894 72.9881 16.1984C73.1776 16.2074 73.3281 15.9968 73.3461 15.723C73.3642 15.4493 73.2348 15.2176 73.0453 15.2056C72.8557 15.1935 72.7053 15.4102 72.6872 15.6839Z" fill="#1A2E35"/>
<path d="M75.3743 15.922C75.3532 16.1958 75.4856 16.4245 75.6751 16.4365C75.8647 16.4485 76.0181 16.2319 76.0362 15.9581C76.0542 15.6843 75.9249 15.4527 75.7353 15.4436C75.5458 15.4346 75.3923 15.6452 75.3743 15.922Z" fill="#1A2E35"/>
<path d="M74.5078 15.7089C74.5078 15.7089 75.284 17.132 75.5247 17.7037C75.1185 18.0226 74.4717 17.821 74.4717 17.821L74.5078 15.7089Z" fill="#B94D3C"/>
<path d="M72.1215 14.3451C72.141 14.3568 72.1634 14.3629 72.1861 14.3629C72.2089 14.3629 72.2313 14.3568 72.2508 14.3451C72.3822 14.2505 72.534 14.1882 72.6939 14.1631C72.8539 14.138 73.0174 14.1509 73.1715 14.2007C73.203 14.2137 73.2384 14.2137 73.27 14.2008C73.3015 14.1878 73.3267 14.1629 73.34 14.1315C73.3469 14.1161 73.3507 14.0995 73.3511 14.0826C73.3515 14.0658 73.3486 14.049 73.3424 14.0333C73.3362 14.0176 73.327 14.0033 73.3152 13.9912C73.3034 13.9791 73.2893 13.9696 73.2738 13.963C73.0795 13.8972 72.8724 13.8785 72.6695 13.9083C72.4665 13.9381 72.2736 14.0156 72.1064 14.1345C72.0922 14.1436 72.08 14.1555 72.0704 14.1695C72.0609 14.1834 72.0542 14.1991 72.0509 14.2156C72.0475 14.2322 72.0475 14.2492 72.0508 14.2658C72.0542 14.2824 72.0608 14.2981 72.0703 14.312C72.0841 14.3274 72.1018 14.3388 72.1215 14.3451Z" fill="#1A2E35"/>
<path d="M73.5147 18.6327C73.2986 18.6077 73.0898 18.5391 72.9011 18.431C72.7123 18.3229 72.5474 18.1776 72.4165 18.0039" stroke="#1A2E35" stroke-width="0.294137" stroke-linecap="round" stroke-linejoin="round"/>
<path opacity="0.2" d="M68.3579 16.1123C68.4222 16.0398 68.5065 15.988 68.6002 15.9634C68.6939 15.9387 68.7928 15.9424 68.8844 15.9739C69.0667 16.0429 69.2197 16.1725 69.3177 16.341C69.4446 16.5381 69.5163 16.7656 69.5253 16.9999" stroke="black" stroke-width="0.196091" stroke-linecap="round" stroke-linejoin="round"/>
<path d="M76.6345 14.8448C76.6603 14.8406 76.6843 14.8291 76.7037 14.8117C76.7272 14.7875 76.7404 14.7551 76.7404 14.7214C76.7404 14.6877 76.7272 14.6553 76.7037 14.6311C76.5725 14.476 76.4058 14.3548 76.2178 14.2778C76.0298 14.2008 75.8259 14.1703 75.6236 14.1889C75.5913 14.1954 75.5627 14.2141 75.5437 14.241C75.5247 14.2679 75.5167 14.3011 75.5213 14.3337C75.5259 14.3664 75.5428 14.396 75.5685 14.4166C75.5942 14.4372 75.6269 14.4472 75.6597 14.4446C75.8202 14.4292 75.9819 14.4539 76.1305 14.5164C76.2791 14.5789 76.4099 14.6772 76.5112 14.8026C76.5262 14.8199 76.5455 14.833 76.5671 14.8404C76.5888 14.8478 76.6121 14.8493 76.6345 14.8448Z" fill="#1A2E35"/>
<path d="M68.3159 10.2026C68.5656 9.61887 69.3539 9.55268 69.9316 9.72718C69.9677 8.99006 70.9545 8.65007 71.5563 8.71927C71.8649 8.72367 72.16 8.84645 72.3806 9.06226C72.3325 9.06226 72.6033 8.71627 72.7628 8.58088C73.0522 8.33911 73.4069 8.18885 73.7819 8.14921C74.1569 8.10957 74.5353 8.18232 74.8688 8.35823C75.2024 8.55842 75.4725 8.84878 75.6482 9.19586C75.8239 9.54293 75.8979 9.93258 75.8617 10.3199C75.9666 10.2343 76.0875 10.1705 76.2174 10.132C76.3472 10.0935 76.4834 10.0812 76.618 10.0958C76.7526 10.1103 76.883 10.1515 77.0016 10.2168C77.1202 10.2821 77.2246 10.3703 77.3089 10.4763C77.4662 10.7102 77.5331 10.9933 77.4971 11.2729C77.4612 11.5524 77.3247 11.8093 77.1133 11.9957C77.2311 12.017 77.3434 12.0615 77.4438 12.1266C77.5442 12.1917 77.6307 12.2762 77.6981 12.375C77.7656 12.4738 77.8128 12.5851 77.8368 12.7023C77.8609 12.8195 77.8615 12.9404 77.8384 13.0578C77.7885 13.2889 77.6499 13.4911 77.4524 13.6211C77.2549 13.751 77.0143 13.7983 76.7824 13.7528C76.7071 14.2944 76.5928 14.9563 76.5176 15.5039L75.967 13.4519C75.606 13.2865 75.5488 13.1089 75.5097 12.6968C75.1908 13.1842 74.7635 13.1059 74.2099 13.0367C73.929 12.9945 73.6651 12.8755 73.4475 12.6929C73.2298 12.5102 73.0668 12.2711 72.9764 12.0017C72.8217 12.2591 72.6001 12.4698 72.3352 12.6112C72.0703 12.7527 71.772 12.8197 71.472 12.8051C71.176 12.7649 70.9054 12.6161 70.713 12.3876C70.5206 12.159 70.4201 11.8671 70.431 11.5685C70.2395 11.8083 69.9678 11.9708 69.6659 12.0261C69.364 12.0814 69.0524 12.0257 68.7883 11.8694C68.5325 11.686 68.3465 11.4213 68.2607 11.1186C68.1749 10.8158 68.1943 10.4928 68.3159 10.2026Z" fill="#1A2E35"/>
<path d="M64.2388 22.6678C64.2388 22.6678 61.8469 22.734 60.8842 25.4027C59.9996 27.8608 57.7461 33.2794 57.7461 33.2794L63.1347 34.856L65.2768 28.4384L64.2388 22.6678Z" fill="#FF8C00"/>
<path d="M73.0392 48.263L69.7928 55.1829C69.7928 55.1829 74.9497 70.7047 75.2596 72.3324C75.5695 73.9601 75.7139 94.3319 75.7139 94.3319H69.9764L67.7259 74.4505C67.7259 74.4505 60.7577 57.5628 60.2493 56.1909C59.2925 53.6214 60.2944 50.1735 60.2944 50.1735L62.0695 47.6131L73.0392 48.263Z" fill="#1A2E35"/>
<path d="M76.1896 51.7505C76.1896 52.3823 73.9541 73.8794 73.584 73.9576C73.214 74.0358 57.0032 91.766 57.0032 91.766L52.3999 87.7223L64.2992 71.5837L65.617 57.0879L66.0774 47.9746L76.4513 48.7418L76.1896 51.7505Z" fill="#1A2E35"/>
<path opacity="0.4" d="M68.3216 79.554L68.0358 74.5055L64.7021 67.1191L67.2054 74.9267L67.4431 80.2731L68.3216 79.554Z" fill="black"/>
<path opacity="0.4" d="M74.3361 69.0442L69.793 55.1922L71.3755 53.748L70.8731 55.7338L74.5316 67.3984L74.3361 69.0442Z" fill="black"/>
<path d="M90.0262 29.3983L83.001 35.8459L79.7275 29.7533C79.7275 29.7533 76.1532 33.2795 76.2766 33.3307C76.3999 33.3818 80.4887 42.3266 83.4252 40.72C86.3617 39.1133 91.3531 31.0501 91.3531 31.0501L90.0262 29.3983Z" fill="#CD7A63"/>
<path opacity="0.2" d="M83.0009 35.8468C83.0009 35.8468 82.3992 36.8216 82.4684 37.7423C82.285 37.3771 82.2188 36.9641 82.2788 36.5599C82.3287 36.1186 82.479 35.6946 82.7181 35.3203L83.0009 35.8468Z" fill="black"/>
<path d="M76.5323 24.2694C74.6158 25.2532 73.8455 28.7493 77.9674 37.1766L82.8896 33.3797C82.1014 31.2736 81.3011 30.1815 80.0374 27.6271C78.0366 23.6647 76.5323 24.2694 76.5323 24.2694Z" fill="#FF8C00"/>
<path d="M76.5958 24.1383C75.2419 23.8375 69.8624 22.4294 64.1068 22.6701L61.068 44.104C61.068 44.104 60.4662 46.9141 59.6689 49.7001C65.1508 52.8713 72.7567 53.3858 76.8365 51.6528C76.7823 51.74 76.9117 49.3662 77.0862 45.8851C77.3871 39.7564 77.8504 30.1948 77.709 24.6167C77.703 24.4783 76.7312 24.1684 76.5958 24.1383Z" fill="#FF8C00"/>
<path opacity="0.2" d="M77.5225 36.2426L77.718 29.3105L78.5936 36.6939L77.9677 37.1752L77.5225 36.2426Z" fill="black"/>
<path opacity="0.2" d="M62.8337 34.7685L63.1345 34.8558L65.0962 29.5996L63.6249 35.614L62.623 35.62L62.8337 34.7685Z" fill="black"/>
<path d="M89.3494 30.5135C89.3494 30.5135 88.8108 29.6621 89.0004 28.8527C89.1899 28.0434 89.1328 27.3484 89.3013 26.7466C89.4697 26.1449 89.8218 26.9242 89.903 27.3694C89.9842 27.8147 90.1106 28.3172 90.4325 28.1908C90.7544 28.0645 92.6259 25.7478 93.0922 25.6244C93.5585 25.5011 93.375 25.9704 93.375 25.9704C93.375 25.9704 93.8414 25.4198 94.1122 25.5462C94.1814 25.5793 94.2897 25.7688 94.1122 26.0547C93.721 26.6925 92.8274 27.9922 92.8274 27.9922C92.8786 27.917 94.0941 26.3916 94.3047 26.187C94.5815 25.9193 94.8493 25.9343 94.9997 26.0998C95.2133 26.3375 93.7692 28.2811 93.7661 28.4044C93.7661 28.4044 94.5604 27.2581 94.9696 27.3002C95.3788 27.3424 94.9185 28.0915 94.3889 28.6752C93.9015 29.2108 93.0862 30.3872 92.5386 30.8836C91.8616 31.4853 91.2719 31.7531 90.4897 31.4131C90.039 31.2156 89.6464 30.9059 89.3494 30.5135Z" fill="#CD7A63"/>
<path opacity="0.3" d="M93.3239 26.0352C92.9588 26.4865 92.6158 26.9528 92.2949 27.4342" stroke="black" stroke-width="0.0980456" stroke-linecap="round" stroke-linejoin="round"/>
<path opacity="0.3" d="M93.5042 28.8626C93.0601 28.2534 92.4487 27.7862 91.7441 27.5178" stroke="black" stroke-width="0.0980456" stroke-linecap="round" stroke-linejoin="round"/>
<path opacity="0.3" d="M90.5557 28.5566C90.764 28.7836 90.8864 29.0762 90.9018 29.3839C90.9172 29.6915 90.8245 29.9949 90.6399 30.2415" stroke="black" stroke-width="0.0980456" stroke-linecap="round" stroke-linejoin="round"/>
<path d="M58.1526 33.3965C58.1526 33.3965 56.531 37.2356 55.842 40.6805C55.5411 42.248 56.7807 43.2499 58.0624 43.5598C62.094 44.5346 71.1802 44.5376 71.1802 44.5376L71.4179 41.7666L60.9507 39.5011L62.8311 34.7684L58.1526 33.3965Z" fill="#CD7A63"/>
<path d="M71.201 45.1311L74.6309 45.5162C74.6887 45.5231 74.7474 45.5169 74.8026 45.4982C74.8577 45.4794 74.908 45.4486 74.9498 45.4079L80.1698 40.245C80.2189 40.1967 80.2542 40.1362 80.2722 40.0697C80.2901 40.0032 80.2901 39.9331 80.272 39.8667C80.2539 39.8002 80.2185 39.7397 80.1694 39.6915C80.1202 39.6432 80.0591 39.609 79.9923 39.5921L76.9836 38.8129C76.9181 38.7963 76.8495 38.7968 76.7842 38.8141C76.7189 38.8315 76.6592 38.8652 76.6106 38.9122L70.9783 44.4662C70.9254 44.5171 70.8881 44.582 70.8706 44.6533C70.8531 44.7246 70.8562 44.7994 70.8795 44.869C70.9028 44.9386 70.9454 45.0002 71.0023 45.0466C71.0592 45.093 71.1281 45.1223 71.201 45.1311Z" fill="#1A2E35"/>
<path d="M70.8821 41.7829C70.8821 41.7829 70.9784 41.3768 72.4948 40.9164C73.6471 40.5644 74.7934 39.4843 74.98 39.5204C75.1665 39.5565 75.3681 40.1462 74.8897 40.6637C74.4113 41.1812 73.9119 41.4761 74.0382 41.6746C74.3391 42.153 78.097 41.7649 78.1601 42.1741C78.2233 42.5833 77.5103 43.7536 75.5035 44.5389C73.4967 45.3242 70.7407 44.5389 70.7407 44.5389L70.8821 41.7829Z" fill="#CD7A63"/>
<path d="M103.319 16.9745C106.433 11.5424 104.553 4.61486 99.1209 1.50136C93.6888 -1.61214 86.7612 0.267441 83.6477 5.69952C80.5342 11.1316 82.4138 18.0591 87.8459 21.1726C93.278 24.2861 100.206 22.4066 103.319 16.9745Z" fill="#FF8C00"/>
<path d="M92.987 15.6458H93.357C93.4563 15.6458 93.5014 15.6909 93.4984 15.7872V16.4882C93.4984 16.5875 93.4533 16.6296 93.354 16.6296H92.987V17.466C92.987 17.5503 92.9569 17.6074 92.8666 17.6074H92.0392C91.946 17.6074 91.9159 17.5533 91.9159 17.469C91.9159 17.1953 91.9159 16.9245 91.9159 16.6386H91.7775H90.1738C90.0023 16.6386 89.9873 16.6386 89.9873 16.4581C89.9873 16.2385 89.9873 16.0189 89.9873 15.8022C89.9924 15.7064 90.0236 15.6138 90.0776 15.5345C90.6552 14.7793 91.2419 14.0301 91.8226 13.2719C91.8512 13.2328 91.8889 13.2011 91.9323 13.1796C91.9758 13.1581 92.0238 13.1475 92.0723 13.1486H92.8245C92.9659 13.1486 92.993 13.1757 92.993 13.3201V15.6458H92.987ZM91.9068 15.6458V14.6078L91.1005 15.6458H91.9068Z" fill="white"/>
<path d="M87.9265 16.597H89.5331C89.6986 16.597 89.7196 16.618 89.7196 16.7805C89.7196 17.0061 89.7196 17.2318 89.7196 17.4574C89.7196 17.5838 89.6895 17.6139 89.5692 17.6139H86.8283C86.7531 17.6139 86.6839 17.5958 86.6869 17.5086C86.6797 17.2611 86.6938 17.0135 86.729 16.7684C86.7981 16.451 86.9439 16.1553 87.1537 15.9072C87.3635 15.6591 87.6309 15.4662 87.9325 15.3453C88.0378 15.2942 88.1521 15.2611 88.2574 15.21C88.3553 15.1649 88.4481 15.1094 88.5342 15.0445C88.6146 14.977 88.6716 14.8858 88.697 14.7839C88.7223 14.6821 88.7147 14.5748 88.6753 14.4775C88.6358 14.3802 88.5666 14.298 88.4774 14.2425C88.3883 14.1871 88.2839 14.1613 88.1792 14.1689C88.0761 14.1711 87.9764 14.2066 87.8951 14.27C87.8137 14.3335 87.7551 14.4215 87.7279 14.521C87.725 14.5412 87.718 14.5607 87.7075 14.5782C87.6969 14.5958 87.6829 14.611 87.6664 14.6231C87.6498 14.6351 87.6311 14.6437 87.6111 14.6484C87.5912 14.6531 87.5706 14.6538 87.5504 14.6503C87.3187 14.6503 87.084 14.6503 86.8524 14.6503C86.7109 14.6503 86.6839 14.6172 86.6989 14.4728C86.7619 14.0738 86.9809 13.7163 87.3076 13.4787C87.6343 13.2412 88.042 13.1431 88.4409 13.2062C88.8399 13.2692 89.1975 13.4882 89.435 13.8149C89.6726 14.1415 89.7706 14.5492 89.7076 14.9482C89.6328 15.3123 89.4232 15.6346 89.1209 15.8508C88.9374 15.9862 88.7298 16.0885 88.5192 16.2088L87.9806 16.5338C87.9656 16.5488 87.9565 16.5488 87.9265 16.597Z" fill="white"/>
<path d="M98.7032 13.1465H100.144C100.283 13.1465 100.304 13.1766 100.268 13.309C99.8987 14.6929 99.5276 16.0769 99.1545 17.4609C99.1214 17.5873 99.0853 17.6144 98.9499 17.6144H97.7464C97.6141 17.6144 97.596 17.5903 97.6412 17.4609C97.9841 16.4801 98.3281 15.5003 98.6731 14.5214C98.7303 14.362 98.7183 14.3409 98.5468 14.3409H97.256C97.1086 14.3409 97.0815 14.3139 97.0815 14.1664V13.3059C97.0815 13.1796 97.1146 13.1495 97.241 13.1465H98.7032Z" fill="white"/>
<path d="M96.1911 11.8403H96.492C96.6334 11.8403 96.6665 11.8854 96.6304 12.0208L96.0798 14.0517C95.6626 15.6022 95.2434 17.1536 94.8222 18.7061C94.771 18.8896 94.7289 18.9227 94.5213 18.9227H93.9737C93.8113 18.9227 93.7812 18.8836 93.8233 18.7272C94.3709 16.6993 94.9195 14.6715 95.469 12.6436C95.5262 12.436 95.5804 12.2284 95.6375 12.0208C95.6408 11.9932 95.6497 11.9665 95.6635 11.9423C95.6774 11.9181 95.6959 11.897 95.7181 11.8802C95.7403 11.8633 95.7656 11.8511 95.7926 11.8443C95.8196 11.8374 95.8477 11.8361 95.8752 11.8403H96.1761H96.1911Z" fill="white"/>
<path d="M93.4833 3.75562C95.0141 3.75645 96.487 4.34067 97.6022 5.38933L97.6473 5.43446C97.6652 5.45185 97.6795 5.47266 97.6892 5.49566C97.6989 5.51866 97.7039 5.54338 97.7039 5.56835C97.7039 5.59332 97.6989 5.61804 97.6892 5.64104C97.6795 5.66403 97.6652 5.68484 97.6473 5.70223C97.6124 5.73659 97.5654 5.75585 97.5164 5.75585C97.4674 5.75585 97.4204 5.73659 97.3855 5.70223C97.2531 5.58489 97.1268 5.46455 96.9884 5.35624C96.2565 4.77196 95.3902 4.37975 94.4683 4.21519C93.5463 4.05064 92.5978 4.11895 91.709 4.41394C90.8201 4.70893 90.019 5.22125 89.3784 5.90439C88.7378 6.58753 88.2779 7.41985 88.0406 8.3258C87.7467 9.41693 87.7939 10.5719 88.176 11.6354V11.6654C88.2301 11.8159 88.2 11.9152 88.0887 11.9663C87.9774 12.0175 87.8901 11.9513 87.836 11.8038C87.6496 11.2991 87.5371 10.7702 87.502 10.2333C87.4387 9.40828 87.5462 8.57907 87.8179 7.79749C88.0895 7.0159 88.5195 6.29874 89.0808 5.69081C89.6421 5.08289 90.3228 4.59727 91.0803 4.26429C91.8378 3.93132 92.6558 3.75815 93.4833 3.75562Z" fill="white"/>
<path d="M94.5334 9.0803L94.1543 8.69519L94.2115 8.63201C94.9396 7.90591 95.6667 7.17881 96.3928 6.45071C96.4226 6.41278 96.4612 6.38258 96.5052 6.36268C96.5491 6.34278 96.5973 6.33376 96.6455 6.33638C96.6933 6.34016 96.7393 6.35644 96.7789 6.38359C96.8184 6.41074 96.8501 6.4478 96.8709 6.49107C96.8916 6.53433 96.9006 6.58229 96.8969 6.63012C96.8933 6.67795 96.8771 6.72398 96.8501 6.76361C96.8325 6.786 96.8134 6.80711 96.7929 6.8268L94.5815 9.02614L94.5334 9.0803Z" fill="white"/>
<path d="M94.1544 9.74608C94.155 9.87916 94.116 10.0094 94.0423 10.1203C93.9687 10.2311 93.8638 10.3176 93.7409 10.3686C93.618 10.4197 93.4827 10.4331 93.3522 10.407C93.2217 10.381 93.1018 10.3167 93.0079 10.2224C92.9141 10.1281 92.8503 10.008 92.8249 9.87737C92.7994 9.74674 92.8134 9.6115 92.865 9.48884C92.9166 9.36617 93.0036 9.26163 93.1148 9.1885C93.226 9.11537 93.3564 9.07696 93.4895 9.07815C93.5773 9.07734 93.6643 9.09409 93.7456 9.12741C93.8268 9.16073 93.9006 9.20994 93.9625 9.27217C94.0244 9.33439 94.0733 9.40837 94.1063 9.48975C94.1392 9.57114 94.1556 9.65829 94.1544 9.74608Z" fill="white"/>
<path d="M92.4333 9.08134L91.8074 8.45554L91.1245 7.77257C91.0965 7.74804 91.0739 7.71808 91.0579 7.6845C91.0419 7.65093 91.0329 7.61445 91.0315 7.57729C91.03 7.54012 91.0362 7.50306 91.0495 7.46835C91.0629 7.43365 91.0832 7.40203 91.1092 7.37543C91.1352 7.34883 91.1663 7.3278 91.2007 7.31363C91.2351 7.29945 91.272 7.29244 91.3092 7.293C91.3464 7.29356 91.383 7.30169 91.417 7.3169C91.4509 7.33211 91.4814 7.35406 91.5066 7.38144C91.9338 7.80566 92.361 8.2359 92.7883 8.66314L92.8184 8.69924L92.4333 9.08134Z" fill="white"/>
<path d="M98.4113 6.51119L98.664 6.36376C98.7332 6.32766 98.7753 6.34571 98.7753 6.42995C98.7753 6.76392 98.7753 7.10089 98.7753 7.43787C98.7753 7.52512 98.7362 7.54618 98.658 7.50406C98.3571 7.34159 98.0773 7.17611 97.7885 7.01063C97.7042 6.96249 97.7072 6.92338 97.7885 6.87223L98.0292 6.72782L97.7644 6.27351C97.7283 6.21333 97.6681 6.13811 97.7373 6.08396C97.8219 6.02192 97.9165 5.97509 98.0171 5.94556C98.0382 5.94556 98.0893 5.9937 98.1134 6.0298C98.2217 6.18324 98.312 6.3427 98.4113 6.51119Z" fill="white"/>
<path d="M89.4336 10.0202H89.1659C89.0933 10.0202 89.0236 9.99139 88.9723 9.94005C88.9209 9.8887 88.8921 9.81906 88.8921 9.74645C88.8921 9.67383 88.9209 9.6042 88.9723 9.55285C89.0236 9.5015 89.0933 9.47266 89.1659 9.47266H89.7014C89.774 9.47266 89.8437 9.5015 89.895 9.55285C89.9464 9.6042 89.9752 9.67383 89.9752 9.74645C89.9752 9.81906 89.9464 9.8887 89.895 9.94005C89.8437 9.99139 89.774 10.0202 89.7014 10.0202H89.4336Z" fill="white"/>
<path d="M97.5422 9.47281H97.819C97.8916 9.47281 97.9613 9.50165 98.0126 9.553C98.064 9.60434 98.0928 9.67398 98.0928 9.7466C98.0928 9.81921 98.064 9.88885 98.0126 9.94019C97.9613 9.99154 97.8916 10.0204 97.819 10.0204C97.6285 10.0204 97.4389 10.0204 97.2504 10.0204C97.2143 10.0208 97.1785 10.014 97.1451 10.0004C97.1117 9.98675 97.0814 9.9666 97.0559 9.94109C97.0304 9.91559 97.0102 9.88525 96.9966 9.85185C96.983 9.81845 96.9762 9.78266 96.9766 9.7466C96.9766 9.70987 96.9839 9.67351 96.9982 9.63969C97.0126 9.60587 97.0335 9.57528 97.0599 9.54973C97.0863 9.52419 97.1176 9.50421 97.1519 9.491C97.1861 9.47778 97.2227 9.47159 97.2594 9.47281H97.5422Z" fill="white"/>
<path d="M93.76 5.69829C93.76 5.79156 93.76 5.88482 93.76 5.97809C93.7592 6.05046 93.7301 6.11965 93.6789 6.17083C93.6278 6.222 93.5586 6.2511 93.4862 6.25188C93.4504 6.25228 93.4149 6.24557 93.3817 6.23214C93.3485 6.21871 93.3182 6.19883 93.2928 6.17365C93.2673 6.14846 93.2471 6.11848 93.2333 6.08543C93.2195 6.05238 93.2124 6.01692 93.2124 5.9811C93.2124 5.79256 93.2124 5.60301 93.2124 5.41246C93.2124 5.33985 93.2413 5.27021 93.2926 5.21886C93.3439 5.16752 93.4136 5.13867 93.4862 5.13867C93.5588 5.13867 93.6284 5.16752 93.6798 5.21886C93.7311 5.27021 93.76 5.33985 93.76 5.41246C93.763 5.50573 93.76 5.60201 93.76 5.69829Z" fill="white"/>
<path d="M84.274 1.23425C82.7829 2.32816 81.5847 3.77317 80.7859 5.4411C79.9871 7.10904 79.6123 8.94834 79.6948 10.7958" stroke="#FF8C00" stroke-width="0.196091" stroke-linecap="round" stroke-linejoin="round"/>
<path d="M79.8481 12.4805C79.8332 13.044 79.9356 13.6044 80.149 14.1262" stroke="#FF8C00" stroke-width="0.196091" stroke-linecap="round" stroke-linejoin="round"/>
</g>
<defs>
<clipPath id="clip0_793_31496">
<rect width="140" height="101.137" fill="white" transform="translate(0.5)"/>
</clipPath>
</defs>
</svg>
