<svg width="180" height="180" viewBox="0 0 180 180" fill="none" xmlns="http://www.w3.org/2000/svg">
<circle cx="90" cy="90" r="90" fill="#FF8C00" fill-opacity="0.05"/>
<g clip-path="url(#clip0_1101_20368)">
<g opacity="0.91">
<path d="M30.3832 30.535C30.3857 30.8011 30.3085 31.0618 30.1614 31.2842C30.0143 31.5065 29.8039 31.6805 29.557 31.784C29.3101 31.8875 29.0378 31.9159 28.7746 31.8655C28.5114 31.8151 28.2692 31.6883 28.0788 31.5011C27.8884 31.3138 27.7584 31.0747 27.7052 30.814C27.6519 30.5533 27.678 30.2827 27.7799 30.0367C27.8819 29.7907 28.0553 29.5803 28.278 29.4323C28.5007 29.2842 28.7627 29.2052 29.0307 29.2051C29.3872 29.2051 29.7294 29.3449 29.9827 29.5939C30.236 29.843 30.3799 30.1812 30.3832 30.535Z" fill="#E0EDFE"/>
<path d="M39.3002 30.535C39.3027 30.8011 39.2255 31.0618 39.0784 31.2842C38.9313 31.5065 38.7209 31.6805 38.474 31.784C38.2271 31.8875 37.9548 31.9159 37.6916 31.8655C37.4284 31.8151 37.1862 31.6883 36.9958 31.5011C36.8054 31.3138 36.6753 31.0747 36.6221 30.814C36.5689 30.5533 36.595 30.2827 36.697 30.0367C36.799 29.7907 36.9723 29.5803 37.195 29.4323C37.4176 29.2842 37.6796 29.2052 37.9477 29.2051C38.3042 29.2051 38.6464 29.3449 38.8997 29.5939C39.153 29.843 39.2969 30.1812 39.3002 30.535Z" fill="#E0EDFE"/>
<path d="M48.2167 30.535C48.2192 30.8011 48.142 31.0618 47.9949 31.2842C47.8478 31.5065 47.6374 31.6805 47.3905 31.784C47.1436 31.8875 46.8713 31.9159 46.6081 31.8655C46.3449 31.8151 46.1027 31.6883 45.9123 31.5011C45.7219 31.3138 45.5918 31.0747 45.5386 30.814C45.4854 30.5533 45.5115 30.2827 45.6135 30.0367C45.7155 29.7907 45.8888 29.5803 46.1115 29.4323C46.3341 29.2842 46.5961 29.2052 46.8642 29.2051C47.2207 29.2051 47.5629 29.3449 47.8162 29.5939C48.0695 29.843 48.2134 30.1812 48.2167 30.535Z" fill="#E0EDFE"/>
<path d="M57.1332 30.535C57.1357 30.8016 57.0582 31.0628 56.9105 31.2855C56.7629 31.5081 56.5518 31.682 56.3041 31.7851C56.0565 31.8883 55.7835 31.916 55.5199 31.8646C55.2564 31.8132 55.0143 31.685 54.8244 31.4966C54.6345 31.3081 54.5054 31.0678 54.4536 30.8062C54.4018 30.5447 54.4296 30.2738 54.5336 30.028C54.6375 29.7822 54.8128 29.5727 55.0371 29.4262C55.2615 29.2796 55.5247 29.2027 55.7932 29.2051C55.9692 29.2051 56.1435 29.2396 56.306 29.3064C56.4686 29.3732 56.6163 29.4712 56.7408 29.5947C56.8652 29.7182 56.9639 29.8647 57.0312 30.0261C57.0986 30.1874 57.1332 30.3604 57.1332 30.535Z" fill="#E0EDFE"/>
<path d="M66.0502 30.535C66.0527 30.8016 65.9752 31.0628 65.8275 31.2855C65.6799 31.5081 65.4688 31.682 65.2211 31.7851C64.9735 31.8883 64.7005 31.916 64.4369 31.8646C64.1734 31.8132 63.9313 31.685 63.7414 31.4966C63.5515 31.3081 63.4224 31.0678 63.3706 30.8062C63.3188 30.5447 63.3466 30.2738 63.4506 30.028C63.5545 29.7822 63.7298 29.5727 63.9541 29.4262C64.1785 29.2796 64.4416 29.2027 64.7102 29.2051C64.8862 29.2051 65.0604 29.2396 65.223 29.3064C65.3856 29.3732 65.5333 29.4712 65.6578 29.5947C65.7822 29.7182 65.8809 29.8647 65.9482 30.0261C66.0156 30.1874 66.0502 30.3604 66.0502 30.535Z" fill="#E0EDFE"/>
<path d="M74.9418 30.535C74.9443 30.8011 74.8671 31.0618 74.72 31.2842C74.5729 31.5065 74.3625 31.6805 74.1156 31.784C73.8687 31.8875 73.5964 31.9159 73.3332 31.8655C73.07 31.8151 72.8278 31.6883 72.6374 31.5011C72.447 31.3138 72.3169 31.0747 72.2637 30.814C72.2105 30.5533 72.2366 30.2827 72.3386 30.0367C72.4406 29.7907 72.6139 29.5803 72.8366 29.4323C73.0593 29.2842 73.3213 29.2052 73.5893 29.2051C73.9459 29.2051 74.288 29.3449 74.5413 29.5939C74.7946 29.843 74.9385 30.1812 74.9418 30.535Z" fill="#E0EDFE"/>
<path d="M83.8959 30.535C83.8984 30.8011 83.8212 31.0618 83.6741 31.2842C83.527 31.5065 83.3166 31.6805 83.0697 31.784C82.8228 31.8875 82.5505 31.9159 82.2873 31.8655C82.0241 31.8151 81.7819 31.6883 81.5915 31.5011C81.4011 31.3138 81.271 31.0747 81.2178 30.814C81.1646 30.5533 81.1907 30.2827 81.2927 30.0367C81.3947 29.7907 81.568 29.5803 81.7907 29.4323C82.0134 29.2842 82.2754 29.2052 82.5434 29.2051C82.9 29.2051 83.2421 29.3449 83.4954 29.5939C83.7487 29.843 83.8926 30.1812 83.8959 30.535Z" fill="#E0EDFE"/>
<path d="M30.3832 36.9979C30.3857 37.2639 30.3085 37.5246 30.1614 37.747C30.0143 37.9694 29.8039 38.1433 29.557 38.2468C29.3101 38.3504 29.0378 38.3787 28.7746 38.3283C28.5114 38.2779 28.2692 38.1511 28.0788 37.9639C27.8884 37.7767 27.7584 37.5375 27.7052 37.2767C27.6519 37.016 27.678 36.7456 27.7799 36.4996C27.8819 36.2535 28.0553 36.0431 28.278 35.8951C28.5007 35.747 28.7627 35.668 29.0307 35.668C29.3872 35.668 29.7294 35.8077 29.9827 36.0568C30.236 36.3058 30.3799 36.644 30.3832 36.9979Z" fill="#E0EDFE"/>
<path d="M39.3002 36.9979C39.3027 37.2639 39.2255 37.5246 39.0784 37.747C38.9313 37.9694 38.7209 38.1433 38.474 38.2468C38.2271 38.3504 37.9548 38.3787 37.6916 38.3283C37.4284 38.2779 37.1862 38.1511 36.9958 37.9639C36.8054 37.7767 36.6753 37.5375 36.6221 37.2767C36.5689 37.016 36.595 36.7456 36.697 36.4996C36.799 36.2535 36.9723 36.0431 37.195 35.8951C37.4176 35.747 37.6796 35.668 37.9477 35.668C38.3042 35.668 38.6464 35.8077 38.8997 36.0568C39.153 36.3058 39.2969 36.644 39.3002 36.9979Z" fill="#E0EDFE"/>
<path d="M48.2167 36.9979C48.2192 37.2639 48.142 37.5246 47.9949 37.747C47.8478 37.9694 47.6374 38.1433 47.3905 38.2468C47.1436 38.3504 46.8713 38.3787 46.6081 38.3283C46.3449 38.2779 46.1027 38.1511 45.9123 37.9639C45.7219 37.7767 45.5918 37.5375 45.5386 37.2767C45.4854 37.016 45.5115 36.7456 45.6135 36.4996C45.7155 36.2535 45.8888 36.0431 46.1115 35.8951C46.3341 35.747 46.5961 35.668 46.8642 35.668C47.2207 35.668 47.5629 35.8077 47.8162 36.0568C48.0695 36.3058 48.2134 36.644 48.2167 36.9979Z" fill="#E0EDFE"/>
<path d="M57.1332 36.9981C57.1357 37.2646 57.0582 37.5259 56.9105 37.7485C56.7629 37.9712 56.5518 38.1451 56.3041 38.2482C56.0565 38.3514 55.7835 38.379 55.5199 38.3276C55.2564 38.2763 55.0143 38.1481 54.8244 37.9596C54.6345 37.7712 54.5054 37.5309 54.4536 37.2693C54.4018 37.0078 54.4296 36.7368 54.5336 36.4911C54.6375 36.2453 54.8128 36.0358 55.0371 35.8893C55.2615 35.7427 55.5247 35.6658 55.7932 35.6682C56.1486 35.6682 56.4895 35.8083 56.7408 36.0578C56.9921 36.3072 57.1332 36.6454 57.1332 36.9981Z" fill="#E0EDFE"/>
<path d="M66.0502 36.9981C66.0527 37.2646 65.9752 37.5259 65.8275 37.7485C65.6799 37.9712 65.4688 38.1451 65.2211 38.2482C64.9735 38.3514 64.7005 38.379 64.4369 38.3276C64.1734 38.2763 63.9313 38.1481 63.7414 37.9596C63.5515 37.7712 63.4224 37.5309 63.3706 37.2693C63.3188 37.0078 63.3466 36.7368 63.4506 36.4911C63.5545 36.2453 63.7298 36.0358 63.9541 35.8893C64.1785 35.7427 64.4416 35.6658 64.7102 35.6682C65.0656 35.6682 65.4065 35.8083 65.6578 36.0578C65.9091 36.3072 66.0502 36.6454 66.0502 36.9981Z" fill="#E0EDFE"/>
<path d="M74.9418 36.9979C74.9443 37.2639 74.8671 37.5246 74.72 37.747C74.5729 37.9694 74.3625 38.1433 74.1156 38.2468C73.8687 38.3504 73.5964 38.3787 73.3332 38.3283C73.07 38.2779 72.8278 38.1511 72.6374 37.9639C72.447 37.7767 72.3169 37.5375 72.2637 37.2767C72.2105 37.016 72.2366 36.7456 72.3386 36.4996C72.4406 36.2535 72.6139 36.0431 72.8366 35.8951C73.0593 35.747 73.3213 35.668 73.5893 35.668C73.9459 35.668 74.288 35.8077 74.5413 36.0568C74.7946 36.3058 74.9385 36.644 74.9418 36.9979Z" fill="#E0EDFE"/>
<path d="M83.8959 36.9979C83.8984 37.2639 83.8212 37.5246 83.6741 37.747C83.527 37.9694 83.3166 38.1433 83.0697 38.2468C82.8228 38.3504 82.5505 38.3787 82.2873 38.3283C82.0241 38.2779 81.7819 38.1511 81.5915 37.9639C81.4011 37.7767 81.271 37.5375 81.2178 37.2767C81.1646 37.016 81.1907 36.7456 81.2927 36.4996C81.3947 36.2535 81.568 36.0431 81.7907 35.8951C82.0134 35.747 82.2754 35.668 82.5434 35.668C82.9 35.668 83.2421 35.8077 83.4954 36.0568C83.7487 36.3058 83.8926 36.644 83.8959 36.9979Z" fill="#E0EDFE"/>
<path d="M30.3832 43.5116C30.3857 43.7776 30.3085 44.0383 30.1614 44.2607C30.0143 44.483 29.8039 44.657 29.557 44.7605C29.3101 44.864 29.0378 44.8924 28.7746 44.842C28.5114 44.7916 28.2692 44.6648 28.0788 44.4776C27.8884 44.2903 27.7584 44.0512 27.7052 43.7905C27.6519 43.5298 27.678 43.2592 27.7799 43.0132C27.8819 42.7672 28.0553 42.5568 28.278 42.4088C28.5007 42.2607 28.7627 42.1817 29.0307 42.1816C29.3872 42.1816 29.7294 42.3214 29.9827 42.5704C30.236 42.8195 30.3799 43.1577 30.3832 43.5116Z" fill="#E0EDFE"/>
<path d="M39.3002 43.5116C39.3027 43.7776 39.2255 44.0383 39.0784 44.2607C38.9313 44.483 38.7209 44.657 38.474 44.7605C38.2271 44.864 37.9548 44.8924 37.6916 44.842C37.4284 44.7916 37.1862 44.6648 36.9958 44.4776C36.8054 44.2903 36.6753 44.0512 36.6221 43.7905C36.5689 43.5298 36.595 43.2592 36.697 43.0132C36.799 42.7672 36.9723 42.5568 37.195 42.4088C37.4176 42.2607 37.6796 42.1817 37.9477 42.1816C38.3042 42.1816 38.6464 42.3214 38.8997 42.5704C39.153 42.8195 39.2969 43.1577 39.3002 43.5116Z" fill="#E0EDFE"/>
<path d="M48.2167 43.5116C48.2192 43.7776 48.142 44.0383 47.9949 44.2607C47.8478 44.483 47.6374 44.657 47.3905 44.7605C47.1436 44.864 46.8713 44.8924 46.6081 44.842C46.3449 44.7916 46.1027 44.6648 45.9123 44.4776C45.7219 44.2903 45.5918 44.0512 45.5386 43.7905C45.4854 43.5298 45.5115 43.2592 45.6135 43.0132C45.7155 42.7672 45.8888 42.5568 46.1115 42.4088C46.3341 42.2607 46.5961 42.1817 46.8642 42.1816C47.2207 42.1816 47.5629 42.3214 47.8162 42.5704C48.0695 42.8195 48.2134 43.1577 48.2167 43.5116Z" fill="#E0EDFE"/>
<path d="M57.1332 43.5116C57.1357 43.7781 57.0582 44.0394 56.9105 44.262C56.7629 44.4847 56.5518 44.6586 56.3041 44.7617C56.0565 44.8648 55.7835 44.8925 55.5199 44.8411C55.2564 44.7897 55.0143 44.6616 54.8244 44.4731C54.6345 44.2847 54.5054 44.0443 54.4536 43.7828C54.4018 43.5213 54.4296 43.2503 54.5336 43.0046C54.6375 42.7588 54.8128 42.5493 55.0371 42.4028C55.2615 42.2562 55.5247 42.1792 55.7932 42.1817C56.1486 42.1817 56.4895 42.3218 56.7408 42.5712C56.9921 42.8206 57.1332 43.1589 57.1332 43.5116Z" fill="#E0EDFE"/>
<path d="M66.0502 43.5116C66.0527 43.7781 65.9752 44.0394 65.8275 44.262C65.6799 44.4847 65.4688 44.6586 65.2211 44.7617C64.9735 44.8648 64.7005 44.8925 64.4369 44.8411C64.1734 44.7897 63.9313 44.6616 63.7414 44.4731C63.5515 44.2847 63.4224 44.0443 63.3706 43.7828C63.3188 43.5213 63.3466 43.2503 63.4506 43.0046C63.5545 42.7588 63.7298 42.5493 63.9541 42.4028C64.1785 42.2562 64.4416 42.1792 64.7102 42.1817C65.0656 42.1817 65.4065 42.3218 65.6578 42.5712C65.9091 42.8206 66.0502 43.1589 66.0502 43.5116Z" fill="#E0EDFE"/>
<path d="M74.9418 43.5116C74.9443 43.7776 74.8671 44.0383 74.72 44.2607C74.5729 44.483 74.3625 44.657 74.1156 44.7605C73.8687 44.864 73.5964 44.8924 73.3332 44.842C73.07 44.7916 72.8278 44.6648 72.6374 44.4776C72.447 44.2903 72.3169 44.0512 72.2637 43.7905C72.2105 43.5298 72.2366 43.2592 72.3386 43.0132C72.4406 42.7672 72.6139 42.5568 72.8366 42.4088C73.0593 42.2607 73.3213 42.1817 73.5893 42.1816C73.9459 42.1816 74.288 42.3214 74.5413 42.5704C74.7946 42.8195 74.9385 43.1577 74.9418 43.5116Z" fill="#E0EDFE"/>
<path d="M83.8959 43.5116C83.8984 43.7776 83.8212 44.0383 83.6741 44.2607C83.527 44.483 83.3166 44.657 83.0697 44.7605C82.8228 44.864 82.5505 44.8924 82.2873 44.842C82.0241 44.7916 81.7819 44.6648 81.5915 44.4776C81.4011 44.2903 81.271 44.0512 81.2178 43.7905C81.1646 43.5298 81.1907 43.2592 81.2927 43.0132C81.3947 42.7672 81.568 42.5568 81.7907 42.4088C82.0134 42.2607 82.2754 42.1817 82.5434 42.1816C82.9 42.1816 83.2421 42.3214 83.4954 42.5704C83.7487 42.8195 83.8926 43.1577 83.8959 43.5116Z" fill="#E0EDFE"/>
<path d="M30.3832 50.0233C30.3857 50.2893 30.3085 50.55 30.1614 50.7724C30.0143 50.9948 29.8039 51.1687 29.557 51.2722C29.3101 51.3757 29.0378 51.4041 28.7746 51.3537C28.5114 51.3033 28.2692 51.1765 28.0788 50.9893C27.8884 50.8021 27.7584 50.5629 27.7052 50.3022C27.6519 50.0415 27.678 49.7709 27.7799 49.5249C27.8819 49.2789 28.0553 49.0685 28.278 48.9205C28.5007 48.7724 28.7627 48.6934 29.0307 48.6934C29.3872 48.6933 29.7294 48.8331 29.9827 49.0821C30.236 49.3312 30.3799 49.6694 30.3832 50.0233Z" fill="#E0EDFE"/>
<path d="M39.3002 50.0233C39.3027 50.2893 39.2255 50.55 39.0784 50.7724C38.9313 50.9948 38.7209 51.1687 38.474 51.2722C38.2271 51.3757 37.9548 51.4041 37.6916 51.3537C37.4284 51.3033 37.1862 51.1765 36.9958 50.9893C36.8054 50.8021 36.6753 50.5629 36.6221 50.3022C36.5689 50.0415 36.595 49.7709 36.697 49.5249C36.799 49.2789 36.9723 49.0685 37.195 48.9205C37.4176 48.7724 37.6796 48.6934 37.9477 48.6934C38.3042 48.6933 38.6464 48.8331 38.8997 49.0821C39.153 49.3312 39.2969 49.6694 39.3002 50.0233Z" fill="#E0EDFE"/>
<path d="M48.2167 50.0233C48.2192 50.2893 48.142 50.55 47.9949 50.7724C47.8478 50.9948 47.6374 51.1687 47.3905 51.2722C47.1436 51.3757 46.8713 51.4041 46.6081 51.3537C46.3449 51.3033 46.1027 51.1765 45.9123 50.9893C45.7219 50.8021 45.5918 50.5629 45.5386 50.3022C45.4854 50.0415 45.5115 49.7709 45.6135 49.5249C45.7155 49.2789 45.8888 49.0685 46.1115 48.9205C46.3341 48.7724 46.5961 48.6934 46.8642 48.6934C47.2207 48.6933 47.5629 48.8331 47.8162 49.0821C48.0695 49.3312 48.2134 49.6694 48.2167 50.0233Z" fill="#E0EDFE"/>
<path d="M57.1332 50.0233C57.1357 50.2899 57.0582 50.5511 56.9105 50.7737C56.7629 50.9964 56.5518 51.1704 56.3041 51.2735C56.0565 51.3766 55.7835 51.4043 55.5199 51.3529C55.2564 51.3015 55.0143 51.1733 54.8244 50.9849C54.6345 50.7964 54.5054 50.5561 54.4536 50.2945C54.4018 50.033 54.4296 49.7621 54.5336 49.5163C54.6375 49.2705 54.8128 49.061 55.0371 48.9145C55.2615 48.7679 55.5247 48.691 55.7932 48.6934C55.9692 48.6934 56.1435 48.7279 56.306 48.7947C56.4686 48.8615 56.6163 48.9595 56.7408 49.083C56.8652 49.2065 56.9639 49.353 57.0312 49.5144C57.0986 49.6757 57.1332 49.8487 57.1332 50.0233Z" fill="#E0EDFE"/>
<path d="M66.0502 50.0233C66.0527 50.2899 65.9752 50.5511 65.8275 50.7737C65.6799 50.9964 65.4688 51.1704 65.2211 51.2735C64.9735 51.3766 64.7005 51.4043 64.4369 51.3529C64.1734 51.3015 63.9313 51.1733 63.7414 50.9849C63.5515 50.7964 63.4224 50.5561 63.3706 50.2945C63.3188 50.033 63.3466 49.7621 63.4506 49.5163C63.5545 49.2705 63.7298 49.061 63.9541 48.9145C64.1785 48.7679 64.4416 48.691 64.7102 48.6934C64.8862 48.6934 65.0604 48.7279 65.223 48.7947C65.3856 48.8615 65.5333 48.9595 65.6578 49.083C65.7822 49.2065 65.8809 49.353 65.9482 49.5144C66.0156 49.6757 66.0502 49.8487 66.0502 50.0233Z" fill="#E0EDFE"/>
<path d="M74.9418 50.0233C74.9443 50.2893 74.8671 50.55 74.72 50.7724C74.5729 50.9948 74.3625 51.1687 74.1156 51.2722C73.8687 51.3757 73.5964 51.4041 73.3332 51.3537C73.07 51.3033 72.8278 51.1765 72.6374 50.9893C72.447 50.8021 72.3169 50.5629 72.2637 50.3022C72.2105 50.0415 72.2366 49.7709 72.3386 49.5249C72.4406 49.2789 72.6139 49.0685 72.8366 48.9205C73.0593 48.7724 73.3213 48.6934 73.5893 48.6934C73.9459 48.6933 74.288 48.8331 74.5413 49.0821C74.7946 49.3312 74.9385 49.6694 74.9418 50.0233Z" fill="#E0EDFE"/>
<path d="M83.8959 50.0233C83.8984 50.2893 83.8212 50.55 83.6741 50.7724C83.527 50.9948 83.3166 51.1687 83.0697 51.2722C82.8228 51.3757 82.5505 51.4041 82.2873 51.3537C82.0241 51.3033 81.7819 51.1765 81.5915 50.9893C81.4011 50.8021 81.271 50.5629 81.2178 50.3022C81.1646 50.0415 81.1907 49.7709 81.2927 49.5249C81.3947 49.2789 81.568 49.0685 81.7907 48.9205C82.0134 48.7724 82.2754 48.6934 82.5434 48.6934C82.9 48.6933 83.2421 48.8331 83.4954 49.0821C83.7487 49.3312 83.8926 49.6694 83.8959 50.0233Z" fill="#E0EDFE"/>
<path d="M30.3833 56.5356C30.3833 56.8011 30.3039 57.0607 30.1553 57.2814C30.0067 57.5022 29.7955 57.6742 29.5483 57.7758C29.3012 57.8774 29.0292 57.904 28.7669 57.8522C28.5045 57.8004 28.2635 57.6725 28.0744 57.4848C27.8852 57.2971 27.7564 57.0579 27.7042 56.7975C27.652 56.5371 27.6788 56.2673 27.7812 56.022C27.8836 55.7767 28.0569 55.5671 28.2793 55.4196C28.5017 55.2721 28.7632 55.1934 29.0307 55.1934C29.3884 55.1966 29.7306 55.339 29.9835 55.59C30.2365 55.8411 30.38 56.1806 30.3833 56.5356Z" fill="#E0EDFE"/>
<path d="M39.2998 56.5356C39.2998 56.8011 39.2205 57.0607 39.0719 57.2814C38.9232 57.5022 38.712 57.6742 38.4648 57.7758C38.2177 57.8774 37.9457 57.904 37.6834 57.8522C37.421 57.8004 37.18 57.6725 36.9909 57.4848C36.8017 57.2971 36.6729 57.0579 36.6207 56.7975C36.5685 56.5371 36.5953 56.2673 36.6977 56.022C36.8001 55.7767 36.9734 55.5671 37.1958 55.4196C37.4183 55.2721 37.6797 55.1934 37.9472 55.1934C38.1249 55.1934 38.3007 55.228 38.4648 55.2955C38.6289 55.3629 38.778 55.4618 38.9036 55.5865C39.0292 55.7111 39.1289 55.8591 39.1968 56.022C39.2648 56.1848 39.2998 56.3594 39.2998 56.5356Z" fill="#E0EDFE"/>
<path d="M48.2168 56.5356C48.2168 56.8011 48.1375 57.0607 47.9889 57.2814C47.8402 57.5022 47.629 57.6742 47.3818 57.7758C47.1347 57.8774 46.8627 57.904 46.6004 57.8522C46.338 57.8004 46.097 57.6725 45.9079 57.4848C45.7187 57.2971 45.5899 57.0579 45.5377 56.7975C45.4855 56.5371 45.5123 56.2673 45.6147 56.022C45.717 55.7767 45.8904 55.5671 46.1128 55.4196C46.3352 55.2721 46.5967 55.1934 46.8642 55.1934C47.0419 55.1934 47.2177 55.228 47.3818 55.2955C47.5459 55.3629 47.6951 55.4618 47.8207 55.5865C47.9463 55.7111 48.0459 55.8591 48.1138 56.022C48.1818 56.1848 48.2168 56.3594 48.2168 56.5356Z" fill="#E0EDFE"/>
<path d="M57.1333 56.5357C57.1333 56.8017 57.0536 57.0618 56.9044 57.2828C56.7553 57.5038 56.5433 57.6758 56.2954 57.777C56.0475 57.8782 55.7749 57.9041 55.5122 57.8513C55.2495 57.7985 55.0086 57.6694 54.8199 57.4804C54.6313 57.2914 54.5035 57.0511 54.4527 56.7899C54.4019 56.5287 54.4305 56.2584 54.5348 56.0134C54.6391 55.7683 54.8144 55.5596 55.0384 55.4136C55.2625 55.2676 55.5252 55.191 55.7933 55.1934C56.1498 55.1967 56.4906 55.3395 56.7416 55.5909C56.9925 55.8423 57.1333 56.1818 57.1333 56.5357Z" fill="#E0EDFE"/>
<path d="M66.0503 56.5357C66.0503 56.8017 65.9706 57.0618 65.8214 57.2828C65.6722 57.5038 65.4603 57.6758 65.2124 57.777C64.9645 57.8782 64.6919 57.9041 64.4292 57.8513C64.1665 57.7985 63.9256 57.6694 63.7369 57.4804C63.5483 57.2914 63.4205 57.0511 63.3697 56.7899C63.3189 56.5287 63.3475 56.2584 63.4518 56.0134C63.5561 55.7683 63.7314 55.5596 63.9555 55.4136C64.1795 55.2676 64.4422 55.191 64.7103 55.1934C65.0668 55.1967 65.4076 55.3395 65.6586 55.5909C65.9095 55.8423 66.0503 56.1818 66.0503 56.5357Z" fill="#E0EDFE"/>
<path d="M74.9419 56.5356C74.9419 56.8011 74.8626 57.0607 74.714 57.2814C74.5653 57.5022 74.3541 57.6742 74.107 57.7758C73.8598 57.8774 73.5878 57.904 73.3255 57.8522C73.0631 57.8004 72.8221 57.6725 72.633 57.4848C72.4438 57.2971 72.315 57.0579 72.2628 56.7975C72.2106 56.5371 72.2374 56.2673 72.3398 56.022C72.4421 55.7767 72.6155 55.5671 72.8379 55.4196C73.0603 55.2721 73.3219 55.1934 73.5894 55.1934C73.9471 55.1966 74.2892 55.339 74.5421 55.59C74.7951 55.8411 74.9386 56.1806 74.9419 56.5356Z" fill="#E0EDFE"/>
<path d="M83.896 56.5356C83.896 56.8011 83.8167 57.0607 83.6681 57.2814C83.5194 57.5022 83.3082 57.6742 83.0611 57.7758C82.8139 57.8774 82.542 57.904 82.2796 57.8522C82.0172 57.8004 81.7762 57.6725 81.5871 57.4848C81.3979 57.2971 81.2691 57.0579 81.2169 56.7975C81.1647 56.5371 81.1915 56.2673 81.2939 56.022C81.3962 55.7767 81.5696 55.5671 81.792 55.4196C82.0144 55.2721 82.276 55.1934 82.5435 55.1934C82.7211 55.1934 82.897 55.228 83.0611 55.2955C83.2252 55.3629 83.3743 55.4618 83.4999 55.5865C83.6255 55.7111 83.7251 55.8591 83.793 56.022C83.861 56.1848 83.896 56.3594 83.896 56.5356Z" fill="#E0EDFE"/>
<path d="M30.3833 63.0492C30.3833 63.3147 30.3039 63.5743 30.1553 63.795C30.0067 64.0158 29.7955 64.1878 29.5483 64.2894C29.3012 64.391 29.0292 64.4176 28.7669 64.3658C28.5045 64.314 28.2635 64.1861 28.0744 63.9984C27.8852 63.8107 27.7564 63.5716 27.7042 63.3112C27.652 63.0508 27.6788 62.7809 27.7812 62.5356C27.8836 62.2903 28.0569 62.0807 28.2793 61.9332C28.5017 61.7857 28.7632 61.707 29.0307 61.707C29.3884 61.7102 29.7306 61.8527 29.9835 62.1037C30.2365 62.3548 30.38 62.6942 30.3833 63.0492Z" fill="#E0EDFE"/>
<path d="M39.2998 63.0492C39.2998 63.3147 39.2205 63.5743 39.0719 63.795C38.9232 64.0158 38.712 64.1878 38.4648 64.2894C38.2177 64.391 37.9457 64.4176 37.6834 64.3658C37.421 64.314 37.18 64.1861 36.9909 63.9984C36.8017 63.8107 36.6729 63.5716 36.6207 63.3112C36.5685 63.0508 36.5953 62.7809 36.6977 62.5356C36.8001 62.2903 36.9734 62.0807 37.1958 61.9332C37.4183 61.7857 37.6797 61.707 37.9472 61.707C38.306 61.707 38.65 61.8483 38.9036 62.1001C39.1573 62.3518 39.2998 62.6932 39.2998 63.0492Z" fill="#E0EDFE"/>
<path d="M48.2168 63.0492C48.2168 63.3147 48.1375 63.5743 47.9889 63.795C47.8402 64.0158 47.629 64.1878 47.3818 64.2894C47.1347 64.391 46.8627 64.4176 46.6004 64.3658C46.338 64.314 46.097 64.1861 45.9079 63.9984C45.7187 63.8107 45.5899 63.5716 45.5377 63.3112C45.4855 63.0508 45.5123 62.7809 45.6147 62.5356C45.717 62.2903 45.8904 62.0807 46.1128 61.9332C46.3352 61.7857 46.5967 61.707 46.8642 61.707C47.223 61.707 47.567 61.8483 47.8207 62.1001C48.0743 62.3518 48.2168 62.6932 48.2168 63.0492Z" fill="#E0EDFE"/>
<path d="M57.1333 63.0492C57.1333 63.3153 57.0536 63.5753 56.9044 63.7963C56.7553 64.0173 56.5433 64.1893 56.2954 64.2905C56.0475 64.3918 55.7749 64.4176 55.5122 64.3648C55.2495 64.312 55.0086 64.1829 54.8199 63.9939C54.6313 63.805 54.5035 63.5647 54.4527 63.3035C54.4019 63.0423 54.4305 62.772 54.5348 62.5269C54.6391 62.2819 54.8144 62.0731 55.0384 61.9271C55.2625 61.7811 55.5252 61.7045 55.7933 61.707C56.1498 61.7102 56.4906 61.8531 56.7416 62.1045C56.9925 62.3559 57.1333 62.6954 57.1333 63.0492Z" fill="#E0EDFE"/>
<path d="M66.0503 63.0492C66.0503 63.3153 65.9706 63.5753 65.8214 63.7963C65.6722 64.0173 65.4603 64.1893 65.2124 64.2905C64.9645 64.3918 64.6919 64.4176 64.4292 64.3648C64.1665 64.312 63.9256 64.1829 63.7369 63.9939C63.5483 63.805 63.4205 63.5647 63.3697 63.3035C63.3189 63.0423 63.3475 62.772 63.4518 62.5269C63.5561 62.2819 63.7314 62.0731 63.9555 61.9271C64.1795 61.7811 64.4422 61.7045 64.7103 61.707C65.0668 61.7102 65.4076 61.8531 65.6586 62.1045C65.9095 62.3559 66.0503 62.6954 66.0503 63.0492Z" fill="#E0EDFE"/>
<path d="M74.9419 63.0492C74.9419 63.3147 74.8626 63.5743 74.714 63.795C74.5653 64.0158 74.3541 64.1878 74.107 64.2894C73.8598 64.391 73.5878 64.4176 73.3255 64.3658C73.0631 64.314 72.8221 64.1861 72.633 63.9984C72.4438 63.8107 72.315 63.5716 72.2628 63.3112C72.2106 63.0508 72.2374 62.7809 72.3398 62.5356C72.4421 62.2903 72.6155 62.0807 72.8379 61.9332C73.0603 61.7857 73.3219 61.707 73.5894 61.707C73.9471 61.7102 74.2892 61.8527 74.5421 62.1037C74.7951 62.3548 74.9386 62.6942 74.9419 63.0492Z" fill="#E0EDFE"/>
<path d="M83.896 63.0492C83.896 63.3147 83.8167 63.5743 83.6681 63.795C83.5194 64.0158 83.3082 64.1878 83.0611 64.2894C82.8139 64.391 82.542 64.4176 82.2796 64.3658C82.0172 64.314 81.7762 64.1861 81.5871 63.9984C81.3979 63.8107 81.2691 63.5716 81.2169 63.3112C81.1647 63.0508 81.1915 62.7809 81.2939 62.5356C81.3962 62.2903 81.5696 62.0807 81.792 61.9332C82.0144 61.7857 82.276 61.707 82.5435 61.707C82.9022 61.707 83.2462 61.8483 83.4999 62.1001C83.7535 62.3518 83.896 62.6932 83.896 63.0492Z" fill="#E0EDFE"/>
<path d="M30.3833 69.5631C30.3833 69.8285 30.3039 70.088 30.1553 70.3088C30.0067 70.5295 29.7955 70.7015 29.5483 70.8031C29.3012 70.9047 29.0292 70.9313 28.7669 70.8795C28.5045 70.8277 28.2635 70.6999 28.0744 70.5122C27.8852 70.3245 27.7564 70.0853 27.7042 69.8249C27.652 69.5645 27.6788 69.2946 27.7812 69.0493C27.8836 68.804 28.0569 68.5944 28.2793 68.4469C28.5017 68.2994 28.7632 68.2207 29.0307 68.2207C29.3895 68.2207 29.7335 68.3622 29.9871 68.6139C30.2408 68.8656 30.3833 69.207 30.3833 69.5631Z" fill="#E0EDFE"/>
<path d="M39.2998 69.5612C39.2998 69.8266 39.2205 70.0861 39.0719 70.3069C38.9232 70.5276 38.712 70.6997 38.4648 70.8013C38.2177 70.9028 37.9457 70.9294 37.6834 70.8776C37.421 70.8258 37.18 70.6981 36.9909 70.5103C36.8017 70.3226 36.6729 70.0834 36.6207 69.823C36.5685 69.5626 36.5953 69.2927 36.6977 69.0474C36.8001 68.8022 36.9734 68.5925 37.1958 68.445C37.4183 68.2975 37.6797 68.2188 37.9472 68.2188C38.1253 68.2171 38.302 68.2507 38.4668 68.3176C38.6317 68.3844 38.7814 68.4833 38.9074 68.6083C39.0333 68.7333 39.1329 68.8819 39.2002 69.0455C39.2676 69.2091 39.3015 69.3844 39.2998 69.5612Z" fill="#E0EDFE"/>
<path d="M48.2168 69.5612C48.2168 69.8266 48.1375 70.0861 47.9889 70.3069C47.8402 70.5276 47.629 70.6997 47.3818 70.8013C47.1347 70.9028 46.8627 70.9294 46.6004 70.8776C46.338 70.8258 46.097 70.6981 45.9079 70.5103C45.7187 70.3226 45.5899 70.0834 45.5377 69.823C45.4855 69.5626 45.5123 69.2927 45.6147 69.0474C45.717 68.8022 45.8904 68.5925 46.1128 68.445C46.3352 68.2975 46.5967 68.2188 46.8642 68.2188C47.0423 68.2171 47.219 68.2507 47.3838 68.3176C47.5487 68.3844 47.6984 68.4833 47.8244 68.6083C47.9503 68.7333 48.0499 68.8819 48.1172 69.0455C48.1846 69.2091 48.2185 69.3844 48.2168 69.5612Z" fill="#E0EDFE"/>
<path d="M57.1333 69.5612C57.1333 69.8272 57.0536 70.0872 56.9044 70.3082C56.7553 70.5292 56.5433 70.7012 56.2954 70.8024C56.0475 70.9036 55.7749 70.9295 55.5122 70.8767C55.2495 70.8238 55.0086 70.6948 54.8199 70.5058C54.6313 70.3169 54.5035 70.0765 54.4527 69.8153C54.4019 69.5541 54.4305 69.2838 54.5348 69.0388C54.6391 68.7937 54.8144 68.5849 55.0384 68.439C55.2625 68.293 55.5252 68.2163 55.7933 68.2188C55.9703 68.2188 56.1456 68.2536 56.309 68.3212C56.4724 68.3888 56.6207 68.4879 56.7453 68.6127C56.8698 68.7375 56.9683 68.8856 57.0349 69.0483C57.1015 69.2111 57.1349 69.3855 57.1333 69.5612Z" fill="#E0EDFE"/>
<path d="M66.0503 69.5612C66.0503 69.8272 65.9706 70.0872 65.8214 70.3082C65.6722 70.5292 65.4603 70.7012 65.2124 70.8024C64.9645 70.9036 64.6919 70.9295 64.4292 70.8767C64.1665 70.8238 63.9256 70.6948 63.7369 70.5058C63.5483 70.3169 63.4205 70.0765 63.3697 69.8153C63.3189 69.5541 63.3475 69.2838 63.4518 69.0388C63.5561 68.7937 63.7314 68.5849 63.9555 68.439C64.1795 68.293 64.4422 68.2163 64.7103 68.2188C64.8873 68.2188 65.0626 68.2536 65.226 68.3212C65.3894 68.3888 65.5376 68.4879 65.6622 68.6127C65.7868 68.7375 65.8853 68.8856 65.9519 69.0483C66.0185 69.2111 66.0519 69.3855 66.0503 69.5612Z" fill="#E0EDFE"/>
<path d="M74.9419 69.5631C74.9419 69.8285 74.8626 70.088 74.714 70.3088C74.5653 70.5295 74.3541 70.7015 74.107 70.8031C73.8598 70.9047 73.5878 70.9313 73.3255 70.8795C73.0631 70.8277 72.8221 70.6999 72.633 70.5122C72.4438 70.3245 72.315 70.0853 72.2628 69.8249C72.2106 69.5645 72.2374 69.2946 72.3398 69.0493C72.4421 68.804 72.6155 68.5944 72.8379 68.4469C73.0603 68.2994 73.3219 68.2207 73.5894 68.2207C73.9481 68.2207 74.2921 68.3622 74.5458 68.6139C74.7994 68.8656 74.9419 69.207 74.9419 69.5631Z" fill="#E0EDFE"/>
<path d="M83.896 69.5612C83.896 69.8266 83.8167 70.0861 83.6681 70.3069C83.5194 70.5276 83.3082 70.6997 83.0611 70.8013C82.8139 70.9028 82.542 70.9294 82.2796 70.8776C82.0172 70.8258 81.7762 70.6981 81.5871 70.5103C81.3979 70.3226 81.2691 70.0834 81.2169 69.823C81.1647 69.5626 81.1915 69.2927 81.2939 69.0474C81.3962 68.8022 81.5696 68.5925 81.792 68.445C82.0144 68.2975 82.276 68.2188 82.5435 68.2188C82.7216 68.2171 82.8982 68.2507 83.063 68.3176C83.2279 68.3844 83.3776 68.4833 83.5036 68.6083C83.6295 68.7333 83.7291 68.8819 83.7964 69.0455C83.8638 69.2091 83.8977 69.3844 83.896 69.5612Z" fill="#E0EDFE"/>
<path d="M30.3833 76.0748C30.3833 76.3403 30.3039 76.5998 30.1553 76.8205C30.0067 77.0413 29.7955 77.2134 29.5483 77.315C29.3012 77.4166 29.0292 77.4431 28.7669 77.3913C28.5045 77.3395 28.2635 77.2117 28.0744 77.024C27.8852 76.8363 27.7564 76.5971 27.7042 76.3367C27.652 76.0763 27.6788 75.8064 27.7812 75.5611C27.8836 75.3158 28.0569 75.1062 28.2793 74.9587C28.5017 74.8112 28.7632 74.7325 29.0307 74.7325C29.3895 74.7325 29.7335 74.8739 29.9871 75.1257C30.2408 75.3774 30.3833 75.7188 30.3833 76.0748Z" fill="#E0EDFE"/>
<path d="M39.2998 76.0748C39.2998 76.3403 39.2205 76.5998 39.0719 76.8205C38.9232 77.0413 38.712 77.2134 38.4648 77.315C38.2177 77.4166 37.9457 77.4431 37.6834 77.3913C37.421 77.3395 37.18 77.2117 36.9909 77.024C36.8017 76.8363 36.6729 76.5971 36.6207 76.3367C36.5685 76.0763 36.5953 75.8064 36.6977 75.5611C36.8001 75.3158 36.9734 75.1062 37.1958 74.9587C37.4183 74.8112 37.6797 74.7325 37.9472 74.7325C38.1253 74.7308 38.302 74.7644 38.4668 74.8313C38.6317 74.8981 38.7814 74.997 38.9074 75.1219C39.0333 75.2469 39.1329 75.3955 39.2002 75.5591C39.2676 75.7227 39.3015 75.8981 39.2998 76.0748Z" fill="#E0EDFE"/>
<path d="M48.2168 76.0748C48.2168 76.3403 48.1375 76.5998 47.9889 76.8205C47.8402 77.0413 47.629 77.2134 47.3818 77.315C47.1347 77.4166 46.8627 77.4431 46.6004 77.3913C46.338 77.3395 46.097 77.2117 45.9079 77.024C45.7187 76.8363 45.5899 76.5971 45.5377 76.3367C45.4855 76.0763 45.5123 75.8064 45.6147 75.5611C45.717 75.3158 45.8904 75.1062 46.1128 74.9587C46.3352 74.8112 46.5967 74.7325 46.8642 74.7325C47.0423 74.7308 47.219 74.7644 47.3838 74.8313C47.5487 74.8981 47.6984 74.997 47.8244 75.1219C47.9503 75.2469 48.0499 75.3955 48.1172 75.5591C48.1846 75.7227 48.2185 75.8981 48.2168 76.0748Z" fill="#E0EDFE"/>
<path d="M57.1333 76.0748C57.1333 76.3408 57.0536 76.6008 56.9044 76.8218C56.7553 77.0428 56.5433 77.2149 56.2954 77.3161C56.0475 77.4174 55.7749 77.4432 55.5122 77.3904C55.2495 77.3376 55.0086 77.2085 54.8199 77.0195C54.6313 76.8305 54.5035 76.5902 54.4527 76.329C54.4019 76.0678 54.4305 75.7975 54.5348 75.5525C54.6391 75.3074 54.8144 75.0986 55.0384 74.9526C55.2625 74.8066 55.5252 74.73 55.7933 74.7325C55.9703 74.7325 56.1456 74.7673 56.309 74.8349C56.4724 74.9025 56.6207 75.0016 56.7453 75.1264C56.8698 75.2512 56.9683 75.3993 57.0349 75.5621C57.1015 75.7249 57.1349 75.8991 57.1333 76.0748Z" fill="#E0EDFE"/>
<path d="M66.0503 76.0748C66.0503 76.3408 65.9706 76.6008 65.8214 76.8218C65.6722 77.0428 65.4603 77.2149 65.2124 77.3161C64.9645 77.4174 64.6919 77.4432 64.4292 77.3904C64.1665 77.3376 63.9256 77.2085 63.7369 77.0195C63.5483 76.8305 63.4205 76.5902 63.3697 76.329C63.3189 76.0678 63.3475 75.7975 63.4518 75.5525C63.5561 75.3074 63.7314 75.0986 63.9555 74.9526C64.1795 74.8066 64.4422 74.73 64.7103 74.7325C64.8873 74.7325 65.0626 74.7673 65.226 74.8349C65.3894 74.9025 65.5376 75.0016 65.6622 75.1264C65.7868 75.2512 65.8853 75.3993 65.9519 75.5621C66.0185 75.7249 66.0519 75.8991 66.0503 76.0748Z" fill="#E0EDFE"/>
<path d="M74.9419 76.0748C74.9419 76.3403 74.8626 76.5998 74.714 76.8205C74.5653 77.0413 74.3541 77.2134 74.107 77.315C73.8598 77.4166 73.5878 77.4431 73.3255 77.3913C73.0631 77.3395 72.8221 77.2117 72.633 77.024C72.4438 76.8363 72.315 76.5971 72.2628 76.3367C72.2106 76.0763 72.2374 75.8064 72.3398 75.5611C72.4421 75.3158 72.6155 75.1062 72.8379 74.9587C73.0603 74.8112 73.3219 74.7325 73.5894 74.7325C73.9481 74.7325 74.2921 74.8739 74.5458 75.1257C74.7994 75.3774 74.9419 75.7188 74.9419 76.0748Z" fill="#E0EDFE"/>
<path d="M83.896 76.0748C83.896 76.3403 83.8167 76.5998 83.6681 76.8205C83.5194 77.0413 83.3082 77.2134 83.0611 77.315C82.8139 77.4166 82.542 77.4431 82.2796 77.3913C82.0172 77.3395 81.7762 77.2117 81.5871 77.024C81.3979 76.8363 81.2691 76.5971 81.2169 76.3367C81.1647 76.0763 81.1915 75.8064 81.2939 75.5611C81.3962 75.3158 81.5696 75.1062 81.792 74.9587C82.0144 74.8112 82.276 74.7325 82.5435 74.7325C82.7216 74.7308 82.8982 74.7644 83.063 74.8313C83.2279 74.8981 83.3776 74.997 83.5036 75.1219C83.6295 75.2469 83.7291 75.3955 83.7964 75.5591C83.8638 75.7227 83.8977 75.8981 83.896 76.0748Z" fill="#E0EDFE"/>
<path d="M30.3833 82.5884C30.3833 82.8539 30.3039 83.1135 30.1553 83.3342C30.0067 83.555 29.7955 83.727 29.5483 83.8286C29.3012 83.9302 29.0292 83.9568 28.7669 83.905C28.5045 83.8532 28.2635 83.7253 28.0744 83.5376C27.8852 83.3499 27.7564 83.1107 27.7042 82.8503C27.652 82.5899 27.6788 82.32 27.7812 82.0747C27.8836 81.8294 28.0569 81.6198 28.2793 81.4723C28.5017 81.3248 28.7632 81.2461 29.0307 81.2461C29.3895 81.2461 29.7335 81.3875 29.9871 81.6393C30.2408 81.891 30.3833 82.2324 30.3833 82.5884Z" fill="#E0EDFE"/>
<path d="M39.2998 82.5885C39.2998 82.854 39.2205 83.1135 39.0719 83.3343C38.9232 83.555 38.712 83.7271 38.4648 83.8287C38.2177 83.9303 37.9457 83.9569 37.6834 83.9051C37.421 83.8533 37.18 83.7254 36.9909 83.5377C36.8017 83.3499 36.6729 83.1108 36.6207 82.8504C36.5685 82.59 36.5953 82.3201 36.6977 82.0748C36.8001 81.8295 36.9734 81.6199 37.1958 81.4724C37.4183 81.3249 37.6797 81.2462 37.9472 81.2462C38.1253 81.2445 38.302 81.2781 38.4668 81.345C38.6317 81.4119 38.7814 81.5106 38.9074 81.6356C39.0333 81.7606 39.1329 81.9093 39.2002 82.0729C39.2676 82.2365 39.3015 82.4118 39.2998 82.5885Z" fill="#E0EDFE"/>
<path d="M48.2168 82.5885C48.2168 82.854 48.1375 83.1135 47.9889 83.3343C47.8402 83.555 47.629 83.7271 47.3818 83.8287C47.1347 83.9303 46.8627 83.9569 46.6004 83.9051C46.338 83.8533 46.097 83.7254 45.9079 83.5377C45.7187 83.3499 45.5899 83.1108 45.5377 82.8504C45.4855 82.59 45.5123 82.3201 45.6147 82.0748C45.717 81.8295 45.8904 81.6199 46.1128 81.4724C46.3352 81.3249 46.5967 81.2462 46.8642 81.2462C47.0423 81.2445 47.219 81.2781 47.3838 81.345C47.5487 81.4119 47.6984 81.5106 47.8244 81.6356C47.9503 81.7606 48.0499 81.9093 48.1172 82.0729C48.1846 82.2365 48.2185 82.4118 48.2168 82.5885Z" fill="#E0EDFE"/>
<path d="M57.1333 82.5885C57.1333 82.8545 57.0536 83.1145 56.9044 83.3355C56.7553 83.5565 56.5433 83.7286 56.2954 83.8298C56.0475 83.931 55.7749 83.9569 55.5122 83.9041C55.2495 83.8513 55.0086 83.7222 54.8199 83.5332C54.6313 83.3442 54.5035 83.1038 54.4527 82.8426C54.4019 82.5814 54.4305 82.3112 54.5348 82.0661C54.6391 81.8211 54.8144 81.6123 55.0384 81.4663C55.2625 81.3203 55.5252 81.2437 55.7933 81.2462C55.9703 81.2461 56.1456 81.281 56.309 81.3486C56.4724 81.4162 56.6207 81.5153 56.7453 81.6401C56.8698 81.7649 56.9683 81.913 57.0349 82.0758C57.1015 82.2385 57.1349 82.4128 57.1333 82.5885Z" fill="#E0EDFE"/>
<path d="M66.0503 82.5885C66.0503 82.8545 65.9706 83.1145 65.8214 83.3355C65.6722 83.5565 65.4603 83.7286 65.2124 83.8298C64.9645 83.931 64.6919 83.9569 64.4292 83.9041C64.1665 83.8513 63.9256 83.7222 63.7369 83.5332C63.5483 83.3442 63.4205 83.1038 63.3697 82.8426C63.3189 82.5814 63.3475 82.3112 63.4518 82.0661C63.5561 81.8211 63.7314 81.6123 63.9555 81.4663C64.1795 81.3203 64.4422 81.2437 64.7103 81.2462C64.8873 81.2461 65.0626 81.281 65.226 81.3486C65.3894 81.4162 65.5376 81.5153 65.6622 81.6401C65.7868 81.7649 65.8853 81.913 65.9519 82.0758C66.0185 82.2385 66.0519 82.4128 66.0503 82.5885Z" fill="#E0EDFE"/>
<path d="M74.9419 82.5882C74.9411 82.8578 74.8586 83.1209 74.7051 83.3433C74.5516 83.5656 74.3341 83.737 74.0811 83.835C73.8281 83.933 73.5512 83.9532 73.2865 83.8928C73.0217 83.8324 72.7815 83.6943 72.5969 83.4965C72.4124 83.2987 72.2921 83.0504 72.2518 82.7838C72.2115 82.5172 72.253 82.2448 72.3709 82.0019C72.4888 81.759 72.6776 81.557 72.9128 81.4222C73.148 81.2873 73.4187 81.2259 73.6895 81.2459C74.0306 81.271 74.3494 81.4235 74.5818 81.6725C74.8142 81.9216 74.9428 82.2488 74.9419 82.5882Z" fill="#E0EDFE"/>
<path d="M82.5435 83.9308C83.2904 83.9308 83.896 83.3298 83.896 82.5884C83.896 81.8471 83.2904 81.2461 82.5435 81.2461C81.7965 81.2461 81.1909 81.8471 81.1909 82.5884C81.1909 83.3298 81.7965 83.9308 82.5435 83.9308Z" fill="#E0EDFE"/>
</g>
<g opacity="0.91">
<path d="M98.9868 73.5513C98.9868 73.8168 98.9075 74.0764 98.7588 74.2971C98.6102 74.5178 98.399 74.6899 98.1519 74.7915C97.9047 74.8931 97.6328 74.9197 97.3704 74.8679C97.108 74.8161 96.867 74.6882 96.6779 74.5005C96.4887 74.3128 96.3599 74.0736 96.3077 73.8132C96.2555 73.5528 96.2823 73.2829 96.3847 73.0377C96.4871 72.7924 96.6604 72.5828 96.8828 72.4353C97.1053 72.2878 97.3668 72.209 97.6343 72.209C97.8123 72.2074 97.989 72.2409 98.1538 72.3078C98.3187 72.3747 98.4685 72.4735 98.5944 72.5984C98.7203 72.7234 98.8199 72.8721 98.8873 73.0357C98.9546 73.1993 98.9885 73.3746 98.9868 73.5513Z" fill="#E0EDFE"/>
<path d="M107.903 73.5513C107.903 73.8168 107.824 74.0764 107.675 74.2971C107.527 74.5178 107.315 74.6899 107.068 74.7915C106.821 74.8931 106.549 74.9197 106.287 74.8679C106.025 74.8161 105.784 74.6882 105.594 74.5005C105.405 74.3128 105.276 74.0736 105.224 73.8132C105.172 73.5528 105.199 73.2829 105.301 73.0377C105.404 72.7924 105.577 72.5828 105.799 72.4353C106.022 72.2878 106.283 72.209 106.551 72.209C106.729 72.2074 106.905 72.2409 107.07 72.3078C107.235 72.3747 107.385 72.4735 107.511 72.5984C107.637 72.7234 107.736 72.8721 107.804 73.0357C107.871 73.1993 107.905 73.3746 107.903 73.5513Z" fill="#E0EDFE"/>
<path d="M116.82 73.5513C116.82 73.8168 116.741 74.0764 116.592 74.2971C116.444 74.5178 116.232 74.6899 115.985 74.7915C115.738 74.8931 115.466 74.9197 115.204 74.8679C114.942 74.8161 114.701 74.6882 114.511 74.5005C114.322 74.3128 114.193 74.0736 114.141 73.8132C114.089 73.5528 114.116 73.2829 114.218 73.0377C114.321 72.7924 114.494 72.5828 114.716 72.4353C114.939 72.2878 115.2 72.209 115.468 72.209C115.646 72.2074 115.822 72.2409 115.987 72.3078C116.152 72.3747 116.302 72.4735 116.428 72.5984C116.554 72.7234 116.653 72.8721 116.721 73.0357C116.788 73.1993 116.822 73.3746 116.82 73.5513Z" fill="#E0EDFE"/>
<path d="M125.737 73.5513C125.737 73.8173 125.657 74.0774 125.508 74.2984C125.359 74.5194 125.147 74.6914 124.899 74.7926C124.651 74.8938 124.378 74.9197 124.116 74.8669C123.853 74.8141 123.612 74.685 123.423 74.496C123.235 74.307 123.107 74.0667 123.056 73.8055C123.005 73.5443 123.034 73.274 123.138 73.0289C123.243 72.7839 123.418 72.5752 123.642 72.4292C123.866 72.2832 124.129 72.2066 124.397 72.209C124.574 72.209 124.749 72.2438 124.913 72.3114C125.076 72.379 125.224 72.4781 125.349 72.6029C125.473 72.7277 125.572 72.8758 125.638 73.0386C125.705 73.2014 125.738 73.3756 125.737 73.5513Z" fill="#E0EDFE"/>
<path d="M134.654 73.5513C134.654 73.8173 134.574 74.0774 134.425 74.2984C134.276 74.5194 134.064 74.6914 133.816 74.7926C133.568 74.8938 133.295 74.9197 133.033 74.8669C132.77 74.8141 132.529 74.685 132.34 74.496C132.152 74.307 132.024 74.0667 131.973 73.8055C131.922 73.5443 131.951 73.274 132.055 73.0289C132.16 72.7839 132.335 72.5752 132.559 72.4292C132.783 72.2832 133.046 72.2066 133.314 72.209C133.491 72.209 133.666 72.2438 133.829 72.3114C133.993 72.379 134.141 72.4781 134.266 72.6029C134.39 72.7277 134.489 72.8758 134.555 73.0386C134.622 73.2014 134.655 73.3756 134.654 73.5513Z" fill="#E0EDFE"/>
<path d="M143.583 73.5513C143.583 73.8168 143.504 74.0764 143.355 74.2971C143.206 74.5178 142.995 74.6899 142.748 74.7915C142.501 74.8931 142.229 74.9197 141.967 74.8679C141.704 74.8161 141.463 74.6882 141.274 74.5005C141.085 74.3128 140.956 74.0736 140.904 73.8132C140.852 73.5528 140.879 73.2829 140.981 73.0377C141.083 72.7924 141.257 72.5828 141.479 72.4353C141.701 72.2878 141.963 72.209 142.23 72.209C142.589 72.209 142.933 72.3504 143.187 72.6022C143.44 72.8539 143.583 73.1953 143.583 73.5513Z" fill="#E0EDFE"/>
<path d="M152.499 73.5513C152.499 73.8168 152.42 74.0764 152.272 74.2971C152.123 74.5178 151.912 74.6899 151.665 74.7915C151.417 74.8931 151.145 74.9197 150.883 74.8679C150.621 74.8161 150.38 74.6882 150.191 74.5005C150.001 74.3128 149.873 74.0736 149.82 73.8132C149.768 73.5528 149.795 73.2829 149.897 73.0377C150 72.7924 150.173 72.5828 150.396 72.4353C150.618 72.2878 150.879 72.209 151.147 72.209C151.325 72.2074 151.502 72.2409 151.667 72.3078C151.831 72.3747 151.981 72.4735 152.107 72.5984C152.233 72.7234 152.333 72.8721 152.4 73.0357C152.467 73.1993 152.501 73.3746 152.499 73.5513Z" fill="#E0EDFE"/>
<path d="M98.9868 80.065C98.9868 80.3305 98.9075 80.59 98.7588 80.8108C98.6102 81.0315 98.399 81.2036 98.1519 81.3052C97.9047 81.4068 97.6328 81.4333 97.3704 81.3815C97.108 81.3298 96.867 81.2019 96.6779 81.0142C96.4887 80.8264 96.3599 80.5872 96.3077 80.3269C96.2555 80.0665 96.2823 79.7966 96.3847 79.5513C96.4871 79.3061 96.6604 79.0964 96.8828 78.9489C97.1053 78.8014 97.3668 78.7227 97.6343 78.7227C97.8123 78.7211 97.989 78.7546 98.1538 78.8215C98.3187 78.8884 98.4685 78.9872 98.5944 79.1122C98.7203 79.2372 98.8199 79.3858 98.8873 79.5494C98.9546 79.713 98.9885 79.8883 98.9868 80.065Z" fill="#E0EDFE"/>
<path d="M107.903 80.065C107.903 80.3305 107.824 80.59 107.675 80.8108C107.527 81.0315 107.315 81.2036 107.068 81.3052C106.821 81.4068 106.549 81.4333 106.287 81.3815C106.025 81.3298 105.784 81.2019 105.594 81.0142C105.405 80.8264 105.276 80.5872 105.224 80.3269C105.172 80.0665 105.199 79.7966 105.301 79.5513C105.404 79.3061 105.577 79.0964 105.799 78.9489C106.022 78.8014 106.283 78.7227 106.551 78.7227C106.729 78.7211 106.905 78.7546 107.07 78.8215C107.235 78.8884 107.385 78.9872 107.511 79.1122C107.637 79.2372 107.736 79.3858 107.804 79.5494C107.871 79.713 107.905 79.8883 107.903 80.065Z" fill="#E0EDFE"/>
<path d="M116.82 80.065C116.82 80.3305 116.741 80.59 116.592 80.8108C116.444 81.0315 116.232 81.2036 115.985 81.3052C115.738 81.4068 115.466 81.4333 115.204 81.3815C114.942 81.3298 114.701 81.2019 114.511 81.0142C114.322 80.8264 114.193 80.5872 114.141 80.3269C114.089 80.0665 114.116 79.7966 114.218 79.5513C114.321 79.3061 114.494 79.0964 114.716 78.9489C114.939 78.8014 115.2 78.7227 115.468 78.7227C115.646 78.7211 115.822 78.7546 115.987 78.8215C116.152 78.8884 116.302 78.9872 116.428 79.1122C116.554 79.2372 116.653 79.3858 116.721 79.5494C116.788 79.713 116.822 79.8883 116.82 80.065Z" fill="#E0EDFE"/>
<path d="M125.737 80.065C125.737 80.331 125.657 80.5911 125.508 80.8121C125.359 81.0331 125.147 81.2051 124.899 81.3063C124.651 81.4075 124.378 81.4334 124.116 81.3806C123.853 81.3278 123.612 81.1987 123.423 81.0097C123.235 80.8207 123.107 80.5804 123.056 80.3192C123.005 80.058 123.034 79.7877 123.138 79.5427C123.243 79.2976 123.418 79.0889 123.642 78.9429C123.866 78.7969 124.129 78.7203 124.397 78.7227C124.574 78.7227 124.749 78.7575 124.913 78.8251C125.076 78.8927 125.224 78.9918 125.349 79.1166C125.473 79.2414 125.572 79.3895 125.638 79.5522C125.705 79.715 125.738 79.8893 125.737 80.065Z" fill="#E0EDFE"/>
<path d="M134.654 80.065C134.654 80.331 134.574 80.5911 134.425 80.8121C134.276 81.0331 134.064 81.2051 133.816 81.3063C133.568 81.4075 133.295 81.4334 133.033 81.3806C132.77 81.3278 132.529 81.1987 132.34 81.0097C132.152 80.8207 132.024 80.5804 131.973 80.3192C131.922 80.058 131.951 79.7877 132.055 79.5427C132.16 79.2976 132.335 79.0889 132.559 78.9429C132.783 78.7969 133.046 78.7203 133.314 78.7227C133.491 78.7227 133.666 78.7575 133.829 78.8251C133.993 78.8927 134.141 78.9918 134.266 79.1166C134.39 79.2414 134.489 79.3895 134.555 79.5522C134.622 79.715 134.655 79.8893 134.654 80.065Z" fill="#E0EDFE"/>
<path d="M143.583 80.0649C143.583 80.3304 143.504 80.59 143.355 80.8107C143.206 81.0315 142.995 81.2035 142.748 81.3051C142.501 81.4067 142.229 81.4333 141.967 81.3815C141.704 81.3297 141.463 81.2018 141.274 81.0141C141.085 80.8264 140.956 80.5872 140.904 80.3268C140.852 80.0664 140.879 79.7966 140.981 79.5513C141.083 79.306 141.257 79.0964 141.479 78.9489C141.701 78.8014 141.963 78.7227 142.23 78.7227C142.589 78.7227 142.933 78.864 143.187 79.1158C143.44 79.3675 143.583 79.7089 143.583 80.0649Z" fill="#E0EDFE"/>
<path d="M152.499 80.065C152.499 80.3305 152.42 80.59 152.272 80.8108C152.123 81.0315 151.912 81.2036 151.665 81.3052C151.417 81.4068 151.145 81.4333 150.883 81.3815C150.621 81.3298 150.38 81.2019 150.191 81.0142C150.001 80.8264 149.873 80.5872 149.82 80.3269C149.768 80.0665 149.795 79.7966 149.897 79.5513C150 79.3061 150.173 79.0964 150.396 78.9489C150.618 78.8014 150.879 78.7227 151.147 78.7227C151.325 78.7211 151.502 78.7546 151.667 78.8215C151.831 78.8884 151.981 78.9872 152.107 79.1122C152.233 79.2372 152.333 79.3858 152.4 79.5494C152.467 79.713 152.501 79.8883 152.499 80.065Z" fill="#E0EDFE"/>
<path d="M98.9868 86.5769C98.9868 86.8424 98.9075 87.1019 98.7588 87.3226C98.6102 87.5434 98.399 87.7154 98.1519 87.817C97.9047 87.9186 97.6328 87.9452 97.3704 87.8934C97.108 87.8416 96.867 87.7138 96.6779 87.5261C96.4887 87.3383 96.3599 87.0992 96.3077 86.8388C96.2555 86.5784 96.2823 86.3085 96.3847 86.0632C96.4871 85.8179 96.6604 85.6083 96.8828 85.4608C97.1053 85.3133 97.3668 85.2346 97.6343 85.2346C97.8123 85.2329 97.989 85.2665 98.1538 85.3333C98.3187 85.4002 98.4685 85.499 98.5944 85.624C98.7203 85.749 98.8199 85.8976 98.8873 86.0612C98.9546 86.2248 98.9885 86.4002 98.9868 86.5769Z" fill="#E0EDFE"/>
<path d="M107.903 86.5769C107.903 86.8424 107.824 87.1019 107.675 87.3226C107.527 87.5434 107.315 87.7154 107.068 87.817C106.821 87.9186 106.549 87.9452 106.287 87.8934C106.025 87.8416 105.784 87.7138 105.594 87.5261C105.405 87.3383 105.276 87.0992 105.224 86.8388C105.172 86.5784 105.199 86.3085 105.301 86.0632C105.404 85.8179 105.577 85.6083 105.799 85.4608C106.022 85.3133 106.283 85.2346 106.551 85.2346C106.729 85.2329 106.905 85.2665 107.07 85.3333C107.235 85.4002 107.385 85.499 107.511 85.624C107.637 85.749 107.736 85.8976 107.804 86.0612C107.871 86.2248 107.905 86.4002 107.903 86.5769Z" fill="#E0EDFE"/>
<path d="M116.82 86.5769C116.82 86.8424 116.741 87.1019 116.592 87.3226C116.444 87.5434 116.232 87.7154 115.985 87.817C115.738 87.9186 115.466 87.9452 115.204 87.8934C114.942 87.8416 114.701 87.7138 114.511 87.5261C114.322 87.3383 114.193 87.0992 114.141 86.8388C114.089 86.5784 114.116 86.3085 114.218 86.0632C114.321 85.8179 114.494 85.6083 114.716 85.4608C114.939 85.3133 115.2 85.2346 115.468 85.2346C115.646 85.2329 115.822 85.2665 115.987 85.3333C116.152 85.4002 116.302 85.499 116.428 85.624C116.554 85.749 116.653 85.8976 116.721 86.0612C116.788 86.2248 116.822 86.4002 116.82 86.5769Z" fill="#E0EDFE"/>
<path d="M125.737 86.5769C125.737 86.8429 125.657 87.1029 125.508 87.3239C125.359 87.5449 125.147 87.7169 124.899 87.8181C124.651 87.9194 124.378 87.9452 124.116 87.8924C123.853 87.8396 123.612 87.7106 123.423 87.5216C123.235 87.3326 123.107 87.0922 123.056 86.831C123.005 86.5698 123.034 86.2996 123.138 86.0545C123.243 85.8095 123.418 85.6007 123.642 85.4547C123.866 85.3087 124.129 85.2321 124.397 85.2346C124.574 85.2345 124.749 85.2694 124.913 85.337C125.076 85.4046 125.224 85.5036 125.349 85.6284C125.473 85.7532 125.572 85.9013 125.638 86.0641C125.705 86.2269 125.738 86.4012 125.737 86.5769Z" fill="#E0EDFE"/>
<path d="M134.654 86.5769C134.654 86.8429 134.574 87.1029 134.425 87.3239C134.276 87.5449 134.064 87.7169 133.816 87.8181C133.568 87.9194 133.295 87.9452 133.033 87.8924C132.77 87.8396 132.529 87.7106 132.34 87.5216C132.152 87.3326 132.024 87.0922 131.973 86.831C131.922 86.5698 131.951 86.2996 132.055 86.0545C132.16 85.8095 132.335 85.6007 132.559 85.4547C132.783 85.3087 133.046 85.2321 133.314 85.2346C133.491 85.2345 133.666 85.2694 133.829 85.337C133.993 85.4046 134.141 85.5036 134.266 85.6284C134.39 85.7532 134.489 85.9013 134.555 86.0641C134.622 86.2269 134.655 86.4012 134.654 86.5769Z" fill="#E0EDFE"/>
<path d="M143.583 86.577C143.583 86.8425 143.504 87.1019 143.355 87.3227C143.206 87.5434 142.995 87.7155 142.748 87.8171C142.501 87.9187 142.229 87.9452 141.967 87.8935C141.704 87.8417 141.463 87.7139 141.274 87.5261C141.085 87.3384 140.956 87.0992 140.904 86.8388C140.852 86.5785 140.879 86.3085 140.981 86.0632C141.083 85.818 141.257 85.6083 141.479 85.4608C141.701 85.3133 141.963 85.2346 142.23 85.2346C142.589 85.2346 142.933 85.3761 143.187 85.6278C143.44 85.8795 143.583 86.221 143.583 86.577Z" fill="#E0EDFE"/>
<path d="M152.499 86.5769C152.499 86.8424 152.42 87.1019 152.272 87.3226C152.123 87.5434 151.912 87.7154 151.665 87.817C151.417 87.9186 151.145 87.9452 150.883 87.8934C150.621 87.8416 150.38 87.7138 150.191 87.5261C150.001 87.3383 149.873 87.0992 149.82 86.8388C149.768 86.5784 149.795 86.3085 149.897 86.0632C150 85.8179 150.173 85.6083 150.396 85.4608C150.618 85.3133 150.879 85.2346 151.147 85.2346C151.325 85.2329 151.502 85.2665 151.667 85.3333C151.831 85.4002 151.981 85.499 152.107 85.624C152.233 85.749 152.333 85.8976 152.4 86.0612C152.467 86.2248 152.501 86.4002 152.499 86.5769Z" fill="#E0EDFE"/>
<path d="M98.9868 93.078C98.9892 93.344 98.912 93.6047 98.7649 93.8271C98.6178 94.0495 98.4075 94.2234 98.1606 94.3269C97.9136 94.4304 97.6413 94.4588 97.3781 94.4084C97.1149 94.358 96.8727 94.2312 96.6823 94.044C96.4919 93.8567 96.3619 93.6175 96.3087 93.3568C96.2555 93.0961 96.2815 92.8256 96.3835 92.5796C96.4855 92.3336 96.6588 92.1232 96.8815 91.9752C97.1042 91.8271 97.3662 91.7481 97.6342 91.748C97.9908 91.748 98.3329 91.8878 98.5862 92.1368C98.8395 92.3859 98.9835 92.7241 98.9868 93.078Z" fill="#E0EDFE"/>
<path d="M107.904 93.078C107.906 93.344 107.829 93.6047 107.682 93.8271C107.535 94.0495 107.324 94.2234 107.078 94.3269C106.831 94.4304 106.558 94.4588 106.295 94.4084C106.032 94.358 105.79 94.2312 105.599 94.044C105.409 93.8567 105.279 93.6175 105.226 93.3568C105.172 93.0961 105.198 92.8256 105.3 92.5796C105.402 92.3336 105.576 92.1232 105.798 91.9752C106.021 91.8271 106.283 91.7481 106.551 91.748C106.908 91.748 107.25 91.8878 107.503 92.1368C107.756 92.3859 107.9 92.7241 107.904 93.078Z" fill="#E0EDFE"/>
<path d="M116.82 93.078C116.823 93.344 116.746 93.6047 116.598 93.8271C116.451 94.0495 116.241 94.2234 115.994 94.3269C115.747 94.4304 115.475 94.4588 115.212 94.4084C114.948 94.358 114.706 94.2312 114.516 94.044C114.325 93.8567 114.195 93.6175 114.142 93.3568C114.089 93.0961 114.115 92.8256 114.217 92.5796C114.319 92.3336 114.492 92.1232 114.715 91.9752C114.938 91.8271 115.2 91.7481 115.468 91.748C115.824 91.748 116.166 91.8878 116.42 92.1368C116.673 92.3859 116.817 92.7241 116.82 93.078Z" fill="#E0EDFE"/>
<path d="M125.737 93.078C125.739 93.3445 125.662 93.6058 125.514 93.8284C125.366 94.0511 125.155 94.225 124.908 94.3281C124.66 94.4313 124.387 94.4589 124.123 94.4075C123.86 94.3561 123.618 94.228 123.428 94.0395C123.238 93.8511 123.109 93.6108 123.057 93.3492C123.005 93.0877 123.033 92.8167 123.137 92.571C123.241 92.3252 123.416 92.1157 123.641 91.9692C123.865 91.8226 124.128 91.7456 124.397 91.7481C124.752 91.7481 125.093 91.8882 125.344 92.1376C125.596 92.3871 125.737 92.7253 125.737 93.078Z" fill="#E0EDFE"/>
<path d="M134.654 93.078C134.656 93.3445 134.579 93.6058 134.431 93.8284C134.283 94.0511 134.072 94.225 133.825 94.3281C133.577 94.4313 133.304 94.4589 133.04 94.4075C132.777 94.3561 132.535 94.228 132.345 94.0395C132.155 93.8511 132.026 93.6108 131.974 93.3492C131.922 93.0877 131.95 92.8167 132.054 92.571C132.158 92.3252 132.333 92.1157 132.558 91.9692C132.782 91.8226 133.045 91.7456 133.314 91.7481C133.669 91.7481 134.01 91.8882 134.261 92.1376C134.513 92.3871 134.654 92.7253 134.654 93.078Z" fill="#E0EDFE"/>
<path d="M143.583 93.078C143.585 93.344 143.508 93.6047 143.361 93.8271C143.214 94.0495 143.004 94.2234 142.757 94.3269C142.51 94.4304 142.237 94.4588 141.974 94.4084C141.711 94.358 141.469 94.2312 141.278 94.044C141.088 93.8567 140.958 93.6175 140.905 93.3568C140.852 93.0961 140.878 92.8256 140.98 92.5796C141.082 92.3336 141.255 92.1232 141.478 91.9752C141.7 91.8271 141.962 91.7481 142.23 91.748C142.587 91.748 142.929 91.8878 143.182 92.1368C143.436 92.3859 143.58 92.7241 143.583 93.078Z" fill="#E0EDFE"/>
<path d="M152.499 93.078C152.502 93.344 152.425 93.6047 152.278 93.8271C152.13 94.0495 151.92 94.2234 151.673 94.3269C151.426 94.4304 151.154 94.4588 150.891 94.4084C150.628 94.358 150.385 94.2312 150.195 94.044C150.005 93.8567 149.875 93.6175 149.821 93.3568C149.768 93.0961 149.794 92.8256 149.896 92.5796C149.998 92.3336 150.171 92.1232 150.394 91.9752C150.617 91.8271 150.879 91.7481 151.147 91.748C151.503 91.748 151.846 91.8878 152.099 92.1368C152.352 92.3859 152.496 92.7241 152.499 93.078Z" fill="#E0EDFE"/>
<path d="M98.9868 99.5897C98.9892 99.8557 98.912 100.116 98.7649 100.339C98.6178 100.561 98.4075 100.735 98.1606 100.839C97.9136 100.942 97.6413 100.97 97.3781 100.92C97.1149 100.87 96.8727 100.743 96.6823 100.556C96.4919 100.368 96.3619 100.129 96.3087 99.8686C96.2555 99.6079 96.2815 99.3374 96.3835 99.0913C96.4855 98.8453 96.6588 98.6349 96.8815 98.4869C97.1042 98.3388 97.3662 98.2598 97.6342 98.2598C97.9908 98.2598 98.3329 98.3995 98.5862 98.6486C98.8395 98.8976 98.9835 99.2358 98.9868 99.5897Z" fill="#E0EDFE"/>
<path d="M107.904 99.5897C107.906 99.8557 107.829 100.116 107.682 100.339C107.535 100.561 107.324 100.735 107.078 100.839C106.831 100.942 106.558 100.97 106.295 100.92C106.032 100.87 105.79 100.743 105.599 100.556C105.409 100.368 105.279 100.129 105.226 99.8686C105.172 99.6079 105.198 99.3374 105.3 99.0913C105.402 98.8453 105.576 98.6349 105.798 98.4869C106.021 98.3388 106.283 98.2598 106.551 98.2598C106.908 98.2598 107.25 98.3995 107.503 98.6486C107.756 98.8976 107.9 99.2358 107.904 99.5897Z" fill="#E0EDFE"/>
<path d="M116.82 99.5897C116.823 99.8557 116.746 100.116 116.598 100.339C116.451 100.561 116.241 100.735 115.994 100.839C115.747 100.942 115.475 100.97 115.212 100.92C114.948 100.87 114.706 100.743 114.516 100.556C114.325 100.368 114.195 100.129 114.142 99.8686C114.089 99.6079 114.115 99.3374 114.217 99.0913C114.319 98.8453 114.492 98.6349 114.715 98.4869C114.938 98.3388 115.2 98.2598 115.468 98.2598C115.824 98.2598 116.166 98.3995 116.42 98.6486C116.673 98.8976 116.817 99.2358 116.82 99.5897Z" fill="#E0EDFE"/>
<path d="M125.737 99.5897C125.739 99.8563 125.662 100.118 125.514 100.34C125.366 100.563 125.155 100.737 124.908 100.84C124.66 100.943 124.387 100.971 124.123 100.919C123.86 100.868 123.618 100.74 123.428 100.551C123.238 100.363 123.109 100.122 123.057 99.8609C123.005 99.5994 123.033 99.3285 123.137 99.0827C123.241 98.8369 123.416 98.6274 123.641 98.4809C123.865 98.3343 124.128 98.2574 124.397 98.2598C124.752 98.2598 125.093 98.4 125.344 98.6494C125.596 98.8988 125.737 99.237 125.737 99.5897Z" fill="#E0EDFE"/>
<path d="M134.654 99.5897C134.656 99.8563 134.579 100.118 134.431 100.34C134.283 100.563 134.072 100.737 133.825 100.84C133.577 100.943 133.304 100.971 133.04 100.919C132.777 100.868 132.535 100.74 132.345 100.551C132.155 100.363 132.026 100.122 131.974 99.8609C131.922 99.5994 131.95 99.3285 132.054 99.0827C132.158 98.8369 132.333 98.6274 132.558 98.4809C132.782 98.3343 133.045 98.2574 133.314 98.2598C133.669 98.2598 134.01 98.4 134.261 98.6494C134.513 98.8988 134.654 99.237 134.654 99.5897Z" fill="#E0EDFE"/>
<path d="M143.583 99.5897C143.585 99.8557 143.508 100.116 143.361 100.339C143.214 100.561 143.004 100.735 142.757 100.839C142.51 100.942 142.237 100.97 141.974 100.92C141.711 100.87 141.469 100.743 141.278 100.556C141.088 100.368 140.958 100.129 140.905 99.8686C140.852 99.6079 140.878 99.3374 140.98 99.0913C141.082 98.8453 141.255 98.6349 141.478 98.4869C141.7 98.3388 141.962 98.2598 142.23 98.2598C142.587 98.2598 142.929 98.3995 143.182 98.6486C143.436 98.8976 143.58 99.2358 143.583 99.5897Z" fill="#E0EDFE"/>
<path d="M152.499 99.5897C152.502 99.8557 152.425 100.116 152.278 100.339C152.13 100.561 151.92 100.735 151.673 100.839C151.426 100.942 151.154 100.97 150.891 100.92C150.628 100.87 150.385 100.743 150.195 100.556C150.005 100.368 149.875 100.129 149.821 99.8686C149.768 99.6079 149.794 99.3374 149.896 99.0913C149.998 98.8453 150.171 98.6349 150.394 98.4869C150.617 98.3388 150.879 98.2598 151.147 98.2598C151.503 98.2598 151.846 98.3995 152.099 98.6486C152.352 98.8976 152.496 99.2358 152.499 99.5897Z" fill="#E0EDFE"/>
<path d="M98.9868 106.103C98.9892 106.369 98.912 106.63 98.7649 106.852C98.6178 107.075 98.4075 107.249 98.1606 107.352C97.9136 107.456 97.6413 107.484 97.3781 107.434C97.1149 107.383 96.8727 107.257 96.6823 107.069C96.4919 106.882 96.3619 106.643 96.3087 106.382C96.2555 106.122 96.2815 105.851 96.3835 105.605C96.4855 105.359 96.6588 105.149 96.8815 105.001C97.1042 104.853 97.3662 104.773 97.6342 104.773C97.9908 104.773 98.3329 104.913 98.5862 105.162C98.8395 105.411 98.9835 105.749 98.9868 106.103Z" fill="#E0EDFE"/>
<path d="M107.904 106.103C107.906 106.369 107.829 106.63 107.682 106.852C107.535 107.075 107.324 107.249 107.078 107.352C106.831 107.456 106.558 107.484 106.295 107.434C106.032 107.383 105.79 107.257 105.599 107.069C105.409 106.882 105.279 106.643 105.226 106.382C105.172 106.122 105.198 105.851 105.3 105.605C105.402 105.359 105.576 105.149 105.798 105.001C106.021 104.853 106.283 104.773 106.551 104.773C106.908 104.773 107.25 104.913 107.503 105.162C107.756 105.411 107.9 105.749 107.904 106.103Z" fill="#E0EDFE"/>
<path d="M116.82 106.103C116.823 106.369 116.746 106.63 116.598 106.852C116.451 107.075 116.241 107.249 115.994 107.352C115.747 107.456 115.475 107.484 115.212 107.434C114.948 107.383 114.706 107.257 114.516 107.069C114.325 106.882 114.195 106.643 114.142 106.382C114.089 106.122 114.115 105.851 114.217 105.605C114.319 105.359 114.492 105.149 114.715 105.001C114.938 104.853 115.2 104.773 115.468 104.773C115.824 104.773 116.166 104.913 116.42 105.162C116.673 105.411 116.817 105.749 116.82 106.103Z" fill="#E0EDFE"/>
<path d="M125.737 106.103C125.739 106.37 125.662 106.631 125.514 106.854C125.366 107.076 125.155 107.25 124.908 107.354C124.66 107.457 124.387 107.484 124.123 107.433C123.86 107.382 123.618 107.253 123.428 107.065C123.238 106.876 123.109 106.636 123.057 106.375C123.005 106.113 123.033 105.842 123.137 105.596C123.241 105.351 123.416 105.141 123.641 104.995C123.865 104.848 124.128 104.771 124.397 104.773C124.752 104.773 125.093 104.914 125.344 105.163C125.596 105.412 125.737 105.751 125.737 106.103Z" fill="#E0EDFE"/>
<path d="M134.654 106.103C134.656 106.37 134.579 106.631 134.431 106.854C134.283 107.076 134.072 107.25 133.825 107.354C133.577 107.457 133.304 107.484 133.04 107.433C132.777 107.382 132.535 107.253 132.345 107.065C132.155 106.876 132.026 106.636 131.974 106.375C131.922 106.113 131.95 105.842 132.054 105.596C132.158 105.351 132.333 105.141 132.558 104.995C132.782 104.848 133.045 104.771 133.314 104.773C133.669 104.773 134.01 104.914 134.261 105.163C134.513 105.412 134.654 105.751 134.654 106.103Z" fill="#E0EDFE"/>
<path d="M143.583 106.103C143.585 106.369 143.508 106.63 143.361 106.852C143.214 107.075 143.004 107.249 142.757 107.352C142.51 107.456 142.237 107.484 141.974 107.434C141.711 107.383 141.469 107.257 141.278 107.069C141.088 106.882 140.958 106.643 140.905 106.382C140.852 106.122 140.878 105.851 140.98 105.605C141.082 105.359 141.255 105.149 141.478 105.001C141.7 104.853 141.962 104.773 142.23 104.773C142.587 104.773 142.929 104.913 143.182 105.162C143.436 105.411 143.58 105.749 143.583 106.103Z" fill="#E0EDFE"/>
<path d="M152.499 106.103C152.502 106.369 152.425 106.63 152.278 106.852C152.13 107.075 151.92 107.249 151.673 107.352C151.426 107.456 151.154 107.484 150.891 107.434C150.628 107.383 150.385 107.257 150.195 107.069C150.005 106.882 149.875 106.643 149.821 106.382C149.768 106.122 149.794 105.851 149.896 105.605C149.998 105.359 150.171 105.149 150.394 105.001C150.617 104.853 150.879 104.773 151.147 104.773C151.503 104.773 151.846 104.913 152.099 105.162C152.352 105.411 152.496 105.749 152.499 106.103Z" fill="#E0EDFE"/>
<path d="M98.9868 112.566C98.9892 112.832 98.912 113.093 98.7649 113.315C98.6178 113.538 98.4075 113.712 98.1606 113.815C97.9136 113.919 97.6413 113.947 97.3781 113.897C97.1149 113.846 96.8727 113.719 96.6823 113.532C96.4919 113.345 96.3619 113.106 96.3087 112.845C96.2555 112.584 96.2815 112.314 96.3835 112.068C96.4855 111.822 96.6588 111.612 96.8815 111.463C97.1042 111.315 97.3662 111.236 97.6342 111.236C97.9908 111.236 98.3329 111.376 98.5862 111.625C98.8395 111.874 98.9835 112.212 98.9868 112.566Z" fill="#E0EDFE"/>
<path d="M107.904 112.566C107.906 112.832 107.829 113.093 107.682 113.315C107.535 113.538 107.324 113.712 107.078 113.815C106.831 113.919 106.558 113.947 106.295 113.897C106.032 113.846 105.79 113.719 105.599 113.532C105.409 113.345 105.279 113.106 105.226 112.845C105.172 112.584 105.198 112.314 105.3 112.068C105.402 111.822 105.576 111.612 105.798 111.463C106.021 111.315 106.283 111.236 106.551 111.236C106.908 111.236 107.25 111.376 107.503 111.625C107.756 111.874 107.9 112.212 107.904 112.566Z" fill="#E0EDFE"/>
<path d="M116.82 112.566C116.823 112.832 116.746 113.093 116.598 113.315C116.451 113.538 116.241 113.712 115.994 113.815C115.747 113.919 115.475 113.947 115.212 113.897C114.948 113.846 114.706 113.719 114.516 113.532C114.325 113.345 114.195 113.106 114.142 112.845C114.089 112.584 114.115 112.314 114.217 112.068C114.319 111.822 114.492 111.612 114.715 111.463C114.938 111.315 115.2 111.236 115.468 111.236C115.824 111.236 116.166 111.376 116.42 111.625C116.673 111.874 116.817 112.212 116.82 112.566Z" fill="#E0EDFE"/>
<path d="M125.737 112.566C125.739 112.833 125.662 113.094 125.514 113.317C125.366 113.539 125.155 113.713 124.908 113.816C124.66 113.92 124.387 113.947 124.123 113.896C123.86 113.844 123.618 113.716 123.428 113.528C123.238 113.339 123.109 113.099 123.057 112.837C123.005 112.576 123.033 112.305 123.137 112.059C123.241 111.813 123.416 111.604 123.641 111.457C123.865 111.311 124.128 111.234 124.397 111.236C124.752 111.236 125.093 111.377 125.344 111.626C125.596 111.875 125.737 112.214 125.737 112.566Z" fill="#E0EDFE"/>
<path d="M134.654 112.566C134.656 112.833 134.579 113.094 134.431 113.317C134.283 113.539 134.072 113.713 133.825 113.816C133.577 113.92 133.304 113.947 133.04 113.896C132.777 113.844 132.535 113.716 132.345 113.528C132.155 113.339 132.026 113.099 131.974 112.837C131.922 112.576 131.95 112.305 132.054 112.059C132.158 111.813 132.333 111.604 132.558 111.457C132.782 111.311 133.045 111.234 133.314 111.236C133.669 111.236 134.01 111.377 134.261 111.626C134.513 111.875 134.654 112.214 134.654 112.566Z" fill="#E0EDFE"/>
<path d="M143.583 112.566C143.585 112.832 143.508 113.093 143.361 113.315C143.214 113.538 143.004 113.712 142.757 113.815C142.51 113.919 142.237 113.947 141.974 113.897C141.711 113.846 141.469 113.719 141.278 113.532C141.088 113.345 140.958 113.106 140.905 112.845C140.852 112.584 140.878 112.314 140.98 112.068C141.082 111.822 141.255 111.612 141.478 111.463C141.7 111.315 141.962 111.236 142.23 111.236C142.587 111.236 142.929 111.376 143.182 111.625C143.436 111.874 143.58 112.212 143.583 112.566Z" fill="#E0EDFE"/>
<path d="M152.499 112.566C152.502 112.832 152.425 113.093 152.278 113.315C152.13 113.538 151.92 113.712 151.673 113.815C151.426 113.919 151.154 113.947 150.891 113.897C150.628 113.846 150.385 113.719 150.195 113.532C150.005 113.345 149.875 113.106 149.821 112.845C149.768 112.584 149.794 112.314 149.896 112.068C149.998 111.822 150.171 111.612 150.394 111.463C150.617 111.315 150.879 111.236 151.147 111.236C151.503 111.236 151.846 111.376 152.099 111.625C152.352 111.874 152.496 112.212 152.499 112.566Z" fill="#E0EDFE"/>
<path d="M98.9868 119.128C98.9868 119.484 98.8443 119.825 98.5906 120.077C98.337 120.328 97.993 120.47 97.6343 120.47C97.2755 120.47 96.9315 120.328 96.6779 120.077C96.4242 119.825 96.2817 119.484 96.2817 119.128C96.2817 118.771 96.4242 118.43 96.6779 118.178C96.9315 117.927 97.2755 117.785 97.6343 117.785C97.993 117.785 98.337 117.927 98.5906 118.178C98.8443 118.43 98.9868 118.771 98.9868 119.128Z" fill="#E0EDFE"/>
<path d="M107.903 119.128C107.903 119.393 107.824 119.652 107.675 119.873C107.527 120.094 107.315 120.266 107.068 120.368C106.821 120.469 106.549 120.496 106.287 120.444C106.025 120.392 105.784 120.264 105.594 120.077C105.405 119.889 105.276 119.65 105.224 119.389C105.172 119.129 105.199 118.859 105.301 118.614C105.404 118.369 105.577 118.159 105.799 118.011C106.022 117.864 106.283 117.785 106.551 117.785C106.909 117.785 107.253 117.927 107.507 118.178C107.761 118.43 107.903 118.771 107.903 119.128Z" fill="#E0EDFE"/>
<path d="M116.82 119.128C116.82 119.393 116.741 119.652 116.592 119.873C116.444 120.094 116.232 120.266 115.985 120.368C115.738 120.469 115.466 120.496 115.204 120.444C114.942 120.392 114.701 120.264 114.511 120.077C114.322 119.889 114.193 119.65 114.141 119.389C114.089 119.129 114.116 118.859 114.218 118.614C114.321 118.369 114.494 118.159 114.716 118.011C114.939 117.864 115.2 117.785 115.468 117.785C115.826 117.785 116.171 117.927 116.424 118.178C116.678 118.43 116.82 118.771 116.82 119.128Z" fill="#E0EDFE"/>
<path d="M125.737 119.128C125.737 119.394 125.657 119.654 125.508 119.875C125.359 120.096 125.147 120.268 124.899 120.369C124.651 120.47 124.378 120.496 124.116 120.443C123.853 120.39 123.612 120.261 123.423 120.072C123.235 119.883 123.107 119.643 123.056 119.382C123.005 119.12 123.034 118.85 123.138 118.605C123.243 118.36 123.418 118.151 123.642 118.005C123.866 117.859 124.129 117.783 124.397 117.785C124.574 117.785 124.749 117.82 124.913 117.888C125.076 117.955 125.224 118.054 125.349 118.179C125.473 118.304 125.572 118.452 125.638 118.615C125.705 118.778 125.738 118.952 125.737 119.128Z" fill="#E0EDFE"/>
<path d="M134.654 119.128C134.654 119.394 134.574 119.654 134.425 119.875C134.276 120.096 134.064 120.268 133.816 120.369C133.568 120.47 133.295 120.496 133.033 120.443C132.77 120.39 132.529 120.261 132.34 120.072C132.152 119.883 132.024 119.643 131.973 119.382C131.922 119.12 131.951 118.85 132.055 118.605C132.16 118.36 132.335 118.151 132.559 118.005C132.783 117.859 133.046 117.783 133.314 117.785C133.491 117.785 133.666 117.82 133.829 117.888C133.993 117.955 134.141 118.054 134.266 118.179C134.39 118.304 134.489 118.452 134.555 118.615C134.622 118.778 134.655 118.952 134.654 119.128Z" fill="#E0EDFE"/>
<path d="M143.583 119.128C143.583 119.393 143.504 119.652 143.355 119.873C143.206 120.094 142.995 120.266 142.748 120.368C142.501 120.469 142.229 120.496 141.967 120.444C141.704 120.392 141.463 120.264 141.274 120.077C141.085 119.889 140.956 119.65 140.904 119.389C140.852 119.129 140.879 118.859 140.981 118.614C141.083 118.369 141.257 118.159 141.479 118.011C141.701 117.864 141.963 117.785 142.23 117.785C142.589 117.785 142.933 117.927 143.187 118.178C143.44 118.43 143.583 118.771 143.583 119.128Z" fill="#E0EDFE"/>
<path d="M152.499 119.128C152.499 119.393 152.42 119.652 152.272 119.873C152.123 120.094 151.912 120.266 151.665 120.368C151.417 120.469 151.145 120.496 150.883 120.444C150.621 120.392 150.38 120.264 150.191 120.077C150.001 119.889 149.873 119.65 149.82 119.389C149.768 119.129 149.795 118.859 149.897 118.614C150 118.369 150.173 118.159 150.396 118.011C150.618 117.864 150.879 117.785 151.147 117.785C151.325 117.785 151.5 117.82 151.665 117.887C151.829 117.955 151.978 118.054 152.103 118.178C152.229 118.303 152.329 118.451 152.397 118.614C152.464 118.777 152.499 118.951 152.499 119.128Z" fill="#E0EDFE"/>
<path d="M98.9868 125.641C98.9868 125.907 98.9075 126.166 98.7588 126.387C98.6102 126.608 98.399 126.78 98.1519 126.881C97.9047 126.983 97.6328 127.01 97.3704 126.958C97.108 126.906 96.867 126.778 96.6779 126.59C96.4887 126.403 96.3599 126.163 96.3077 125.903C96.2555 125.643 96.2823 125.373 96.3847 125.128C96.4871 124.882 96.6604 124.673 96.8828 124.525C97.1053 124.378 97.3668 124.299 97.6343 124.299C97.8119 124.299 97.9878 124.334 98.1519 124.401C98.3159 124.469 98.465 124.567 98.5906 124.692C98.7162 124.817 98.8159 124.965 98.8839 125.128C98.9518 125.29 98.9868 125.465 98.9868 125.641Z" fill="#E0EDFE"/>
<path d="M107.903 125.641C107.903 125.907 107.824 126.166 107.675 126.387C107.527 126.608 107.315 126.78 107.068 126.881C106.821 126.983 106.549 127.01 106.287 126.958C106.025 126.906 105.784 126.778 105.594 126.59C105.405 126.403 105.276 126.163 105.224 125.903C105.172 125.643 105.199 125.373 105.301 125.128C105.404 124.882 105.577 124.673 105.799 124.525C106.022 124.378 106.283 124.299 106.551 124.299C106.728 124.299 106.904 124.334 107.068 124.401C107.232 124.469 107.382 124.567 107.507 124.692C107.633 124.817 107.732 124.965 107.8 125.128C107.868 125.29 107.903 125.465 107.903 125.641Z" fill="#E0EDFE"/>
<path d="M116.82 125.641C116.82 125.907 116.741 126.166 116.592 126.387C116.444 126.608 116.232 126.78 115.985 126.881C115.738 126.983 115.466 127.01 115.204 126.958C114.942 126.906 114.701 126.778 114.511 126.59C114.322 126.403 114.193 126.163 114.141 125.903C114.089 125.643 114.116 125.373 114.218 125.128C114.321 124.882 114.494 124.673 114.716 124.525C114.939 124.378 115.2 124.299 115.468 124.299C115.645 124.299 115.821 124.334 115.985 124.401C116.149 124.469 116.299 124.567 116.424 124.692C116.55 124.817 116.649 124.965 116.717 125.128C116.785 125.29 116.82 125.465 116.82 125.641Z" fill="#E0EDFE"/>
<path d="M125.737 125.641C125.737 125.907 125.657 126.167 125.508 126.388C125.359 126.609 125.147 126.781 124.899 126.882C124.651 126.984 124.378 127.009 124.116 126.957C123.853 126.904 123.612 126.775 123.423 126.586C123.235 126.397 123.107 126.157 123.056 125.895C123.005 125.634 123.034 125.364 123.138 125.119C123.243 124.874 123.418 124.665 123.642 124.519C123.866 124.373 124.129 124.296 124.397 124.299C124.753 124.302 125.094 124.445 125.345 124.696C125.596 124.948 125.737 125.287 125.737 125.641Z" fill="#E0EDFE"/>
<path d="M134.654 125.641C134.654 125.907 134.574 126.167 134.425 126.388C134.276 126.609 134.064 126.781 133.816 126.882C133.568 126.984 133.295 127.009 133.033 126.957C132.77 126.904 132.529 126.775 132.34 126.586C132.152 126.397 132.024 126.157 131.973 125.895C131.922 125.634 131.951 125.364 132.055 125.119C132.16 124.874 132.335 124.665 132.559 124.519C132.783 124.373 133.046 124.296 133.314 124.299C133.67 124.302 134.011 124.445 134.262 124.696C134.513 124.948 134.654 125.287 134.654 125.641Z" fill="#E0EDFE"/>
<path d="M143.583 125.641C143.583 125.907 143.504 126.166 143.355 126.387C143.206 126.608 142.995 126.78 142.748 126.881C142.501 126.983 142.229 127.01 141.967 126.958C141.704 126.906 141.463 126.778 141.274 126.59C141.085 126.403 140.956 126.163 140.904 125.903C140.852 125.643 140.879 125.373 140.981 125.128C141.083 124.882 141.257 124.673 141.479 124.525C141.701 124.378 141.963 124.299 142.23 124.299C142.588 124.302 142.93 124.445 143.183 124.696C143.436 124.947 143.58 125.286 143.583 125.641Z" fill="#E0EDFE"/>
<path d="M152.499 125.641C152.499 125.907 152.42 126.166 152.272 126.387C152.123 126.608 151.912 126.78 151.665 126.881C151.417 126.983 151.145 127.01 150.883 126.958C150.621 126.906 150.38 126.778 150.191 126.59C150.001 126.403 149.873 126.163 149.82 125.903C149.768 125.643 149.795 125.373 149.897 125.128C150 124.882 150.173 124.673 150.396 124.525C150.618 124.378 150.879 124.299 151.147 124.299C151.325 124.299 151.5 124.334 151.665 124.401C151.829 124.469 151.978 124.567 152.103 124.692C152.229 124.817 152.329 124.965 152.397 125.128C152.464 125.29 152.499 125.465 152.499 125.641Z" fill="#E0EDFE"/>
</g>
<path opacity="0.25" d="M134.901 118.461C140.623 94.7917 125.927 71.0008 102.078 65.3227C78.2282 59.6445 54.2565 74.2293 48.5351 97.8987C42.8138 121.568 57.5095 145.359 81.3588 151.037C105.208 156.715 129.18 142.13 134.901 118.461Z" fill="url(#paint0_linear_1101_20368)"/>
<path d="M145.837 46.6908L137.935 72.7917C137.731 73.4609 137.315 74.0471 136.749 74.4634C136.182 74.8798 135.496 75.1042 134.792 75.1035H102.907C102.202 75.1042 101.516 74.8798 100.95 74.4634C100.384 74.0471 99.9679 73.4609 99.7635 72.7917L91.8612 46.6908C91.7084 46.2045 91.6726 45.6893 91.7569 45.1868C91.8412 44.6842 92.0431 44.2083 92.3464 43.7973C92.6497 43.3863 93.0459 43.0516 93.5032 42.8202C93.9606 42.5888 94.4662 42.4671 94.9795 42.465H142.694C143.21 42.4606 143.72 42.5776 144.182 42.8066C144.644 43.0355 145.045 43.3698 145.352 43.7821C145.658 44.1944 145.862 44.673 145.947 45.1786C146.031 45.6842 145.994 46.2024 145.837 46.6908Z" fill="#372B49"/>
<g style="mix-blend-mode:overlay" opacity="0.25">
<path d="M109.382 46.7673C109.426 46.9151 109.433 47.0711 109.404 47.2225C109.375 47.3739 109.31 47.5162 109.215 47.6377C109.119 47.7593 108.996 47.8564 108.855 47.9212C108.714 47.9859 108.56 48.0164 108.405 48.0101C108.049 47.9938 107.708 47.864 107.433 47.6401C107.158 47.4162 106.963 47.1101 106.877 46.7673L105.913 42.4668H108.417L109.382 46.7673Z" fill="black"/>
</g>
<g style="mix-blend-mode:overlay" opacity="0.25">
<path d="M127.929 48.0101C127.573 47.9938 127.232 47.864 126.957 47.6401C126.682 47.4162 126.487 47.1101 126.401 46.7673L125.437 42.4668H127.941L128.906 46.7673C128.949 46.9151 128.957 47.0711 128.928 47.2225C128.899 47.3739 128.834 47.5162 128.739 47.6377C128.643 47.7593 128.52 47.8564 128.379 47.9212C128.238 47.9859 128.084 48.0164 127.929 48.0101Z" fill="black"/>
</g>
<path d="M117.171 25.3388C114.339 25.5893 111.707 26.8928 109.803 28.988C107.899 31.0832 106.862 33.8152 106.902 36.6367V46.6918C106.902 47.0214 107.034 47.3375 107.269 47.5706C107.504 47.8037 107.822 47.9347 108.154 47.9347C108.486 47.9347 108.805 47.8037 109.04 47.5706C109.275 47.3375 109.407 47.0214 109.407 46.6918V36.2514C109.409 35.0477 109.669 33.8583 110.172 32.7625C110.674 31.6667 111.405 30.6898 112.318 29.8969C113.231 29.1041 114.303 28.5136 115.464 28.1648C116.625 27.816 117.847 27.717 119.05 27.8743C121.129 28.2024 123.019 29.2621 124.376 30.8595C125.733 32.457 126.465 34.4855 126.439 36.5746V46.6918C126.439 47.0214 126.571 47.3375 126.805 47.5706C127.04 47.8037 127.359 47.9347 127.691 47.9347C128.023 47.9347 128.342 47.8037 128.577 47.5706C128.811 47.3375 128.943 47.0214 128.943 46.6918V36.2514C128.942 34.7527 128.63 33.2704 128.027 31.8961C127.425 30.5218 126.545 29.2849 125.441 28.2619C124.338 27.2389 123.034 26.4517 121.612 25.9489C120.189 25.446 118.678 25.2384 117.171 25.3388Z" fill="url(#paint1_linear_1101_20368)"/>
<path d="M58.9742 119.091C59.3875 112.578 71.1471 103.617 70.9968 99.2049C70.8465 94.7926 64.0087 90.7656 64.0087 90.7656L45.6993 92.6797C45.8513 94.3998 45.8513 96.1299 45.6993 97.8501C45.4113 98.571 51.5103 107.035 51.5103 107.035" fill="#864426"/>
<path d="M103.746 74.4572C103.739 83.0818 100.284 91.3512 94.1394 97.4497C87.9945 103.548 79.6622 106.977 70.972 106.984C64.4828 106.989 58.138 105.083 52.7404 101.508C47.3428 97.9334 43.135 92.8498 40.6494 86.9008C38.1639 80.9518 37.5122 74.4047 38.777 68.088C40.0417 61.7713 43.1661 55.9689 47.7546 51.415C52.3431 46.8611 58.1896 43.7603 64.5544 42.5051C70.9191 41.2499 77.5159 41.8967 83.5102 44.3635C89.5044 46.8303 94.6267 51.0064 98.2288 56.3632C101.831 61.7201 103.751 68.0171 103.746 74.4572Z" fill="url(#paint2_linear_1101_20368)"/>
<path d="M102.218 74.4581C102.215 82.6695 98.9273 90.5438 93.078 96.3513C87.2287 102.159 79.2958 105.425 71.022 105.431C64.844 105.434 58.8041 103.618 53.6661 100.213C48.5281 96.8084 44.5229 91.9681 42.157 86.3042C39.7911 80.6403 39.1708 74.4073 40.3745 68.3934C41.5783 62.3796 44.552 56.8552 48.9196 52.5188C53.2871 48.1824 58.8524 45.2289 64.9115 44.0318C70.9705 42.8348 77.2512 43.4479 82.9591 45.7937C88.667 48.1395 93.5458 52.1126 96.9783 57.2104C100.411 62.3082 102.243 68.3019 102.243 74.4332L102.218 74.4581Z" fill="url(#paint3_linear_1101_20368)"/>
<path d="M93.1725 79.7079C96.086 67.5611 88.5261 55.3701 76.287 52.4786C64.0478 49.5871 51.7641 57.0899 48.8506 69.2367C45.9371 81.3835 53.497 93.5745 65.7362 96.4661C77.9753 99.3576 90.259 91.8547 93.1725 79.7079Z" fill="url(#paint4_linear_1101_20368)"/>
<path d="M70.9969 95.0286C82.4437 95.0286 91.7232 85.8191 91.7232 74.4586C91.7232 63.0982 82.4437 53.8887 70.9969 53.8887C59.55 53.8887 50.2705 63.0982 50.2705 74.4586C50.2705 85.8191 59.55 95.0286 70.9969 95.0286Z" fill="url(#paint5_linear_1101_20368)"/>
<g style="mix-blend-mode:overlay" opacity="0.15">
<path d="M103.746 74.4962C103.74 83.1208 100.284 91.3903 94.1395 97.4888C87.9947 103.587 79.6623 107.016 70.9722 107.023C70.9722 106.513 70.9722 105.991 70.9722 105.469C70.9888 97.2391 74.2947 89.3517 80.1644 83.5379C86.0341 77.7241 93.9881 74.459 102.281 74.459C102.757 74.459 103.27 74.4714 103.746 74.4962Z" fill="black"/>
</g>
<path d="M28.8931 147.876C36.4823 133.098 37.5217 124.261 37.9726 114.641C38.4234 105.021 36.7202 94.5558 44.2343 89.6837C51.7484 84.8115 53.0008 79.7404 54.7916 83.1957C56.5825 86.651 54.7916 94.1456 51.6733 97.8246C57.7722 106.674 59.4002 122.024 59.4002 122.024C59.4002 122.024 60.7403 153.034 60.1517 155.396C59.5631 157.757 40.4898 165.152 28.8931 147.876Z" fill="#AB5E27"/>
<path d="M58.9492 70.3068H63.7707V71.2639H60.1014V74.222H63.4952V75.179H60.1014V79.1936H58.9492V70.3068Z" fill="url(#paint6_linear_1101_20368)"/>
<path d="M71.6859 78.8947C70.9358 79.1996 70.1292 79.3436 69.319 79.3173C68.7192 79.3534 68.1187 79.2609 67.5582 79.0459C66.9977 78.831 66.4904 78.4988 66.0709 78.0718C65.6514 77.6449 65.3296 77.1333 65.1272 76.5718C64.9248 76.0103 64.8467 75.4122 64.8982 74.818C64.8621 74.1971 64.9584 73.5756 65.1807 72.994C65.4029 72.4125 65.7463 71.884 66.1882 71.443C66.6302 71.002 67.1609 70.6585 67.7456 70.4348C68.3304 70.2111 68.9561 70.1122 69.582 70.1447C70.309 70.1118 71.0338 70.248 71.6984 70.5424L71.4229 71.4746C70.8558 71.2243 70.24 71.1013 69.6195 71.1142C69.1303 71.0863 68.641 71.1659 68.1864 71.3472C67.7317 71.5286 67.323 71.8073 66.9893 72.1634C66.6556 72.5194 66.4052 72.9442 66.2559 73.4074C66.1066 73.8705 66.062 74.3607 66.1255 74.8429C66.0733 75.3117 66.1252 75.7861 66.2775 76.2329C66.4298 76.6797 66.6788 77.088 67.007 77.4291C67.3352 77.7703 67.7346 78.0359 68.1773 78.2075C68.62 78.3791 69.0951 78.4525 69.5694 78.4224C70.215 78.4305 70.8551 78.3034 71.4479 78.0495L71.6859 78.8947Z" fill="url(#paint7_linear_1101_20368)"/>
<path d="M73.1387 70.3068H77.9728V71.2639H74.3033V74.222H77.6847V75.179H74.3033V79.1936H73.1387V70.3068Z" fill="url(#paint8_linear_1101_20368)"/>
<path d="M80.0392 76.3846L79.0999 79.1811H77.9102L80.9534 70.3068H82.3435L85.3992 79.1936H84.1469L83.1825 76.3971L80.0392 76.3846ZM82.9697 75.4897L82.093 72.9293C81.8926 72.3576 81.7674 71.8232 81.6296 71.3136C81.4919 71.8356 81.3416 72.3824 81.1788 72.9169L80.3021 75.4897H82.9697Z" fill="url(#paint9_linear_1101_20368)"/>
<path d="M146.339 62.2656H112.851C111.087 62.2656 109.657 63.6846 109.657 65.435V105.021C109.657 106.772 111.087 108.191 112.851 108.191H146.339C148.102 108.191 149.532 106.772 149.532 105.021V65.435C149.532 63.6846 148.102 62.2656 146.339 62.2656Z" fill="url(#paint10_linear_1101_20368)"/>
<g opacity="0.25">
<path d="M141.442 98.7695H134.754C134.604 98.7695 134.479 98.4588 134.479 98.0735C134.479 97.6882 134.604 97.3651 134.754 97.3651H141.442C141.592 97.3651 141.717 97.6882 141.717 98.0735C141.717 98.4588 141.592 98.7695 141.442 98.7695Z" fill="black"/>
<path d="M118.837 95.4373H121.517V95.9718H119.476V97.6497H121.367V98.1717H119.476V100.409H118.837V95.4373Z" fill="black"/>
<path d="M125.913 100.211C125.495 100.378 125.048 100.458 124.598 100.447C124.262 100.473 123.925 100.427 123.609 100.311C123.293 100.196 123.006 100.013 122.768 99.7771C122.53 99.5409 122.347 99.2562 122.23 98.9427C122.113 98.6293 122.067 98.2944 122.093 97.9613C122.077 97.6182 122.133 97.2754 122.258 96.9548C122.382 96.6342 122.572 96.3427 122.816 96.0986C123.059 95.8545 123.351 95.6632 123.673 95.5367C123.995 95.4102 124.34 95.3513 124.685 95.3636C125.09 95.3459 125.493 95.4226 125.863 95.5874L125.712 96.1094C125.399 95.9632 125.056 95.8909 124.711 95.8982C124.442 95.8839 124.174 95.9278 123.924 96.0268C123.674 96.1258 123.449 96.2776 123.265 96.4715C123.08 96.6654 122.94 96.8969 122.854 97.1499C122.769 97.4028 122.74 97.6712 122.769 97.9365C122.742 98.1958 122.771 98.4581 122.856 98.705C122.94 98.9519 123.078 99.1777 123.259 99.3668C123.44 99.5559 123.66 99.7037 123.904 99.8001C124.148 99.8965 124.411 99.9392 124.673 99.9251C125.035 99.929 125.393 99.857 125.725 99.7138L125.913 100.211Z" fill="black"/>
<path d="M126.714 95.4373H129.394V95.9718H127.353V97.6497H129.244V98.1717H127.353V100.409H126.714V95.4373Z" fill="black"/>
<path d="M130.546 98.8182L130.02 100.372H129.356L131.047 95.4002H131.824L133.527 100.372H132.838L132.299 98.8182H130.546ZM132.174 98.321L131.686 96.9041C131.573 96.581 131.498 96.2826 131.423 95.9968C131.348 96.2951 131.273 96.5934 131.172 96.8917L130.684 98.321H132.174Z" fill="black"/>
</g>
<path opacity="0.15" d="M136.42 70.7795H119.15C118.964 70.7795 118.785 70.7062 118.654 70.5756C118.522 70.4451 118.448 70.2681 118.448 70.0835C118.447 69.991 118.464 69.8991 118.498 69.8132C118.533 69.7274 118.584 69.6492 118.649 69.5832C118.715 69.5173 118.792 69.4649 118.878 69.4292C118.964 69.3934 119.057 69.375 119.15 69.375H136.42C136.513 69.375 136.605 69.3934 136.691 69.4292C136.777 69.4649 136.855 69.5173 136.92 69.5832C136.985 69.6492 137.037 69.7274 137.071 69.8132C137.106 69.8991 137.123 69.991 137.121 70.0835C137.121 70.2681 137.047 70.4451 136.915 70.5756C136.784 70.7062 136.606 70.7795 136.42 70.7795Z" fill="black"/>
<path opacity="0.15" d="M136.419 74.881H119.15C118.962 74.8778 118.784 74.8017 118.653 74.6692C118.522 74.5367 118.448 74.3583 118.448 74.1726C118.448 73.988 118.522 73.811 118.654 73.6805C118.785 73.5499 118.964 73.4766 119.15 73.4766H136.419C136.605 73.4766 136.784 73.5499 136.915 73.6805C137.047 73.811 137.121 73.988 137.121 74.1726C137.121 74.3583 137.047 74.5367 136.916 74.6692C136.785 74.8017 136.607 74.8778 136.419 74.881Z" fill="black"/>
<path opacity="0.15" d="M136.419 79.0072H119.15C118.964 79.0072 118.785 78.9338 118.654 78.8033C118.522 78.6728 118.448 78.4957 118.448 78.3111C118.448 78.1265 118.522 77.9495 118.654 77.8189C118.785 77.6884 118.964 77.6151 119.15 77.6151H136.419C136.605 77.6151 136.784 77.6884 136.915 77.8189C137.047 77.9495 137.121 78.1265 137.121 78.3111C137.121 78.4957 137.047 78.6728 136.915 78.8033C136.784 78.9338 136.605 79.0072 136.419 79.0072Z" fill="black"/>
<path opacity="0.15" d="M136.42 83.0705H119.15C118.964 83.0705 118.785 82.9971 118.654 82.8666C118.522 82.7361 118.448 82.5591 118.448 82.3745C118.447 82.282 118.464 82.1901 118.498 82.1043C118.533 82.0184 118.584 81.9402 118.649 81.8743C118.715 81.8083 118.792 81.7559 118.878 81.7202C118.964 81.6844 119.057 81.666 119.15 81.666H136.42C136.513 81.666 136.605 81.6844 136.691 81.7202C136.777 81.7559 136.855 81.8083 136.92 81.8743C136.985 81.9402 137.037 82.0184 137.071 82.1043C137.106 82.1901 137.123 82.282 137.121 82.3745C137.121 82.5591 137.047 82.7361 136.915 82.8666C136.784 82.9971 136.606 83.0705 136.42 83.0705Z" fill="black"/>
<path opacity="0.15" d="M136.42 87.1721H119.15C119.057 87.1721 118.964 87.1536 118.878 87.1179C118.792 87.0821 118.715 87.0298 118.649 86.9638C118.584 86.8979 118.533 86.8196 118.498 86.7337C118.464 86.6479 118.447 86.556 118.448 86.4636C118.448 86.279 118.522 86.1019 118.654 85.9714C118.785 85.8409 118.964 85.7676 119.15 85.7676H136.42C136.606 85.7676 136.784 85.8409 136.915 85.9714C137.047 86.1019 137.121 86.279 137.121 86.4636C137.123 86.556 137.106 86.6479 137.071 86.7337C137.037 86.8196 136.985 86.8979 136.92 86.9638C136.855 87.0298 136.777 87.0821 136.691 87.1179C136.605 87.1536 136.513 87.1721 136.42 87.1721Z" fill="black"/>
<path opacity="0.15" d="M136.419 91.2612H119.15C118.964 91.2612 118.785 91.1879 118.654 91.0573C118.522 90.9268 118.448 90.7498 118.448 90.5652C118.448 90.3806 118.522 90.2035 118.654 90.073C118.785 89.9424 118.964 89.8691 119.15 89.8691H136.419C136.605 89.8691 136.784 89.9424 136.915 90.073C137.047 90.2035 137.121 90.3806 137.121 90.5652C137.121 90.7498 137.047 90.9268 136.915 91.0573C136.784 91.1879 136.605 91.2612 136.419 91.2612Z" fill="black"/>
<path opacity="0.25" d="M28.8931 112.566C28.8956 114.177 28.4166 115.752 27.5167 117.092C26.6169 118.433 25.3366 119.478 23.838 120.096C22.3393 120.714 20.6896 120.877 19.0976 120.565C17.5055 120.252 16.0428 119.477 14.8943 118.339C13.7459 117.201 12.9634 115.751 12.6458 114.171C12.3283 112.592 12.49 110.954 13.1105 109.466C13.731 107.978 14.7824 106.705 16.1316 105.81C17.4808 104.915 19.0673 104.438 20.6902 104.438C21.7668 104.436 22.8332 104.645 23.8283 105.053C24.8235 105.46 25.7279 106.059 26.4897 106.814C27.2516 107.569 27.856 108.465 28.2684 109.452C28.6808 110.44 28.8931 111.498 28.8931 112.566Z" fill="url(#paint11_linear_1101_20368)"/>
<path opacity="0.25" d="M147.728 27.1286C147.731 28.7398 147.252 30.3155 146.351 31.6562C145.451 32.9969 144.17 34.0422 142.67 34.66C141.171 35.2777 139.521 35.4399 137.928 35.1262C136.336 34.8125 134.873 34.0369 133.725 32.8976C132.577 31.7583 131.796 30.3066 131.48 28.7262C131.164 27.1459 131.327 25.5079 131.95 24.0198C132.572 22.5318 133.625 21.2605 134.976 20.3669C136.327 19.4733 137.915 18.9976 139.538 19C141.71 19 143.794 19.8564 145.33 21.3808C146.866 22.9052 147.728 24.9728 147.728 27.1286Z" fill="url(#paint12_linear_1101_20368)"/>
</g>
<defs>
<linearGradient id="paint0_linear_1101_20368" x1="85.3598" y1="172.023" x2="94.7359" y2="76.3181" gradientUnits="userSpaceOnUse">
<stop stop-color="#E0EDFE"/>
<stop offset="1" stop-color="#9FB1FA"/>
</linearGradient>
<linearGradient id="paint1_linear_1101_20368" x1="117.134" y1="54.8327" x2="120.218" y2="2.1063" gradientUnits="userSpaceOnUse">
<stop stop-color="#4CEDCE"/>
<stop offset="1" stop-color="#529AB3"/>
</linearGradient>
<linearGradient id="paint2_linear_1101_20368" x1="98.8117" y1="173.143" x2="67.125" y2="59.0202" gradientUnits="userSpaceOnUse">
<stop stop-color="#FF9500"/>
<stop offset="1" stop-color="#FFE3A4"/>
</linearGradient>
<linearGradient id="paint3_linear_1101_20368" x1="65.5743" y1="142.358" x2="75.6284" y2="14.4389" gradientUnits="userSpaceOnUse">
<stop stop-color="#FF9500"/>
<stop offset="1" stop-color="#FFE3A4"/>
</linearGradient>
<linearGradient id="paint4_linear_1101_20368" x1="77.756" y1="65.4689" x2="140.533" y2="-19.6029" gradientUnits="userSpaceOnUse">
<stop stop-color="#FF9500"/>
<stop offset="1" stop-color="#FFE3A4"/>
</linearGradient>
<linearGradient id="paint5_linear_1101_20368" x1="62.1177" y1="97.3777" x2="114.211" y2="-39.1207" gradientUnits="userSpaceOnUse">
<stop stop-color="#FF9500"/>
<stop offset="1" stop-color="#FFE3A4"/>
</linearGradient>
<linearGradient id="paint6_linear_1101_20368" x1="61.3662" y1="69.1385" x2="61.3662" y2="70.2944" gradientUnits="userSpaceOnUse">
<stop stop-color="#FF9500"/>
<stop offset="1" stop-color="#FFE3A4"/>
</linearGradient>
<linearGradient id="paint7_linear_1101_20368" x1="68.3046" y1="69.138" x2="68.3046" y2="70.2939" gradientUnits="userSpaceOnUse">
<stop stop-color="#FF9500"/>
<stop offset="1" stop-color="#FFE3A4"/>
</linearGradient>
<linearGradient id="paint8_linear_1101_20368" x1="75.5557" y1="69.1385" x2="75.5557" y2="70.2944" gradientUnits="userSpaceOnUse">
<stop stop-color="#FF9500"/>
<stop offset="1" stop-color="#FFE3A4"/>
</linearGradient>
<linearGradient id="paint9_linear_1101_20368" x1="81.6547" y1="69.1385" x2="81.6547" y2="70.2944" gradientUnits="userSpaceOnUse">
<stop stop-color="#FF9500"/>
<stop offset="1" stop-color="#FFE3A4"/>
</linearGradient>
<linearGradient id="paint10_linear_1101_20368" x1="134.116" y1="51.8501" x2="119.161" y2="163.965" gradientUnits="userSpaceOnUse">
<stop stop-color="#FABF6D"/>
<stop offset="1" stop-color="#FFE859"/>
</linearGradient>
<linearGradient id="paint11_linear_1101_20368" x1="22.9194" y1="152.699" x2="20.2795" y2="104.398" gradientUnits="userSpaceOnUse">
<stop stop-color="#E0EDFE"/>
<stop offset="1" stop-color="#9FB1FA"/>
</linearGradient>
<linearGradient id="paint12_linear_1101_20368" x1="141.755" y1="67.2122" x2="139.115" y2="18.9232" gradientUnits="userSpaceOnUse">
<stop stop-color="#E0EDFE"/>
<stop offset="1" stop-color="#9FB1FA"/>
</linearGradient>
<clipPath id="clip0_1101_20368">
<rect width="140" height="140" fill="white" transform="translate(12.5 19)"/>
</clipPath>
</defs>
</svg>
