<svg width="141" height="140" viewBox="0 0 141 140" fill="none" xmlns="http://www.w3.org/2000/svg">
<rect x="0.5" width="140" height="140" fill="#FFFBF7"/>
<g clip-path="url(#clip0_793_31328)">
<g opacity="0.91">
<path d="M18.3832 11.535C18.3857 11.8011 18.3085 12.0618 18.1614 12.2842C18.0143 12.5065 17.8039 12.6805 17.557 12.784C17.3101 12.8875 17.0378 12.9159 16.7746 12.8655C16.5114 12.8151 16.2692 12.6883 16.0788 12.5011C15.8884 12.3138 15.7584 12.0747 15.7052 11.814C15.6519 11.5533 15.678 11.2827 15.7799 11.0367C15.8819 10.7907 16.0553 10.5803 16.278 10.4323C16.5007 10.2842 16.7627 10.2052 17.0307 10.2051C17.3872 10.2051 17.7294 10.3449 17.9827 10.5939C18.236 10.843 18.3799 11.1812 18.3832 11.535Z" fill="#E0EDFE"/>
<path d="M27.3002 11.535C27.3027 11.8011 27.2255 12.0618 27.0784 12.2842C26.9313 12.5065 26.7209 12.6805 26.474 12.784C26.2271 12.8875 25.9548 12.9159 25.6916 12.8655C25.4284 12.8151 25.1862 12.6883 24.9958 12.5011C24.8054 12.3138 24.6753 12.0747 24.6221 11.814C24.5689 11.5533 24.595 11.2827 24.697 11.0367C24.799 10.7907 24.9723 10.5803 25.195 10.4323C25.4176 10.2842 25.6796 10.2052 25.9477 10.2051C26.3042 10.2051 26.6464 10.3449 26.8997 10.5939C27.153 10.843 27.2969 11.1812 27.3002 11.535Z" fill="#E0EDFE"/>
<path d="M36.2167 11.535C36.2192 11.8011 36.142 12.0618 35.9949 12.2842C35.8478 12.5065 35.6374 12.6805 35.3905 12.784C35.1436 12.8875 34.8713 12.9159 34.6081 12.8655C34.3449 12.8151 34.1027 12.6883 33.9123 12.5011C33.7219 12.3138 33.5918 12.0747 33.5386 11.814C33.4854 11.5533 33.5115 11.2827 33.6135 11.0367C33.7155 10.7907 33.8888 10.5803 34.1115 10.4323C34.3341 10.2842 34.5961 10.2052 34.8642 10.2051C35.2207 10.2051 35.5629 10.3449 35.8162 10.5939C36.0695 10.843 36.2134 11.1812 36.2167 11.535Z" fill="#E0EDFE"/>
<path d="M45.1332 11.535C45.1357 11.8016 45.0582 12.0628 44.9105 12.2855C44.7629 12.5081 44.5518 12.682 44.3041 12.7851C44.0565 12.8883 43.7835 12.916 43.5199 12.8646C43.2564 12.8132 43.0143 12.685 42.8244 12.4966C42.6345 12.3081 42.5054 12.0678 42.4536 11.8062C42.4018 11.5447 42.4296 11.2738 42.5336 11.028C42.6375 10.7822 42.8128 10.5727 43.0371 10.4262C43.2615 10.2796 43.5247 10.2027 43.7932 10.2051C43.9692 10.2051 44.1435 10.2396 44.306 10.3064C44.4686 10.3732 44.6163 10.4712 44.7408 10.5947C44.8652 10.7182 44.9639 10.8647 45.0312 11.0261C45.0986 11.1874 45.1332 11.3604 45.1332 11.535Z" fill="#E0EDFE"/>
<path d="M54.0502 11.535C54.0527 11.8016 53.9752 12.0628 53.8275 12.2855C53.6799 12.5081 53.4688 12.682 53.2211 12.7851C52.9735 12.8883 52.7005 12.916 52.4369 12.8646C52.1734 12.8132 51.9313 12.685 51.7414 12.4966C51.5515 12.3081 51.4224 12.0678 51.3706 11.8062C51.3188 11.5447 51.3466 11.2738 51.4506 11.028C51.5545 10.7822 51.7298 10.5727 51.9541 10.4262C52.1785 10.2796 52.4416 10.2027 52.7102 10.2051C52.8862 10.2051 53.0604 10.2396 53.223 10.3064C53.3856 10.3732 53.5333 10.4712 53.6578 10.5947C53.7822 10.7182 53.8809 10.8647 53.9482 11.0261C54.0156 11.1874 54.0502 11.3604 54.0502 11.535Z" fill="#E0EDFE"/>
<path d="M62.9418 11.535C62.9443 11.8011 62.8671 12.0618 62.72 12.2842C62.5729 12.5065 62.3625 12.6805 62.1156 12.784C61.8687 12.8875 61.5964 12.9159 61.3332 12.8655C61.07 12.8151 60.8278 12.6883 60.6374 12.5011C60.447 12.3138 60.3169 12.0747 60.2637 11.814C60.2105 11.5533 60.2366 11.2827 60.3386 11.0367C60.4406 10.7907 60.6139 10.5803 60.8366 10.4323C61.0593 10.2842 61.3213 10.2052 61.5893 10.2051C61.9459 10.2051 62.288 10.3449 62.5413 10.5939C62.7946 10.843 62.9385 11.1812 62.9418 11.535Z" fill="#E0EDFE"/>
<path d="M71.8959 11.535C71.8984 11.8011 71.8212 12.0618 71.6741 12.2842C71.527 12.5065 71.3166 12.6805 71.0697 12.784C70.8228 12.8875 70.5505 12.9159 70.2873 12.8655C70.0241 12.8151 69.7819 12.6883 69.5915 12.5011C69.4011 12.3138 69.271 12.0747 69.2178 11.814C69.1646 11.5533 69.1907 11.2827 69.2927 11.0367C69.3947 10.7907 69.568 10.5803 69.7907 10.4323C70.0134 10.2842 70.2754 10.2052 70.5434 10.2051C70.9 10.2051 71.2421 10.3449 71.4954 10.5939C71.7487 10.843 71.8926 11.1812 71.8959 11.535Z" fill="#E0EDFE"/>
<path d="M18.3832 17.9979C18.3857 18.2639 18.3085 18.5246 18.1614 18.747C18.0143 18.9694 17.8039 19.1433 17.557 19.2468C17.3101 19.3504 17.0378 19.3787 16.7746 19.3283C16.5114 19.2779 16.2692 19.1511 16.0788 18.9639C15.8884 18.7767 15.7584 18.5375 15.7052 18.2767C15.6519 18.016 15.678 17.7456 15.7799 17.4996C15.8819 17.2535 16.0553 17.0431 16.278 16.8951C16.5007 16.747 16.7627 16.668 17.0307 16.668C17.3872 16.668 17.7294 16.8077 17.9827 17.0568C18.236 17.3058 18.3799 17.644 18.3832 17.9979Z" fill="#E0EDFE"/>
<path d="M27.3002 17.9979C27.3027 18.2639 27.2255 18.5246 27.0784 18.747C26.9313 18.9694 26.7209 19.1433 26.474 19.2468C26.2271 19.3504 25.9548 19.3787 25.6916 19.3283C25.4284 19.2779 25.1862 19.1511 24.9958 18.9639C24.8054 18.7767 24.6753 18.5375 24.6221 18.2767C24.5689 18.016 24.595 17.7456 24.697 17.4996C24.799 17.2535 24.9723 17.0431 25.195 16.8951C25.4176 16.747 25.6796 16.668 25.9477 16.668C26.3042 16.668 26.6464 16.8077 26.8997 17.0568C27.153 17.3058 27.2969 17.644 27.3002 17.9979Z" fill="#E0EDFE"/>
<path d="M36.2167 17.9979C36.2192 18.2639 36.142 18.5246 35.9949 18.747C35.8478 18.9694 35.6374 19.1433 35.3905 19.2468C35.1436 19.3504 34.8713 19.3787 34.6081 19.3283C34.3449 19.2779 34.1027 19.1511 33.9123 18.9639C33.7219 18.7767 33.5918 18.5375 33.5386 18.2767C33.4854 18.016 33.5115 17.7456 33.6135 17.4996C33.7155 17.2535 33.8888 17.0431 34.1115 16.8951C34.3341 16.747 34.5961 16.668 34.8642 16.668C35.2207 16.668 35.5629 16.8077 35.8162 17.0568C36.0695 17.3058 36.2134 17.644 36.2167 17.9979Z" fill="#E0EDFE"/>
<path d="M45.1332 17.9981C45.1357 18.2646 45.0582 18.5259 44.9105 18.7485C44.7629 18.9712 44.5518 19.1451 44.3041 19.2482C44.0565 19.3514 43.7835 19.379 43.5199 19.3276C43.2564 19.2763 43.0143 19.1481 42.8244 18.9596C42.6345 18.7712 42.5054 18.5309 42.4536 18.2693C42.4018 18.0078 42.4296 17.7368 42.5336 17.4911C42.6375 17.2453 42.8128 17.0358 43.0371 16.8893C43.2615 16.7427 43.5247 16.6658 43.7932 16.6682C44.1486 16.6682 44.4895 16.8083 44.7408 17.0578C44.9921 17.3072 45.1332 17.6454 45.1332 17.9981Z" fill="#E0EDFE"/>
<path d="M54.0502 17.9981C54.0527 18.2646 53.9752 18.5259 53.8275 18.7485C53.6799 18.9712 53.4688 19.1451 53.2211 19.2482C52.9735 19.3514 52.7005 19.379 52.4369 19.3276C52.1734 19.2763 51.9313 19.1481 51.7414 18.9596C51.5515 18.7712 51.4224 18.5309 51.3706 18.2693C51.3188 18.0078 51.3466 17.7368 51.4506 17.4911C51.5545 17.2453 51.7298 17.0358 51.9541 16.8893C52.1785 16.7427 52.4416 16.6658 52.7102 16.6682C53.0656 16.6682 53.4065 16.8083 53.6578 17.0578C53.9091 17.3072 54.0502 17.6454 54.0502 17.9981Z" fill="#E0EDFE"/>
<path d="M62.9418 17.9979C62.9443 18.2639 62.8671 18.5246 62.72 18.747C62.5729 18.9694 62.3625 19.1433 62.1156 19.2468C61.8687 19.3504 61.5964 19.3787 61.3332 19.3283C61.07 19.2779 60.8278 19.1511 60.6374 18.9639C60.447 18.7767 60.3169 18.5375 60.2637 18.2767C60.2105 18.016 60.2366 17.7456 60.3386 17.4996C60.4406 17.2535 60.6139 17.0431 60.8366 16.8951C61.0593 16.747 61.3213 16.668 61.5893 16.668C61.9459 16.668 62.288 16.8077 62.5413 17.0568C62.7946 17.3058 62.9385 17.644 62.9418 17.9979Z" fill="#E0EDFE"/>
<path d="M71.8959 17.9979C71.8984 18.2639 71.8212 18.5246 71.6741 18.747C71.527 18.9694 71.3166 19.1433 71.0697 19.2468C70.8228 19.3504 70.5505 19.3787 70.2873 19.3283C70.0241 19.2779 69.7819 19.1511 69.5915 18.9639C69.4011 18.7767 69.271 18.5375 69.2178 18.2767C69.1646 18.016 69.1907 17.7456 69.2927 17.4996C69.3947 17.2535 69.568 17.0431 69.7907 16.8951C70.0134 16.747 70.2754 16.668 70.5434 16.668C70.9 16.668 71.2421 16.8077 71.4954 17.0568C71.7487 17.3058 71.8926 17.644 71.8959 17.9979Z" fill="#E0EDFE"/>
<path d="M18.3832 24.5116C18.3857 24.7776 18.3085 25.0383 18.1614 25.2607C18.0143 25.483 17.8039 25.657 17.557 25.7605C17.3101 25.864 17.0378 25.8924 16.7746 25.842C16.5114 25.7916 16.2692 25.6648 16.0788 25.4776C15.8884 25.2903 15.7584 25.0512 15.7052 24.7905C15.6519 24.5298 15.678 24.2592 15.7799 24.0132C15.8819 23.7672 16.0553 23.5568 16.278 23.4088C16.5007 23.2607 16.7627 23.1817 17.0307 23.1816C17.3872 23.1816 17.7294 23.3214 17.9827 23.5704C18.236 23.8195 18.3799 24.1577 18.3832 24.5116Z" fill="#E0EDFE"/>
<path d="M27.3002 24.5116C27.3027 24.7776 27.2255 25.0383 27.0784 25.2607C26.9313 25.483 26.7209 25.657 26.474 25.7605C26.2271 25.864 25.9548 25.8924 25.6916 25.842C25.4284 25.7916 25.1862 25.6648 24.9958 25.4776C24.8054 25.2903 24.6753 25.0512 24.6221 24.7905C24.5689 24.5298 24.595 24.2592 24.697 24.0132C24.799 23.7672 24.9723 23.5568 25.195 23.4088C25.4176 23.2607 25.6796 23.1817 25.9477 23.1816C26.3042 23.1816 26.6464 23.3214 26.8997 23.5704C27.153 23.8195 27.2969 24.1577 27.3002 24.5116Z" fill="#E0EDFE"/>
<path d="M36.2167 24.5116C36.2192 24.7776 36.142 25.0383 35.9949 25.2607C35.8478 25.483 35.6374 25.657 35.3905 25.7605C35.1436 25.864 34.8713 25.8924 34.6081 25.842C34.3449 25.7916 34.1027 25.6648 33.9123 25.4776C33.7219 25.2903 33.5918 25.0512 33.5386 24.7905C33.4854 24.5298 33.5115 24.2592 33.6135 24.0132C33.7155 23.7672 33.8888 23.5568 34.1115 23.4088C34.3341 23.2607 34.5961 23.1817 34.8642 23.1816C35.2207 23.1816 35.5629 23.3214 35.8162 23.5704C36.0695 23.8195 36.2134 24.1577 36.2167 24.5116Z" fill="#E0EDFE"/>
<path d="M45.1332 24.5116C45.1357 24.7781 45.0582 25.0394 44.9105 25.262C44.7629 25.4847 44.5518 25.6586 44.3041 25.7617C44.0565 25.8648 43.7835 25.8925 43.5199 25.8411C43.2564 25.7897 43.0143 25.6616 42.8244 25.4731C42.6345 25.2847 42.5054 25.0443 42.4536 24.7828C42.4018 24.5213 42.4296 24.2503 42.5336 24.0046C42.6375 23.7588 42.8128 23.5493 43.0371 23.4028C43.2615 23.2562 43.5247 23.1792 43.7932 23.1817C44.1486 23.1817 44.4895 23.3218 44.7408 23.5712C44.9921 23.8206 45.1332 24.1589 45.1332 24.5116Z" fill="#E0EDFE"/>
<path d="M54.0502 24.5116C54.0527 24.7781 53.9752 25.0394 53.8275 25.262C53.6799 25.4847 53.4688 25.6586 53.2211 25.7617C52.9735 25.8648 52.7005 25.8925 52.4369 25.8411C52.1734 25.7897 51.9313 25.6616 51.7414 25.4731C51.5515 25.2847 51.4224 25.0443 51.3706 24.7828C51.3188 24.5213 51.3466 24.2503 51.4506 24.0046C51.5545 23.7588 51.7298 23.5493 51.9541 23.4028C52.1785 23.2562 52.4416 23.1792 52.7102 23.1817C53.0656 23.1817 53.4065 23.3218 53.6578 23.5712C53.9091 23.8206 54.0502 24.1589 54.0502 24.5116Z" fill="#E0EDFE"/>
<path d="M62.9418 24.5116C62.9443 24.7776 62.8671 25.0383 62.72 25.2607C62.5729 25.483 62.3625 25.657 62.1156 25.7605C61.8687 25.864 61.5964 25.8924 61.3332 25.842C61.07 25.7916 60.8278 25.6648 60.6374 25.4776C60.447 25.2903 60.3169 25.0512 60.2637 24.7905C60.2105 24.5298 60.2366 24.2592 60.3386 24.0132C60.4406 23.7672 60.6139 23.5568 60.8366 23.4088C61.0593 23.2607 61.3213 23.1817 61.5893 23.1816C61.9459 23.1816 62.288 23.3214 62.5413 23.5704C62.7946 23.8195 62.9385 24.1577 62.9418 24.5116Z" fill="#E0EDFE"/>
<path d="M71.8959 24.5116C71.8984 24.7776 71.8212 25.0383 71.6741 25.2607C71.527 25.483 71.3166 25.657 71.0697 25.7605C70.8228 25.864 70.5505 25.8924 70.2873 25.842C70.0241 25.7916 69.7819 25.6648 69.5915 25.4776C69.4011 25.2903 69.271 25.0512 69.2178 24.7905C69.1646 24.5298 69.1907 24.2592 69.2927 24.0132C69.3947 23.7672 69.568 23.5568 69.7907 23.4088C70.0134 23.2607 70.2754 23.1817 70.5434 23.1816C70.9 23.1816 71.2421 23.3214 71.4954 23.5704C71.7487 23.8195 71.8926 24.1577 71.8959 24.5116Z" fill="#E0EDFE"/>
<path d="M18.3832 31.0233C18.3857 31.2893 18.3085 31.55 18.1614 31.7724C18.0143 31.9948 17.8039 32.1687 17.557 32.2722C17.3101 32.3757 17.0378 32.4041 16.7746 32.3537C16.5114 32.3033 16.2692 32.1765 16.0788 31.9893C15.8884 31.8021 15.7584 31.5629 15.7052 31.3022C15.6519 31.0415 15.678 30.7709 15.7799 30.5249C15.8819 30.2789 16.0553 30.0685 16.278 29.9205C16.5007 29.7724 16.7627 29.6934 17.0307 29.6934C17.3872 29.6933 17.7294 29.8331 17.9827 30.0821C18.236 30.3312 18.3799 30.6694 18.3832 31.0233Z" fill="#E0EDFE"/>
<path d="M27.3002 31.0233C27.3027 31.2893 27.2255 31.55 27.0784 31.7724C26.9313 31.9948 26.7209 32.1687 26.474 32.2722C26.2271 32.3757 25.9548 32.4041 25.6916 32.3537C25.4284 32.3033 25.1862 32.1765 24.9958 31.9893C24.8054 31.8021 24.6753 31.5629 24.6221 31.3022C24.5689 31.0415 24.595 30.7709 24.697 30.5249C24.799 30.2789 24.9723 30.0685 25.195 29.9205C25.4176 29.7724 25.6796 29.6934 25.9477 29.6934C26.3042 29.6933 26.6464 29.8331 26.8997 30.0821C27.153 30.3312 27.2969 30.6694 27.3002 31.0233Z" fill="#E0EDFE"/>
<path d="M36.2167 31.0233C36.2192 31.2893 36.142 31.55 35.9949 31.7724C35.8478 31.9948 35.6374 32.1687 35.3905 32.2722C35.1436 32.3757 34.8713 32.4041 34.6081 32.3537C34.3449 32.3033 34.1027 32.1765 33.9123 31.9893C33.7219 31.8021 33.5918 31.5629 33.5386 31.3022C33.4854 31.0415 33.5115 30.7709 33.6135 30.5249C33.7155 30.2789 33.8888 30.0685 34.1115 29.9205C34.3341 29.7724 34.5961 29.6934 34.8642 29.6934C35.2207 29.6933 35.5629 29.8331 35.8162 30.0821C36.0695 30.3312 36.2134 30.6694 36.2167 31.0233Z" fill="#E0EDFE"/>
<path d="M45.1332 31.0233C45.1357 31.2899 45.0582 31.5511 44.9105 31.7737C44.7629 31.9964 44.5518 32.1704 44.3041 32.2735C44.0565 32.3766 43.7835 32.4043 43.5199 32.3529C43.2564 32.3015 43.0143 32.1733 42.8244 31.9849C42.6345 31.7964 42.5054 31.5561 42.4536 31.2945C42.4018 31.033 42.4296 30.7621 42.5336 30.5163C42.6375 30.2705 42.8128 30.061 43.0371 29.9145C43.2615 29.7679 43.5247 29.691 43.7932 29.6934C43.9692 29.6934 44.1435 29.7279 44.306 29.7947C44.4686 29.8615 44.6163 29.9595 44.7408 30.083C44.8652 30.2065 44.9639 30.353 45.0312 30.5144C45.0986 30.6757 45.1332 30.8487 45.1332 31.0233Z" fill="#E0EDFE"/>
<path d="M54.0502 31.0233C54.0527 31.2899 53.9752 31.5511 53.8275 31.7737C53.6799 31.9964 53.4688 32.1704 53.2211 32.2735C52.9735 32.3766 52.7005 32.4043 52.4369 32.3529C52.1734 32.3015 51.9313 32.1733 51.7414 31.9849C51.5515 31.7964 51.4224 31.5561 51.3706 31.2945C51.3188 31.033 51.3466 30.7621 51.4506 30.5163C51.5545 30.2705 51.7298 30.061 51.9541 29.9145C52.1785 29.7679 52.4416 29.691 52.7102 29.6934C52.8862 29.6934 53.0604 29.7279 53.223 29.7947C53.3856 29.8615 53.5333 29.9595 53.6578 30.083C53.7822 30.2065 53.8809 30.353 53.9482 30.5144C54.0156 30.6757 54.0502 30.8487 54.0502 31.0233Z" fill="#E0EDFE"/>
<path d="M62.9418 31.0233C62.9443 31.2893 62.8671 31.55 62.72 31.7724C62.5729 31.9948 62.3625 32.1687 62.1156 32.2722C61.8687 32.3757 61.5964 32.4041 61.3332 32.3537C61.07 32.3033 60.8278 32.1765 60.6374 31.9893C60.447 31.8021 60.3169 31.5629 60.2637 31.3022C60.2105 31.0415 60.2366 30.7709 60.3386 30.5249C60.4406 30.2789 60.6139 30.0685 60.8366 29.9205C61.0593 29.7724 61.3213 29.6934 61.5893 29.6934C61.9459 29.6933 62.288 29.8331 62.5413 30.0821C62.7946 30.3312 62.9385 30.6694 62.9418 31.0233Z" fill="#E0EDFE"/>
<path d="M71.8959 31.0233C71.8984 31.2893 71.8212 31.55 71.6741 31.7724C71.527 31.9948 71.3166 32.1687 71.0697 32.2722C70.8228 32.3757 70.5505 32.4041 70.2873 32.3537C70.0241 32.3033 69.7819 32.1765 69.5915 31.9893C69.4011 31.8021 69.271 31.5629 69.2178 31.3022C69.1646 31.0415 69.1907 30.7709 69.2927 30.5249C69.3947 30.2789 69.568 30.0685 69.7907 29.9205C70.0134 29.7724 70.2754 29.6934 70.5434 29.6934C70.9 29.6933 71.2421 29.8331 71.4954 30.0821C71.7487 30.3312 71.8926 30.6694 71.8959 31.0233Z" fill="#E0EDFE"/>
<path d="M18.3833 37.5356C18.3833 37.8011 18.3039 38.0607 18.1553 38.2814C18.0067 38.5022 17.7955 38.6742 17.5483 38.7758C17.3012 38.8774 17.0292 38.904 16.7669 38.8522C16.5045 38.8004 16.2635 38.6725 16.0744 38.4848C15.8852 38.2971 15.7564 38.0579 15.7042 37.7975C15.652 37.5371 15.6788 37.2673 15.7812 37.022C15.8836 36.7767 16.0569 36.5671 16.2793 36.4196C16.5017 36.2721 16.7632 36.1934 17.0307 36.1934C17.3884 36.1966 17.7306 36.339 17.9835 36.59C18.2365 36.8411 18.38 37.1806 18.3833 37.5356Z" fill="#E0EDFE"/>
<path d="M27.2998 37.5356C27.2998 37.8011 27.2205 38.0607 27.0719 38.2814C26.9232 38.5022 26.712 38.6742 26.4648 38.7758C26.2177 38.8774 25.9457 38.904 25.6834 38.8522C25.421 38.8004 25.18 38.6725 24.9909 38.4848C24.8017 38.2971 24.6729 38.0579 24.6207 37.7975C24.5685 37.5371 24.5953 37.2673 24.6977 37.022C24.8001 36.7767 24.9734 36.5671 25.1958 36.4196C25.4183 36.2721 25.6797 36.1934 25.9472 36.1934C26.1249 36.1934 26.3007 36.228 26.4648 36.2955C26.6289 36.3629 26.778 36.4618 26.9036 36.5865C27.0292 36.7111 27.1289 36.8591 27.1968 37.022C27.2648 37.1848 27.2998 37.3594 27.2998 37.5356Z" fill="#E0EDFE"/>
<path d="M36.2168 37.5356C36.2168 37.8011 36.1375 38.0607 35.9889 38.2814C35.8402 38.5022 35.629 38.6742 35.3818 38.7758C35.1347 38.8774 34.8627 38.904 34.6004 38.8522C34.338 38.8004 34.097 38.6725 33.9079 38.4848C33.7187 38.2971 33.5899 38.0579 33.5377 37.7975C33.4855 37.5371 33.5123 37.2673 33.6147 37.022C33.717 36.7767 33.8904 36.5671 34.1128 36.4196C34.3352 36.2721 34.5967 36.1934 34.8642 36.1934C35.0419 36.1934 35.2177 36.228 35.3818 36.2955C35.5459 36.3629 35.6951 36.4618 35.8207 36.5865C35.9463 36.7111 36.0459 36.8591 36.1138 37.022C36.1818 37.1848 36.2168 37.3594 36.2168 37.5356Z" fill="#E0EDFE"/>
<path d="M45.1333 37.5357C45.1333 37.8017 45.0536 38.0618 44.9044 38.2828C44.7553 38.5038 44.5433 38.6758 44.2954 38.777C44.0475 38.8782 43.7749 38.9041 43.5122 38.8513C43.2495 38.7985 43.0086 38.6694 42.8199 38.4804C42.6313 38.2914 42.5035 38.0511 42.4527 37.7899C42.4019 37.5287 42.4305 37.2584 42.5348 37.0134C42.6391 36.7683 42.8144 36.5596 43.0384 36.4136C43.2625 36.2676 43.5252 36.191 43.7933 36.1934C44.1498 36.1967 44.4906 36.3395 44.7416 36.5909C44.9925 36.8423 45.1333 37.1818 45.1333 37.5357Z" fill="#E0EDFE"/>
<path d="M54.0503 37.5357C54.0503 37.8017 53.9706 38.0618 53.8214 38.2828C53.6722 38.5038 53.4603 38.6758 53.2124 38.777C52.9645 38.8782 52.6919 38.9041 52.4292 38.8513C52.1665 38.7985 51.9256 38.6694 51.7369 38.4804C51.5483 38.2914 51.4205 38.0511 51.3697 37.7899C51.3189 37.5287 51.3475 37.2584 51.4518 37.0134C51.5561 36.7683 51.7314 36.5596 51.9555 36.4136C52.1795 36.2676 52.4422 36.191 52.7103 36.1934C53.0668 36.1967 53.4076 36.3395 53.6586 36.5909C53.9095 36.8423 54.0503 37.1818 54.0503 37.5357Z" fill="#E0EDFE"/>
<path d="M62.9419 37.5356C62.9419 37.8011 62.8626 38.0607 62.714 38.2814C62.5653 38.5022 62.3541 38.6742 62.107 38.7758C61.8598 38.8774 61.5878 38.904 61.3255 38.8522C61.0631 38.8004 60.8221 38.6725 60.633 38.4848C60.4438 38.2971 60.315 38.0579 60.2628 37.7975C60.2106 37.5371 60.2374 37.2673 60.3398 37.022C60.4421 36.7767 60.6155 36.5671 60.8379 36.4196C61.0603 36.2721 61.3219 36.1934 61.5894 36.1934C61.9471 36.1966 62.2892 36.339 62.5421 36.59C62.7951 36.8411 62.9386 37.1806 62.9419 37.5356Z" fill="#E0EDFE"/>
<path d="M71.896 37.5356C71.896 37.8011 71.8167 38.0607 71.6681 38.2814C71.5194 38.5022 71.3082 38.6742 71.0611 38.7758C70.8139 38.8774 70.542 38.904 70.2796 38.8522C70.0172 38.8004 69.7762 38.6725 69.5871 38.4848C69.3979 38.2971 69.2691 38.0579 69.2169 37.7975C69.1647 37.5371 69.1915 37.2673 69.2939 37.022C69.3962 36.7767 69.5696 36.5671 69.792 36.4196C70.0144 36.2721 70.276 36.1934 70.5435 36.1934C70.7211 36.1934 70.897 36.228 71.0611 36.2955C71.2252 36.3629 71.3743 36.4618 71.4999 36.5865C71.6255 36.7111 71.7251 36.8591 71.793 37.022C71.861 37.1848 71.896 37.3594 71.896 37.5356Z" fill="#E0EDFE"/>
<path d="M18.3833 44.0492C18.3833 44.3147 18.3039 44.5743 18.1553 44.795C18.0067 45.0158 17.7955 45.1878 17.5483 45.2894C17.3012 45.391 17.0292 45.4176 16.7669 45.3658C16.5045 45.314 16.2635 45.1861 16.0744 44.9984C15.8852 44.8107 15.7564 44.5716 15.7042 44.3112C15.652 44.0508 15.6788 43.7809 15.7812 43.5356C15.8836 43.2903 16.0569 43.0807 16.2793 42.9332C16.5017 42.7857 16.7632 42.707 17.0307 42.707C17.3884 42.7102 17.7306 42.8527 17.9835 43.1037C18.2365 43.3548 18.38 43.6942 18.3833 44.0492Z" fill="#E0EDFE"/>
<path d="M27.2998 44.0492C27.2998 44.3147 27.2205 44.5743 27.0719 44.795C26.9232 45.0158 26.712 45.1878 26.4648 45.2894C26.2177 45.391 25.9457 45.4176 25.6834 45.3658C25.421 45.314 25.18 45.1861 24.9909 44.9984C24.8017 44.8107 24.6729 44.5716 24.6207 44.3112C24.5685 44.0508 24.5953 43.7809 24.6977 43.5356C24.8001 43.2903 24.9734 43.0807 25.1958 42.9332C25.4183 42.7857 25.6797 42.707 25.9472 42.707C26.306 42.707 26.65 42.8483 26.9036 43.1001C27.1573 43.3518 27.2998 43.6932 27.2998 44.0492Z" fill="#E0EDFE"/>
<path d="M36.2168 44.0492C36.2168 44.3147 36.1375 44.5743 35.9889 44.795C35.8402 45.0158 35.629 45.1878 35.3818 45.2894C35.1347 45.391 34.8627 45.4176 34.6004 45.3658C34.338 45.314 34.097 45.1861 33.9079 44.9984C33.7187 44.8107 33.5899 44.5716 33.5377 44.3112C33.4855 44.0508 33.5123 43.7809 33.6147 43.5356C33.717 43.2903 33.8904 43.0807 34.1128 42.9332C34.3352 42.7857 34.5967 42.707 34.8642 42.707C35.223 42.707 35.567 42.8483 35.8207 43.1001C36.0743 43.3518 36.2168 43.6932 36.2168 44.0492Z" fill="#E0EDFE"/>
<path d="M45.1333 44.0492C45.1333 44.3153 45.0536 44.5753 44.9044 44.7963C44.7553 45.0173 44.5433 45.1893 44.2954 45.2905C44.0475 45.3918 43.7749 45.4176 43.5122 45.3648C43.2495 45.312 43.0086 45.1829 42.8199 44.9939C42.6313 44.805 42.5035 44.5647 42.4527 44.3035C42.4019 44.0423 42.4305 43.772 42.5348 43.5269C42.6391 43.2819 42.8144 43.0731 43.0384 42.9271C43.2625 42.7811 43.5252 42.7045 43.7933 42.707C44.1498 42.7102 44.4906 42.8531 44.7416 43.1045C44.9925 43.3559 45.1333 43.6954 45.1333 44.0492Z" fill="#E0EDFE"/>
<path d="M54.0503 44.0492C54.0503 44.3153 53.9706 44.5753 53.8214 44.7963C53.6722 45.0173 53.4603 45.1893 53.2124 45.2905C52.9645 45.3918 52.6919 45.4176 52.4292 45.3648C52.1665 45.312 51.9256 45.1829 51.7369 44.9939C51.5483 44.805 51.4205 44.5647 51.3697 44.3035C51.3189 44.0423 51.3475 43.772 51.4518 43.5269C51.5561 43.2819 51.7314 43.0731 51.9555 42.9271C52.1795 42.7811 52.4422 42.7045 52.7103 42.707C53.0668 42.7102 53.4076 42.8531 53.6586 43.1045C53.9095 43.3559 54.0503 43.6954 54.0503 44.0492Z" fill="#E0EDFE"/>
<path d="M62.9419 44.0492C62.9419 44.3147 62.8626 44.5743 62.714 44.795C62.5653 45.0158 62.3541 45.1878 62.107 45.2894C61.8598 45.391 61.5878 45.4176 61.3255 45.3658C61.0631 45.314 60.8221 45.1861 60.633 44.9984C60.4438 44.8107 60.315 44.5716 60.2628 44.3112C60.2106 44.0508 60.2374 43.7809 60.3398 43.5356C60.4421 43.2903 60.6155 43.0807 60.8379 42.9332C61.0603 42.7857 61.3219 42.707 61.5894 42.707C61.9471 42.7102 62.2892 42.8527 62.5421 43.1037C62.7951 43.3548 62.9386 43.6942 62.9419 44.0492Z" fill="#E0EDFE"/>
<path d="M71.896 44.0492C71.896 44.3147 71.8167 44.5743 71.6681 44.795C71.5194 45.0158 71.3082 45.1878 71.0611 45.2894C70.8139 45.391 70.542 45.4176 70.2796 45.3658C70.0172 45.314 69.7762 45.1861 69.5871 44.9984C69.3979 44.8107 69.2691 44.5716 69.2169 44.3112C69.1647 44.0508 69.1915 43.7809 69.2939 43.5356C69.3962 43.2903 69.5696 43.0807 69.792 42.9332C70.0144 42.7857 70.276 42.707 70.5435 42.707C70.9022 42.707 71.2462 42.8483 71.4999 43.1001C71.7535 43.3518 71.896 43.6932 71.896 44.0492Z" fill="#E0EDFE"/>
<path d="M18.3833 50.5631C18.3833 50.8285 18.3039 51.088 18.1553 51.3088C18.0067 51.5295 17.7955 51.7015 17.5483 51.8031C17.3012 51.9047 17.0292 51.9313 16.7669 51.8795C16.5045 51.8277 16.2635 51.6999 16.0744 51.5122C15.8852 51.3245 15.7564 51.0853 15.7042 50.8249C15.652 50.5645 15.6788 50.2946 15.7812 50.0493C15.8836 49.804 16.0569 49.5944 16.2793 49.4469C16.5017 49.2994 16.7632 49.2207 17.0307 49.2207C17.3895 49.2207 17.7335 49.3622 17.9871 49.6139C18.2408 49.8656 18.3833 50.207 18.3833 50.5631Z" fill="#E0EDFE"/>
<path d="M27.2998 50.5612C27.2998 50.8266 27.2205 51.0861 27.0719 51.3069C26.9232 51.5276 26.712 51.6997 26.4648 51.8013C26.2177 51.9028 25.9457 51.9294 25.6834 51.8776C25.421 51.8258 25.18 51.6981 24.9909 51.5103C24.8017 51.3226 24.6729 51.0834 24.6207 50.823C24.5685 50.5626 24.5953 50.2927 24.6977 50.0474C24.8001 49.8022 24.9734 49.5925 25.1958 49.445C25.4183 49.2975 25.6797 49.2188 25.9472 49.2188C26.1253 49.2171 26.302 49.2507 26.4668 49.3176C26.6317 49.3844 26.7814 49.4833 26.9074 49.6083C27.0333 49.7333 27.1329 49.8819 27.2002 50.0455C27.2676 50.2091 27.3015 50.3844 27.2998 50.5612Z" fill="#E0EDFE"/>
<path d="M36.2168 50.5612C36.2168 50.8266 36.1375 51.0861 35.9889 51.3069C35.8402 51.5276 35.629 51.6997 35.3818 51.8013C35.1347 51.9028 34.8627 51.9294 34.6004 51.8776C34.338 51.8258 34.097 51.6981 33.9079 51.5103C33.7187 51.3226 33.5899 51.0834 33.5377 50.823C33.4855 50.5626 33.5123 50.2927 33.6147 50.0474C33.717 49.8022 33.8904 49.5925 34.1128 49.445C34.3352 49.2975 34.5967 49.2188 34.8642 49.2188C35.0423 49.2171 35.219 49.2507 35.3838 49.3176C35.5487 49.3844 35.6984 49.4833 35.8244 49.6083C35.9503 49.7333 36.0499 49.8819 36.1172 50.0455C36.1846 50.2091 36.2185 50.3844 36.2168 50.5612Z" fill="#E0EDFE"/>
<path d="M45.1333 50.5612C45.1333 50.8272 45.0536 51.0872 44.9044 51.3082C44.7553 51.5292 44.5433 51.7012 44.2954 51.8024C44.0475 51.9036 43.7749 51.9295 43.5122 51.8767C43.2495 51.8238 43.0086 51.6948 42.8199 51.5058C42.6313 51.3169 42.5035 51.0765 42.4527 50.8153C42.4019 50.5541 42.4305 50.2838 42.5348 50.0388C42.6391 49.7937 42.8144 49.5849 43.0384 49.439C43.2625 49.293 43.5252 49.2163 43.7933 49.2188C43.9703 49.2188 44.1456 49.2536 44.309 49.3212C44.4724 49.3888 44.6207 49.4879 44.7453 49.6127C44.8698 49.7375 44.9683 49.8856 45.0349 50.0483C45.1015 50.2111 45.1349 50.3855 45.1333 50.5612Z" fill="#E0EDFE"/>
<path d="M54.0503 50.5612C54.0503 50.8272 53.9706 51.0872 53.8214 51.3082C53.6722 51.5292 53.4603 51.7012 53.2124 51.8024C52.9645 51.9036 52.6919 51.9295 52.4292 51.8767C52.1665 51.8238 51.9256 51.6948 51.7369 51.5058C51.5483 51.3169 51.4205 51.0765 51.3697 50.8153C51.3189 50.5541 51.3475 50.2838 51.4518 50.0388C51.5561 49.7937 51.7314 49.5849 51.9555 49.439C52.1795 49.293 52.4422 49.2163 52.7103 49.2188C52.8873 49.2188 53.0626 49.2536 53.226 49.3212C53.3894 49.3888 53.5376 49.4879 53.6622 49.6127C53.7868 49.7375 53.8853 49.8856 53.9519 50.0483C54.0185 50.2111 54.0519 50.3855 54.0503 50.5612Z" fill="#E0EDFE"/>
<path d="M62.9419 50.5631C62.9419 50.8285 62.8626 51.088 62.714 51.3088C62.5653 51.5295 62.3541 51.7015 62.107 51.8031C61.8598 51.9047 61.5878 51.9313 61.3255 51.8795C61.0631 51.8277 60.8221 51.6999 60.633 51.5122C60.4438 51.3245 60.315 51.0853 60.2628 50.8249C60.2106 50.5645 60.2374 50.2946 60.3398 50.0493C60.4421 49.804 60.6155 49.5944 60.8379 49.4469C61.0603 49.2994 61.3219 49.2207 61.5894 49.2207C61.9481 49.2207 62.2921 49.3622 62.5458 49.6139C62.7994 49.8656 62.9419 50.207 62.9419 50.5631Z" fill="#E0EDFE"/>
<path d="M71.896 50.5612C71.896 50.8266 71.8167 51.0861 71.6681 51.3069C71.5194 51.5276 71.3082 51.6997 71.0611 51.8013C70.8139 51.9028 70.542 51.9294 70.2796 51.8776C70.0172 51.8258 69.7762 51.6981 69.5871 51.5103C69.3979 51.3226 69.2691 51.0834 69.2169 50.823C69.1647 50.5626 69.1915 50.2927 69.2939 50.0474C69.3962 49.8022 69.5696 49.5925 69.792 49.445C70.0144 49.2975 70.276 49.2188 70.5435 49.2188C70.7216 49.2171 70.8982 49.2507 71.063 49.3176C71.2279 49.3844 71.3776 49.4833 71.5036 49.6083C71.6295 49.7333 71.7291 49.8819 71.7964 50.0455C71.8638 50.2091 71.8977 50.3844 71.896 50.5612Z" fill="#E0EDFE"/>
<path d="M18.3833 57.0748C18.3833 57.3403 18.3039 57.5998 18.1553 57.8205C18.0067 58.0413 17.7955 58.2134 17.5483 58.315C17.3012 58.4166 17.0292 58.4431 16.7669 58.3913C16.5045 58.3395 16.2635 58.2117 16.0744 58.024C15.8852 57.8363 15.7564 57.5971 15.7042 57.3367C15.652 57.0763 15.6788 56.8064 15.7812 56.5611C15.8836 56.3158 16.0569 56.1062 16.2793 55.9587C16.5017 55.8112 16.7632 55.7325 17.0307 55.7325C17.3895 55.7325 17.7335 55.8739 17.9871 56.1257C18.2408 56.3774 18.3833 56.7188 18.3833 57.0748Z" fill="#E0EDFE"/>
<path d="M27.2998 57.0748C27.2998 57.3403 27.2205 57.5998 27.0719 57.8205C26.9232 58.0413 26.712 58.2134 26.4648 58.315C26.2177 58.4166 25.9457 58.4431 25.6834 58.3913C25.421 58.3395 25.18 58.2117 24.9909 58.024C24.8017 57.8363 24.6729 57.5971 24.6207 57.3367C24.5685 57.0763 24.5953 56.8064 24.6977 56.5611C24.8001 56.3158 24.9734 56.1062 25.1958 55.9587C25.4183 55.8112 25.6797 55.7325 25.9472 55.7325C26.1253 55.7308 26.302 55.7644 26.4668 55.8313C26.6317 55.8981 26.7814 55.997 26.9074 56.1219C27.0333 56.2469 27.1329 56.3955 27.2002 56.5591C27.2676 56.7227 27.3015 56.8981 27.2998 57.0748Z" fill="#E0EDFE"/>
<path d="M36.2168 57.0748C36.2168 57.3403 36.1375 57.5998 35.9889 57.8205C35.8402 58.0413 35.629 58.2134 35.3818 58.315C35.1347 58.4166 34.8627 58.4431 34.6004 58.3913C34.338 58.3395 34.097 58.2117 33.9079 58.024C33.7187 57.8363 33.5899 57.5971 33.5377 57.3367C33.4855 57.0763 33.5123 56.8064 33.6147 56.5611C33.717 56.3158 33.8904 56.1062 34.1128 55.9587C34.3352 55.8112 34.5967 55.7325 34.8642 55.7325C35.0423 55.7308 35.219 55.7644 35.3838 55.8313C35.5487 55.8981 35.6984 55.997 35.8244 56.1219C35.9503 56.2469 36.0499 56.3955 36.1172 56.5591C36.1846 56.7227 36.2185 56.8981 36.2168 57.0748Z" fill="#E0EDFE"/>
<path d="M45.1333 57.0748C45.1333 57.3408 45.0536 57.6008 44.9044 57.8218C44.7553 58.0428 44.5433 58.2149 44.2954 58.3161C44.0475 58.4174 43.7749 58.4432 43.5122 58.3904C43.2495 58.3376 43.0086 58.2085 42.8199 58.0195C42.6313 57.8305 42.5035 57.5902 42.4527 57.329C42.4019 57.0678 42.4305 56.7975 42.5348 56.5525C42.6391 56.3074 42.8144 56.0986 43.0384 55.9526C43.2625 55.8066 43.5252 55.73 43.7933 55.7325C43.9703 55.7325 44.1456 55.7673 44.309 55.8349C44.4724 55.9025 44.6207 56.0016 44.7453 56.1264C44.8698 56.2512 44.9683 56.3993 45.0349 56.5621C45.1015 56.7249 45.1349 56.8991 45.1333 57.0748Z" fill="#E0EDFE"/>
<path d="M54.0503 57.0748C54.0503 57.3408 53.9706 57.6008 53.8214 57.8218C53.6722 58.0428 53.4603 58.2149 53.2124 58.3161C52.9645 58.4174 52.6919 58.4432 52.4292 58.3904C52.1665 58.3376 51.9256 58.2085 51.7369 58.0195C51.5483 57.8305 51.4205 57.5902 51.3697 57.329C51.3189 57.0678 51.3475 56.7975 51.4518 56.5525C51.5561 56.3074 51.7314 56.0986 51.9555 55.9526C52.1795 55.8066 52.4422 55.73 52.7103 55.7325C52.8873 55.7325 53.0626 55.7673 53.226 55.8349C53.3894 55.9025 53.5376 56.0016 53.6622 56.1264C53.7868 56.2512 53.8853 56.3993 53.9519 56.5621C54.0185 56.7249 54.0519 56.8991 54.0503 57.0748Z" fill="#E0EDFE"/>
<path d="M62.9419 57.0748C62.9419 57.3403 62.8626 57.5998 62.714 57.8205C62.5653 58.0413 62.3541 58.2134 62.107 58.315C61.8598 58.4166 61.5878 58.4431 61.3255 58.3913C61.0631 58.3395 60.8221 58.2117 60.633 58.024C60.4438 57.8363 60.315 57.5971 60.2628 57.3367C60.2106 57.0763 60.2374 56.8064 60.3398 56.5611C60.4421 56.3158 60.6155 56.1062 60.8379 55.9587C61.0603 55.8112 61.3219 55.7325 61.5894 55.7325C61.9481 55.7325 62.2921 55.8739 62.5458 56.1257C62.7994 56.3774 62.9419 56.7188 62.9419 57.0748Z" fill="#E0EDFE"/>
<path d="M71.896 57.0748C71.896 57.3403 71.8167 57.5998 71.6681 57.8205C71.5194 58.0413 71.3082 58.2134 71.0611 58.315C70.8139 58.4166 70.542 58.4431 70.2796 58.3913C70.0172 58.3395 69.7762 58.2117 69.5871 58.024C69.3979 57.8363 69.2691 57.5971 69.2169 57.3367C69.1647 57.0763 69.1915 56.8064 69.2939 56.5611C69.3962 56.3158 69.5696 56.1062 69.792 55.9587C70.0144 55.8112 70.276 55.7325 70.5435 55.7325C70.7216 55.7308 70.8982 55.7644 71.063 55.8313C71.2279 55.8981 71.3776 55.997 71.5036 56.1219C71.6295 56.2469 71.7291 56.3955 71.7964 56.5591C71.8638 56.7227 71.8977 56.8981 71.896 57.0748Z" fill="#E0EDFE"/>
<path d="M18.3833 63.5884C18.3833 63.8539 18.3039 64.1135 18.1553 64.3342C18.0067 64.555 17.7955 64.727 17.5483 64.8286C17.3012 64.9302 17.0292 64.9568 16.7669 64.905C16.5045 64.8532 16.2635 64.7253 16.0744 64.5376C15.8852 64.3499 15.7564 64.1107 15.7042 63.8503C15.652 63.5899 15.6788 63.32 15.7812 63.0747C15.8836 62.8294 16.0569 62.6198 16.2793 62.4723C16.5017 62.3248 16.7632 62.2461 17.0307 62.2461C17.3895 62.2461 17.7335 62.3875 17.9871 62.6393C18.2408 62.891 18.3833 63.2324 18.3833 63.5884Z" fill="#E0EDFE"/>
<path d="M27.2998 63.5885C27.2998 63.854 27.2205 64.1135 27.0719 64.3343C26.9232 64.555 26.712 64.7271 26.4648 64.8287C26.2177 64.9303 25.9457 64.9569 25.6834 64.9051C25.421 64.8533 25.18 64.7254 24.9909 64.5377C24.8017 64.3499 24.6729 64.1108 24.6207 63.8504C24.5685 63.59 24.5953 63.3201 24.6977 63.0748C24.8001 62.8295 24.9734 62.6199 25.1958 62.4724C25.4183 62.3249 25.6797 62.2462 25.9472 62.2462C26.1253 62.2445 26.302 62.2781 26.4668 62.345C26.6317 62.4119 26.7814 62.5106 26.9074 62.6356C27.0333 62.7606 27.1329 62.9093 27.2002 63.0729C27.2676 63.2365 27.3015 63.4118 27.2998 63.5885Z" fill="#E0EDFE"/>
<path d="M36.2168 63.5885C36.2168 63.854 36.1375 64.1135 35.9889 64.3343C35.8402 64.555 35.629 64.7271 35.3818 64.8287C35.1347 64.9303 34.8627 64.9569 34.6004 64.9051C34.338 64.8533 34.097 64.7254 33.9079 64.5377C33.7187 64.3499 33.5899 64.1108 33.5377 63.8504C33.4855 63.59 33.5123 63.3201 33.6147 63.0748C33.717 62.8295 33.8904 62.6199 34.1128 62.4724C34.3352 62.3249 34.5967 62.2462 34.8642 62.2462C35.0423 62.2445 35.219 62.2781 35.3838 62.345C35.5487 62.4119 35.6984 62.5106 35.8244 62.6356C35.9503 62.7606 36.0499 62.9093 36.1172 63.0729C36.1846 63.2365 36.2185 63.4118 36.2168 63.5885Z" fill="#E0EDFE"/>
<path d="M45.1333 63.5885C45.1333 63.8545 45.0536 64.1145 44.9044 64.3355C44.7553 64.5565 44.5433 64.7286 44.2954 64.8298C44.0475 64.931 43.7749 64.9569 43.5122 64.9041C43.2495 64.8513 43.0086 64.7222 42.8199 64.5332C42.6313 64.3442 42.5035 64.1038 42.4527 63.8426C42.4019 63.5814 42.4305 63.3112 42.5348 63.0661C42.6391 62.8211 42.8144 62.6123 43.0384 62.4663C43.2625 62.3203 43.5252 62.2437 43.7933 62.2462C43.9703 62.2461 44.1456 62.281 44.309 62.3486C44.4724 62.4162 44.6207 62.5153 44.7453 62.6401C44.8698 62.7649 44.9683 62.913 45.0349 63.0758C45.1015 63.2385 45.1349 63.4128 45.1333 63.5885Z" fill="#E0EDFE"/>
<path d="M54.0503 63.5885C54.0503 63.8545 53.9706 64.1145 53.8214 64.3355C53.6722 64.5565 53.4603 64.7286 53.2124 64.8298C52.9645 64.931 52.6919 64.9569 52.4292 64.9041C52.1665 64.8513 51.9256 64.7222 51.7369 64.5332C51.5483 64.3442 51.4205 64.1038 51.3697 63.8426C51.3189 63.5814 51.3475 63.3112 51.4518 63.0661C51.5561 62.8211 51.7314 62.6123 51.9555 62.4663C52.1795 62.3203 52.4422 62.2437 52.7103 62.2462C52.8873 62.2461 53.0626 62.281 53.226 62.3486C53.3894 62.4162 53.5376 62.5153 53.6622 62.6401C53.7868 62.7649 53.8853 62.913 53.9519 63.0758C54.0185 63.2385 54.0519 63.4128 54.0503 63.5885Z" fill="#E0EDFE"/>
<path d="M62.9419 63.5882C62.9411 63.8578 62.8586 64.1209 62.7051 64.3433C62.5516 64.5656 62.3341 64.737 62.0811 64.835C61.8281 64.933 61.5512 64.9532 61.2865 64.8928C61.0217 64.8324 60.7815 64.6943 60.5969 64.4965C60.4124 64.2987 60.2921 64.0504 60.2518 63.7838C60.2115 63.5172 60.253 63.2448 60.3709 63.0019C60.4888 62.759 60.6776 62.557 60.9128 62.4222C61.148 62.2873 61.4187 62.2259 61.6895 62.2459C62.0306 62.271 62.3494 62.4235 62.5818 62.6725C62.8142 62.9216 62.9428 63.2488 62.9419 63.5882Z" fill="#E0EDFE"/>
<path d="M70.5435 64.9308C71.2904 64.9308 71.896 64.3298 71.896 63.5884C71.896 62.8471 71.2904 62.2461 70.5435 62.2461C69.7965 62.2461 69.1909 62.8471 69.1909 63.5884C69.1909 64.3298 69.7965 64.9308 70.5435 64.9308Z" fill="#E0EDFE"/>
</g>
<g opacity="0.91">
<path d="M86.9868 54.5513C86.9868 54.8168 86.9075 55.0764 86.7588 55.2971C86.6102 55.5178 86.399 55.6899 86.1519 55.7915C85.9047 55.8931 85.6328 55.9197 85.3704 55.8679C85.108 55.8161 84.867 55.6882 84.6779 55.5005C84.4887 55.3128 84.3599 55.0736 84.3077 54.8132C84.2555 54.5528 84.2823 54.2829 84.3847 54.0377C84.4871 53.7924 84.6604 53.5828 84.8828 53.4353C85.1053 53.2878 85.3668 53.209 85.6343 53.209C85.8123 53.2074 85.989 53.2409 86.1538 53.3078C86.3187 53.3747 86.4685 53.4735 86.5944 53.5984C86.7203 53.7234 86.8199 53.8721 86.8873 54.0357C86.9546 54.1993 86.9885 54.3746 86.9868 54.5513Z" fill="#E0EDFE"/>
<path d="M95.9033 54.5513C95.9033 54.8168 95.824 55.0764 95.6754 55.2971C95.5268 55.5178 95.3155 55.6899 95.0684 55.7915C94.8212 55.8931 94.5493 55.9197 94.2869 55.8679C94.0245 55.8161 93.7835 55.6882 93.5944 55.5005C93.4052 55.3128 93.2764 55.0736 93.2242 54.8132C93.172 54.5528 93.1988 54.2829 93.3012 54.0377C93.4036 53.7924 93.5769 53.5828 93.7993 53.4353C94.0218 53.2878 94.2833 53.209 94.5508 53.209C94.7288 53.2074 94.9055 53.2409 95.0703 53.3078C95.2352 53.3747 95.385 53.4735 95.5109 53.5984C95.6368 53.7234 95.7364 53.8721 95.8038 54.0357C95.8711 54.1993 95.905 54.3746 95.9033 54.5513Z" fill="#E0EDFE"/>
<path d="M104.82 54.5513C104.82 54.8168 104.741 55.0764 104.592 55.2971C104.444 55.5178 104.232 55.6899 103.985 55.7915C103.738 55.8931 103.466 55.9197 103.204 55.8679C102.942 55.8161 102.701 55.6882 102.511 55.5005C102.322 55.3128 102.193 55.0736 102.141 54.8132C102.089 54.5528 102.116 54.2829 102.218 54.0377C102.321 53.7924 102.494 53.5828 102.716 53.4353C102.939 53.2878 103.2 53.209 103.468 53.209C103.646 53.2074 103.822 53.2409 103.987 53.3078C104.152 53.3747 104.302 53.4735 104.428 53.5984C104.554 53.7234 104.653 53.8721 104.721 54.0357C104.788 54.1993 104.822 54.3746 104.82 54.5513Z" fill="#E0EDFE"/>
<path d="M113.737 54.5513C113.737 54.8173 113.657 55.0774 113.508 55.2984C113.359 55.5194 113.147 55.6914 112.899 55.7926C112.651 55.8938 112.378 55.9197 112.116 55.8669C111.853 55.8141 111.612 55.685 111.423 55.496C111.235 55.307 111.107 55.0667 111.056 54.8055C111.005 54.5443 111.034 54.274 111.138 54.0289C111.243 53.7839 111.418 53.5752 111.642 53.4292C111.866 53.2832 112.129 53.2066 112.397 53.209C112.574 53.209 112.749 53.2438 112.913 53.3114C113.076 53.379 113.224 53.4781 113.349 53.6029C113.473 53.7277 113.572 53.8758 113.638 54.0386C113.705 54.2014 113.738 54.3756 113.737 54.5513Z" fill="#E0EDFE"/>
<path d="M122.654 54.5513C122.654 54.8173 122.574 55.0774 122.425 55.2984C122.276 55.5194 122.064 55.6914 121.816 55.7926C121.568 55.8938 121.295 55.9197 121.033 55.8669C120.77 55.8141 120.529 55.685 120.34 55.496C120.152 55.307 120.024 55.0667 119.973 54.8055C119.922 54.5443 119.951 54.274 120.055 54.0289C120.16 53.7839 120.335 53.5752 120.559 53.4292C120.783 53.2832 121.046 53.2066 121.314 53.209C121.491 53.209 121.666 53.2438 121.829 53.3114C121.993 53.379 122.141 53.4781 122.266 53.6029C122.39 53.7277 122.489 53.8758 122.555 54.0386C122.622 54.2014 122.655 54.3756 122.654 54.5513Z" fill="#E0EDFE"/>
<path d="M131.583 54.5513C131.583 54.8168 131.504 55.0764 131.355 55.2971C131.206 55.5178 130.995 55.6899 130.748 55.7915C130.501 55.8931 130.229 55.9197 129.967 55.8679C129.704 55.8161 129.463 55.6882 129.274 55.5005C129.085 55.3128 128.956 55.0736 128.904 54.8132C128.852 54.5528 128.879 54.2829 128.981 54.0377C129.083 53.7924 129.257 53.5828 129.479 53.4353C129.701 53.2878 129.963 53.209 130.23 53.209C130.589 53.209 130.933 53.3504 131.187 53.6022C131.44 53.8539 131.583 54.1953 131.583 54.5513Z" fill="#E0EDFE"/>
<path d="M140.499 54.5513C140.499 54.8168 140.42 55.0764 140.272 55.2971C140.123 55.5178 139.912 55.6899 139.665 55.7915C139.417 55.8931 139.145 55.9197 138.883 55.8679C138.621 55.8161 138.38 55.6882 138.191 55.5005C138.001 55.3128 137.873 55.0736 137.82 54.8132C137.768 54.5528 137.795 54.2829 137.897 54.0377C138 53.7924 138.173 53.5828 138.396 53.4353C138.618 53.2878 138.879 53.209 139.147 53.209C139.325 53.2074 139.502 53.2409 139.667 53.3078C139.831 53.3747 139.981 53.4735 140.107 53.5984C140.233 53.7234 140.333 53.8721 140.4 54.0357C140.467 54.1993 140.501 54.3746 140.499 54.5513Z" fill="#E0EDFE"/>
<path d="M86.9868 61.065C86.9868 61.3305 86.9075 61.59 86.7588 61.8108C86.6102 62.0315 86.399 62.2036 86.1519 62.3052C85.9047 62.4068 85.6328 62.4333 85.3704 62.3815C85.108 62.3298 84.867 62.2019 84.6779 62.0142C84.4887 61.8264 84.3599 61.5872 84.3077 61.3269C84.2555 61.0665 84.2823 60.7966 84.3847 60.5513C84.4871 60.3061 84.6604 60.0964 84.8828 59.9489C85.1053 59.8014 85.3668 59.7227 85.6343 59.7227C85.8123 59.7211 85.989 59.7546 86.1538 59.8215C86.3187 59.8884 86.4685 59.9872 86.5944 60.1122C86.7203 60.2372 86.8199 60.3858 86.8873 60.5494C86.9546 60.713 86.9885 60.8883 86.9868 61.065Z" fill="#E0EDFE"/>
<path d="M95.9033 61.065C95.9033 61.3305 95.824 61.59 95.6754 61.8108C95.5268 62.0315 95.3155 62.2036 95.0684 62.3052C94.8212 62.4068 94.5493 62.4333 94.2869 62.3815C94.0245 62.3298 93.7835 62.2019 93.5944 62.0142C93.4052 61.8264 93.2764 61.5872 93.2242 61.3269C93.172 61.0665 93.1988 60.7966 93.3012 60.5513C93.4036 60.3061 93.5769 60.0964 93.7993 59.9489C94.0218 59.8014 94.2833 59.7227 94.5508 59.7227C94.7288 59.7211 94.9055 59.7546 95.0703 59.8215C95.2352 59.8884 95.385 59.9872 95.5109 60.1122C95.6368 60.2372 95.7364 60.3858 95.8038 60.5494C95.8711 60.713 95.905 60.8883 95.9033 61.065Z" fill="#E0EDFE"/>
<path d="M104.82 61.065C104.82 61.3305 104.741 61.59 104.592 61.8108C104.444 62.0315 104.232 62.2036 103.985 62.3052C103.738 62.4068 103.466 62.4333 103.204 62.3815C102.942 62.3298 102.701 62.2019 102.511 62.0142C102.322 61.8264 102.193 61.5872 102.141 61.3269C102.089 61.0665 102.116 60.7966 102.218 60.5513C102.321 60.3061 102.494 60.0964 102.716 59.9489C102.939 59.8014 103.2 59.7227 103.468 59.7227C103.646 59.7211 103.822 59.7546 103.987 59.8215C104.152 59.8884 104.302 59.9872 104.428 60.1122C104.554 60.2372 104.653 60.3858 104.721 60.5494C104.788 60.713 104.822 60.8883 104.82 61.065Z" fill="#E0EDFE"/>
<path d="M113.737 61.065C113.737 61.331 113.657 61.5911 113.508 61.8121C113.359 62.0331 113.147 62.2051 112.899 62.3063C112.651 62.4075 112.378 62.4334 112.116 62.3806C111.853 62.3278 111.612 62.1987 111.423 62.0097C111.235 61.8207 111.107 61.5804 111.056 61.3192C111.005 61.058 111.034 60.7877 111.138 60.5427C111.243 60.2976 111.418 60.0889 111.642 59.9429C111.866 59.7969 112.129 59.7203 112.397 59.7227C112.574 59.7227 112.749 59.7575 112.913 59.8251C113.076 59.8927 113.224 59.9918 113.349 60.1166C113.473 60.2414 113.572 60.3895 113.638 60.5522C113.705 60.715 113.738 60.8893 113.737 61.065Z" fill="#E0EDFE"/>
<path d="M122.654 61.065C122.654 61.331 122.574 61.5911 122.425 61.8121C122.276 62.0331 122.064 62.2051 121.816 62.3063C121.568 62.4075 121.295 62.4334 121.033 62.3806C120.77 62.3278 120.529 62.1987 120.34 62.0097C120.152 61.8207 120.024 61.5804 119.973 61.3192C119.922 61.058 119.951 60.7877 120.055 60.5427C120.16 60.2976 120.335 60.0889 120.559 59.9429C120.783 59.7969 121.046 59.7203 121.314 59.7227C121.491 59.7227 121.666 59.7575 121.829 59.8251C121.993 59.8927 122.141 59.9918 122.266 60.1166C122.39 60.2414 122.489 60.3895 122.555 60.5522C122.622 60.715 122.655 60.8893 122.654 61.065Z" fill="#E0EDFE"/>
<path d="M131.583 61.0649C131.583 61.3304 131.504 61.59 131.355 61.8107C131.206 62.0315 130.995 62.2035 130.748 62.3051C130.501 62.4067 130.229 62.4333 129.967 62.3815C129.704 62.3297 129.463 62.2018 129.274 62.0141C129.085 61.8264 128.956 61.5872 128.904 61.3268C128.852 61.0664 128.879 60.7966 128.981 60.5513C129.083 60.306 129.257 60.0964 129.479 59.9489C129.701 59.8014 129.963 59.7227 130.23 59.7227C130.589 59.7227 130.933 59.864 131.187 60.1158C131.44 60.3675 131.583 60.7089 131.583 61.0649Z" fill="#E0EDFE"/>
<path d="M140.499 61.065C140.499 61.3305 140.42 61.59 140.272 61.8108C140.123 62.0315 139.912 62.2036 139.665 62.3052C139.417 62.4068 139.145 62.4333 138.883 62.3815C138.621 62.3298 138.38 62.2019 138.191 62.0142C138.001 61.8264 137.873 61.5872 137.82 61.3269C137.768 61.0665 137.795 60.7966 137.897 60.5513C138 60.3061 138.173 60.0964 138.396 59.9489C138.618 59.8014 138.879 59.7227 139.147 59.7227C139.325 59.7211 139.502 59.7546 139.667 59.8215C139.831 59.8884 139.981 59.9872 140.107 60.1122C140.233 60.2372 140.333 60.3858 140.4 60.5494C140.467 60.713 140.501 60.8883 140.499 61.065Z" fill="#E0EDFE"/>
<path d="M86.9868 67.5769C86.9868 67.8424 86.9075 68.1019 86.7588 68.3226C86.6102 68.5434 86.399 68.7154 86.1519 68.817C85.9047 68.9186 85.6328 68.9452 85.3704 68.8934C85.108 68.8416 84.867 68.7138 84.6779 68.5261C84.4887 68.3384 84.3599 68.0992 84.3077 67.8388C84.2555 67.5784 84.2823 67.3085 84.3847 67.0632C84.4871 66.8179 84.6604 66.6083 84.8828 66.4608C85.1053 66.3133 85.3668 66.2346 85.6343 66.2346C85.8123 66.2329 85.989 66.2665 86.1538 66.3334C86.3187 66.4002 86.4685 66.4991 86.5944 66.6241C86.7203 66.749 86.8199 66.8976 86.8873 67.0612C86.9546 67.2248 86.9885 67.4002 86.9868 67.5769Z" fill="#E0EDFE"/>
<path d="M95.9033 67.5769C95.9033 67.8424 95.824 68.1019 95.6754 68.3226C95.5268 68.5434 95.3155 68.7154 95.0684 68.817C94.8212 68.9186 94.5493 68.9452 94.2869 68.8934C94.0245 68.8416 93.7835 68.7138 93.5944 68.5261C93.4052 68.3384 93.2764 68.0992 93.2242 67.8388C93.172 67.5784 93.1988 67.3085 93.3012 67.0632C93.4036 66.8179 93.5769 66.6083 93.7993 66.4608C94.0218 66.3133 94.2833 66.2346 94.5508 66.2346C94.7288 66.2329 94.9055 66.2665 95.0703 66.3334C95.2352 66.4002 95.385 66.4991 95.5109 66.6241C95.6368 66.749 95.7364 66.8976 95.8038 67.0612C95.8711 67.2248 95.905 67.4002 95.9033 67.5769Z" fill="#E0EDFE"/>
<path d="M104.82 67.5769C104.82 67.8424 104.741 68.1019 104.592 68.3226C104.444 68.5434 104.232 68.7154 103.985 68.817C103.738 68.9186 103.466 68.9452 103.204 68.8934C102.942 68.8416 102.701 68.7138 102.511 68.5261C102.322 68.3384 102.193 68.0992 102.141 67.8388C102.089 67.5784 102.116 67.3085 102.218 67.0632C102.321 66.8179 102.494 66.6083 102.716 66.4608C102.939 66.3133 103.2 66.2346 103.468 66.2346C103.646 66.2329 103.822 66.2665 103.987 66.3334C104.152 66.4002 104.302 66.4991 104.428 66.6241C104.554 66.749 104.653 66.8976 104.721 67.0612C104.788 67.2248 104.822 67.4002 104.82 67.5769Z" fill="#E0EDFE"/>
<path d="M113.737 67.5769C113.737 67.843 113.657 68.1029 113.508 68.3239C113.359 68.5449 113.147 68.7169 112.899 68.8182C112.651 68.9194 112.378 68.9452 112.116 68.8924C111.853 68.8396 111.612 68.7106 111.423 68.5216C111.235 68.3327 111.107 68.0923 111.056 67.8311C111.005 67.5699 111.034 67.2996 111.138 67.0546C111.243 66.8095 111.418 66.6007 111.642 66.4547C111.866 66.3087 112.129 66.2321 112.397 66.2346C112.574 66.2346 112.749 66.2694 112.913 66.337C113.076 66.4046 113.224 66.5036 113.349 66.6285C113.473 66.7533 113.572 66.9013 113.638 67.0641C113.705 67.2269 113.738 67.4012 113.737 67.5769Z" fill="#E0EDFE"/>
<path d="M122.654 67.5769C122.654 67.843 122.574 68.1029 122.425 68.3239C122.276 68.5449 122.064 68.7169 121.816 68.8182C121.568 68.9194 121.295 68.9452 121.033 68.8924C120.77 68.8396 120.529 68.7106 120.34 68.5216C120.152 68.3327 120.024 68.0923 119.973 67.8311C119.922 67.5699 119.951 67.2996 120.055 67.0546C120.16 66.8095 120.335 66.6007 120.559 66.4547C120.783 66.3087 121.046 66.2321 121.314 66.2346C121.491 66.2346 121.666 66.2694 121.829 66.337C121.993 66.4046 122.141 66.5036 122.266 66.6285C122.39 66.7533 122.489 66.9013 122.555 67.0641C122.622 67.2269 122.655 67.4012 122.654 67.5769Z" fill="#E0EDFE"/>
<path d="M131.583 67.5769C131.583 67.8424 131.504 68.1019 131.355 68.3226C131.206 68.5434 130.995 68.7154 130.748 68.817C130.501 68.9186 130.229 68.9452 129.967 68.8934C129.704 68.8416 129.463 68.7138 129.274 68.5261C129.085 68.3384 128.956 68.0992 128.904 67.8388C128.852 67.5784 128.879 67.3085 128.981 67.0632C129.083 66.8179 129.257 66.6083 129.479 66.4608C129.701 66.3133 129.963 66.2346 130.23 66.2346C130.589 66.2346 130.933 66.376 131.187 66.6278C131.44 66.8795 131.583 67.2209 131.583 67.5769Z" fill="#E0EDFE"/>
<path d="M140.499 67.5769C140.499 67.8424 140.42 68.1019 140.272 68.3226C140.123 68.5434 139.912 68.7154 139.665 68.817C139.417 68.9186 139.145 68.9452 138.883 68.8934C138.621 68.8416 138.38 68.7138 138.191 68.5261C138.001 68.3384 137.873 68.0992 137.82 67.8388C137.768 67.5784 137.795 67.3085 137.897 67.0632C138 66.8179 138.173 66.6083 138.396 66.4608C138.618 66.3133 138.879 66.2346 139.147 66.2346C139.325 66.2329 139.502 66.2665 139.667 66.3334C139.831 66.4002 139.981 66.4991 140.107 66.6241C140.233 66.749 140.333 66.8976 140.4 67.0612C140.467 67.2248 140.501 67.4002 140.499 67.5769Z" fill="#E0EDFE"/>
<path d="M86.9868 74.078C86.9892 74.344 86.912 74.6047 86.7649 74.8271C86.6178 75.0495 86.4075 75.2234 86.1606 75.3269C85.9136 75.4304 85.6413 75.4588 85.3781 75.4084C85.1149 75.358 84.8727 75.2312 84.6823 75.044C84.4919 74.8567 84.3619 74.6175 84.3087 74.3568C84.2555 74.0961 84.2815 73.8256 84.3835 73.5796C84.4855 73.3336 84.6588 73.1232 84.8815 72.9752C85.1042 72.8271 85.3662 72.7481 85.6342 72.748C85.9908 72.748 86.3329 72.8878 86.5862 73.1368C86.8395 73.3859 86.9835 73.7241 86.9868 74.078Z" fill="#E0EDFE"/>
<path d="M95.9037 74.078C95.9062 74.344 95.829 74.6047 95.6819 74.8271C95.5348 75.0495 95.3244 75.2234 95.0775 75.3269C94.8306 75.4304 94.5583 75.4588 94.2951 75.4084C94.0319 75.358 93.7897 75.2312 93.5993 75.044C93.4089 74.8567 93.2789 74.6175 93.2256 74.3568C93.1724 74.0961 93.1985 73.8256 93.3005 73.5796C93.4025 73.3336 93.5758 73.1232 93.7985 72.9752C94.0212 72.8271 94.2831 72.7481 94.5512 72.748C94.9077 72.748 95.2499 72.8878 95.5032 73.1368C95.7565 73.3859 95.9004 73.7241 95.9037 74.078Z" fill="#E0EDFE"/>
<path d="M104.82 74.078C104.823 74.344 104.746 74.6047 104.598 74.8271C104.451 75.0495 104.241 75.2234 103.994 75.3269C103.747 75.4304 103.475 75.4588 103.212 75.4084C102.948 75.358 102.706 75.2312 102.516 75.044C102.325 74.8567 102.195 74.6175 102.142 74.3568C102.089 74.0961 102.115 73.8256 102.217 73.5796C102.319 73.3336 102.492 73.1232 102.715 72.9752C102.938 72.8271 103.2 72.7481 103.468 72.748C103.824 72.748 104.166 72.8878 104.42 73.1368C104.673 73.3859 104.817 73.7241 104.82 74.078Z" fill="#E0EDFE"/>
<path d="M113.737 74.078C113.739 74.3445 113.662 74.6058 113.514 74.8284C113.366 75.0511 113.155 75.225 112.908 75.3281C112.66 75.4313 112.387 75.4589 112.123 75.4075C111.86 75.3561 111.618 75.228 111.428 75.0395C111.238 74.8511 111.109 74.6108 111.057 74.3492C111.005 74.0877 111.033 73.8167 111.137 73.571C111.241 73.3252 111.416 73.1157 111.641 72.9692C111.865 72.8226 112.128 72.7456 112.397 72.7481C112.752 72.7481 113.093 72.8882 113.344 73.1376C113.596 73.3871 113.737 73.7253 113.737 74.078Z" fill="#E0EDFE"/>
<path d="M122.654 74.078C122.656 74.3445 122.579 74.6058 122.431 74.8284C122.283 75.0511 122.072 75.225 121.825 75.3281C121.577 75.4313 121.304 75.4589 121.04 75.4075C120.777 75.3561 120.535 75.228 120.345 75.0395C120.155 74.8511 120.026 74.6108 119.974 74.3492C119.922 74.0877 119.95 73.8167 120.054 73.571C120.158 73.3252 120.333 73.1157 120.558 72.9692C120.782 72.8226 121.045 72.7456 121.314 72.7481C121.669 72.7481 122.01 72.8882 122.261 73.1376C122.513 73.3871 122.654 73.7253 122.654 74.078Z" fill="#E0EDFE"/>
<path d="M131.583 74.078C131.585 74.344 131.508 74.6047 131.361 74.8271C131.214 75.0495 131.004 75.2234 130.757 75.3269C130.51 75.4304 130.237 75.4588 129.974 75.4084C129.711 75.358 129.469 75.2312 129.278 75.044C129.088 74.8567 128.958 74.6175 128.905 74.3568C128.852 74.0961 128.878 73.8256 128.98 73.5796C129.082 73.3336 129.255 73.1232 129.478 72.9752C129.7 72.8271 129.962 72.7481 130.23 72.748C130.587 72.748 130.929 72.8878 131.182 73.1368C131.436 73.3859 131.58 73.7241 131.583 74.078Z" fill="#E0EDFE"/>
<path d="M140.499 74.078C140.502 74.344 140.425 74.6047 140.278 74.8271C140.13 75.0495 139.92 75.2234 139.673 75.3269C139.426 75.4304 139.154 75.4588 138.891 75.4084C138.628 75.358 138.385 75.2312 138.195 75.044C138.005 74.8567 137.875 74.6175 137.821 74.3568C137.768 74.0961 137.794 73.8256 137.896 73.5796C137.998 73.3336 138.171 73.1232 138.394 72.9752C138.617 72.8271 138.879 72.7481 139.147 72.748C139.503 72.748 139.846 72.8878 140.099 73.1368C140.352 73.3859 140.496 73.7241 140.499 74.078Z" fill="#E0EDFE"/>
<path d="M86.9868 80.5897C86.9892 80.8557 86.912 81.1164 86.7649 81.3388C86.6178 81.5612 86.4075 81.7351 86.1606 81.8386C85.9136 81.9421 85.6413 81.9705 85.3781 81.9201C85.1149 81.8697 84.8727 81.7429 84.6823 81.5557C84.4919 81.3685 84.3619 81.1293 84.3087 80.8686C84.2555 80.6079 84.2815 80.3374 84.3835 80.0913C84.4855 79.8453 84.6588 79.6349 84.8815 79.4869C85.1042 79.3388 85.3662 79.2598 85.6342 79.2598C85.9908 79.2598 86.3329 79.3995 86.5862 79.6486C86.8395 79.8976 86.9835 80.2358 86.9868 80.5897Z" fill="#E0EDFE"/>
<path d="M95.9037 80.5897C95.9062 80.8557 95.829 81.1164 95.6819 81.3388C95.5348 81.5612 95.3244 81.7351 95.0775 81.8386C94.8306 81.9421 94.5583 81.9705 94.2951 81.9201C94.0319 81.8697 93.7897 81.7429 93.5993 81.5557C93.4089 81.3685 93.2789 81.1293 93.2256 80.8686C93.1724 80.6079 93.1985 80.3374 93.3005 80.0913C93.4025 79.8453 93.5758 79.6349 93.7985 79.4869C94.0212 79.3388 94.2831 79.2598 94.5512 79.2598C94.9077 79.2598 95.2499 79.3995 95.5032 79.6486C95.7565 79.8976 95.9004 80.2358 95.9037 80.5897Z" fill="#E0EDFE"/>
<path d="M104.82 80.5897C104.823 80.8557 104.746 81.1164 104.598 81.3388C104.451 81.5612 104.241 81.7351 103.994 81.8386C103.747 81.9421 103.475 81.9705 103.212 81.9201C102.948 81.8697 102.706 81.7429 102.516 81.5557C102.325 81.3685 102.195 81.1293 102.142 80.8686C102.089 80.6079 102.115 80.3374 102.217 80.0913C102.319 79.8453 102.492 79.6349 102.715 79.4869C102.938 79.3388 103.2 79.2598 103.468 79.2598C103.824 79.2598 104.166 79.3995 104.42 79.6486C104.673 79.8976 104.817 80.2358 104.82 80.5897Z" fill="#E0EDFE"/>
<path d="M113.737 80.5897C113.739 80.8563 113.662 81.1175 113.514 81.3401C113.366 81.5628 113.155 81.7368 112.908 81.8399C112.66 81.943 112.387 81.9707 112.123 81.9193C111.86 81.8679 111.618 81.7397 111.428 81.5513C111.238 81.3628 111.109 81.1225 111.057 80.8609C111.005 80.5994 111.033 80.3285 111.137 80.0827C111.241 79.8369 111.416 79.6274 111.641 79.4809C111.865 79.3343 112.128 79.2574 112.397 79.2598C112.752 79.2598 113.093 79.4 113.344 79.6494C113.596 79.8988 113.737 80.237 113.737 80.5897Z" fill="#E0EDFE"/>
<path d="M122.654 80.5897C122.656 80.8563 122.579 81.1175 122.431 81.3401C122.283 81.5628 122.072 81.7368 121.825 81.8399C121.577 81.943 121.304 81.9707 121.04 81.9193C120.777 81.8679 120.535 81.7397 120.345 81.5513C120.155 81.3628 120.026 81.1225 119.974 80.8609C119.922 80.5994 119.95 80.3285 120.054 80.0827C120.158 79.8369 120.333 79.6274 120.558 79.4809C120.782 79.3343 121.045 79.2574 121.314 79.2598C121.669 79.2598 122.01 79.4 122.261 79.6494C122.513 79.8988 122.654 80.237 122.654 80.5897Z" fill="#E0EDFE"/>
<path d="M131.583 80.5897C131.585 80.8557 131.508 81.1164 131.361 81.3388C131.214 81.5612 131.004 81.7351 130.757 81.8386C130.51 81.9421 130.237 81.9705 129.974 81.9201C129.711 81.8697 129.469 81.7429 129.278 81.5557C129.088 81.3685 128.958 81.1293 128.905 80.8686C128.852 80.6079 128.878 80.3374 128.98 80.0913C129.082 79.8453 129.255 79.6349 129.478 79.4869C129.7 79.3388 129.962 79.2598 130.23 79.2598C130.587 79.2598 130.929 79.3995 131.182 79.6486C131.436 79.8976 131.58 80.2358 131.583 80.5897Z" fill="#E0EDFE"/>
<path d="M140.499 80.5897C140.502 80.8557 140.425 81.1164 140.278 81.3388C140.13 81.5612 139.92 81.7351 139.673 81.8386C139.426 81.9421 139.154 81.9705 138.891 81.9201C138.628 81.8697 138.385 81.7429 138.195 81.5557C138.005 81.3685 137.875 81.1293 137.821 80.8686C137.768 80.6079 137.794 80.3374 137.896 80.0913C137.998 79.8453 138.171 79.6349 138.394 79.4869C138.617 79.3388 138.879 79.2598 139.147 79.2598C139.503 79.2598 139.846 79.3995 140.099 79.6486C140.352 79.8976 140.496 80.2358 140.499 80.5897Z" fill="#E0EDFE"/>
<path d="M86.9868 87.1033C86.9892 87.3694 86.912 87.6301 86.7649 87.8525C86.6178 88.0748 86.4075 88.2488 86.1606 88.3523C85.9136 88.4558 85.6413 88.4842 85.3781 88.4339C85.1149 88.3835 84.8727 88.2566 84.6823 88.0694C84.4919 87.8821 84.3619 87.643 84.3087 87.3823C84.2555 87.1216 84.2815 86.851 84.3835 86.605C84.4855 86.359 84.6588 86.1486 84.8815 86.0006C85.1042 85.8525 85.3662 85.7734 85.6342 85.7734C85.9908 85.7734 86.3329 85.9132 86.5862 86.1622C86.8395 86.4113 86.9835 86.7495 86.9868 87.1033Z" fill="#E0EDFE"/>
<path d="M95.9037 87.1033C95.9062 87.3694 95.829 87.6301 95.6819 87.8525C95.5348 88.0748 95.3244 88.2488 95.0775 88.3523C94.8306 88.4558 94.5583 88.4842 94.2951 88.4339C94.0319 88.3835 93.7897 88.2566 93.5993 88.0694C93.4089 87.8821 93.2789 87.643 93.2256 87.3823C93.1724 87.1216 93.1985 86.851 93.3005 86.605C93.4025 86.359 93.5758 86.1486 93.7985 86.0006C94.0212 85.8525 94.2831 85.7734 94.5512 85.7734C94.9077 85.7734 95.2499 85.9132 95.5032 86.1622C95.7565 86.4113 95.9004 86.7495 95.9037 87.1033Z" fill="#E0EDFE"/>
<path d="M104.82 87.1033C104.823 87.3694 104.746 87.6301 104.598 87.8525C104.451 88.0748 104.241 88.2488 103.994 88.3523C103.747 88.4558 103.475 88.4842 103.212 88.4339C102.948 88.3835 102.706 88.2566 102.516 88.0694C102.325 87.8821 102.195 87.643 102.142 87.3823C102.089 87.1216 102.115 86.851 102.217 86.605C102.319 86.359 102.492 86.1486 102.715 86.0006C102.938 85.8525 103.2 85.7734 103.468 85.7734C103.824 85.7734 104.166 85.9132 104.42 86.1622C104.673 86.4113 104.817 86.7495 104.82 87.1033Z" fill="#E0EDFE"/>
<path d="M113.737 87.1034C113.739 87.3699 113.662 87.6312 113.514 87.8538C113.366 88.0765 113.155 88.2504 112.908 88.3536C112.66 88.4567 112.387 88.4843 112.123 88.4329C111.86 88.3815 111.618 88.2534 111.428 88.0649C111.238 87.8765 111.109 87.6361 111.057 87.3746C111.005 87.1131 111.033 86.8422 111.137 86.5964C111.241 86.3506 111.416 86.1411 111.641 85.9946C111.865 85.848 112.128 85.771 112.397 85.7735C112.752 85.7735 113.093 85.9136 113.344 86.163C113.596 86.4124 113.737 86.7507 113.737 87.1034Z" fill="#E0EDFE"/>
<path d="M122.654 87.1034C122.656 87.3699 122.579 87.6312 122.431 87.8538C122.283 88.0765 122.072 88.2504 121.825 88.3536C121.577 88.4567 121.304 88.4843 121.04 88.4329C120.777 88.3815 120.535 88.2534 120.345 88.0649C120.155 87.8765 120.026 87.6361 119.974 87.3746C119.922 87.1131 119.95 86.8422 120.054 86.5964C120.158 86.3506 120.333 86.1411 120.558 85.9946C120.782 85.848 121.045 85.771 121.314 85.7735C121.669 85.7735 122.01 85.9136 122.261 86.163C122.513 86.4124 122.654 86.7507 122.654 87.1034Z" fill="#E0EDFE"/>
<path d="M131.583 87.1033C131.585 87.3694 131.508 87.6301 131.361 87.8525C131.214 88.0748 131.004 88.2488 130.757 88.3523C130.51 88.4558 130.237 88.4842 129.974 88.4339C129.711 88.3835 129.469 88.2566 129.278 88.0694C129.088 87.8821 128.958 87.643 128.905 87.3823C128.852 87.1216 128.878 86.851 128.98 86.605C129.082 86.359 129.255 86.1486 129.478 86.0006C129.7 85.8525 129.962 85.7734 130.23 85.7734C130.587 85.7734 130.929 85.9132 131.182 86.1622C131.436 86.4113 131.58 86.7495 131.583 87.1033Z" fill="#E0EDFE"/>
<path d="M140.499 87.1033C140.502 87.3694 140.425 87.6301 140.278 87.8525C140.13 88.0748 139.92 88.2488 139.673 88.3523C139.426 88.4558 139.154 88.4842 138.891 88.4339C138.628 88.3835 138.385 88.2566 138.195 88.0694C138.005 87.8821 137.875 87.643 137.821 87.3823C137.768 87.1216 137.794 86.851 137.896 86.605C137.998 86.359 138.171 86.1486 138.394 86.0006C138.617 85.8525 138.879 85.7734 139.147 85.7734C139.503 85.7734 139.846 85.9132 140.099 86.1622C140.352 86.4113 140.496 86.7495 140.499 87.1033Z" fill="#E0EDFE"/>
<path d="M86.9868 93.5662C86.9892 93.8322 86.912 94.093 86.7649 94.3154C86.6178 94.5377 86.4075 94.7117 86.1606 94.8152C85.9136 94.9187 85.6413 94.9471 85.3781 94.8967C85.1149 94.8463 84.8727 94.7195 84.6823 94.5322C84.4919 94.345 84.3619 94.1059 84.3087 93.8452C84.2555 93.5845 84.2815 93.3139 84.3835 93.0679C84.4855 92.8219 84.6588 92.6115 84.8815 92.4635C85.1042 92.3154 85.3662 92.2363 85.6342 92.2363C85.9908 92.2363 86.3329 92.3761 86.5862 92.6251C86.8395 92.8742 86.9835 93.2124 86.9868 93.5662Z" fill="#E0EDFE"/>
<path d="M95.9037 93.5662C95.9062 93.8322 95.829 94.093 95.6819 94.3154C95.5348 94.5377 95.3244 94.7117 95.0775 94.8152C94.8306 94.9187 94.5583 94.9471 94.2951 94.8967C94.0319 94.8463 93.7897 94.7195 93.5993 94.5322C93.4089 94.345 93.2789 94.1059 93.2256 93.8452C93.1724 93.5845 93.1985 93.3139 93.3005 93.0679C93.4025 92.8219 93.5758 92.6115 93.7985 92.4635C94.0212 92.3154 94.2831 92.2363 94.5512 92.2363C94.9077 92.2363 95.2499 92.3761 95.5032 92.6251C95.7565 92.8742 95.9004 93.2124 95.9037 93.5662Z" fill="#E0EDFE"/>
<path d="M104.82 93.5662C104.823 93.8322 104.746 94.093 104.598 94.3154C104.451 94.5377 104.241 94.7117 103.994 94.8152C103.747 94.9187 103.475 94.9471 103.212 94.8967C102.948 94.8463 102.706 94.7195 102.516 94.5322C102.325 94.345 102.195 94.1059 102.142 93.8452C102.089 93.5845 102.115 93.3139 102.217 93.0679C102.319 92.8219 102.492 92.6115 102.715 92.4635C102.938 92.3154 103.2 92.2363 103.468 92.2363C103.824 92.2363 104.166 92.3761 104.42 92.6251C104.673 92.8742 104.817 93.2124 104.82 93.5662Z" fill="#E0EDFE"/>
<path d="M113.737 93.5663C113.739 93.8328 113.662 94.0941 113.514 94.3167C113.366 94.5393 113.155 94.7133 112.908 94.8164C112.66 94.9195 112.387 94.9472 112.123 94.8958C111.86 94.8444 111.618 94.7163 111.428 94.5278C111.238 94.3394 111.109 94.099 111.057 93.8375C111.005 93.576 111.033 93.305 111.137 93.0592C111.241 92.8135 111.416 92.604 111.641 92.4574C111.865 92.3109 112.128 92.2339 112.397 92.2364C112.752 92.2364 113.093 92.3765 113.344 92.6259C113.596 92.8753 113.737 93.2136 113.737 93.5663Z" fill="#E0EDFE"/>
<path d="M122.654 93.5663C122.656 93.8328 122.579 94.0941 122.431 94.3167C122.283 94.5393 122.072 94.7133 121.825 94.8164C121.577 94.9195 121.304 94.9472 121.04 94.8958C120.777 94.8444 120.535 94.7163 120.345 94.5278C120.155 94.3394 120.026 94.099 119.974 93.8375C119.922 93.576 119.95 93.305 120.054 93.0592C120.158 92.8135 120.333 92.604 120.558 92.4574C120.782 92.3109 121.045 92.2339 121.314 92.2364C121.669 92.2364 122.01 92.3765 122.261 92.6259C122.513 92.8753 122.654 93.2136 122.654 93.5663Z" fill="#E0EDFE"/>
<path d="M131.583 93.5662C131.585 93.8322 131.508 94.093 131.361 94.3154C131.214 94.5377 131.004 94.7117 130.757 94.8152C130.51 94.9187 130.237 94.9471 129.974 94.8967C129.711 94.8463 129.469 94.7195 129.278 94.5322C129.088 94.345 128.958 94.1059 128.905 93.8452C128.852 93.5845 128.878 93.3139 128.98 93.0679C129.082 92.8219 129.255 92.6115 129.478 92.4635C129.7 92.3154 129.962 92.2363 130.23 92.2363C130.587 92.2363 130.929 92.3761 131.182 92.6251C131.436 92.8742 131.58 93.2124 131.583 93.5662Z" fill="#E0EDFE"/>
<path d="M140.499 93.5662C140.502 93.8322 140.425 94.093 140.278 94.3154C140.13 94.5377 139.92 94.7117 139.673 94.8152C139.426 94.9187 139.154 94.9471 138.891 94.8967C138.628 94.8463 138.385 94.7195 138.195 94.5322C138.005 94.345 137.875 94.1059 137.821 93.8452C137.768 93.5845 137.794 93.3139 137.896 93.0679C137.998 92.8219 138.171 92.6115 138.394 92.4635C138.617 92.3154 138.879 92.2363 139.147 92.2363C139.503 92.2363 139.846 92.3761 140.099 92.6251C140.352 92.8742 140.496 93.2124 140.499 93.5662Z" fill="#E0EDFE"/>
<path d="M86.9868 100.128C86.9868 100.484 86.8443 100.825 86.5906 101.077C86.337 101.328 85.993 101.47 85.6343 101.47C85.2755 101.47 84.9315 101.328 84.6779 101.077C84.4242 100.825 84.2817 100.484 84.2817 100.128C84.2817 99.7715 84.4242 99.43 84.6779 99.1783C84.9315 98.9265 85.2755 98.7852 85.6343 98.7852C85.993 98.7852 86.337 98.9265 86.5906 99.1783C86.8443 99.43 86.9868 99.7715 86.9868 100.128Z" fill="#E0EDFE"/>
<path d="M95.9033 100.128C95.9033 100.393 95.824 100.652 95.6754 100.873C95.5268 101.094 95.3155 101.266 95.0684 101.368C94.8212 101.469 94.5493 101.496 94.2869 101.444C94.0245 101.392 93.7835 101.264 93.5944 101.077C93.4052 100.889 93.2764 100.65 93.2242 100.389C93.172 100.129 93.1988 99.8591 93.3012 99.6138C93.4036 99.3685 93.5769 99.1589 93.7993 99.0114C94.0218 98.8639 94.2833 98.7852 94.5508 98.7852C94.9095 98.7852 95.2535 98.9265 95.5071 99.1783C95.7608 99.43 95.9033 99.7715 95.9033 100.128Z" fill="#E0EDFE"/>
<path d="M104.82 100.128C104.82 100.393 104.741 100.652 104.592 100.873C104.444 101.094 104.232 101.266 103.985 101.368C103.738 101.469 103.466 101.496 103.204 101.444C102.942 101.392 102.701 101.264 102.511 101.077C102.322 100.889 102.193 100.65 102.141 100.389C102.089 100.129 102.116 99.8591 102.218 99.6138C102.321 99.3685 102.494 99.1589 102.716 99.0114C102.939 98.8639 103.2 98.7852 103.468 98.7852C103.826 98.7852 104.171 98.9265 104.424 99.1783C104.678 99.43 104.82 99.7715 104.82 100.128Z" fill="#E0EDFE"/>
<path d="M113.737 100.128C113.737 100.394 113.657 100.654 113.508 100.875C113.359 101.096 113.147 101.268 112.899 101.369C112.651 101.47 112.378 101.496 112.116 101.443C111.853 101.39 111.612 101.261 111.423 101.072C111.235 100.883 111.107 100.643 111.056 100.382C111.005 100.12 111.034 99.8502 111.138 99.6052C111.243 99.3601 111.418 99.1514 111.642 99.0054C111.866 98.8594 112.129 98.7828 112.397 98.7852C112.574 98.7852 112.749 98.82 112.913 98.8876C113.076 98.9552 113.224 99.0543 113.349 99.1791C113.473 99.3039 113.572 99.452 113.638 99.6147C113.705 99.7775 113.738 99.9519 113.737 100.128Z" fill="#E0EDFE"/>
<path d="M122.654 100.128C122.654 100.394 122.574 100.654 122.425 100.875C122.276 101.096 122.064 101.268 121.816 101.369C121.568 101.47 121.295 101.496 121.033 101.443C120.77 101.39 120.529 101.261 120.34 101.072C120.152 100.883 120.024 100.643 119.973 100.382C119.922 100.12 119.951 99.8502 120.055 99.6052C120.16 99.3601 120.335 99.1514 120.559 99.0054C120.783 98.8594 121.046 98.7828 121.314 98.7852C121.491 98.7852 121.666 98.82 121.829 98.8876C121.993 98.9552 122.141 99.0543 122.266 99.1791C122.39 99.3039 122.489 99.452 122.555 99.6147C122.622 99.7775 122.655 99.9519 122.654 100.128Z" fill="#E0EDFE"/>
<path d="M131.583 100.128C131.583 100.393 131.504 100.652 131.355 100.873C131.206 101.094 130.995 101.266 130.748 101.368C130.501 101.469 130.229 101.496 129.967 101.444C129.704 101.392 129.463 101.264 129.274 101.077C129.085 100.889 128.956 100.65 128.904 100.389C128.852 100.129 128.879 99.8591 128.981 99.6138C129.083 99.3685 129.257 99.1589 129.479 99.0114C129.701 98.8639 129.963 98.7852 130.23 98.7852C130.589 98.7852 130.933 98.9265 131.187 99.1783C131.44 99.43 131.583 99.7715 131.583 100.128Z" fill="#E0EDFE"/>
<path d="M140.499 100.128C140.499 100.393 140.42 100.652 140.272 100.873C140.123 101.094 139.912 101.266 139.665 101.368C139.417 101.469 139.145 101.496 138.883 101.444C138.621 101.392 138.38 101.264 138.191 101.077C138.001 100.889 137.873 100.65 137.82 100.389C137.768 100.129 137.795 99.8591 137.897 99.6138C138 99.3685 138.173 99.1589 138.396 99.0114C138.618 98.8639 138.879 98.7852 139.147 98.7852C139.325 98.7852 139.5 98.8199 139.665 98.8873C139.829 98.9548 139.978 99.0536 140.103 99.1783C140.229 99.3029 140.329 99.4509 140.397 99.6138C140.464 99.7766 140.499 99.9512 140.499 100.128Z" fill="#E0EDFE"/>
<path d="M86.9868 106.641C86.9868 106.907 86.9075 107.166 86.7588 107.387C86.6102 107.608 86.399 107.78 86.1519 107.881C85.9047 107.983 85.6328 108.009 85.3704 107.958C85.108 107.906 84.867 107.778 84.6779 107.59C84.4887 107.403 84.3599 107.163 84.3077 106.903C84.2555 106.643 84.2823 106.373 84.3847 106.127C84.4871 105.882 84.6604 105.673 84.8828 105.525C85.1053 105.378 85.3668 105.299 85.6343 105.299C85.8119 105.299 85.9878 105.334 86.1519 105.401C86.3159 105.469 86.465 105.567 86.5906 105.692C86.7162 105.817 86.8159 105.965 86.8839 106.127C86.9518 106.29 86.9868 106.465 86.9868 106.641Z" fill="#E0EDFE"/>
<path d="M95.9033 106.641C95.9033 106.907 95.824 107.166 95.6754 107.387C95.5268 107.608 95.3155 107.78 95.0684 107.881C94.8212 107.983 94.5493 108.009 94.2869 107.958C94.0245 107.906 93.7835 107.778 93.5944 107.59C93.4052 107.403 93.2764 107.163 93.2242 106.903C93.172 106.643 93.1988 106.373 93.3012 106.127C93.4036 105.882 93.5769 105.673 93.7993 105.525C94.0218 105.378 94.2833 105.299 94.5508 105.299C94.7284 105.299 94.9043 105.334 95.0684 105.401C95.2325 105.469 95.3815 105.567 95.5071 105.692C95.6327 105.817 95.7324 105.965 95.8004 106.127C95.8683 106.29 95.9033 106.465 95.9033 106.641Z" fill="#E0EDFE"/>
<path d="M104.82 106.641C104.82 106.907 104.741 107.166 104.592 107.387C104.444 107.608 104.232 107.78 103.985 107.881C103.738 107.983 103.466 108.009 103.204 107.958C102.942 107.906 102.701 107.778 102.511 107.59C102.322 107.403 102.193 107.163 102.141 106.903C102.089 106.643 102.116 106.373 102.218 106.127C102.321 105.882 102.494 105.673 102.716 105.525C102.939 105.378 103.2 105.299 103.468 105.299C103.645 105.299 103.821 105.334 103.985 105.401C104.149 105.469 104.299 105.567 104.424 105.692C104.55 105.817 104.649 105.965 104.717 106.127C104.785 106.29 104.82 106.465 104.82 106.641Z" fill="#E0EDFE"/>
<path d="M113.737 106.641C113.737 106.907 113.657 107.167 113.508 107.388C113.359 107.609 113.147 107.781 112.899 107.883C112.651 107.984 112.378 108.01 112.116 107.957C111.853 107.904 111.612 107.775 111.423 107.586C111.235 107.397 111.107 107.157 111.056 106.895C111.005 106.634 111.034 106.364 111.138 106.119C111.243 105.874 111.418 105.665 111.642 105.519C111.866 105.373 112.129 105.296 112.397 105.299C112.753 105.302 113.094 105.445 113.345 105.696C113.596 105.948 113.737 106.287 113.737 106.641Z" fill="#E0EDFE"/>
<path d="M122.654 106.641C122.654 106.907 122.574 107.167 122.425 107.388C122.276 107.609 122.064 107.781 121.816 107.883C121.568 107.984 121.295 108.01 121.033 107.957C120.77 107.904 120.529 107.775 120.34 107.586C120.152 107.397 120.024 107.157 119.973 106.895C119.922 106.634 119.951 106.364 120.055 106.119C120.16 105.874 120.335 105.665 120.559 105.519C120.783 105.373 121.046 105.296 121.314 105.299C121.67 105.302 122.011 105.445 122.262 105.696C122.513 105.948 122.654 106.287 122.654 106.641Z" fill="#E0EDFE"/>
<path d="M131.583 106.641C131.583 106.907 131.504 107.166 131.355 107.387C131.206 107.608 130.995 107.78 130.748 107.881C130.501 107.983 130.229 108.009 129.967 107.958C129.704 107.906 129.463 107.778 129.274 107.59C129.085 107.403 128.956 107.163 128.904 106.903C128.852 106.643 128.879 106.373 128.981 106.127C129.083 105.882 129.257 105.673 129.479 105.525C129.701 105.378 129.963 105.299 130.23 105.299C130.588 105.302 130.93 105.445 131.183 105.696C131.436 105.947 131.58 106.286 131.583 106.641Z" fill="#E0EDFE"/>
<path d="M140.499 106.641C140.499 106.907 140.42 107.166 140.272 107.387C140.123 107.608 139.912 107.78 139.665 107.881C139.417 107.983 139.145 108.009 138.883 107.958C138.621 107.906 138.38 107.778 138.191 107.59C138.001 107.403 137.873 107.163 137.82 106.903C137.768 106.643 137.795 106.373 137.897 106.127C138 105.882 138.173 105.673 138.396 105.525C138.618 105.378 138.879 105.299 139.147 105.299C139.325 105.299 139.5 105.334 139.665 105.401C139.829 105.469 139.978 105.567 140.103 105.692C140.229 105.817 140.329 105.965 140.397 106.127C140.464 106.29 140.499 106.465 140.499 106.641Z" fill="#E0EDFE"/>
</g>
<path opacity="0.25" d="M122.901 99.461C128.623 75.7917 113.927 52.0008 90.0775 46.3227C66.2282 40.6445 42.2565 55.2293 36.5351 78.8987C30.8138 102.568 45.5095 126.359 69.3588 132.037C93.2082 137.715 117.18 123.13 122.901 99.461Z" fill="url(#paint0_linear_793_31328)"/>
<path d="M133.837 27.6908L125.935 53.7917C125.731 54.4609 125.315 55.0471 124.749 55.4634C124.182 55.8798 123.496 56.1042 122.792 56.1035H90.9069C90.2023 56.1042 89.5162 55.8798 88.9501 55.4634C88.3839 55.0471 87.9679 54.4609 87.7635 53.7917L79.8612 27.6908C79.7084 27.2045 79.6726 26.6893 79.7569 26.1868C79.8412 25.6842 80.0431 25.2083 80.3464 24.7973C80.6497 24.3863 81.0459 24.0516 81.5032 23.8202C81.9606 23.5888 82.4662 23.4671 82.9795 23.465H130.694C131.21 23.4606 131.72 23.5776 132.182 23.8066C132.644 24.0355 133.045 24.3698 133.352 24.7821C133.658 25.1944 133.862 25.673 133.947 26.1786C134.031 26.6842 133.994 27.2024 133.837 27.6908Z" fill="#372B49"/>
<g style="mix-blend-mode:overlay" opacity="0.25">
<path d="M97.3816 27.7673C97.4255 27.9151 97.4333 28.0711 97.4043 28.2225C97.3753 28.3739 97.3104 28.5162 97.2149 28.6377C97.1194 28.7593 96.9961 28.8564 96.8552 28.9212C96.7143 28.9859 96.5599 29.0164 96.4048 29.0101C96.0492 28.9938 95.7084 28.864 95.4332 28.6401C95.1579 28.4162 94.9628 28.1101 94.8769 27.7673L93.9126 23.4668H96.4173L97.3816 27.7673Z" fill="black"/>
</g>
<g style="mix-blend-mode:overlay" opacity="0.25">
<path d="M115.929 29.0101C115.573 28.9938 115.232 28.864 114.957 28.6401C114.682 28.4162 114.487 28.1101 114.401 27.7673L113.437 23.4668H115.941L116.906 27.7673C116.949 27.9151 116.957 28.0711 116.928 28.2225C116.899 28.3739 116.834 28.5162 116.739 28.6377C116.643 28.7593 116.52 28.8564 116.379 28.9212C116.238 28.9859 116.084 29.0164 115.929 29.0101Z" fill="black"/>
</g>
<path d="M105.171 6.33879C102.339 6.58934 99.7074 7.8928 97.803 9.98799C95.8985 12.0832 94.8623 14.8152 94.902 17.6367V27.6918C94.902 28.0214 95.0339 28.3375 95.2688 28.5706C95.5037 28.8037 95.8222 28.9347 96.1543 28.9347C96.4865 28.9347 96.805 28.8037 97.0399 28.5706C97.2747 28.3375 97.4067 28.0214 97.4067 27.6918V17.2514C97.4087 16.0477 97.6695 14.8583 98.1715 13.7625C98.6735 12.6667 99.4053 11.6898 100.318 10.8969C101.231 10.1041 102.303 9.51362 103.464 9.16482C104.625 8.81603 105.847 8.71696 107.05 8.87428C109.129 9.20242 111.019 10.2621 112.376 11.8595C113.733 13.457 114.465 15.4855 114.439 17.5746V27.6918C114.439 28.0214 114.571 28.3375 114.805 28.5706C115.04 28.8037 115.359 28.9347 115.691 28.9347C116.023 28.9347 116.342 28.8037 116.577 28.5706C116.811 28.3375 116.943 28.0214 116.943 27.6918V17.2514C116.942 15.7527 116.63 14.2704 116.027 12.8961C115.425 11.5218 114.545 10.2849 113.441 9.26193C112.338 8.23894 111.034 7.45168 109.612 6.94886C108.189 6.44605 106.678 6.23843 105.171 6.33879Z" fill="url(#paint1_linear_793_31328)"/>
<path d="M46.9742 100.091C47.3875 93.5785 59.1471 84.6172 58.9968 80.2049C58.8465 75.7926 52.0087 71.7656 52.0087 71.7656L33.6993 73.6797C33.8513 75.3998 33.8513 77.1299 33.6993 78.8501C33.4113 79.571 39.5103 88.0351 39.5103 88.0351" fill="#864426"/>
<path d="M91.746 55.4572C91.7393 64.0818 88.2842 72.3512 82.1394 78.4497C75.9945 84.5482 67.6622 87.9773 58.972 87.9839C52.4828 87.9888 46.1381 86.0832 40.7404 82.5083C35.3428 78.9334 31.135 73.8498 28.6494 67.9008C26.1639 61.9518 25.5122 55.4047 26.777 49.088C28.0417 42.7713 31.1661 36.9689 35.7546 32.415C40.3431 27.8611 46.1896 24.7603 52.5544 23.5051C58.9191 22.2499 65.5159 22.8967 71.5102 25.3635C77.5044 27.8303 82.6267 32.0064 86.2288 37.3632C89.8309 42.7201 91.7509 49.0171 91.746 55.4572Z" fill="url(#paint2_linear_793_31328)"/>
<path d="M90.218 55.4581C90.2146 63.6695 86.9273 71.5438 81.078 77.3513C75.2287 83.1588 67.2958 86.4245 59.022 86.4311C52.844 86.4336 46.8041 84.6176 41.6661 81.213C36.5281 77.8084 32.5229 72.9681 30.157 67.3042C27.7911 61.6403 27.1708 55.4073 28.3745 49.3934C29.5783 43.3796 32.552 37.8552 36.9196 33.5188C41.2871 29.1824 46.8524 26.2289 52.9114 25.0318C58.9705 23.8348 65.2512 24.4479 70.9591 26.7937C76.667 29.1395 81.5458 33.1126 84.9783 38.2104C88.4109 43.3082 90.243 49.3019 90.243 55.4332L90.218 55.4581Z" fill="url(#paint3_linear_793_31328)"/>
<path d="M81.1725 60.7079C84.086 48.5611 76.5261 36.3701 64.287 33.4786C52.0478 30.5871 39.7641 38.0899 36.8506 50.2367C33.9371 62.3835 41.497 74.5745 53.7362 77.4661C65.9753 80.3576 78.259 72.8547 81.1725 60.7079Z" fill="url(#paint4_linear_793_31328)"/>
<path d="M58.9969 76.0286C70.4437 76.0286 79.7232 66.8191 79.7232 55.4586C79.7232 44.0982 70.4437 34.8887 58.9969 34.8887C47.55 34.8887 38.2705 44.0982 38.2705 55.4586C38.2705 66.8191 47.55 76.0286 58.9969 76.0286Z" fill="url(#paint5_linear_793_31328)"/>
<g style="mix-blend-mode:overlay" opacity="0.15">
<path d="M91.7461 55.4962C91.7395 64.1208 88.2844 72.3903 82.1395 78.4888C75.9947 84.5873 67.6623 88.0163 58.9722 88.0228C58.9722 87.5133 58.9722 86.9912 58.9722 86.4692C58.9888 78.2391 62.2947 70.3517 68.1644 64.5379C74.0341 58.7241 81.9881 55.459 90.2809 55.459C90.7568 55.459 91.2702 55.4714 91.7461 55.4962Z" fill="black"/>
</g>
<path d="M16.8931 128.876C24.4823 114.098 25.5217 105.261 25.9726 95.641C26.4234 86.021 24.7202 75.5558 32.2343 70.6837C39.7484 65.8115 41.0008 60.7404 42.7916 64.1957C44.5825 67.651 42.7916 75.1456 39.6733 78.8246C45.7722 87.6741 47.4002 103.024 47.4002 103.024C47.4002 103.024 48.7403 134.034 48.1517 136.396C47.5631 138.757 28.4898 146.152 16.8931 128.876Z" fill="#AB5E27"/>
<path d="M46.9492 51.3068H51.7707V52.2639H48.1014V55.222H51.4952V56.179H48.1014V60.1936H46.9492V51.3068Z" fill="url(#paint6_linear_793_31328)"/>
<path d="M59.6859 59.8947C58.9358 60.1996 58.1292 60.3436 57.319 60.3173C56.7192 60.3534 56.1187 60.2609 55.5582 60.0459C54.9977 59.831 54.4904 59.4988 54.0709 59.0718C53.6514 58.6449 53.3296 58.1333 53.1272 57.5718C52.9248 57.0103 52.8467 56.4122 52.8982 55.818C52.8621 55.1971 52.9584 54.5756 53.1807 53.994C53.4029 53.4125 53.7463 52.884 54.1882 52.443C54.6302 52.002 55.1609 51.6585 55.7456 51.4348C56.3304 51.2111 56.9561 51.1122 57.582 51.1447C58.309 51.1118 59.0338 51.248 59.6984 51.5424L59.4229 52.4746C58.8558 52.2243 58.24 52.1013 57.6195 52.1142C57.1303 52.0863 56.641 52.1659 56.1864 52.3472C55.7317 52.5286 55.323 52.8073 54.9893 53.1634C54.6556 53.5194 54.4052 53.9442 54.2559 54.4074C54.1066 54.8705 54.062 55.3607 54.1255 55.8429C54.0733 56.3117 54.1252 56.7861 54.2775 57.2329C54.4298 57.6797 54.6788 58.088 55.007 58.4291C55.3352 58.7703 55.7346 59.0359 56.1773 59.2075C56.62 59.3791 57.0951 59.4525 57.5694 59.4224C58.215 59.4305 58.8551 59.3034 59.4479 59.0495L59.6859 59.8947Z" fill="url(#paint7_linear_793_31328)"/>
<path d="M61.1387 51.3068H65.9728V52.2639H62.3033V55.222H65.6847V56.179H62.3033V60.1936H61.1387V51.3068Z" fill="url(#paint8_linear_793_31328)"/>
<path d="M68.0392 57.3846L67.0999 60.1811H65.9102L68.9534 51.3068H70.3435L73.3992 60.1936H72.1469L71.1825 57.3971L68.0392 57.3846ZM70.9697 56.4897L70.093 53.9293C69.8926 53.3576 69.7674 52.8232 69.6296 52.3136C69.4919 52.8356 69.3416 53.3824 69.1788 53.9169L68.3021 56.4897H70.9697Z" fill="url(#paint9_linear_793_31328)"/>
<path d="M134.339 43.2656H100.851C99.087 43.2656 97.6572 44.6846 97.6572 46.435V86.0213C97.6572 87.7717 99.087 89.1907 100.851 89.1907H134.339C136.102 89.1907 137.532 87.7717 137.532 86.0213V46.435C137.532 44.6846 136.102 43.2656 134.339 43.2656Z" fill="url(#paint10_linear_793_31328)"/>
<g opacity="0.25">
<path d="M129.442 79.7695H122.754C122.604 79.7695 122.479 79.4588 122.479 79.0735C122.479 78.6882 122.604 78.3651 122.754 78.3651H129.442C129.592 78.3651 129.717 78.6882 129.717 79.0735C129.717 79.4588 129.592 79.7695 129.442 79.7695Z" fill="black"/>
<path d="M106.837 76.4373H109.517V76.9718H107.476V78.6497H109.367V79.1717H107.476V81.4089H106.837V76.4373Z" fill="black"/>
<path d="M113.913 81.211C113.495 81.3777 113.048 81.4581 112.598 81.4471C112.262 81.4733 111.925 81.4269 111.609 81.3113C111.293 81.1956 111.006 81.0134 110.768 80.7771C110.53 80.5409 110.347 80.2562 110.23 79.9427C110.113 79.6293 110.067 79.2944 110.093 78.9613C110.077 78.6182 110.133 78.2754 110.258 77.9548C110.382 77.6342 110.572 77.3427 110.816 77.0986C111.059 76.8545 111.351 76.6632 111.673 76.5367C111.995 76.4102 112.34 76.3513 112.685 76.3636C113.09 76.3459 113.493 76.4226 113.863 76.5874L113.712 77.1094C113.399 76.9632 113.056 76.8909 112.711 76.8982C112.442 76.8839 112.174 76.9278 111.924 77.0268C111.674 77.1258 111.449 77.2776 111.265 77.4715C111.08 77.6654 110.94 77.8969 110.854 78.1499C110.769 78.4028 110.74 78.6712 110.769 78.9365C110.742 79.1958 110.771 79.4581 110.856 79.705C110.94 79.9519 111.078 80.1777 111.259 80.3668C111.44 80.5559 111.66 80.7037 111.904 80.8001C112.148 80.8965 112.411 80.9392 112.673 80.9251C113.035 80.929 113.393 80.857 113.725 80.7138L113.913 81.211Z" fill="black"/>
<path d="M114.714 76.4373H117.394V76.9718H115.353V78.6497H117.244V79.1717H115.353V81.4089H114.714V76.4373Z" fill="black"/>
<path d="M118.546 79.8182L118.02 81.3718H117.356L119.047 76.4002H119.824L121.527 81.3718H120.838L120.299 79.8182H118.546ZM120.174 79.321L119.686 77.9041C119.573 77.581 119.498 77.2826 119.423 76.9968C119.348 77.2951 119.273 77.5934 119.172 77.8917L118.684 79.321H120.174Z" fill="black"/>
</g>
<path opacity="0.15" d="M124.42 51.7795H107.15C106.964 51.7795 106.785 51.7062 106.654 51.5756C106.522 51.4451 106.448 51.2681 106.448 51.0835C106.447 50.991 106.464 50.8991 106.498 50.8132C106.533 50.7274 106.584 50.6492 106.649 50.5832C106.715 50.5173 106.792 50.4649 106.878 50.4292C106.964 50.3934 107.057 50.375 107.15 50.375H124.42C124.513 50.375 124.605 50.3934 124.691 50.4292C124.777 50.4649 124.855 50.5173 124.92 50.5832C124.985 50.6492 125.037 50.7274 125.071 50.8132C125.106 50.8991 125.123 50.991 125.121 51.0835C125.121 51.2681 125.047 51.4451 124.915 51.5756C124.784 51.7062 124.606 51.7795 124.42 51.7795Z" fill="black"/>
<path opacity="0.15" d="M124.419 55.881H107.15C106.962 55.8778 106.784 55.8017 106.653 55.6692C106.522 55.5367 106.448 55.3583 106.448 55.1726C106.448 54.988 106.522 54.811 106.654 54.6805C106.785 54.5499 106.964 54.4766 107.15 54.4766H124.419C124.605 54.4766 124.784 54.5499 124.915 54.6805C125.047 54.811 125.121 54.988 125.121 55.1726C125.121 55.3583 125.047 55.5367 124.916 55.6692C124.785 55.8017 124.607 55.8778 124.419 55.881Z" fill="black"/>
<path opacity="0.15" d="M124.419 60.0072H107.15C106.964 60.0072 106.785 59.9338 106.654 59.8033C106.522 59.6728 106.448 59.4957 106.448 59.3111C106.448 59.1265 106.522 58.9495 106.654 58.8189C106.785 58.6884 106.964 58.6151 107.15 58.6151H124.419C124.605 58.6151 124.784 58.6884 124.915 58.8189C125.047 58.9495 125.121 59.1265 125.121 59.3111C125.121 59.4957 125.047 59.6728 124.915 59.8033C124.784 59.9338 124.605 60.0072 124.419 60.0072Z" fill="black"/>
<path opacity="0.15" d="M124.42 64.0705H107.15C106.964 64.0705 106.785 63.9971 106.654 63.8666C106.522 63.7361 106.448 63.5591 106.448 63.3745C106.447 63.282 106.464 63.1901 106.498 63.1043C106.533 63.0184 106.584 62.9402 106.649 62.8743C106.715 62.8083 106.792 62.7559 106.878 62.7202C106.964 62.6844 107.057 62.666 107.15 62.666H124.42C124.513 62.666 124.605 62.6844 124.691 62.7202C124.777 62.7559 124.855 62.8083 124.92 62.8743C124.985 62.9402 125.037 63.0184 125.071 63.1043C125.106 63.1901 125.123 63.282 125.121 63.3745C125.121 63.5591 125.047 63.7361 124.915 63.8666C124.784 63.9971 124.606 64.0705 124.42 64.0705Z" fill="black"/>
<path opacity="0.15" d="M124.42 68.1721H107.15C107.057 68.1721 106.964 68.1536 106.878 68.1179C106.792 68.0821 106.715 68.0298 106.649 67.9638C106.584 67.8979 106.533 67.8196 106.498 67.7337C106.464 67.6479 106.447 67.556 106.448 67.4636C106.448 67.279 106.522 67.1019 106.654 66.9714C106.785 66.8409 106.964 66.7676 107.15 66.7676H124.42C124.606 66.7676 124.784 66.8409 124.915 66.9714C125.047 67.1019 125.121 67.279 125.121 67.4636C125.123 67.556 125.106 67.6479 125.071 67.7337C125.037 67.8196 124.985 67.8979 124.92 67.9638C124.855 68.0298 124.777 68.0821 124.691 68.1179C124.605 68.1536 124.513 68.1721 124.42 68.1721Z" fill="black"/>
<path opacity="0.15" d="M124.419 72.2612H107.15C106.964 72.2612 106.785 72.1879 106.654 72.0573C106.522 71.9268 106.448 71.7498 106.448 71.5652C106.448 71.3806 106.522 71.2035 106.654 71.073C106.785 70.9424 106.964 70.8691 107.15 70.8691H124.419C124.605 70.8691 124.784 70.9424 124.915 71.073C125.047 71.2035 125.121 71.3806 125.121 71.5652C125.121 71.7498 125.047 71.9268 124.915 72.0573C124.784 72.1879 124.605 72.2612 124.419 72.2612Z" fill="black"/>
<path opacity="0.25" d="M16.8931 93.566C16.8956 95.1767 16.4166 96.7519 15.5167 98.0923C14.6169 99.4327 13.3366 100.478 11.838 101.096C10.3393 101.714 8.6896 101.877 7.09757 101.565C5.50554 101.252 4.04277 100.477 2.89432 99.3394C1.74588 98.2014 0.963372 96.7508 0.645846 95.1712C0.328319 93.5917 0.490021 91.9542 1.11051 90.4659C1.73099 88.9776 2.78239 87.7054 4.13161 86.8104C5.48084 85.9153 7.06727 85.4375 8.69018 85.4375C9.76681 85.4359 10.8332 85.6449 11.8283 86.0527C12.8235 86.4604 13.7279 87.0589 14.4897 87.8139C15.2516 88.5689 15.856 89.4655 16.2684 90.4525C16.6808 91.4395 16.8931 92.4975 16.8931 93.566Z" fill="url(#paint11_linear_793_31328)"/>
<path opacity="0.25" d="M135.728 8.12861C135.731 9.7398 135.252 11.3155 134.351 12.6562C133.451 13.9969 132.17 15.0422 130.67 15.66C129.171 16.2777 127.521 16.4399 125.928 16.1262C124.336 15.8125 122.873 15.0369 121.725 13.8976C120.577 12.7583 119.796 11.3066 119.48 9.72623C119.164 8.14588 119.327 6.50792 119.95 5.01985C120.572 3.53177 121.625 2.26046 122.976 1.36686C124.327 0.473266 125.915 -0.00244848 127.538 9.47704e-06C129.71 9.47704e-06 131.794 0.856415 133.33 2.38081C134.866 3.90521 135.728 5.97278 135.728 8.12861Z" fill="url(#paint12_linear_793_31328)"/>
</g>
<defs>
<linearGradient id="paint0_linear_793_31328" x1="73.3598" y1="153.023" x2="82.7359" y2="57.3181" gradientUnits="userSpaceOnUse">
<stop stop-color="#E0EDFE"/>
<stop offset="1" stop-color="#9FB1FA"/>
</linearGradient>
<linearGradient id="paint1_linear_793_31328" x1="105.134" y1="35.8327" x2="108.218" y2="-16.8937" gradientUnits="userSpaceOnUse">
<stop stop-color="#4CEDCE"/>
<stop offset="1" stop-color="#529AB3"/>
</linearGradient>
<linearGradient id="paint2_linear_793_31328" x1="86.8117" y1="154.143" x2="55.125" y2="40.0202" gradientUnits="userSpaceOnUse">
<stop stop-color="#FF9500"/>
<stop offset="1" stop-color="#FFE3A4"/>
</linearGradient>
<linearGradient id="paint3_linear_793_31328" x1="53.5743" y1="123.358" x2="63.6284" y2="-4.56106" gradientUnits="userSpaceOnUse">
<stop stop-color="#FF9500"/>
<stop offset="1" stop-color="#FFE3A4"/>
</linearGradient>
<linearGradient id="paint4_linear_793_31328" x1="65.756" y1="46.4689" x2="128.533" y2="-38.6029" gradientUnits="userSpaceOnUse">
<stop stop-color="#FF9500"/>
<stop offset="1" stop-color="#FFE3A4"/>
</linearGradient>
<linearGradient id="paint5_linear_793_31328" x1="50.1177" y1="78.3777" x2="102.211" y2="-58.1207" gradientUnits="userSpaceOnUse">
<stop stop-color="#FF9500"/>
<stop offset="1" stop-color="#FFE3A4"/>
</linearGradient>
<linearGradient id="paint6_linear_793_31328" x1="49.3662" y1="50.1385" x2="49.3662" y2="51.2944" gradientUnits="userSpaceOnUse">
<stop stop-color="#FF9500"/>
<stop offset="1" stop-color="#FFE3A4"/>
</linearGradient>
<linearGradient id="paint7_linear_793_31328" x1="56.3046" y1="50.138" x2="56.3046" y2="51.2939" gradientUnits="userSpaceOnUse">
<stop stop-color="#FF9500"/>
<stop offset="1" stop-color="#FFE3A4"/>
</linearGradient>
<linearGradient id="paint8_linear_793_31328" x1="63.5557" y1="50.1385" x2="63.5557" y2="51.2944" gradientUnits="userSpaceOnUse">
<stop stop-color="#FF9500"/>
<stop offset="1" stop-color="#FFE3A4"/>
</linearGradient>
<linearGradient id="paint9_linear_793_31328" x1="69.6547" y1="50.1385" x2="69.6547" y2="51.2944" gradientUnits="userSpaceOnUse">
<stop stop-color="#FF9500"/>
<stop offset="1" stop-color="#FFE3A4"/>
</linearGradient>
<linearGradient id="paint10_linear_793_31328" x1="122.116" y1="32.8501" x2="107.161" y2="144.965" gradientUnits="userSpaceOnUse">
<stop stop-color="#C2EDFF"/>
<stop offset="1" stop-color="#9FB1FA"/>
</linearGradient>
<linearGradient id="paint11_linear_793_31328" x1="10.9194" y1="133.699" x2="8.27954" y2="85.398" gradientUnits="userSpaceOnUse">
<stop stop-color="#E0EDFE"/>
<stop offset="1" stop-color="#9FB1FA"/>
</linearGradient>
<linearGradient id="paint12_linear_793_31328" x1="129.755" y1="48.2122" x2="127.115" y2="-0.0767624" gradientUnits="userSpaceOnUse">
<stop stop-color="#E0EDFE"/>
<stop offset="1" stop-color="#9FB1FA"/>
</linearGradient>
<clipPath id="clip0_793_31328">
<rect width="140" height="140" fill="white" transform="translate(0.5)"/>
</clipPath>
</defs>
</svg>
