<svg color="#FF8C00" viewBox="0 0 1024 1024" style="display: inline-block; stroke: currentcolor; fill: currentcolor; width: 24px; height: 24px;"><path d="M213.333 134.089c-32.331 0-63.338 12.844-86.2 35.705s-35.705 53.869-35.705 86.2v511.999c0 32.333 12.844 63.338 35.705 86.203 22.862 22.861 53.869 35.705 86.2 35.705h298.667c32.333 0 63.338-12.844 86.199-35.705 22.861-22.864 35.705-53.87 35.705-86.203v-85.332c0-20.198-16.373-36.571-36.571-36.571s-36.571 16.373-36.571 36.571v85.332c0 12.935-5.135 25.337-14.281 34.48-9.143 9.147-21.548 14.285-34.48 14.285h-298.667c-12.932 0-25.335-5.138-34.48-14.285-9.144-9.143-14.282-21.544-14.282-34.48v-511.999c0-12.933 5.138-25.335 14.282-34.48s21.548-14.282 34.48-14.282h298.667c12.932 0 25.337 5.138 34.48 14.282 9.147 9.145 14.281 21.548 14.281 34.48v85.333c0 20.198 16.373 36.573 36.571 36.573s36.571-16.375 36.571-36.573v-85.333c0-32.331-12.844-63.338-35.705-86.2s-53.866-35.705-86.199-35.705h-298.667zM452.528 409.86c14.281-14.281 14.281-37.438 0-51.72s-37.438-14.282-51.719 0l-128.001 128c-14.282 14.281-14.282 37.438 0 51.719l128.001 128c14.281 14.281 37.438 14.281 51.719 0s14.281-37.438 0-51.719l-65.569-65.569h466.377c20.195 0 36.571-16.373 36.571-36.571s-16.377-36.571-36.571-36.571h-466.377l65.569-65.569z"></path></svg>