<svg width="120" height="120" viewBox="0 0 120 120" fill="none" xmlns="http://www.w3.org/2000/svg">
<circle cx="60" cy="60" r="60" fill="#FF8C00" fill-opacity="0.15"/>
<g clip-path="url(#clip0_1118_20159)">
<path d="M87.0035 53.4634L88.8363 50.4087H90.4147C91.4602 50.4087 92.3078 49.5611 92.3078 48.5156C92.3078 47.4702 91.4602 46.6226 90.4147 46.6226H87.7645C87.4376 46.6226 87.1163 46.7073 86.8318 46.8684C86.5474 47.0294 86.3095 47.2614 86.1413 47.5417L84.6 50.1104L82.0582 41.214C81.0572 37.711 77.8137 35.2644 74.1707 35.2644H45.8295C42.1864 35.2644 38.9429 37.711 37.942 41.2141L35.4002 50.1106L33.8589 47.5419C33.6907 47.2615 33.4528 47.0295 33.1684 46.8684C32.8839 46.7073 32.5626 46.6226 32.2357 46.6226H29.5854C28.54 46.6226 27.6924 47.4702 27.6924 48.5156C27.6924 49.5611 28.54 50.4087 29.5854 50.4087H31.1638L32.9966 53.4634C29.9002 54.6372 27.6924 57.6328 27.6924 61.1358V75.2704C27.6924 76.3159 28.54 77.1635 29.5854 77.1635H32.8667V80.3185C32.8667 82.7541 34.8482 84.7356 37.2837 84.7356H42.3318C44.7674 84.7356 46.7489 82.7541 46.7489 80.3185V77.1635H73.2513V80.3185C73.2513 82.7541 75.2328 84.7356 77.6683 84.7356H82.7164C85.152 84.7356 87.1335 82.7541 87.1335 80.3185V77.1635H90.4147C91.4602 77.1635 92.3078 76.3159 92.3078 75.2704V61.1358C92.3078 57.6328 90.1 54.6372 87.0035 53.4634ZM41.5824 42.2541C42.1213 40.3679 43.8678 39.0505 45.8295 39.0505H74.1707C76.1323 39.0505 77.8788 40.3679 78.4177 42.2541L81.4688 52.9327H78.1089C77.2295 48.6176 73.4051 45.3606 68.8342 45.3606C64.2633 45.3606 60.439 48.6176 59.5595 52.9327H38.5314L41.5824 42.2541ZM63.4795 52.9327C64.2608 50.7291 66.3662 49.1466 68.8342 49.1466C71.3022 49.1466 73.4076 50.7291 74.189 52.9327H63.4795ZM42.9628 80.3185C42.9628 80.6665 42.6797 80.9495 42.3318 80.9495H37.2837C36.9358 80.9495 36.6527 80.6665 36.6527 80.3185V77.1635H42.9628V80.3185ZM54.321 73.3774V68.0769H65.6792V73.3774H54.321ZM83.3474 80.3185C83.3474 80.6665 83.0644 80.9495 82.7164 80.9495H77.6683C77.3204 80.9495 77.0373 80.6665 77.0373 80.3185V77.1635H83.3474V80.3185ZM88.5217 73.3774H69.4652V66.1839C69.4652 65.1385 68.6176 64.2909 67.5722 64.2909H52.428C51.3825 64.2909 50.5349 65.1385 50.5349 66.1839V73.3774H31.4784V61.1358C31.4784 58.7003 33.4599 56.7188 35.8955 56.7188H36.0138L36.0235 56.719L36.0328 56.7188H83.9673L83.9767 56.719L83.9864 56.7188H84.1046C86.5402 56.7188 88.5217 58.7003 88.5217 61.1358V73.3774Z" fill="#FF8C00"/>
<path d="M78.9304 59.369C75.7989 59.369 73.2513 61.9166 73.2513 65.0481C73.2513 68.1795 75.7989 70.7272 78.9304 70.7272C82.0618 70.7272 84.6094 68.1795 84.6094 65.0481C84.6094 61.9166 82.0618 59.369 78.9304 59.369ZM78.9304 66.9411C77.8865 66.9411 77.0373 66.0919 77.0373 65.0481C77.0373 64.0043 77.8865 63.1551 78.9304 63.1551C79.9742 63.1551 80.8234 64.0043 80.8234 65.0481C80.8234 66.0919 79.9742 66.9411 78.9304 66.9411ZM41.0698 59.369C37.9383 59.369 35.3907 61.9166 35.3907 65.0481C35.3907 68.1795 37.9383 70.7272 41.0698 70.7272C44.2012 70.7272 46.7489 68.1795 46.7489 65.0481C46.7489 61.9166 44.2012 59.369 41.0698 59.369ZM41.0698 66.9411C40.026 66.9411 39.1767 66.0919 39.1767 65.0481C39.1767 64.0043 40.026 63.1551 41.0698 63.1551C42.1136 63.1551 42.9628 64.0043 42.9628 65.0481C42.9628 66.0919 42.1136 66.9411 41.0698 66.9411Z" fill="#FF8C00"/>
</g>
<defs>
<clipPath id="clip0_1118_20159">
<rect width="64.6154" height="64.6154" fill="white" transform="translate(27.6924 27.6923)"/>
</clipPath>
</defs>
</svg>
