<svg width="121" height="121" viewBox="0 0 121 121" fill="none" xmlns="http://www.w3.org/2000/svg">
<circle cx="60.6094" cy="60.7827" r="60" fill="#FF8C00" fill-opacity="0.15"/>
<g clip-path="url(#clip0_1118_20215)">
<path d="M91.0237 30.3823H30.1952C29.1495 30.3823 28.3018 31.2297 28.3018 32.2753V89.2889C28.3018 90.3344 29.1495 91.1819 30.1952 91.1819H91.0236C92.0693 91.1819 92.917 90.3344 92.917 89.2889V32.2753C92.9171 31.2297 92.0694 30.3823 91.0237 30.3823ZM89.1302 37.984H85.3136V34.1683H89.1302V37.984ZM81.5267 34.1683V37.984H32.0887V34.1683H81.5267ZM32.0887 87.3958V41.7701H89.1302V87.3958H32.0887Z" fill="#FF8C00"/>
<path d="M79.6336 55.0887H76.8886L71.7374 46.5054C71.5692 46.2251 71.3312 45.9931 71.0467 45.8321C70.7621 45.671 70.4408 45.5864 70.1138 45.5864H49.2041C48.8771 45.5864 48.5557 45.671 48.2712 45.8321C47.9867 45.9931 47.7487 46.2251 47.5805 46.5054L42.4294 55.0887H41.5855C38.4534 55.0887 35.9052 57.6362 35.9052 60.7675L35.9048 68.3839C35.8847 69.401 36.781 70.297 37.7982 70.2771H42.8831C43.6653 72.4889 45.7768 74.0784 48.2536 74.0784C50.7305 74.0784 52.842 72.489 53.6242 70.2771H67.5947C68.3769 72.4889 70.4884 74.0784 72.9652 74.0784C75.4421 74.0784 77.5536 72.489 78.3358 70.2771H83.4207C84.4664 70.2771 85.3141 69.4295 85.3141 68.384V60.7678C85.3141 57.6363 82.7658 55.0887 79.6336 55.0887ZM72.4724 55.0887H62.503V49.3725H69.0419L72.4724 55.0887ZM50.2762 49.3725H58.7159V55.0887H46.8456L50.2762 49.3725ZM48.2536 70.2923C47.2014 70.2923 46.3453 69.4364 46.3453 68.3844C46.3453 67.3324 47.2014 66.4765 48.2536 66.4765C49.3059 66.4765 50.1619 67.3324 50.1619 68.3844C50.1619 69.4364 49.3059 70.2923 48.2536 70.2923ZM72.9652 70.2923C71.913 70.2923 71.0569 69.4364 71.0569 68.3844C71.0569 67.3324 71.913 66.4765 72.9652 66.4765C74.0175 66.4765 74.8735 67.3324 74.8735 68.3844C74.8735 69.4364 74.0175 70.2923 72.9652 70.2923ZM81.5272 66.491H78.3355C77.5531 64.2796 75.4418 62.6904 72.9652 62.6904C70.4887 62.6904 68.3774 64.2796 67.595 66.491H53.6239C52.8415 64.2796 50.7302 62.6904 48.2536 62.6904C45.7771 62.6904 43.6658 64.2796 42.8834 66.491H39.6917L39.692 60.7676C39.692 59.7238 40.5414 58.8747 41.5854 58.8747H79.6335C80.6776 58.8747 81.5269 59.7239 81.5269 60.7678V66.491H81.5272ZM54.9068 78.8444H38.7492C37.7035 78.8444 36.8558 79.692 36.8558 80.7375C36.8558 81.7829 37.7035 82.6305 38.7492 82.6305H54.9068C55.9525 82.6305 56.8002 81.7829 56.8002 80.7375C56.8002 79.692 55.9525 78.8444 54.9068 78.8444ZM82.4696 78.8444H66.3121C65.2664 78.8444 64.4187 79.692 64.4187 80.7375C64.4187 81.7829 65.2664 82.6305 66.3121 82.6305H82.4696C83.5153 82.6305 84.363 81.7829 84.363 80.7375C84.363 79.692 83.5153 78.8444 82.4696 78.8444Z" fill="#FF8C00"/>
</g>
<defs>
<clipPath id="clip0_1118_20215">
<rect width="64.6154" height="64.6154" fill="white" transform="translate(28.3018 28.475)"/>
</clipPath>
</defs>
</svg>
