<svg width="120" height="120" viewBox="0 0 120 120" fill="none" xmlns="http://www.w3.org/2000/svg">
<circle cx="60" cy="60" r="60" fill="#FF8C00" fill-opacity="0.15"/>
<g clip-path="url(#clip0_1118_20247)">
<path d="M46.8986 55.7675H59.5341V59.5582H46.8986V55.7675Z" fill="#FF8C00"/>
<path d="M78.7401 57.3046C79.0161 52.0982 75.4552 47.3799 70.3538 46.2663L67.7638 34.1538H38.6687L36.0788 46.2663C31.21 47.3465 27.6795 51.6822 27.6924 56.6817V68.8587H31.4831V76.9884H42.8551V68.8587H63.6258C61.6951 77.7143 68.7723 86.4455 77.8558 86.3386C96.5967 85.6525 97.3408 59.0953 78.7401 57.3046ZM64.698 37.9445L66.4001 45.9049H40.0324L41.7346 37.9445H64.698ZM39.0644 73.1978H35.2738V68.8587H39.0644V73.1978ZM31.4831 65.068V59.804H42.3497V56.0134H31.517C31.793 53.1912 33.7973 50.793 36.5819 50.0546L37.9361 49.6956H68.4966L69.8506 50.0546C72.6352 50.7929 74.6396 53.1912 74.9156 56.0134H64.0829V59.804H69.6762C67.7071 61.1503 66.0969 62.9574 64.9857 65.068H31.4831ZM77.8556 82.5481C71.9335 82.5481 67.1154 77.73 67.1154 71.8078C67.7053 57.5595 88.008 57.5636 88.5959 71.808C88.5959 77.73 83.7778 82.5481 77.8556 82.5481Z" fill="#FF8C00"/>
<path d="M76.213 72.0717L74.4575 70.3163L71.7772 72.9966L76.213 77.4326L83.9342 69.7114L81.2538 67.031L76.213 72.0717Z" fill="#FF8C00"/>
</g>
<defs>
<clipPath id="clip0_1118_20247">
<rect width="64.6154" height="64.6154" fill="white" transform="translate(27.6924 27.6923)"/>
</clipPath>
</defs>
</svg>
