<svg width="18" height="33" viewBox="0 0 18 33" fill="none" xmlns="http://www.w3.org/2000/svg">
<path d="M15.0509 11.907H3.14941V0.82959H15.0509V11.907ZM5.11717 7.36714H7.07994V5.3869H5.11717V7.36714ZM11.1103 5.36317V7.36839H13.0556V5.36317H11.1103Z" fill="#FF8C00"/>
<path fill-rule="evenodd" clip-rule="evenodd" d="M3.58244 32.7653C2.04101 32.636 1.0227 31.6344 0.995949 29.999C0.949128 27.0889 0.951007 24.1775 0.952887 21.2658C0.953614 20.1398 0.954341 19.0138 0.952252 17.8878V12.4702H17.2274C17.2309 12.5484 17.2355 12.6258 17.24 12.7026C17.2488 12.8501 17.2574 12.9958 17.2574 13.1419V29.3123C17.2574 30.2537 17.1163 31.1364 16.4883 31.8781C16.0371 32.4072 15.489 32.7222 14.8092 32.7735V32.7653H3.58244ZM10.6137 16.3433L10.7548 16.3882L9.68105 21.631H12.0533L7.11148 28.3471L7.0091 28.3047C7.35061 27.0444 7.69142 25.7842 8.03668 24.5075C8.15594 24.0666 8.27573 23.6236 8.39627 23.178H6.2175L10.6137 16.3433Z" fill="#FF8C00"/>
</svg>
