<svg width="142" height="40" viewBox="0 0 142 40" fill="none" xmlns="http://www.w3.org/2000/svg">
<path d="M141.689 36.9559C141.713 37.8888 140.977 38.6647 140.044 38.6891L124.842 39.0857C123.909 39.11 123.134 38.3735 123.109 37.4406C123.085 36.5078 123.821 35.7318 124.754 35.7075L138.267 35.355L137.914 21.8423C137.89 20.9095 138.626 20.1335 139.559 20.1092C140.492 20.0849 141.268 20.8214 141.292 21.7542L141.689 36.9559ZM138.837 38.2255C137.763 37.2063 136.694 36.2009 135.628 35.2106L137.928 32.7351C139.004 33.7344 140.082 34.748 141.163 35.7745L138.837 38.2255ZM129.109 29.3179C126.866 27.3544 124.633 25.4718 122.401 23.6816L124.515 21.0455C126.791 22.8706 129.061 24.785 131.335 26.7754L129.109 29.3179ZM115.438 18.4144C113.021 16.7029 110.597 15.1148 108.156 13.664L109.883 10.759C112.41 12.261 114.909 13.8993 117.391 15.6565L115.438 18.4144ZM100.509 9.61672C97.8698 8.39585 95.1996 7.34626 92.4856 6.4844L93.5085 3.26359C96.3677 4.17157 99.17 5.27394 101.928 6.5497L100.509 9.61672ZM84.1433 4.46899C81.3622 4.00732 78.5217 3.74425 75.6091 3.69729L75.6635 0.318414C78.7452 0.3681 81.7525 0.646553 84.6967 1.1353L84.1433 4.46899ZM67.0388 4.17147C64.292 4.51474 61.4738 5.04587 58.5752 5.77895L57.7466 2.5028C60.7742 1.73709 63.7292 1.17948 66.6198 0.818244L67.0388 4.17147ZM50.3046 8.34775C47.6978 9.30287 45.0261 10.4147 42.2841 11.692L40.8571 8.62872C43.6803 7.31359 46.4402 6.16465 49.1421 5.17471L50.3046 8.34775ZM34.5365 15.6428C32.0831 16.9986 29.5754 18.4805 27.01 20.0938L25.2109 17.2332C27.8269 15.588 30.3895 14.0735 32.902 12.6851L34.5365 15.6428ZM19.7009 24.9403C17.3894 26.5494 15.033 28.2602 12.6295 30.076L10.5925 27.3796C13.029 25.5389 15.4209 23.8023 17.7701 22.1668L19.7009 24.9403ZM5.72369 35.4784C4.58878 36.3959 3.44374 37.3357 2.28839 38.2982L0.125412 35.7018C1.2932 34.7289 2.45108 33.7786 3.59921 32.8504L5.72369 35.4784Z" fill="#FF8C00"/>
</svg>
