<svg width="36" height="40" viewBox="0 0 36 40" fill="none" xmlns="http://www.w3.org/2000/svg">
<path fill-rule="evenodd" clip-rule="evenodd" d="M0.735352 0.95C0.735352 0.42533 1.16068 0 1.68535 0L20.7354 0L35.7354 15V39.05C35.7354 39.5747 35.31 40 34.7854 40H1.68535C1.16068 40 0.735352 39.5747 0.735352 39.05V0.95Z" fill="#34A770"/>
<path d="M13.1631 33.8887H11.8301L10.0332 30.9639L8.22656 33.8887H6.97168L9.34473 30.1875L7.13281 26.75H8.42676L10.0869 29.4551L11.7373 26.75H12.9922L10.7705 30.2217L13.1631 33.8887ZM14.625 33.8887V26.75H15.7969V32.8926H18.8291V33.8887H14.625ZM24.6855 31.9453C24.6855 32.3685 24.5814 32.7331 24.373 33.0391C24.168 33.3451 23.8717 33.5794 23.4844 33.7422C23.1003 33.9049 22.6413 33.9863 22.1074 33.9863C21.847 33.9863 21.598 33.9717 21.3604 33.9424C21.1227 33.9131 20.8981 33.8708 20.6865 33.8154C20.4782 33.7568 20.2878 33.6868 20.1152 33.6055V32.502C20.4049 32.6289 20.7288 32.7445 21.0869 32.8486C21.445 32.9495 21.8096 33 22.1807 33C22.4834 33 22.734 32.9609 22.9326 32.8828C23.1344 32.8014 23.2842 32.6875 23.3818 32.541C23.4795 32.3913 23.5283 32.2171 23.5283 32.0186C23.5283 31.807 23.4714 31.6279 23.3574 31.4814C23.2435 31.335 23.071 31.2015 22.8398 31.0811C22.612 30.9574 22.3255 30.8255 21.9805 30.6855C21.7461 30.5911 21.5215 30.4837 21.3066 30.3633C21.0951 30.2428 20.9062 30.1012 20.7402 29.9385C20.5742 29.7757 20.4424 29.5837 20.3447 29.3623C20.2503 29.1377 20.2031 28.874 20.2031 28.5713C20.2031 28.1676 20.2992 27.8226 20.4912 27.5361C20.6865 27.2497 20.96 27.0299 21.3115 26.877C21.6663 26.724 22.0798 26.6475 22.5518 26.6475C22.9261 26.6475 23.2777 26.6865 23.6064 26.7646C23.9385 26.8428 24.264 26.9535 24.583 27.0967L24.2119 28.0391C23.9189 27.9186 23.6341 27.8226 23.3574 27.751C23.084 27.6794 22.804 27.6436 22.5176 27.6436C22.2702 27.6436 22.0602 27.681 21.8877 27.7559C21.7152 27.8307 21.5833 27.9365 21.4922 28.0732C21.4043 28.2067 21.3604 28.3662 21.3604 28.5518C21.3604 28.7601 21.4108 28.9359 21.5117 29.0791C21.6159 29.2191 21.7754 29.3477 21.9902 29.4648C22.2083 29.582 22.4883 29.7122 22.8301 29.8555C23.224 30.0182 23.5576 30.1891 23.8311 30.3682C24.1077 30.5472 24.3193 30.762 24.4658 31.0127C24.6123 31.2601 24.6855 31.571 24.6855 31.9453Z" fill="white"/>
<path fill-rule="evenodd" clip-rule="evenodd" d="M20.7354 0L35.7354 15H21.6854C21.1607 15 20.7354 14.5747 20.7354 14.05V0Z" fill="#258859"/>
</svg>
