<svg width="48" height="48" viewBox="0 0 48 48" fill="none" xmlns="http://www.w3.org/2000/svg">
<rect x="0.555664" y="0.82373" width="47" height="47" rx="8.35555" fill="#FFF8EF"/>
<path d="M19.7515 29.8942L15.874 32.9405V16.8386C15.874 16.6078 15.9657 16.3864 16.1289 16.2232C16.2922 16.06 16.5136 15.9683 16.7444 15.9683H32.411C32.6419 15.9683 32.8633 16.06 33.0265 16.2232C33.1897 16.3864 33.2814 16.6078 33.2814 16.8386V29.0238C33.2814 29.2546 33.1897 29.476 33.0265 29.6392C32.8633 29.8025 32.6419 29.8942 32.411 29.8942H19.7515ZM20.2259 22.0608V23.8016H21.9666V22.0608H20.2259ZM23.7073 22.0608V23.8016H25.4481V22.0608H23.7073ZM27.1888 22.0608V23.8016H28.9296V22.0608H27.1888Z" fill="#FF8C00"/>
</svg>
