<svg width="41" height="16" viewBox="0 0 41 16" fill="none" xmlns="http://www.w3.org/2000/svg">
<g clip-path="url(#clip0_995_31461)">
<path d="M4.7843 13.4233C3.5291 13.4068 2.32054 13.333 1.16048 12.9105C0.624637 12.7154 0.295031 12.3654 0.241018 11.7765C0.179639 11.1094 0.107211 10.443 0.0157564 9.77967C-0.062195 9.21326 0.159383 8.75049 0.453389 8.30723C0.814298 8.36515 1.16232 8.44198 1.51402 8.47246C2.0652 8.52002 2.54642 8.35601 2.99264 8.00909C3.30936 7.76276 3.70034 7.61156 4.05327 7.40913C4.2325 7.30609 4.40006 7.18415 4.55781 7.01648C3.6095 6.52933 2.65874 6.70309 1.61714 6.94576C1.74726 6.83174 1.81478 6.77016 1.88414 6.71102C2.74099 5.97998 3.78566 5.705 4.86286 5.53368C6.86996 5.21419 8.88074 4.91848 10.8884 4.60022C11.102 4.56668 11.3236 4.48559 11.5047 4.36975C12.5107 3.72773 13.513 3.07961 14.5018 2.41137C16.3395 1.1694 18.3792 0.535911 20.5808 0.354219C22.1736 0.222522 23.7627 0.167039 25.358 0.329221C27.6057 0.55908 29.7588 1.1444 31.8009 2.08335C33.9645 3.07839 36.1594 3.97466 38.4556 4.61973C38.7564 4.70448 39.0436 4.83678 39.3284 5.0136C38.9829 5.04347 38.6336 5.05384 38.2918 5.10871C37.8799 5.17456 37.4687 5.25809 37.0679 5.37271C36.7738 5.45685 36.575 5.66293 36.5811 5.99766C36.5873 6.3202 36.7966 6.51408 37.0709 6.59091C37.3594 6.67139 37.6731 6.72078 37.9707 6.70187C38.7453 6.6531 39.5175 6.56286 40.2903 6.47994C40.4437 6.46348 40.537 6.47567 40.5794 6.65127C40.8869 7.93104 41.0919 9.21813 40.9587 10.5418C40.9126 10.9966 40.688 11.3174 40.3074 11.549C39.609 11.9752 38.8325 12.1819 38.0082 12.3734C38.169 10.6168 37.5718 9.20777 36.1079 8.21699C35.1203 7.54876 34.0142 7.37011 32.853 7.61643C30.5457 8.10481 28.789 10.5924 29.7865 13.3239C29.5195 13.4361 13.4915 13.5007 12.7157 13.3904C13.4081 11.0802 12.8483 9.18582 10.6699 8.00116C9.11705 7.15672 7.51321 7.32804 6.1242 8.42612C4.48477 9.72175 4.12938 11.4332 4.7843 13.4233ZM12.755 4.53985C16.3567 4.53985 19.9584 4.53985 23.5663 4.53985C23.7596 3.36495 23.9505 2.20712 24.1482 1.00904C22.2178 0.944415 20.3384 1.05843 18.4847 1.46388C16.2886 1.94433 14.5638 3.318 12.755 4.53985ZM31.6051 4.54778C31.5155 4.39901 31.4566 4.29475 31.3915 4.19415C30.9048 3.44421 30.2898 2.81134 29.5956 2.24919C29.2899 2.00165 28.9658 1.8102 28.5742 1.72667C27.9156 1.58644 27.2644 1.40962 26.6039 1.28097C26.0994 1.18281 25.5844 1.13586 25.0639 1.06453C24.8835 2.25711 24.711 3.39361 24.5367 4.54778C26.9053 4.54778 29.2242 4.54778 31.6051 4.54778ZM21.8354 7.08416C22.1214 7.08416 22.4081 7.09026 22.6935 7.08233C22.9286 7.07562 23.0894 6.96222 23.0906 6.71285C23.0918 6.44885 22.9255 6.33056 22.6757 6.32812C22.1343 6.32325 21.5923 6.32447 21.051 6.3269C20.803 6.32812 20.6293 6.43604 20.6232 6.70005C20.6176 6.96649 20.7901 7.07806 21.0375 7.08355C21.3039 7.08965 21.5696 7.08477 21.8354 7.08416Z" fill="#AA1643"/>
<path d="M37.2691 11.7605C37.2666 13.6957 35.7015 15.2383 33.7496 15.2303C31.8229 15.223 30.2645 13.664 30.2676 11.7471C30.27 9.82163 31.8475 8.26871 33.7938 8.27541C35.7199 8.28212 37.2716 9.83809 37.2691 11.7605ZM33.7895 9.66554C32.619 9.65579 31.6756 10.5777 31.6695 11.7361C31.6633 12.9043 32.5822 13.8329 33.7533 13.842C34.9232 13.8512 35.8635 12.9354 35.8782 11.7721C35.8924 10.6191 34.9557 9.67469 33.7895 9.66554Z" fill="#AA1643"/>
<path d="M12.2325 11.7733C12.2227 13.7091 10.6551 15.2432 8.70017 15.2297C6.77778 15.2169 5.21813 13.6463 5.22857 11.7337C5.239 9.80945 6.8189 8.26629 8.77014 8.27543C10.6913 8.28458 12.2424 9.85152 12.2325 11.7733ZM8.75602 9.66556C7.59841 9.65581 6.64642 10.5691 6.63169 11.7038C6.61574 12.8891 7.53458 13.8317 8.71613 13.8421C9.88233 13.8524 10.8282 12.9348 10.8478 11.7739C10.8669 10.6313 9.91793 9.67532 8.75602 9.66556Z" fill="#AA1643"/>
</g>
<defs>
<clipPath id="clip0_995_31461">
<rect width="41" height="15" fill="white" transform="translate(0 0.229492)"/>
</clipPath>
</defs>
</svg>
