<svg width="28" height="11" viewBox="0 0 28 11" fill="none" xmlns="http://www.w3.org/2000/svg">
<g clip-path="url(#clip0_995_39738)">
<path d="M3.70711 9.61519C2.87031 9.60422 2.06461 9.55504 1.29123 9.27335C0.934003 9.14328 0.714266 8.90997 0.678257 8.51732C0.637337 8.07264 0.589052 7.62836 0.528082 7.18612C0.476115 6.80851 0.623834 6.5 0.819838 6.2045C1.06044 6.24311 1.29246 6.29433 1.52692 6.31465C1.89438 6.34635 2.21519 6.23701 2.51267 6.00573C2.72382 5.84152 2.98447 5.74071 3.21976 5.60576C3.33924 5.53707 3.45095 5.45578 3.55612 5.344C2.92391 5.01923 2.29007 5.13507 1.59567 5.29685C1.68242 5.22084 1.72743 5.17978 1.77367 5.14035C2.3449 4.653 3.04135 4.46968 3.75949 4.35546C5.09755 4.14247 6.43807 3.94533 7.77654 3.73315C7.91894 3.7108 8.06666 3.65674 8.18737 3.57951C8.85804 3.15149 9.52626 2.71941 10.1855 2.27392C11.4106 1.44594 12.7703 1.02362 14.2381 0.902487C15.3 0.814689 16.3594 0.7777 17.4229 0.885822C18.9213 1.03906 20.3568 1.42927 21.7182 2.05524C23.1606 2.7186 24.6239 3.31611 26.1547 3.74616C26.3552 3.80266 26.5467 3.89086 26.7365 4.00874C26.5062 4.02866 26.2733 4.03557 26.0454 4.07215C25.7708 4.11605 25.4967 4.17173 25.2295 4.24815C25.0335 4.30424 24.9009 4.44163 24.905 4.66478C24.9091 4.87981 25.0486 5.00906 25.2315 5.06028C25.4238 5.11393 25.6329 5.14686 25.8314 5.13426C26.3478 5.10174 26.8626 5.04158 27.3777 4.9863C27.48 4.97533 27.5422 4.98346 27.5705 5.10052C27.7755 5.9537 27.9122 6.81176 27.8234 7.69421C27.7927 7.99744 27.6429 8.21124 27.3892 8.3657C26.9235 8.64983 26.4059 8.78762 25.8564 8.91525C25.9636 7.74421 25.5654 6.80485 24.5895 6.14434C23.9311 5.69885 23.1937 5.57975 22.4195 5.74396C20.8814 6.06955 19.7103 7.72795 20.3752 9.54894C20.1972 9.62373 9.51193 9.66682 8.99471 9.59325C9.45628 8.05313 9.0831 6.79022 7.63087 6.00045C6.59561 5.43748 5.52639 5.5517 4.60038 6.28376C3.50742 7.14751 3.2705 8.28847 3.70711 9.61519ZM9.0209 3.69291C11.4221 3.69291 13.8232 3.69291 16.2284 3.69291C16.3573 2.90964 16.4846 2.13775 16.6164 1.33904C15.3294 1.29595 14.0765 1.37196 12.8407 1.64226C11.3766 1.96256 10.2268 2.87834 9.0209 3.69291ZM21.5877 3.6982C21.5279 3.59902 21.4886 3.52951 21.4453 3.46244C21.1208 2.96248 20.7108 2.54057 20.248 2.1658C20.0442 2.00077 19.8281 1.87314 19.5671 1.81745C19.128 1.72396 18.6938 1.60609 18.2535 1.52032C17.9172 1.45488 17.5739 1.42358 17.2269 1.37603C17.1066 2.17108 16.9916 2.92875 16.8754 3.6982C18.4545 3.6982 20.0004 3.6982 21.5877 3.6982ZM15.0745 5.38911C15.2652 5.38911 15.4563 5.39318 15.6466 5.3879C15.8033 5.38342 15.9105 5.30782 15.9113 5.14157C15.9121 4.96557 15.8012 4.88672 15.6347 4.88509C15.2738 4.88184 14.9125 4.88265 14.5516 4.88428C14.3863 4.88509 14.2704 4.95704 14.2664 5.13304C14.2627 5.31067 14.3777 5.38505 14.5426 5.38871C14.7202 5.39277 14.8973 5.38952 15.0745 5.38911Z" fill="#AA1643"/>
<path d="M25.363 8.50651C25.3614 9.79665 24.3179 10.825 23.0167 10.8197C21.7322 10.8149 20.6933 9.77551 20.6953 8.49757C20.697 7.21393 21.7486 6.17865 23.0461 6.18312C24.3302 6.18759 25.3646 7.22491 25.363 8.50651ZM23.0433 7.10987C22.2629 7.10337 21.634 7.71796 21.6299 8.49025C21.6258 9.26905 22.2384 9.8881 23.0191 9.8942C23.799 9.9003 24.4259 9.28978 24.4358 8.51423C24.4452 7.74559 23.8207 7.11597 23.0433 7.10987Z" fill="#AA1643"/>
<path d="M8.67325 8.51506C8.66671 9.8056 7.62162 10.8283 6.31834 10.8193C5.03675 10.8108 3.99698 9.76374 4.00394 8.48864C4.0109 7.20581 5.06416 6.17704 6.36499 6.18313C7.64577 6.18923 8.6798 7.23386 8.67325 8.51506ZM6.35558 7.10989C5.58384 7.10338 4.94918 7.71228 4.93936 8.46872C4.92872 9.2589 5.54128 9.8873 6.32898 9.89421C7.10645 9.90112 7.73702 9.28938 7.75011 8.51546C7.7628 7.75374 7.13018 7.11639 6.35558 7.10989Z" fill="#AA1643"/>
</g>
<defs>
<clipPath id="clip0_995_39738">
<rect width="27.3333" height="10" fill="white" transform="translate(0.517578 0.819336)"/>
</clipPath>
</defs>
</svg>
