<svg width="18" height="18" viewBox="0 0 18 18" fill="none" xmlns="http://www.w3.org/2000/svg">
<g clip-path="url(#clip0_995_39764)">
<path d="M17.615 3.62571C17.2765 2.09712 15.7946 0.696842 14.2618 0.39942C13.3281 0.21274 10.723 -0.0178848 9 0.00109962C7.27699 -0.0178848 4.67191 0.21274 3.73816 0.39942C2.20535 0.696842 0.723516 2.09712 0.384961 3.62571C0.192305 4.55383 0.0028125 5.81665 0 7.54036C0.0028125 9.26407 0.192305 10.5265 0.384961 11.4547C0.723516 12.9832 2.20535 14.3835 3.73816 14.6809C4.2423 14.7818 5.23371 14.8954 6.31055 14.9756C6.43254 15.1672 6.56473 15.3711 6.70781 15.5873C7.2791 16.4525 7.71645 17.0554 8.04762 17.4755C8.59887 18.1748 9.40148 18.1748 9.95273 17.4755C10.2839 17.0554 10.7209 16.4525 11.2925 15.5873C11.4356 15.3707 11.5675 15.1672 11.6898 14.9756C12.7666 14.8954 13.758 14.7818 14.2625 14.6809C15.7954 14.3835 17.2772 12.9832 17.6157 11.4547C17.8084 10.5265 17.9979 9.26407 18.0007 7.54036C17.9979 5.81665 17.8084 4.55419 17.6157 3.62606L17.615 3.62571ZM9.99387 12.7663C9.9559 12.9804 9.76184 13.1745 9.54773 13.2125C9.41801 13.2339 9.24117 13.2543 8.99965 13.2547C8.75848 13.2547 8.58164 13.2343 8.45156 13.2125C8.23746 13.1745 8.0434 12.9804 8.00543 12.7663C7.98398 12.6366 7.96359 12.4598 7.96324 12.2182C7.96324 11.9771 7.98363 11.8002 8.00543 11.6702C8.0434 11.4561 8.23746 11.262 8.45156 11.224C8.58129 11.2026 8.75813 11.1822 8.99965 11.1818C9.24082 11.1818 9.41766 11.2022 9.54773 11.224C9.76184 11.262 9.9559 11.4561 9.99387 11.6702C10.0153 11.7999 10.0357 11.9767 10.0361 12.2182C10.0361 12.4594 10.0157 12.6363 9.99387 12.7663ZM12.1342 7.00809C11.8628 7.392 11.456 7.74251 10.8541 8.11059C10.0923 8.58028 9.97031 8.77329 9.97031 9.15122V9.30063C9.97031 9.83641 9.53438 10.2724 8.99859 10.2724C8.46281 10.2724 8.02688 9.83641 8.02688 9.30063V8.95434C8.02688 8.50856 8.13832 8.13028 8.36754 7.79805C8.58973 7.47602 8.92266 7.18985 9.4166 6.8963C10.3268 6.36087 10.4934 6.06028 10.4934 5.66126C10.4934 5.15993 10.0663 4.83579 9.4057 4.83579C8.68148 4.83579 8.21004 5.16485 8.00437 5.81419C7.86867 6.24239 7.47211 6.52997 7.01789 6.52997C6.99258 6.52997 6.96727 6.52891 6.94195 6.52716C6.62133 6.50395 6.3341 6.33766 6.1541 6.07083C5.97586 5.8068 5.9291 5.48231 6.02578 5.18032C6.24727 4.48985 6.67195 3.9154 7.25379 3.51883C7.84301 3.11735 8.58727 2.90536 9.40535 2.90536C10.2234 2.90536 11.0436 3.17641 11.6258 3.6686C12.2249 4.1752 12.555 4.8734 12.555 5.63524C12.555 6.15837 12.4175 6.60766 12.1342 7.00809Z" fill="#AA1643"/>
</g>
<defs>
<clipPath id="clip0_995_39764">
<rect width="18" height="18" fill="white"/>
</clipPath>
</defs>
</svg>
