<svg width="41" height="40" viewBox="0 0 41 40" fill="none" xmlns="http://www.w3.org/2000/svg">
<path d="M23.3448 9.92604C23.3448 9.92602 23.3448 9.92605 23.3448 9.92604V9.92604Z" fill="#2BA676"/>
<path d="M23.3448 9.92604L20.8158 9.92609C21.1434 10.3905 21.3885 10.9057 21.5504 11.4707C21.7854 12.2899 21.8424 13.2091 21.721 14.2262C21.6849 14.5387 21.4209 14.7593 21.1326 14.7202C20.8441 14.6811 20.6403 14.3952 20.6764 14.0831C20.7784 13.2301 20.7339 12.4703 20.5432 11.806C20.442 11.4536 20.2984 11.1258 20.1116 10.8224C19.7582 11.5524 19.2219 12.066 18.6991 12.5658C18.0001 13.2351 17.3309 13.8762 17.454 15.0637C17.4857 15.377 17.2768 15.6599 16.9875 15.6942C16.6982 15.7285 16.437 15.5023 16.4053 15.1891C16.2212 13.4163 17.092 12.582 18.0016 11.7115C18.5296 11.2061 19.0752 10.6834 19.3183 9.92604H16.7646C14.8676 11.2905 12.8397 13.5907 11.1775 16.2299C9.08962 19.5465 7.55469 23.4264 7.55469 26.6926C7.55469 30.5066 8.60639 32.7608 10.7658 34.0765C12.8397 35.3409 15.9095 35.6667 20.0547 35.6667C24.1999 35.6667 27.2699 35.3409 29.3436 34.0765C31.503 32.7602 32.5547 30.5063 32.5547 26.6926C32.5547 23.4271 31.0198 19.5465 28.9319 16.2299C27.2697 13.5904 25.2417 11.2905 23.3448 9.92604Z" fill="#2BA676"/>
<path d="M15.4016 4.90514L17.9717 8.78139L22.1374 8.78159L24.6822 4.94397C24.7609 4.8439 24.8088 4.71403 24.8088 4.57218C24.8088 4.25628 24.5721 4 24.2804 4L15.829 4.00213C15.7226 4.00213 15.6147 4.03673 15.5215 4.10938C15.2856 4.2933 15.2317 4.64965 15.4016 4.90514Z" fill="#2BA676"/>
<path d="M12.6325 30.2688H11.875V25.3889H14.922V26.0788H12.6325V27.5769H14.7292V28.2465H12.6325V30.2688Z" fill="white"/>
<path d="M17.9081 30.3872C17.2295 30.3872 16.6929 30.1583 16.2984 29.7007C15.9039 29.243 15.7066 28.6196 15.7066 27.8305C15.7066 27.0392 15.9027 26.4147 16.295 25.957C16.6896 25.4993 17.2261 25.2705 17.9047 25.2705C18.4413 25.2705 18.8979 25.4283 19.2744 25.744C19.6531 26.0573 19.873 26.4632 19.9338 26.9614H19.1797C19.1075 26.6616 18.9565 26.4226 18.7265 26.2445C18.4988 26.0664 18.2249 25.9773 17.9047 25.9773C17.4674 25.9773 17.1202 26.1441 16.8632 26.4778C16.6084 26.8092 16.481 27.2601 16.481 27.8305C16.481 28.3987 16.6084 28.8496 16.8632 29.1832C17.1202 29.5147 17.4685 29.6804 17.9081 29.6804C18.2305 29.6804 18.5056 29.5992 18.7333 29.4369C18.9633 29.2746 19.1121 29.0559 19.1797 28.7808H19.9338C19.8662 29.2633 19.6475 29.6522 19.2778 29.9475C18.908 30.2406 18.4515 30.3872 17.9081 30.3872Z" fill="white"/>
<path d="M21.689 30.2688H20.9315V25.3889H23.9785V26.0788H21.689V27.5769H23.7857V28.2465H21.689V30.2688Z" fill="white"/>
<path d="M27.8709 30.2688L27.4245 28.9736H25.5645L25.1147 30.2688H24.3369L26.0988 25.3889H26.9139L28.6758 30.2688H27.8709ZM26.4675 26.2749L25.7573 28.3378H27.2318L26.525 26.2749H26.4675Z" fill="white"/>
</svg>
