<svg width="15" height="20" viewBox="0 0 15 20" fill="none" xmlns="http://www.w3.org/2000/svg">
<path d="M13.3311 1.93555H11.2818V3.52354C11.2818 4.03232 10.8892 4.48275 10.3769 4.49011H4.55199C4.03608 4.48654 3.61814 4.06504 3.62174 3.54894L3.62908 1.93555H1.58686C1.03466 1.93555 0.583984 2.38621 0.583984 2.93842V18.0003C0.583984 18.549 1.03464 19.0032 1.58686 19.0032H13.3311C13.8835 19.0032 14.334 18.549 14.334 18.0003V2.93842C14.334 2.38623 13.8833 1.93555 13.3311 1.93555H13.3311ZM12.8551 14.9882H2.06311C1.86316 14.9882 1.69972 14.8247 1.69972 14.6248C1.69972 14.4249 1.86317 14.2614 2.06311 14.2614H3.05148V9.09434C3.05148 8.89439 3.21135 8.73096 3.41486 8.73096H4.99195C5.19546 8.73096 5.35533 8.8944 5.35533 9.09434V14.2614H6.30745V11.1546C6.30745 10.9511 6.47089 10.7912 6.67083 10.7912H8.25152C8.45147 10.7912 8.6149 10.9511 8.6149 11.1546V14.2614H9.56702L9.56681 7.68085C9.56681 7.47734 9.73025 7.31747 9.93019 7.31747H11.5073C11.7072 7.31747 11.8707 7.47734 11.8707 7.68085V14.2614H12.8555C13.0554 14.2614 13.2189 14.4249 13.2189 14.6248C13.2187 14.8247 13.055 14.9882 12.8553 14.9882H12.8551Z" fill="white"/>
<path d="M4.55195 3.76189H10.3661C10.4932 3.76189 10.6094 3.70021 10.6749 3.59111C10.7439 3.48579 10.7475 3.3513 10.6932 3.23864L9.61036 1.03652C9.54868 0.912945 9.42132 0.833008 9.28327 0.833008L5.63496 0.833218C5.49691 0.833218 5.36977 0.913155 5.30788 1.03673L4.22508 3.23885C4.17053 3.35151 4.17431 3.486 4.24334 3.59132C4.30858 3.7002 4.42482 3.76189 4.55217 3.76189H4.55195Z" fill="white"/>
</svg>
