<svg width="16" height="14" viewBox="0 0 16 14" fill="none" xmlns="http://www.w3.org/2000/svg">
<path fill-rule="evenodd" clip-rule="evenodd" d="M7.26857 12.3471C7.26857 12.7519 7.44052 13.1409 7.74601 13.4272C8.05151 13.7137 8.46637 13.8748 8.89818 13.8748H13.7869C14.2187 13.8748 14.6336 13.7136 14.9391 13.4272C15.2446 13.1409 15.4165 12.7519 15.4165 12.3471V9.29151C15.4165 8.88669 15.2446 8.49775 14.9391 8.21135C14.6336 7.92496 14.2187 7.76376 13.7869 7.76376H8.89818C8.46637 7.76376 8.0515 7.92496 7.74601 8.21135C7.4405 8.49777 7.26857 8.88669 7.26857 9.29151V12.3471ZM4.00926 7.76391H2.37961C1.94764 7.76391 1.53293 7.92512 1.22744 8.21151C0.92177 8.49792 0.75 8.88685 0.75 9.29167V12.3472C0.75 12.7521 0.92179 13.141 1.22744 13.4274C1.53294 13.7138 1.94764 13.875 2.37961 13.875H4.00926C4.44107 13.875 4.85578 13.7138 5.16144 13.4274C5.46695 13.141 5.63887 12.7521 5.63887 12.3472V9.29167C5.63887 8.88685 5.46692 8.4979 5.16144 8.21151C4.85577 7.9251 4.44107 7.76391 4.00926 7.76391V7.76391ZM15.4166 1.65275C15.4166 1.24778 15.2447 0.85899 14.9392 0.572594C14.6337 0.286032 14.2188 0.125 13.787 0.125H2.37965C1.94768 0.125 1.53297 0.286052 1.22748 0.572594C0.921811 0.859005 0.750042 1.24778 0.750042 1.65275V4.70833C0.750042 5.11315 0.921831 5.50194 1.22748 5.78849C1.53298 6.0749 1.94768 6.23608 2.37965 6.23608H13.787C14.6874 6.23608 15.4167 5.55242 15.4167 4.70829L15.4166 1.65275Z" fill="#FFFFFF"/>
</svg>
