<svg width="20" height="18" viewBox="0 0 20 18" fill="none" xmlns="http://www.w3.org/2000/svg">
<path d="M6.86672 6.06817C7.08674 5.76006 7.21755 5.39725 7.24477 5.01963C7.272 4.642 7.19458 4.26418 7.02102 3.9277C6.84747 3.59121 6.5845 3.3091 6.26103 3.11235C5.93756 2.91561 5.5661 2.81186 5.1875 2.81252C5.08189 2.81323 4.9765 2.8222 4.87228 2.83933L5.48794 4.68939L6.86672 6.06817ZM10.6239 2.47908L11.6613 3.07136L13.1945 1.53823C13.2386 1.49416 13.2938 1.46291 13.3543 1.44783L14.5918 1.13845L14.8166 0.764453C14.7009 0.755788 14.5848 0.750973 14.4688 0.750016C13.7418 0.748194 13.0228 0.901484 12.3597 1.19965C11.6967 1.49782 11.1049 1.934 10.6239 2.47908ZM4.58559 6.84745C4.8872 6.93991 5.20607 6.96155 5.5174 6.91069C5.82874 6.85984 6.12414 6.73785 6.38066 6.55423L5.28066 5.45423L4.58559 6.84745ZM3.972 6.53739L4.81625 4.84855L4.2195 3.05486C3.91094 3.21835 3.64905 3.45766 3.45848 3.75028C3.26792 4.04289 3.15494 4.37918 3.13019 4.7275C3.10543 5.07582 3.16971 5.42471 3.31698 5.74134C3.46425 6.05796 3.68966 6.33191 3.972 6.53739ZM10 15.5313H0.375V16.5625C0.375 16.7449 0.447433 16.9197 0.576364 17.0487C0.705295 17.1776 0.880164 17.25 1.0625 17.25H10.1846C10.0633 17.0412 9.99963 16.804 10 16.5625V15.5313Z" fill="white"/>
<path d="M16.7258 8.3127L15.7946 9.86473C15.7658 9.91277 15.7257 9.95304 15.6778 9.98204C15.6298 10.011 15.5755 10.0279 15.5196 10.0311H15.5C15.4467 10.0311 15.394 10.0187 15.3463 9.99482C15.2986 9.97095 15.257 9.9363 15.225 9.89361L14.1938 8.51861C14.1492 8.4592 14.1251 8.38696 14.125 8.3127V6.73627L13.5623 6.17355L12.5592 5.50495C12.5203 5.47901 12.4872 5.44542 12.4617 5.40622C12.4362 5.36701 12.419 5.32303 12.4112 5.27696C12.4033 5.23088 12.4049 5.18369 12.4159 5.13825C12.4268 5.09281 12.447 5.05009 12.475 5.0127L13.5063 3.6377C13.5594 3.567 13.6377 3.51948 13.7249 3.50502L15.7874 3.16127C15.8413 3.15229 15.8966 3.1563 15.9487 3.17298C16.0008 3.18966 16.0481 3.21853 16.0868 3.25717L17.4044 4.57477L18.1995 4.83945L19.0905 4.24545L19.2943 4.08114C18.9912 3.27462 18.4897 2.55752 17.8362 1.99611C17.1826 1.4347 16.398 1.0471 15.555 0.869141L15.1081 1.61473C15.0612 1.69283 14.9851 1.74909 14.8967 1.77114L13.6145 2.09186L11.9645 3.74186C11.9113 3.79492 11.8421 3.82906 11.7676 3.83905C11.6931 3.84905 11.6174 3.83435 11.552 3.7972L10.1942 3.02583C9.74971 3.68209 9.46451 4.43305 9.36133 5.21895H11.0313C11.1224 5.21895 11.2099 5.25517 11.2743 5.31964C11.3388 5.3841 11.375 5.47154 11.375 5.5627V7.13914L12.993 8.75717C13.0575 8.82163 13.0937 8.90905 13.0937 9.0002C13.0937 9.09135 13.0575 9.17877 12.993 9.24323L11.8786 10.3577C12.948 10.9849 14.2083 11.2036 15.4265 10.9735C16.6446 10.7433 17.7383 10.0799 18.5051 9.10573L17.448 8.3127H16.7258Z" fill="white"/>
<path d="M9.3125 5.90625C9.31302 6.68932 9.49222 7.46194 9.83648 8.16527C10.1807 8.86861 10.6809 9.48411 11.299 9.96491L12.2639 9L10.7882 7.52428C10.7237 7.45983 10.6875 7.37241 10.6875 7.28125V5.90625H9.3125Z" fill="white"/>
<path d="M8.625 5.90625C8.6246 4.8479 8.91149 3.80929 9.45507 2.90121C9.99865 1.99312 10.7785 1.24962 11.7115 0.75H2.4375C2.25516 0.75 2.0803 0.822433 1.95136 0.951364C1.82243 1.0803 1.75 1.25516 1.75 1.4375V14.8438H10.3438C10.4349 14.8438 10.5224 14.88 10.5868 14.9444C10.6513 15.0089 10.6875 15.0963 10.6875 15.1875V16.5625C10.6875 16.7448 10.7599 16.9197 10.8889 17.0486C11.0178 17.1776 11.1927 17.25 11.375 17.25C11.5573 17.25 11.7322 17.1776 11.8611 17.0486C11.9901 16.9197 12.0625 16.7448 12.0625 16.5625V11.2254C11.0392 10.7626 10.1708 10.0148 9.56124 9.07154C8.95164 8.12825 8.62661 7.02937 8.625 5.90625ZM8.96875 10.0312V10.7188H2.78125V10.0312H8.96875ZM9.65625 11.4062V12.0938H2.78125V11.4062H9.65625ZM2.78125 9.34375V8.65625H3.46875V9.34375H2.78125ZM8.28125 9.34375H4.15625V8.65625H8.28125V9.34375ZM5.1875 2.125C5.7314 2.125 6.26308 2.28628 6.71532 2.58846C7.16755 2.89063 7.52003 3.32012 7.72817 3.82262C7.93631 4.32512 7.99077 4.87805 7.88466 5.4115C7.77855 5.94495 7.51664 6.43495 7.13204 6.81954C6.74745 7.20414 6.25745 7.46605 5.724 7.57216C5.19055 7.67827 4.63762 7.62381 4.13512 7.41567C3.63262 7.20753 3.20313 6.85505 2.90096 6.40282C2.59878 5.95058 2.4375 5.4189 2.4375 4.875C2.43832 4.14591 2.72831 3.44691 3.24386 2.93136C3.75941 2.41581 4.45841 2.12582 5.1875 2.125ZM11.0312 13.4688H2.78125V12.7812H11.0312V13.4688ZM19.5012 4.79559L19.4961 4.79938L18.4408 5.50475C18.3974 5.53419 18.3478 5.55312 18.2958 5.56004C18.2438 5.56697 18.1909 5.56169 18.1414 5.54462L17.1101 5.20087C17.0595 5.18406 17.0135 5.1557 16.9757 5.11803L15.7258 3.86816L13.9727 4.16034L13.2422 5.13419L13.971 5.62025C13.9898 5.63282 14.0073 5.64721 14.0232 5.66322L14.7107 6.35072C14.7429 6.38255 14.7684 6.4204 14.7858 6.4621C14.8033 6.5038 14.8124 6.54854 14.8125 6.59375V8.19803L15.468 9.07219L16.2367 7.79172C16.2672 7.74087 16.3104 7.6988 16.362 7.66958C16.4136 7.64037 16.4719 7.62501 16.5312 7.625H17.5625C17.6369 7.625 17.7092 7.64912 17.7687 7.69375L18.8945 8.53834C19.372 7.74335 19.6244 6.83359 19.625 5.90625C19.6236 5.53267 19.5822 5.16031 19.5012 4.79559Z" fill="white"/>
</svg>
