<svg width="22" height="22" viewBox="0 0 22 22" fill="none" xmlns="http://www.w3.org/2000/svg">
<path d="M19.25 12.2278C19.25 13.0956 18.5464 13.7992 17.6786 13.7992C16.8107 13.7992 16.1071 13.0956 16.1071 12.2278C16.1071 11.36 16.8107 10.6564 17.6786 10.6564C18.5464 10.6564 19.25 11.36 19.25 12.2278ZM5.89286 12.2278C5.89286 13.0956 5.18925 13.7992 4.32143 13.7992C3.45361 13.7992 2.75 13.0956 2.75 12.2278C2.75 11.36 3.45361 10.6564 4.32143 10.6564C5.18925 10.6564 5.89286 11.36 5.89286 12.2278ZM12.5714 10.6564C12.5714 11.5242 11.8678 12.2278 11 12.2278C10.1322 12.2278 9.42857 11.5242 9.42857 10.6564C9.42857 9.78857 10.1322 9.08496 11 9.08496C11.8678 9.08496 12.5714 9.78857 12.5714 10.6564ZM6.29667 21.2635C6.0356 20.9261 5.89361 20.5116 5.89286 20.085V16.1564C5.89463 15.7589 5.96344 15.3645 6.09641 14.9899C6.02888 14.9853 5.9619 14.9778 5.89286 14.9778H2.75C2.19837 14.9762 1.65931 15.1426 1.20445 15.4546C0.833767 15.7068 0.530283 16.0457 0.320376 16.4419C0.110469 16.8381 0.000490376 17.2795 0 17.7278L0 19.2992C0.000693836 19.6746 0.10874 20.0419 0.31139 20.3579C0.51404 20.6739 0.802837 20.9252 1.14371 21.0824C1.27998 21.1469 1.42362 21.1945 1.57143 21.2242V16.9421H2.35714V21.2635H6.29667ZM6.69065 21.6564C6.68643 21.6533 6.68299 21.6493 6.67857 21.6462V21.6564H6.69065ZM14.999 14.865C14.7883 14.4718 14.4862 14.1349 14.1181 13.8829C14.0816 13.8558 14.0433 13.8313 14.0034 13.8094C13.5722 13.5459 13.0767 13.4064 12.5714 13.4064H9.42857C7.90969 13.4064 6.67857 14.6375 6.67857 16.1564V20.085C6.67857 20.7358 7.20628 21.2635 7.85714 21.2635H8.25V15.7635H9.03571V21.2635H12.9643V15.7635H13.75V21.2635H14.1429C14.7937 21.2635 15.3214 20.7358 15.3214 20.085V16.1564C15.3216 15.706 15.2108 15.2625 14.999 14.865ZM20.7967 15.4555C20.3416 15.1429 19.8021 14.9763 19.25 14.9778H16.1071C16.0385 14.9778 15.9715 14.9853 15.904 14.9899C16.0367 15.3646 16.1054 15.7589 16.1071 16.1564V20.085C16.1064 20.5116 15.9644 20.9261 15.7033 21.2635H19.6429V16.9421H20.4286V21.2242C20.5741 21.1951 20.7155 21.1481 20.8496 21.0844C21.1921 20.9281 21.4825 20.6768 21.6864 20.3604C21.8903 20.044 21.9992 19.6757 22 19.2992V17.7278C21.9995 17.2797 21.8897 16.8385 21.68 16.4425C21.4702 16.0465 21.167 15.7077 20.7967 15.4555Z" fill="white"/>
<path d="M10.9993 5.15626C10.2088 5.15472 9.43064 5.35238 8.7367 5.73099C8.04275 6.1096 7.45539 6.65695 7.02885 7.32251C6.60231 7.98806 6.35034 8.75036 6.2962 9.53901C6.24207 10.3277 6.38752 11.1172 6.71912 11.8348H8.96115C8.38567 10.8442 8.60572 9.58357 9.48252 8.84642C10.3594 8.10942 11.6392 8.10942 12.5161 8.84642C13.3929 9.58357 13.6129 10.8442 13.0374 11.8348H15.2814C15.6131 11.1171 15.7586 10.3273 15.7044 9.53849C15.6502 8.74966 15.398 7.98721 14.9712 7.32159C14.5445 6.65597 13.9568 6.10865 13.2626 5.73019C12.5684 5.35173 11.79 5.15434 10.9993 5.15626Z" fill="white"/>
<path d="M20.4277 8.29883H18.3063L18.23 8.00379C18.0565 7.32878 17.7866 6.68227 17.4288 6.0842L17.2715 5.82142L18.7776 4.31251C18.814 4.27633 18.8428 4.23333 18.8625 4.18598C18.8822 4.13863 18.8923 4.08785 18.8923 4.03657C18.8923 3.9853 18.8822 3.93452 18.8625 3.88717C18.8428 3.83981 18.814 3.79682 18.7776 3.76064L17.1094 2.09178C17.0353 2.02105 16.9367 1.98158 16.8343 1.98158C16.7318 1.98158 16.6333 2.02105 16.5592 2.09178L15.0503 3.60065L14.7875 3.44351C14.1887 3.08546 13.5414 2.81544 12.8656 2.64173L12.5706 2.56498V0.441685C12.5706 0.337493 12.5292 0.237568 12.4555 0.163893C12.3819 0.0902183 12.2819 0.0488281 12.1777 0.0488281H9.82059C9.7164 0.0488281 9.61648 0.0902183 9.5428 0.163893C9.46912 0.237568 9.42773 0.337493 9.42773 0.441685V2.56311L9.1327 2.63943C8.45766 2.81303 7.81107 3.08275 7.21276 3.44032L6.94994 3.59761L5.44141 2.09178C5.36723 2.02052 5.26835 1.98072 5.16548 1.98072C5.06261 1.98072 4.96373 2.02052 4.88955 2.09178L3.22069 3.76005C3.18431 3.79627 3.15544 3.83932 3.13572 3.88672C3.116 3.93412 3.10583 3.98494 3.10578 4.03628C3.10578 4.14009 3.14718 4.23944 3.22069 4.31251L4.72956 5.82142L4.57241 6.0842C4.21449 6.68226 3.94458 7.32877 3.77098 8.00379L3.69389 8.29883H1.57059C1.4664 8.29883 1.36647 8.34022 1.2928 8.41389C1.21912 8.48757 1.17773 8.58749 1.17773 8.69169V11.0488C1.17773 11.153 1.21912 11.2529 1.2928 11.3266C1.36647 11.4003 1.4664 11.4417 1.57059 11.4417H2.10213C2.21733 11.1139 2.40377 10.8157 2.64803 10.5686C2.89229 10.3215 3.1883 10.1316 3.51474 10.0126C3.84116 9.89349 4.18993 9.84828 4.53592 9.88019C4.88192 9.9121 5.21653 10.0203 5.51566 10.1971C5.50933 10.0883 5.49916 9.98055 5.49916 9.87026C5.49916 6.83274 7.96164 4.37026 10.9992 4.37026C14.0367 4.37026 16.4992 6.83274 16.4992 9.87026C16.4992 9.98055 16.489 10.0883 16.4827 10.1971C16.7818 10.0203 17.1164 9.9121 17.4624 9.88019C17.8084 9.84828 18.1572 9.89349 18.4836 10.0126C18.81 10.1316 19.106 10.3215 19.3503 10.5686C19.5946 10.8157 19.781 11.1139 19.8962 11.4417H20.4277C20.5319 11.4417 20.6319 11.4003 20.7055 11.3266C20.7792 11.2529 20.8206 11.153 20.8206 11.0488V8.69169C20.8206 8.58749 20.7792 8.48757 20.7055 8.41389C20.6319 8.34022 20.5319 8.29883 20.4277 8.29883Z" fill="white"/>
</svg>
