<svg width="24" height="15" viewBox="0 0 24 15" fill="none" xmlns="http://www.w3.org/2000/svg">
<path d="M12.0002 0.732422C12.9068 0.732422 13.7762 1.09254 14.4172 1.73354C15.0582 2.37455 15.4183 3.24394 15.4183 4.15046C15.4183 5.05698 15.0582 5.92637 14.4172 6.56738C13.7762 7.20839 12.9068 7.5685 12.0002 7.5685C11.0937 7.5685 10.2243 7.20839 9.58332 6.56738C8.94232 5.92637 8.5822 5.05698 8.5822 4.15046C8.5822 3.24394 8.94232 2.37455 9.58332 1.73354C10.2243 1.09254 11.0937 0.732422 12.0002 0.732422ZM5.16416 3.17388C5.71105 3.17388 6.21887 3.32037 6.65834 3.58404C6.51185 4.98056 6.92201 6.36731 7.76187 7.45131C7.27358 8.38883 6.297 9.03338 5.16416 9.03338C4.38715 9.03338 3.64195 8.72471 3.09252 8.17527C2.54308 7.62584 2.23442 6.88065 2.23442 6.10363C2.23442 5.32661 2.54308 4.58142 3.09252 4.03198C3.64195 3.48255 4.38715 3.17388 5.16416 3.17388ZM18.8363 3.17388C19.6133 3.17388 20.3585 3.48255 20.908 4.03198C21.4574 4.58142 21.7661 5.32661 21.7661 6.10363C21.7661 6.88065 21.4574 7.62584 20.908 8.17527C20.3585 8.72471 19.6133 9.03338 18.8363 9.03338C17.7035 9.03338 16.7269 8.38883 16.2386 7.45131C17.0901 6.35209 17.4853 4.96708 17.3422 3.58404C17.7816 3.32037 18.2894 3.17388 18.8363 3.17388ZM5.65246 13.1839C5.65246 11.1623 8.49431 9.52167 12.0002 9.52167C15.5062 9.52167 18.348 11.1623 18.348 13.1839V14.8929H5.65246V13.1839ZM0.28125 14.8929V13.428C0.28125 12.0705 2.12699 10.9279 4.62704 10.5959C4.05086 11.26 3.69929 12.178 3.69929 13.1839V14.8929H0.28125ZM23.7192 14.8929H20.3012V13.1839C20.3012 12.178 19.9496 11.26 19.3734 10.5959C21.8735 10.9279 23.7192 12.0705 23.7192 13.428V14.8929Z" fill="white"/>
</svg>
