<svg width="16" height="20" viewBox="0 0 16 20" fill="none" xmlns="http://www.w3.org/2000/svg">
<path d="M15.5311 16.2873C15.088 14.9686 13.3221 14.1432 12.063 13.5899C11.5698 13.3738 10.2043 13.0073 10.0401 12.3863C9.9814 12.1625 9.98932 11.9515 10.0375 11.7494C9.96089 11.7644 9.88303 11.7722 9.80496 11.7725H8.98458C8.6698 11.7721 8.36802 11.6469 8.14547 11.4243C7.92291 11.2017 7.79775 10.8999 7.79746 10.5851C7.79746 9.93107 8.32986 9.39933 8.98458 9.39933H9.80496C10.076 9.39933 10.333 9.49107 10.5402 9.65475C10.8351 9.61586 11.1261 9.55213 11.4103 9.46423C11.7691 8.71249 12.049 7.81357 12.1117 7.03983C12.3794 3.72927 10.3499 1.79239 7.43996 2.12723C5.32422 2.37077 4.06032 3.94839 3.9237 5.97943C3.78554 8.04963 4.55312 9.57863 5.36844 10.7002C5.7255 11.1906 6.1006 11.5058 6.04296 12.0967C5.97608 12.7955 5.22896 12.9902 4.69458 13.2049C4.06142 13.4592 3.37942 13.8451 3.05734 14.0235C1.94788 14.6362 0.730178 15.3741 0.456498 16.3834C-0.149602 18.6204 1.89728 19.298 3.5871 19.6108C5.03734 19.8784 6.6726 19.8995 8.01768 19.8995C10.4507 19.8995 14.8256 19.802 15.5311 17.9732C15.7318 17.4542 15.6457 16.6272 15.5311 16.2873Z" fill="white"/>
<path d="M10.3241 10.2511C10.2679 10.1646 10.191 10.0935 10.1005 10.0442C10.0099 9.99491 9.90843 9.969 9.80531 9.96881H8.98493C8.90239 9.96661 8.82024 9.98096 8.74334 10.011C8.66644 10.0411 8.59633 10.0863 8.53717 10.1439C8.47801 10.2015 8.43099 10.2703 8.39889 10.3464C8.36678 10.4225 8.35024 10.5042 8.35024 10.5868C8.35024 10.6694 8.36678 10.7511 8.39889 10.8272C8.43099 10.9032 8.47801 10.9721 8.53717 11.0297C8.59633 11.0873 8.66644 11.1325 8.74334 11.1626C8.82024 11.1926 8.90239 11.207 8.98493 11.2048H9.80531C9.91817 11.2047 10.0288 11.1734 10.125 11.1145C10.2213 11.0555 10.2994 10.9711 10.3507 10.8706C11.4945 10.7806 12.4893 10.4312 13.1876 9.91535C13.348 10.0187 13.5376 10.0792 13.7422 10.0792H13.7937C13.9292 10.0793 14.0634 10.0526 14.1887 10.0007C14.3139 9.94881 14.4276 9.87274 14.5234 9.77685C14.6192 9.68095 14.6952 9.56712 14.7469 9.44185C14.7987 9.31658 14.8252 9.18233 14.825 9.04679V6.98583C14.8251 6.79117 14.7699 6.6005 14.6658 6.43599C14.5617 6.27149 14.4131 6.1399 14.2372 6.05655C14.0858 2.74709 11.3462 0.0996094 7.99955 0.0996094C4.65291 0.0996094 1.91281 2.74709 1.76211 6.05655C1.58607 6.13978 1.4373 6.27132 1.33315 6.43584C1.229 6.60037 1.17374 6.79111 1.17383 6.98583V9.04679C1.17366 9.18226 1.20018 9.31643 1.25188 9.44164C1.30358 9.56686 1.37944 9.68065 1.47514 9.77654C1.57084 9.87242 1.68449 9.9485 1.80961 10.0004C1.93472 10.0524 2.06884 10.0792 2.20431 10.0792H2.25645C2.39196 10.0792 2.52614 10.0525 2.65132 10.0006C2.7765 9.94866 2.89022 9.87259 2.98598 9.7767C3.08174 9.68082 3.15767 9.567 3.20942 9.44176C3.26117 9.31652 3.28773 9.1823 3.28759 9.04679V6.98583C3.28749 6.79389 3.2337 6.60581 3.13231 6.44283C3.03092 6.27986 2.88596 6.1485 2.71383 6.06359C2.86101 3.27509 5.17497 1.05243 7.99955 1.05243C10.823 1.05243 13.1381 3.27509 13.2846 6.06359C13.1126 6.14865 12.9679 6.28007 12.8666 6.44302C12.7653 6.60597 12.7116 6.79398 12.7115 6.98583V9.04679C12.7115 9.18363 12.7381 9.31101 12.785 9.43003C12.1839 9.86013 11.309 10.1666 10.3241 10.2511Z" fill="white"/>
</svg>
