<svg width="22" height="22" viewBox="0 0 22 22" fill="none" xmlns="http://www.w3.org/2000/svg">
<path d="M10.8519 11.0189C10.8115 11.0007 10.7666 10.9955 10.7231 11.0039C10.6796 11.0123 10.6398 11.0339 10.6092 11.0659C9.35068 12.3444 7.65714 13.1026 5.86523 13.1896V17.6109C7.65753 17.6976 9.3515 18.4558 10.6103 19.7346C10.6409 19.7665 10.6807 19.7882 10.7242 19.7966C10.7676 19.805 10.8127 19.7998 10.853 19.7815C10.8965 19.7644 10.9338 19.7345 10.96 19.6957C10.9862 19.657 11 19.6112 10.9997 19.5645V11.236C10.9999 11.1891 10.986 11.1432 10.9596 11.1045C10.9332 11.0657 10.8956 11.0359 10.8519 11.0189Z" fill="#FF8C00"/>
<path d="M21.2658 1.8334C21.2658 1.54166 21.1499 1.26187 20.9436 1.05558C20.7373 0.849291 20.4575 0.733398 20.1658 0.733398H9.89909C9.60735 0.733398 9.32756 0.849291 9.12127 1.05558C8.91498 1.26187 8.79909 1.54166 8.79909 1.8334V10.6334C8.79989 10.9079 8.90365 11.172 9.08986 11.3737C9.44956 11.1297 9.78556 10.8526 10.0934 10.5458C10.2265 10.4111 10.397 10.3196 10.5828 10.2832C10.7686 10.2467 10.9611 10.2671 11.1351 10.3415C11.3121 10.4146 11.4634 10.5387 11.5697 10.6979C11.676 10.8571 11.7327 11.0444 11.7324 11.2358V11.7334H14.6658C14.763 11.7334 14.8563 11.772 14.925 11.8408C14.9938 11.9096 15.0324 12.0028 15.0324 12.1001V14.9491C15.0314 14.9652 15.0355 14.9812 15.0442 14.9948C15.0528 15.0084 15.0655 15.019 15.0805 15.025C15.0954 15.0325 15.1124 15.0351 15.1289 15.0324C15.1455 15.0297 15.1607 15.0219 15.1725 15.0099L18.6687 11.8291C18.7361 11.7676 18.8241 11.7335 18.9154 11.7334H20.1658C20.4575 11.7334 20.7373 11.6175 20.9436 11.4112C21.1499 11.2049 21.2658 10.9251 21.2658 10.6334V1.8334ZM10.6324 2.56673H15.3991C15.4963 2.56673 15.5896 2.60536 15.6584 2.67413C15.7271 2.74289 15.7658 2.83615 15.7658 2.9334C15.7658 3.03064 15.7271 3.12391 15.6584 3.19267C15.5896 3.26143 15.4963 3.30007 15.3991 3.30007H10.6324C10.5352 3.30007 10.4419 3.26143 10.3732 3.19267C10.3044 3.12391 10.2658 3.03064 10.2658 2.9334C10.2658 2.83615 10.3044 2.74289 10.3732 2.67413C10.4419 2.60536 10.5352 2.56673 10.6324 2.56673ZM17.9658 9.5334H10.6324C10.5352 9.5334 10.4419 9.49477 10.3732 9.42601C10.3044 9.35724 10.2658 9.26398 10.2658 9.16673C10.2658 9.06949 10.3044 8.97622 10.3732 8.90746C10.4419 8.8387 10.5352 8.80007 10.6324 8.80007H17.9658C18.063 8.80007 18.1563 8.8387 18.225 8.90746C18.2938 8.97622 18.3324 9.06949 18.3324 9.16673C18.3324 9.26398 18.2938 9.35724 18.225 9.42601C18.1563 9.49477 18.063 9.5334 17.9658 9.5334ZM10.2658 7.3334C10.2658 7.23615 10.3044 7.14289 10.3732 7.07413C10.4419 7.00536 10.5352 6.96673 10.6324 6.96673H12.0991C12.1963 6.96673 12.2896 7.00536 12.3584 7.07413C12.4271 7.14289 12.4658 7.23615 12.4658 7.3334C12.4658 7.43065 12.4271 7.52391 12.3584 7.59267C12.2896 7.66144 12.1963 7.70007 12.0991 7.70007H10.6324C10.5352 7.70007 10.4419 7.66144 10.3732 7.59267C10.3044 7.52391 10.2658 7.43065 10.2658 7.3334ZM19.4324 7.70007H13.5658C13.4685 7.70007 13.3752 7.66144 13.3065 7.59267C13.2377 7.52391 13.1991 7.43065 13.1991 7.3334C13.1991 7.23615 13.2377 7.14289 13.3065 7.07413C13.3752 7.00536 13.4685 6.96673 13.5658 6.96673H19.4324C19.5297 6.96673 19.6229 7.00536 19.6917 7.07413C19.7605 7.14289 19.7991 7.23615 19.7991 7.3334C19.7991 7.43065 19.7605 7.52391 19.6917 7.59267C19.6229 7.66144 19.5297 7.70007 19.4324 7.70007ZM19.4324 5.86673H10.6324C10.5352 5.86673 10.4419 5.8281 10.3732 5.75934C10.3044 5.69057 10.2658 5.59731 10.2658 5.50007C10.2658 5.40282 10.3044 5.30956 10.3732 5.24079C10.4419 5.17203 10.5352 5.1334 10.6324 5.1334H19.4324C19.5297 5.1334 19.6229 5.17203 19.6917 5.24079C19.7605 5.30956 19.7991 5.40282 19.7991 5.50007C19.7991 5.59731 19.7605 5.69057 19.6917 5.75934C19.6229 5.8281 19.5297 5.86673 19.4324 5.86673ZM4.55529 21.0365C4.58253 21.1044 4.6295 21.1627 4.69014 21.2037C4.75079 21.2448 4.82233 21.2667 4.89556 21.2667H5.86576C5.92569 21.2667 5.98471 21.252 6.03764 21.2239C6.09057 21.1958 6.13581 21.1551 6.16939 21.1055C6.20296 21.0559 6.22386 20.9987 6.23025 20.9391C6.23664 20.8795 6.22832 20.8193 6.20602 20.7637L5.23326 18.3334H3.47326L4.55529 21.0365ZM2.93242 17.6001H5.13242V13.2001H2.93242C2.34895 13.2001 1.78937 13.4319 1.37679 13.8444C0.964207 14.257 0.732422 14.8166 0.732422 15.4001C0.732422 15.9835 0.964207 16.5431 1.37679 16.9557C1.78937 17.3683 2.34895 17.6001 2.93242 17.6001ZM12.4658 15.4001C12.4648 15.1734 12.3939 14.9525 12.2626 14.7677C12.1313 14.5829 11.9462 14.4431 11.7324 14.3675V16.4326C11.9462 16.357 12.1313 16.2173 12.2626 16.0325C12.3939 15.8476 12.4648 15.6268 12.4658 15.4001Z" fill="#FF8C00"/>
</svg>
