<svg width="22" height="18" viewBox="0 0 22 18" fill="none" xmlns="http://www.w3.org/2000/svg">
<path d="M8.37891 8.35547C8.73426 8.35547 9.02344 8.64465 9.02344 9C9.02344 9.35535 8.73426 9.64453 8.37891 9.64453C8.02355 9.64453 7.73438 9.35535 7.73438 9C7.73438 8.64465 8.02355 8.35547 8.37891 8.35547Z" fill="white"/>
<path d="M9.02344 5.8418V7.17727C8.81652 7.10368 8.59851 7.06619 8.37891 7.06641C7.31285 7.06641 6.44531 7.93395 6.44531 9C6.44531 10.0661 7.31285 10.9336 8.37891 10.9336C8.60492 10.9336 8.82191 10.8945 9.02344 10.8227V12.1582C8.81246 12.2012 8.59676 12.2227 8.37891 12.2227C6.60215 12.2227 5.15625 10.7768 5.15625 9C5.15625 7.22324 6.60215 5.77734 8.37891 5.77734C8.59676 5.77734 8.81246 5.79883 9.02344 5.8418Z" fill="white"/>
<path d="M3.86719 9C3.86719 11.4879 5.89102 13.5117 8.37891 13.5117C8.5959 13.5117 8.81117 13.4967 9.02344 13.4657V17.3789H7.08984C6.73406 17.3789 6.44531 17.0902 6.44531 16.7344V15.8217C5.91809 15.6718 5.40977 15.4595 4.92551 15.1875L4.27711 15.8363C4.02531 16.0881 3.61754 16.0881 3.36574 15.8363L1.54258 14.0132C1.2907 13.7613 1.29168 13.3527 1.54258 13.1018L2.19141 12.453C1.92088 11.9733 1.708 11.4633 1.55719 10.9336H0.644531C0.28875 10.9336 0 10.6448 0 10.2891V7.71094C0 7.35516 0.28875 7.06641 0.644531 7.06641H1.55719C1.70715 6.53918 1.91898 6.03086 2.19141 5.5466L1.54258 4.8982C1.29168 4.64731 1.2907 4.23872 1.54258 3.98684L3.36574 2.16367C3.61754 1.91188 4.02531 1.91188 4.27711 2.16367L4.92594 2.8125C5.40564 2.54197 5.91564 2.32909 6.44531 2.17828V1.26562C6.44531 0.909844 6.73406 0.621094 7.08984 0.621094H9.02344V4.53426C8.81117 4.50332 8.5959 4.48828 8.37891 4.48828C5.89102 4.48828 3.86719 6.51211 3.86719 9ZM18.1328 0.998359V4.48828H21.6227L18.1328 0.998359ZM12.2461 4.48828H14.9102C15.2659 4.48828 15.5547 4.77703 15.5547 5.13281C15.5547 5.48859 15.2659 5.77734 14.9102 5.77734H12.2461C11.8903 5.77734 11.6016 5.48859 11.6016 5.13281C11.6016 4.77703 11.8903 4.48828 12.2461 4.48828ZM18.7773 13.5117H12.2461C11.8903 13.5117 11.6016 13.223 11.6016 12.8672C11.6016 12.5114 11.8903 12.2227 12.2461 12.2227H18.7773C19.1331 12.2227 19.4219 12.5114 19.4219 12.8672C19.4219 13.223 19.1331 13.5117 18.7773 13.5117ZM18.7773 10.9336H12.2461C11.8903 10.9336 11.6016 10.6448 11.6016 10.2891C11.6016 9.93328 11.8903 9.64453 12.2461 9.64453H18.7773C19.1331 9.64453 19.4219 9.93328 19.4219 10.2891C19.4219 10.6448 19.1331 10.9336 18.7773 10.9336ZM18.7773 8.35547H12.2461C11.8903 8.35547 11.6016 8.06672 11.6016 7.71094C11.6016 7.35516 11.8903 7.06641 12.2461 7.06641H18.7773C19.1331 7.06641 19.4219 7.35516 19.4219 7.71094C19.4219 8.06672 19.1331 8.35547 18.7773 8.35547ZM17.4883 5.77734C17.1325 5.77734 16.8438 5.48859 16.8438 5.13281V0.621094H10.3125V17.3789H21.3555C21.7113 17.3789 22 17.0902 22 16.7344V5.77734H17.4883Z" fill="white"/>
</svg>
