<svg width="22" height="22" viewBox="0 0 22 22" fill="none" xmlns="http://www.w3.org/2000/svg">
<path d="M21.9652 0.471969C21.8885 0.201652 21.6505 0 21.3554 0H18.7773C18.4211 0 18.1328 0.288277 18.1328 0.644531C18.1328 1.00079 18.4211 1.28906 18.7773 1.28906H20.2847L17.2067 4.76429C13.0569 9.45854 6.95004 11.9397 0.699846 11.3966C0.356827 11.3607 0.0332721 11.6282 0.00246354 11.9832C-0.028388 12.3375 0.234108 12.6497 0.589073 12.6806C1.19205 12.7328 1.70085 12.7586 2.30198 12.7586C8.32495 12.7586 14.1534 10.1634 18.1723 5.61773L20.7109 2.75258V3.22266C20.7109 3.57891 20.9992 3.86719 21.3554 3.86719C21.7117 3.86719 22 3.57891 22 3.22266V1.28055L21.9652 0.471969Z" fill="#FF8C00"/>
<path d="M21.3555 20.7109H20.668V6.22014C20.668 5.94948 20.4987 5.70779 20.2444 5.61463C19.9907 5.52336 19.7056 5.59761 19.5306 5.80472L19.1347 6.27489C18.4801 7.05159 17.767 7.78992 17.0142 8.4678C16.947 8.5282 16.8933 8.60206 16.8565 8.68458C16.8197 8.7671 16.8008 8.85643 16.8008 8.94677V20.7109H15.5117V10.9578C15.5116 10.841 15.4799 10.7264 15.4198 10.6262C15.3597 10.526 15.2736 10.444 15.1706 10.3888C14.961 10.2781 14.7048 10.2894 14.5078 10.4228C13.704 10.9624 12.8667 11.4502 12.0008 11.8831C11.8937 11.9366 11.8036 12.0189 11.7407 12.1207C11.6778 12.2226 11.6445 12.3399 11.6445 12.4596V20.7109H10.3555V13.5586C10.3554 13.4553 10.3306 13.3536 10.2831 13.2619C10.2356 13.1702 10.1667 13.0913 10.0823 13.0318C9.91173 12.9115 9.69143 12.8826 9.49442 12.9518C8.67354 13.2444 7.83648 13.4895 6.98741 13.6858C6.84549 13.7187 6.71891 13.7987 6.62828 13.9128C6.53765 14.0268 6.4883 14.1682 6.48828 14.3139V20.7109H5.19922V14.7583C5.19918 14.6675 5.17998 14.5778 5.14288 14.4949C5.10579 14.412 5.05163 14.3379 4.98395 14.2774C4.8461 14.1553 4.65914 14.093 4.48168 14.1182C3.64978 14.2129 2.81323 14.261 1.97596 14.2623C1.62035 14.263 1.33207 14.5512 1.33207 14.9068V20.7109H0.644531C0.288277 20.7109 0 20.9992 0 21.3555C0 21.7117 0.288277 22 0.644531 22H21.3555C21.7117 22 22 21.7117 22 21.3555C22 20.9992 21.7117 20.7109 21.3555 20.7109Z" fill="#FF8C00"/>
</svg>
