<svg width="40" height="41" viewBox="0 0 40 41" fill="none" xmlns="http://www.w3.org/2000/svg">
<path d="M33.8788 0.991211H5.14361C2.30188 0.991211 0 3.29583 0 6.13482V34.8727C0 37.7145 2.30188 40.0164 5.14361 40.0164H33.8788C36.7205 40.0164 39.0224 37.7145 39.0224 34.8727V6.13482C39.0224 3.29583 36.7205 0.991211 33.8788 0.991211ZM24.0848 31.0527C24.0848 33.6259 21.9994 35.7113 19.4263 35.7113C16.8531 35.7113 14.7677 33.6259 14.7677 31.0527V20.6477L7.36603 13.246C5.54645 11.4264 5.54645 8.47507 7.36603 6.65823C9.18287 4.83865 12.1342 4.83865 13.9538 6.65823L24.0848 16.7893V31.0527ZM28.5022 13.9777C26.0688 13.9777 24.0985 12.0046 24.0985 9.57121C24.0985 7.13779 26.0688 5.16749 28.5022 5.16749C30.9357 5.16749 32.9087 7.13779 32.9087 9.57121C32.9087 12.0046 30.9357 13.9777 28.5022 13.9777Z" fill="white"/>
<circle cx="28.5052" cy="9.54913" r="4.41827" fill="#FF8C00"/>
<g clip-path="url(#clip0_1102_18493)">
<path d="M30.1185 9.96973C30.1087 9.96973 30.0988 9.96973 30.0889 9.96973C30.0988 9.97113 30.1088 9.97179 30.1189 9.97171C30.1187 9.97131 30.1186 9.97052 30.1185 9.96973Z" fill="white"/>
<path d="M31.2468 8.54928C31.1636 8.4876 31.0683 8.47094 30.9686 8.48513C30.8307 8.50479 30.7692 8.5782 30.7643 8.71885C30.7643 8.72656 30.7607 8.73874 30.7554 8.74113C30.728 8.75324 30.6994 8.7628 30.6706 8.77367C30.6564 8.72687 30.6458 8.68461 30.631 8.6439C30.5598 8.44866 30.4607 8.26745 30.3486 8.09318C30.2601 7.95569 30.1655 7.82329 30.0444 7.71141C29.9904 7.66175 29.9296 7.62404 29.8552 7.6151C29.7291 7.59968 29.6031 7.57793 29.4765 7.57377C29.0901 7.56081 28.7034 7.54986 28.3168 7.54801C27.9544 7.54632 27.592 7.55765 27.232 7.60199C27.1346 7.61386 27.0405 7.63607 26.9712 7.71118C26.8973 7.79129 26.8213 7.87072 26.7582 7.95901C26.582 8.20576 26.4285 8.46469 26.348 8.76095C26.3459 8.76549 26.343 8.7697 26.3396 8.77344C26.3215 8.76565 26.3029 8.75896 26.284 8.75339C26.2553 8.74661 26.2473 8.73227 26.2488 8.70189C26.2533 8.61205 26.2029 8.53687 26.1167 8.50487C26.0027 8.46261 25.8907 8.47403 25.7872 8.53571C25.6531 8.61606 25.6561 8.78416 25.793 8.86073C25.902 8.92173 26.0166 8.93059 26.134 8.8824C26.1474 8.87756 26.1621 8.87791 26.1753 8.8834C26.1995 8.89443 26.2216 8.91047 26.2472 8.92612C26.2375 8.94077 26.2293 8.95349 26.2209 8.96606C26.1345 9.09515 26.0456 9.22276 25.9624 9.35385C25.8998 9.4517 25.8618 9.56328 25.8518 9.67902C25.8315 9.90719 25.8178 10.1357 25.832 10.3642C25.8406 10.5021 25.8545 10.6418 25.886 10.7757C25.9284 10.9567 26.0381 11.0873 26.2313 11.1227C26.3121 11.1377 26.394 11.1455 26.4762 11.1458C27.7702 11.1473 29.0642 11.1475 30.3581 11.1463C30.4815 11.1463 30.6049 11.1443 30.7274 11.1322C30.9015 11.1147 31.0333 11.0285 31.0976 10.8603C31.1255 10.7886 31.1457 10.7141 31.1576 10.6381C31.2006 10.3467 31.1857 10.0542 31.1706 9.76122C31.1608 9.57169 31.0959 9.40652 30.9909 9.25276C30.938 9.17565 30.8845 9.09854 30.8314 9.02143L30.7658 8.9262C30.7821 8.9173 30.7978 8.90746 30.8129 8.89674C30.8405 8.87446 30.8652 8.876 30.8997 8.88834C31.0266 8.93352 31.1494 8.91918 31.2562 8.83436C31.352 8.75872 31.3452 8.62192 31.2468 8.54928ZM26.969 9.96996C26.9421 9.97111 26.915 9.96996 26.8882 9.96996C26.7633 9.97165 26.6394 9.94804 26.5239 9.90056C26.4336 9.86385 26.3425 9.82908 26.2524 9.79207C26.1334 9.74333 26.075 9.63646 26.1016 9.52218C26.116 9.46049 26.1508 9.42387 26.2152 9.41423C26.3324 9.3959 26.4523 9.40649 26.5645 9.44507C26.7041 9.49218 26.8385 9.55248 26.9359 9.668C26.9807 9.72112 27.0164 9.78366 27.0479 9.84612C27.0813 9.91267 27.0437 9.96695 26.969 9.96996ZM26.6672 8.70412C26.5697 8.69525 26.5532 8.66557 26.5901 8.57388C26.6192 8.50155 26.6518 8.42876 26.6942 8.36391C26.7944 8.2117 26.901 8.06395 27.0056 7.91482C27.075 7.81551 27.1753 7.77279 27.2923 7.75505C27.5776 7.71195 27.865 7.69668 28.1526 7.69622C28.5327 7.6956 28.913 7.70208 29.2929 7.7128C29.4697 7.71773 29.6467 7.73346 29.8195 7.77788C29.8711 7.78999 29.9178 7.81747 29.9535 7.85668C30.139 8.06166 30.2933 8.29292 30.4114 8.54296C30.4207 8.56406 30.4282 8.58597 30.4336 8.60843C30.4484 8.66487 30.4379 8.68731 30.3814 8.69664C30.298 8.71037 30.2136 8.72448 30.1294 8.72617C29.5888 8.73682 29.0481 8.74414 28.5074 8.75262C28.5074 8.74877 28.5074 8.74491 28.5074 8.74106C28.0694 8.74106 27.6312 8.74437 27.1932 8.73944C27.0178 8.73759 26.8422 8.72001 26.6672 8.70412ZM29.5495 10.067C29.5017 10.0819 29.4521 10.0897 29.4021 10.0902C28.8057 10.0917 28.2097 10.092 27.6138 10.091C27.5328 10.091 27.455 10.0765 27.3868 10.0293C27.3043 9.97243 27.2696 9.89262 27.2779 9.79353C27.2813 9.75328 27.3027 9.7249 27.3412 9.71526C27.3783 9.70529 27.4165 9.69978 27.4549 9.69884C27.8056 9.69753 28.1566 9.69807 28.507 9.69807C28.859 9.69807 29.211 9.69822 29.5629 9.69853C29.5925 9.69895 29.6219 9.70252 29.6507 9.70917C29.7119 9.72267 29.7346 9.75189 29.7369 9.81427C29.7411 9.92894 29.6693 10.0304 29.5495 10.067ZM30.7733 9.41083C30.9 9.43212 30.9628 9.55888 30.8951 9.66985C30.8682 9.71388 30.8274 9.75929 30.7819 9.78019L30.7692 9.7859L30.7518 9.79361L30.7352 9.80132C30.3788 9.95808 30.1871 9.97358 30.1189 9.9725C30.1091 9.97258 30.0993 9.97194 30.0896 9.97057C30.0722 9.97057 30.0549 9.97111 30.0376 9.96988C29.9692 9.96502 29.9358 9.91413 29.962 9.85129C30.016 9.72074 30.1021 9.61764 30.2266 9.54593C30.3846 9.45502 30.5505 9.39757 30.7351 9.40713C30.7479 9.40763 30.7606 9.40886 30.7733 9.41083Z" fill="white"/>
<path d="M26.6215 11.1758C26.6215 11.2732 26.6249 11.3681 26.6201 11.4625C26.6176 11.5109 26.5706 11.5483 26.5209 11.5488C26.3488 11.5501 26.1765 11.5501 26.0043 11.5488C25.9434 11.5482 25.8993 11.4989 25.899 11.4331C25.8978 11.2597 25.899 11.0865 25.899 10.9082C25.9054 10.9136 25.91 10.9159 25.9118 10.9192C25.9926 11.0792 26.1341 11.1451 26.302 11.1627C26.3962 11.1725 26.4918 11.1704 26.5867 11.1733C26.5977 11.174 26.6089 11.175 26.6215 11.1758Z" fill="white"/>
<path d="M31.1121 10.9174V10.9849C31.1121 11.1288 31.1126 11.2726 31.1121 11.4167C31.1121 11.5099 31.0708 11.5503 30.978 11.5504C30.8238 11.5504 30.6696 11.5504 30.5153 11.5504C30.4294 11.5504 30.387 11.5085 30.3867 11.4233C30.3867 11.3462 30.3867 11.2691 30.3867 11.192C30.3874 11.1868 30.3883 11.1817 30.3896 11.1766L30.4372 11.1744C30.5384 11.1696 30.6403 11.171 30.7406 11.1586C30.8993 11.1388 31.0278 11.066 31.1017 10.915L31.1121 10.9174Z" fill="white"/>
</g>
<defs>
<clipPath id="clip0_1102_18493">
<rect width="5.63635" height="4.00239" fill="white" transform="translate(25.6875 7.54785)"/>
</clipPath>
</defs>
</svg>
