<svg width="105" height="23" viewBox="0 0 105 23" fill="none" xmlns="http://www.w3.org/2000/svg">
<path fill-rule="evenodd" clip-rule="evenodd" d="M33.7741 1.45312C34.3204 1.45312 34.7631 1.89591 34.7631 2.44212V9.62713C34.7631 12.0853 36.756 14.0801 39.2161 14.0801C41.6742 14.0801 43.669 12.0872 43.669 9.62713V2.44212C43.669 1.89591 44.1118 1.45312 44.658 1.45312C45.2042 1.45312 45.647 1.89591 45.647 2.44212V9.62713C45.647 13.1802 42.766 16.0581 39.2161 16.0581C35.663 16.0581 32.7852 13.1771 32.7852 9.62713V2.44212C32.7852 1.89591 33.2279 1.45312 33.7741 1.45312Z" fill="white"/>
<path fill-rule="evenodd" clip-rule="evenodd" d="M44.655 1.45312C45.2012 1.45312 45.644 1.89591 45.644 2.44212V9.62713C45.644 12.0853 47.6369 14.0801 50.0969 14.0801C52.5551 14.0801 54.5499 12.0872 54.5499 9.62713V2.44212C54.5499 1.89591 54.9927 1.45312 55.5389 1.45312C56.0851 1.45312 56.5278 1.89591 56.5278 2.44212V9.62713C56.5278 13.1802 53.6469 16.0581 50.0969 16.0581C46.5439 16.0581 43.666 13.1771 43.666 9.62713V2.44212C43.666 1.89591 44.1088 1.45312 44.655 1.45312Z" fill="white"/>
<path fill-rule="evenodd" clip-rule="evenodd" d="M28.7878 7.68652C29.334 7.68652 29.7768 8.12931 29.7768 8.67551V14.4858C29.7768 15.032 29.334 15.4748 28.7878 15.4748C28.2416 15.4748 27.7988 15.032 27.7988 14.4858V8.67551C27.7988 8.12931 28.2416 7.68652 28.7878 7.68652Z" fill="white"/>
<path fill-rule="evenodd" clip-rule="evenodd" d="M17.906 1.45312C18.4522 1.45312 18.895 1.89591 18.895 2.44212V9.62713C18.895 12.0853 20.8879 14.0801 23.3479 14.0801C25.8061 14.0801 27.8008 12.0872 27.8008 9.62713V2.44212C27.8008 1.89591 28.2436 1.45312 28.7898 1.45312C29.336 1.45312 29.7788 1.89591 29.7788 2.44212V9.62713C29.7788 13.1802 26.8979 16.0581 23.3479 16.0581C19.7949 16.0581 16.917 13.1771 16.917 9.62713V2.44212C16.917 1.89591 17.3598 1.45312 17.906 1.45312Z" fill="white"/>
<path fill-rule="evenodd" clip-rule="evenodd" d="M92.1472 1.73438C92.6934 1.73438 93.1362 2.17716 93.1362 2.72337V8.53122C93.1362 9.07743 92.6934 9.52021 92.1472 9.52021C91.601 9.52021 91.1582 9.07743 91.1582 8.53122V2.72337C91.1582 2.17716 91.601 1.73438 92.1472 1.73438Z" fill="white"/>
<path fill-rule="evenodd" clip-rule="evenodd" d="M91.1582 7.58228C91.1582 4.02926 94.0391 1.15137 97.5891 1.15137C101.142 1.15137 104.02 4.03231 104.02 7.58228V14.7673C104.02 15.3135 103.577 15.7563 103.031 15.7563C102.485 15.7563 102.042 15.3135 102.042 14.7673V7.58228C102.042 5.12414 100.049 3.12935 97.5891 3.12935C95.131 3.12935 93.1362 5.12225 93.1362 7.58228V14.7673C93.1362 15.3135 92.6934 15.7563 92.1472 15.7563C91.601 15.7563 91.1582 15.3135 91.1582 14.7673V7.58228Z" fill="white"/>
<path d="M13.8735 2.40012V15.5438C13.8735 18.5281 11.8585 21.1316 8.97062 21.8734C8.49838 21.997 8.00141 22.0563 7.48219 22.0563C6.98769 22.0563 6.47342 22.0019 5.9443 21.8907C3.78583 21.4382 2.09466 20.2959 0.920232 18.496C0.621063 18.0385 0.749632 17.4254 1.20704 17.1262C1.66445 16.827 2.27762 16.9556 2.57679 17.413C3.46688 18.7778 4.70065 19.6086 6.34979 19.9547C7.13357 20.1179 7.85059 20.1204 8.47612 19.9597C10.4912 19.4404 11.8956 17.6256 11.8956 15.5438V13.7587C10.7409 14.8317 9.17089 15.4944 7.44263 15.4944C3.8971 15.4944 1.01419 12.7104 1.01419 9.29092V2.40012C1.01419 1.85371 1.45676 1.41113 2.00318 1.41113C2.5496 1.41113 2.99217 1.85371 2.99217 2.40012V9.29092C2.99217 11.62 4.98746 13.5164 7.44263 13.5164C9.8978 13.5164 11.8956 11.62 11.8956 9.29092V2.40012C11.8956 1.85371 12.3381 1.41113 12.8846 1.41113C13.431 1.41113 13.8735 1.85371 13.8735 2.40012Z" fill="white"/>
<path fill-rule="evenodd" clip-rule="evenodd" d="M60.8507 9.18205H72.3281C72.6001 9.18205 72.8601 9.07001 73.047 8.8723C73.2338 8.67459 73.3309 8.40866 73.3155 8.13708C73.0913 4.18276 69.9912 0.951172 66.0876 0.951172C62.0293 0.951172 58.8457 4.43562 58.8457 8.60102C58.8457 12.7664 62.0293 16.2509 66.0876 16.2509C69.1567 16.2509 71.7336 14.2451 72.7986 11.4782C72.9949 10.9685 72.7407 10.3962 72.2309 10.2C71.7212 10.0038 71.1489 10.2579 70.9527 10.7677C70.1485 12.8568 68.2502 14.2729 66.0876 14.2729C63.4131 14.2729 61.1225 12.0895 60.8507 9.18205ZM66.0876 2.92915C63.6699 2.92915 61.5658 4.7135 60.9833 7.20407H71.1906C70.6073 4.71226 68.5039 2.92915 66.0876 2.92915Z" fill="white"/>
<path fill-rule="evenodd" clip-rule="evenodd" d="M76.7032 9.18205H88.1807C88.4527 9.18205 88.7127 9.07001 88.8995 8.8723C89.0863 8.67459 89.1835 8.40866 89.1681 8.13708C88.9439 4.18276 85.8438 0.951172 81.9401 0.951172C77.8819 0.951172 74.6982 4.43562 74.6982 8.60102C74.6982 12.7664 77.8819 16.2509 81.9401 16.2509C85.0093 16.2509 87.5861 14.2451 88.6512 11.4782C88.8474 10.9685 88.5932 10.3962 88.0835 10.2C87.5737 10.0038 87.0014 10.2579 86.8052 10.7677C86.0011 12.8568 84.1027 14.2729 81.9401 14.2729C79.2657 14.2729 76.9751 12.0895 76.7032 9.18205ZM81.9401 2.92915C79.5224 2.92915 77.4183 4.7135 76.8358 7.20407H87.0431C86.4598 4.71226 84.3564 2.92915 81.9401 2.92915Z" fill="white"/>
</svg>
