<svg width="47" height="48" viewBox="0 0 47 48" fill="none" xmlns="http://www.w3.org/2000/svg">
<rect y="0.82373" width="47" height="47" rx="8.35555" fill="#FFF8EF"/>
<path d="M24.8928 20.3203C25.5853 20.3203 26.2495 20.5954 26.7392 21.0851C27.2288 21.5748 27.5039 22.2389 27.5039 22.9314C27.5039 23.1623 27.5956 23.3837 27.7589 23.5469C27.9221 23.7101 28.1435 23.8018 28.3743 23.8018C28.6051 23.8018 28.8265 23.7101 28.9898 23.5469C29.153 23.3837 29.2447 23.1623 29.2447 22.9314C29.2447 21.7773 28.7862 20.6703 27.9701 19.8542C27.1539 19.0381 26.047 18.5796 24.8928 18.5796C24.662 18.5796 24.4406 18.6713 24.2774 18.8345C24.1142 18.9977 24.0225 19.2191 24.0225 19.45C24.0225 19.6808 24.1142 19.9022 24.2774 20.0654C24.4406 20.2286 24.662 20.3203 24.8928 20.3203Z" fill="#FF8C00"/>
<path d="M24.8924 16.8379C26.5083 16.8379 28.058 17.4798 29.2005 18.6224C30.3431 19.765 30.985 21.3146 30.985 22.9305C30.985 23.1613 31.0767 23.3827 31.2399 23.5459C31.4032 23.7092 31.6245 23.8009 31.8554 23.8009C32.0862 23.8009 32.3076 23.7092 32.4708 23.5459C32.6341 23.3827 32.7257 23.1613 32.7257 22.9305C32.7257 20.853 31.9005 18.8605 30.4314 17.3915C28.9624 15.9225 26.97 15.0972 24.8924 15.0972C24.6616 15.0972 24.4402 15.1889 24.277 15.3521C24.1138 15.5153 24.0221 15.7367 24.0221 15.9675C24.0221 16.1984 24.1138 16.4198 24.277 16.583C24.4402 16.7462 24.6616 16.8379 24.8924 16.8379ZM32.5082 27.204C32.4603 27.0643 32.3776 26.939 32.268 26.8401C32.1584 26.7411 32.0254 26.6716 31.8815 26.6383L26.6593 25.4459C26.5175 25.4137 26.37 25.4176 26.2301 25.4571C26.0902 25.4966 25.9625 25.5706 25.8585 25.6722C25.7367 25.7853 25.728 25.794 25.1622 26.8733C23.285 26.0083 21.7808 24.4979 20.9235 22.6172C22.0289 22.0601 22.0376 22.0601 22.1508 21.9296C22.2523 21.8256 22.3263 21.6979 22.3658 21.558C22.4053 21.4181 22.4092 21.2706 22.3771 21.1288L21.1846 15.9675C21.1513 15.8237 21.0818 15.6906 20.9829 15.581C20.8839 15.4714 20.7586 15.3887 20.6189 15.3409C20.4156 15.2683 20.2058 15.2158 19.9922 15.1842C19.7723 15.1332 19.5478 15.104 19.3221 15.0972C18.2602 15.0972 17.2419 15.519 16.491 16.2698C15.7402 17.0207 15.3184 18.039 15.3184 19.1009C15.323 22.6543 16.7366 26.0609 19.2493 28.5736C21.762 31.0863 25.1686 32.5 28.722 32.5046C29.2478 32.5046 29.7684 32.401 30.2542 32.1998C30.74 31.9986 31.1813 31.7037 31.5531 31.3319C31.9249 30.9601 32.2198 30.5188 32.421 30.033C32.6222 29.5473 32.7257 29.0266 32.7257 28.5009C32.726 28.2793 32.7086 28.0581 32.6735 27.8394C32.6369 27.6232 32.5816 27.4106 32.5082 27.204Z" fill="#FF8C00"/>
</svg>
