<svg width="21" height="16" viewBox="0 0 21 16" fill="none" xmlns="http://www.w3.org/2000/svg">
<path d="M4.96983 9.08083C5.18288 8.90644 5.5036 8.92984 5.68648 9.13302C5.86917 9.33638 5.84466 9.64265 5.63162 9.81726L0.86502 13.7263C1.22268 14.4 1.76903 14.9658 2.44306 15.3614C3.11708 15.757 3.89271 15.9666 4.68402 15.9671H16.1128C16.9071 15.967 17.6858 15.756 18.3619 15.3579C19.038 14.9599 19.5847 14.3903 19.9414 13.7127L14.3176 9.11266L13.7033 9.46269C12.806 9.98006 11.7777 10.2534 10.7295 10.2534C9.68128 10.2534 8.65279 9.98008 7.75554 9.46269L0.398438 5.24902V11.8763C0.398626 12.1666 0.430489 12.4561 0.493651 12.7399L4.96983 9.08083Z" fill="#FF8C00"/>
<path d="M16.1138 0.512695H4.68505C3.68431 0.514135 2.71538 0.849227 1.94598 1.46C1.17639 2.07099 0.654691 2.91915 0.470703 3.8582L8.41857 8.4127C9.11731 8.81419 9.91745 9.02636 10.7328 9.02636C11.5484 9.02636 12.3486 8.81418 13.0473 8.4127L13.4093 8.20358L14.2142 7.7445L20.3762 4.21272H20.376C20.2742 3.20078 19.7814 2.26122 18.9935 1.57716C18.2056 0.893289 17.1792 0.513759 16.1142 0.5127L16.1138 0.512695Z" fill="#FF8C00"/>
<path d="M20.308 12.7261C20.3672 12.4462 20.3976 12.1615 20.3983 11.8759V5.62598L15.2363 8.58044L20.308 12.7261Z" fill="#FF8C00"/>
</svg>
