<svg width="40" height="41" viewBox="0 0 40 41" fill="none" xmlns="http://www.w3.org/2000/svg">
<path d="M20.0654 9.43652C21.5028 9.43652 22.8813 10.0075 23.8977 11.0239C24.9142 12.0404 25.4852 13.4189 25.4852 14.8563C25.4852 16.2938 24.9142 17.6723 23.8977 18.6887C22.8813 19.7051 21.5028 20.2761 20.0654 20.2761C18.6279 20.2761 17.2494 19.7051 16.233 18.6887C15.2166 17.6723 14.6455 16.2938 14.6455 14.8563C14.6455 13.4189 15.2166 12.0404 16.233 11.0239C17.2494 10.0075 18.6279 9.43652 20.0654 9.43652ZM10 28.2651C10 25.0597 14.5062 22.4581 20.0654 22.4581C25.6245 22.4581 30.1307 25.0597 30.1307 28.2651V30.975H10V28.2651Z" fill="#FF8C00"/>
</svg>
