<svg width="24" height="24" viewBox="0 0 24 24" fill="none" xmlns="http://www.w3.org/2000/svg">
<path d="M16.562 3.39657L7.53199 6.39657C1.46199 8.42657 1.46199 11.7366 7.53199 13.7566L10.212 14.6466L11.102 17.3266C13.122 23.3966 16.442 23.3966 18.462 17.3266L21.472 8.30657C22.812 4.25657 20.612 2.04657 16.562 3.39657ZM16.882 8.77657L13.082 12.5966C12.932 12.7466 12.742 12.8166 12.552 12.8166C12.362 12.8166 12.172 12.7466 12.022 12.5966C11.8825 12.4554 11.8043 12.265 11.8043 12.0666C11.8043 11.8681 11.8825 11.6777 12.022 11.5366L15.822 7.71657C16.112 7.42657 16.592 7.42657 16.882 7.71657C17.172 8.00657 17.172 8.48657 16.882 8.77657Z" fill="#555555"/>
</svg>
