<svg width="30" height="22" viewBox="0 0 30 22" fill="none" xmlns="http://www.w3.org/2000/svg">
<g clip-path="url(#clip0_995_31448)">
<path d="M23.4939 13.2402C23.4428 13.2402 23.3913 13.2402 23.3398 13.2402C23.3916 13.2475 23.4438 13.251 23.496 13.2505C23.4952 13.2485 23.4947 13.2444 23.4939 13.2402Z" fill="#3459AB"/>
<path d="M8.15413 14.4128H0.544053C0.0553265 14.4128 0.0351562 14.392 0.0351562 13.8922C0.0351562 10.4015 0.0351562 6.91099 0.0351562 3.42071C0.0351562 2.6053 0.436677 2.20312 1.25209 2.20312H15.2032C15.9484 2.20312 16.3271 2.57862 16.3278 3.31854C16.3278 6.8418 16.3278 10.3648 16.3278 13.8877C16.3278 14.3432 16.2542 14.4122 15.7961 14.4122L8.15413 14.4128Z" fill="#3459AB"/>
<path d="M29.2045 15.5726C29.3568 15.5817 29.4537 15.5862 29.5507 15.594C29.8325 15.6162 29.99 15.7652 29.9939 16.0496C29.9991 16.4186 30.0036 16.7875 29.9939 17.1559C29.9841 17.4643 29.8117 17.6524 29.5091 17.657C28.762 17.6687 28.0123 17.6609 27.2398 17.6609C27.0225 16.4739 26.4472 15.5316 25.4112 14.9023C24.7682 14.5097 24.0211 14.3216 23.2689 14.3628C21.8131 14.4279 20.1152 15.3956 19.6786 17.6381H10.2646C10.1188 16.9223 9.85914 16.2389 9.29688 15.6071H17.6358C17.6449 15.419 17.6566 15.2817 17.6566 15.1457C17.6601 11.838 17.6627 8.53018 17.6644 5.22211C17.6644 4.67416 17.8688 4.35919 18.3152 4.21927C18.429 4.18582 18.5474 4.17067 18.666 4.17437C20.705 4.21342 22.7441 4.2568 24.7832 4.30453C25.0182 4.30572 25.2495 4.36311 25.4578 4.4719C25.6661 4.58069 25.8454 4.73773 25.9806 4.92991C26.8474 6.12277 27.711 7.31758 28.5576 8.5241C29.0197 9.18268 29.2084 9.93822 29.2084 10.7367C29.2143 12.2114 29.2084 13.6866 29.2084 15.1619L29.2045 15.5726ZM22.9916 9.32519C24.107 9.32519 25.2225 9.3252 26.3385 9.32129C26.4466 9.32129 26.5546 9.26662 26.6639 9.23734C26.6327 9.12996 26.6268 9.00632 26.5676 8.91782C26.006 8.08288 25.4294 7.25706 24.8704 6.42017C24.783 6.27558 24.6584 6.15705 24.5096 6.07694C24.3608 5.99682 24.1933 5.95804 24.0244 5.96464C22.6493 5.96464 21.2736 5.96464 19.8979 5.96464C19.4163 5.96464 19.2361 6.15336 19.2334 6.63948C19.2295 7.37702 19.2295 8.11455 19.2334 8.85209C19.2334 9.25882 19.2985 9.32194 19.7092 9.32259C20.8037 9.32476 21.8979 9.32498 22.9916 9.32325V9.32519ZM19.974 10.4966C20.1692 10.5073 20.3649 10.5045 20.5597 10.4881C20.645 10.4764 20.7172 10.3736 20.7953 10.3118C20.7257 10.2278 20.6606 10.0762 20.5857 10.0716C20.1976 10.0472 19.8083 10.0472 19.4202 10.0716C19.3428 10.0762 19.2738 10.2226 19.2016 10.3039C19.2868 10.369 19.3656 10.4731 19.4619 10.4907C19.6239 10.5194 19.8009 10.4972 19.974 10.4972V10.4966Z" fill="#3459AB"/>
<path d="M6.4663 21.1277C4.83938 21.1212 3.48253 19.7565 3.4962 18.1342C3.50986 16.5118 4.87061 15.1667 6.50339 15.1719C8.13617 15.1771 9.47935 16.5444 9.46829 18.1706C9.45869 18.9597 9.1379 19.7131 8.57572 20.2668C8.01353 20.8206 7.25542 21.13 6.4663 21.1277ZM7.72684 18.1765C7.73465 17.4606 7.20622 16.9081 6.49949 16.8984C6.33397 16.8954 6.16953 16.9256 6.01582 16.987C5.8621 17.0485 5.72223 17.1401 5.60438 17.2563C5.48654 17.3726 5.3931 17.5112 5.32957 17.6641C5.26604 17.817 5.23367 17.981 5.23439 18.1466C5.23138 18.3093 5.26051 18.471 5.32012 18.6224C5.37972 18.7738 5.46864 18.912 5.58176 19.029C5.69488 19.1459 5.82997 19.2394 5.97931 19.3041C6.12864 19.3688 6.28927 19.4033 6.45199 19.4058C6.61733 19.4124 6.78229 19.3854 6.93694 19.3266C7.09159 19.2677 7.23272 19.1781 7.35184 19.0633C7.47095 18.9484 7.56558 18.8106 7.63003 18.6582C7.69448 18.5058 7.72741 18.342 7.72684 18.1765Z" fill="#3459AB"/>
<path d="M26.435 18.1459C26.4352 18.9349 26.1223 19.6918 25.5652 20.2504C25.008 20.809 24.2519 21.1238 23.4629 21.1257C22.6738 21.1244 21.9172 20.8115 21.3576 20.2552C20.7979 19.6989 20.4806 18.9441 20.4746 18.155C20.48 17.366 20.7955 16.6108 21.3529 16.0523C21.9102 15.4938 22.6648 15.1769 23.4538 15.1699C24.2426 15.1732 24.9982 15.4876 25.5564 16.0448C26.1146 16.6021 26.4304 17.3571 26.435 18.1459ZM23.4649 19.4019C23.6301 19.4024 23.7938 19.3699 23.9463 19.3061C24.0987 19.2423 24.2369 19.1487 24.3525 19.0306C24.4681 18.9125 24.5589 18.7725 24.6195 18.6187C24.6801 18.465 24.7093 18.3007 24.7053 18.1355C24.7053 17.8075 24.575 17.493 24.3431 17.2612C24.1112 17.0293 23.7967 16.899 23.4688 16.899C23.1346 16.8971 22.8133 17.028 22.5756 17.2629C22.3379 17.4978 22.2032 17.8175 22.2011 18.1517C22.2013 18.3171 22.2343 18.4807 22.2981 18.6332C22.3618 18.7857 22.4551 18.9241 22.5726 19.0404C22.69 19.1568 22.8294 19.2487 22.9825 19.3109C23.1356 19.3732 23.2996 19.4045 23.4649 19.4032V19.4019Z" fill="#3459AB"/>
<path d="M2.70837 17.6591C1.95283 17.6591 1.21876 17.6702 0.485347 17.6526C0.424767 17.6544 0.364435 17.6442 0.307879 17.6224C0.251324 17.6006 0.199688 17.5677 0.155991 17.5257C0.112295 17.4837 0.0774161 17.4334 0.0534033 17.3778C0.0293905 17.3221 0.0167249 17.2623 0.0161462 17.2016C-0.00532911 16.8027 -0.00337458 16.4012 0.0102915 16.0016C0.0181007 15.7661 0.171031 15.6047 0.400752 15.6027C1.45825 15.591 2.51574 15.5975 3.6689 15.5975C3.16752 16.1848 2.83547 16.8975 2.70837 17.6591Z" fill="#3459AB"/>
</g>
<defs>
<clipPath id="clip0_995_31448">
<rect width="29.6943" height="21.086" fill="white" transform="translate(0.152344 0.480469)"/>
</clipPath>
</defs>
</svg>
