<svg width="82" height="68" viewBox="0 0 82 68" fill="none" xmlns="http://www.w3.org/2000/svg">
<g opacity="0.4">
<path d="M39.0485 51.7779C33.8733 55.3744 28.174 56.3445 21.9507 54.6881C15.7273 53.0316 11.3024 49.3669 8.67597 43.6939C6.04951 38.0208 5.68427 31.6699 7.58026 24.6411C9.4641 17.6574 12.9936 12.3673 18.1689 8.77076C23.3563 5.12918 29.0617 4.1366 35.285 5.79302C41.4632 7.43744 45.8656 11.0962 48.4921 16.7692C51.1636 22.4543 51.5514 28.8112 49.6554 35.84C47.7716 42.8237 44.2359 48.1363 39.0485 51.7779ZM18.1923 39.0555C19.3658 42.4102 21.5084 44.5016 24.62 45.3299C27.7317 46.1581 30.5888 45.4215 33.1913 43.1201C35.851 40.7857 37.7764 37.4108 38.9675 32.9952C40.1343 28.6698 40.1309 24.8298 38.9575 21.4751C37.7961 18.0754 35.6822 15.9674 32.6156 15.1512C29.5491 14.335 26.6859 15.0941 24.0262 17.4285C21.3786 19.7179 19.4592 23.0703 18.2682 27.4858C17.0892 31.8563 17.064 35.7129 18.1923 39.0555ZM58.6697 63.5921L68.6783 26.4883L59.8787 26.3192L60.0112 17.2275L74.7017 16.7913L81.8044 18.6818L68.9517 66.3288L58.6697 63.5921Z" fill="#FF8C00"/>
<path d="M39.0485 51.7779L39.6187 52.5974L39.6226 52.5947L39.0485 51.7779ZM8.67597 43.6939L7.76727 44.1152L8.67597 43.6939ZM18.1689 8.77076L18.7391 9.59028L18.743 9.58754L18.1689 8.77076ZM48.4921 16.7692L47.5833 17.1906L47.5857 17.1957L48.4921 16.7692ZM18.1923 39.0555L17.2438 39.3771L17.2474 39.3874L18.1923 39.0555ZM33.1913 43.1201L32.5317 42.3706L32.5289 42.373L33.1913 43.1201ZM38.9575 21.4751L38.0101 21.8001L38.0125 21.807L38.9575 21.4751ZM24.0262 17.4285L24.6802 18.183L24.6858 18.1781L24.0262 17.4285ZM38.4784 50.9584C33.5518 54.3821 28.1576 55.3053 22.2111 53.7226L21.6902 55.6536C28.1904 57.3837 34.1948 56.3668 39.6187 52.5974L38.4784 50.9584ZM22.2111 53.7226C16.2649 52.1399 12.0828 48.6683 9.58468 43.2725L7.76727 44.1152C10.5221 50.0655 15.1898 53.9234 21.6902 55.6536L22.2111 53.7226ZM9.58468 43.2725C7.07207 37.8454 6.70119 31.7396 8.54662 24.8983L6.61391 24.3839C4.66735 31.6002 5.02694 38.1962 7.76727 44.1152L9.58468 43.2725ZM8.54662 24.8983C10.3787 18.1066 13.7868 13.0318 18.7391 9.59027L17.5987 7.95126C12.2005 11.7028 8.54953 17.2082 6.61391 24.3839L8.54662 24.8983ZM18.743 9.58754C23.6827 6.11984 29.0815 5.17669 35.0246 6.75851L35.5454 4.82753C29.0418 3.09651 23.0299 4.13852 17.5948 7.95399L18.743 9.58754ZM35.0246 6.75851C40.9233 8.32853 45.0842 11.7926 47.5833 17.1906L49.4008 16.3479C46.647 10.3998 42.0032 6.54635 35.5454 4.82753L35.0246 6.75851ZM47.5857 17.1957C50.1415 22.6344 50.5337 28.7442 48.6891 35.5828L50.6218 36.0972C52.5691 28.8782 52.1857 22.2741 49.3984 16.3427L47.5857 17.1957ZM48.6891 35.5828C46.8571 42.3743 43.4423 47.4737 38.4744 50.9611L39.6226 52.5947C45.0296 48.799 48.6861 43.2731 50.6218 36.0972L48.6891 35.5828ZM17.2474 39.3874C18.5163 43.015 20.891 45.3721 24.3596 46.2953L24.8805 44.3644C22.1257 43.6312 20.2153 41.8054 19.1373 38.7237L17.2474 39.3874ZM24.3596 46.2953C27.8243 47.2175 31.0225 46.3708 33.8537 43.8672L32.5289 42.373C30.1551 44.4721 27.6391 45.0986 24.8805 44.3644L24.3596 46.2953ZM33.8509 43.8697C36.6973 41.3714 38.7064 37.803 39.9339 33.2525L38.0012 32.738C36.8465 37.0185 35.0047 40.2 32.5317 42.3706L33.8509 43.8697ZM39.9339 33.2525C41.1394 28.7832 41.1575 24.7313 39.9024 21.1433L38.0125 21.807C39.1043 24.9283 39.1291 28.5565 38.0012 32.738L39.9339 33.2525ZM39.9048 21.1502C38.6528 17.4849 36.3118 15.1002 32.8761 14.1857L32.3552 16.1167C35.0526 16.8347 36.9395 18.6659 38.0101 21.8001L39.9048 21.1502ZM32.8761 14.1857C29.4456 13.2727 26.2444 14.1531 23.3666 16.679L24.6858 18.1781C27.1274 16.0351 29.6526 15.3974 32.3552 16.1167L32.8761 14.1857ZM23.3722 16.6741C20.5327 19.1294 18.5291 22.679 17.3018 27.2286L19.2345 27.7431C20.3894 23.4617 22.2245 20.3064 24.6802 18.183L23.3722 16.6741ZM17.3018 27.2286C16.0858 31.7365 16.0368 35.8015 17.2438 39.3771L19.1409 38.734C18.0911 35.6242 18.0927 31.9761 19.2345 27.7431L17.3018 27.2286ZM58.6697 63.5921L57.7033 63.3349L57.4429 64.3003L58.4093 64.5576L58.6697 63.5921ZM68.6783 26.4883L69.6447 26.7455L69.9769 25.5138L68.7005 25.4893L68.6783 26.4883ZM59.8787 26.3192L58.878 26.3076L58.8636 27.2991L59.8566 27.3182L59.8787 26.3192ZM60.0112 17.2275L59.9843 16.2287L59.0244 16.2572L59.0104 17.2158L60.0112 17.2275ZM74.7017 16.7913L74.9621 15.8258L74.8209 15.7883L74.6748 15.7926L74.7017 16.7913ZM81.8044 18.6818L82.7707 18.939L83.0312 17.9735L82.0648 17.7163L81.8044 18.6818ZM68.9517 66.3288L68.6913 67.2943L69.6576 67.5515L69.9181 66.586L68.9517 66.3288ZM59.636 63.8493L69.6447 26.7455L67.712 26.2311L57.7033 63.3349L59.636 63.8493ZM68.7005 25.4893L59.9009 25.3203L59.8566 27.3182L68.6562 27.4872L68.7005 25.4893ZM60.8795 26.3309L61.0119 17.2391L59.0104 17.2158L58.878 26.3076L60.8795 26.3309ZM60.038 18.2262L74.7285 17.79L74.6748 15.7926L59.9843 16.2287L60.038 18.2262ZM74.4412 17.7568L81.5439 19.6473L82.0648 17.7163L74.9621 15.8258L74.4412 17.7568ZM80.838 18.4246L67.9854 66.0716L69.9181 66.586L82.7707 18.939L80.838 18.4246ZM69.2122 65.3633L58.9301 62.6266L58.4093 64.5576L68.6913 67.2943L69.2122 65.3633Z" fill="#FF8C00"/>
</g>
</svg>
