<svg width="98" height="72" viewBox="0 0 98 72" fill="none" xmlns="http://www.w3.org/2000/svg">
<g opacity="0.4">
<path d="M38.6516 51.7002C33.4763 55.2967 27.7771 56.2668 21.5537 54.6103C15.3304 52.9539 10.9055 49.2892 8.27902 43.6161C5.65255 37.9431 5.28731 31.5922 7.18331 24.5634C9.06714 17.5797 12.5967 12.2896 17.7719 8.69303C22.9593 5.05145 28.6647 4.05887 34.888 5.71529C41.0663 7.35971 45.4686 11.0184 48.0951 16.6915C50.7667 22.3765 51.1544 28.7335 49.2585 35.7622C47.3746 42.7459 43.839 48.0586 38.6516 51.7002ZM17.7954 38.9778C18.9688 42.3325 21.1114 44.4239 24.2231 45.2521C27.3347 46.0803 30.1918 45.3438 32.7943 43.0424C35.4541 40.708 37.3795 37.333 38.5705 32.9175C39.7373 28.5921 39.734 24.7521 38.5605 21.3974C37.3992 17.9977 35.2852 15.8897 32.2187 15.0735C29.1521 14.2573 26.2889 15.0164 23.6292 17.3508C20.9816 19.6402 19.0623 22.9926 17.8712 27.4081C16.6923 31.7786 16.667 35.6351 17.7954 38.9778ZM49.2162 61.1038L51.4404 52.8585L70.6837 44.145C74.4882 42.405 77.1832 40.9251 78.769 39.7053C80.3669 38.4404 81.4211 36.8617 81.9315 34.9694C82.4541 33.032 82.275 31.3665 81.3942 29.9731C80.5134 28.5797 79.1259 27.6309 77.2319 27.1268C75.4731 26.6587 73.7385 26.7282 72.028 27.3353C70.3748 27.9094 68.3138 29.0993 65.845 30.9051L60.1254 23.0807C63.5172 20.3617 66.7337 18.5618 69.7746 17.681C72.8607 16.8122 76.4106 16.9119 80.4242 17.9802C85.3397 19.2885 88.921 21.6905 91.1682 25.186C93.4275 28.6366 93.9555 32.5921 92.7523 37.0527C92.0595 39.6209 90.9376 41.8092 89.3864 43.6178C87.8473 45.3812 86.0759 46.8414 84.0721 47.9982C82.0805 49.11 79.1782 50.4624 75.3651 52.0552L66.0493 55.9501L86.681 61.4415L84.2563 70.4302L49.2162 61.1038Z" fill="#FF8C00"/>
<path d="M38.6516 51.7002L39.2218 52.5197L39.2257 52.5169L38.6516 51.7002ZM8.27902 43.6161L7.37031 44.0375L8.27902 43.6161ZM17.7719 8.69303L18.3421 9.51254L18.346 9.5098L17.7719 8.69303ZM48.0951 16.6915L47.1864 17.1129L47.1888 17.118L48.0951 16.6915ZM17.7954 38.9778L16.8468 39.2994L16.8504 39.3096L17.7954 38.9778ZM32.7943 43.0424L32.1347 42.2928L32.1319 42.2953L32.7943 43.0424ZM38.5605 21.3974L37.6131 21.7224L37.6155 21.7293L38.5605 21.3974ZM23.6292 17.3508L24.2832 18.1053L24.2888 18.1004L23.6292 17.3508ZM38.0814 50.8807C33.1548 54.3044 27.7607 55.2276 21.8142 53.6448L21.2933 55.5758C27.7934 57.3059 33.7978 56.289 39.2218 52.5197L38.0814 50.8807ZM21.8142 53.6448C15.8679 52.0622 11.6858 48.5906 9.18772 43.1948L7.37031 44.0375C10.1251 49.9878 14.7929 53.8457 21.2933 55.5758L21.8142 53.6448ZM9.18772 43.1948C6.67511 37.7676 6.30423 31.6619 8.14966 24.8206L6.21695 24.3062C4.27039 31.5224 4.62998 38.1185 7.37031 44.0375L9.18772 43.1948ZM8.14966 24.8206C9.98172 18.0288 13.3899 12.9541 18.3421 9.51253L17.2017 7.87353C11.8035 11.625 8.15257 17.1305 6.21695 24.3062L8.14966 24.8206ZM18.346 9.5098C23.2857 6.04211 28.6845 5.09896 34.6276 6.68078L35.1485 4.7498C28.6449 3.01878 22.6329 4.06079 17.1978 7.87626L18.346 9.5098ZM34.6276 6.68078C40.5263 8.2508 44.6872 11.7148 47.1864 17.1129L49.0038 16.2701C46.25 10.3221 41.6062 6.46861 35.1485 4.7498L34.6276 6.68078ZM47.1888 17.118C49.7446 22.5567 50.1368 28.6665 48.2921 35.505L50.2248 36.0194C52.1721 28.8004 51.7887 22.1964 49.0014 16.265L47.1888 17.118ZM48.2921 35.505C46.4601 42.2966 43.0453 47.396 38.0775 50.8834L39.2257 52.5169C44.6327 48.7212 48.2891 43.1953 50.2248 36.0194L48.2921 35.505ZM16.8504 39.3096C18.1193 42.9373 20.494 45.2944 23.9626 46.2176L24.4835 44.2866C21.7288 43.5534 19.8183 41.7277 18.7404 38.6459L16.8504 39.3096ZM23.9626 46.2176C27.4274 47.1398 30.6255 46.2931 33.4567 43.7895L32.1319 42.2953C29.7582 44.3944 27.2421 45.0209 24.4835 44.2866L23.9626 46.2176ZM33.4539 43.792C36.3004 41.2937 38.3094 37.7253 39.5369 33.1747L37.6042 32.6603C36.4496 36.9407 34.6078 40.1223 32.1347 42.2928L33.4539 43.792ZM39.5369 33.1747C40.7425 28.7054 40.7606 24.6536 39.5055 21.0656L37.6155 21.7293C38.7074 24.8506 38.7321 28.4788 37.6042 32.6603L39.5369 33.1747ZM39.5079 21.0725C38.2559 17.4072 35.9148 15.0225 32.4791 14.108L31.9582 16.039C34.6557 16.757 36.5425 18.5881 37.6131 21.7224L39.5079 21.0725ZM32.4791 14.108C29.0486 13.1949 25.8475 14.0754 22.9696 16.6012L24.2888 18.1004C26.7304 15.9574 29.2556 15.3197 31.9582 16.039L32.4791 14.108ZM22.9752 16.5964C20.1357 19.0517 18.1321 22.6012 16.9048 27.1509L18.8376 27.6653C19.9924 23.384 21.8275 20.2287 24.2832 18.1052L22.9752 16.5964ZM16.9048 27.1509C15.6889 31.6587 15.6399 35.7238 16.8469 39.2993L18.7439 38.6562C17.6941 35.5465 17.6957 31.8984 18.8376 27.6653L16.9048 27.1509ZM49.2162 61.1038L48.2499 60.8466L47.9894 61.8121L48.9558 62.0693L49.2162 61.1038ZM51.4404 52.8585L51.0292 51.9488L50.5973 52.1444L50.474 52.6013L51.4404 52.8585ZM70.6837 44.145L71.0949 45.0547L71.0984 45.0532L70.6837 44.145ZM78.769 39.7053L79.3785 40.4961L79.3894 40.4875L78.769 39.7053ZM81.3942 29.9731L80.5474 30.5081L80.5474 30.5081L81.3942 29.9731ZM72.028 27.3353L72.3544 28.2789L72.3609 28.2766L72.028 27.3353ZM65.845 30.9051L65.0359 31.4956L65.6257 32.3024L66.4349 31.7104L65.845 30.9051ZM60.1254 23.0807L59.5001 22.3024L58.7533 22.901L59.3164 23.6713L60.1254 23.0807ZM69.7746 17.681L69.5056 16.7193L69.4983 16.7214L69.7746 17.681ZM91.1682 25.186L90.3254 25.7275L90.33 25.7344L91.1682 25.186ZM89.3864 43.6178L90.1402 44.2729L90.1458 44.2664L89.3864 43.6178ZM84.0721 47.9982L84.5587 48.87L84.565 48.8665L84.5713 48.8628L84.0721 47.9982ZM75.3651 52.0552L74.9811 51.1336L74.9808 51.1337L75.3651 52.0552ZM66.0493 55.9501L65.665 55.0286L62.9555 56.1614L65.7889 56.9156L66.0493 55.9501ZM86.681 61.4415L87.6474 61.6987L87.9078 60.7332L86.9414 60.476L86.681 61.4415ZM84.2563 70.4302L83.9959 71.3957L84.9622 71.6529L85.2227 70.6874L84.2563 70.4302ZM50.1826 61.361L52.4067 53.1157L50.474 52.6013L48.2499 60.8466L50.1826 61.361ZM51.8516 53.7683L71.0949 45.0547L70.2725 43.2353L51.0292 51.9488L51.8516 53.7683ZM71.0984 45.0532C74.914 43.308 77.697 41.7895 79.3784 40.4961L78.1596 38.9145C76.6694 40.0607 74.0623 41.502 70.2691 43.2368L71.0984 45.0532ZM79.3894 40.4875C81.1491 39.0945 82.3292 37.3346 82.8979 35.2266L80.9652 34.7122C80.5129 36.3888 79.5846 37.7862 78.1486 38.923L79.3894 40.4875ZM82.8979 35.2266C83.4763 33.0823 83.3021 31.1167 82.241 29.4381L80.5474 30.5081C81.2479 31.6163 81.432 32.9816 80.9652 34.7122L82.8979 35.2266ZM82.241 29.4381C81.2017 27.7939 79.5811 26.7172 77.4923 26.1613L76.9714 28.0923C78.6708 28.5446 79.8251 29.3655 80.5474 30.5081L82.241 29.4381ZM77.4923 26.1613C75.539 25.6414 73.5975 25.7188 71.6952 26.394L72.3609 28.2766C73.8795 27.7376 75.4073 27.6759 76.9714 28.0923L77.4923 26.1613ZM71.7017 26.3917C69.9092 27.0142 67.7537 28.272 65.255 30.0997L66.4349 31.7104C68.8738 29.9266 70.8404 28.8046 72.3544 28.2789L71.7017 26.3917ZM66.654 30.3145L60.9344 22.4902L59.3164 23.6713L65.0359 31.4956L66.654 30.3145ZM60.7507 23.8591C64.0753 21.1939 67.175 19.4735 70.0509 18.6405L69.4983 16.7214C66.2924 17.65 62.9592 19.5294 59.5001 22.3024L60.7507 23.8591ZM70.0437 18.6426C72.9125 17.835 76.2732 17.9102 80.1637 18.9457L80.6846 17.0147C76.548 15.9137 72.809 15.7894 69.5056 16.7194L70.0437 18.6426ZM80.1637 18.9457C84.8949 20.2049 88.2409 22.4848 90.3254 25.7274L92.0109 24.6447C89.6012 20.8962 85.7846 18.3721 80.6846 17.0147L80.1637 18.9457ZM90.33 25.7344C92.4142 28.9176 92.9248 32.5735 91.7859 36.7955L93.7187 37.3099C94.9863 32.6107 94.4408 28.3556 92.0064 24.6377L90.33 25.7344ZM91.7859 36.7955C91.1274 39.2366 90.0699 41.2869 88.6269 42.9692L90.1458 44.2664C91.8052 42.3316 92.9916 40.0051 93.7187 37.3099L91.7859 36.7955ZM88.6326 42.9626C87.1654 44.6438 85.4797 46.0328 83.573 47.1337L84.5713 48.8628C86.6721 47.65 88.5292 46.1187 90.1401 44.2729L88.6326 42.9626ZM83.5856 47.1265C81.6436 48.2106 78.7823 49.5458 74.9811 51.1336L75.7492 52.9767C79.5741 51.379 82.5174 50.0095 84.5587 48.87L83.5856 47.1265ZM74.9808 51.1337L65.665 55.0286L66.4336 56.8715L75.7495 52.9766L74.9808 51.1337ZM65.7889 56.9156L86.4206 62.407L86.9414 60.476L66.3097 54.9846L65.7889 56.9156ZM85.7146 61.1843L83.29 70.173L85.2227 70.6874L87.6474 61.6987L85.7146 61.1843ZM84.5168 69.4647L49.4767 60.1383L48.9558 62.0693L83.9959 71.3957L84.5168 69.4647Z" fill="#FF8C00"/>
</g>
</svg>
