<svg width="98" height="72" viewBox="0 0 98 72" fill="none" xmlns="http://www.w3.org/2000/svg">
<g opacity="0.4">
<path d="M38.7169 52.344C33.5416 55.9406 27.8424 56.9106 21.619 55.2542C15.3957 53.5978 10.9708 49.933 8.34432 44.26C5.71785 38.5869 5.35262 32.236 7.24861 25.2073C9.13245 18.2235 12.662 12.9334 17.8372 9.33689C23.0246 5.69531 28.73 4.70273 34.9533 6.35915C41.1316 8.00357 45.5339 11.6623 48.1604 17.3354C50.832 23.0204 51.2197 29.3773 49.3238 36.4061C47.4399 43.3898 43.9043 48.7025 38.7169 52.344ZM17.8607 39.6217C19.0341 42.9763 21.1767 45.0678 24.2884 45.896C27.4 46.7242 30.2571 45.9876 32.8596 43.6863C35.5194 41.3518 37.4448 37.9769 38.6359 33.5614C39.8026 29.236 39.7993 25.3959 38.6258 22.0413C37.4645 18.6415 35.3506 16.5336 32.284 15.7174C29.2174 14.9012 26.3543 15.6603 23.6945 17.9947C21.0469 20.284 19.1276 23.6365 17.9365 28.052C16.7576 32.4224 16.7323 36.279 17.8607 39.6217ZM66.7857 67.2759C59.0742 65.2234 53.6538 60.8591 50.5246 54.1829L59.5363 49.2654C61.8976 53.9504 65.1978 56.857 69.4369 57.9853C71.4211 58.5134 73.1618 58.4214 74.659 57.7092C76.2134 56.9639 77.2336 55.6901 77.7198 53.8879C78.2424 51.9505 77.8317 50.2476 76.4878 48.7792C75.1439 47.3108 73.0062 46.1865 70.075 45.4063L65.7457 44.254L65.9088 37.1986L80.2683 28.8512L61.6659 23.8999L64.0724 14.9788L96.0684 23.495L93.9537 31.3347L78.8995 39.5697C86.9888 43.2681 90.0246 48.8569 88.0071 56.3362C86.7796 60.8869 84.221 64.1899 80.3315 66.2453C76.4871 68.3127 71.9719 68.6562 66.7857 67.2759Z" fill="#FF8C00"/>
<path d="M38.7169 52.344L39.2871 53.1635L39.291 53.1608L38.7169 52.344ZM8.34432 44.26L7.43561 44.6813L8.34432 44.26ZM17.8372 9.33689L18.4074 10.1564L18.4113 10.1537L17.8372 9.33689ZM48.1604 17.3354L47.2517 17.7567L47.2541 17.7619L48.1604 17.3354ZM17.8607 39.6217L16.9121 39.9432L16.9157 39.9535L17.8607 39.6217ZM32.8596 43.6863L32.2 42.9367L32.1972 42.9392L32.8596 43.6863ZM38.6258 22.0413L37.6784 22.3662L37.6808 22.3731L38.6258 22.0413ZM23.6945 17.9947L24.3485 18.7491L24.3541 18.7442L23.6945 17.9947ZM38.1467 51.5245C33.2201 54.9482 27.826 55.8714 21.8795 54.2887L21.3586 56.2197C27.8587 57.9498 33.8631 56.9329 39.2871 53.1635L38.1467 51.5245ZM21.8795 54.2887C15.9332 52.706 11.7511 49.2344 9.25302 43.8386L7.43561 44.6813C10.1904 50.6317 14.8582 54.4895 21.3586 56.2197L21.8795 54.2887ZM9.25302 43.8386C6.74042 38.4115 6.36954 32.3058 8.21496 25.4645L6.28225 24.95C4.33569 32.1663 4.69529 38.7624 7.43561 44.6813L9.25302 43.8386ZM8.21496 25.4645C10.047 18.6727 13.4552 13.598 18.4074 10.1564L17.267 8.51739C11.8688 12.2689 8.21787 17.7744 6.28225 24.95L8.21496 25.4645ZM18.4113 10.1537C23.351 6.68597 28.7498 5.74282 34.6929 7.32464L35.2138 5.39366C28.7102 3.66264 22.6982 4.70465 17.2631 8.52012L18.4113 10.1537ZM34.6929 7.32464C40.5916 8.89466 44.7525 12.3587 47.2517 17.7567L49.0691 16.914C46.3153 10.9659 41.6715 7.11247 35.2138 5.39366L34.6929 7.32464ZM47.2541 17.7619C49.8099 23.2006 50.2021 29.3104 48.3574 36.1489L50.2901 36.6633C52.2374 29.4443 51.854 22.8402 49.0667 16.9088L47.2541 17.7619ZM48.3574 36.1489C46.5254 42.9404 43.1106 48.0398 38.1428 51.5273L39.291 53.1608C44.698 49.3651 48.3544 43.8392 50.2901 36.6633L48.3574 36.1489ZM16.9157 39.9535C18.1846 43.5811 20.5593 45.9383 24.0279 46.8615L24.5488 44.9305C21.7941 44.1973 19.8836 42.3715 18.8057 39.2898L16.9157 39.9535ZM24.0279 46.8615C27.4927 47.7837 30.6908 46.937 33.522 44.4334L32.1972 42.9392C29.8235 45.0383 27.3074 45.6647 24.5488 44.9305L24.0279 46.8615ZM33.5192 44.4358C36.3657 41.9375 38.3747 38.3692 39.6022 33.8186L37.6695 33.3042C36.5149 37.5846 34.6731 40.7661 32.2 42.9367L33.5192 44.4358ZM39.6022 33.8186C40.8078 29.3493 40.8259 25.2975 39.5708 21.7094L37.6808 22.3731C38.7727 25.4944 38.7975 29.1226 37.6695 33.3042L39.6022 33.8186ZM39.5732 21.7163C38.3212 18.0511 35.9801 15.6663 32.5444 14.7519L32.0235 16.6829C34.721 17.4008 36.6078 19.232 37.6784 22.3662L39.5732 21.7163ZM32.5444 14.7519C29.1139 13.8388 25.9128 14.7193 23.0349 17.2451L24.3541 18.7442C26.7957 16.6013 29.3209 15.9635 32.0235 16.6829L32.5444 14.7519ZM23.0405 17.2402C20.201 19.6955 18.1974 23.2451 16.9702 27.7948L18.9029 28.3092C20.0577 24.0278 21.8928 20.8725 24.3485 18.7491L23.0405 17.2402ZM16.9702 27.7948C15.7542 32.3026 15.7052 36.3677 16.9122 39.9432L18.8092 39.3001C17.7594 36.1903 17.761 32.5423 18.9029 28.3092L16.9702 27.7948ZM50.5246 54.1829L50.0465 53.3065L49.2192 53.758L49.6179 54.6086L50.5246 54.1829ZM59.5363 49.2654L60.4306 48.8142L59.9664 47.8934L59.0582 48.389L59.5363 49.2654ZM74.659 57.7092L75.0874 58.6109L75.0901 58.6096L74.659 57.7092ZM65.7457 44.254L64.7451 44.2338L64.727 45.0176L65.4853 45.2195L65.7457 44.254ZM65.9088 37.1986L65.4071 36.3355L64.9212 36.618L64.9083 37.1784L65.9088 37.1986ZM80.2683 28.8512L80.77 29.7143L82.8519 28.504L80.5287 27.8857L80.2683 28.8512ZM61.6659 23.8999L60.6996 23.6427L60.4391 24.6082L61.4055 24.8654L61.6659 23.8999ZM64.0724 14.9788L64.3328 14.0133L63.3665 13.7561L63.106 14.7216L64.0724 14.9788ZM96.0684 23.495L97.0348 23.7522L97.2952 22.7867L96.3289 22.5295L96.0684 23.495ZM93.9537 31.3347L94.4326 32.2107L94.8086 32.005L94.92 31.5919L93.9537 31.3347ZM78.8995 39.5697L78.4206 38.6938L76.6708 39.6509L78.4806 40.4783L78.8995 39.5697ZM80.3315 66.2453L79.8653 65.3625L79.8589 65.366L80.3315 66.2453ZM67.0462 66.3104C59.5935 64.3268 54.4247 60.1435 51.4313 53.7573L49.6179 54.6086C52.883 61.5746 58.555 66.12 66.5253 68.2414L67.0462 66.3104ZM51.0027 55.0594L60.0143 50.1418L59.0582 48.389L50.0465 53.3065L51.0027 55.0594ZM58.642 49.7166C61.1037 54.6007 64.6077 57.7347 69.1764 58.9508L69.6973 57.0198C65.7878 55.9792 62.6915 53.3001 60.4306 48.8142L58.642 49.7166ZM69.1764 58.9508C71.3332 59.5248 73.3272 59.4482 75.0874 58.6109L74.2306 56.8074C72.9964 57.3945 71.509 57.502 69.6973 57.0198L69.1764 58.9508ZM75.0901 58.6096C76.9324 57.7263 78.1313 56.2022 78.6862 54.1451L76.7534 53.6307C76.336 55.1781 75.4943 56.2015 74.2278 56.8087L75.0901 58.6096ZM78.6862 54.1451C79.2969 51.8808 78.8034 49.8258 77.2275 48.104L75.7481 49.4543C76.8601 50.6693 77.1879 52.0201 76.7534 53.6307L78.6862 54.1451ZM77.2275 48.104C75.7043 46.4397 73.3617 45.2463 70.3354 44.4408L69.8145 46.3717C72.6508 47.1266 74.5834 48.1818 75.7481 49.4543L77.2275 48.104ZM70.3354 44.4408L66.0061 43.2885L65.4853 45.2195L69.8145 46.3717L70.3354 44.4408ZM66.7463 44.2741L66.9094 37.2188L64.9083 37.1784L64.7451 44.2338L66.7463 44.2741ZM66.4106 38.0617L80.77 29.7143L79.7665 27.9881L65.4071 36.3355L66.4106 38.0617ZM80.5287 27.8857L61.9264 22.9344L61.4055 24.8654L80.0078 29.8167L80.5287 27.8857ZM62.6323 24.1571L65.0387 15.236L63.106 14.7216L60.6996 23.6427L62.6323 24.1571ZM63.8119 15.9443L95.808 24.4604L96.3289 22.5295L64.3328 14.0133L63.8119 15.9443ZM95.1021 23.2377L92.9873 31.0775L94.92 31.5919L97.0348 23.7522L95.1021 23.2377ZM93.4747 30.4588L78.4206 38.6938L79.3785 40.4456L94.4326 32.2107L93.4747 30.4588ZM78.4806 40.4783C82.405 42.2725 84.9821 44.4708 86.3632 47.0134C87.7338 49.5364 87.998 52.5303 87.0407 56.079L88.9735 56.5934C90.0337 52.6629 89.7888 49.1226 88.1235 46.0568C86.4688 43.0106 83.4834 40.5652 79.3184 38.661L78.4806 40.4783ZM87.0407 56.079C85.8797 60.3831 83.4889 63.4477 79.8653 65.3626L80.7978 67.1281C84.9532 64.9322 87.6794 61.3908 88.9735 56.5934L87.0407 56.079ZM79.8589 65.366C76.2885 67.286 72.0461 67.6412 67.0462 66.3104L66.5253 68.2414C71.8977 69.6713 76.6857 69.3395 80.8042 67.1247L79.8589 65.366Z" fill="#FF8C00"/>
</g>
</svg>
