<svg width="45" height="32" viewBox="0 0 45 32" fill="none" xmlns="http://www.w3.org/2000/svg">
<g clip-path="url(#clip0_572_12133)">
<path d="M21.0742 12.4932C21.1244 12.5038 21.1756 12.5093 21.227 12.5095C21.2756 12.5099 21.3241 12.5051 21.3716 12.4952C21.273 12.5098 21.1727 12.5091 21.0742 12.4932Z" fill="#275DA6"/>
<path d="M21.0742 12.4932C21.1244 12.5038 21.1756 12.5093 21.227 12.5095C21.2756 12.5099 21.3241 12.5051 21.3716 12.4952C21.273 12.5098 21.1727 12.5091 21.0742 12.4932Z" fill="#275DA6"/>
<path d="M21.3716 12.4923C21.3241 12.5022 21.2756 12.5069 21.227 12.5065C21.1756 12.5064 21.1244 12.5009 21.0742 12.4902C21.1727 12.5062 21.273 12.5069 21.3716 12.4923Z" fill="#275DA6"/>
<path d="M22.6011 9.29921C22.2706 9.03949 21.8734 8.87839 21.4553 8.83448C21.0372 8.79056 20.6152 8.86561 20.2379 9.05098C19.469 9.40415 19.1945 10.0217 19.2591 10.839C19.2894 11.2043 19.2591 11.5757 19.2591 11.943C19.247 12.7623 19.7011 13.2467 20.4215 13.501C22.0643 14.0822 23.1077 13.1942 23.1077 11.2386C23.1016 10.5505 23.2832 9.78558 22.6011 9.29921ZM21.9291 11.7997C21.9293 11.8846 21.9135 11.9688 21.8827 12.0479C21.8436 12.157 21.7782 12.2548 21.6923 12.3326C21.6064 12.4104 21.5027 12.4658 21.3902 12.4939H21.3802C21.333 12.5037 21.285 12.5084 21.2369 12.508C21.186 12.5079 21.1353 12.5025 21.0855 12.4919C20.9283 12.457 20.7877 12.3697 20.6868 12.2442C20.586 12.1188 20.5308 11.9627 20.5305 11.8017V10.6292C20.5305 10.4455 20.6022 10.269 20.7303 10.1374C20.8585 10.0059 21.0331 9.92957 21.2167 9.92483C21.4072 9.93534 21.5895 10.006 21.7374 10.1266C21.8133 10.2019 21.8706 10.2938 21.9049 10.3951C21.9318 10.4688 21.9455 10.5466 21.9452 10.6251L21.9291 11.7997Z" fill="#275DA6"/>
<path d="M17.7135 11.5453C17.5339 11.9892 17.3563 12.4332 17.1828 12.8651H16.4522C16.0344 12.4938 16.1757 11.8722 15.7095 11.4807C15.8512 12.1376 15.8819 12.8136 15.8003 13.4806C15.4329 13.6117 15.0322 13.616 14.6621 13.4928V8.9681C14.9971 8.82077 15.3281 8.89949 15.7176 8.89747C16.1898 9.51502 16.323 10.3303 16.7912 11.075L17.7579 8.97415C18.103 8.77234 18.4602 8.93783 18.8699 8.87527V13.4887C18.5147 13.632 18.1656 13.5513 17.8064 13.5371C17.6106 12.857 17.7882 12.2375 17.7135 11.5453Z" fill="#275DA6"/>
<path d="M30.2059 8.89551H31.4511C30.8874 10.471 30.3458 11.99 29.8265 13.4525C29.4229 13.6543 29.0919 13.513 28.7004 13.5695C28.1434 12.0155 27.5965 10.4959 27.0273 8.90762H28.2503C28.6762 9.96943 29.0097 11.066 29.2473 12.1851C29.4794 10.9015 29.8648 9.92072 30.2059 8.89551Z" fill="#275DA6"/>
<path d="M26.7203 9.29921C26.3897 9.03949 25.9925 8.87839 25.5744 8.83448C25.1563 8.79056 24.7343 8.86561 24.357 9.05098C23.5881 9.40415 23.3137 10.0217 23.3782 10.839C23.4085 11.2043 23.3883 11.5757 23.3782 11.943C23.3661 12.7623 23.8202 13.2467 24.5407 13.501C26.1834 14.0822 27.2268 13.1942 27.2268 11.2386C27.2147 10.5505 27.3963 9.78558 26.7203 9.29921ZM26.0482 11.7997C26.0484 11.8846 26.0327 11.9688 26.0018 12.0479C25.9607 12.1582 25.8926 12.2564 25.8038 12.3336C25.715 12.4109 25.6082 12.4646 25.4932 12.4899C25.4461 12.4997 25.3981 12.5044 25.35 12.504C25.2991 12.5038 25.2484 12.4984 25.1986 12.4879C25.0414 12.453 24.9008 12.3656 24.7999 12.2402C24.6991 12.1147 24.6439 11.9586 24.6436 11.7977V10.6251C24.6435 10.4414 24.7153 10.265 24.8434 10.1334C24.9716 10.0018 25.1461 9.92553 25.3298 9.9208C25.5203 9.9313 25.7026 10.002 25.8504 10.1226C25.9264 10.1979 25.9837 10.2898 26.018 10.391C26.0449 10.4647 26.0586 10.5426 26.0583 10.6211L26.0482 11.7997Z" fill="#275DA6"/>
<path d="M11.8527 12.5329H13.8509C13.4896 15.1568 13.1344 17.7141 12.7731 20.3158C12.103 20.449 11.4833 20.3986 10.789 20.3663C10.8785 19.1771 11.0301 17.9934 11.2431 16.82C10.8031 17.6273 10.3611 18.4347 9.92514 19.2198H8.65557C8.21759 18.5417 8.33061 17.704 7.87244 16.8765C7.80588 18.0395 7.6609 19.1966 7.43849 20.34H5.47461C5.82379 17.7585 6.17095 15.1891 6.52215 12.5996C7.19629 12.4219 7.824 12.5208 8.54053 12.5188C8.90787 13.7581 9.2732 14.9913 9.66678 16.3154L11.8527 12.5329Z" fill="#EC670A"/>
<path d="M33.8734 14.654C33.6171 16.8197 33.494 18.9309 32.9167 20.9452C32.3798 22.8143 30.1939 23.1856 28.5449 21.7647L29.3523 20.7939C30.0426 20.9614 30.7369 21.5225 31.2092 20.5638L31.1506 20.5355C31.1318 20.5276 31.1122 20.5215 31.0921 20.5173C30.8479 20.4507 30.5956 20.5718 30.3473 20.5476C29.2796 20.4427 28.549 19.6192 28.6761 18.5514C28.8275 17.29 29.0374 16.0365 29.2251 14.7428C29.8044 14.5752 30.3635 14.6701 30.9912 14.6721C31.0538 16.1112 30.5209 17.4575 30.5633 18.7977C30.8539 19.0782 31.1103 18.9814 31.4352 18.9248C31.6371 17.5322 31.8389 16.1496 32.0408 14.7448C32.6422 14.5712 33.2013 14.6883 33.8734 14.654Z" fill="#EC670A"/>
<path d="M19.2146 14.9997C20.3247 14.5516 21.3298 14.37 22.3834 14.6566C23.2372 14.8887 23.76 15.4437 23.6853 16.3278C23.5743 17.6599 23.3502 18.984 23.1746 20.306C22.5449 20.4634 21.9798 20.3989 21.344 20.3625C21.2531 19.0122 21.8405 17.7386 21.7234 16.4267C21.4772 16.1724 21.233 16.1704 20.9161 16.35C20.7304 17.6418 20.5427 18.9638 20.3509 20.302C19.7151 20.4856 19.1278 20.3645 18.4375 20.3867C18.708 18.5359 18.9683 16.786 19.2146 14.9997Z" fill="#EC670A"/>
<path d="M39.6231 18.5213C38.733 19.0582 37.7339 19.1773 36.7731 19.4013C36.6278 19.4316 36.4825 19.4679 36.3392 19.5083C36.0122 19.585 35.7236 19.6395 35.4713 19.6778C34.3652 19.8434 33.9272 19.69 33.8324 19.6476H33.8223C35.4797 19.3008 37.1095 18.8333 38.6987 18.2488C38.7572 17.2033 38.3293 16.2628 38.2324 15.2112C37.0073 15.5422 35.9052 16.1477 34.6478 16.2567C36.0102 15.52 37.4533 14.9306 38.7511 13.7842C39.0499 15.4352 39.3324 16.9631 39.6231 18.5213Z" fill="#EC670A"/>
<path d="M17.4823 14.7136C17.1183 14.5583 16.7243 14.4861 16.3289 14.5022C15.9335 14.5183 15.5467 14.6224 15.1966 14.8068C14.8465 14.9913 14.5419 15.2514 14.305 15.5684C14.0681 15.8854 13.9048 16.2512 13.827 16.6392C13.7261 17.166 13.6575 17.7008 13.5949 18.2337C13.4254 19.6809 14.2166 20.5548 15.6678 20.5367C16.8687 20.4963 18.2735 19.6849 18.3038 18.264C18.3159 17.6988 18.4915 17.1397 18.5561 16.5726C18.6231 16.186 18.5523 15.7882 18.3561 15.4485C18.1599 15.1088 17.8506 14.8487 17.4823 14.7136ZM16.6386 16.6674C16.6406 16.6876 16.6406 16.7078 16.6386 16.728L16.574 17.1317V17.1417L16.3722 18.3992L16.346 18.5607C16.3309 18.6566 16.2818 18.7438 16.2077 18.8065C16.1336 18.8691 16.0393 18.9029 15.9423 18.9018H15.8717C15.8189 18.8937 15.7683 18.8752 15.7228 18.8474C15.6772 18.8197 15.6376 18.7831 15.6063 18.74C15.575 18.6968 15.5525 18.6478 15.5402 18.5959C15.5279 18.544 15.526 18.4902 15.5346 18.4375L15.8293 16.6008C15.8416 16.5234 15.8763 16.4512 15.9289 16.3932C15.9816 16.3351 16.0501 16.2936 16.126 16.2738C16.1805 16.2617 16.237 16.2617 16.2915 16.2738C16.3495 16.2815 16.4049 16.3029 16.4529 16.3364C16.5078 16.373 16.5529 16.4225 16.5842 16.4806C16.6155 16.5386 16.6321 16.6035 16.6326 16.6694L16.6386 16.6674Z" fill="#EC670A"/>
<path d="M26.8648 18.3034C28.0758 18.1278 28.8832 17.0419 28.6813 15.9439C28.4795 14.9166 27.4602 14.3292 26.2593 14.5674C25.1068 14.8056 24.3216 15.4575 24.0976 16.6625C24.0007 17.1893 23.922 17.7201 23.8493 18.253C23.6959 19.3752 24.1077 20.0574 25.1835 20.4046C26.3198 20.7719 27.2544 20.3864 28.096 19.6335L27.3068 18.7132C26.6831 18.915 26.1099 19.2601 25.5932 18.3095C26.0168 18.3332 26.4415 18.3312 26.8648 18.3034ZM26.3542 17.1529H25.9141V16.7008C25.9131 16.684 25.9131 16.6672 25.9141 16.6504C25.9139 16.5839 25.9267 16.5181 25.952 16.4567C25.9772 16.3952 26.0143 16.3393 26.0612 16.2923C26.1081 16.2452 26.1638 16.2078 26.2252 16.1824C26.2865 16.1569 26.3523 16.1438 26.4187 16.1438H26.4793C26.5925 16.1561 26.6977 16.2084 26.776 16.2911C26.8006 16.312 26.8212 16.3373 26.8365 16.3658C26.8477 16.3767 26.8566 16.3897 26.8628 16.4041C26.8628 16.4183 26.8769 16.4344 26.883 16.4506C26.8904 16.4624 26.8958 16.4753 26.8991 16.4889C26.8991 16.5051 26.9092 16.5232 26.9132 16.5414C26.9197 16.5746 26.9231 16.6084 26.9233 16.6423C26.9233 16.7767 26.87 16.9055 26.775 17.0005C26.6799 17.0955 26.5511 17.1489 26.4167 17.1489L26.3542 17.1529Z" fill="#EC670A"/>
<path d="M39.7024 19.124V19.9737C39.7024 19.9737 36.4048 20.6195 34.0859 19.9737C34.0859 19.9737 38.2594 19.794 39.7024 19.124Z" fill="#EC670A"/>
<path d="M39.7552 20.4412L39.5998 21.2767C39.5998 21.2767 36.2416 21.315 34.0762 20.2676C34.0782 20.2616 38.2174 20.8388 39.7552 20.4412Z" fill="#EC670A"/>
</g>
<defs>
<clipPath id="clip0_572_12133">
<rect width="34.2801" height="13.8077" fill="white" transform="translate(5.47266 8.82227)"/>
</clipPath>
</defs>
</svg>
