<svg width="46" height="32" viewBox="0 0 46 32" fill="none" xmlns="http://www.w3.org/2000/svg">
<rect x="0.759766" y="0.577148" width="44.3091" height="30.9133" rx="4.12177" fill="#EEEEEE"/>
<path fill-rule="evenodd" clip-rule="evenodd" d="M14.8521 21.0021H12.1678L10.1549 13.189C10.0594 12.8296 9.85653 12.5118 9.55813 12.3621C8.81344 11.9857 7.99285 11.6862 7.09766 11.5352V11.2344H11.4218C12.0186 11.2344 12.4662 11.6862 12.5408 12.211L13.5852 17.8469L16.2681 11.2344H18.8778L14.8521 21.0021ZM20.373 21.0021H17.8379L19.9254 11.2344H22.4604L20.373 21.0021ZM25.7373 13.9391C25.8119 13.413 26.2595 13.1122 26.7817 13.1122C27.6023 13.0366 28.4962 13.1877 29.2422 13.5627L29.6898 11.4597C28.9438 11.1589 28.1232 11.0078 27.3785 11.0078C24.9181 11.0078 23.1277 12.3608 23.1277 14.2386C23.1277 15.6671 24.3959 16.4171 25.291 16.869C26.2595 17.3196 26.6325 17.6204 26.5579 18.0709C26.5579 18.7468 25.8119 19.0476 25.0673 19.0476C24.1721 19.0476 23.2769 18.8223 22.4576 18.446L22.01 20.5503C22.9052 20.9253 23.8737 21.0764 24.7689 21.0764C27.5277 21.1506 29.2422 19.7989 29.2422 17.7701C29.2422 15.2152 25.7373 15.0655 25.7373 13.9391ZM38.1147 21.0021L36.1018 11.2344H33.9397C33.4921 11.2344 33.0445 11.5352 32.8953 11.9857L29.168 21.0021H31.7776L32.2985 19.5749H35.505L35.8034 21.0021H38.1147ZM34.3096 13.8643L35.0543 17.5456H32.9668L34.3096 13.8643Z" fill="#0026BD"/>
</svg>
