<svg width="46" height="32" viewBox="0 0 46 32" fill="none" xmlns="http://www.w3.org/2000/svg">
<rect x="0.689453" y="0.577148" width="44.3114" height="30.9149" rx="4.12199" fill="#EEEEEE"/>
<g clip-path="url(#clip0_572_12154)">
<path d="M18.3136 16.3783C17.3612 17.3432 16.5498 18.1585 15.7481 18.9803C14.5722 20.1857 13.4027 21.3878 12.2397 22.5867C11.7586 23.0798 11.2054 23.3543 10.5127 23.2129C9.82004 23.0716 9.339 22.6869 9.11933 22.0015C8.99756 21.6641 8.97676 21.2971 9.0596 20.9474C9.14243 20.5978 9.32513 20.2815 9.58433 20.0389C10.7356 18.8587 11.8965 17.6867 13.0478 16.5049C13.9073 15.6206 14.7571 14.7231 15.7192 13.7204C14.5134 13.7204 13.4327 13.7204 12.3519 13.7204C11.9253 13.7405 11.5009 13.6465 11.1205 13.4476C10.7838 13.2742 10.5094 12.996 10.3366 12.6529C10.1637 12.3097 10.1013 11.9193 10.1584 11.5376C10.2281 11.1299 10.4283 10.7577 10.7274 10.4797C11.0265 10.2017 11.4074 10.0337 11.8099 10.0023C12.5828 9.96287 13.3589 9.98095 14.1334 9.98095C16.0832 9.98095 18.033 9.97108 19.9828 9.98095C21.2207 9.98916 21.9567 10.6845 21.9711 11.9419C22.0016 14.6524 21.9968 17.3662 21.9711 20.0751C21.9599 21.2569 21.1983 22.0722 20.1817 22.1001C19.1651 22.1281 18.3858 21.3341 18.32 20.1457C18.2687 19.2187 18.3072 18.285 18.3056 17.3514L18.3136 16.3783Z" fill="black"/>
<path d="M27.6835 15.5811L30.5329 12.6372C31.588 11.5507 32.6334 10.4543 33.7045 9.38589C33.9547 9.11547 34.2798 8.93015 34.6358 8.85491C34.9919 8.77968 35.3619 8.81813 35.6961 8.9651C36.4016 9.23796 36.7543 9.78696 36.8185 10.5168C36.8842 11.1891 36.5892 11.7233 36.1274 12.1901C34.1904 14.1505 32.2587 16.1175 30.3324 18.0911C30.2827 18.142 30.241 18.2045 30.1128 18.3656C31.2881 18.3656 32.3672 18.3656 33.4448 18.3656C33.7376 18.3523 34.031 18.375 34.3187 18.433C34.7223 18.5409 35.0787 18.7852 35.3301 19.1264C35.5815 19.4677 35.7132 19.8859 35.7041 20.3134C35.6631 20.7518 35.4814 21.1639 35.1874 21.4851C34.8935 21.8064 34.5039 22.0186 34.0798 22.0886C33.9201 22.1068 33.7593 22.1134 33.5987 22.1083C31.062 22.1083 28.5253 22.1083 25.9886 22.1083C24.5968 22.1083 23.8689 21.3719 23.8608 19.9337C23.8459 17.3333 23.8459 14.7329 23.8608 12.1326C23.8608 10.857 24.5567 10.0335 25.5958 9.99571C26.5402 9.95955 27.2185 10.5036 27.443 11.4553C27.5713 11.9978 27.5119 12.5451 27.5184 13.0892C27.5296 13.8979 27.5184 14.7066 27.5184 15.5137L27.6835 15.5811Z" fill="#EF781D"/>
</g>
<defs>
<clipPath id="clip0_572_12154">
<rect width="27.8234" height="14.427" fill="white" transform="translate(9.01367 8.82227)"/>
</clipPath>
</defs>
</svg>
