<svg width="31" height="18" viewBox="0 0 31 18" fill="none" xmlns="http://www.w3.org/2000/svg">
<path fill-rule="evenodd" clip-rule="evenodd" d="M15.5398 15.2545C13.9966 16.5403 11.9948 17.3166 9.80735 17.3166C4.927 17.3166 0.970703 13.4528 0.970703 8.6866C0.970703 3.92041 4.927 0.0566406 9.80735 0.0566406C11.9948 0.0566406 13.9966 0.832872 15.5398 2.11867C17.0829 0.832872 19.0847 0.0566406 21.2722 0.0566406C26.1525 0.0566406 30.1088 3.92041 30.1088 8.6866C30.1088 13.4528 26.1525 17.3166 21.2722 17.3166C19.0847 17.3166 17.0829 16.5403 15.5398 15.2545Z" fill="#ED0006"/>
<path fill-rule="evenodd" clip-rule="evenodd" d="M15.5332 15.2553C17.4334 13.6724 18.6384 11.3169 18.6384 8.6866C18.6384 6.05625 17.4334 3.70076 15.5332 2.11786C17.0762 0.832545 19.0776 0.0566406 21.2646 0.0566406C26.145 0.0566406 30.1013 3.92041 30.1013 8.6866C30.1013 13.4528 26.145 17.3166 21.2646 17.3166C19.0776 17.3166 17.0762 16.5407 15.5332 15.2553Z" fill="#F9A000"/>
<path fill-rule="evenodd" clip-rule="evenodd" d="M15.5378 15.256C17.4375 13.6731 18.642 11.3179 18.642 8.68804C18.642 6.05815 17.4375 3.70301 15.5378 2.12012C13.6381 3.70301 12.4336 6.05815 12.4336 8.68804C12.4336 11.3179 13.6381 13.6731 15.5378 15.256Z" fill="#FD6020"/>
</svg>
