<svg width="17" height="17" viewBox="0 0 17 17" fill="none" xmlns="http://www.w3.org/2000/svg">
<mask id="mask0_823_2479" style="mask-type:luminance" maskUnits="userSpaceOnUse" x="0" y="0" width="17" height="17">
<path d="M16.5883 0H0.136719V17H16.5883V0Z" fill="white"/>
</mask>
<g mask="url(#mask0_823_2479)">
<path d="M0.950937 0.0897239C0.771 0.15281 0.513942 0.395193 0.433612 0.571168C0.398267 0.650858 0.317937 0.906521 0.250459 1.14226C0.147637 1.51082 0.131571 1.60379 0.144423 1.80965C0.166916 2.18484 0.359708 2.48699 0.674605 2.63972C0.732437 2.66961 1.71568 2.97508 2.85958 3.32371C4.0067 3.67234 4.97709 3.98113 5.01886 4.0077C5.14739 4.09402 6.7572 5.48855 6.7572 5.51179C6.7572 5.64461 8.66904 15.7715 8.72366 15.9176C8.95184 16.5585 9.58485 17.0001 10.2757 17.0001C10.417 17.0001 10.6131 16.9768 10.7094 16.9503C10.8058 16.927 11.4935 16.6249 12.2325 16.2862L13.582 15.6719L13.6624 15.7517C13.8295 15.911 14.0158 15.984 14.2761 15.984C14.5107 15.9874 14.5428 15.9741 15.33 15.6388C16.2329 15.2569 16.3776 15.1606 16.5125 14.8585C16.5703 14.7323 16.5896 14.6327 16.5896 14.4501V14.2077L15.3043 10.9671L14.0191 7.72312L14.1476 7.56377C14.35 7.31807 14.4207 7.13209 14.4175 6.83991C14.4175 6.52116 14.3339 6.31201 14.1058 6.08619C14.0126 5.99326 13.3089 5.35242 12.541 4.66511C11.561 3.78855 11.0918 3.38679 10.9665 3.32703C10.8219 3.2573 10.7448 3.2407 10.5488 3.2407C10.16 3.24402 10.009 3.34363 9.53664 3.8948L9.34383 4.12058L8.91006 3.74207C8.00072 2.95183 6.34914 1.57722 6.22702 1.5075C6.15633 1.46433 5.06384 1.1157 3.80105 0.733864C1.32046 -0.0231667 1.27869 -0.0331277 0.950937 0.0897239ZM3.58577 1.295C4.79072 1.66023 5.82538 1.9823 5.88323 2.00886C5.94103 2.03543 6.37163 2.38074 6.84072 2.77586L7.69225 3.49304L7.49944 3.71218C7.39344 3.83504 7.16525 4.0907 6.99174 4.27996L6.67686 4.62527L6.03421 4.07078C5.68077 3.76531 5.34018 3.4864 5.27913 3.4532C5.21807 3.42 4.24769 3.11453 3.12628 2.77586C2.00487 2.43386 1.02806 2.13172 0.960577 2.10183C0.819198 2.03543 0.716375 1.88933 0.716375 1.74656C0.716375 1.69343 0.767786 1.46765 0.832052 1.23855C0.934875 0.889918 0.967005 0.813554 1.06019 0.730543C1.13731 0.66082 1.20157 0.630934 1.2819 0.630934C1.34616 0.630934 2.38081 0.92976 3.58577 1.295ZM10.8058 3.93797C10.8669 3.98113 11.5545 4.58875 12.3321 5.28933C13.2447 6.10942 13.7684 6.60084 13.807 6.67722C13.8969 6.84654 13.8455 6.99263 13.6013 7.28815C13.4953 7.41434 13.4021 7.56043 13.3925 7.61024C13.3764 7.67665 13.6849 8.48013 14.6906 11.0235C15.5357 13.1518 16.0112 14.3903 16.0112 14.4633C16.0112 14.6692 15.902 14.7422 15.1276 15.0676C14.7388 15.2304 14.3886 15.3731 14.35 15.3864C14.2375 15.4229 14.064 15.3267 13.9708 15.1739C13.8809 15.0278 13.7588 14.9581 13.6431 14.9913C13.6045 15.0013 12.8944 15.32 12.0687 15.6985L10.5649 16.3858H10.2917C10.0636 16.3858 9.98967 16.3725 9.83546 16.2962C9.61693 16.1899 9.39845 15.9741 9.30204 15.7649C9.24743 15.6554 8.96144 14.1712 8.2674 10.4392C7.73722 7.59364 7.2938 5.23621 7.28414 5.203C7.27455 5.1698 7.23594 5.11668 7.20062 5.08015L7.13312 5.01707L7.50268 4.60867C7.70509 4.38289 7.93645 4.12722 8.01355 4.0409L8.15493 3.88152L8.698 4.34636C8.99358 4.60535 9.27314 4.82449 9.31493 4.83445C9.46914 4.87429 9.54948 4.81453 9.89332 4.40613C10.0797 4.18367 10.2725 3.96785 10.3174 3.928C10.4652 3.79851 10.6195 3.80183 10.8058 3.93797Z" fill="#A5A5A5"/>
<path d="M7.98762 5.30729C7.88798 5.3239 7.78516 5.46999 7.78516 5.59284C7.78516 5.64929 7.82053 5.83855 7.86549 6.01122C7.95549 6.3698 8.0101 6.44285 8.20933 6.44285C8.35712 6.44285 8.49208 6.31999 8.49208 6.18054C8.48885 6.01122 8.3025 5.34714 8.25748 5.34714C8.2543 5.34714 8.2061 5.33386 8.15466 5.32058C8.10004 5.30729 8.02617 5.30065 7.98762 5.30729Z" fill="#A5A5A5"/>
<path d="M8.36372 6.81943C8.31875 6.84267 8.26413 6.90574 8.23841 6.95889C8.19663 7.04519 8.20951 7.12821 8.39586 7.95163C8.50833 8.44639 8.61757 8.89128 8.64005 8.9378C8.69149 9.04071 8.74287 9.06729 8.90997 9.06729C9.05776 9.06729 9.16705 8.95106 9.16705 8.79172C9.16705 8.73856 9.0803 8.30359 8.971 7.82549C8.76218 6.89911 8.73322 6.82941 8.54046 6.79286C8.48903 6.78288 8.40869 6.79286 8.36372 6.81943Z" fill="#A5A5A5"/>
<path d="M10.3513 8.96101C10.1971 8.99422 9.99142 9.06063 9.89183 9.10381C9.65723 9.21669 9.41303 9.47566 9.29096 9.74131C9.11745 10.1265 9.12063 10.1796 9.49014 12.6964C9.66688 13.9216 9.83074 14.9741 9.85004 15.0372C9.93356 15.3128 10.1489 15.4688 10.4381 15.4688C10.618 15.4688 10.7208 15.4257 12.0126 14.838C12.774 14.4894 13.4135 14.1805 13.436 14.1474C13.4585 14.1175 13.4842 14.0577 13.497 14.0145C13.5163 13.9382 12.215 9.87408 12.0864 9.61183C12.0029 9.43917 11.7651 9.18014 11.598 9.08052C11.2799 8.88797 10.8719 8.84813 10.3513 8.96101ZM11.1321 9.52881C11.2831 9.58191 11.4373 9.70811 11.5306 9.85085C11.5916 9.95047 12.8319 13.6858 12.8319 13.7755C12.8319 13.7987 12.2214 14.0876 12.2085 14.0676C12.2021 14.061 11.9643 13.3405 11.6784 12.464C11.3891 11.5874 11.116 10.7971 11.0711 10.7075C10.9554 10.4851 10.6919 10.1962 10.3674 9.93387C10.2195 9.81436 10.1007 9.70811 10.1007 9.6915C10.1007 9.6583 10.3481 9.57194 10.5666 9.52881C10.7947 9.48563 11.0068 9.48563 11.1321 9.52881ZM10.0525 10.4585C10.3256 10.6876 10.4959 10.8735 10.5762 11.0428C10.6116 11.1126 10.8719 11.8796 11.1546 12.7495L11.6719 14.33L11.0775 14.6022C10.4927 14.8645 10.3899 14.901 10.3899 14.8413C10.3899 14.8247 10.2453 13.8219 10.0685 12.6134C9.89183 11.4081 9.74722 10.3755 9.74722 10.319C9.74722 10.1995 9.74722 10.1995 10.0525 10.4585Z" fill="#A5A5A5"/>
<path d="M1.86301 4.56343C1.70556 4.6232 1.64772 4.67964 1.41315 4.99507C0.960093 5.60933 0.474901 6.49254 0.262829 7.0902C0.163219 7.3724 0.156793 7.41558 0.156793 7.83724C0.15358 8.2224 0.163219 8.31205 0.22427 8.48142C0.535951 9.33471 1.29748 9.84273 2.1779 9.78294C2.70808 9.74974 3.09366 9.57044 3.45033 9.1986C3.96766 8.65737 4.11868 7.91362 3.86805 7.14664C3.62063 6.38294 2.68237 4.80581 2.35784 4.6066C2.2261 4.52691 2.01081 4.50699 1.86301 4.56343ZM2.51529 5.78199C3.02297 6.57221 3.36036 7.31267 3.40535 7.73767C3.42462 7.94349 3.36036 8.25232 3.25111 8.47474C3.1515 8.67398 2.86552 8.95623 2.65988 9.05251C1.96583 9.38123 1.16895 9.10232 0.841208 8.41501C0.751234 8.22903 0.731958 8.14607 0.722317 7.90699C0.709463 7.66129 0.722318 7.5849 0.79301 7.35914C0.960093 6.84449 1.39388 6.04096 1.83087 5.43335L2.03973 5.14449L2.12006 5.22085C2.16505 5.26402 2.34177 5.51636 2.51529 5.78199Z" fill="#A5A5A5"/>
</g>
</svg>
