<svg width="138" height="33" viewBox="0 0 138 33" fill="none" xmlns="http://www.w3.org/2000/svg">
<g clip-path="url(#clip0_572_12044)">
<path fill-rule="evenodd" clip-rule="evenodd" d="M27.2113 0.739503C28.5589 1.05869 29.7598 1.82225 30.6205 2.90716C31.4813 3.99208 31.9517 5.33517 31.956 6.72004V26.4342C31.9515 28.062 31.3028 29.6219 30.1518 30.7729C29.0008 31.924 27.4409 32.5726 25.8131 32.5771H6.13904C5.33243 32.5771 4.53372 32.4182 3.78854 32.1095C3.04336 31.8008 2.36629 31.3483 1.79603 30.7778C1.22576 30.2074 0.773454 29.5302 0.464953 28.7849C0.156452 28.0396 -0.00220372 27.2409 -0.00195283 26.4342V6.72004C0.00258117 5.09257 0.650971 3.53302 1.80159 2.38204C2.95222 1.23106 4.51156 0.582189 6.13904 0.577148H25.8131C26.2839 0.577397 26.753 0.631871 27.2113 0.739503Z" fill="#FF8B00"/>
<path fill-rule="evenodd" clip-rule="evenodd" d="M7.54102 26.5286L11.0575 22.5364V12.4587C11.058 12.0636 11.2151 11.6847 11.4943 11.4051C11.7736 11.1255 12.1522 10.9679 12.5474 10.9669H17.6703C18.4748 10.9684 19.2459 11.2887 19.8148 11.8576C20.3837 12.4265 20.7039 13.1976 20.7055 14.0021V15.9848C20.7024 16.7437 20.3996 17.4708 19.8629 18.0074C19.3263 18.5441 18.5993 18.8469 17.8403 18.8499H15.4374L12.2341 22.5364H18.0046C19.6877 22.5334 21.3011 21.8636 22.4915 20.6736C23.6818 19.4836 24.3521 17.8704 24.3557 16.1873V14.0747C24.3557 13.9473 24.3519 13.8251 24.3442 13.7079C24.2469 12.0325 23.5136 10.4575 22.2942 9.30447C21.0748 8.15144 19.4612 7.50741 17.783 7.50391H12.4003C11.112 7.50643 9.87719 8.01947 8.96639 8.93063C8.05558 9.8418 7.54303 11.0768 7.54102 12.3651V26.5286Z" fill="white"/>
<path fill-rule="evenodd" clip-rule="evenodd" d="M12.3945 16.752H15.5328L12.3945 20.4022V16.752Z" fill="white"/>
<path fill-rule="evenodd" clip-rule="evenodd" d="M27.2114 0.740234V22.5154C27.2089 23.8318 26.6848 25.0935 25.754 26.0243C24.8232 26.9551 23.5615 27.4792 22.2451 27.4817H0.0878906C0.338813 28.9058 1.08239 30.1963 2.18858 31.1275C3.29476 32.0588 4.69313 32.5715 6.1391 32.576H25.8132C27.441 32.5714 29.0008 31.9228 30.1519 30.7717C31.3029 29.6207 31.9516 28.0609 31.9561 26.4331V6.72077C31.9518 5.3359 31.4813 3.99281 30.6206 2.9079C29.7599 1.82298 28.559 1.05942 27.2114 0.740234Z" fill="url(#paint0_linear_572_12044)"/>
<path fill-rule="evenodd" clip-rule="evenodd" d="M7.5411 26.5279V12.3721C7.54312 11.0838 8.05567 9.84876 8.96647 8.9376C9.87728 8.02643 11.1121 7.51341 12.4004 7.51088H17.7831C19.4613 7.51438 21.0749 8.15841 22.2943 9.31143C23.5137 10.4645 24.247 12.0395 24.3443 13.7149C24.3519 13.8422 24.3558 13.9645 24.3558 14.0816V16.1828C24.3522 17.8659 23.6819 19.4791 22.4915 20.6691C21.3012 21.8591 19.6878 22.5289 18.0047 22.532H12.2342L15.4375 18.8493H17.8347C18.5936 18.8462 19.3206 18.5434 19.8573 18.0068C20.394 17.4701 20.6968 16.7431 20.6998 15.9841V14.0014C20.6983 13.1969 20.378 12.4258 19.8092 11.8569C19.2403 11.288 18.4692 10.9678 17.6647 10.9663H12.5475C12.1523 10.9673 11.7737 11.1248 11.4944 11.4044C11.2152 11.684 11.0581 12.0629 11.0576 12.458V22.5358L7.5411 26.5279ZM12.3909 20.4022L15.5311 16.7481H12.3909V20.3964V20.4022ZM0.0897757 27.4829H22.247C23.5634 27.4804 24.8251 26.9564 25.7559 26.0256C26.6867 25.0948 27.2108 23.833 27.2133 22.5167V0.741468C26.755 0.633836 26.2858 0.57935 25.8151 0.579102H6.14099C4.51385 0.584139 2.95479 1.23276 1.80422 2.38333C0.653652 3.53389 0.00503958 5.09295 1.95494e-06 6.7201V26.4343C-0.000279151 26.7858 0.0297559 27.1366 0.0897757 27.4829Z" fill="#FF8B00"/>
</g>
<mask id="mask0_572_12044" style="mask-type:alpha" maskUnits="userSpaceOnUse" x="33" y="0" width="105" height="33">
<g clip-path="url(#clip1_572_12044)">
<path d="M40.4897 8.81348C42.503 8.81348 43.9712 9.22606 44.8944 10.0512C45.8176 10.8764 46.2799 12.032 46.2812 13.5181C46.2844 14.1728 46.1785 14.8235 45.9679 15.4434C45.7567 16.054 45.4039 16.6058 44.9384 17.0537C44.4002 17.5568 43.7569 17.9339 43.055 18.1577C42.1258 18.4513 41.1544 18.5888 40.1803 18.5646H38.5166V24.4095H35.957V8.81348H40.4897ZM40.3197 10.9375H38.5166V16.431H39.9129C40.6067 16.4463 41.2986 16.3508 41.9624 16.1483C42.475 15.9936 42.924 15.6774 43.2422 15.2467C43.5539 14.7609 43.7068 14.1902 43.6796 13.6136C43.6796 12.712 43.4077 12.0403 42.864 11.5984C42.3202 11.1565 41.4721 10.9362 40.3197 10.9375Z" fill="#444444"/>
<path d="M56.0798 12.3771C56.2709 12.3771 56.4943 12.3771 56.7293 12.4077C56.9338 12.4254 57.1372 12.454 57.3386 12.4936L57.0941 14.8373C56.9142 14.7878 56.73 14.7552 56.544 14.7399C56.3282 14.7189 56.1333 14.7094 55.971 14.7094C55.535 14.7072 55.1019 14.7809 54.6912 14.9271C54.2898 15.0696 53.9228 15.2947 53.6139 15.588C53.291 15.8982 53.0394 16.275 52.8766 16.6921C52.6916 17.1799 52.6015 17.6985 52.6111 18.2201V24.3955H50.0859V12.6006H52.0476L52.3895 14.6807H52.506C52.7435 14.2602 53.0379 13.8746 53.3809 13.5347C53.7286 13.1863 54.1354 12.9023 54.5823 12.6961C55.0519 12.4808 55.5633 12.3719 56.0798 12.3771Z" fill="#444444"/>
<path d="M61.7396 8.07798C62.0968 8.06954 62.447 8.17822 62.7366 8.38742C63.0168 8.59371 63.1575 8.94899 63.1588 9.45326C63.16 9.95753 63.0193 10.3115 62.7366 10.5153C62.4429 10.7205 62.0931 10.8305 61.7348 10.8305C61.3764 10.8305 61.0267 10.7205 60.7329 10.5153C60.4579 10.3052 60.3223 9.94225 60.3223 9.45326C60.3223 8.96427 60.4579 8.59371 60.7329 8.38742C61.0248 8.17529 61.379 8.06642 61.7396 8.07798ZM62.9773 12.6011V24.4094H60.4732V12.6011H62.9773Z" fill="#444444"/>
<path d="M80.8616 12.377C82.1846 12.377 83.1817 12.7182 83.8528 13.4008C84.5239 14.0833 84.8601 15.1784 84.8613 16.6862V24.4087H82.3553V17.1293C82.3553 16.2379 82.1808 15.5624 81.8319 15.1027C81.4843 14.6481 80.9533 14.4208 80.2427 14.4208C79.2482 14.4208 78.5319 14.7391 78.0938 15.3758C77.6558 16.0125 77.4368 16.9351 77.4368 18.1436V24.4049H74.9307V17.1293C74.9448 16.6204 74.8671 16.1132 74.7015 15.6318C74.5736 15.2612 74.3281 14.9426 74.0024 14.7245C73.6456 14.5101 73.234 14.4045 72.8181 14.4208C72.2321 14.3907 71.6525 14.5553 71.1697 14.8888C70.7347 15.2423 70.4263 15.7277 70.291 16.2717C70.0978 17.0004 70.0078 17.7527 70.0236 18.5065V24.4049H67.5176V12.6004H69.4697L69.8212 14.1896H69.9606C70.1877 13.7917 70.4946 13.4451 70.8622 13.1716C71.2234 12.9028 71.6296 12.7003 72.0617 12.5737C72.5084 12.4434 72.9717 12.379 73.437 12.3827C74.2061 12.3586 74.97 12.517 75.6661 12.8449C76.2654 13.1495 76.7435 13.6486 77.0223 14.2603H77.2133C77.566 13.6355 78.1076 13.1387 78.7605 12.8411C79.4183 12.5342 80.1356 12.3757 80.8616 12.377Z" fill="#444444"/>
<path d="M94.0191 12.3791C94.9634 12.3525 95.8979 12.5766 96.7276 13.0285C97.4774 13.4578 98.083 14.1 98.4677 14.8737C98.8945 15.767 99.1027 16.7491 99.0751 17.7388V19.0759H91.1921C91.2214 20.222 91.5289 21.1038 92.1147 21.7214C92.7004 22.339 93.5237 22.6478 94.5845 22.6478C95.2681 22.6555 95.9503 22.5824 96.6168 22.43C97.2551 22.2713 97.8778 22.0553 98.4772 21.7844V23.8168C97.9025 24.0886 97.298 24.2925 96.676 24.4242C95.9515 24.5622 95.2149 24.6262 94.4775 24.6152C93.4191 24.6374 92.371 24.4048 91.4213 23.9371C90.5455 23.4885 89.8272 22.7835 89.3622 21.9162C88.8694 21.0248 88.6224 19.9119 88.6211 18.5774C88.6198 17.2428 88.8439 16.1241 89.2935 15.2213C89.6991 14.3449 90.3568 13.6094 91.1826 13.1087C92.0434 12.6103 93.0246 12.3579 94.0191 12.3791ZM94.0191 14.2662C93.6649 14.2522 93.3117 14.3129 92.9825 14.4446C92.6534 14.5763 92.3557 14.7758 92.109 15.0303C91.62 15.5422 91.3354 16.2929 91.2494 17.2804H96.6264C96.6291 16.7443 96.5293 16.2127 96.3322 15.7141C96.1613 15.2805 95.8637 14.9085 95.4784 14.6464C95.0413 14.3756 94.5327 14.2432 94.0191 14.2662Z" fill="#444444"/>
<path d="M107.617 24.6239C106.611 24.649 105.615 24.4252 104.716 23.9726C103.888 23.5289 103.226 22.8294 102.829 21.9784C102.387 21.087 102.166 19.9493 102.166 18.5651C102.166 17.1287 102.408 15.9552 102.892 15.0447C103.332 14.1766 104.036 13.4704 104.903 13.0277C105.821 12.5805 106.832 12.3579 107.852 12.3782C108.495 12.3716 109.136 12.4415 109.762 12.5864C110.265 12.6998 110.753 12.8696 111.218 13.0926L110.473 15.0982C110.038 14.9198 109.591 14.7698 109.136 14.6494C108.709 14.5293 108.269 14.4651 107.826 14.4583C107.22 14.4362 106.621 14.5959 106.107 14.9168C105.627 15.25 105.268 15.7289 105.083 16.2825C104.839 17.0069 104.725 17.7686 104.747 18.5326C104.726 19.2781 104.842 20.0211 105.087 20.7254C105.277 21.2658 105.632 21.7332 106.101 22.0625C106.594 22.3773 107.17 22.5351 107.755 22.5152C108.343 22.5233 108.929 22.4441 109.493 22.2802C109.996 22.1275 110.482 21.924 110.943 21.6728V23.8484C110.492 24.1066 110.007 24.2995 109.503 24.4215C108.884 24.5622 108.252 24.6301 107.617 24.6239Z" fill="#444444"/>
<path d="M119.292 12.377C120.783 12.377 121.912 12.7074 122.679 13.3683C123.445 14.0292 123.827 15.06 123.825 16.4608V24.4087H122.043L121.563 22.7336H121.479C121.178 23.1262 120.83 23.4809 120.444 23.7898C120.076 24.0733 119.658 24.2851 119.212 24.4144C118.657 24.564 118.084 24.6341 117.51 24.6226C116.86 24.6364 116.216 24.5059 115.623 24.2406C115.074 23.9871 114.616 23.5718 114.31 23.0506C113.968 22.4316 113.802 21.7308 113.829 21.024C113.829 19.8079 114.282 18.8942 115.189 18.283C116.096 17.6718 117.467 17.3311 119.303 17.2611L121.351 17.1866V16.5677C121.351 15.7502 121.16 15.167 120.778 14.8181C120.396 14.4704 119.861 14.2966 119.172 14.2966C118.589 14.2956 118.01 14.3819 117.453 14.5526C116.898 14.7232 116.356 14.9332 115.831 15.181L115.021 13.4103C116.34 12.7295 117.804 12.3751 119.288 12.377H119.292ZM121.34 18.7663L119.812 18.8197C118.561 18.8618 117.683 19.0751 117.177 19.4596C116.931 19.6404 116.733 19.8787 116.6 20.1536C116.466 20.4286 116.403 20.732 116.413 21.0374C116.413 21.6219 116.587 22.0459 116.935 22.3133C117.337 22.5956 117.821 22.7361 118.312 22.7125C119.099 22.7412 119.868 22.4771 120.471 21.9714C121.044 21.4761 121.33 20.749 121.33 19.7901L121.34 18.7663Z" fill="#444444"/>
<path d="M134.275 12.377C134.466 12.377 134.69 12.3771 134.925 12.4076C135.129 12.4253 135.333 12.454 135.534 12.4936L135.299 14.8373C135.119 14.7877 134.935 14.7551 134.749 14.7398C134.531 14.7188 134.338 14.7093 134.176 14.7093C133.74 14.7071 133.307 14.7808 132.896 14.927C132.495 15.0695 132.128 15.2947 131.819 15.5879C131.496 15.8982 131.245 16.2749 131.082 16.692C130.897 17.1798 130.807 17.6984 130.816 18.2201V24.3954H128.291V12.6005H130.253L130.595 14.6806H130.711C130.949 14.2602 131.243 13.8745 131.586 13.5346C131.934 13.1862 132.34 12.9023 132.787 12.696C133.254 12.4821 133.762 12.3732 134.275 12.377Z" fill="#444444"/>
</g>
</mask>
<g mask="url(#mask0_572_12044)">
<rect x="34.416" y="0.577148" width="105.057" height="32" fill="#D16A00"/>
</g>
<defs>
<linearGradient id="paint0_linear_572_12044" x1="16.022" y1="0.908324" x2="16.0239" y2="27.4798" gradientUnits="userSpaceOnUse">
<stop stop-color="#FBD356"/>
<stop offset="1" stop-color="#F36C21"/>
</linearGradient>
<clipPath id="clip0_572_12044">
<rect width="32" height="32" fill="white" transform="translate(0 0.577148)"/>
</clipPath>
<clipPath id="clip1_572_12044">
<rect width="103.849" height="32" fill="white" transform="translate(33.209 0.577148)"/>
</clipPath>
</defs>
</svg>
