<svg width="36" height="36" viewBox="0 0 36 36" fill="none" xmlns="http://www.w3.org/2000/svg">
<g clip-path="url(#clip0_927_7321)">
<g clip-path="url(#clip1_927_7321)">
<path d="M31.3177 4.87305H4.19362C1.88807 4.87305 0.125 6.73406 0.125 9.1677V26.3463C0.125 28.78 1.88807 30.641 4.19362 30.641H31.3177C33.6233 30.641 35.3864 28.78 35.3864 26.3463V9.1677C35.3864 6.73406 33.6233 4.87305 31.3177 4.87305ZM32.4027 26.9189L21.8243 18.9022L17.7557 21.7654L13.5514 18.9022L3.10865 26.9189L11.6528 17.6139L1.20996 9.02455L17.7557 18.4728L34.1658 9.1677L23.8586 17.757L32.4027 26.9189Z" fill="#FF8C00"/>
</g>
</g>
<defs>
<clipPath id="clip0_927_7321">
<rect x="0.125" y="0.125" width="35.2614" height="35.2614" rx="8" fill="white"/>
</clipPath>
<clipPath id="clip1_927_7321">
<rect width="35.2614" height="37.2203" fill="white" transform="translate(0.125 -0.853516)"/>
</clipPath>
</defs>
</svg>
