<svg width="28" height="37" viewBox="0 0 28 37" fill="none" xmlns="http://www.w3.org/2000/svg">
<path d="M15.5877 36.075C19.2949 31.4355 27.75 20.191 27.75 13.875C27.75 6.21484 21.5352 0 13.875 0C6.21484 0 0 6.21484 0 13.875C0 20.191 8.45508 31.4355 12.1623 36.075C13.0512 37.1807 14.6988 37.1807 15.5877 36.075ZM13.875 9.25C15.1016 9.25 16.278 9.73728 17.1454 10.6046C18.0127 11.472 18.5 12.6484 18.5 13.875C18.5 15.1016 18.0127 16.278 17.1454 17.1454C16.278 18.0127 15.1016 18.5 13.875 18.5C12.6484 18.5 11.472 18.0127 10.6046 17.1454C9.73728 16.278 9.25 15.1016 9.25 13.875C9.25 12.6484 9.73728 11.472 10.6046 10.6046C11.472 9.73728 12.6484 9.25 13.875 9.25Z" fill="#FF8C00"/>
</svg>
