<svg width="140" height="140" viewBox="0 0 140 140" fill="none" xmlns="http://www.w3.org/2000/svg">
<g clip-path="url(#clip0_927_11457)">
<g opacity="0.91">
<path d="M17.8847 11.535C17.8872 11.801 17.81 12.0617 17.6629 12.2841C17.5157 12.5065 17.3054 12.6804 17.0585 12.784C16.8116 12.8875 16.5392 12.9158 16.276 12.8654C16.0129 12.815 15.7707 12.6882 15.5803 12.501C15.3899 12.3138 15.2598 12.0746 15.2066 11.8139C15.1534 11.5532 15.1794 11.2827 15.2814 11.0367C15.3834 10.7907 15.5568 10.5803 15.7794 10.4322C16.0021 10.2842 16.2641 10.2051 16.5322 10.2051C16.8887 10.2051 17.2308 10.3448 17.4841 10.5939C17.7374 10.8429 17.8814 11.1811 17.8847 11.535Z" fill="#E0EDFE"/>
<path d="M26.8007 11.535C26.8032 11.801 26.726 12.0617 26.5789 12.2841C26.4318 12.5065 26.2214 12.6804 25.9745 12.784C25.7276 12.8875 25.4552 12.9158 25.1921 12.8654C24.9289 12.815 24.6867 12.6882 24.4963 12.501C24.3059 12.3138 24.1758 12.0746 24.1226 11.8139C24.0694 11.5532 24.0955 11.2827 24.1975 11.0367C24.2994 10.7907 24.4728 10.5803 24.6954 10.4322C24.9181 10.2842 25.1801 10.2051 25.4482 10.2051C25.8047 10.2051 26.1469 10.3448 26.4001 10.5939C26.6534 10.8429 26.7974 11.1811 26.8007 11.535Z" fill="#E0EDFE"/>
<path d="M35.7187 11.535C35.7212 11.801 35.644 12.0617 35.4969 12.2841C35.3498 12.5065 35.1394 12.6804 34.8925 12.784C34.6456 12.8875 34.3732 12.9158 34.11 12.8654C33.8468 12.815 33.6047 12.6882 33.4143 12.501C33.2239 12.3138 33.0938 12.0746 33.0406 11.8139C32.9874 11.5532 33.0134 11.2827 33.1154 11.0367C33.2174 10.7907 33.3907 10.5803 33.6134 10.4322C33.8361 10.2842 34.0981 10.2051 34.3661 10.2051C34.7227 10.2051 35.0648 10.3448 35.3181 10.5939C35.5714 10.8429 35.7154 11.1811 35.7187 11.535Z" fill="#E0EDFE"/>
<path d="M44.6347 11.535C44.6372 11.8016 44.5597 12.0628 44.412 12.2855C44.2643 12.5081 44.0532 12.682 43.8056 12.7851C43.5579 12.8883 43.2849 12.916 43.0214 12.8646C42.7579 12.8132 42.5157 12.685 42.3258 12.4966C42.1359 12.3081 42.0069 12.0678 41.9551 11.8062C41.9033 11.5447 41.9311 11.2738 42.035 11.028C42.1389 10.7822 42.3143 10.5727 42.5386 10.4262C42.7629 10.2796 43.0261 10.2027 43.2947 10.2051C43.4707 10.2051 43.6449 10.2396 43.8075 10.3064C43.9701 10.3732 44.1178 10.4712 44.2422 10.5947C44.3667 10.7182 44.4654 10.8647 44.5327 11.0261C44.6 11.1874 44.6347 11.3604 44.6347 11.535Z" fill="#E0EDFE"/>
<path d="M53.5507 11.535C53.5532 11.8016 53.4757 12.0628 53.328 12.2855C53.1804 12.5081 52.9692 12.682 52.7216 12.7851C52.474 12.8883 52.201 12.916 51.9374 12.8646C51.6739 12.8132 51.4318 12.685 51.2419 12.4966C51.0519 12.3081 50.9229 12.0678 50.8711 11.8062C50.8193 11.5447 50.8471 11.2738 50.951 11.028C51.055 10.7822 51.2303 10.5727 51.4546 10.4262C51.6789 10.2796 51.9421 10.2027 52.2107 10.2051C52.3867 10.2051 52.5609 10.2396 52.7235 10.3064C52.8861 10.3732 53.0338 10.4712 53.1582 10.5947C53.2827 10.7182 53.3814 10.8647 53.4487 11.0261C53.5161 11.1874 53.5507 11.3604 53.5507 11.535Z" fill="#E0EDFE"/>
<path d="M62.4433 11.535C62.4458 11.801 62.3686 12.0617 62.2215 12.2841C62.0744 12.5065 61.864 12.6804 61.6171 12.784C61.3702 12.8875 61.0978 12.9158 60.8346 12.8654C60.5714 12.815 60.3293 12.6882 60.1389 12.501C59.9485 12.3138 59.8184 12.0746 59.7652 11.8139C59.712 11.5532 59.738 11.2827 59.84 11.0367C59.942 10.7907 60.1154 10.5803 60.3381 10.4322C60.5607 10.2842 60.8227 10.2051 61.0908 10.2051C61.4473 10.2051 61.7895 10.3448 62.0428 10.5939C62.2961 10.8429 62.44 11.1811 62.4433 11.535Z" fill="#E0EDFE"/>
<path d="M71.3984 11.535C71.4009 11.801 71.3237 12.0617 71.1766 12.2841C71.0294 12.5065 70.8191 12.6804 70.5722 12.784C70.3252 12.8875 70.0529 12.9158 69.7897 12.8654C69.5266 12.815 69.2844 12.6882 69.094 12.501C68.9036 12.3138 68.7735 12.0746 68.7203 11.8139C68.6671 11.5532 68.6931 11.2827 68.7951 11.0367C68.8971 10.7907 69.0705 10.5803 69.2931 10.4322C69.5158 10.2842 69.7778 10.2051 70.0459 10.2051C70.4024 10.2051 70.7445 10.3448 70.9978 10.5939C71.2511 10.8429 71.3951 11.1811 71.3984 11.535Z" fill="#E0EDFE"/>
<path d="M17.8847 17.9979C17.8872 18.2639 17.81 18.5246 17.6629 18.747C17.5157 18.9694 17.3054 19.1433 17.0585 19.2468C16.8116 19.3504 16.5392 19.3787 16.276 19.3283C16.0129 19.2779 15.7707 19.1511 15.5803 18.9639C15.3899 18.7767 15.2598 18.5375 15.2066 18.2767C15.1534 18.016 15.1794 17.7456 15.2814 17.4996C15.3834 17.2535 15.5568 17.0431 15.7794 16.8951C16.0021 16.747 16.2641 16.668 16.5322 16.668C16.8887 16.668 17.2308 16.8077 17.4841 17.0568C17.7374 17.3058 17.8814 17.644 17.8847 17.9979Z" fill="#E0EDFE"/>
<path d="M26.8027 17.9979C26.8052 18.2639 26.7279 18.5246 26.5808 18.747C26.4337 18.9694 26.2234 19.1433 25.9765 19.2468C25.7295 19.3504 25.4572 19.3787 25.194 19.3283C24.9308 19.2779 24.6886 19.1511 24.4982 18.9639C24.3078 18.7767 24.1778 18.5375 24.1246 18.2767C24.0714 18.016 24.0974 17.7456 24.1994 17.4996C24.3014 17.2535 24.4747 17.0431 24.6974 16.8951C24.9201 16.747 25.1821 16.668 25.4501 16.668C25.8067 16.668 26.1488 16.8077 26.4021 17.0568C26.6554 17.3058 26.7994 17.644 26.8027 17.9979Z" fill="#E0EDFE"/>
<path d="M35.7187 17.9979C35.7212 18.2639 35.644 18.5246 35.4969 18.747C35.3498 18.9694 35.1394 19.1433 34.8925 19.2468C34.6456 19.3504 34.3732 19.3787 34.11 19.3283C33.8468 19.2779 33.6047 19.1511 33.4143 18.9639C33.2239 18.7767 33.0938 18.5375 33.0406 18.2767C32.9874 18.016 33.0134 17.7456 33.1154 17.4996C33.2174 17.2535 33.3907 17.0431 33.6134 16.8951C33.8361 16.747 34.0981 16.668 34.3661 16.668C34.7227 16.668 35.0648 16.8077 35.3181 17.0568C35.5714 17.3058 35.7154 17.644 35.7187 17.9979Z" fill="#E0EDFE"/>
<path d="M44.6347 17.9979C44.6372 18.2645 44.5597 18.5257 44.412 18.7483C44.2643 18.971 44.0532 19.1449 43.8056 19.248C43.5579 19.3512 43.2849 19.3789 43.0214 19.3275C42.7579 19.2761 42.5157 19.1479 42.3258 18.9595C42.1359 18.771 42.0069 18.5307 41.9551 18.2691C41.9033 18.0076 41.9311 17.7367 42.035 17.4909C42.1389 17.2451 42.3143 17.0356 42.5386 16.8891C42.7629 16.7425 43.0261 16.6656 43.2947 16.668C43.6501 16.668 43.9909 16.8082 44.2422 17.0576C44.4935 17.307 44.6347 17.6452 44.6347 17.9979Z" fill="#E0EDFE"/>
<path d="M53.5507 17.9979C53.5532 18.2645 53.4757 18.5257 53.328 18.7483C53.1804 18.971 52.9692 19.1449 52.7216 19.248C52.474 19.3512 52.201 19.3789 51.9374 19.3275C51.6739 19.2761 51.4318 19.1479 51.2419 18.9595C51.0519 18.771 50.9229 18.5307 50.8711 18.2691C50.8193 18.0076 50.8471 17.7367 50.951 17.4909C51.055 17.2451 51.2303 17.0356 51.4546 16.8891C51.6789 16.7425 51.9421 16.6656 52.2107 16.668C52.5661 16.668 52.9069 16.8082 53.1582 17.0576C53.4095 17.307 53.5507 17.6452 53.5507 17.9979Z" fill="#E0EDFE"/>
<path d="M62.4433 17.9979C62.4458 18.2639 62.3686 18.5246 62.2215 18.747C62.0744 18.9694 61.864 19.1433 61.6171 19.2468C61.3702 19.3504 61.0978 19.3787 60.8346 19.3283C60.5714 19.2779 60.3293 19.1511 60.1389 18.9639C59.9485 18.7767 59.8184 18.5375 59.7652 18.2767C59.712 18.016 59.738 17.7456 59.84 17.4996C59.942 17.2535 60.1154 17.0431 60.3381 16.8951C60.5607 16.747 60.8227 16.668 61.0908 16.668C61.4473 16.668 61.7895 16.8077 62.0428 17.0568C62.2961 17.3058 62.44 17.644 62.4433 17.9979Z" fill="#E0EDFE"/>
<path d="M71.3964 17.9979C71.3989 18.2639 71.3217 18.5246 71.1746 18.747C71.0275 18.9694 70.8171 19.1433 70.5702 19.2468C70.3233 19.3504 70.051 19.3787 69.7878 19.3283C69.5246 19.2779 69.2824 19.1511 69.092 18.9639C68.9016 18.7767 68.7715 18.5375 68.7183 18.2767C68.6651 18.016 68.6912 17.7456 68.7932 17.4996C68.8951 17.2535 69.0685 17.0431 69.2912 16.8951C69.5139 16.747 69.7759 16.668 70.0439 16.668C70.4005 16.668 70.7426 16.8077 70.9959 17.0568C71.2492 17.3058 71.3931 17.644 71.3964 17.9979Z" fill="#E0EDFE"/>
<path d="M17.8847 24.5116C17.8872 24.7776 17.81 25.0383 17.6629 25.2607C17.5157 25.483 17.3054 25.657 17.0585 25.7605C16.8116 25.864 16.5392 25.8924 16.276 25.842C16.0129 25.7916 15.7707 25.6648 15.5803 25.4776C15.3899 25.2903 15.2598 25.0512 15.2066 24.7905C15.1534 24.5298 15.1794 24.2592 15.2814 24.0132C15.3834 23.7672 15.5568 23.5568 15.7794 23.4088C16.0021 23.2607 16.2641 23.1817 16.5322 23.1816C16.8887 23.1816 17.2308 23.3214 17.4841 23.5704C17.7374 23.8195 17.8814 24.1577 17.8847 24.5116Z" fill="#E0EDFE"/>
<path d="M26.8027 24.5116C26.8052 24.7776 26.7279 25.0383 26.5808 25.2607C26.4337 25.483 26.2234 25.657 25.9765 25.7605C25.7295 25.864 25.4572 25.8924 25.194 25.842C24.9308 25.7916 24.6886 25.6648 24.4982 25.4776C24.3078 25.2903 24.1778 25.0512 24.1246 24.7905C24.0714 24.5298 24.0974 24.2592 24.1994 24.0132C24.3014 23.7672 24.4747 23.5568 24.6974 23.4088C24.9201 23.2607 25.1821 23.1817 25.4501 23.1816C25.8067 23.1816 26.1488 23.3214 26.4021 23.5704C26.6554 23.8195 26.7994 24.1577 26.8027 24.5116Z" fill="#E0EDFE"/>
<path d="M35.7187 24.5116C35.7212 24.7776 35.644 25.0383 35.4969 25.2607C35.3498 25.483 35.1394 25.657 34.8925 25.7605C34.6456 25.864 34.3732 25.8924 34.11 25.842C33.8468 25.7916 33.6047 25.6648 33.4143 25.4776C33.2239 25.2903 33.0938 25.0512 33.0406 24.7905C32.9874 24.5298 33.0134 24.2592 33.1154 24.0132C33.2174 23.7672 33.3907 23.5568 33.6134 23.4088C33.8361 23.2607 34.0981 23.1817 34.3661 23.1816C34.7227 23.1816 35.0648 23.3214 35.3181 23.5704C35.5714 23.8195 35.7154 24.1577 35.7187 24.5116Z" fill="#E0EDFE"/>
<path d="M44.6347 24.5116C44.6372 24.7781 44.5597 25.0394 44.412 25.262C44.2643 25.4847 44.0532 25.6586 43.8056 25.7617C43.5579 25.8648 43.2849 25.8925 43.0214 25.8411C42.7579 25.7897 42.5157 25.6616 42.3258 25.4731C42.1359 25.2847 42.0069 25.0443 41.9551 24.7828C41.9033 24.5213 41.9311 24.2503 42.035 24.0046C42.1389 23.7588 42.3143 23.5493 42.5386 23.4028C42.7629 23.2562 43.0261 23.1792 43.2947 23.1817C43.6501 23.1817 43.9909 23.3218 44.2422 23.5712C44.4935 23.8206 44.6347 24.1589 44.6347 24.5116Z" fill="#E0EDFE"/>
<path d="M53.5527 24.5116C53.5551 24.7781 53.4776 25.0394 53.33 25.262C53.1823 25.4847 52.9712 25.6586 52.7236 25.7617C52.4759 25.8648 52.2029 25.8925 51.9394 25.8411C51.6759 25.7897 51.4337 25.6616 51.2438 25.4731C51.0539 25.2847 50.9248 25.0443 50.873 24.7828C50.8213 24.5213 50.8491 24.2503 50.953 24.0046C51.0569 23.7588 51.2322 23.5493 51.4566 23.4028C51.6809 23.2562 51.9441 23.1792 52.2126 23.1817C52.568 23.1817 52.9089 23.3218 53.1602 23.5712C53.4115 23.8206 53.5527 24.1589 53.5527 24.5116Z" fill="#E0EDFE"/>
<path d="M62.4433 24.5116C62.4458 24.7776 62.3686 25.0383 62.2215 25.2607C62.0744 25.483 61.864 25.657 61.6171 25.7605C61.3702 25.864 61.0978 25.8924 60.8346 25.842C60.5714 25.7916 60.3293 25.6648 60.1389 25.4776C59.9485 25.2903 59.8184 25.0512 59.7652 24.7905C59.712 24.5298 59.738 24.2592 59.84 24.0132C59.942 23.7672 60.1154 23.5568 60.3381 23.4088C60.5607 23.2607 60.8227 23.1817 61.0908 23.1816C61.4473 23.1816 61.7895 23.3214 62.0428 23.5704C62.2961 23.8195 62.44 24.1577 62.4433 24.5116Z" fill="#E0EDFE"/>
<path d="M71.3964 24.5116C71.3989 24.7776 71.3217 25.0383 71.1746 25.2607C71.0275 25.483 70.8171 25.657 70.5702 25.7605C70.3233 25.864 70.051 25.8924 69.7878 25.842C69.5246 25.7916 69.2824 25.6648 69.092 25.4776C68.9016 25.2903 68.7715 25.0512 68.7183 24.7905C68.6651 24.5298 68.6912 24.2592 68.7932 24.0132C68.8951 23.7672 69.0685 23.5568 69.2912 23.4088C69.5139 23.2607 69.7759 23.1817 70.0439 23.1816C70.4005 23.1816 70.7426 23.3214 70.9959 23.5704C71.2492 23.8195 71.3931 24.1577 71.3964 24.5116Z" fill="#E0EDFE"/>
<path d="M17.8847 31.0233C17.8872 31.2893 17.81 31.55 17.6629 31.7724C17.5157 31.9948 17.3054 32.1687 17.0585 32.2722C16.8116 32.3757 16.5392 32.4041 16.276 32.3537C16.0129 32.3033 15.7707 32.1765 15.5803 31.9893C15.3899 31.8021 15.2598 31.5629 15.2066 31.3022C15.1534 31.0415 15.1794 30.7709 15.2814 30.5249C15.3834 30.2789 15.5568 30.0685 15.7794 29.9205C16.0021 29.7724 16.2641 29.6934 16.5322 29.6934C16.8887 29.6933 17.2308 29.8331 17.4841 30.0821C17.7374 30.3312 17.8814 30.6694 17.8847 31.0233Z" fill="#E0EDFE"/>
<path d="M26.8027 31.0233C26.8052 31.2893 26.7279 31.55 26.5808 31.7724C26.4337 31.9948 26.2234 32.1687 25.9765 32.2722C25.7295 32.3757 25.4572 32.4041 25.194 32.3537C24.9308 32.3033 24.6886 32.1765 24.4982 31.9893C24.3078 31.8021 24.1778 31.5629 24.1246 31.3022C24.0714 31.0415 24.0974 30.7709 24.1994 30.5249C24.3014 30.2789 24.4747 30.0685 24.6974 29.9205C24.9201 29.7724 25.1821 29.6934 25.4501 29.6934C25.8067 29.6933 26.1488 29.8331 26.4021 30.0821C26.6554 30.3312 26.7994 30.6694 26.8027 31.0233Z" fill="#E0EDFE"/>
<path d="M35.7187 31.0233C35.7212 31.2893 35.644 31.55 35.4969 31.7724C35.3498 31.9948 35.1394 32.1687 34.8925 32.2722C34.6456 32.3757 34.3732 32.4041 34.11 32.3537C33.8468 32.3033 33.6047 32.1765 33.4143 31.9893C33.2239 31.8021 33.0938 31.5629 33.0406 31.3022C32.9874 31.0415 33.0134 30.7709 33.1154 30.5249C33.2174 30.2789 33.3907 30.0685 33.6134 29.9205C33.8361 29.7724 34.0981 29.6934 34.3661 29.6934C34.7227 29.6933 35.0648 29.8331 35.3181 30.0821C35.5714 30.3312 35.7154 30.6694 35.7187 31.0233Z" fill="#E0EDFE"/>
<path d="M44.6347 31.0233C44.6372 31.2899 44.5597 31.5511 44.412 31.7737C44.2643 31.9964 44.0532 32.1704 43.8056 32.2735C43.5579 32.3766 43.2849 32.4043 43.0214 32.3529C42.7579 32.3015 42.5157 32.1733 42.3258 31.9849C42.1359 31.7964 42.0069 31.5561 41.9551 31.2945C41.9033 31.033 41.9311 30.7621 42.035 30.5163C42.1389 30.2705 42.3143 30.061 42.5386 29.9145C42.7629 29.7679 43.0261 29.691 43.2947 29.6934C43.4707 29.6934 43.6449 29.7279 43.8075 29.7947C43.9701 29.8615 44.1178 29.9595 44.2422 30.083C44.3667 30.2065 44.4654 30.353 44.5327 30.5144C44.6 30.6757 44.6347 30.8487 44.6347 31.0233Z" fill="#E0EDFE"/>
<path d="M53.5527 31.0233C53.5551 31.2899 53.4776 31.5511 53.33 31.7737C53.1823 31.9964 52.9712 32.1704 52.7236 32.2735C52.4759 32.3766 52.2029 32.4043 51.9394 32.3529C51.6759 32.3015 51.4337 32.1733 51.2438 31.9849C51.0539 31.7964 50.9248 31.5561 50.873 31.2945C50.8213 31.033 50.8491 30.7621 50.953 30.5163C51.0569 30.2705 51.2322 30.061 51.4566 29.9145C51.6809 29.7679 51.9441 29.691 52.2126 29.6934C52.3886 29.6934 52.5629 29.7279 52.7255 29.7947C52.888 29.8615 53.0358 29.9595 53.1602 30.083C53.2846 30.2065 53.3833 30.353 53.4507 30.5144C53.518 30.6757 53.5527 30.8487 53.5527 31.0233Z" fill="#E0EDFE"/>
<path d="M62.4433 31.0233C62.4458 31.2893 62.3686 31.55 62.2215 31.7724C62.0744 31.9948 61.864 32.1687 61.6171 32.2722C61.3702 32.3757 61.0978 32.4041 60.8346 32.3537C60.5714 32.3033 60.3293 32.1765 60.1389 31.9893C59.9485 31.8021 59.8184 31.5629 59.7652 31.3022C59.712 31.0415 59.738 30.7709 59.84 30.5249C59.942 30.2789 60.1154 30.0685 60.3381 29.9205C60.5607 29.7724 60.8227 29.6934 61.0908 29.6934C61.4473 29.6933 61.7895 29.8331 62.0428 30.0821C62.2961 30.3312 62.44 30.6694 62.4433 31.0233Z" fill="#E0EDFE"/>
<path d="M71.3964 31.0233C71.3989 31.2893 71.3217 31.55 71.1746 31.7724C71.0275 31.9948 70.8171 32.1687 70.5702 32.2722C70.3233 32.3757 70.051 32.4041 69.7878 32.3537C69.5246 32.3033 69.2824 32.1765 69.092 31.9893C68.9016 31.8021 68.7715 31.5629 68.7183 31.3022C68.6651 31.0415 68.6912 30.7709 68.7932 30.5249C68.8951 30.2789 69.0685 30.0685 69.2912 29.9205C69.5139 29.7724 69.7759 29.6934 70.0439 29.6934C70.4005 29.6933 70.7426 29.8331 70.9959 30.0821C71.2492 30.3312 71.3931 30.6694 71.3964 31.0233Z" fill="#E0EDFE"/>
<path d="M17.8848 37.5356C17.8848 37.8011 17.8054 38.0607 17.6568 38.2814C17.5082 38.5022 17.2969 38.6742 17.0498 38.7758C16.8027 38.8774 16.5307 38.904 16.2683 38.8522C16.006 38.8004 15.765 38.6725 15.5758 38.4848C15.3867 38.2971 15.2579 38.0579 15.2057 37.7975C15.1535 37.5371 15.1803 37.2673 15.2826 37.022C15.385 36.7767 15.5584 36.5671 15.7808 36.4196C16.0032 36.2721 16.2647 36.1934 16.5322 36.1934C16.8899 36.1966 17.2321 36.339 17.485 36.59C17.7379 36.8411 17.8815 37.1806 17.8848 37.5356Z" fill="#E0EDFE"/>
<path d="M26.8008 37.5356C26.8008 37.8011 26.7215 38.0607 26.5728 38.2814C26.4242 38.5022 26.213 38.6742 25.9658 38.7758C25.7187 38.8774 25.4467 38.904 25.1844 38.8522C24.922 38.8004 24.681 38.6725 24.4918 38.4848C24.3027 38.2971 24.1739 38.0579 24.1217 37.7975C24.0695 37.5371 24.0963 37.2673 24.1987 37.022C24.301 36.7767 24.4744 36.5671 24.6968 36.4196C24.9192 36.2721 25.1807 36.1934 25.4482 36.1934C25.6258 36.1934 25.8017 36.228 25.9658 36.2955C26.1299 36.3629 26.279 36.4618 26.4046 36.5865C26.5302 36.7111 26.6298 36.8591 26.6978 37.022C26.7658 37.1848 26.8008 37.3594 26.8008 37.5356Z" fill="#E0EDFE"/>
<path d="M35.7187 37.5356C35.7187 37.8011 35.6394 38.0607 35.4908 38.2814C35.3422 38.5022 35.1309 38.6742 34.8838 38.7758C34.6366 38.8774 34.3647 38.904 34.1023 38.8522C33.84 38.8004 33.599 38.6725 33.4098 38.4848C33.2207 38.2971 33.0918 38.0579 33.0397 37.7975C32.9875 37.5371 33.0143 37.2673 33.1166 37.022C33.219 36.7767 33.3924 36.5671 33.6148 36.4196C33.8372 36.2721 34.0987 36.1934 34.3662 36.1934C34.5438 36.1934 34.7197 36.228 34.8838 36.2955C35.0479 36.3629 35.197 36.4618 35.3226 36.5865C35.4482 36.7111 35.5478 36.8591 35.6158 37.022C35.6838 37.1848 35.7187 37.3594 35.7187 37.5356Z" fill="#E0EDFE"/>
<path d="M44.6347 37.5357C44.6347 37.8017 44.5551 38.0618 44.4059 38.2828C44.2567 38.5038 44.0448 38.6758 43.7969 38.777C43.549 38.8782 43.2764 38.9041 43.0137 38.8513C42.751 38.7985 42.51 38.6694 42.3214 38.4804C42.1327 38.2914 42.0049 38.0511 41.9542 37.7899C41.9034 37.5287 41.932 37.2584 42.0363 37.0134C42.1406 36.7683 42.3158 36.5596 42.5399 36.4136C42.764 36.2676 43.0267 36.191 43.2947 36.1934C43.6513 36.1967 43.9921 36.3395 44.243 36.5909C44.494 36.8423 44.6348 37.1818 44.6347 37.5357Z" fill="#E0EDFE"/>
<path d="M53.5527 37.5357C53.5527 37.8017 53.473 38.0618 53.3239 38.2828C53.1747 38.5038 52.9627 38.6758 52.7149 38.777C52.467 38.8782 52.1944 38.9041 51.9317 38.8513C51.669 38.7985 51.428 38.6694 51.2394 38.4804C51.0507 38.2914 50.9229 38.0511 50.8721 37.7899C50.8214 37.5287 50.8499 37.2584 50.9542 37.0134C51.0585 36.7683 51.2339 36.5596 51.4579 36.4136C51.682 36.2676 51.9447 36.191 52.2127 36.1934C52.5692 36.1967 52.9101 36.3395 53.161 36.5909C53.412 36.8423 53.5527 37.1818 53.5527 37.5357Z" fill="#E0EDFE"/>
<path d="M62.4434 37.5356C62.4434 37.8011 62.364 38.0607 62.2154 38.2814C62.0668 38.5022 61.8556 38.6742 61.6084 38.7758C61.3613 38.8774 61.0893 38.904 60.8269 38.8522C60.5646 38.8004 60.3236 38.6725 60.1344 38.4848C59.9453 38.2971 59.8165 38.0579 59.7643 37.7975C59.7121 37.5371 59.7389 37.2673 59.8412 37.022C59.9436 36.7767 60.117 36.5671 60.3394 36.4196C60.5618 36.2721 60.8233 36.1934 61.0908 36.1934C61.4485 36.1966 61.7906 36.339 62.0436 36.59C62.2965 36.8411 62.4401 37.1806 62.4434 37.5356Z" fill="#E0EDFE"/>
<path d="M71.3965 37.5356C71.3965 37.8011 71.3172 38.0607 71.1685 38.2814C71.0199 38.5022 70.8087 38.6742 70.5616 38.7758C70.3144 38.8774 70.0425 38.904 69.7801 38.8522C69.5177 38.8004 69.2767 38.6725 69.0876 38.4848C68.8984 38.2971 68.7696 38.0579 68.7174 37.7975C68.6652 37.5371 68.692 37.2673 68.7944 37.022C68.8967 36.7767 69.0701 36.5671 69.2925 36.4196C69.5149 36.2721 69.7765 36.1934 70.044 36.1934C70.2216 36.1934 70.3975 36.228 70.5616 36.2955C70.7257 36.3629 70.8748 36.4618 71.0003 36.5865C71.1259 36.7111 71.2255 36.8591 71.2935 37.022C71.3615 37.1848 71.3965 37.3594 71.3965 37.5356Z" fill="#E0EDFE"/>
<path d="M17.8848 44.0493C17.8848 44.3148 17.8054 44.5743 17.6568 44.7951C17.5082 45.0158 17.2969 45.1879 17.0498 45.2895C16.8027 45.3911 16.5307 45.4177 16.2683 45.3659C16.006 45.3141 15.765 45.1862 15.5758 44.9985C15.3867 44.8107 15.2579 44.5716 15.2057 44.3113C15.1535 44.0509 15.1803 43.7809 15.2826 43.5357C15.385 43.2904 15.5584 43.0807 15.7808 42.9332C16.0032 42.7858 16.2647 42.707 16.5322 42.707C16.8899 42.7103 17.2321 42.8527 17.485 43.1038C17.7379 43.3548 17.8815 43.6943 17.8848 44.0493Z" fill="#E0EDFE"/>
<path d="M26.8008 44.0493C26.8008 44.3148 26.7215 44.5743 26.5728 44.7951C26.4242 45.0158 26.213 45.1879 25.9658 45.2895C25.7187 45.3911 25.4467 45.4177 25.1844 45.3659C24.922 45.3141 24.681 45.1862 24.4918 44.9985C24.3027 44.8107 24.1739 44.5716 24.1217 44.3113C24.0695 44.0509 24.0963 43.7809 24.1987 43.5357C24.301 43.2904 24.4744 43.0807 24.6968 42.9332C24.9192 42.7858 25.1807 42.707 25.4482 42.707C25.8069 42.707 26.151 42.8484 26.4046 43.1001C26.6583 43.3519 26.8008 43.6933 26.8008 44.0493Z" fill="#E0EDFE"/>
<path d="M35.7187 44.0493C35.7187 44.3148 35.6394 44.5743 35.4908 44.7951C35.3422 45.0158 35.1309 45.1879 34.8838 45.2895C34.6366 45.3911 34.3647 45.4177 34.1023 45.3659C33.84 45.3141 33.599 45.1862 33.4098 44.9985C33.2207 44.8107 33.0918 44.5716 33.0397 44.3113C32.9875 44.0509 33.0143 43.7809 33.1166 43.5357C33.219 43.2904 33.3924 43.0807 33.6148 42.9332C33.8372 42.7858 34.0987 42.707 34.3662 42.707C34.7249 42.707 35.069 42.8484 35.3226 43.1001C35.5763 43.3519 35.7187 43.6933 35.7187 44.0493Z" fill="#E0EDFE"/>
<path d="M44.6347 44.0494C44.6347 44.3154 44.5551 44.5754 44.4059 44.7964C44.2567 45.0174 44.0448 45.1894 43.7969 45.2907C43.549 45.3919 43.2764 45.4177 43.0137 45.3649C42.751 45.3121 42.51 45.183 42.3214 44.9941C42.1327 44.8051 42.0049 44.5648 41.9542 44.3036C41.9034 44.0424 41.932 43.7721 42.0363 43.5271C42.1406 43.282 42.3158 43.0732 42.5399 42.9272C42.764 42.7812 43.0267 42.7046 43.2947 42.7071C43.6513 42.7104 43.9921 42.8532 44.243 43.1046C44.494 43.356 44.6348 43.6955 44.6347 44.0494Z" fill="#E0EDFE"/>
<path d="M53.5508 44.0494C53.5508 44.3154 53.4711 44.5754 53.3219 44.7964C53.1727 45.0174 52.9608 45.1894 52.7129 45.2907C52.465 45.3919 52.1924 45.4177 51.9297 45.3649C51.667 45.3121 51.4261 45.183 51.2374 44.9941C51.0488 44.8051 50.921 44.5648 50.8702 44.3036C50.8194 44.0424 50.848 43.7721 50.9523 43.5271C51.0566 43.282 51.2319 43.0732 51.456 42.9272C51.68 42.7812 51.9427 42.7046 52.2107 42.7071C52.5673 42.7104 52.9081 42.8532 53.1591 43.1046C53.41 43.356 53.5508 43.6955 53.5508 44.0494Z" fill="#E0EDFE"/>
<path d="M62.4434 44.0493C62.4434 44.3148 62.364 44.5743 62.2154 44.7951C62.0668 45.0158 61.8556 45.1879 61.6084 45.2895C61.3613 45.3911 61.0893 45.4177 60.8269 45.3659C60.5646 45.3141 60.3236 45.1862 60.1344 44.9985C59.9453 44.8107 59.8165 44.5716 59.7643 44.3113C59.7121 44.0509 59.7389 43.7809 59.8412 43.5357C59.9436 43.2904 60.117 43.0807 60.3394 42.9332C60.5618 42.7858 60.8233 42.707 61.0908 42.707C61.4485 42.7103 61.7906 42.8527 62.0436 43.1038C62.2965 43.3548 62.4401 43.6943 62.4434 44.0493Z" fill="#E0EDFE"/>
<path d="M71.3984 44.0493C71.3984 44.3148 71.3191 44.5743 71.1705 44.7951C71.0219 45.0158 70.8107 45.1879 70.5635 45.2895C70.3164 45.3911 70.0444 45.4177 69.7821 45.3659C69.5197 45.3141 69.2787 45.1862 69.0895 44.9985C68.9004 44.8107 68.7715 44.5716 68.7193 44.3113C68.6672 44.0509 68.6939 43.7809 68.7963 43.5357C68.8987 43.2904 69.072 43.0807 69.2945 42.9332C69.5169 42.7858 69.7784 42.707 70.0459 42.707C70.4046 42.707 70.7486 42.8484 71.0023 43.1001C71.2559 43.3519 71.3984 43.6933 71.3984 44.0493Z" fill="#E0EDFE"/>
<path d="M17.8848 50.5631C17.8848 50.8285 17.8054 51.088 17.6568 51.3088C17.5082 51.5295 17.2969 51.7015 17.0498 51.8031C16.8027 51.9047 16.5307 51.9313 16.2683 51.8795C16.006 51.8277 15.765 51.6999 15.5758 51.5122C15.3867 51.3245 15.2579 51.0853 15.2057 50.8249C15.1535 50.5645 15.1803 50.2946 15.2826 50.0493C15.385 49.804 15.5584 49.5944 15.7808 49.4469C16.0032 49.2994 16.2647 49.2207 16.5322 49.2207C16.8909 49.2207 17.2349 49.3622 17.4886 49.6139C17.7422 49.8656 17.8848 50.207 17.8848 50.5631Z" fill="#E0EDFE"/>
<path d="M26.8008 50.5612C26.8008 50.8266 26.7215 51.0861 26.5728 51.3069C26.4242 51.5276 26.213 51.6997 25.9658 51.8013C25.7187 51.9028 25.4467 51.9294 25.1844 51.8776C24.922 51.8258 24.681 51.6981 24.4918 51.5103C24.3027 51.3226 24.1739 51.0834 24.1217 50.823C24.0695 50.5626 24.0963 50.2927 24.1987 50.0474C24.301 49.8022 24.4744 49.5925 24.6968 49.445C24.9192 49.2975 25.1807 49.2188 25.4482 49.2188C25.6263 49.2171 25.803 49.2507 25.9678 49.3176C26.1327 49.3844 26.2824 49.4833 26.4084 49.6083C26.5343 49.7333 26.6338 49.8819 26.7012 50.0455C26.7686 50.2091 26.8025 50.3844 26.8008 50.5612Z" fill="#E0EDFE"/>
<path d="M35.7187 50.5612C35.7187 50.8266 35.6394 51.0861 35.4908 51.3069C35.3422 51.5276 35.1309 51.6997 34.8838 51.8013C34.6366 51.9028 34.3647 51.9294 34.1023 51.8776C33.84 51.8258 33.599 51.6981 33.4098 51.5103C33.2207 51.3226 33.0918 51.0834 33.0397 50.823C32.9875 50.5626 33.0143 50.2927 33.1166 50.0474C33.219 49.8022 33.3924 49.5925 33.6148 49.445C33.8372 49.2975 34.0987 49.2188 34.3662 49.2188C34.5443 49.2171 34.7209 49.2507 34.8858 49.3176C35.0506 49.3844 35.2004 49.4833 35.3263 49.6083C35.4522 49.7333 35.5518 49.8819 35.6192 50.0455C35.6866 50.2091 35.7204 50.3844 35.7187 50.5612Z" fill="#E0EDFE"/>
<path d="M44.6347 50.5612C44.6347 50.8272 44.5551 51.0872 44.4059 51.3082C44.2567 51.5292 44.0448 51.7012 43.7969 51.8024C43.549 51.9036 43.2764 51.9295 43.0137 51.8767C42.751 51.8238 42.51 51.6948 42.3214 51.5058C42.1327 51.3169 42.0049 51.0765 41.9542 50.8153C41.9034 50.5541 41.932 50.2838 42.0363 50.0388C42.1406 49.7937 42.3158 49.5849 42.5399 49.439C42.764 49.293 43.0267 49.2163 43.2947 49.2188C43.4718 49.2188 43.6471 49.2536 43.8104 49.3212C43.9738 49.3888 44.1221 49.4879 44.2467 49.6127C44.3713 49.7375 44.4698 49.8856 44.5364 50.0483C44.603 50.2111 44.6364 50.3855 44.6347 50.5612Z" fill="#E0EDFE"/>
<path d="M53.5527 50.5612C53.5527 50.8272 53.473 51.0872 53.3239 51.3082C53.1747 51.5292 52.9627 51.7012 52.7149 51.8024C52.467 51.9036 52.1944 51.9295 51.9317 51.8767C51.669 51.8238 51.428 51.6948 51.2394 51.5058C51.0507 51.3169 50.9229 51.0765 50.8721 50.8153C50.8214 50.5541 50.8499 50.2838 50.9542 50.0388C51.0585 49.7937 51.2339 49.5849 51.4579 49.439C51.682 49.293 51.9447 49.2163 52.2127 49.2188C52.3897 49.2188 52.565 49.2536 52.7284 49.3212C52.8918 49.3888 53.0401 49.4879 53.1647 49.6127C53.2893 49.7375 53.3877 49.8856 53.4543 50.0483C53.5209 50.2111 53.5544 50.3855 53.5527 50.5612Z" fill="#E0EDFE"/>
<path d="M62.4434 50.5631C62.4434 50.8285 62.364 51.088 62.2154 51.3088C62.0668 51.5295 61.8556 51.7015 61.6084 51.8031C61.3613 51.9047 61.0893 51.9313 60.8269 51.8795C60.5646 51.8277 60.3236 51.6999 60.1344 51.5122C59.9453 51.3245 59.8165 51.0853 59.7643 50.8249C59.7121 50.5645 59.7389 50.2946 59.8412 50.0493C59.9436 49.804 60.117 49.5944 60.3394 49.4469C60.5618 49.2994 60.8233 49.2207 61.0908 49.2207C61.4496 49.2207 61.7936 49.3622 62.0472 49.6139C62.3009 49.8656 62.4434 50.207 62.4434 50.5631Z" fill="#E0EDFE"/>
<path d="M71.3965 50.5612C71.3965 50.8266 71.3172 51.0861 71.1685 51.3069C71.0199 51.5276 70.8087 51.6997 70.5616 51.8013C70.3144 51.9028 70.0425 51.9294 69.7801 51.8776C69.5177 51.8258 69.2767 51.6981 69.0876 51.5103C68.8984 51.3226 68.7696 51.0834 68.7174 50.823C68.6652 50.5626 68.692 50.2927 68.7944 50.0474C68.8967 49.8022 69.0701 49.5925 69.2925 49.445C69.5149 49.2975 69.7765 49.2188 70.044 49.2188C70.222 49.2171 70.3987 49.2507 70.5635 49.3176C70.7284 49.3844 70.8781 49.4833 71.0041 49.6083C71.13 49.7333 71.2295 49.8819 71.2969 50.0455C71.3643 50.2091 71.3982 50.3844 71.3965 50.5612Z" fill="#E0EDFE"/>
<path d="M17.8848 57.0748C17.8848 57.3403 17.8054 57.5997 17.6568 57.8205C17.5082 58.0412 17.2969 58.2133 17.0498 58.3149C16.8027 58.4165 16.5307 58.443 16.2683 58.3913C16.006 58.3395 15.765 58.2117 15.5758 58.0239C15.3867 57.8362 15.2579 57.597 15.2057 57.3366C15.1535 57.0763 15.1803 56.8063 15.2826 56.561C15.385 56.3158 15.5584 56.1061 15.7808 55.9586C16.0032 55.8111 16.2647 55.7324 16.5322 55.7324C16.8909 55.7324 17.2349 55.8739 17.4886 56.1256C17.7422 56.3773 17.8848 56.7188 17.8848 57.0748Z" fill="#E0EDFE"/>
<path d="M26.8008 57.0748C26.8008 57.3403 26.7215 57.5998 26.5728 57.8205C26.4242 58.0413 26.213 58.2134 25.9658 58.315C25.7187 58.4166 25.4467 58.4431 25.1844 58.3913C24.922 58.3395 24.681 58.2117 24.4918 58.024C24.3027 57.8363 24.1739 57.5971 24.1217 57.3367C24.0695 57.0763 24.0963 56.8064 24.1987 56.5611C24.301 56.3158 24.4744 56.1062 24.6968 55.9587C24.9192 55.8112 25.1807 55.7325 25.4482 55.7325C25.6263 55.7308 25.803 55.7644 25.9678 55.8313C26.1327 55.8981 26.2824 55.997 26.4084 56.1219C26.5343 56.2469 26.6338 56.3955 26.7012 56.5591C26.7686 56.7227 26.8025 56.8981 26.8008 57.0748Z" fill="#E0EDFE"/>
<path d="M35.7187 57.0748C35.7187 57.3403 35.6394 57.5998 35.4908 57.8205C35.3422 58.0413 35.1309 58.2134 34.8838 58.315C34.6366 58.4166 34.3647 58.4431 34.1023 58.3913C33.84 58.3395 33.599 58.2117 33.4098 58.024C33.2207 57.8363 33.0918 57.5971 33.0397 57.3367C32.9875 57.0763 33.0143 56.8064 33.1166 56.5611C33.219 56.3158 33.3924 56.1062 33.6148 55.9587C33.8372 55.8112 34.0987 55.7325 34.3662 55.7325C34.5443 55.7308 34.7209 55.7644 34.8858 55.8313C35.0506 55.8981 35.2004 55.997 35.3263 56.1219C35.4522 56.2469 35.5518 56.3955 35.6192 56.5591C35.6866 56.7227 35.7204 56.8981 35.7187 57.0748Z" fill="#E0EDFE"/>
<path d="M44.6347 57.0748C44.6347 57.3408 44.5551 57.6008 44.4059 57.8218C44.2567 58.0428 44.0448 58.2149 43.7969 58.3161C43.549 58.4174 43.2764 58.4432 43.0137 58.3904C42.751 58.3376 42.51 58.2085 42.3214 58.0195C42.1327 57.8305 42.0049 57.5902 41.9542 57.329C41.9034 57.0678 41.932 56.7975 42.0363 56.5525C42.1406 56.3074 42.3158 56.0986 42.5399 55.9526C42.764 55.8066 43.0267 55.73 43.2947 55.7325C43.4718 55.7325 43.6471 55.7673 43.8104 55.8349C43.9738 55.9025 44.1221 56.0016 44.2467 56.1264C44.3713 56.2512 44.4698 56.3993 44.5364 56.5621C44.603 56.7249 44.6364 56.8991 44.6347 57.0748Z" fill="#E0EDFE"/>
<path d="M53.5508 57.0748C53.5508 57.3408 53.4711 57.6008 53.3219 57.8218C53.1727 58.0428 52.9608 58.2149 52.7129 58.3161C52.465 58.4174 52.1924 58.4432 51.9297 58.3904C51.667 58.3376 51.4261 58.2085 51.2374 58.0195C51.0488 57.8305 50.921 57.5902 50.8702 57.329C50.8194 57.0678 50.848 56.7975 50.9523 56.5525C51.0566 56.3074 51.2319 56.0986 51.456 55.9526C51.68 55.8066 51.9427 55.73 52.2107 55.7325C52.3878 55.7325 52.5631 55.7673 52.7265 55.8349C52.8899 55.9025 53.0381 56.0016 53.1627 56.1264C53.2873 56.2512 53.3858 56.3993 53.4524 56.5621C53.519 56.7249 53.5524 56.8991 53.5508 57.0748Z" fill="#E0EDFE"/>
<path d="M62.4434 57.0748C62.4434 57.3403 62.364 57.5997 62.2154 57.8205C62.0668 58.0412 61.8556 58.2133 61.6084 58.3149C61.3613 58.4165 61.0893 58.443 60.8269 58.3913C60.5646 58.3395 60.3236 58.2117 60.1344 58.0239C59.9453 57.8362 59.8165 57.597 59.7643 57.3366C59.7121 57.0763 59.7389 56.8063 59.8412 56.561C59.9436 56.3158 60.117 56.1061 60.3394 55.9586C60.5618 55.8111 60.8233 55.7324 61.0908 55.7324C61.4496 55.7324 61.7936 55.8739 62.0472 56.1256C62.3009 56.3773 62.4434 56.7188 62.4434 57.0748Z" fill="#E0EDFE"/>
<path d="M71.3984 57.0748C71.3984 57.3403 71.3191 57.5998 71.1705 57.8205C71.0219 58.0413 70.8107 58.2134 70.5635 58.315C70.3164 58.4166 70.0444 58.4431 69.7821 58.3913C69.5197 58.3395 69.2787 58.2117 69.0895 58.024C68.9004 57.8363 68.7715 57.5971 68.7193 57.3367C68.6672 57.0763 68.6939 56.8064 68.7963 56.5611C68.8987 56.3158 69.072 56.1062 69.2945 55.9587C69.5169 55.8112 69.7784 55.7325 70.0459 55.7325C70.224 55.7308 70.4006 55.7644 70.5655 55.8313C70.7303 55.8981 70.8801 55.997 71.006 56.1219C71.1319 56.2469 71.2315 56.3955 71.2989 56.5591C71.3663 56.7227 71.4001 56.8981 71.3984 57.0748Z" fill="#E0EDFE"/>
<path d="M17.8848 63.5884C17.8848 63.8539 17.8054 64.1135 17.6568 64.3342C17.5082 64.555 17.2969 64.727 17.0498 64.8286C16.8027 64.9302 16.5307 64.9568 16.2683 64.905C16.006 64.8532 15.765 64.7253 15.5758 64.5376C15.3867 64.3499 15.2579 64.1107 15.2057 63.8503C15.1535 63.5899 15.1803 63.32 15.2826 63.0747C15.385 62.8294 15.5584 62.6198 15.7808 62.4723C16.0032 62.3248 16.2647 62.2461 16.5322 62.2461C16.8909 62.2461 17.2349 62.3875 17.4886 62.6393C17.7422 62.891 17.8848 63.2324 17.8848 63.5884Z" fill="#E0EDFE"/>
<path d="M26.8008 63.5885C26.8008 63.854 26.7215 64.1135 26.5728 64.3343C26.4242 64.555 26.213 64.7271 25.9658 64.8287C25.7187 64.9303 25.4467 64.9569 25.1844 64.9051C24.922 64.8533 24.681 64.7254 24.4918 64.5377C24.3027 64.3499 24.1739 64.1108 24.1217 63.8504C24.0695 63.59 24.0963 63.3201 24.1987 63.0748C24.301 62.8295 24.4744 62.6199 24.6968 62.4724C24.9192 62.3249 25.1807 62.2462 25.4482 62.2462C25.6263 62.2445 25.803 62.2781 25.9678 62.345C26.1327 62.4119 26.2824 62.5106 26.4084 62.6356C26.5343 62.7606 26.6338 62.9093 26.7012 63.0729C26.7686 63.2365 26.8025 63.4118 26.8008 63.5885Z" fill="#E0EDFE"/>
<path d="M35.7187 63.5885C35.7187 63.854 35.6394 64.1135 35.4908 64.3343C35.3422 64.555 35.1309 64.7271 34.8838 64.8287C34.6366 64.9303 34.3647 64.9569 34.1023 64.9051C33.84 64.8533 33.599 64.7254 33.4098 64.5377C33.2207 64.3499 33.0918 64.1108 33.0397 63.8504C32.9875 63.59 33.0143 63.3201 33.1166 63.0748C33.219 62.8295 33.3924 62.6199 33.6148 62.4724C33.8372 62.3249 34.0987 62.2462 34.3662 62.2462C34.5443 62.2445 34.7209 62.2781 34.8858 62.345C35.0506 62.4119 35.2004 62.5106 35.3263 62.6356C35.4522 62.7606 35.5518 62.9093 35.6192 63.0729C35.6866 63.2365 35.7204 63.4118 35.7187 63.5885Z" fill="#E0EDFE"/>
<path d="M44.6347 63.5885C44.6347 63.8545 44.5551 64.1145 44.4059 64.3355C44.2567 64.5565 44.0448 64.7286 43.7969 64.8298C43.549 64.931 43.2764 64.9569 43.0137 64.9041C42.751 64.8513 42.51 64.7222 42.3214 64.5332C42.1327 64.3442 42.0049 64.1038 41.9542 63.8426C41.9034 63.5814 41.932 63.3112 42.0363 63.0661C42.1406 62.8211 42.3158 62.6123 42.5399 62.4663C42.764 62.3203 43.0267 62.2437 43.2947 62.2462C43.4718 62.2461 43.6471 62.281 43.8104 62.3486C43.9738 62.4162 44.1221 62.5153 44.2467 62.6401C44.3713 62.7649 44.4698 62.913 44.5364 63.0758C44.603 63.2385 44.6364 63.4128 44.6347 63.5885Z" fill="#E0EDFE"/>
<path d="M53.5527 63.5885C53.5527 63.8545 53.473 64.1145 53.3239 64.3355C53.1747 64.5565 52.9627 64.7286 52.7149 64.8298C52.467 64.931 52.1944 64.9569 51.9317 64.9041C51.669 64.8513 51.428 64.7222 51.2394 64.5332C51.0507 64.3442 50.9229 64.1038 50.8721 63.8426C50.8214 63.5814 50.8499 63.3112 50.9542 63.0661C51.0585 62.8211 51.2339 62.6123 51.4579 62.4663C51.682 62.3203 51.9447 62.2437 52.2127 62.2462C52.3897 62.2461 52.565 62.281 52.7284 62.3486C52.8918 62.4162 53.0401 62.5153 53.1647 62.6401C53.2893 62.7649 53.3877 62.913 53.4543 63.0758C53.5209 63.2385 53.5544 63.4128 53.5527 63.5885Z" fill="#E0EDFE"/>
<path d="M62.4434 63.5882C62.4426 63.8578 62.3601 64.1209 62.2066 64.3433C62.053 64.5656 61.8356 64.737 61.5826 64.835C61.3295 64.933 61.0526 64.9532 60.7879 64.8928C60.5232 64.8324 60.2829 64.6943 60.0984 64.4965C59.9138 64.2987 59.7936 64.0504 59.7533 63.7838C59.7129 63.5172 59.7545 63.2448 59.8724 63.0019C59.9902 62.759 60.1791 62.557 60.4143 62.4222C60.6495 62.2873 60.9201 62.2259 61.191 62.2459C61.5321 62.271 61.8509 62.4235 62.0833 62.6725C62.3156 62.9216 62.4443 63.2488 62.4434 63.5882Z" fill="#E0EDFE"/>
<path d="M70.0439 64.9308C70.7909 64.9308 71.3965 64.3298 71.3965 63.5884C71.3965 62.8471 70.7909 62.2461 70.0439 62.2461C69.297 62.2461 68.6914 62.8471 68.6914 63.5884C68.6914 64.3298 69.297 64.9308 70.0439 64.9308Z" fill="#E0EDFE"/>
</g>
<g opacity="0.91">
<path d="M86.4883 54.5513C86.4883 54.8168 86.4089 55.0764 86.2603 55.2971C86.1117 55.5178 85.9005 55.6899 85.6533 55.7915C85.4062 55.8931 85.1342 55.9197 84.8719 55.8679C84.6095 55.8161 84.3685 55.6882 84.1793 55.5005C83.9902 55.3128 83.8614 55.0736 83.8092 54.8132C83.757 54.5528 83.7838 54.2829 83.8862 54.0377C83.9885 53.7924 84.1619 53.5828 84.3843 53.4353C84.6067 53.2878 84.8682 53.209 85.1357 53.209C85.3138 53.2074 85.4905 53.2409 85.6553 53.3078C85.8202 53.3747 85.9699 53.4735 86.0959 53.5984C86.2218 53.7234 86.3213 53.8721 86.3887 54.0357C86.4561 54.1993 86.49 54.3746 86.4883 54.5513Z" fill="#E0EDFE"/>
<path d="M95.4043 54.5513C95.4043 54.8168 95.325 55.0764 95.1764 55.2971C95.0277 55.5178 94.8165 55.6899 94.5693 55.7915C94.3222 55.8931 94.0502 55.9197 93.7879 55.8679C93.5255 55.8161 93.2845 55.6882 93.0954 55.5005C92.9062 55.3128 92.7774 55.0736 92.7252 54.8132C92.673 54.5528 92.6998 54.2829 92.8022 54.0377C92.9045 53.7924 93.0779 53.5828 93.3003 53.4353C93.5227 53.2878 93.7842 53.209 94.0517 53.209C94.2298 53.2074 94.4065 53.2409 94.5713 53.3078C94.7362 53.3747 94.8859 53.4735 95.0119 53.5984C95.1378 53.7234 95.2374 53.8721 95.3047 54.0357C95.3721 54.1993 95.406 54.3746 95.4043 54.5513Z" fill="#E0EDFE"/>
<path d="M104.322 54.5513C104.322 54.8168 104.243 55.0764 104.094 55.2971C103.946 55.5178 103.734 55.6899 103.487 55.7915C103.24 55.8931 102.968 55.9197 102.706 55.8679C102.443 55.8161 102.202 55.6882 102.013 55.5005C101.824 55.3128 101.695 55.0736 101.643 54.8132C101.591 54.5528 101.618 54.2829 101.72 54.0377C101.823 53.7924 101.996 53.5828 102.218 53.4353C102.441 53.2878 102.702 53.209 102.97 53.209C103.148 53.2074 103.324 53.2409 103.489 53.3078C103.654 53.3747 103.804 53.4735 103.93 53.5984C104.056 53.7234 104.155 53.8721 104.223 54.0357C104.29 54.1993 104.324 54.3746 104.322 54.5513Z" fill="#E0EDFE"/>
<path d="M113.238 54.5513C113.238 54.8173 113.159 55.0774 113.009 55.2984C112.86 55.5194 112.648 55.6914 112.4 55.7926C112.153 55.8938 111.88 55.9197 111.617 55.8669C111.355 55.8141 111.114 55.685 110.925 55.496C110.736 55.307 110.608 55.0667 110.558 54.8055C110.507 54.5443 110.535 54.274 110.64 54.0289C110.744 53.7839 110.919 53.5752 111.143 53.4292C111.368 53.2832 111.63 53.2066 111.898 53.209C112.075 53.209 112.251 53.2438 112.414 53.3114C112.577 53.379 112.726 53.4781 112.85 53.6029C112.975 53.7277 113.073 53.8758 113.14 54.0386C113.206 54.2014 113.24 54.3756 113.238 54.5513Z" fill="#E0EDFE"/>
<path d="M122.154 54.5513C122.154 54.8173 122.075 55.0774 121.925 55.2984C121.776 55.5194 121.564 55.6914 121.316 55.7926C121.069 55.8938 120.796 55.9197 120.533 55.8669C120.271 55.8141 120.03 55.685 119.841 55.496C119.652 55.307 119.524 55.0667 119.474 54.8055C119.423 54.5443 119.452 54.274 119.556 54.0289C119.66 53.7839 119.835 53.5752 120.059 53.4292C120.284 53.2832 120.546 53.2066 120.814 53.209C120.991 53.209 121.167 53.2438 121.33 53.3114C121.493 53.379 121.642 53.4781 121.766 53.6029C121.891 53.7277 121.989 53.8758 122.056 54.0386C122.123 54.2014 122.156 54.3756 122.154 54.5513Z" fill="#E0EDFE"/>
<path d="M131.084 54.5513C131.084 54.8167 131.005 55.0763 130.856 55.297C130.707 55.5178 130.496 55.6898 130.249 55.7914C130.002 55.893 129.73 55.9196 129.468 55.8678C129.205 55.816 128.964 55.6882 128.775 55.5004C128.586 55.3127 128.457 55.0735 128.405 54.8131C128.353 54.5527 128.379 54.2829 128.482 54.0376C128.584 53.7923 128.758 53.5827 128.98 53.4352C129.202 53.2877 129.464 53.209 129.731 53.209C130.09 53.209 130.434 53.3504 130.688 53.6021C130.941 53.8538 131.084 54.1953 131.084 54.5513Z" fill="#E0EDFE"/>
<path d="M140.002 54.5513C140.002 54.8168 139.923 55.0764 139.774 55.2971C139.625 55.5178 139.414 55.6899 139.167 55.7915C138.92 55.8931 138.648 55.9197 138.385 55.8679C138.123 55.8161 137.882 55.6882 137.693 55.5005C137.504 55.3128 137.375 55.0736 137.323 54.8132C137.271 54.5528 137.297 54.2829 137.4 54.0377C137.502 53.7924 137.676 53.5828 137.898 53.4353C138.12 53.2878 138.382 53.209 138.649 53.209C138.827 53.2074 139.004 53.2409 139.169 53.3078C139.334 53.3747 139.484 53.4735 139.609 53.5984C139.735 53.7234 139.835 53.8721 139.902 54.0357C139.97 54.1993 140.004 54.3746 140.002 54.5513Z" fill="#E0EDFE"/>
<path d="M86.4883 61.065C86.4883 61.3305 86.4089 61.59 86.2603 61.8108C86.1117 62.0315 85.9005 62.2036 85.6533 62.3052C85.4062 62.4068 85.1342 62.4333 84.8719 62.3815C84.6095 62.3298 84.3685 62.2019 84.1793 62.0142C83.9902 61.8264 83.8614 61.5872 83.8092 61.3269C83.757 61.0665 83.7838 60.7966 83.8862 60.5513C83.9885 60.3061 84.1619 60.0964 84.3843 59.9489C84.6067 59.8014 84.8682 59.7227 85.1357 59.7227C85.3138 59.7211 85.4905 59.7546 85.6553 59.8215C85.8202 59.8884 85.9699 59.9872 86.0959 60.1122C86.2218 60.2372 86.3213 60.3858 86.3887 60.5494C86.4561 60.713 86.49 60.8883 86.4883 61.065Z" fill="#E0EDFE"/>
<path d="M95.4043 61.065C95.4043 61.3305 95.325 61.59 95.1764 61.8108C95.0277 62.0315 94.8165 62.2036 94.5693 62.3052C94.3222 62.4068 94.0502 62.4333 93.7879 62.3815C93.5255 62.3298 93.2845 62.2019 93.0954 62.0142C92.9062 61.8264 92.7774 61.5872 92.7252 61.3269C92.673 61.0665 92.6998 60.7966 92.8022 60.5513C92.9045 60.3061 93.0779 60.0964 93.3003 59.9489C93.5227 59.8014 93.7842 59.7227 94.0517 59.7227C94.2298 59.7211 94.4065 59.7546 94.5713 59.8215C94.7362 59.8884 94.8859 59.9872 95.0119 60.1122C95.1378 60.2372 95.2374 60.3858 95.3047 60.5494C95.3721 60.713 95.406 60.8883 95.4043 61.065Z" fill="#E0EDFE"/>
<path d="M104.322 61.065C104.322 61.3305 104.243 61.59 104.094 61.8108C103.946 62.0315 103.734 62.2036 103.487 62.3052C103.24 62.4068 102.968 62.4333 102.706 62.3815C102.443 62.3298 102.202 62.2019 102.013 62.0142C101.824 61.8264 101.695 61.5872 101.643 61.3269C101.591 61.0665 101.618 60.7966 101.72 60.5513C101.823 60.3061 101.996 60.0964 102.218 59.9489C102.441 59.8014 102.702 59.7227 102.97 59.7227C103.148 59.7211 103.324 59.7546 103.489 59.8215C103.654 59.8884 103.804 59.9872 103.93 60.1122C104.056 60.2372 104.155 60.3858 104.223 60.5494C104.29 60.713 104.324 60.8883 104.322 61.065Z" fill="#E0EDFE"/>
<path d="M113.238 61.065C113.238 61.331 113.159 61.5911 113.009 61.8121C112.86 62.0331 112.648 62.2051 112.4 62.3063C112.153 62.4075 111.88 62.4334 111.617 62.3806C111.355 62.3278 111.114 62.1987 110.925 62.0097C110.736 61.8207 110.608 61.5804 110.558 61.3192C110.507 61.058 110.535 60.7877 110.64 60.5427C110.744 60.2976 110.919 60.0889 111.143 59.9429C111.368 59.7969 111.63 59.7203 111.898 59.7227C112.075 59.7227 112.251 59.7575 112.414 59.8251C112.577 59.8927 112.726 59.9918 112.85 60.1166C112.975 60.2414 113.073 60.3895 113.14 60.5522C113.206 60.715 113.24 60.8893 113.238 61.065Z" fill="#E0EDFE"/>
<path d="M122.154 61.065C122.154 61.331 122.075 61.5911 121.925 61.8121C121.776 62.0331 121.564 62.2051 121.316 62.3063C121.069 62.4075 120.796 62.4334 120.533 62.3806C120.271 62.3278 120.03 62.1987 119.841 62.0097C119.652 61.8207 119.524 61.5804 119.474 61.3192C119.423 61.058 119.452 60.7877 119.556 60.5427C119.66 60.2976 119.835 60.0889 120.059 59.9429C120.284 59.7969 120.546 59.7203 120.814 59.7227C120.991 59.7227 121.167 59.7575 121.33 59.8251C121.493 59.8927 121.642 59.9918 121.766 60.1166C121.891 60.2414 121.989 60.3895 122.056 60.5522C122.123 60.715 122.156 60.8893 122.154 61.065Z" fill="#E0EDFE"/>
<path d="M131.084 61.0649C131.084 61.3304 131.005 61.59 130.856 61.8107C130.707 62.0315 130.496 62.2035 130.249 62.3051C130.002 62.4067 129.73 62.4333 129.468 62.3815C129.205 62.3297 128.964 62.2018 128.775 62.0141C128.586 61.8264 128.457 61.5872 128.405 61.3268C128.353 61.0664 128.379 60.7966 128.482 60.5513C128.584 60.306 128.758 60.0964 128.98 59.9489C129.202 59.8014 129.464 59.7227 129.731 59.7227C130.09 59.7227 130.434 59.864 130.688 60.1158C130.941 60.3675 131.084 60.7089 131.084 61.0649Z" fill="#E0EDFE"/>
<path d="M140.002 61.065C140.002 61.3305 139.923 61.59 139.774 61.8108C139.625 62.0315 139.414 62.2036 139.167 62.3052C138.92 62.4068 138.648 62.4333 138.385 62.3815C138.123 62.3298 137.882 62.2019 137.693 62.0142C137.504 61.8264 137.375 61.5872 137.323 61.3269C137.271 61.0665 137.297 60.7966 137.4 60.5513C137.502 60.3061 137.676 60.0964 137.898 59.9489C138.12 59.8014 138.382 59.7227 138.649 59.7227C138.827 59.7211 139.004 59.7546 139.169 59.8215C139.334 59.8884 139.484 59.9872 139.609 60.1122C139.735 60.2372 139.835 60.3858 139.902 60.5494C139.97 60.713 140.004 60.8883 140.002 61.065Z" fill="#E0EDFE"/>
<path d="M86.4883 67.5768C86.4883 67.8423 86.4089 68.1017 86.2603 68.3225C86.1117 68.5432 85.9005 68.7153 85.6533 68.8169C85.4062 68.9185 85.1342 68.9451 84.8719 68.8933C84.6095 68.8415 84.3685 68.7137 84.1793 68.526C83.9902 68.3382 83.8614 68.099 83.8092 67.8387C83.757 67.5783 83.7838 67.3083 83.8862 67.0631C83.9885 66.8178 84.1619 66.6081 84.3843 66.4606C84.6067 66.3132 84.8682 66.2344 85.1357 66.2344C85.3138 66.2328 85.4905 66.2663 85.6553 66.3332C85.8202 66.4001 85.9699 66.4989 86.0959 66.6239C86.2218 66.7489 86.3213 66.8975 86.3887 67.0611C86.4561 67.2247 86.49 67.4 86.4883 67.5768Z" fill="#E0EDFE"/>
<path d="M95.4043 67.5768C95.4043 67.8423 95.325 68.1017 95.1764 68.3225C95.0277 68.5432 94.8165 68.7153 94.5693 68.8169C94.3222 68.9185 94.0502 68.9451 93.7879 68.8933C93.5255 68.8415 93.2845 68.7137 93.0954 68.526C92.9062 68.3382 92.7774 68.099 92.7252 67.8387C92.673 67.5783 92.6998 67.3083 92.8022 67.0631C92.9045 66.8178 93.0779 66.6081 93.3003 66.4606C93.5227 66.3132 93.7842 66.2344 94.0517 66.2344C94.2298 66.2328 94.4065 66.2663 94.5713 66.3332C94.7362 66.4001 94.8859 66.4989 95.0119 66.6239C95.1378 66.7489 95.2374 66.8975 95.3047 67.0611C95.3721 67.2247 95.406 67.4 95.4043 67.5768Z" fill="#E0EDFE"/>
<path d="M104.322 67.5768C104.322 67.8423 104.243 68.1017 104.094 68.3225C103.946 68.5432 103.734 68.7153 103.487 68.8169C103.24 68.9185 102.968 68.9451 102.706 68.8933C102.443 68.8415 102.202 68.7137 102.013 68.526C101.824 68.3382 101.695 68.099 101.643 67.8387C101.591 67.5783 101.618 67.3083 101.72 67.0631C101.823 66.8178 101.996 66.6081 102.218 66.4606C102.441 66.3132 102.702 66.2344 102.97 66.2344C103.148 66.2328 103.324 66.2663 103.489 66.3332C103.654 66.4001 103.804 66.4989 103.93 66.6239C104.056 66.7489 104.155 66.8975 104.223 67.0611C104.29 67.2247 104.324 67.4 104.322 67.5768Z" fill="#E0EDFE"/>
<path d="M113.238 67.5768C113.238 67.8428 113.159 68.1028 113.009 68.3238C112.86 68.5448 112.648 68.7168 112.4 68.818C112.153 68.9192 111.88 68.9451 111.617 68.8923C111.355 68.8395 111.114 68.7104 110.925 68.5215C110.736 68.3325 110.608 68.0921 110.558 67.8309C110.507 67.5697 110.535 67.2995 110.64 67.0544C110.744 66.8094 110.919 66.6006 111.143 66.4546C111.368 66.3086 111.63 66.232 111.898 66.2344C112.075 66.2344 112.251 66.2692 112.414 66.3368C112.577 66.4045 112.726 66.5035 112.85 66.6283C112.975 66.7531 113.073 66.9012 113.14 67.064C113.206 67.2268 113.24 67.4011 113.238 67.5768Z" fill="#E0EDFE"/>
<path d="M122.154 67.5768C122.154 67.8428 122.075 68.1028 121.925 68.3238C121.776 68.5448 121.564 68.7168 121.316 68.818C121.069 68.9192 120.796 68.9451 120.533 68.8923C120.271 68.8395 120.03 68.7104 119.841 68.5215C119.652 68.3325 119.524 68.0921 119.474 67.8309C119.423 67.5697 119.452 67.2995 119.556 67.0544C119.66 66.8094 119.835 66.6006 120.059 66.4546C120.284 66.3086 120.546 66.232 120.814 66.2344C120.991 66.2344 121.167 66.2692 121.33 66.3368C121.493 66.4045 121.642 66.5035 121.766 66.6283C121.891 66.7531 121.989 66.9012 122.056 67.064C122.123 67.2268 122.156 67.4011 122.154 67.5768Z" fill="#E0EDFE"/>
<path d="M131.084 67.5767C131.084 67.8422 131.005 68.1017 130.856 68.3224C130.707 68.5432 130.496 68.7152 130.249 68.8168C130.002 68.9184 129.73 68.945 129.468 68.8932C129.205 68.8414 128.964 68.7136 128.775 68.5259C128.586 68.3382 128.457 68.099 128.405 67.8386C128.353 67.5782 128.379 67.3083 128.482 67.063C128.584 66.8177 128.758 66.6081 128.98 66.4606C129.202 66.3131 129.464 66.2344 129.731 66.2344C130.09 66.2344 130.434 66.3758 130.688 66.6276C130.941 66.8793 131.084 67.2207 131.084 67.5767Z" fill="#E0EDFE"/>
<path d="M140.002 67.5768C140.002 67.8423 139.923 68.1017 139.774 68.3225C139.625 68.5432 139.414 68.7153 139.167 68.8169C138.92 68.9185 138.648 68.9451 138.385 68.8933C138.123 68.8415 137.882 68.7137 137.693 68.526C137.504 68.3382 137.375 68.099 137.323 67.8387C137.271 67.5783 137.297 67.3083 137.4 67.0631C137.502 66.8178 137.676 66.6081 137.898 66.4606C138.12 66.3132 138.382 66.2344 138.649 66.2344C138.827 66.2328 139.004 66.2663 139.169 66.3332C139.334 66.4001 139.484 66.4989 139.609 66.6239C139.735 66.7489 139.835 66.8975 139.902 67.0611C139.97 67.2247 140.004 67.4 140.002 67.5768Z" fill="#E0EDFE"/>
<path d="M86.4882 74.078C86.4907 74.344 86.4135 74.6047 86.2664 74.8271C86.1193 75.0495 85.9089 75.2234 85.662 75.3269C85.4151 75.4304 85.1428 75.4588 84.8796 75.4084C84.6164 75.358 84.3742 75.2312 84.1838 75.044C83.9934 74.8567 83.8633 74.6175 83.8101 74.3568C83.7569 74.0961 83.7829 73.8256 83.8849 73.5796C83.9869 73.3336 84.1603 73.1232 84.383 72.9752C84.6056 72.8271 84.8676 72.7481 85.1357 72.748C85.4922 72.748 85.8344 72.8878 86.0877 73.1368C86.3409 73.3859 86.4849 73.7241 86.4882 74.078Z" fill="#E0EDFE"/>
<path d="M95.4042 74.078C95.4067 74.344 95.3295 74.6047 95.1824 74.8271C95.0353 75.0495 94.8249 75.2234 94.578 75.3269C94.3311 75.4304 94.0588 75.4588 93.7956 75.4084C93.5324 75.358 93.2902 75.2312 93.0998 75.044C92.9094 74.8567 92.7793 74.6175 92.7261 74.3568C92.6729 74.0961 92.699 73.8256 92.801 73.5796C92.903 73.3336 93.0763 73.1232 93.299 72.9752C93.5216 72.8271 93.7836 72.7481 94.0517 72.748C94.4082 72.748 94.7504 72.8878 95.0037 73.1368C95.257 73.3859 95.4009 73.7241 95.4042 74.078Z" fill="#E0EDFE"/>
<path d="M104.322 74.078C104.325 74.344 104.247 74.6047 104.1 74.8271C103.953 75.0495 103.743 75.2234 103.496 75.3269C103.249 75.4304 102.977 75.4588 102.714 75.4084C102.45 75.358 102.208 75.2312 102.018 75.044C101.827 74.8567 101.697 74.6175 101.644 74.3568C101.591 74.0961 101.617 73.8256 101.719 73.5796C101.821 73.3336 101.994 73.1232 102.217 72.9752C102.44 72.8271 102.702 72.7481 102.97 72.748C103.326 72.748 103.668 72.8878 103.922 73.1368C104.175 73.3859 104.319 73.7241 104.322 74.078Z" fill="#E0EDFE"/>
<path d="M113.238 74.078C113.241 74.3445 113.163 74.6058 113.016 74.8284C112.868 75.0511 112.657 75.225 112.409 75.3281C112.161 75.4313 111.888 75.4589 111.625 75.4075C111.361 75.3561 111.119 75.228 110.929 75.0395C110.739 74.8511 110.61 74.6108 110.559 74.3492C110.507 74.0877 110.535 73.8167 110.639 73.571C110.742 73.3252 110.918 73.1157 111.142 72.9692C111.366 72.8226 111.63 72.7456 111.898 72.7481C112.254 72.7481 112.594 72.8882 112.846 73.1376C113.097 73.3871 113.238 73.7253 113.238 74.078Z" fill="#E0EDFE"/>
<path d="M122.154 74.078C122.157 74.3445 122.079 74.6058 121.931 74.8284C121.784 75.0511 121.573 75.225 121.325 75.3281C121.077 75.4313 120.804 75.4589 120.541 75.4075C120.277 75.3561 120.035 75.228 119.845 75.0395C119.655 74.8511 119.526 74.6108 119.475 74.3492C119.423 74.0877 119.451 73.8167 119.555 73.571C119.658 73.3252 119.834 73.1157 120.058 72.9692C120.282 72.8226 120.546 72.7456 120.814 72.7481C121.17 72.7481 121.51 72.8882 121.762 73.1376C122.013 73.3871 122.154 73.7253 122.154 74.078Z" fill="#E0EDFE"/>
<path d="M131.084 74.078C131.086 74.344 131.009 74.6047 130.862 74.8271C130.715 75.0495 130.505 75.2234 130.258 75.3269C130.011 75.4304 129.738 75.4588 129.475 75.4084C129.212 75.358 128.97 75.2312 128.779 75.044C128.589 74.8567 128.459 74.6175 128.406 74.3568C128.353 74.0961 128.379 73.8256 128.481 73.5796C128.583 73.3336 128.756 73.1232 128.979 72.9752C129.201 72.8271 129.463 72.7481 129.731 72.748C130.088 72.748 130.43 72.8878 130.683 73.1368C130.937 73.3859 131.081 73.7241 131.084 74.078Z" fill="#E0EDFE"/>
<path d="M140.002 74.078C140.004 74.344 139.927 74.6047 139.78 74.8271C139.633 75.0495 139.423 75.2234 139.176 75.3269C138.929 75.4304 138.656 75.4588 138.393 75.4084C138.13 75.358 137.888 75.2312 137.697 75.044C137.507 74.8567 137.377 74.6175 137.324 74.3568C137.271 74.0961 137.297 73.8256 137.399 73.5796C137.501 73.3336 137.674 73.1232 137.897 72.9752C138.119 72.8271 138.381 72.7481 138.649 72.748C139.006 72.748 139.348 72.8878 139.601 73.1368C139.855 73.3859 139.999 73.7241 140.002 74.078Z" fill="#E0EDFE"/>
<path d="M86.4882 80.5897C86.4907 80.8557 86.4135 81.1164 86.2664 81.3388C86.1193 81.5612 85.9089 81.7351 85.662 81.8386C85.4151 81.9421 85.1428 81.9705 84.8796 81.9201C84.6164 81.8697 84.3742 81.7429 84.1838 81.5557C83.9934 81.3685 83.8633 81.1293 83.8101 80.8686C83.7569 80.6079 83.7829 80.3374 83.8849 80.0913C83.9869 79.8453 84.1603 79.6349 84.383 79.4869C84.6056 79.3388 84.8676 79.2598 85.1357 79.2598C85.4922 79.2598 85.8344 79.3995 86.0877 79.6486C86.3409 79.8976 86.4849 80.2358 86.4882 80.5897Z" fill="#E0EDFE"/>
<path d="M95.4042 80.5897C95.4067 80.8557 95.3295 81.1164 95.1824 81.3388C95.0353 81.5612 94.8249 81.7351 94.578 81.8386C94.3311 81.9421 94.0588 81.9705 93.7956 81.9201C93.5324 81.8697 93.2902 81.7429 93.0998 81.5557C92.9094 81.3685 92.7793 81.1293 92.7261 80.8686C92.6729 80.6079 92.699 80.3374 92.801 80.0913C92.903 79.8453 93.0763 79.6349 93.299 79.4869C93.5216 79.3388 93.7836 79.2598 94.0517 79.2598C94.4082 79.2598 94.7504 79.3995 95.0037 79.6486C95.257 79.8976 95.4009 80.2358 95.4042 80.5897Z" fill="#E0EDFE"/>
<path d="M104.322 80.5897C104.325 80.8557 104.247 81.1164 104.1 81.3388C103.953 81.5612 103.743 81.7351 103.496 81.8386C103.249 81.9421 102.977 81.9705 102.714 81.9201C102.45 81.8697 102.208 81.7429 102.018 81.5557C101.827 81.3685 101.697 81.1293 101.644 80.8686C101.591 80.6079 101.617 80.3374 101.719 80.0913C101.821 79.8453 101.994 79.6349 102.217 79.4869C102.44 79.3388 102.702 79.2598 102.97 79.2598C103.326 79.2598 103.668 79.3995 103.922 79.6486C104.175 79.8976 104.319 80.2358 104.322 80.5897Z" fill="#E0EDFE"/>
<path d="M113.238 80.5897C113.241 80.8563 113.163 81.1175 113.016 81.3401C112.868 81.5628 112.657 81.7368 112.409 81.8399C112.161 81.943 111.888 81.9707 111.625 81.9193C111.361 81.8679 111.119 81.7397 110.929 81.5513C110.739 81.3628 110.61 81.1225 110.559 80.8609C110.507 80.5994 110.535 80.3285 110.639 80.0827C110.742 79.8369 110.918 79.6274 111.142 79.4809C111.366 79.3343 111.63 79.2574 111.898 79.2598C112.254 79.2598 112.594 79.4 112.846 79.6494C113.097 79.8988 113.238 80.237 113.238 80.5897Z" fill="#E0EDFE"/>
<path d="M122.154 80.5897C122.157 80.8563 122.079 81.1175 121.931 81.3401C121.784 81.5628 121.573 81.7368 121.325 81.8399C121.077 81.943 120.804 81.9707 120.541 81.9193C120.277 81.8679 120.035 81.7397 119.845 81.5513C119.655 81.3628 119.526 81.1225 119.475 80.8609C119.423 80.5994 119.451 80.3285 119.555 80.0827C119.658 79.8369 119.834 79.6274 120.058 79.4809C120.282 79.3343 120.546 79.2574 120.814 79.2598C121.17 79.2598 121.51 79.4 121.762 79.6494C122.013 79.8988 122.154 80.237 122.154 80.5897Z" fill="#E0EDFE"/>
<path d="M131.084 80.5897C131.086 80.8557 131.009 81.1164 130.862 81.3388C130.715 81.5612 130.505 81.7351 130.258 81.8386C130.011 81.9421 129.738 81.9705 129.475 81.9201C129.212 81.8697 128.97 81.7429 128.779 81.5557C128.589 81.3685 128.459 81.1293 128.406 80.8686C128.353 80.6079 128.379 80.3374 128.481 80.0913C128.583 79.8453 128.756 79.6349 128.979 79.4869C129.201 79.3388 129.463 79.2598 129.731 79.2598C130.088 79.2598 130.43 79.3995 130.683 79.6486C130.937 79.8976 131.081 80.2358 131.084 80.5897Z" fill="#E0EDFE"/>
<path d="M140.002 80.5897C140.004 80.8557 139.927 81.1164 139.78 81.3388C139.633 81.5612 139.423 81.7351 139.176 81.8386C138.929 81.9421 138.656 81.9705 138.393 81.9201C138.13 81.8697 137.888 81.7429 137.697 81.5557C137.507 81.3685 137.377 81.1293 137.324 80.8686C137.271 80.6079 137.297 80.3374 137.399 80.0913C137.501 79.8453 137.674 79.6349 137.897 79.4869C138.119 79.3388 138.381 79.2598 138.649 79.2598C139.006 79.2598 139.348 79.3995 139.601 79.6486C139.855 79.8976 139.999 80.2358 140.002 80.5897Z" fill="#E0EDFE"/>
<path d="M86.4882 87.1033C86.4907 87.3694 86.4135 87.6301 86.2664 87.8525C86.1193 88.0748 85.9089 88.2488 85.662 88.3523C85.4151 88.4558 85.1428 88.4842 84.8796 88.4339C84.6164 88.3835 84.3742 88.2566 84.1838 88.0694C83.9934 87.8821 83.8633 87.643 83.8101 87.3823C83.7569 87.1216 83.7829 86.851 83.8849 86.605C83.9869 86.359 84.1603 86.1486 84.383 86.0006C84.6056 85.8525 84.8676 85.7734 85.1357 85.7734C85.4922 85.7734 85.8344 85.9132 86.0877 86.1622C86.3409 86.4113 86.4849 86.7495 86.4882 87.1033Z" fill="#E0EDFE"/>
<path d="M95.4042 87.1033C95.4067 87.3694 95.3295 87.6301 95.1824 87.8525C95.0353 88.0748 94.8249 88.2488 94.578 88.3523C94.3311 88.4558 94.0588 88.4842 93.7956 88.4339C93.5324 88.3835 93.2902 88.2566 93.0998 88.0694C92.9094 87.8821 92.7793 87.643 92.7261 87.3823C92.6729 87.1216 92.699 86.851 92.801 86.605C92.903 86.359 93.0763 86.1486 93.299 86.0006C93.5216 85.8525 93.7836 85.7734 94.0517 85.7734C94.4082 85.7734 94.7504 85.9132 95.0037 86.1622C95.257 86.4113 95.4009 86.7495 95.4042 87.1033Z" fill="#E0EDFE"/>
<path d="M104.322 87.1033C104.325 87.3694 104.247 87.6301 104.1 87.8525C103.953 88.0748 103.743 88.2488 103.496 88.3523C103.249 88.4558 102.977 88.4842 102.714 88.4339C102.45 88.3835 102.208 88.2566 102.018 88.0694C101.827 87.8821 101.697 87.643 101.644 87.3823C101.591 87.1216 101.617 86.851 101.719 86.605C101.821 86.359 101.994 86.1486 102.217 86.0006C102.44 85.8525 102.702 85.7734 102.97 85.7734C103.326 85.7734 103.668 85.9132 103.922 86.1622C104.175 86.4113 104.319 86.7495 104.322 87.1033Z" fill="#E0EDFE"/>
<path d="M113.238 87.1034C113.241 87.3699 113.163 87.6312 113.016 87.8538C112.868 88.0765 112.657 88.2504 112.409 88.3536C112.161 88.4567 111.888 88.4843 111.625 88.4329C111.361 88.3815 111.119 88.2534 110.929 88.0649C110.739 87.8765 110.61 87.6361 110.559 87.3746C110.507 87.1131 110.535 86.8422 110.639 86.5964C110.742 86.3506 110.918 86.1411 111.142 85.9946C111.366 85.848 111.63 85.771 111.898 85.7735C112.254 85.7735 112.594 85.9136 112.846 86.163C113.097 86.4124 113.238 86.7507 113.238 87.1034Z" fill="#E0EDFE"/>
<path d="M122.154 87.1034C122.157 87.3699 122.079 87.6312 121.931 87.8538C121.784 88.0765 121.573 88.2504 121.325 88.3536C121.077 88.4567 120.804 88.4843 120.541 88.4329C120.277 88.3815 120.035 88.2534 119.845 88.0649C119.655 87.8765 119.526 87.6361 119.475 87.3746C119.423 87.1131 119.451 86.8422 119.555 86.5964C119.658 86.3506 119.834 86.1411 120.058 85.9946C120.282 85.848 120.546 85.771 120.814 85.7735C121.17 85.7735 121.51 85.9136 121.762 86.163C122.013 86.4124 122.154 86.7507 122.154 87.1034Z" fill="#E0EDFE"/>
<path d="M131.084 87.1033C131.086 87.3694 131.009 87.6301 130.862 87.8525C130.715 88.0748 130.505 88.2488 130.258 88.3523C130.011 88.4558 129.738 88.4842 129.475 88.4339C129.212 88.3835 128.97 88.2566 128.779 88.0694C128.589 87.8821 128.459 87.643 128.406 87.3823C128.353 87.1216 128.379 86.851 128.481 86.605C128.583 86.359 128.756 86.1486 128.979 86.0006C129.201 85.8525 129.463 85.7734 129.731 85.7734C130.088 85.7734 130.43 85.9132 130.683 86.1622C130.937 86.4113 131.081 86.7495 131.084 87.1033Z" fill="#E0EDFE"/>
<path d="M140.002 87.1033C140.004 87.3694 139.927 87.6301 139.78 87.8525C139.633 88.0748 139.423 88.2488 139.176 88.3523C138.929 88.4558 138.656 88.4842 138.393 88.4339C138.13 88.3835 137.888 88.2566 137.697 88.0694C137.507 87.8821 137.377 87.643 137.324 87.3823C137.271 87.1216 137.297 86.851 137.399 86.605C137.501 86.359 137.674 86.1486 137.897 86.0006C138.119 85.8525 138.381 85.7734 138.649 85.7734C139.006 85.7734 139.348 85.9132 139.601 86.1622C139.855 86.4113 139.999 86.7495 140.002 87.1033Z" fill="#E0EDFE"/>
<path d="M86.4882 93.5662C86.4907 93.8322 86.4135 94.093 86.2664 94.3154C86.1193 94.5377 85.9089 94.7117 85.662 94.8152C85.4151 94.9187 85.1428 94.9471 84.8796 94.8967C84.6164 94.8463 84.3742 94.7195 84.1838 94.5322C83.9934 94.345 83.8633 94.1059 83.8101 93.8452C83.7569 93.5845 83.7829 93.3139 83.8849 93.0679C83.9869 92.8219 84.1603 92.6115 84.383 92.4635C84.6056 92.3154 84.8676 92.2363 85.1357 92.2363C85.4922 92.2363 85.8344 92.3761 86.0877 92.6251C86.3409 92.8742 86.4849 93.2124 86.4882 93.5662Z" fill="#E0EDFE"/>
<path d="M95.4042 93.5662C95.4067 93.8322 95.3295 94.093 95.1824 94.3154C95.0353 94.5377 94.8249 94.7117 94.578 94.8152C94.3311 94.9187 94.0588 94.9471 93.7956 94.8967C93.5324 94.8463 93.2902 94.7195 93.0998 94.5322C92.9094 94.345 92.7793 94.1059 92.7261 93.8452C92.6729 93.5845 92.699 93.3139 92.801 93.0679C92.903 92.8219 93.0763 92.6115 93.299 92.4635C93.5216 92.3154 93.7836 92.2363 94.0517 92.2363C94.4082 92.2363 94.7504 92.3761 95.0037 92.6251C95.257 92.8742 95.4009 93.2124 95.4042 93.5662Z" fill="#E0EDFE"/>
<path d="M104.322 93.5662C104.325 93.8322 104.247 94.093 104.1 94.3154C103.953 94.5377 103.743 94.7117 103.496 94.8152C103.249 94.9187 102.977 94.9471 102.714 94.8967C102.45 94.8463 102.208 94.7195 102.018 94.5322C101.827 94.345 101.697 94.1059 101.644 93.8452C101.591 93.5845 101.617 93.3139 101.719 93.0679C101.821 92.8219 101.994 92.6115 102.217 92.4635C102.44 92.3154 102.702 92.2363 102.97 92.2363C103.326 92.2363 103.668 92.3761 103.922 92.6251C104.175 92.8742 104.319 93.2124 104.322 93.5662Z" fill="#E0EDFE"/>
<path d="M113.238 93.5663C113.241 93.8328 113.163 94.0941 113.016 94.3167C112.868 94.5393 112.657 94.7133 112.409 94.8164C112.161 94.9195 111.888 94.9472 111.625 94.8958C111.361 94.8444 111.119 94.7163 110.929 94.5278C110.739 94.3394 110.61 94.099 110.559 93.8375C110.507 93.576 110.535 93.305 110.639 93.0592C110.742 92.8135 110.918 92.604 111.142 92.4574C111.366 92.3109 111.63 92.2339 111.898 92.2364C112.254 92.2364 112.594 92.3765 112.846 92.6259C113.097 92.8753 113.238 93.2136 113.238 93.5663Z" fill="#E0EDFE"/>
<path d="M122.154 93.5663C122.157 93.8328 122.079 94.0941 121.931 94.3167C121.784 94.5393 121.573 94.7133 121.325 94.8164C121.077 94.9195 120.804 94.9472 120.541 94.8958C120.277 94.8444 120.035 94.7163 119.845 94.5278C119.655 94.3394 119.526 94.099 119.475 93.8375C119.423 93.576 119.451 93.305 119.555 93.0592C119.658 92.8135 119.834 92.604 120.058 92.4574C120.282 92.3109 120.546 92.2339 120.814 92.2364C121.17 92.2364 121.51 92.3765 121.762 92.6259C122.013 92.8753 122.154 93.2136 122.154 93.5663Z" fill="#E0EDFE"/>
<path d="M131.084 93.5662C131.086 93.8322 131.009 94.093 130.862 94.3154C130.715 94.5377 130.505 94.7117 130.258 94.8152C130.011 94.9187 129.738 94.9471 129.475 94.8967C129.212 94.8463 128.97 94.7195 128.779 94.5322C128.589 94.345 128.459 94.1059 128.406 93.8452C128.353 93.5845 128.379 93.3139 128.481 93.0679C128.583 92.8219 128.756 92.6115 128.979 92.4635C129.201 92.3154 129.463 92.2363 129.731 92.2363C130.088 92.2363 130.43 92.3761 130.683 92.6251C130.937 92.8742 131.081 93.2124 131.084 93.5662Z" fill="#E0EDFE"/>
<path d="M140.002 93.5662C140.004 93.8322 139.927 94.093 139.78 94.3154C139.633 94.5377 139.423 94.7117 139.176 94.8152C138.929 94.9187 138.656 94.9471 138.393 94.8967C138.13 94.8463 137.888 94.7195 137.697 94.5322C137.507 94.345 137.377 94.1059 137.324 93.8452C137.271 93.5845 137.297 93.3139 137.399 93.0679C137.501 92.8219 137.674 92.6115 137.897 92.4635C138.119 92.3154 138.381 92.2363 138.649 92.2363C139.006 92.2363 139.348 92.3761 139.601 92.6251C139.855 92.8742 139.999 93.2124 140.002 93.5662Z" fill="#E0EDFE"/>
<path d="M86.4883 100.128C86.4883 100.484 86.3458 100.825 86.0921 101.077C85.8385 101.328 85.4944 101.47 85.1357 101.47C84.777 101.47 84.433 101.328 84.1793 101.077C83.9257 100.825 83.7832 100.484 83.7832 100.128C83.7832 99.7715 83.9257 99.43 84.1793 99.1783C84.433 98.9265 84.777 98.7852 85.1357 98.7852C85.4944 98.7852 85.8385 98.9265 86.0921 99.1783C86.3458 99.43 86.4883 99.7715 86.4883 100.128Z" fill="#E0EDFE"/>
<path d="M95.4043 100.128C95.4043 100.393 95.325 100.652 95.1764 100.873C95.0277 101.094 94.8165 101.266 94.5693 101.368C94.3222 101.469 94.0502 101.496 93.7879 101.444C93.5255 101.392 93.2845 101.264 93.0954 101.077C92.9062 100.889 92.7774 100.65 92.7252 100.389C92.673 100.129 92.6998 99.8591 92.8022 99.6138C92.9045 99.3685 93.0779 99.1589 93.3003 99.0114C93.5227 98.8639 93.7842 98.7852 94.0517 98.7852C94.4105 98.7852 94.7545 98.9265 95.0081 99.1783C95.2618 99.43 95.4043 99.7715 95.4043 100.128Z" fill="#E0EDFE"/>
<path d="M104.322 100.128C104.322 100.393 104.243 100.652 104.094 100.873C103.946 101.094 103.734 101.266 103.487 101.368C103.24 101.469 102.968 101.496 102.706 101.444C102.443 101.392 102.202 101.264 102.013 101.077C101.824 100.889 101.695 100.65 101.643 100.389C101.591 100.129 101.618 99.8591 101.72 99.6138C101.823 99.3685 101.996 99.1589 102.218 99.0114C102.441 98.8639 102.702 98.7852 102.97 98.7852C103.328 98.7852 103.672 98.9265 103.926 99.1783C104.18 99.43 104.322 99.7715 104.322 100.128Z" fill="#E0EDFE"/>
<path d="M113.238 100.128C113.238 100.394 113.159 100.654 113.009 100.875C112.86 101.096 112.648 101.268 112.4 101.369C112.153 101.47 111.88 101.496 111.617 101.443C111.355 101.39 111.114 101.261 110.925 101.072C110.736 100.883 110.608 100.643 110.558 100.382C110.507 100.12 110.535 99.8502 110.64 99.6052C110.744 99.3601 110.919 99.1514 111.143 99.0054C111.368 98.8594 111.63 98.7828 111.898 98.7852C112.075 98.7852 112.251 98.82 112.414 98.8876C112.577 98.9552 112.726 99.0543 112.85 99.1791C112.975 99.3039 113.073 99.452 113.14 99.6147C113.206 99.7775 113.24 99.9519 113.238 100.128Z" fill="#E0EDFE"/>
<path d="M122.154 100.128C122.154 100.394 122.075 100.654 121.925 100.875C121.776 101.096 121.564 101.268 121.316 101.369C121.069 101.47 120.796 101.496 120.533 101.443C120.271 101.39 120.03 101.261 119.841 101.072C119.652 100.883 119.524 100.643 119.474 100.382C119.423 100.12 119.452 99.8502 119.556 99.6052C119.66 99.3601 119.835 99.1514 120.059 99.0054C120.284 98.8594 120.546 98.7828 120.814 98.7852C120.991 98.7852 121.167 98.82 121.33 98.8876C121.493 98.9552 121.642 99.0543 121.766 99.1791C121.891 99.3039 121.989 99.452 122.056 99.6147C122.123 99.7775 122.156 99.9519 122.154 100.128Z" fill="#E0EDFE"/>
<path d="M131.084 100.128C131.084 100.393 131.005 100.652 130.856 100.873C130.707 101.094 130.496 101.266 130.249 101.368C130.002 101.469 129.73 101.496 129.468 101.444C129.205 101.392 128.964 101.264 128.775 101.077C128.586 100.889 128.457 100.65 128.405 100.389C128.353 100.129 128.379 99.8591 128.482 99.6138C128.584 99.3685 128.758 99.1589 128.98 99.0114C129.202 98.8639 129.464 98.7852 129.731 98.7852C130.09 98.7852 130.434 98.9265 130.688 99.1783C130.941 99.43 131.084 99.7715 131.084 100.128Z" fill="#E0EDFE"/>
<path d="M140.002 100.128C140.002 100.393 139.923 100.652 139.774 100.873C139.625 101.094 139.414 101.266 139.167 101.368C138.92 101.469 138.648 101.496 138.385 101.444C138.123 101.392 137.882 101.264 137.693 101.077C137.504 100.889 137.375 100.65 137.323 100.389C137.271 100.129 137.297 99.8591 137.4 99.6138C137.502 99.3685 137.676 99.1589 137.898 99.0114C138.12 98.8639 138.382 98.7852 138.649 98.7852C138.827 98.7852 139.003 98.8199 139.167 98.8873C139.331 98.9548 139.48 99.0536 139.606 99.1783C139.731 99.3029 139.831 99.4509 139.899 99.6138C139.967 99.7766 140.002 99.9512 140.002 100.128Z" fill="#E0EDFE"/>
<path d="M86.4883 106.641C86.4883 106.907 86.4089 107.166 86.2603 107.387C86.1117 107.608 85.9005 107.78 85.6533 107.881C85.4062 107.983 85.1342 108.009 84.8719 107.958C84.6095 107.906 84.3685 107.778 84.1793 107.59C83.9902 107.403 83.8614 107.163 83.8092 106.903C83.757 106.643 83.7838 106.373 83.8862 106.127C83.9885 105.882 84.1619 105.673 84.3843 105.525C84.6067 105.378 84.8682 105.299 85.1357 105.299C85.3133 105.299 85.4892 105.334 85.6533 105.401C85.8174 105.468 85.9665 105.567 86.0921 105.692C86.2177 105.817 86.3173 105.965 86.3853 106.127C86.4533 106.29 86.4883 106.465 86.4883 106.641Z" fill="#E0EDFE"/>
<path d="M95.4043 106.641C95.4043 106.907 95.325 107.166 95.1764 107.387C95.0277 107.608 94.8165 107.78 94.5693 107.881C94.3222 107.983 94.0502 108.009 93.7879 107.958C93.5255 107.906 93.2845 107.778 93.0954 107.59C92.9062 107.403 92.7774 107.163 92.7252 106.903C92.673 106.643 92.6998 106.373 92.8022 106.127C92.9045 105.882 93.0779 105.673 93.3003 105.525C93.5227 105.378 93.7842 105.299 94.0517 105.299C94.2294 105.299 94.4052 105.334 94.5693 105.401C94.7334 105.468 94.8825 105.567 95.0081 105.692C95.1337 105.817 95.2334 105.965 95.3013 106.127C95.3693 106.29 95.4043 106.465 95.4043 106.641Z" fill="#E0EDFE"/>
<path d="M104.322 106.641C104.322 106.907 104.243 107.166 104.094 107.387C103.946 107.608 103.734 107.78 103.487 107.881C103.24 107.983 102.968 108.009 102.706 107.958C102.443 107.906 102.202 107.778 102.013 107.59C101.824 107.403 101.695 107.163 101.643 106.903C101.591 106.643 101.618 106.373 101.72 106.127C101.823 105.882 101.996 105.673 102.218 105.525C102.441 105.378 102.702 105.299 102.97 105.299C103.147 105.299 103.323 105.334 103.487 105.401C103.651 105.468 103.801 105.567 103.926 105.692C104.052 105.817 104.151 105.965 104.219 106.127C104.287 106.29 104.322 106.465 104.322 106.641Z" fill="#E0EDFE"/>
<path d="M113.238 106.641C113.238 106.907 113.159 107.167 113.009 107.388C112.86 107.609 112.648 107.781 112.4 107.883C112.153 107.984 111.88 108.01 111.617 107.957C111.355 107.904 111.114 107.775 110.925 107.586C110.736 107.397 110.608 107.157 110.558 106.895C110.507 106.634 110.535 106.364 110.64 106.119C110.744 105.874 110.919 105.665 111.143 105.519C111.368 105.373 111.63 105.296 111.898 105.299C112.255 105.302 112.596 105.445 112.847 105.696C113.098 105.948 113.238 106.287 113.238 106.641Z" fill="#E0EDFE"/>
<path d="M122.154 106.641C122.154 106.907 122.075 107.167 121.925 107.388C121.776 107.609 121.564 107.781 121.316 107.883C121.069 107.984 120.796 108.01 120.533 107.957C120.271 107.904 120.03 107.775 119.841 107.586C119.652 107.397 119.524 107.157 119.474 106.895C119.423 106.634 119.452 106.364 119.556 106.119C119.66 105.874 119.835 105.665 120.059 105.519C120.284 105.373 120.546 105.296 120.814 105.299C121.171 105.302 121.512 105.445 121.763 105.696C122.014 105.948 122.154 106.287 122.154 106.641Z" fill="#E0EDFE"/>
<path d="M131.084 106.641C131.084 106.907 131.005 107.166 130.856 107.387C130.707 107.608 130.496 107.78 130.249 107.881C130.002 107.983 129.73 108.009 129.468 107.958C129.205 107.906 128.964 107.778 128.775 107.59C128.586 107.403 128.457 107.163 128.405 106.903C128.353 106.643 128.379 106.373 128.482 106.127C128.584 105.882 128.758 105.673 128.98 105.525C129.202 105.378 129.464 105.299 129.731 105.299C130.089 105.302 130.431 105.445 130.684 105.696C130.937 105.947 131.081 106.286 131.084 106.641Z" fill="#E0EDFE"/>
<path d="M140.002 106.641C140.002 106.907 139.923 107.166 139.774 107.387C139.625 107.608 139.414 107.78 139.167 107.881C138.92 107.983 138.648 108.009 138.385 107.958C138.123 107.906 137.882 107.778 137.693 107.59C137.504 107.403 137.375 107.163 137.323 106.903C137.271 106.643 137.297 106.373 137.4 106.127C137.502 105.882 137.676 105.673 137.898 105.525C138.12 105.378 138.382 105.299 138.649 105.299C138.827 105.299 139.003 105.334 139.167 105.401C139.331 105.468 139.48 105.567 139.606 105.692C139.731 105.817 139.831 105.965 139.899 106.127C139.967 106.29 140.002 106.465 140.002 106.641Z" fill="#E0EDFE"/>
</g>
<path opacity="0.25" d="M122.401 99.461C128.123 75.7917 113.427 52.0008 89.5775 46.3227C65.7282 40.6445 41.7565 55.2293 36.0351 78.8987C30.3138 102.568 45.0095 126.359 68.8588 132.037C92.7082 137.715 116.68 123.13 122.401 99.461Z" fill="url(#paint0_linear_927_11457)"/>
<path d="M133.338 27.6908L125.436 53.7917C125.231 54.4609 124.815 55.0471 124.249 55.4634C123.683 55.8798 122.997 56.1042 122.292 56.1035H90.4074C89.7028 56.1042 89.0167 55.8798 88.4505 55.4634C87.8844 55.0471 87.4684 54.4609 87.264 53.7917L79.3617 27.6908C79.2089 27.2045 79.1731 26.6893 79.2574 26.1868C79.3417 25.6842 79.5436 25.2083 79.8469 24.7973C80.1502 24.3863 80.5464 24.0516 81.0037 23.8202C81.461 23.5888 81.9667 23.4671 82.48 23.465H130.194C130.711 23.4606 131.221 23.5776 131.683 23.8066C132.145 24.0355 132.546 24.3698 132.852 24.7821C133.159 25.1944 133.363 25.673 133.447 26.1786C133.532 26.6842 133.494 27.2024 133.338 27.6908Z" fill="#372B49"/>
<g style="mix-blend-mode:overlay" opacity="0.25">
<path d="M96.8831 27.7673C96.927 27.9151 96.9348 28.0711 96.9058 28.2225C96.8768 28.3739 96.8118 28.5162 96.7163 28.6377C96.6208 28.7593 96.4976 28.8564 96.3567 28.9212C96.2158 28.9859 96.0614 29.0164 95.9062 29.0101C95.5507 28.9938 95.2099 28.864 94.9346 28.6401C94.6594 28.4162 94.4643 28.1101 94.3784 27.7673L93.4141 23.4668H95.9188L96.8831 27.7673Z" fill="black"/>
</g>
<g style="mix-blend-mode:overlay" opacity="0.25">
<path d="M115.43 29.0101C115.074 28.9938 114.733 28.864 114.458 28.6401C114.183 28.4162 113.988 28.1101 113.902 27.7673L112.938 23.4668H115.442L116.406 27.7673C116.45 27.9151 116.458 28.0711 116.429 28.2225C116.4 28.3739 116.335 28.5162 116.24 28.6377C116.144 28.7593 116.021 28.8564 115.88 28.9212C115.739 28.9859 115.585 29.0164 115.43 29.0101Z" fill="black"/>
</g>
<path d="M104.673 6.33904C101.841 6.58958 99.2088 7.89304 97.3044 9.98823C95.4 12.0834 94.3638 14.8155 94.4034 17.6369V27.692C94.4034 28.0216 94.5354 28.3378 94.7703 28.5709C95.0051 28.8039 95.3236 28.9349 95.6558 28.9349C95.9879 28.9349 96.3065 28.8039 96.5414 28.5709C96.7762 28.3378 96.9081 28.0216 96.9081 27.692V17.2516C96.9102 16.0479 97.1709 14.8585 97.673 13.7627C98.175 12.667 98.9068 11.69 99.8194 10.8972C100.732 10.1044 101.805 9.51386 102.965 9.16507C104.126 8.81628 105.349 8.71721 106.551 8.87452C108.63 9.20266 110.521 10.2623 111.877 11.8598C113.234 13.4572 113.966 15.4858 113.94 17.5748V27.692C113.94 28.0216 114.072 28.3378 114.307 28.5709C114.542 28.8039 114.86 28.9349 115.192 28.9349C115.525 28.9349 115.843 28.8039 116.078 28.5709C116.313 28.3378 116.445 28.0216 116.445 27.692V17.2516C116.443 15.753 116.131 14.2706 115.529 12.8963C114.927 11.5221 114.046 10.2852 112.943 9.26217C111.839 8.23918 110.536 7.45192 109.113 6.94911C107.691 6.44629 106.179 6.23867 104.673 6.33904Z" fill="url(#paint1_linear_927_11457)"/>
<path d="M46.4762 100.091C46.8895 93.5785 58.649 84.6172 58.4987 80.2049C58.3485 75.7926 51.5106 71.7656 51.5106 71.7656L33.2013 73.6797C33.3532 75.3998 33.3532 77.1299 33.2013 78.8501C32.9133 79.571 39.0122 88.0351 39.0122 88.0351" fill="#864426"/>
<path d="M91.2465 55.4572C91.2398 64.0818 87.7847 72.3512 81.6399 78.4497C75.495 84.5482 67.1626 87.9773 58.4725 87.9839C51.9833 87.9888 45.6385 86.0832 40.2409 82.5083C34.8433 78.9334 30.6355 73.8498 28.1499 67.9008C25.6644 61.9518 25.0127 55.4047 26.2775 49.088C27.5422 42.7713 30.6666 36.9689 35.2551 32.415C39.8436 27.8611 45.6901 24.7603 52.0548 23.5051C58.4196 22.2499 65.0164 22.8967 71.0107 25.3635C77.0049 27.8303 82.1272 32.0064 85.7292 37.3632C89.3313 42.7201 91.2514 49.0171 91.2465 55.4572Z" fill="url(#paint2_linear_927_11457)"/>
<path d="M89.7194 55.4583C89.7161 63.6697 86.4287 71.544 80.5794 77.3515C74.7301 83.159 66.7972 86.4248 58.5234 86.4313C52.3455 86.4338 46.3056 84.6179 41.1676 81.2133C36.0296 77.8087 32.0244 72.9683 29.6585 67.3044C27.2925 61.6405 26.6722 55.4075 27.876 49.3937C29.0797 43.3799 32.0534 37.8554 36.421 33.5191C40.7886 29.1827 46.3539 26.2292 52.4129 25.0321C58.472 23.835 64.7527 24.4482 70.4606 26.7939C76.1685 29.1397 81.0473 33.1128 84.4798 38.2106C87.9123 43.3085 89.7445 49.3021 89.7445 55.4335L89.7194 55.4583Z" fill="url(#paint3_linear_927_11457)"/>
<path d="M80.6735 60.7079C83.587 48.5611 76.0271 36.3701 63.7879 33.4786C51.5488 30.5871 39.2651 38.0899 36.3516 50.2367C33.438 62.3835 40.998 74.5745 53.2371 77.4661C65.4763 80.3576 77.76 72.8547 80.6735 60.7079Z" fill="url(#paint4_linear_927_11457)"/>
<path d="M58.4978 76.0286C69.9447 76.0286 79.2242 66.8191 79.2242 55.4586C79.2242 44.0982 69.9447 34.8887 58.4978 34.8887C47.051 34.8887 37.7715 44.0982 37.7715 55.4586C37.7715 66.8191 47.051 76.0286 58.4978 76.0286Z" fill="url(#paint5_linear_927_11457)"/>
<g style="mix-blend-mode:overlay" opacity="0.15">
<path d="M91.2466 55.4962C91.24 64.1208 87.7849 72.3903 81.64 78.4888C75.4952 84.5873 67.1628 88.0163 58.4727 88.0228C58.4727 87.5133 58.4727 86.9912 58.4727 86.4692C58.4892 78.2391 61.7952 70.3517 67.6649 64.5379C73.5346 58.7241 81.4886 55.459 89.7814 55.459C90.2573 55.459 90.7707 55.4714 91.2466 55.4962Z" fill="black"/>
</g>
<path d="M16.3945 128.876C23.9838 114.098 25.0232 105.261 25.4741 95.6411C25.9249 86.021 24.2217 75.5559 31.7358 70.6837C39.2499 65.8116 40.5022 60.7405 42.2931 64.1958C44.0839 67.651 42.2931 75.1457 39.1747 78.8247C45.2737 87.6741 46.9017 103.024 46.9017 103.024C46.9017 103.024 48.2417 134.034 47.6531 136.396C47.0645 138.757 27.9913 146.152 16.3945 128.876Z" fill="#AB5E27"/>
<path d="M46.4512 51.3066H51.2727V52.2637H47.6033V55.2218H50.9972V56.1788H47.6033V60.1934H46.4512V51.3066Z" fill="url(#paint6_linear_927_11457)"/>
<path d="M59.1859 59.8947C58.4358 60.1996 57.6292 60.3436 56.819 60.3173C56.2192 60.3534 55.6187 60.2609 55.0582 60.0459C54.4977 59.831 53.9904 59.4988 53.5709 59.0718C53.1514 58.6449 52.8296 58.1333 52.6272 57.5718C52.4248 57.0103 52.3467 56.4122 52.3982 55.818C52.3621 55.1971 52.4584 54.5756 52.6807 53.994C52.9029 53.4125 53.2463 52.884 53.6882 52.443C54.1302 52.002 54.6609 51.6585 55.2456 51.4348C55.8304 51.2111 56.4561 51.1122 57.082 51.1447C57.809 51.1118 58.5338 51.248 59.1984 51.5424L58.9229 52.4746C58.3558 52.2243 57.74 52.1013 57.1195 52.1142C56.6303 52.0863 56.141 52.1659 55.6864 52.3472C55.2317 52.5286 54.823 52.8073 54.4893 53.1634C54.1556 53.5194 53.9052 53.9442 53.7559 54.4074C53.6066 54.8705 53.562 55.3607 53.6255 55.8429C53.5733 56.3117 53.6252 56.7861 53.7775 57.2329C53.9298 57.6797 54.1788 58.088 54.507 58.4291C54.8352 58.7703 55.2346 59.0359 55.6773 59.2075C56.12 59.3791 56.5951 59.4525 57.0694 59.4224C57.715 59.4305 58.3551 59.3034 58.9479 59.0495L59.1859 59.8947Z" fill="url(#paint7_linear_927_11457)"/>
<path d="M60.6387 51.3066H65.4728V52.2637H61.8033V55.2218H65.1847V56.1788H61.8033V60.1934H60.6387V51.3066Z" fill="url(#paint8_linear_927_11457)"/>
<path d="M67.5392 57.3844L66.5999 60.1809H65.4102L68.4534 51.3066H69.8435L72.8992 60.1934H71.6469L70.6825 57.3969L67.5392 57.3844ZM70.4697 56.4895L69.593 53.9291C69.3926 53.3574 69.2674 52.823 69.1296 52.3134C68.9919 52.8354 68.8416 53.3822 68.6788 53.9167L67.8021 56.4895H70.4697Z" fill="url(#paint9_linear_927_11457)"/>
<path d="M133.839 43.2656H100.352C98.588 43.2656 97.1582 44.6846 97.1582 46.435V86.0213C97.1582 87.7717 98.588 89.1907 100.352 89.1907H133.839C135.603 89.1907 137.033 87.7717 137.033 86.0213V46.435C137.033 44.6846 135.603 43.2656 133.839 43.2656Z" fill="url(#paint10_linear_927_11457)"/>
<g opacity="0.25">
<path d="M128.944 79.7697H122.256C122.106 79.7697 121.98 79.459 121.98 79.0737C121.98 78.6884 122.106 78.3652 122.256 78.3652H128.944C129.094 78.3652 129.219 78.6884 129.219 79.0737C129.219 79.459 129.094 79.7697 128.944 79.7697Z" fill="black"/>
<path d="M106.338 76.4375H109.018V76.972H106.977V78.6499H108.868V79.1719H106.977V81.4091H106.338V76.4375Z" fill="black"/>
<path d="M113.413 81.2112C112.995 81.3779 112.548 81.4582 112.098 81.4473C111.762 81.4735 111.425 81.4271 111.109 81.3114C110.793 81.1958 110.506 81.0136 110.268 80.7773C110.03 80.541 109.847 80.2564 109.73 79.9429C109.613 79.6295 109.567 79.2946 109.593 78.9615C109.577 78.6183 109.633 78.2756 109.758 77.955C109.882 77.6344 110.072 77.3428 110.316 77.0988C110.559 76.8547 110.851 76.6634 111.173 76.5369C111.495 76.4104 111.84 76.3514 112.185 76.3638C112.59 76.3461 112.993 76.4228 113.363 76.5876L113.212 77.1096C112.899 76.9634 112.556 76.8911 112.211 76.8983C111.942 76.8841 111.674 76.928 111.424 77.027C111.174 77.126 110.949 77.2778 110.765 77.4717C110.58 77.6656 110.44 77.8971 110.354 78.15C110.269 78.403 110.24 78.6714 110.269 78.9366C110.242 79.196 110.271 79.4582 110.356 79.7052C110.44 79.9521 110.578 80.1779 110.759 80.367C110.94 80.5561 111.16 80.7039 111.404 80.8003C111.648 80.8967 111.911 80.9393 112.173 80.9253C112.535 80.9292 112.893 80.8572 113.225 80.714L113.413 81.2112Z" fill="black"/>
<path d="M114.215 76.4375H116.895V76.972H114.854V78.6499H116.745V79.1719H114.854V81.4091H114.215V76.4375Z" fill="black"/>
<path d="M118.047 79.8184L117.521 81.372H116.857L118.548 76.4004H119.325L121.028 81.372H120.339L119.8 79.8184H118.047ZM119.675 79.3212L119.187 77.9043C119.074 77.5812 118.999 77.2828 118.924 76.997C118.849 77.2953 118.773 77.5936 118.673 77.8919L118.185 79.3212H119.675Z" fill="black"/>
</g>
<path opacity="0.15" d="M123.921 51.7795H106.651C106.465 51.7795 106.286 51.7062 106.155 51.5756C106.023 51.4451 105.949 51.2681 105.949 51.0835C105.948 50.991 105.965 50.8991 105.999 50.8132C106.034 50.7274 106.085 50.6492 106.15 50.5832C106.216 50.5173 106.293 50.4649 106.379 50.4292C106.465 50.3934 106.557 50.375 106.651 50.375H123.921C124.014 50.375 124.106 50.3934 124.192 50.4292C124.278 50.4649 124.356 50.5173 124.421 50.5832C124.486 50.6492 124.538 50.7274 124.572 50.8132C124.607 50.8991 124.624 50.991 124.622 51.0835C124.622 51.2681 124.548 51.4451 124.416 51.5756C124.285 51.7062 124.107 51.7795 123.921 51.7795Z" fill="black"/>
<path opacity="0.15" d="M123.92 55.881H106.651C106.463 55.8778 106.285 55.8017 106.154 55.6692C106.023 55.5367 105.949 55.3583 105.949 55.1726C105.949 54.988 106.023 54.811 106.155 54.6805C106.286 54.5499 106.465 54.4766 106.651 54.4766H123.92C124.106 54.4766 124.285 54.5499 124.416 54.6805C124.548 54.811 124.622 54.988 124.622 55.1726C124.622 55.3583 124.548 55.5367 124.417 55.6692C124.286 55.8017 124.108 55.8778 123.92 55.881Z" fill="black"/>
<path opacity="0.15" d="M123.92 60.0073H106.651C106.465 60.0073 106.286 59.934 106.155 59.8034C106.023 59.6729 105.949 59.4959 105.949 59.3113C105.949 59.1267 106.023 58.9496 106.155 58.8191C106.286 58.6885 106.465 58.6152 106.651 58.6152H123.92C124.106 58.6152 124.285 58.6885 124.416 58.8191C124.548 58.9496 124.622 59.1267 124.622 59.3113C124.622 59.4959 124.548 59.6729 124.416 59.8034C124.285 59.934 124.106 60.0073 123.92 60.0073Z" fill="black"/>
<path opacity="0.15" d="M123.921 64.0705H106.651C106.465 64.0705 106.286 63.9971 106.155 63.8666C106.023 63.7361 105.949 63.5591 105.949 63.3745C105.948 63.282 105.965 63.1901 105.999 63.1043C106.034 63.0184 106.085 62.9402 106.15 62.8743C106.216 62.8083 106.293 62.7559 106.379 62.7202C106.465 62.6844 106.557 62.666 106.651 62.666H123.921C124.014 62.666 124.106 62.6844 124.192 62.7202C124.278 62.7559 124.356 62.8083 124.421 62.8743C124.486 62.9402 124.538 63.0184 124.572 63.1043C124.607 63.1901 124.624 63.282 124.622 63.3745C124.622 63.5591 124.548 63.7361 124.416 63.8666C124.285 63.9971 124.107 64.0705 123.921 64.0705Z" fill="black"/>
<path opacity="0.15" d="M123.921 68.1721H106.651C106.557 68.1721 106.465 68.1536 106.379 68.1179C106.293 68.0821 106.216 68.0298 106.15 67.9638C106.085 67.8979 106.034 67.8196 105.999 67.7337C105.965 67.6479 105.948 67.556 105.949 67.4636C105.949 67.279 106.023 67.1019 106.155 66.9714C106.286 66.8409 106.465 66.7676 106.651 66.7676H123.921C124.107 66.7676 124.285 66.8409 124.416 66.9714C124.548 67.1019 124.622 67.279 124.622 67.4636C124.624 67.556 124.607 67.6479 124.572 67.7337C124.538 67.8196 124.486 67.8979 124.421 67.9638C124.356 68.0298 124.278 68.0821 124.192 68.1179C124.106 68.1536 124.014 68.1721 123.921 68.1721Z" fill="black"/>
<path opacity="0.15" d="M123.92 72.2612H106.651C106.465 72.2612 106.286 72.1879 106.155 72.0573C106.023 71.9268 105.949 71.7498 105.949 71.5652C105.949 71.3806 106.023 71.2035 106.155 71.073C106.286 70.9424 106.465 70.8691 106.651 70.8691H123.92C124.106 70.8691 124.285 70.9424 124.416 71.073C124.548 71.2035 124.622 71.3806 124.622 71.5652C124.622 71.7498 124.548 71.9268 124.416 72.0573C124.285 72.1879 124.106 72.2612 123.92 72.2612Z" fill="black"/>
<path opacity="0.25" d="M16.3941 93.566C16.3965 95.1767 15.9175 96.7519 15.0177 98.0923C14.1179 99.4327 12.8376 100.478 11.339 101.096C9.8403 101.714 8.19057 101.877 6.59855 101.565C5.00652 101.252 3.54375 100.477 2.3953 99.3394C1.24685 98.2014 0.464348 96.7508 0.146822 95.1712C-0.170704 93.5917 -0.00900254 91.9542 0.611484 90.4659C1.23197 88.9776 2.28336 87.7054 3.63259 86.8104C4.98182 85.9153 6.56825 85.4375 8.19116 85.4375C9.26778 85.4359 10.3342 85.6449 11.3293 86.0527C12.3245 86.4604 13.2288 87.0589 13.9907 87.8139C14.7526 88.5689 15.357 89.4655 15.7694 90.4525C16.1818 91.4395 16.3941 92.4975 16.3941 93.566Z" fill="url(#paint11_linear_927_11457)"/>
<path opacity="0.25" d="M135.23 8.12861C135.232 9.7398 134.753 11.3155 133.853 12.6562C132.952 13.9969 131.671 15.0422 130.172 15.66C128.673 16.2777 127.022 16.4399 125.43 16.1262C123.837 15.8125 122.375 15.0369 121.227 13.8976C120.079 12.7583 119.297 11.3066 118.981 9.72623C118.665 8.14588 118.829 6.50792 119.451 5.01985C120.073 3.53177 121.127 2.26046 122.478 1.36686C123.829 0.473266 125.416 -0.00244848 127.04 9.47704e-06C129.212 9.47704e-06 131.295 0.856415 132.831 2.38081C134.367 3.90521 135.23 5.97278 135.23 8.12861Z" fill="url(#paint12_linear_927_11457)"/>
</g>
<defs>
<linearGradient id="paint0_linear_927_11457" x1="72.8598" y1="153.023" x2="82.2359" y2="57.3181" gradientUnits="userSpaceOnUse">
<stop stop-color="#E0EDFE"/>
<stop offset="1" stop-color="#9FB1FA"/>
</linearGradient>
<linearGradient id="paint1_linear_927_11457" x1="104.635" y1="35.833" x2="107.719" y2="-16.8935" gradientUnits="userSpaceOnUse">
<stop stop-color="#4CEDCE"/>
<stop offset="1" stop-color="#529AB3"/>
</linearGradient>
<linearGradient id="paint2_linear_927_11457" x1="86.3122" y1="154.143" x2="54.6255" y2="40.0202" gradientUnits="userSpaceOnUse">
<stop stop-color="#FF9500"/>
<stop offset="1" stop-color="#FFE3A4"/>
</linearGradient>
<linearGradient id="paint3_linear_927_11457" x1="53.0757" y1="123.358" x2="63.1299" y2="-4.56082" gradientUnits="userSpaceOnUse">
<stop stop-color="#FF9500"/>
<stop offset="1" stop-color="#FFE3A4"/>
</linearGradient>
<linearGradient id="paint4_linear_927_11457" x1="65.257" y1="46.4689" x2="128.034" y2="-38.6029" gradientUnits="userSpaceOnUse">
<stop stop-color="#FF9500"/>
<stop offset="1" stop-color="#FFE3A4"/>
</linearGradient>
<linearGradient id="paint5_linear_927_11457" x1="49.6187" y1="78.3777" x2="101.712" y2="-58.1207" gradientUnits="userSpaceOnUse">
<stop stop-color="#FF9500"/>
<stop offset="1" stop-color="#FFE3A4"/>
</linearGradient>
<linearGradient id="paint6_linear_927_11457" x1="48.8682" y1="50.1383" x2="48.8682" y2="51.2942" gradientUnits="userSpaceOnUse">
<stop stop-color="#FF9500"/>
<stop offset="1" stop-color="#FFE3A4"/>
</linearGradient>
<linearGradient id="paint7_linear_927_11457" x1="55.8046" y1="50.138" x2="55.8046" y2="51.2939" gradientUnits="userSpaceOnUse">
<stop stop-color="#FF9500"/>
<stop offset="1" stop-color="#FFE3A4"/>
</linearGradient>
<linearGradient id="paint8_linear_927_11457" x1="63.0557" y1="50.1383" x2="63.0557" y2="51.2942" gradientUnits="userSpaceOnUse">
<stop stop-color="#FF9500"/>
<stop offset="1" stop-color="#FFE3A4"/>
</linearGradient>
<linearGradient id="paint9_linear_927_11457" x1="69.1547" y1="50.1383" x2="69.1547" y2="51.2942" gradientUnits="userSpaceOnUse">
<stop stop-color="#FF9500"/>
<stop offset="1" stop-color="#FFE3A4"/>
</linearGradient>
<linearGradient id="paint10_linear_927_11457" x1="121.617" y1="32.8501" x2="106.662" y2="144.965" gradientUnits="userSpaceOnUse">
<stop stop-color="#C2EDFF"/>
<stop offset="1" stop-color="#9FB1FA"/>
</linearGradient>
<linearGradient id="paint11_linear_927_11457" x1="10.4203" y1="133.699" x2="7.78051" y2="85.398" gradientUnits="userSpaceOnUse">
<stop stop-color="#E0EDFE"/>
<stop offset="1" stop-color="#9FB1FA"/>
</linearGradient>
<linearGradient id="paint12_linear_927_11457" x1="129.256" y1="48.2122" x2="126.616" y2="-0.0767624" gradientUnits="userSpaceOnUse">
<stop stop-color="#E0EDFE"/>
<stop offset="1" stop-color="#9FB1FA"/>
</linearGradient>
<clipPath id="clip0_927_11457">
<rect width="140" height="140" fill="white"/>
</clipPath>
</defs>
</svg>
