<svg width="140" height="140" viewBox="0 0 140 140" fill="none" xmlns="http://www.w3.org/2000/svg">
<g clip-path="url(#clip0_927_395)">
<path d="M134.48 108.153L4.98047 111.189V89.0391H135.726L134.48 108.153Z" fill="#1A2E35"/>
<path opacity="0.5" d="M134.48 108.153L4.98047 111.189V89.0391H135.726L134.48 108.153Z" fill="black"/>
<path d="M0.0156986 94.7238V105.952C0.0155733 107.124 0.390894 108.266 1.08665 109.209C1.78241 110.152 2.76201 110.847 3.88186 111.193L4.78446 111.47C5.34833 111.644 5.93651 111.727 6.52649 111.714L12.5739 111.572C11.9317 109.322 11.8135 106.955 12.2283 104.652C12.6432 102.349 13.5801 100.171 14.9672 98.2868C16.3542 96.4021 18.1546 94.8603 20.2301 93.7795C22.3057 92.6987 24.6012 92.1078 26.9406 92.052C29.28 91.9962 31.6011 92.477 33.7258 93.4576C35.8505 94.4382 37.7223 95.8925 39.1977 97.7089C40.673 99.5253 41.7126 101.656 42.2368 103.936C42.761 106.217 42.7557 108.587 42.2215 110.865L103.761 109.403C103.47 107.318 103.612 105.196 104.177 103.168C104.743 101.14 105.72 99.2505 107.048 97.6171C108.376 95.9837 110.027 94.6416 111.897 93.6743C113.766 92.707 115.815 92.1354 117.916 91.9951C120.017 91.8549 122.123 92.1489 124.105 92.8589C126.087 93.569 127.901 94.6798 129.435 96.122C130.968 97.5643 132.188 99.307 133.019 101.242C133.849 103.176 134.271 105.261 134.26 107.366C134.26 107.667 134.236 107.968 134.236 108.254C134.317 108.221 134.402 108.188 134.483 108.149L136.589 107.21C137.605 106.75 138.468 106.008 139.073 105.071C139.678 104.134 140 103.042 140.001 101.927V79.0606C139.999 78.0071 139.709 76.9741 139.164 76.0729C138.618 75.1716 137.837 74.4362 136.905 73.9459L121.088 65.6269C120.906 65.5318 120.766 65.3718 120.697 65.1786C120.621 64.9711 120.63 64.7419 120.723 64.5413C120.815 64.3406 120.983 64.1846 121.19 64.1075L123.128 63.4125C123.225 63.3797 123.308 63.3149 123.363 63.2289C123.418 63.1428 123.443 63.0404 123.432 62.9387C123.422 62.8369 123.377 62.7417 123.305 62.6687C123.234 62.5957 123.139 62.5493 123.038 62.5369C115.516 61.4899 86.2897 57.6689 70.9243 59.5463C53.1942 61.6975 36.2071 77.0689 36.2071 77.0689C23.1645 76.5785 10.9884 81.1186 5.74423 83.3871C4.90701 83.7528 4.15563 84.2898 3.53847 84.9634C2.92131 85.637 2.45205 86.4324 2.16089 87.2984L0.355681 92.6117C0.127157 93.2923 0.0122911 94.0059 0.0156986 94.7238Z" fill="#FF8C00"/>
<path d="M103.776 109.41C103.685 108.735 103.641 108.054 103.643 107.373C103.643 107.027 103.643 106.684 103.673 106.341L92.5413 101.789C91.8892 101.524 91.1858 101.41 90.4834 101.455L51.7767 103.994C51.1471 104.035 50.5326 104.205 49.9715 104.494L42.6153 108.276C42.5636 109.15 42.4388 110.018 42.2422 110.872L103.776 109.41Z" fill="#1A2E35"/>
<path d="M139.997 101.933V101.35L133.703 103.275C134.07 104.61 134.256 105.988 134.257 107.373C134.257 107.674 134.233 107.975 134.233 108.261C134.314 108.227 134.398 108.194 134.479 108.155L136.585 107.217C137.602 106.757 138.465 106.015 139.07 105.078C139.675 104.141 139.997 103.049 139.997 101.933Z" fill="#1A2E35"/>
<path d="M1.78516 109.99C2.38887 110.543 3.10839 110.955 3.89123 111.194L4.79384 111.471C5.3577 111.645 5.94588 111.727 6.53587 111.714L12.5833 111.573C12.3645 110.808 12.2066 110.028 12.111 109.238L1.78516 109.99Z" fill="#1A2E35"/>
<path d="M118.976 90.6074C116.6 90.607 114.251 91.112 112.084 92.0888C109.918 93.0656 107.984 94.4919 106.412 96.273C104.839 98.0542 103.663 100.149 102.961 102.42C102.26 104.69 102.05 107.084 102.344 109.442L103.794 109.406C103.503 107.321 103.645 105.198 104.21 103.17C104.776 101.142 105.753 99.253 107.081 97.6196C108.409 95.9862 110.06 94.644 111.93 93.6768C113.799 92.7095 115.849 92.1379 117.949 91.9976C120.05 91.8573 122.156 92.1514 124.138 92.8614C126.12 93.5715 127.934 94.6822 129.468 96.1245C131.001 97.5668 132.221 99.3095 133.052 101.244C133.882 103.179 134.304 105.264 134.293 107.369C134.293 107.67 134.269 107.971 134.269 108.256C134.35 108.223 134.435 108.19 134.516 108.151L135.719 107.603V107.369C135.714 102.926 133.946 98.666 130.805 95.5239C127.663 92.3819 123.404 90.6138 118.961 90.6074H118.976Z" fill="#1A2E35"/>
<path d="M27.3256 90.6074C24.763 90.6066 22.2344 91.1933 19.934 92.3225C17.6337 93.4517 15.6229 95.0933 14.0561 97.1211C12.4894 99.149 11.4085 101.509 10.8965 104.02C10.3846 106.531 10.4551 109.126 11.1028 111.605L12.592 111.575C11.9498 109.325 11.8316 106.957 12.2464 104.654C12.6613 102.351 13.5982 100.174 14.9853 98.2893C16.3724 96.4046 18.1727 94.8627 20.2483 93.782C22.3238 92.7012 24.6193 92.1102 26.9587 92.0544C29.2981 91.9987 31.6192 92.4795 33.7439 93.4601C35.8686 94.4407 37.7404 95.895 39.2158 97.7114C40.6911 99.5278 41.7307 101.658 42.2549 103.939C42.7791 106.219 42.7738 108.59 42.2396 110.868L43.7229 110.832C44.2401 108.391 44.2053 105.865 43.6213 103.439C43.0372 101.013 41.9185 98.7477 40.347 96.8094C38.7755 94.8711 36.7908 93.3083 34.5379 92.2353C32.285 91.1623 29.8209 90.6061 27.3256 90.6074Z" fill="#1A2E35"/>
<path d="M41.9096 77.7239C41.7264 77.8851 41.6007 78.1017 41.5516 78.3407C41.4816 78.6075 41.5145 78.8908 41.6438 79.1344C41.7732 79.378 41.9894 79.5641 42.2496 79.6555L48.6461 81.4607C49.2101 81.6207 49.8006 81.6647 50.3821 81.5901L97.814 75.7141C99.0033 75.5494 100.089 74.9477 100.859 74.0263L107.081 66.7753C107.293 66.5261 107.424 66.2171 107.454 65.8908C107.538 65.0664 107.021 64.3233 106.298 64.23C94.9407 62.7257 80.5802 61.3537 71.5121 62.4609C59.6278 63.899 47.6622 72.8348 41.9096 77.7239Z" fill="#FF8C00"/>
<path opacity="0.8" d="M42.1373 77.7239C41.9904 77.8544 41.8792 78.0202 41.8144 78.2057C41.7497 78.3912 41.7334 78.5901 41.7671 78.7837C41.8009 78.9772 41.8836 79.1589 42.0074 79.3115C42.1311 79.4641 42.2918 79.5825 42.4742 79.6555L48.8707 81.4607C49.4347 81.6207 50.0253 81.6647 50.6067 81.5901L96.9765 78.4129C98.1319 78.2655 99.916 76.1444 101.189 74.4234L107.317 66.7753C107.53 66.5261 107.66 66.2171 107.69 65.8908C107.775 65.0664 107.257 64.3233 106.535 64.23C95.1773 62.7257 80.8169 61.3537 71.7487 62.4609C59.8404 63.899 47.8748 72.8348 42.1373 77.7239Z" fill="white"/>
<g opacity="0.3">
<path d="M73.109 82.2446C72.9656 82.1885 72.8492 82.0796 72.7837 81.9402C72.7182 81.8008 72.7086 81.6417 72.757 81.4955C72.8235 81.3117 72.9431 81.1519 73.1005 81.0362C73.258 80.9205 73.4463 80.8542 73.6415 80.8456L79.2858 80.6079C79.3614 80.6048 79.437 80.6161 79.5084 80.641C79.6543 80.696 79.7732 80.8054 79.8399 80.9463C79.9067 81.0872 79.9162 81.2485 79.8665 81.3962C79.7996 81.58 79.6795 81.7398 79.5214 81.855C79.3633 81.9702 79.1744 82.0357 78.9789 82.0431L73.3346 82.2777C73.258 82.2805 73.1816 82.2693 73.109 82.2446Z" fill="black"/>
</g>
<path d="M115.088 66.0687C114.969 66.1739 114.871 66.3017 114.801 66.4448C114.732 66.5879 114.691 66.7435 114.682 66.9024C114.672 67.0614 114.695 67.2206 114.748 67.3708C114.8 67.521 114.882 67.6593 114.989 67.7776L116.328 69.2338C116.481 69.3964 116.676 69.5148 116.89 69.5768L133.3 74.1229C133.585 74.201 133.879 74.2405 134.175 74.2403H137.422C137.253 74.129 137.079 74.0236 136.898 73.9394L121.081 65.6114C120.89 65.5163 120.744 65.3492 120.676 65.1467C120.608 64.9441 120.623 64.7228 120.717 64.5312L115.579 65.819C115.398 65.8632 115.23 65.9487 115.088 66.0687Z" fill="#FF8C00"/>
<path d="M12.9777 85.551L7.3816 84.9492L4.16832 86.264C3.83455 86.3994 3.53746 86.6117 3.30116 86.8836C3.06486 87.1554 2.89603 87.4792 2.80839 87.8285C2.7036 88.2359 2.76302 88.6681 2.97387 89.032L3.02803 89.1283C3.2046 89.4302 3.46642 89.6732 3.78062 89.8268C4.09483 89.9805 4.44742 90.0378 4.79413 89.9918L8.01943 89.5465C8.33454 89.5013 8.63339 89.3783 8.88894 89.1885L12.6077 86.3663L12.9777 85.551Z" fill="white"/>
<path d="M36.2188 77.0688L37.1214 77.3215C37.4624 77.4193 37.8223 77.4315 38.1692 77.357C38.5161 77.2825 38.8393 77.1236 39.1101 76.8943C44.2941 72.5076 53.3111 65.7802 63.0381 62.6421C63.072 62.6317 63.1021 62.6114 63.1246 62.5839C63.1471 62.5564 63.1609 62.523 63.1644 62.4876C63.168 62.4523 63.161 62.4167 63.1444 62.3854C63.1279 62.354 63.1024 62.3282 63.0712 62.3112L61.8678 61.6914C47.8142 66.5595 36.2188 77.0688 36.2188 77.0688Z" fill="#FF8C00"/>
<path opacity="0.8" d="M36.2188 77.0688L37.1214 77.3215C37.4624 77.4193 37.8223 77.4315 38.1692 77.357C38.5161 77.2825 38.8393 77.1236 39.1101 76.8943C44.2941 72.5076 53.3111 65.7802 63.0381 62.6421C63.072 62.6317 63.1021 62.6114 63.1246 62.5839C63.1471 62.5564 63.1609 62.523 63.1644 62.4876C63.168 62.4523 63.161 62.4167 63.1444 62.3854C63.1279 62.354 63.1024 62.3282 63.0712 62.3112L61.8678 61.6914C47.8142 66.5595 36.2188 77.0688 36.2188 77.0688Z" fill="white"/>
<path opacity="0.2" d="M89.3953 82.9961L42.2402 86.3658L43.1428 92.1816C43.4145 93.9632 44.075 95.6632 45.0774 97.161L49.0188 103.052L89.2629 97.6123L108.29 82.9961H89.3953Z" fill="white"/>
<path d="M118.961 120.135C126.012 120.135 131.727 114.42 131.727 107.369C131.727 100.319 126.012 94.6035 118.961 94.6035C111.911 94.6035 106.195 100.319 106.195 107.369C106.195 114.42 111.911 120.135 118.961 120.135Z" fill="#1A2E35"/>
<path opacity="0.4" d="M118.96 115.194C123.282 115.194 126.786 111.69 126.786 107.369C126.786 103.047 123.282 99.543 118.96 99.543C114.638 99.543 111.135 103.047 111.135 107.369C111.135 111.69 114.638 115.194 118.96 115.194Z" fill="white"/>
<g opacity="0.3">
<path d="M118.965 100.332H118.962C118.616 100.332 118.336 100.612 118.336 100.958V104.968C118.336 105.314 118.616 105.594 118.962 105.594H118.965C119.31 105.594 119.591 105.314 119.591 104.968V100.958C119.591 100.612 119.31 100.332 118.965 100.332Z" fill="white"/>
</g>
<g opacity="0.3">
<path d="M118.965 109.15H118.962C118.616 109.15 118.336 109.431 118.336 109.776V113.787C118.336 114.132 118.616 114.413 118.962 114.413H118.965C119.31 114.413 119.591 114.132 119.591 113.787V109.776C119.591 109.431 119.31 109.15 118.965 109.15Z" fill="white"/>
</g>
<g opacity="0.3">
<path d="M121.352 106.713C121.281 106.754 121.203 106.781 121.121 106.791C121.04 106.802 120.958 106.796 120.878 106.774C120.799 106.753 120.725 106.716 120.66 106.666C120.596 106.615 120.541 106.553 120.501 106.482C120.46 106.411 120.434 106.332 120.423 106.251C120.413 106.169 120.418 106.087 120.44 106.008C120.461 105.929 120.498 105.855 120.548 105.79C120.599 105.725 120.661 105.671 120.732 105.63L124.204 103.614C124.276 103.573 124.354 103.546 124.436 103.535C124.518 103.524 124.601 103.529 124.681 103.55C124.76 103.572 124.835 103.608 124.901 103.659C124.966 103.709 125.021 103.772 125.062 103.843C125.144 103.987 125.166 104.157 125.123 104.317C125.08 104.477 124.976 104.614 124.833 104.697L121.361 106.713H121.352Z" fill="white"/>
</g>
<g opacity="0.3">
<path d="M113.717 111.106C113.573 111.188 113.403 111.21 113.243 111.168C113.083 111.125 112.946 111.021 112.862 110.878C112.821 110.806 112.795 110.728 112.784 110.646C112.774 110.564 112.78 110.482 112.801 110.402C112.823 110.323 112.86 110.249 112.91 110.184C112.96 110.118 113.023 110.064 113.094 110.023L116.566 108.007C116.709 107.925 116.88 107.902 117.04 107.945C117.2 107.987 117.336 108.09 117.42 108.233C117.504 108.377 117.527 108.548 117.485 108.71C117.442 108.871 117.338 109.009 117.195 109.093L113.717 111.109V111.106Z" fill="white"/>
</g>
<g opacity="0.3">
<path d="M124.202 111.12L120.73 109.105C120.658 109.063 120.596 109.009 120.545 108.943C120.495 108.878 120.458 108.803 120.437 108.723C120.416 108.644 120.411 108.561 120.422 108.479C120.433 108.397 120.46 108.318 120.501 108.247C120.542 108.176 120.597 108.113 120.663 108.064C120.729 108.014 120.803 107.977 120.883 107.956C120.963 107.935 121.046 107.93 121.127 107.941C121.209 107.953 121.287 107.98 121.359 108.021L124.831 110.037C124.974 110.121 125.078 110.257 125.121 110.417C125.163 110.577 125.141 110.748 125.059 110.892C125.018 110.963 124.963 111.026 124.898 111.076C124.832 111.126 124.758 111.163 124.678 111.184C124.598 111.206 124.515 111.211 124.434 111.2C124.352 111.189 124.273 111.162 124.202 111.12Z" fill="white"/>
</g>
<g opacity="0.3">
<path d="M117.418 106.482C117.377 106.554 117.323 106.616 117.258 106.666C117.193 106.716 117.119 106.753 117.04 106.774C116.961 106.796 116.878 106.801 116.797 106.79C116.716 106.779 116.637 106.752 116.567 106.711L113.095 104.695C112.952 104.612 112.847 104.475 112.805 104.315C112.762 104.155 112.784 103.985 112.866 103.841C112.906 103.769 112.961 103.707 113.026 103.657C113.09 103.607 113.165 103.57 113.244 103.549C113.323 103.527 113.406 103.522 113.487 103.533C113.568 103.544 113.647 103.571 113.717 103.612L117.195 105.628C117.338 105.712 117.441 105.849 117.484 106.009C117.526 106.169 117.503 106.339 117.421 106.482H117.418Z" fill="white"/>
</g>
<path d="M117.911 107.37C117.911 107.092 118.022 106.825 118.219 106.628C118.416 106.431 118.683 106.32 118.961 106.32C119.17 106.32 119.373 106.382 119.546 106.498C119.719 106.613 119.854 106.778 119.934 106.97C120.014 107.163 120.035 107.375 119.994 107.579C119.953 107.783 119.853 107.971 119.706 108.118C119.559 108.265 119.371 108.366 119.167 108.406C118.962 108.447 118.751 108.426 118.558 108.346C118.366 108.267 118.201 108.132 118.086 107.958C117.97 107.785 117.908 107.582 117.908 107.373L117.911 107.37Z" fill="#1A2E35"/>
<path d="M27.3244 120.139C34.3748 120.139 40.0903 114.424 40.0903 107.373C40.0903 100.323 34.3748 94.6074 27.3244 94.6074C20.2741 94.6074 14.5586 100.323 14.5586 107.373C14.5586 114.424 20.2741 120.139 27.3244 120.139Z" fill="#1A2E35"/>
<path opacity="0.4" d="M27.3256 115.198C31.6475 115.198 35.1512 111.694 35.1512 107.372C35.1512 103.051 31.6475 99.5469 27.3256 99.5469C23.0036 99.5469 19.5 103.051 19.5 107.372C19.5 111.694 23.0036 115.198 27.3256 115.198Z" fill="white"/>
<g opacity="0.3">
<path d="M27.3261 100.332H27.3231C26.9774 100.332 26.6973 100.612 26.6973 100.958V104.968C26.6973 105.314 26.9774 105.594 27.3231 105.594H27.3261C27.6717 105.594 27.9519 105.314 27.9519 104.968V100.958C27.9519 100.612 27.6717 100.332 27.3261 100.332Z" fill="white"/>
</g>
<g opacity="0.3">
<path d="M27.3261 109.15H27.3231C26.9774 109.15 26.6973 109.431 26.6973 109.776V113.787C26.6973 114.132 26.9774 114.413 27.3231 114.413H27.3261C27.6717 114.413 27.9519 114.132 27.9519 113.787V109.776C27.9519 109.431 27.6717 109.15 27.3261 109.15Z" fill="white"/>
</g>
<g opacity="0.3">
<path d="M29.7123 106.716C29.6414 106.756 29.5633 106.782 29.4824 106.792C29.4015 106.801 29.3195 106.795 29.2409 106.774C29.1624 106.752 29.0889 106.715 29.0248 106.664C28.9606 106.614 28.9069 106.552 28.8669 106.481C28.8253 106.41 28.7982 106.332 28.787 106.25C28.7759 106.169 28.7809 106.086 28.8019 106.007C28.8229 105.927 28.8593 105.853 28.9092 105.788C28.9591 105.722 29.0214 105.668 29.0925 105.626L32.5676 103.611C32.7113 103.532 32.8801 103.512 33.038 103.556C33.1959 103.6 33.3305 103.704 33.413 103.845C33.454 103.916 33.4806 103.994 33.4913 104.076C33.5019 104.157 33.4965 104.239 33.4753 104.318C33.454 104.398 33.4174 104.472 33.3675 104.537C33.3176 104.601 33.2553 104.656 33.1843 104.697L29.7123 106.713V106.716Z" fill="white"/>
</g>
<g opacity="0.3">
<path d="M21.2233 110.877C21.1412 110.733 21.1192 110.563 21.162 110.403C21.2048 110.243 21.309 110.106 21.452 110.023L24.924 108.007C25.0682 107.923 25.2395 107.9 25.4007 107.943C25.5618 107.985 25.6998 108.089 25.7845 108.232C25.8674 108.377 25.8896 108.549 25.8462 108.711C25.8028 108.872 25.6973 109.009 25.5528 109.093L22.0838 111.109C21.9389 111.192 21.767 111.214 21.6058 111.17C21.4445 111.127 21.307 111.022 21.2233 110.877Z" fill="white"/>
</g>
<g opacity="0.3">
<path d="M33.4125 110.893C33.3716 110.965 33.3171 111.027 33.2519 111.078C33.1868 111.128 33.1123 111.165 33.0329 111.186C32.9534 111.207 32.8706 111.212 32.7891 111.201C32.7076 111.19 32.629 111.164 32.558 111.122L29.083 109.106C29.0117 109.065 28.9494 109.01 28.8995 108.944C28.8495 108.879 28.8131 108.804 28.7921 108.724C28.7711 108.645 28.7661 108.562 28.7773 108.48C28.7885 108.398 28.8157 108.32 28.8573 108.249C28.8984 108.178 28.9532 108.115 29.0184 108.065C29.0837 108.016 29.1582 107.979 29.2376 107.958C29.317 107.937 29.3998 107.932 29.4812 107.943C29.5626 107.954 29.6409 107.982 29.7118 108.023L33.1838 110.039C33.3268 110.123 33.431 110.259 33.4738 110.419C33.5166 110.579 33.4946 110.75 33.4125 110.893Z" fill="white"/>
</g>
<g opacity="0.3">
<path d="M25.7815 106.489C25.6968 106.632 25.5592 106.735 25.3986 106.777C25.238 106.819 25.0674 106.795 24.924 106.712L21.452 104.696C21.309 104.612 21.2048 104.475 21.162 104.316C21.1192 104.156 21.1412 103.985 21.2233 103.841C21.2647 103.77 21.3199 103.707 21.3855 103.657C21.4512 103.606 21.5262 103.57 21.6061 103.548C21.686 103.527 21.7694 103.522 21.8513 103.533C21.9333 103.544 22.0123 103.571 22.0838 103.613L25.5528 105.628C25.6958 105.712 25.8 105.849 25.8428 106.009C25.8856 106.169 25.8636 106.339 25.7815 106.483V106.489Z" fill="white"/>
</g>
<path d="M27.3265 106.32C27.5347 106.32 27.7383 106.382 27.9115 106.498C28.0847 106.613 28.2197 106.778 28.2994 106.97C28.3791 107.163 28.3999 107.375 28.3593 107.579C28.3187 107.783 28.2184 107.971 28.0711 108.118C27.9238 108.265 27.7362 108.366 27.5319 108.406C27.3276 108.447 27.1159 108.426 26.9235 108.346C26.7311 108.267 26.5666 108.132 26.4509 107.958C26.3352 107.785 26.2734 107.582 26.2734 107.373C26.2734 107.094 26.3844 106.826 26.5819 106.629C26.7794 106.431 27.0472 106.32 27.3265 106.32Z" fill="#1A2E35"/>
<path opacity="0.3" d="M138.658 83.291C138.76 83.2594 138.854 83.2083 138.935 83.1404C139.016 83.0725 139.084 82.9892 139.133 82.8953C139.182 82.8014 139.212 82.6987 139.222 82.5932C139.231 82.4876 139.22 82.3812 139.188 82.2801C139.04 79.5933 138.469 77.1984 136.823 75.5557C136.769 75.3797 136.657 75.2273 136.505 75.1239C136.353 75.0205 136.17 74.9722 135.987 74.987L126.26 75.9047C126.112 75.9213 125.972 75.9784 125.854 76.0695C125.737 76.1606 125.647 76.2823 125.594 76.4212C125.541 76.5601 125.527 76.7109 125.555 76.857C125.582 77.0031 125.649 77.1389 125.748 77.2495L128.534 80.2582C128.63 80.3616 128.752 80.4383 128.886 80.4809L138.213 83.303C138.36 83.3404 138.514 83.3362 138.658 83.291Z" fill="black"/>
<path d="M41.5516 78.3347C41.4816 78.6015 41.5145 78.8848 41.6438 79.1284C41.7732 79.372 41.9894 79.558 42.2496 79.6495L48.6461 81.4547C49.2232 81.6319 49.8209 81.7331 50.4242 81.7556L52.437 81.6232L50.5385 71.3516C46.1519 74.2339 45.851 74.3602 41.9126 77.7179C41.7281 77.8785 41.6013 78.0952 41.5516 78.3347Z" fill="#1A2E35"/>
<path d="M83.2227 62.1191L79.2031 79.6447L84.4593 79.2656L86.8662 62.2846C85.6307 62.2124 84.4162 62.1573 83.2227 62.1191Z" fill="#1A2E35"/>
<path d="M99.9043 75.9883L107.288 66.7637C107.505 66.5098 107.638 66.1942 107.667 65.8611C107.751 65.0367 107.23 64.2936 106.508 64.2033C105.004 63.9957 103.385 63.8001 101.776 63.6016" fill="#1A2E35"/>
<path d="M47.3693 80.1165C46.7553 80.1237 46.1637 79.8869 45.7242 79.4582C45.2847 79.0295 45.0334 78.4438 45.0255 77.8299C45.0206 77.3004 45.1969 76.7851 45.5253 76.3697C45.8537 75.9543 46.3143 75.6637 46.8307 75.5463L49.9146 74.8242L50.6969 79.9901L47.4415 80.1165H47.3693Z" fill="#FF8C00"/>
<path opacity="0.3" d="M49.7857 80.0262L50.6883 79.9901L49.903 74.8242L49.0215 75.0318L49.7857 80.0262Z" fill="black"/>
<path opacity="0.6" d="M84.3515 79.2637C84.3876 81.0689 84.3695 83.0005 84.174 83.9843C83.7377 86.1656 80.3379 102.118 80.3379 102.118" stroke="black" stroke-width="0.196091" stroke-linecap="round" stroke-linejoin="round"/>
<path opacity="0.6" d="M41.5352 78.7207C41.5352 78.7207 42.5521 92.5155 44.1016 95.3046C45.6059 98.0274 49.9835 104.493 49.9835 104.493" stroke="black" stroke-width="0.196091" stroke-linecap="round" stroke-linejoin="round"/>
<path opacity="0.6" d="M37.9731 77.4082C37.9731 77.4082 27.1028 80.095 23.9015 80.6064C21.275 81.0276 10.5971 83.6151 7.38086 84.9419" stroke="black" stroke-width="0.196091" stroke-linecap="round" stroke-linejoin="round"/>
<path opacity="0.8" d="M115.088 66.0687C114.969 66.1739 114.871 66.3017 114.801 66.4448C114.732 66.5879 114.691 66.7435 114.682 66.9024C114.672 67.0614 114.695 67.2206 114.748 67.3708C114.8 67.521 114.882 67.6593 114.989 67.7776L116.328 69.2338C116.481 69.3964 116.676 69.5148 116.89 69.5768L133.3 74.1229C133.585 74.201 133.879 74.2405 134.175 74.2403H137.422C137.253 74.129 137.079 74.0236 136.898 73.9394L121.081 65.6114C120.89 65.5163 120.744 65.3492 120.676 65.1467C120.608 64.9441 120.623 64.7228 120.717 64.5312L115.579 65.819C115.398 65.8632 115.23 65.9487 115.088 66.0687Z" fill="white"/>
<path d="M53.4978 76.5508C53.3504 76.638 51.6113 78.4372 51.6113 78.4372L51.9513 80.6697L54.1386 78.4101L53.4978 76.5508Z" fill="#1A2E35"/>
<path d="M56.1203 81.2025C56.0288 81.2479 55.9293 81.2748 55.8275 81.2816C55.7256 81.2885 55.6234 81.2752 55.5267 81.2425C55.43 81.2098 55.3407 81.1583 55.264 81.0911C55.1872 81.0238 55.1244 80.9421 55.0793 80.8505L51.6072 73.8132C51.5615 73.7219 51.5343 73.6223 51.5272 73.5204C51.5202 73.4184 51.5334 73.3161 51.5661 73.2193C51.5989 73.1225 51.6505 73.0332 51.7179 72.9564C51.7854 72.8797 51.8674 72.8171 51.9593 72.7722C52.0507 72.7269 52.1502 72.7 52.252 72.6932C52.3539 72.6863 52.4561 72.6996 52.5528 72.7323C52.6495 72.765 52.7388 72.8165 52.8155 72.8837C52.8923 72.951 52.9551 73.0327 53.0002 73.1242L56.4723 80.1615C56.5176 80.253 56.5445 80.3525 56.5513 80.4543C56.5582 80.5562 56.5449 80.6584 56.5122 80.7551C56.4795 80.8518 56.428 80.941 56.3608 81.0178C56.2935 81.0946 56.2118 81.1574 56.1203 81.2025Z" fill="#1A2E35"/>
<path d="M57.0423 107.693L54.0817 105.35C52.1923 107.501 50.6669 109.643 49.5176 110.922L50.2306 112.601L52.1622 112.212C53.6987 110.611 55.3282 109.102 57.0423 107.693Z" fill="#CD7A63"/>
<path d="M54.2051 110.783L53.0528 110.049C51.8734 110.651 51.6387 110.169 51.4943 109.11C51.1934 108.861 50.8505 109.185 50.7572 109.27L48.6782 111.15C48.5938 111.225 48.5427 111.331 48.5359 111.444C48.5292 111.556 48.5673 111.667 48.6421 111.752C48.6698 111.784 48.7022 111.811 48.7384 111.833L51.5033 113.596L55.3755 116.06C56.4316 116.731 57.3282 115.808 56.9581 115.431C55.2762 113.753 54.2503 112.296 54.0156 111.343C53.9674 111.171 54.1299 111.171 54.2051 110.783Z" fill="#FF8C00"/>
<path d="M54.373 111.801C54.2158 111.729 54.0449 111.691 53.872 111.691C53.6991 111.691 53.5283 111.729 53.3711 111.801" stroke="#1A2E35" stroke-width="0.196091" stroke-linecap="round" stroke-linejoin="round"/>
<path d="M54.6455 112.526C54.4879 112.454 54.3165 112.416 54.1431 112.416C53.9696 112.416 53.7982 112.454 53.6406 112.526" stroke="#1A2E35" stroke-width="0.196091" stroke-linecap="round" stroke-linejoin="round"/>
<path d="M55.0742 113.267C54.917 113.195 54.7461 113.158 54.5732 113.158C54.4003 113.158 54.2295 113.195 54.0723 113.267" stroke="#1A2E35" stroke-width="0.196091" stroke-linecap="round" stroke-linejoin="round"/>
<path opacity="0.7" d="M48.6403 111.749C48.668 111.781 48.7005 111.808 48.7366 111.83L51.5016 113.593L55.3738 116.06C55.5751 116.21 55.8181 116.293 56.069 116.298C56.3198 116.303 56.5659 116.229 56.7728 116.087C56.6104 115.985 48.875 111.141 48.7968 111.045L48.6434 111.186C48.5742 111.264 48.5357 111.363 48.5352 111.467C48.5346 111.571 48.572 111.671 48.6403 111.749Z" fill="white"/>
<path d="M74.5131 107.609L69.9219 110.441C70.2649 113.885 71.1103 117.015 70.7914 118.705L72.2717 119.767L74.2905 117.661C74.2905 117.661 74.116 111.503 74.5131 107.609Z" fill="#CD7A63"/>
<path d="M74.4703 116.143L73.1044 116.116C72.4064 117.238 71.9581 116.952 71.2992 116.116C70.905 116.062 70.7877 116.513 70.7546 116.636L69.9543 119.32C69.9213 119.428 69.9322 119.544 69.9846 119.644C70.037 119.744 70.1267 119.819 70.2341 119.853C70.2741 119.865 70.3157 119.871 70.3574 119.871L73.6369 119.94L78.2282 120.039C79.4798 120.066 79.7656 118.809 79.2511 118.682C76.9434 118.12 75.3158 117.404 74.6147 116.715C74.4703 116.597 74.6087 116.513 74.4703 116.143Z" fill="#FF8C00"/>
<path d="M75.1455 116.924C74.9736 116.945 74.8082 117.003 74.6607 117.094C74.5133 117.185 74.3872 117.306 74.291 117.45" stroke="#1A2E35" stroke-width="0.196091" stroke-linecap="round" stroke-linejoin="round"/>
<path d="M75.7529 117.402C75.581 117.423 75.4156 117.481 75.2682 117.572C75.1207 117.663 74.9946 117.785 74.8984 117.929" stroke="#1A2E35" stroke-width="0.196091" stroke-linecap="round" stroke-linejoin="round"/>
<path d="M76.5107 117.809C76.3388 117.83 76.1734 117.888 76.026 117.979C75.8785 118.069 75.7524 118.191 75.6562 118.335" stroke="#1A2E35" stroke-width="0.196091" stroke-linecap="round" stroke-linejoin="round"/>
<path opacity="0.7" d="M70.2192 119.859C70.2592 119.871 70.3008 119.877 70.3425 119.877L73.622 119.946L78.2132 120.045C78.4618 120.068 78.7111 120.012 78.9267 119.887C79.1423 119.761 79.3135 119.571 79.4167 119.344C79.2272 119.344 70.0898 119.218 69.9815 119.176L69.9273 119.374C69.9079 119.477 69.9269 119.583 69.9808 119.672C70.0346 119.762 70.1195 119.828 70.2192 119.859Z" fill="white"/>
<path d="M68.3122 41.836C68.3122 41.836 68.8267 40.1421 68.2851 36.974C68.2851 36.974 68.4536 36.9168 68.4566 36.9138C68.3814 36.4715 68.2941 36.0624 68.2129 35.7104V35.6953L72.1242 38.7612C71.9166 39.733 72.055 41.6645 72.1723 42.4889C72.1723 42.4889 72.5394 43.9933 70.6048 43.8428C69.1727 43.7255 68.3122 41.836 68.3122 41.836Z" fill="#CD7A63"/>
<path opacity="0.2" d="M72.0247 40.1415L69.6719 39.3262C69.8043 40.0994 70.3699 41.0652 72.0397 41.3269C72.0027 40.9329 71.9976 40.5364 72.0247 40.1415Z" fill="black"/>
<path d="M68.405 33.6498C68.3869 36.3395 68.3238 37.8619 69.5844 39.3121C71.4859 41.5024 74.8014 40.5156 75.6258 37.886C76.366 35.5121 76.2727 31.5106 73.7153 30.2891C73.1487 30.0189 72.5228 29.8969 71.8962 29.9343C71.2696 29.9718 70.6627 30.1675 70.1322 30.5032C69.6018 30.8389 69.1652 31.3036 68.8631 31.8539C68.561 32.4041 68.4034 33.022 68.405 33.6498Z" fill="#CD7A63"/>
<path d="M68.2852 30.4053C68.7546 28.9522 72.4553 29.2019 73.4361 30.0142C73.5835 30.1376 71.33 31.0883 71.4534 31.0492L70.3973 31.335C70.2409 31.2899 69.9159 31.4554 69.7204 31.9368C69.7204 31.9368 69.5579 36.0526 68.3123 37.1628C67.4097 36.6423 67.4639 35.0116 67.2352 34.0218C66.8952 32.5385 66.5071 30.3963 68.2852 30.4053Z" fill="#1A2E35"/>
<path d="M67.1948 35.8094C67.2741 36.1341 67.4174 36.4398 67.6163 36.7084C67.8152 36.977 68.0657 37.2033 68.3532 37.3739C69.1264 37.8252 69.4844 36.9707 69.4664 36.1223C69.4483 35.3581 69.2888 34.4164 68.4193 34.3171C67.5498 34.2178 67.0022 35.0061 67.1948 35.8094Z" fill="#CD7A63"/>
<path d="M72.1872 34.6839C72.1692 34.9577 72.2985 35.1894 72.4881 35.1984C72.6776 35.2074 72.8281 34.9968 72.8461 34.723C72.8642 34.4493 72.7348 34.2176 72.5453 34.2056C72.3557 34.1935 72.2053 34.4102 72.1872 34.6839Z" fill="#1A2E35"/>
<path d="M74.8733 34.922C74.8522 35.1958 74.9846 35.4245 75.1742 35.4365C75.3637 35.4485 75.5172 35.2319 75.5352 34.9581C75.5533 34.6843 75.4239 34.4527 75.2343 34.4436C75.0448 34.4346 74.8913 34.6452 74.8733 34.922Z" fill="#1A2E35"/>
<path d="M74.0068 34.709C74.0068 34.709 74.783 36.1321 75.0237 36.7037C74.6176 37.0227 73.9707 36.8211 73.9707 36.8211L74.0068 34.709Z" fill="#B94D3C"/>
<path d="M71.6219 33.3451C71.6415 33.3568 71.6639 33.3629 71.6866 33.3629C71.7094 33.3629 71.7317 33.3568 71.7513 33.3451C71.8827 33.2505 72.0345 33.1882 72.1944 33.1631C72.3543 33.138 72.5179 33.1509 72.672 33.2007C72.7035 33.2137 72.7389 33.2137 72.7705 33.2008C72.802 33.1878 72.8272 33.1629 72.8405 33.1315C72.8474 33.1161 72.8512 33.0995 72.8516 33.0826C72.852 33.0658 72.8491 33.049 72.8429 33.0333C72.8367 33.0176 72.8275 33.0033 72.8157 32.9912C72.8039 32.9791 72.7898 32.9696 72.7743 32.963C72.58 32.8972 72.3729 32.8785 72.1699 32.9083C71.967 32.9381 71.7741 33.0156 71.6069 33.1345C71.5927 33.1436 71.5804 33.1555 71.5709 33.1695C71.5614 33.1834 71.5547 33.1991 71.5514 33.2156C71.548 33.2322 71.548 33.2492 71.5513 33.2658C71.5547 33.2824 71.5613 33.2981 71.5708 33.312C71.5846 33.3274 71.6023 33.3388 71.6219 33.3451Z" fill="#1A2E35"/>
<path d="M73.0142 37.6327C72.7981 37.6077 72.5894 37.5391 72.4006 37.431C72.2118 37.3229 72.047 37.1776 71.916 37.0039" stroke="#1A2E35" stroke-width="0.294137" stroke-linecap="round" stroke-linejoin="round"/>
<path opacity="0.2" d="M67.8574 35.1123C67.9217 35.0398 68.006 34.988 68.0997 34.9634C68.1934 34.9387 68.2923 34.9424 68.3839 34.9739C68.5662 35.0429 68.7192 35.1725 68.8172 35.341C68.9442 35.5381 69.0159 35.7656 69.0248 35.9999" stroke="black" stroke-width="0.196091" stroke-linecap="round" stroke-linejoin="round"/>
<path d="M76.134 33.8448C76.1598 33.8406 76.1838 33.8291 76.2032 33.8117C76.2268 33.7875 76.2399 33.7551 76.2399 33.7214C76.2399 33.6877 76.2268 33.6553 76.2032 33.6311C76.072 33.476 75.9053 33.3548 75.7173 33.2778C75.5293 33.2008 75.3255 33.1703 75.1231 33.1889C75.0908 33.1954 75.0623 33.2141 75.0432 33.241C75.0242 33.2679 75.0162 33.3011 75.0208 33.3337C75.0254 33.3664 75.0423 33.396 75.068 33.4166C75.0938 33.4372 75.1264 33.4472 75.1592 33.4446C75.3197 33.4292 75.4815 33.4539 75.63 33.5164C75.7786 33.5789 75.9094 33.6772 76.0107 33.8026C76.0257 33.8199 76.045 33.833 76.0667 33.8404C76.0883 33.8478 76.1116 33.8493 76.134 33.8448Z" fill="#1A2E35"/>
<path d="M67.8149 29.2026C68.0647 28.6189 68.8529 28.5527 69.4306 28.7272C69.4667 27.9901 70.4536 27.6501 71.0553 27.7193C71.3639 27.7237 71.659 27.8465 71.8797 28.0623C71.8315 28.0623 72.1023 27.7163 72.2618 27.5809C72.5512 27.3391 72.9059 27.1889 73.281 27.1492C73.656 27.1096 74.0343 27.1823 74.3679 27.3582C74.7014 27.5584 74.9716 27.8488 75.1472 28.1959C75.3229 28.5429 75.3969 28.9326 75.3607 29.3199C75.4657 29.2343 75.5866 29.1705 75.7164 29.132C75.8462 29.0935 75.9824 29.0812 76.117 29.0958C76.2516 29.1103 76.382 29.1515 76.5006 29.2168C76.6192 29.2821 76.7237 29.3703 76.8079 29.4763C76.9652 29.7102 77.0321 29.9933 76.9962 30.2729C76.9602 30.5524 76.8238 30.8093 76.6123 30.9957C76.7301 31.017 76.8424 31.0615 76.9428 31.1266C77.0433 31.1917 77.1297 31.2762 77.1972 31.375C77.2646 31.4738 77.3118 31.5851 77.3359 31.7023C77.3599 31.8195 77.3605 31.9404 77.3374 32.0578C77.2875 32.2889 77.1489 32.4911 76.9514 32.6211C76.7539 32.751 76.5134 32.7983 76.2814 32.7528C76.2062 33.2944 76.0918 33.9563 76.0166 34.5039L75.466 32.4519C75.105 32.2865 75.0478 32.1089 75.0087 31.6968C74.6898 32.1842 74.2626 32.1059 73.709 32.0367C73.428 31.9945 73.1642 31.8755 72.9465 31.6929C72.7288 31.5102 72.5658 31.2711 72.4754 31.0017C72.3207 31.2591 72.0991 31.4698 71.8342 31.6112C71.5693 31.7527 71.271 31.8197 70.9711 31.8051C70.675 31.7649 70.4045 31.6161 70.2121 31.3876C70.0197 31.159 69.9191 30.8671 69.9301 30.5685C69.7385 30.8083 69.4668 30.9708 69.1649 31.0261C68.8631 31.0814 68.5514 31.0257 68.2873 30.8694C68.0315 30.686 67.8455 30.4213 67.7597 30.1186C67.6739 29.8158 67.6934 29.4928 67.8149 29.2026Z" fill="#1A2E35"/>
<path d="M63.7388 41.668C63.7388 41.668 61.3469 41.7342 60.3842 44.4029C59.4996 46.861 57.2461 52.2796 57.2461 52.2796L62.6347 53.8561L64.7768 47.4386L63.7388 41.668Z" fill="#FF8C00"/>
<path d="M72.5397 67.2632L69.2933 74.1831C69.2933 74.1831 74.4502 89.7049 74.7601 91.3326C75.07 92.9603 75.2144 113.332 75.2144 113.332H69.4768L67.2264 93.4507C67.2264 93.4507 60.2582 76.563 59.7498 75.191C58.793 72.6216 59.7949 69.1737 59.7949 69.1737L61.57 66.6133L72.5397 67.2632Z" fill="#1A2E35"/>
<path d="M75.69 70.7505C75.69 71.3823 73.4546 92.8794 73.0845 92.9576C72.7144 93.0358 56.5037 110.766 56.5037 110.766L51.9004 106.722L63.7997 90.5837L65.1175 76.0879L65.5778 66.9746L75.9518 67.7418L75.69 70.7505Z" fill="#1A2E35"/>
<path opacity="0.4" d="M67.8226 98.554L67.5367 93.5055L64.2031 86.1191L66.7064 93.9267L66.944 99.2731L67.8226 98.554Z" fill="black"/>
<path opacity="0.4" d="M73.8361 88.0442L69.293 74.1922L70.8755 72.748L70.3731 74.7338L74.0316 86.3984L73.8361 88.0442Z" fill="black"/>
<path d="M89.5262 48.3984L82.501 54.846L79.2275 48.7535C79.2275 48.7535 75.6532 52.2796 75.7766 52.3308C75.8999 52.3819 79.9887 61.3267 82.9252 59.7201C85.8617 58.1135 90.8531 50.0502 90.8531 50.0502L89.5262 48.3984Z" fill="#CD7A63"/>
<path opacity="0.2" d="M82.5014 54.8468C82.5014 54.8468 81.8997 55.8216 81.9689 56.7423C81.7855 56.3771 81.7193 55.9641 81.7793 55.5599C81.8292 55.1186 81.9795 54.6946 82.2186 54.3203L82.5014 54.8468Z" fill="black"/>
<path d="M76.0323 43.2694C74.1158 44.2532 73.3455 47.7493 77.4674 56.1766L82.3896 52.3797C81.6014 50.2736 80.8011 49.1815 79.5374 46.6271C77.5366 42.6647 76.0323 43.2694 76.0323 43.2694Z" fill="#FF8C00"/>
<path d="M76.0948 43.1383C74.7409 42.8375 69.3614 41.4294 63.6058 41.6701L60.567 63.104C60.567 63.104 59.9653 65.9141 59.168 68.7001C64.6498 71.8713 72.2557 72.3858 76.3355 70.6528C76.2814 70.74 76.4107 68.3662 76.5852 64.8851C76.8861 58.7564 77.3494 49.1948 77.208 43.6167C77.202 43.4783 76.2302 43.1684 76.0948 43.1383Z" fill="#FF8C00"/>
<path opacity="0.2" d="M77.0234 55.2426L77.219 48.3105L78.0945 55.6939L77.4687 56.1752L77.0234 55.2426Z" fill="black"/>
<path opacity="0.2" d="M62.3337 53.7685L62.6345 53.8558L64.5962 48.5996L63.1249 54.614L62.123 54.62L62.3337 53.7685Z" fill="black"/>
<path d="M88.8504 49.5135C88.8504 49.5135 88.3118 48.6621 88.5014 47.8527C88.6909 47.0434 88.6337 46.3484 88.8022 45.7466C88.9707 45.1449 89.3227 45.9242 89.404 46.3694C89.4852 46.8147 89.6116 47.3172 89.9335 47.1908C90.2554 47.0645 92.1268 44.7478 92.5932 44.6244C93.0595 44.5011 92.876 44.9704 92.876 44.9704C92.876 44.9704 93.3423 44.4198 93.6131 44.5462C93.6823 44.5793 93.7906 44.7688 93.6131 45.0547C93.222 45.6925 92.3284 46.9922 92.3284 46.9922C92.3796 46.917 93.5951 45.3916 93.8057 45.187C94.0825 44.9193 94.3502 44.9343 94.5007 45.0998C94.7143 45.3375 93.2701 47.2811 93.2671 47.4044C93.2671 47.4044 94.0614 46.2581 94.4706 46.3002C94.8798 46.3424 94.4194 47.0915 93.8899 47.6752C93.4025 48.2108 92.5872 49.3872 92.0396 49.8836C91.3626 50.4853 90.7729 50.7531 89.9907 50.4131C89.5399 50.2156 89.1474 49.9059 88.8504 49.5135Z" fill="#CD7A63"/>
<path opacity="0.3" d="M92.8239 45.0352C92.4588 45.4865 92.1158 45.9528 91.7949 46.4342" stroke="black" stroke-width="0.0980456" stroke-linecap="round" stroke-linejoin="round"/>
<path opacity="0.3" d="M93.0042 47.8625C92.5601 47.2532 91.9487 46.786 91.2441 46.5176" stroke="black" stroke-width="0.0980456" stroke-linecap="round" stroke-linejoin="round"/>
<path opacity="0.3" d="M90.0547 47.5566C90.263 47.7836 90.3854 48.0762 90.4008 48.3839C90.4162 48.6915 90.3236 48.9949 90.1389 49.2415" stroke="black" stroke-width="0.0980456" stroke-linecap="round" stroke-linejoin="round"/>
<path d="M57.6531 52.3965C57.6531 52.3965 56.0314 56.2356 55.3425 59.6805C55.0416 61.248 56.2812 62.2499 57.5629 62.5598C61.5945 63.5346 70.6807 63.5376 70.6807 63.5376L70.9184 60.7666L60.4512 58.5011L62.3316 53.7684L57.6531 52.3965Z" fill="#CD7A63"/>
<path d="M70.701 64.1311L74.1309 64.5162C74.1887 64.5231 74.2474 64.5169 74.3026 64.4982C74.3577 64.4794 74.408 64.4486 74.4498 64.4079L79.6698 59.245C79.7189 59.1967 79.7542 59.1362 79.7722 59.0697C79.7901 59.0032 79.7901 58.9331 79.772 58.8667C79.7539 58.8002 79.7185 58.7397 79.6694 58.6915C79.6202 58.6432 79.5591 58.609 79.4923 58.5921L76.4836 57.8129C76.4181 57.7963 76.3495 57.7968 76.2842 57.8141C76.2189 57.8315 76.1592 57.8652 76.1106 57.9122L70.4783 63.4662C70.4254 63.5171 70.3881 63.582 70.3706 63.6533C70.3531 63.7246 70.3562 63.7994 70.3795 63.869C70.4028 63.9386 70.4454 64.0002 70.5023 64.0466C70.5592 64.093 70.6281 64.1223 70.701 64.1311Z" fill="#1A2E35"/>
<path d="M70.3817 60.7829C70.3817 60.7829 70.4779 60.3768 71.9943 59.9164C73.1466 59.5644 74.2929 58.4843 74.4795 58.5204C74.666 58.5565 74.8676 59.1462 74.3892 59.6637C73.9108 60.1812 73.4114 60.4761 73.5378 60.6746C73.8386 61.153 77.5965 60.7649 77.6597 61.1741C77.7228 61.5833 77.0098 62.7536 75.003 63.5389C72.9962 64.3242 70.2402 63.5389 70.2402 63.5389L70.3817 60.7829Z" fill="#CD7A63"/>
<path d="M102.819 35.9745C105.932 30.5424 104.052 23.6149 98.6204 20.5014C93.1883 17.3879 86.2607 19.2674 83.1472 24.6995C80.0338 30.1316 81.9133 37.0591 87.3454 40.1726C92.7775 43.2861 99.705 41.4066 102.819 35.9745Z" fill="#FF8C00"/>
<path d="M92.486 34.6457H92.8561C92.9553 34.6457 93.0005 34.6909 92.9975 34.7871V35.4882C92.9975 35.5874 92.9523 35.6296 92.853 35.6296H92.486V36.466C92.486 36.5502 92.4559 36.6074 92.3656 36.6074H91.5383C91.445 36.6074 91.4149 36.5532 91.4149 36.469C91.4149 36.1952 91.4149 35.9244 91.4149 35.6386H91.2765H89.6729C89.5014 35.6386 89.4863 35.6386 89.4863 35.4581C89.4863 35.2384 89.4863 35.0188 89.4863 34.8022C89.4915 34.7064 89.5227 34.6138 89.5766 34.5344C90.1543 33.7792 90.7409 33.0301 91.3216 32.2719C91.3502 32.2327 91.3879 32.201 91.4314 32.1796C91.4748 32.1581 91.5229 32.1474 91.5713 32.1485H92.3235C92.4649 32.1485 92.492 32.1756 92.492 32.32V34.6457H92.486ZM91.4059 34.6457V33.6077L90.5995 34.6457H91.4059Z" fill="white"/>
<path d="M87.4269 35.597H89.0336C89.199 35.597 89.2201 35.618 89.2201 35.7805C89.2201 36.0061 89.2201 36.2318 89.2201 36.4574C89.2201 36.5838 89.19 36.6139 89.0697 36.6139H86.3288C86.2536 36.6139 86.1843 36.5958 86.1874 36.5086C86.1802 36.2611 86.1943 36.0135 86.2295 35.7684C86.2986 35.451 86.4444 35.1553 86.6542 34.9072C86.864 34.6591 87.1314 34.4662 87.4329 34.3453C87.5383 34.2942 87.6526 34.2611 87.7579 34.21C87.8558 34.1649 87.9486 34.1094 88.0347 34.0445C88.1151 33.977 88.1721 33.8858 88.1975 33.7839C88.2228 33.6821 88.2152 33.5748 88.1758 33.4775C88.1363 33.3802 88.0671 33.298 87.9779 33.2425C87.8888 33.1871 87.7844 33.1613 87.6797 33.1689C87.5765 33.1711 87.4769 33.2066 87.3956 33.27C87.3142 33.3335 87.2556 33.4215 87.2284 33.521C87.2254 33.5412 87.2185 33.5607 87.2079 33.5782C87.1974 33.5958 87.1834 33.611 87.1669 33.6231C87.1503 33.6351 87.1315 33.6437 87.1116 33.6484C87.0917 33.6531 87.071 33.6538 87.0509 33.6503C86.8192 33.6503 86.5845 33.6503 86.3528 33.6503C86.2114 33.6503 86.1844 33.6172 86.1994 33.4728C86.2624 33.0738 86.4814 32.7163 86.8081 32.4787C87.1348 32.2412 87.5424 32.1431 87.9414 32.2062C88.3404 32.2692 88.698 32.4882 88.9355 32.8149C89.1731 33.1415 89.2711 33.5492 89.2081 33.9482C89.1333 34.3123 88.9237 34.6346 88.6214 34.8508C88.4379 34.9862 88.2303 35.0885 88.0196 35.2088L87.4811 35.5338C87.4661 35.5488 87.457 35.5488 87.4269 35.597Z" fill="white"/>
<path d="M98.2037 32.1465H99.6449C99.7833 32.1465 99.8043 32.1766 99.7682 32.309C99.3992 33.6929 99.0281 35.0769 98.655 36.4609C98.6219 36.5873 98.5858 36.6144 98.4504 36.6144H97.2469C97.1146 36.6144 97.0965 36.5903 97.1416 36.4609C97.4846 35.4801 97.8286 34.5003 98.1736 33.5214C98.2308 33.362 98.2188 33.3409 98.0473 33.3409H96.7565C96.6091 33.3409 96.582 33.3139 96.582 33.1664V32.3059C96.582 32.1796 96.6151 32.1495 96.7415 32.1465H98.2037Z" fill="white"/>
<path d="M95.6916 30.8403H95.9925C96.1339 30.8403 96.167 30.8854 96.1309 31.0208L95.5803 33.0517C95.1631 34.6022 94.7439 36.1536 94.3227 37.7061C94.2715 37.8896 94.2294 37.9227 94.0218 37.9227H93.4742C93.3118 37.9227 93.2817 37.8836 93.3238 37.7272C93.8714 35.6993 94.42 33.6715 94.9695 31.6436C95.0267 31.436 95.0809 31.2284 95.138 31.0208C95.1413 30.9932 95.1502 30.9665 95.164 30.9423C95.1779 30.9181 95.1964 30.897 95.2186 30.8802C95.2408 30.8633 95.2661 30.8511 95.2931 30.8443C95.3201 30.8374 95.3482 30.8361 95.3757 30.8403H95.6766H95.6916Z" fill="white"/>
<path d="M92.9833 22.7559C94.5141 22.7567 95.987 23.3409 97.1022 24.3896L97.1473 24.4347C97.1652 24.4521 97.1795 24.4729 97.1892 24.4959C97.1989 24.5189 97.2039 24.5436 97.2039 24.5686C97.2039 24.5936 97.1989 24.6183 97.1892 24.6413C97.1795 24.6643 97.1652 24.6851 97.1473 24.7025C97.1124 24.7368 97.0654 24.7561 97.0164 24.7561C96.9674 24.7561 96.9204 24.7368 96.8855 24.7025C96.7531 24.5851 96.6268 24.4648 96.4884 24.3565C95.7565 23.7722 94.8902 23.38 93.9683 23.2154C93.0463 23.0509 92.0978 23.1192 91.209 23.4142C90.3201 23.7092 89.519 24.2215 88.8784 24.9046C88.2378 25.5878 87.7779 26.4201 87.5406 27.326C87.2467 28.4172 87.2939 29.5721 87.676 30.6356V30.6657C87.7301 30.8161 87.7 30.9154 87.5887 30.9666C87.4774 31.0177 87.3901 30.9515 87.336 30.8041C87.1496 30.2994 87.0371 29.7704 87.002 29.2336C86.9387 28.4085 87.0462 27.5793 87.3179 26.7977C87.5895 26.0161 88.0195 25.299 88.5808 24.6911C89.1421 24.0831 89.8228 23.5975 90.5803 23.2645C91.3378 22.9316 92.1558 22.7584 92.9833 22.7559Z" fill="white"/>
<path d="M94.0334 28.0803L93.6543 27.6952L93.7115 27.632C94.4396 26.9059 95.1667 26.1788 95.8928 25.4507C95.9226 25.4128 95.9612 25.3826 96.0052 25.3627C96.0491 25.3428 96.0973 25.3338 96.1455 25.3364C96.1933 25.3402 96.2393 25.3564 96.2789 25.3836C96.3184 25.4107 96.3501 25.4478 96.3709 25.4911C96.3916 25.5343 96.4006 25.5823 96.3969 25.6301C96.3933 25.678 96.3771 25.724 96.3501 25.7636C96.3325 25.786 96.3134 25.8071 96.2929 25.8268L94.0815 28.0261L94.0334 28.0803Z" fill="white"/>
<path d="M93.6544 28.7461C93.655 28.8792 93.616 29.0094 93.5423 29.1203C93.4687 29.2311 93.3638 29.3176 93.2409 29.3686C93.118 29.4197 92.9827 29.4331 92.8522 29.407C92.7217 29.381 92.6018 29.3167 92.5079 29.2224C92.4141 29.1281 92.3503 29.008 92.3249 28.8774C92.2994 28.7467 92.3134 28.6115 92.365 28.4888C92.4166 28.3662 92.5036 28.2616 92.6148 28.1885C92.726 28.1154 92.8564 28.077 92.9895 28.0782C93.0773 28.0773 93.1643 28.0941 93.2456 28.1274C93.3268 28.1607 93.4006 28.2099 93.4625 28.2722C93.5244 28.3344 93.5733 28.4084 93.6063 28.4898C93.6392 28.5711 93.6556 28.6583 93.6544 28.7461Z" fill="white"/>
<path d="M91.9333 28.0813L91.3074 27.4555L90.6245 26.7726C90.5965 26.748 90.5739 26.7181 90.5579 26.6845C90.5419 26.6509 90.5329 26.6144 90.5315 26.5773C90.53 26.5401 90.5362 26.5031 90.5495 26.4684C90.5629 26.4336 90.5832 26.402 90.6092 26.3754C90.6352 26.3488 90.6663 26.3278 90.7007 26.3136C90.7351 26.2995 90.772 26.2924 90.8092 26.293C90.8464 26.2936 90.883 26.3017 90.917 26.3169C90.9509 26.3321 90.9814 26.3541 91.0066 26.3814C91.4338 26.8057 91.861 27.2359 92.2883 27.6631L92.3184 27.6992L91.9333 28.0813Z" fill="white"/>
<path d="M97.9108 25.5109L98.1635 25.3635C98.2327 25.3274 98.2748 25.3455 98.2748 25.4297C98.2748 25.7637 98.2748 26.1006 98.2748 26.4376C98.2748 26.5249 98.2357 26.5459 98.1575 26.5038C97.8566 26.3413 97.5768 26.1759 97.288 26.0104C97.2037 25.9622 97.2067 25.9231 97.288 25.872L97.5287 25.7276L97.2639 25.2733C97.2278 25.2131 97.1676 25.1379 97.2368 25.0837C97.3214 25.0217 97.416 24.9748 97.5166 24.9453C97.5377 24.9453 97.5889 24.9935 97.6129 25.0296C97.7212 25.183 97.8115 25.3425 97.9108 25.5109Z" fill="white"/>
<path d="M88.9341 29.0202H88.6664C88.5938 29.0202 88.5241 28.9914 88.4728 28.94C88.4214 28.8887 88.3926 28.8191 88.3926 28.7464C88.3926 28.6738 88.4214 28.6042 88.4728 28.5528C88.5241 28.5015 88.5938 28.4727 88.6664 28.4727H89.2019C89.2745 28.4727 89.3442 28.5015 89.3955 28.5528C89.4469 28.6042 89.4757 28.6738 89.4757 28.7464C89.4757 28.8191 89.4469 28.8887 89.3955 28.94C89.3442 28.9914 89.2745 29.0202 89.2019 29.0202H88.9341Z" fill="white"/>
<path d="M97.0422 28.4728H97.319C97.3916 28.4728 97.4613 28.5017 97.5126 28.553C97.564 28.6043 97.5928 28.674 97.5928 28.7466C97.5928 28.8192 97.564 28.8888 97.5126 28.9402C97.4613 28.9915 97.3916 29.0204 97.319 29.0204C97.1285 29.0204 96.9389 29.0204 96.7504 29.0204C96.7143 29.0208 96.6785 29.014 96.6451 29.0004C96.6117 28.9868 96.5814 28.9666 96.5559 28.9411C96.5304 28.9156 96.5102 28.8852 96.4966 28.8518C96.483 28.8184 96.4762 28.7827 96.4766 28.7466C96.4766 28.7099 96.4839 28.6735 96.4982 28.6397C96.5126 28.6059 96.5335 28.5753 96.5599 28.5497C96.5863 28.5242 96.6176 28.5042 96.6519 28.491C96.6861 28.4778 96.7227 28.4716 96.7594 28.4728H97.0422Z" fill="white"/>
<path d="M93.2605 24.6983C93.2605 24.7916 93.2605 24.8848 93.2605 24.9781C93.2597 25.0505 93.2306 25.1196 93.1794 25.1708C93.1282 25.222 93.0591 25.2511 92.9867 25.2519C92.9509 25.2523 92.9153 25.2456 92.8821 25.2321C92.8489 25.2187 92.8187 25.1988 92.7933 25.1736C92.7678 25.1485 92.7476 25.1185 92.7338 25.0854C92.72 25.0524 92.7129 25.0169 92.7129 24.9811C92.7129 24.7926 92.7129 24.603 92.7129 24.4125C92.7129 24.3398 92.7417 24.2702 92.7931 24.2189C92.8444 24.1675 92.9141 24.1387 92.9867 24.1387C93.0593 24.1387 93.1289 24.1675 93.1803 24.2189C93.2316 24.2702 93.2605 24.3398 93.2605 24.4125C93.2635 24.5057 93.2605 24.602 93.2605 24.6983Z" fill="white"/>
<path d="M83.774 20.2344C82.2829 21.3283 81.0847 22.7733 80.2859 24.4412C79.4871 26.1092 79.1123 27.9485 79.1948 29.796" stroke="#FF8C00" stroke-width="0.196091" stroke-linecap="round" stroke-linejoin="round"/>
<path d="M79.3491 31.4805C79.3342 32.044 79.4366 32.6044 79.6499 33.1262" stroke="#FF8C00" stroke-width="0.196091" stroke-linecap="round" stroke-linejoin="round"/>
</g>
<defs>
<clipPath id="clip0_927_395">
<rect width="140" height="101.137" fill="white" transform="translate(0 19)"/>
</clipPath>
</defs>
</svg>
