<svg width="36" height="36" viewBox="0 0 36 36" fill="none" xmlns="http://www.w3.org/2000/svg">
<g clip-path="url(#clip0_927_6919)">
<path d="M6.76759 1.68839L6.76579 1.68916C3.58435 3.05311 0.889921 6.53871 1.01601 10.0056C1.10506 12.3802 2.03749 19.3256 9.35429 26.6442C9.35433 26.6442 9.35437 26.6443 9.35441 26.6443M6.76759 1.68839L34.9918 29.5458C33.527 32.9636 29.8205 35.8738 25.9653 35.7321C23.4453 35.6393 16.3035 34.6523 8.82402 27.1746L9.35441 26.6443M6.76759 1.68839C7.05767 1.56313 7.37534 1.51544 7.68942 1.55C8.00314 1.58452 8.30251 1.69992 8.55822 1.88489M6.76759 1.68839L8.55822 1.88489M9.35441 26.6443C16.6735 33.9616 23.621 34.8953 25.9929 34.9826C29.4734 35.1106 32.9321 32.4478 34.3024 29.2504L34.3032 29.2485C34.4327 28.9488 34.4792 28.6198 34.438 28.2959C34.3968 27.9721 34.2694 27.6653 34.0691 27.4076M9.35441 26.6443L34.0691 27.4076M34.0691 27.4076C34.0694 27.408 34.0696 27.4084 34.0699 27.4087L34.661 26.9471L34.0689 27.4074C34.069 27.4075 34.069 27.4076 34.0691 27.4076ZM34.0691 27.4076C32.1722 24.9794 29.6161 23.215 27.2485 21.5807C27.0965 21.4757 26.9452 21.3713 26.795 21.2673M34.0691 27.4076L27.2218 20.6506M26.795 21.2673L27.2218 20.6506M26.795 21.2673C26.795 21.2673 26.7949 21.2673 26.7949 21.2673L27.2218 20.6506M26.795 21.2673C26.3956 20.991 25.9048 20.8799 25.4254 20.9573C24.9532 21.0336 24.5281 21.2869 24.2363 21.6652M27.2218 20.6506C26.6631 20.264 25.9765 20.1086 25.3058 20.2169C24.6351 20.3252 24.0324 20.6888 23.6238 21.2316M24.2363 21.6652L24.2506 21.6434L23.6238 21.2316M24.2363 21.6652L22.0307 25.0222M24.2363 21.6652C24.2318 21.671 24.2274 21.6768 24.223 21.6827L23.6238 21.2316M23.6238 21.2316L22.0307 25.0222M22.0307 25.0222C22.0319 25.0204 22.033 25.0186 22.0341 25.0168L21.4013 24.6143L22.0281 25.0262L22.0307 25.0222ZM22.0307 25.0222C21.8117 25.3636 21.4707 25.6088 21.0772 25.7078C20.6816 25.8074 20.2629 25.7515 19.9071 25.5518L19.9015 25.5487L19.9015 25.5487C18.3687 24.6707 16.1152 23.1661 14.4732 21.526L14.4729 21.5257C12.8312 19.8839 11.4161 17.726 10.6222 16.2837L10.6183 16.2766L10.6183 16.2766C10.4363 15.9371 10.3837 15.5432 10.4702 15.1679C10.5562 14.7945 10.7743 14.4648 11.084 14.2395M22.0307 25.0222L14.942 12.3083M11.084 14.2395L11.0806 14.242L11.5278 14.8441L11.0887 14.2361C11.0871 14.2372 11.0856 14.2383 11.084 14.2395ZM11.084 14.2395L14.4702 11.7245M14.4702 11.7245C14.4638 11.7302 14.4573 11.7359 14.4508 11.7416L14.942 12.3083M14.4702 11.7245C14.8083 11.4232 15.0267 11.0098 15.0846 10.5601C15.1437 10.1018 15.0321 9.63779 14.7711 9.25647L14.7708 9.25605C14.6057 9.0144 14.4389 8.76817 14.2701 8.51875C12.7108 6.21575 10.9674 3.64091 8.55822 1.88489M14.4702 11.7245L14.4948 11.7062L14.942 12.3083M14.942 12.3083C15.4303 11.8851 15.7459 11.2969 15.8285 10.656C15.9111 10.015 15.755 9.36612 15.39 8.83284L8.55822 1.88489" fill="#FF8C00" stroke="#FFE9D0" stroke-width="1.5"/>
</g>
<defs>
<clipPath id="clip0_927_6919">
<rect width="42" height="42" fill="white" transform="translate(-3 -3)"/>
</clipPath>
</defs>
</svg>
