<svg width="912" height="510" viewBox="0 0 912 510" fill="none" xmlns="http://www.w3.org/2000/svg">
<path opacity="0.32" d="M1934.68 391.321V349.623H1919.16V343.208H1909.84V349.623H1894.31V391.321H1891.21V311.132H1881.83L1881.36 359.245H1875.84L1875.68 203.84V198.868H1872.17H1869.47V189.245H1867.33H1864.25H1863.26V186.038H1860.15V182.83H1857.05V186.038H1837.52H1832.45H1832.2V176.415H1829.1V143.57V136.128V132.792V128.302H1822.89V125.094H1813.48H1813.57V128.302H1810.47V132.792V135.711V141.132H1794.94V176.415H1788.73V186.038H1782.52V111.655L1781.34 109.057H1779.41V98.183L1776.4 96.2264H1763.89V94.9434V83.1717L1760.78 80.1887H1737.4L1732.83 83.2038V182.83H1729.73V186.038H1726.62V69.5076V52.0264V35.283H1724.94L1723.61 28.8679H1723.05L1721.53 24.5377L1720.04 28.8679H1719.48L1718.14 35.283H1717.3V48.1132H1714.2V44.9057H1716.09L1715.72 43.8151L1715.32 44.9057H1714.2V28.8679H1715.07L1713.58 25.6604H1712.96L1711.25 20.7849L1709.51 25.6604H1708.89L1711.09 34V35.5075V48.1132H1706.28H1704.54H1701.09H1697.65H1695.91H1694.17H1692.46H1689.01H1685.57H1683.83H1680.38H1675.19H1673.45H1664.51V71.0151V218.113H1661.41V89.3943L1657.15 73.7736H1655.19V74.4151L1652.09 68.6736L1647.18 67.3585H1652.09V64.1509H1636.56V65.4019V67.3585H1630.13L1627.81 68.6736L1627.25 74.4151V73.7736H1620.17L1621.04 89.3943V106.94V198.002V311.132H1617.93V198.002V109.955V105.849H1609.48H1601.81H1589.98V102.642H1590.73H1577.56V105.849H1570.73H1567.68H1564.61H1562.03V109.634V147.547H1558.93V141.132H1555.82V134.717H1552.72V131.509H1549.61V109.057H1538.59H1534.08V106.426L1537.19 107.774V105.753L1534.08 104.406V97.9264L1518.56 70.566V76.917V96.2264H1515.45V76.917V70.566L1503.03 97.8943V104.374L1496.82 105.721V102.642H1493.71V109.057H1487.5V153.353V288.679H1484.4V266.226H1475.08V253.396H1453.34V234.151H1381.92V253.396H1363.28V221.321H1360.18V218.113H1341.55V221.321H1329.12V211.698H1326.02V221.321V279.057H1316.7V314.34H1313.6V121.887H1307.91H1293.23H1286.67H1278.54H1263.91V118.679H1254.59V121.887H1252.11H1246.24H1242.17V269.434H1235.96V176.415H1226.65V173.208H1223.54H1217.33V176.415H1211.12V6.41509H1201.8V0H1197.42H1193.88H1186.18H1176.96V6.41509H1145.9V314.34H1142.8V234.151H1139.69V227.736H1136.59V224.528H1114.85V227.736H1111.74V235.562V288.679H1096.22V237.359H1093.11V137.925H1092.74L1090.22 132.696L1087.71 137.925H1085.78L1078.49 109.057H1076.81L1075.29 115.472H1057.71L1054.98 102.642H1052.74V98.4076C1052.74 97.2849 1052.74 96.3547 1049.64 96.066V91.0943C1049.64 90.2924 1050.44 86.6359 1049.67 86.6359H1048.95H1047.4C1046.62 86.6359 1046.53 90.3245 1046.53 91.0943V96.066C1043.42 96.3547 1043.42 97.2849 1043.42 98.4076V102.642H1042.09L1039.36 115.472H1036.62L1034.2 109.057H1031.53L1029.11 115.472H1023.24L1022.06 109.057H1020.72L1014.98 137.925H1011.66L1009.14 132.696L1006.56 137.925H1006.16V288.679H999.949V314.34H993.738V209.902V208.491H990.633V198.868H993.738V189.245H981.316V186.038H975.602H965.789V153.962H962.684V156.304C956.473 155.855 962.684 158.421 953.367 159.287V163.008C956.473 161.981 962.684 158.549 962.684 159.896V186.038H947.157V189.245H928.524V198.868H931.629V208.042V208.491H928.524V234.151H925.419V244.447V246.981H919.208V160.377H909.891V153.962H881.477L846.851 123.94L824.43 141.132H816.729V148.83L812.195 153.962H804.307V160.377H801.201V170H767.042V177.923V269.434H760.831V314.34H757.725V186.038H751.514V182.83H720.46V186.038H708.038V288.679H704.933V266.226H701.828V263.019H692.511V266.226H683.195V263.019H676.984V266.226H667.668V285.472H649.035V269.434H642.824V266.226H641.737H634.16H614.875V279.057H605.559V288.679H599.348H590.032V288.775V314.34H580.716V349.623V250.285V211.698H577.61V208.491H568.294V187.609V170H565.189V166.792H562.083V164.547V161.468V157.17H558.978V153.962H555.872V153.898L554.04 153.962H552.767V147.547H552.612L551.711 145.751L551.494 147.547H552.767V153.962H550.034L549.661 153.898V156.464V159.736V160.377H546.556V167.562V170H540.345V189.791V263.019H524.818V178.115V128.302H521.712H509.291V123.491V121.887H509.57H506.185V125.159V128.302H505.471H505.161H493.764V130.13V137.925H459.604V153.962H437.866V173.208H429.077L428.767 342.374L424.419 342.662L424.761 144.34H400.601V89.8113V87.7585V83.3962H396.129H387.651L387.061 52.7642L386.44 83.3962H385.074V86.6038H381.968V83.3962H375.509H356.348H347.808V86.6038H344.517L347.808 88.5925V89.8113V92.9547V112.264H341.597V106.009V102.642H335.387V96.2264H332.436H328.679H326.94H320.015H310.543V102.064V106.619V109.217V137.925H307.935H304.488H299.301H280.172L279.955 263.019H275.949L276.166 182.83H273.278V177.923V174.875V168.685V165.766V160.859V156.689V153.962H271.818H254.645V150.755H248.435V147.547H242.255H242.224V144.34H239.118V147.547H236.013V153.962H226.293H220.486V156.689V160.859V165.766V168.685V174.875V177.923V184.37V187.032V190.079V193.126V195.66H221.169L221.604 284.894L212.505 283.868L212.846 141.132H214.275V140.074L205.207 137.925H201.853V125.094H186.326V121.887H183.22V125.094H173.904V128.302H158.377V131.509H155.272V128.302H143.254H139.465H137.757H137.571H130.428V131.509H114.901V137.925H118.006V141.132H114.901V145.174V147.547H118.006V153.032V157.17H114.901V160.859V166.087V170H118.006V173.208H115.087L114.404 311.132H107.044L106.765 153.962H105.647H102.2H100.461H93.1629V152.23L90.7718 150.755H86.9521V152.23V153.962H80.7412V152.23L81.207 150.755H74.5304V152.23V153.962H71.0833L71.3939 346.415H61.9844L61.6739 275.849H37.2652V272.642H34.1597V283.547L12.4217 298.847V308.63L0 312.447V510H1944V391.321H1934.68ZM1496.2 107.774L1499.99 106.426V110.532H1496.2V107.774Z" fill="#D0D0D0"/>
</svg>
