<svg width="121" height="121" viewBox="0 0 121 121" fill="none" xmlns="http://www.w3.org/2000/svg">
<rect x="0.771484" y="0.5" width="120" height="120" rx="12" fill="#FFC177" fill-opacity="0.16"/>
<path d="M78.7709 87.2494H78.7714C81.2238 87.2469 83.575 86.2716 85.3091 84.5375C87.0432 82.8034 88.0185 80.4522 88.0209 77.9999V77.9994V42.9994V42.9989C88.0185 40.5465 87.0432 38.1953 85.3091 36.4612C83.575 34.7271 81.2238 33.7518 78.7714 33.7493H78.7709L43.7709 33.7493L43.7704 33.7494C41.318 33.7518 38.9668 34.7271 37.2327 36.4612C35.4986 38.1953 34.5233 40.5465 34.5209 42.9989V42.9994V77.9985C34.5169 79.2137 34.7546 80.4175 35.22 81.54C35.6855 82.6627 36.3696 83.6817 37.2325 84.5377L37.2346 84.5398C38.9807 86.2513 41.3205 87.2221 43.7653 87.2493V87.2494H43.7709H67.1042C67.7452 87.2494 68.3599 87.504 68.8131 87.9572C69.2663 88.4104 69.5209 89.0251 69.5209 89.666C69.5209 90.307 69.2663 90.9217 68.8131 91.3749C68.3599 91.8281 67.7452 92.0827 67.1042 92.0827L43.7731 92.0827C43.7728 92.0827 43.7726 92.0827 43.7723 92.0827C40.0397 92.0658 36.4631 90.5835 33.8129 87.9551C32.5007 86.6514 31.4604 85.1002 30.7523 83.3915C30.0441 81.6828 29.6822 79.8504 29.6876 78.0008V77.9994V42.9997C29.6921 39.2658 31.1774 35.6863 33.8176 33.046C36.4578 30.4058 40.0374 28.9206 43.7712 28.916H78.7706C82.5044 28.9206 86.084 30.4058 88.7242 33.046C91.3645 35.6863 92.8498 39.266 92.8542 42.9999V77.9988C92.8498 81.7327 91.3645 85.3124 88.7242 87.9527C86.0839 90.5929 82.5043 92.0782 78.7704 92.0827C78.1296 92.0825 77.5151 91.8279 77.0621 91.3749C76.6088 90.9217 76.3542 90.307 76.3542 89.666C76.3542 89.0251 76.6088 88.4104 77.0621 87.9572C77.5153 87.504 78.13 87.2494 78.7709 87.2494Z" fill="#FF8C00" stroke="#FFF5E9"/>
<path d="M59.562 70.129C62.5111 70.1335 65.3451 68.9852 67.4594 66.9292L67.4595 66.9293L67.4694 66.9194L67.6909 66.6979L67.691 66.698L67.7007 66.6879C69.7565 64.5738 70.9047 61.7401 70.9005 58.7913M59.562 70.129C53.2993 70.1286 48.2251 65.0542 48.2251 58.7913C48.2251 52.5282 53.2997 47.4536 59.5628 47.4536C65.8259 47.4536 70.9005 52.5282 70.9005 58.7913M59.562 70.129C59.5618 70.129 59.5615 70.129 59.5612 70.129L59.5628 69.129V70.129C59.5625 70.129 59.5623 70.129 59.562 70.129ZM70.9005 58.7913H69.9005L70.9005 58.7898C70.9005 58.7903 70.9005 58.7908 70.9005 58.7913ZM59.5642 71.0827H59.5628C52.7783 71.0827 47.2715 65.5759 47.2715 58.7913C47.2715 52.0068 52.7783 46.5 59.5628 46.5C66.3473 46.5 71.8541 52.0068 71.8541 58.7913L71.8541 58.7927C71.8573 61.0254 71.2496 63.2054 70.1117 65.1024C69.3936 66.2997 69.4058 67.9603 70.5066 69.0608L74.5195 73.0728C74.706 73.2592 74.706 73.5616 74.5195 73.748C74.3331 73.9345 74.0307 73.9345 73.8443 73.748L69.8323 69.7351C68.7318 68.6343 67.0711 68.6221 65.8738 69.3403C63.9769 70.4781 61.7969 71.0858 59.5642 71.0827Z" fill="#FF8C00" stroke="#FF8C00" stroke-width="2"/>
</svg>
