<svg width="121" height="120" viewBox="0 0 121 120" fill="none" xmlns="http://www.w3.org/2000/svg">
<rect x="0.771484" width="120" height="120" rx="12" fill="#FFC177" fill-opacity="0.16"/>
<path d="M78.3549 86.8333H78.3554C80.8078 86.8309 83.159 85.8556 84.8931 84.1215C86.6272 82.3874 87.6024 80.0362 87.6049 77.5838V77.5833V42.5833V42.5828C87.6024 40.1305 86.6272 37.7792 84.8931 36.0452C83.159 34.3111 80.8078 33.3358 78.3554 33.3333H78.3549L43.3549 33.3333L43.3544 33.3333C40.902 33.3358 38.5508 34.3111 36.8167 36.0452C35.0826 37.7792 34.1073 40.1305 34.1049 42.5828V42.5833V77.5825C34.1009 78.7977 34.3385 80.0015 34.804 81.124C35.2695 82.2467 35.9536 83.2657 36.8165 84.1217L36.8186 84.1237C38.5647 85.8353 40.9045 86.806 43.3493 86.8333V86.8333H43.3549H66.6882C67.3292 86.8333 67.9438 87.088 68.3971 87.5412C68.8503 87.9944 69.1049 88.6091 69.1049 89.25C69.1049 89.8909 68.8503 90.5056 68.3971 90.9589C67.9438 91.4121 67.3292 91.6667 66.6882 91.6667L43.3571 91.6667C43.3568 91.6667 43.3566 91.6667 43.3563 91.6667C39.6237 91.6498 36.0471 90.1675 33.3969 87.5391C32.0847 86.2354 31.0444 84.6842 30.3363 82.9755C29.6281 81.2667 29.2662 79.4344 29.2715 77.5848V77.5833V42.5836C29.2761 38.8498 30.7614 35.2702 33.4016 32.63C36.0418 29.9898 39.6214 28.5046 43.3552 28.5H78.3546C82.0884 28.5046 85.668 29.9898 88.3082 32.63C90.9485 35.2703 92.4337 38.85 92.4382 42.5839V77.5827C92.4337 81.3167 90.9485 84.8964 88.3082 87.5366C85.6679 90.1769 82.0883 91.6622 78.3543 91.6667C77.7136 91.6665 77.0991 91.4119 76.646 90.9589C76.1928 90.5056 75.9382 89.8909 75.9382 89.25C75.9382 88.6091 76.1928 87.9944 76.646 87.5412C77.0993 87.088 77.7139 86.8333 78.3549 86.8333Z" fill="#FF8C00" stroke="#FFF5E9"/>
<path d="M72.0555 47.284H68.8555V45.684C68.8555 45.2596 68.6869 44.8527 68.3868 44.5526C68.0868 44.2526 67.6798 44.084 67.2555 44.084C66.8311 44.084 66.4242 44.2526 66.1241 44.5526C65.824 44.8527 65.6555 45.2596 65.6555 45.684V47.284H56.0555V45.684C56.0555 45.2596 55.8869 44.8527 55.5868 44.5526C55.2868 44.2526 54.8798 44.084 54.4555 44.084C54.0311 44.084 53.6242 44.2526 53.3241 44.5526C53.024 44.8527 52.8555 45.2596 52.8555 45.684V47.284H49.6555C48.3824 47.284 47.1615 47.7897 46.2614 48.6899C45.3612 49.59 44.8555 50.8109 44.8555 52.084V71.284C44.8555 72.557 45.3612 73.7779 46.2614 74.6781C47.1615 75.5783 48.3824 76.084 49.6555 76.084H72.0555C73.3285 76.084 74.5494 75.5783 75.4496 74.6781C76.3498 73.7779 76.8555 72.557 76.8555 71.284V52.084C76.8555 50.8109 76.3498 49.59 75.4496 48.6899C74.5494 47.7897 73.3285 47.284 72.0555 47.284ZM73.6555 71.284C73.6555 71.7083 73.4869 72.1153 73.1868 72.4154C72.8868 72.7154 72.4798 72.884 72.0555 72.884H49.6555C49.2311 72.884 48.8242 72.7154 48.5241 72.4154C48.224 72.1153 48.0555 71.7083 48.0555 71.284V60.084H73.6555V71.284ZM73.6555 56.884H48.0555V52.084C48.0555 51.6596 48.224 51.2527 48.5241 50.9526C48.8242 50.6526 49.2311 50.484 49.6555 50.484H52.8555V52.084C52.8555 52.5083 53.024 52.9153 53.3241 53.2154C53.6242 53.5154 54.0311 53.684 54.4555 53.684C54.8798 53.684 55.2868 53.5154 55.5868 53.2154C55.8869 52.9153 56.0555 52.5083 56.0555 52.084V50.484H65.6555V52.084C65.6555 52.5083 65.824 52.9153 66.1241 53.2154C66.4242 53.5154 66.8311 53.684 67.2555 53.684C67.6798 53.684 68.0868 53.5154 68.3868 53.2154C68.6869 52.9153 68.8555 52.5083 68.8555 52.084V50.484H72.0555C72.4798 50.484 72.8868 50.6526 73.1868 50.9526C73.4869 51.2527 73.6555 51.6596 73.6555 52.084V56.884Z" fill="#FF8C00"/>
</svg>
