<svg width="121" height="121" viewBox="0 0 121 121" fill="none" xmlns="http://www.w3.org/2000/svg">
<rect x="0.982422" y="0.5" width="120" height="120" rx="12" fill="#FFC177" fill-opacity="0.16"/>
<path d="M78.5658 87.3333H78.5663C81.0187 87.3309 83.3699 86.3556 85.104 84.6215C86.8381 82.8874 87.8134 80.5362 87.8158 78.0838V78.0833V43.0833V43.0828C87.8134 40.6305 86.8381 38.2792 85.104 36.5452C83.3699 34.8111 81.0187 33.8358 78.5663 33.8333H78.5658L43.5658 33.8333L43.5653 33.8333C41.1129 33.8358 38.7617 34.8111 37.0276 36.5452C35.2935 38.2792 34.3183 40.6305 34.3158 43.0828V43.0833V78.0825C34.3119 79.2977 34.5495 80.5015 35.0149 81.624C35.4804 82.7467 36.1645 83.7657 37.0274 84.6217L37.0296 84.6237C38.7756 86.3353 41.1154 87.306 43.5602 87.3333V87.3333H43.5658H66.8992C67.5401 87.3333 68.1548 87.588 68.608 88.0412C69.0612 88.4944 69.3158 89.1091 69.3158 89.75C69.3158 90.3909 69.0612 91.0056 68.608 91.4589C68.1548 91.9121 67.5401 92.1667 66.8992 92.1667L43.5681 92.1667C43.5678 92.1667 43.5675 92.1667 43.5672 92.1667C39.8346 92.1498 36.2581 90.6675 33.6078 88.0391C32.2957 86.7354 31.2554 85.1842 30.5472 83.4755C29.8391 81.7667 29.4772 79.9344 29.4825 78.0848V78.0833V43.0836C29.487 39.3498 30.9723 35.7702 33.6125 33.13C36.2527 30.4898 39.8323 29.0046 43.5661 29H78.5655C82.2993 29.0046 85.8789 30.4898 88.5191 33.13C91.1594 35.7703 92.6447 39.35 92.6492 43.0839V78.0827C92.6447 81.8167 91.1594 85.3964 88.5191 88.0366C85.8788 90.6769 82.2992 92.1622 78.5653 92.1667C77.9245 92.1665 77.3101 91.9119 76.857 91.4589C76.4038 91.0056 76.1492 90.3909 76.1492 89.75C76.1492 89.1091 76.4038 88.4944 76.857 88.0412C77.3102 87.588 77.9249 87.3333 78.5658 87.3333Z" fill="#FF8C00" stroke="#FFF5E9"/>
<path d="M77.8922 56.9418L79.0268 55.0508H80.0039C80.6511 55.0508 81.1758 54.5261 81.1758 53.8789C81.1758 53.2317 80.6511 52.707 80.0039 52.707H78.3633C78.1609 52.707 77.962 52.7595 77.7859 52.8592C77.6098 52.9589 77.4625 53.1025 77.3584 53.276L76.4043 54.8662L74.8308 49.3588C74.2112 47.1903 72.2033 45.6758 69.948 45.6758H52.4035C50.1483 45.6758 48.1404 47.1903 47.5208 49.3589L45.9473 54.8663L44.9931 53.2761C44.889 53.1025 44.7418 52.9589 44.5657 52.8592C44.3896 52.7595 44.1907 52.707 43.9883 52.707H42.3477C41.7005 52.707 41.1758 53.2317 41.1758 53.8789C41.1758 54.5261 41.7005 55.0508 42.3477 55.0508H43.3248L44.4594 56.9418C42.5425 57.6684 41.1758 59.5229 41.1758 61.6914V70.4414C41.1758 71.0886 41.7005 71.6133 42.3477 71.6133H44.3789V73.5664C44.3789 75.0741 45.6055 76.3008 47.1133 76.3008H50.2383C51.746 76.3008 52.9727 75.0741 52.9727 73.5664V71.6133H69.3789V73.5664C69.3789 75.0741 70.6055 76.3008 72.1133 76.3008H75.2383C76.746 76.3008 77.9727 75.0741 77.9727 73.5664V71.6133H80.0039C80.6511 71.6133 81.1758 71.0886 81.1758 70.4414V61.6914C81.1758 59.5229 79.8091 57.6684 77.8922 56.9418ZM49.7744 50.0027C50.108 48.8351 51.1891 48.0195 52.4035 48.0195H69.948C71.1624 48.0195 72.2436 48.8351 72.5772 50.0027L74.4659 56.6133H72.386C71.8416 53.942 69.4741 51.9258 66.6445 51.9258C63.8149 51.9258 61.4475 53.942 60.903 56.6133H47.8856L49.7744 50.0027ZM63.3297 56.6133C63.8134 55.2491 65.1167 54.2695 66.6445 54.2695C68.1723 54.2695 69.4757 55.2491 69.9594 56.6133H63.3297ZM50.6289 73.5664C50.6289 73.7818 50.4537 73.957 50.2383 73.957H47.1133C46.8979 73.957 46.7227 73.7818 46.7227 73.5664V71.6133H50.6289V73.5664ZM57.6602 69.2695V65.9883H64.6914V69.2695H57.6602ZM75.6289 73.5664C75.6289 73.7818 75.4537 73.957 75.2383 73.957H72.1133C71.8979 73.957 71.7227 73.7818 71.7227 73.5664V71.6133H75.6289V73.5664ZM78.832 69.2695H67.0352V64.8164C67.0352 64.1692 66.5105 63.6445 65.8633 63.6445H56.4883C55.8411 63.6445 55.3164 64.1692 55.3164 64.8164V69.2695H43.5195V61.6914C43.5195 60.1837 44.7462 58.957 46.2539 58.957H46.3271L46.3331 58.9572L46.3389 58.957H76.0127L76.0184 58.9572L76.0245 58.957H76.0977C77.6054 58.957 78.832 60.1837 78.832 61.6914V69.2695Z" fill="#FF8C00"/>
<path d="M72.8945 60.5977C70.956 60.5977 69.3789 62.1748 69.3789 64.1133C69.3789 66.0518 70.956 67.6289 72.8945 67.6289C74.833 67.6289 76.4102 66.0518 76.4102 64.1133C76.4102 62.1748 74.833 60.5977 72.8945 60.5977ZM72.8945 65.2852C72.2484 65.2852 71.7227 64.7595 71.7227 64.1133C71.7227 63.4671 72.2484 62.9414 72.8945 62.9414C73.5407 62.9414 74.0664 63.4671 74.0664 64.1133C74.0664 64.7595 73.5407 65.2852 72.8945 65.2852ZM49.457 60.5977C47.5185 60.5977 45.9414 62.1748 45.9414 64.1133C45.9414 66.0518 47.5185 67.6289 49.457 67.6289C51.3955 67.6289 52.9727 66.0518 52.9727 64.1133C52.9727 62.1748 51.3955 60.5977 49.457 60.5977ZM49.457 65.2852C48.8109 65.2852 48.2852 64.7595 48.2852 64.1133C48.2852 63.4671 48.8109 62.9414 49.457 62.9414C50.1032 62.9414 50.6289 63.4671 50.6289 64.1133C50.6289 64.7595 50.1032 65.2852 49.457 65.2852Z" fill="#FF8C00"/>
</svg>
