<svg width="249" height="235" viewBox="0 0 249 235" fill="none" xmlns="http://www.w3.org/2000/svg">
<line x1="9.77148" y1="62.5" x2="9.77148" y2="98.5" stroke="#D0C7C7" stroke-dasharray="6 6"/>
<line x1="10.2715" y1="98" x2="128.271" y2="98" stroke="#D0C7C7" stroke-dasharray="6 6"/>
<line x1="128.752" y1="98.3626" x2="164.752" y2="224.363" stroke="#D0C7C7" stroke-dasharray="6 6"/>
<line x1="164.271" y1="224" x2="228.271" y2="224" stroke="#D0C7C7" stroke-dasharray="6 6"/>
<g clip-path="url(#clip0_806_3805)">
<path d="M19.9002 46.246C19.653 45.9986 19.3599 45.875 19.0213 45.875H1.52158C1.18282 45.875 0.889964 45.9986 0.642531 46.246C0.395098 46.4938 0.271484 46.7866 0.271484 47.1252C0.271484 47.4636 0.395098 47.7565 0.642531 48.004L9.39244 56.7539C9.64014 57.0013 9.933 57.1252 10.2715 57.1252C10.61 57.1252 10.9031 57.0013 11.1503 56.7539L19.9002 48.0039C20.1474 47.7565 20.2715 47.4636 20.2715 47.1251C20.2715 46.7866 20.1474 46.4938 19.9002 46.246Z" fill="#FF8C00"/>
</g>
<g clip-path="url(#clip1_806_3805)">
<path d="M233.018 214.871C232.77 215.118 232.646 215.412 232.646 215.75L232.646 233.25C232.646 233.589 232.77 233.882 233.018 234.129C233.265 234.376 233.558 234.5 233.897 234.5C234.235 234.5 234.528 234.376 234.775 234.129L243.525 225.379C243.773 225.131 243.897 224.838 243.897 224.5C243.897 224.162 243.773 223.868 243.525 223.621L234.775 214.871C234.528 214.624 234.235 214.5 233.897 214.5C233.558 214.5 233.265 214.624 233.018 214.871Z" fill="#FF8C00"/>
</g>
<path opacity="0.4" d="M169.559 81.3637L170.13 82.1847L170.134 82.182L169.559 81.3637ZM126.189 69.7427L125.282 70.1631L126.189 69.7427ZM139.667 19.8302L140.237 20.6512L140.241 20.6485L139.667 19.8302ZM182.966 31.3287L182.059 31.7491L182.061 31.7543L182.966 31.3287ZM139.763 63.1306L138.816 63.451L138.819 63.4613L139.763 63.1306ZM161.18 68.9729L160.52 68.2218L160.518 68.2243L161.18 68.9729ZM169.366 38.0374L168.42 38.3613L168.422 38.3682L169.366 38.0374ZM148.045 32.2209L148.7 32.977L148.705 32.9721L148.045 32.2209ZM168.988 80.5426C161.857 85.5016 154.028 86.8303 145.419 84.5233L144.901 86.4552C154.064 88.9105 162.502 87.4888 170.13 82.1847L168.988 80.5426ZM145.419 84.5233C136.809 82.2164 130.728 77.1612 127.096 69.3223L125.282 70.1631C129.171 78.5574 135.738 83.9998 144.901 86.4552L145.419 84.5233ZM127.096 69.3223C123.45 61.452 122.91 52.6163 125.551 42.7582L123.619 42.2405C120.878 52.4737 121.407 61.8002 125.282 70.1631L127.096 69.3223ZM125.551 42.7582C128.174 32.969 133.08 25.628 140.237 20.6512L139.096 19.0092C131.493 24.2955 126.345 32.0673 123.619 42.2405L125.551 42.7582ZM140.241 20.6485C147.391 15.6262 155.226 14.2679 163.833 16.5739L164.35 14.6421C155.184 12.1859 146.736 13.6423 139.092 19.0119L140.241 20.6485ZM163.833 16.5739C172.375 18.8629 178.425 23.908 182.059 31.7491L183.873 30.9083C179.985 22.5163 173.452 17.0808 164.35 14.6421L163.833 16.5739ZM182.061 31.7543C185.77 39.6414 186.341 48.4838 183.7 58.3391L185.632 58.8567C188.375 48.6208 187.812 39.2837 183.871 30.9031L182.061 31.7543ZM183.7 58.3391C181.077 68.1281 176.162 75.5034 168.984 80.5454L170.134 82.182C177.75 76.8321 182.906 69.0302 185.632 58.8567L183.7 58.3391ZM138.819 63.4613C140.597 68.5335 143.892 71.7944 148.692 73.0806L149.209 71.1487C145.123 70.0538 142.293 67.3253 140.707 62.7998L138.819 63.4613ZM148.692 73.0806C153.488 74.3657 157.905 73.2088 161.843 69.7216L160.518 68.2243C157.036 71.3072 153.3 72.2447 149.209 71.1487L148.692 73.0806ZM161.841 69.7241C165.819 66.2282 168.643 61.2132 170.37 54.7674L168.438 54.2497C166.784 60.4253 164.126 65.0533 160.52 68.2218L161.841 69.7241ZM170.37 54.7674C172.065 48.4415 172.074 42.7392 170.31 37.7067L168.422 38.3682C170.022 42.9333 170.056 48.2118 168.438 54.2497L170.37 54.7674ZM170.312 37.7136C168.557 32.5845 165.307 29.2889 160.56 28.0167L160.042 29.9485C164.052 31.023 166.846 33.7639 168.42 38.3613L170.312 37.7136ZM160.56 28.0167C155.817 26.7459 151.394 27.9463 147.385 31.4698L148.705 32.9721C152.279 29.8312 156.027 28.8727 160.042 29.9485L160.56 28.0167ZM147.39 31.4649C143.425 34.8985 140.608 39.8849 138.881 46.3299L140.813 46.8475C142.468 40.671 145.117 36.079 148.7 32.9769L147.39 31.4649ZM138.881 46.3299C137.171 52.7136 137.119 58.4362 138.816 63.451L140.71 62.8101C139.171 58.2617 139.176 52.9564 140.813 46.8475L138.881 46.3299ZM197.59 98.2957L196.625 98.0369L196.366 99.0028L197.332 99.2616L197.59 98.2957ZM211.8 45.2663L212.766 45.5252L213.096 44.2929L211.82 44.2666L211.8 45.2663ZM199.239 45.0065L198.239 44.9934L198.226 45.9858L199.218 46.0063L199.239 45.0065ZM199.409 32.0076L199.381 31.008L198.422 31.0352L198.409 31.9945L199.409 32.0076ZM220.377 31.4143L220.636 30.4484L220.495 30.4106L220.349 30.4147L220.377 31.4143ZM230.519 34.1319L231.485 34.3908L231.744 33.4248L230.778 33.166L230.519 34.1319ZM212.273 102.23L212.014 103.196L212.98 103.454L213.238 102.489L212.273 102.23ZM198.556 98.5545L212.766 45.5252L210.834 45.0075L196.625 98.0369L198.556 98.5545ZM211.82 44.2666L199.26 44.0067L199.218 46.0063L211.779 46.2661L211.82 44.2666ZM200.239 45.0196L200.409 32.0207L198.409 31.9945L198.239 44.9934L200.239 45.0196ZM199.437 33.0072L220.405 32.4139L220.349 30.4147L199.381 31.008L199.437 33.0072ZM220.118 32.3803L230.26 35.0979L230.778 33.166L220.636 30.4484L220.118 32.3803ZM229.553 33.8731L211.307 101.971L213.238 102.489L231.485 34.3908L229.553 33.8731ZM212.531 101.264L197.849 97.3297L197.332 99.2616L212.014 103.196L212.531 101.264Z" fill="#FF8C00"/>
<defs>
<clipPath id="clip0_806_3805">
<rect width="20" height="20" fill="white" transform="translate(0.271484 41.5)"/>
</clipPath>
<clipPath id="clip1_806_3805">
<rect width="20" height="20" fill="white" transform="translate(228.271 234.5) rotate(-90)"/>
</clipPath>
</defs>
</svg>
