<svg width="251" height="237" viewBox="0 0 251 237" fill="none" xmlns="http://www.w3.org/2000/svg">
<line x1="9.77148" y1="65" x2="9.77148" y2="101" stroke="#D0C7C7" stroke-dasharray="6 6"/>
<line x1="10.2715" y1="100.5" x2="128.271" y2="100.5" stroke="#D0C7C7" stroke-dasharray="6 6"/>
<line x1="128.752" y1="100.863" x2="164.752" y2="226.863" stroke="#D0C7C7" stroke-dasharray="6 6"/>
<line x1="164.271" y1="226.5" x2="228.271" y2="226.5" stroke="#D0C7C7" stroke-dasharray="6 6"/>
<g clip-path="url(#clip0_806_3375)">
<path d="M19.9002 48.746C19.653 48.4986 19.3599 48.375 19.0213 48.375H1.52158C1.18282 48.375 0.889964 48.4986 0.642531 48.746C0.395098 48.9938 0.271484 49.2866 0.271484 49.6252C0.271484 49.9636 0.395098 50.2565 0.642531 50.504L9.39244 59.2539C9.64014 59.5013 9.933 59.6252 10.2715 59.6252C10.61 59.6252 10.9031 59.5013 11.1503 59.2539L19.9002 50.5039C20.1474 50.2565 20.2715 49.9636 20.2715 49.6251C20.2715 49.2866 20.1474 48.9938 19.9002 48.746Z" fill="#FF8C00"/>
</g>
<g clip-path="url(#clip1_806_3375)">
<path d="M233.018 217.371C232.77 217.618 232.646 217.912 232.646 218.25L232.646 235.75C232.646 236.089 232.77 236.382 233.018 236.629C233.265 236.876 233.558 237 233.897 237C234.235 237 234.528 236.876 234.775 236.629L243.525 227.879C243.773 227.631 243.897 227.338 243.897 227C243.897 226.662 243.773 226.368 243.525 226.121L234.775 217.371C234.528 217.124 234.235 217 233.897 217C233.558 217 233.265 217.124 233.018 217.371Z" fill="#FF8C00"/>
</g>
<path opacity="0.4" d="M159.703 80.9117L160.274 81.7327L160.278 81.73L159.703 80.9117ZM116.333 69.2907L115.426 69.7111L116.333 69.2907ZM129.811 19.3782L130.381 20.1992L130.385 20.1965L129.811 19.3782ZM173.11 30.8767L172.203 31.2971L172.205 31.3023L173.11 30.8767ZM129.907 62.6786L128.96 62.9991L128.963 63.0093L129.907 62.6786ZM151.325 68.521L150.664 67.7698L150.662 67.7723L151.325 68.521ZM159.51 37.5855L158.564 37.9093L158.566 37.9162L159.51 37.5855ZM138.189 31.769L138.844 32.525L138.849 32.5201L138.189 31.769ZM159.132 80.0907C152.001 85.0496 144.173 86.3784 135.563 84.0714L135.045 86.0032C144.208 88.4585 152.646 87.0369 160.274 81.7327L159.132 80.0907ZM135.563 84.0714C126.953 81.7644 120.872 76.7092 117.24 68.8703L115.426 69.7111C119.315 78.1054 125.882 83.5479 135.045 86.0032L135.563 84.0714ZM117.24 68.8703C113.594 61 113.054 52.1643 115.695 42.3062L113.764 41.7886C111.022 52.0217 111.551 61.3482 115.426 69.7111L117.24 68.8703ZM115.695 42.3062C118.318 32.517 123.224 25.176 130.381 20.1992L129.24 18.5572C121.637 23.8435 116.489 31.6153 113.764 41.7886L115.695 42.3062ZM130.385 20.1965C137.535 15.1743 145.37 13.8159 153.977 16.122L154.494 14.1901C145.328 11.7339 136.88 13.1903 129.236 18.5599L130.385 20.1965ZM153.977 16.122C162.52 18.411 168.569 23.456 172.203 31.2971L174.017 30.4563C170.129 22.0643 163.596 16.6288 154.494 14.1901L153.977 16.122ZM172.205 31.3023C175.914 39.1894 176.485 48.0318 173.844 57.8871L175.776 58.4047C178.519 48.1688 177.956 38.8317 174.015 30.4512L172.205 31.3023ZM173.844 57.8871C171.221 67.6761 166.306 75.0514 159.128 80.0934L160.278 81.73C167.894 76.3801 173.05 68.5782 175.776 58.4047L173.844 57.8871ZM128.963 63.0093C130.741 68.0815 134.036 71.3424 138.836 72.6286L139.354 70.6968C135.267 69.6018 132.437 66.8733 130.851 62.3478L128.963 63.0093ZM138.836 72.6286C143.632 73.9137 148.049 72.7568 151.987 69.2696L150.662 67.7723C147.18 70.8552 143.444 71.7928 139.354 70.6968L138.836 72.6286ZM151.985 69.2721C155.963 65.7762 158.787 60.7613 160.514 54.3154L158.583 53.7978C156.928 59.9734 154.27 64.6013 150.664 67.7698L151.985 69.2721ZM160.514 54.3154C162.209 47.9895 162.218 42.2872 160.454 37.2547L158.566 37.9162C160.167 42.4814 160.2 47.7598 158.583 53.7978L160.514 54.3154ZM160.456 37.2616C158.701 32.1325 155.451 28.8369 150.704 27.5647L150.186 29.4966C154.196 30.571 156.99 33.3119 158.564 37.9093L160.456 37.2616ZM150.704 27.5647C145.961 26.2939 141.538 27.4943 137.529 31.0178L138.849 32.5201C142.423 29.3792 146.171 28.4207 150.186 29.4966L150.704 27.5647ZM137.535 31.0129C133.569 34.4465 130.752 39.433 129.025 45.8779L130.957 46.3955C132.612 40.2191 135.261 35.627 138.844 32.525L137.535 31.0129ZM129.025 45.8779C127.315 52.2617 127.263 57.9843 128.96 62.999L130.854 62.3581C129.315 57.8097 129.32 52.5044 130.957 46.3955L129.025 45.8779ZM174.802 94.3786L173.837 94.1197L173.578 95.0857L174.544 95.3445L174.802 94.3786ZM177.96 82.5943L177.548 81.6832L177.117 81.8783L176.994 82.3354L177.96 82.5943ZM205.41 70.1756L205.822 71.0867L205.825 71.0851L205.41 70.1756ZM216.941 63.8444L217.551 64.6368L217.562 64.6282L216.941 63.8444ZM220.668 49.9351L219.823 50.4693L220.668 49.9351ZM207.293 46.1443L207.621 47.0892L207.627 47.0869L207.293 46.1443ZM198.475 51.2355L197.668 51.8253L198.258 52.6336L199.066 52.0424L198.475 51.2355ZM190.295 40.0367L189.669 39.2568L188.924 39.8549L189.488 40.6265L190.295 40.0367ZM204.057 32.3361L203.787 31.3733L203.78 31.3754L204.057 32.3361ZM234.609 43.1108L233.768 43.6515L233.773 43.6585L234.609 43.1108ZM232.104 69.4603L232.858 70.1171L232.864 70.1105L232.104 69.4603ZM224.528 75.7124L225.015 76.5856L225.022 76.5821L225.028 76.5785L224.528 75.7124ZM212.108 81.495L211.723 80.5721L211.723 80.5722L212.108 81.495ZM198.819 87.0446L198.434 86.1218L195.728 87.2517L198.56 88.0105L198.819 87.0446ZM228.28 94.9386L229.246 95.1974L229.504 94.2315L228.538 93.9726L228.28 94.9386ZM224.837 107.785L224.579 108.751L225.544 109.01L225.803 108.044L224.837 107.785ZM175.768 94.6374L178.926 82.8531L176.994 82.3354L173.837 94.1197L175.768 94.6374ZM178.372 83.5053L205.822 71.0866L204.997 69.2645L177.548 81.6832L178.372 83.5053ZM205.825 71.0851C211.263 68.6 215.195 66.4511 217.551 64.6368L216.331 63.0521C214.166 64.7194 210.409 66.7912 204.994 69.266L205.825 71.0851ZM217.562 64.6282C220.002 62.695 221.629 60.2589 222.411 57.3385L220.479 56.8209C219.813 59.3097 218.437 61.3834 216.32 63.0606L217.562 64.6282ZM222.411 57.3385C223.209 54.3626 222.954 51.6807 221.513 49.4009L219.823 50.4693C220.902 52.1777 221.166 54.2588 220.479 56.8209L222.411 57.3385ZM221.513 49.4009C220.095 47.1555 217.879 45.6678 214.98 44.891L214.462 46.8228C216.972 47.4954 218.721 48.7264 219.823 50.4693L221.513 49.4009ZM214.98 44.891C212.274 44.1659 209.591 44.2693 206.96 45.2017L207.627 47.0869C209.876 46.2902 212.145 46.202 214.462 46.8228L214.98 44.891ZM206.966 45.1994C204.468 46.065 201.435 47.83 197.885 50.4286L199.066 52.0424C202.556 49.4876 205.401 47.8584 207.621 47.0892L206.966 45.1994ZM199.283 50.6456L191.103 39.4468L189.488 40.6265L197.668 51.8253L199.283 50.6456ZM190.921 40.8166C195.69 36.9898 200.16 34.5024 204.334 33.2969L203.78 31.3754C199.276 32.6761 194.572 35.3223 189.669 39.2568L190.921 40.8166ZM204.327 33.2989C208.513 32.1241 213.392 32.2491 219 33.7519L219.517 31.82C213.663 30.2514 208.407 30.0766 203.787 31.3734L204.327 33.2989ZM219 33.7519C225.834 35.5832 230.716 38.9023 233.768 43.6514L235.451 42.5702C232.073 37.3143 226.721 33.7501 219.517 31.82L219 33.7519ZM233.773 43.6585C236.829 48.3287 237.573 53.6855 235.929 59.8218L237.861 60.3395C239.633 53.7256 238.853 47.7691 235.446 42.5632L233.773 43.6585ZM235.929 59.8218C234.98 63.3653 233.447 66.3537 231.345 68.81L232.864 70.1105C235.182 67.4018 236.843 64.1371 237.861 60.3395L235.929 59.8218ZM231.35 68.8035C229.229 71.2394 226.789 73.2524 224.028 74.8464L225.028 76.5785C227.983 74.8726 230.594 72.7175 232.858 70.117L231.35 68.8035ZM224.041 74.8392C221.25 76.3971 217.151 78.3075 211.723 80.5721L212.493 82.4179C217.944 80.1434 222.125 78.1988 225.015 76.5856L224.041 74.8392ZM211.723 80.5722L198.434 86.1218L199.204 87.9674L212.493 82.4177L211.723 80.5722ZM198.56 88.0105L228.021 95.9045L228.538 93.9726L199.078 86.0787L198.56 88.0105ZM227.314 94.6797L223.871 107.527L225.803 108.044L229.246 95.1974L227.314 94.6797ZM225.096 106.819L175.061 93.4126L174.544 95.3445L224.579 108.751L225.096 106.819Z" fill="#FF8C00"/>
<defs>
<clipPath id="clip0_806_3375">
<rect width="20" height="20" fill="white" transform="translate(0.271484 44)"/>
</clipPath>
<clipPath id="clip1_806_3375">
<rect width="20" height="20" fill="white" transform="translate(228.271 237) rotate(-90)"/>
</clipPath>
</defs>
</svg>
