<svg width="139" height="103" viewBox="0 0 139 103" fill="none" xmlns="http://www.w3.org/2000/svg">
<path opacity="0.4" d="M55.0435 74.437L55.6144 75.258L55.6183 75.2552L55.0435 74.437ZM11.6735 62.816L10.7661 63.2364L11.6735 62.816ZM25.151 12.9035L25.7219 13.7245L25.7258 13.7218L25.151 12.9035ZM68.4504 24.402L67.543 24.8224L67.5454 24.8276L68.4504 24.402ZM25.2473 56.2039L24.3 56.5243L24.3036 56.5346L25.2473 56.2039ZM46.665 62.0462L46.0049 61.2951L46.0021 61.2976L46.665 62.0462ZM54.8506 31.1107L53.9045 31.4346L53.9069 31.4415L54.8506 31.1107ZM33.5295 25.2942L34.1841 26.0503L34.1897 26.0454L33.5295 25.2942ZM54.4726 73.6159C47.3413 78.5749 39.513 79.9036 30.9032 77.5966L30.3855 79.5285C39.5488 81.9838 47.9866 80.5621 55.6144 75.258L54.4726 73.6159ZM30.9032 77.5966C22.2936 75.2897 16.2129 70.2345 12.5808 62.3956L10.7661 63.2364C14.6555 71.6307 21.2221 77.0731 30.3855 79.5285L30.9032 77.5966ZM12.5808 62.3956C8.93416 54.5253 8.39437 45.6896 11.0358 35.8315L9.10398 35.3138C6.36201 45.547 6.89124 54.8735 10.7661 63.2364L12.5808 62.3956ZM11.0358 35.8315C13.6588 26.0423 18.5649 18.7013 25.7219 13.7245L24.5801 12.0825C16.9779 17.3688 11.8299 25.1406 9.10398 35.3138L11.0358 35.8315ZM25.7258 13.7218C32.8754 8.69953 40.7109 7.34116 49.3172 9.64723L49.8349 7.71538C40.6682 5.25917 32.2203 6.7156 24.5762 12.0852L25.7258 13.7218ZM49.3172 9.64723C57.8599 11.9362 63.9099 16.9813 67.543 24.8224L69.3577 23.9816C65.4693 15.5896 58.9364 10.1541 49.8349 7.71538L49.3172 9.64723ZM67.5454 24.8276C71.2545 32.7147 71.8253 41.5571 69.1846 51.4124L71.1164 51.93C73.8591 41.6941 73.2965 32.357 69.3553 23.9764L67.5454 24.8276ZM69.1846 51.4124C66.5616 61.2014 61.6464 68.5767 54.4687 73.6187L55.6183 75.2552C63.2343 69.9054 68.3904 62.1035 71.1164 51.93L69.1846 51.4124ZM24.3036 56.5346C26.0813 61.6068 29.3763 64.8677 34.1763 66.1539L34.6939 64.222C30.6075 63.1271 27.7772 60.3986 26.191 55.8731L24.3036 56.5346ZM34.1763 66.1539C38.9725 67.439 43.3897 66.2821 47.3279 62.7949L46.0021 61.2976C42.5203 64.3805 38.7843 65.318 34.6939 64.222L34.1763 66.1539ZM47.3251 62.7974C51.3031 59.3015 54.1276 54.2865 55.8548 47.8407L53.9229 47.323C52.2682 53.4986 49.6102 58.1266 46.0049 61.2951L47.3251 62.7974ZM55.8548 47.8407C57.5498 41.5148 57.5582 35.8125 55.7943 30.78L53.9069 31.4415C55.5069 36.0066 55.5408 41.2851 53.9229 47.323L55.8548 47.8407ZM55.7967 30.7869C54.041 25.6578 50.7919 22.3622 46.0441 21.09L45.5265 23.0218C49.5364 24.0963 52.3308 26.8372 53.9045 31.4346L55.7967 30.7869ZM46.0441 21.09C41.3014 19.8192 36.8787 21.0196 32.8694 24.5431L34.1897 26.0454C37.7636 22.9045 41.5114 21.946 45.5265 23.0218L46.0441 21.09ZM32.875 24.5382C28.9091 27.9718 26.0925 32.9582 24.3656 39.4032L26.2975 39.9208C27.9524 33.7443 30.6012 29.1523 34.1841 26.0502L32.875 24.5382ZM24.3656 39.4032C22.6551 45.7869 22.6036 51.5095 24.3001 56.5243L26.1946 55.8834C24.6559 51.335 24.6606 46.0297 26.2975 39.9208L24.3656 39.4032ZM71.9015 77.0905L71.4225 76.2127L70.5965 76.6633L70.9961 77.5152L71.9015 77.0905ZM84.7543 70.0782L85.6472 69.6279L85.1822 68.7056L84.2754 69.2003L84.7543 70.0782ZM106.358 82.182L106.787 83.0851L106.79 83.0838L106.358 82.182ZM93.6072 62.9257L92.6074 62.9041L92.5904 63.6886L93.3484 63.8917L93.6072 62.9257ZM93.8254 52.8385L93.3228 51.974L92.8378 52.2559L92.8256 52.8169L93.8254 52.8385ZM114.305 40.9332L114.807 41.7977L116.885 40.5895L114.563 39.9673L114.305 40.9332ZM87.7416 33.8157L86.7756 33.5569L86.5168 34.5228L87.4827 34.7816L87.7416 33.8157ZM91.158 21.0655L91.4168 20.0995L90.4509 19.8407L90.192 20.8067L91.158 21.0655ZM136.846 33.3076L137.812 33.5664L138.071 32.6005L137.105 32.3417L136.846 33.3076ZM133.844 44.5124L134.324 45.3897L134.699 45.1844L134.81 44.7712L133.844 44.5124ZM112.373 56.2554L111.893 55.3781L110.146 56.3335L111.956 57.1642L112.373 56.2554ZM114.472 94.3985L114.005 93.5142L113.999 93.5177L114.472 94.3985ZM95.3983 94.8781C84.6455 91.9969 77.1511 85.9272 72.8068 76.6659L70.9961 77.5152C75.6128 87.3574 83.6104 93.7901 94.8807 96.8099L95.3983 94.8781ZM72.3804 77.9684L85.2333 70.956L84.2754 69.2003L71.4225 76.2127L72.3804 77.9684ZM83.8614 70.5284C87.3423 77.4311 92.263 81.8217 98.6456 83.5319L99.1632 81.6001C93.4396 80.0664 88.9269 76.1318 85.6472 69.6279L83.8614 70.5284ZM98.6456 83.5319C101.651 84.3373 104.389 84.2252 106.787 83.0851L105.928 81.2788C104.056 82.1692 101.824 82.3131 99.1632 81.6001L98.6456 83.5319ZM106.79 83.0838C109.295 81.8837 110.926 79.8143 111.685 76.9836L109.753 76.4659C109.131 78.7868 107.855 80.3555 105.926 81.2801L106.79 83.0838ZM111.685 76.9836C112.514 73.8876 111.841 71.0994 109.688 68.7432L108.212 70.0925C109.901 71.9409 110.407 74.0239 109.753 76.4659L111.685 76.9836ZM109.688 68.7432C107.587 66.4447 104.329 64.7633 100.048 63.6163L99.5303 65.5481C103.621 66.6442 106.47 68.1866 108.212 70.0925L109.688 68.7432ZM100.048 63.6163L93.866 61.9598L93.3484 63.8917L99.5303 65.5481L100.048 63.6163ZM94.6069 62.9474L94.8252 52.8601L92.8256 52.8169L92.6074 62.9041L94.6069 62.9474ZM94.328 53.703L114.807 41.7977L113.802 40.0687L93.3228 51.974L94.328 53.703ZM114.563 39.9673L88.0004 32.8498L87.4827 34.7816L114.046 41.8991L114.563 39.9673ZM88.7075 34.0745L92.1239 21.3243L90.192 20.8067L86.7756 33.5569L88.7075 34.0745ZM90.8991 22.0314L136.587 34.2735L137.105 32.3417L91.4168 20.0995L90.8991 22.0314ZM135.88 33.0488L132.878 44.2535L134.81 44.7712L137.812 33.5664L135.88 33.0488ZM133.364 43.635L111.893 55.3781L112.853 57.1328L134.324 45.3897L133.364 43.635ZM111.956 57.1642C117.613 59.7612 121.383 62.9627 123.419 66.709C125.443 70.4357 125.823 74.8339 124.442 79.9877L126.374 80.5054C127.857 74.9696 127.496 70.0245 125.176 65.7542C122.866 61.5034 118.688 58.0541 112.79 55.3466L111.956 57.1642ZM124.442 79.9877C122.765 86.2449 119.287 90.7238 114.005 93.5143L114.94 95.2827C120.753 92.2117 124.565 87.256 126.374 80.5054L124.442 79.9877ZM113.999 93.5177C108.789 96.3186 102.618 96.8125 95.3983 94.8781L94.8807 96.8099C102.472 98.8441 109.189 98.3743 114.946 95.2792L113.999 93.5177Z" fill="#FF8C00"/>
</svg>
