<svg width="12" height="15" viewBox="0 0 12 15" fill="none" xmlns="http://www.w3.org/2000/svg">
<path d="M2.17752 0.828125H2.89336C2.89423 0.828171 2.89541 0.828239 2.89688 0.828339C2.9043 0.828842 2.91798 0.830066 2.93561 0.832859C2.97335 0.838832 3.01557 0.84984 3.05138 0.866845C3.08583 0.883206 3.10132 0.898709 3.1087 0.90922C3.11297 0.915302 3.13253 0.943463 3.13253 1.02465C3.13253 1.13909 3.11048 1.1694 2.98812 1.33757C2.95311 1.38569 2.90989 1.44509 2.85662 1.52098C2.62039 1.85755 2.39921 2.30466 2.39921 3.1142C2.39921 3.59155 2.58662 4.03098 2.80937 4.41887C2.98718 4.72849 3.21387 5.04767 3.43243 5.35542C3.4857 5.43042 3.53848 5.50474 3.58995 5.57808C4.14199 6.36457 4.5992 7.11858 4.5992 7.98984C4.5992 8.85681 4.14036 9.61202 3.62801 10.1797C3.45517 10.3713 3.28174 10.5352 3.12848 10.6679C3.09655 10.5818 3.062 10.4879 3.02524 10.387C2.82074 9.82593 2.54825 9.04946 2.276 8.1875C1.72427 6.44072 1.19922 4.42009 1.19922 3.1142C1.19922 1.80499 1.54254 1.2615 1.77689 1.03892C1.89796 0.92392 2.01221 0.872214 2.08763 0.848337C2.12599 0.836191 2.15497 0.831077 2.17008 0.829026C2.17321 0.828601 2.17571 0.828314 2.17752 0.828125ZM4.06267 12.8195L4.06131 12.8171C4.11917 12.7726 4.19614 12.7138 4.2877 12.6452C4.5014 12.4849 4.79261 12.2722 5.10491 12.0603C5.41904 11.8472 5.74554 11.6411 6.0315 11.4902C6.14541 11.4301 6.24751 11.3816 6.33578 11.3456H6.56586H10.2325C10.7877 11.3456 11.1992 11.7726 11.1992 12.2386V12.9351C11.1992 13.4011 10.7877 13.8281 10.2325 13.8281H5.83252C5.2516 13.8281 4.81253 13.582 4.50742 13.3212C4.35473 13.1907 4.23996 13.0598 4.1643 12.9628C4.1267 12.9146 4.09943 12.8756 4.08259 12.8504C4.07418 12.8378 4.06842 12.8288 4.06533 12.8238L4.06293 12.8199L4.06291 12.8199L4.06271 12.8195L4.06267 12.8195Z" fill="#C5C5C5" stroke="#A5A5A5"/>
</svg>
