<svg width="31" height="30" viewBox="0 0 31 30" fill="none" xmlns="http://www.w3.org/2000/svg">
<g clip-path="url(#clip0_283_12127)">
<path d="M17.125 17.9883L18.2969 16.6406L20.2305 15.9961L21.6953 17.3438L23.8047 22.9102V24.9023L21.6953 26.25L18.2969 26.6602L18.0039 23.7305L17.125 17.9883Z" fill="#FF9307"/>
<path d="M0.894531 12.9492L3.82422 8.61328L5.99219 11.0156L6.8125 13.7109L6.34375 15.8789L3.82422 16.7578L1.48047 15.8789L0.894531 12.9492Z" fill="#FF9307"/>
<mask id="mask0_283_12127" style="mask-type:luminance" maskUnits="userSpaceOnUse" x="0" y="0" width="31" height="30">
<path d="M30.25 0H0.25V30H30.25V0Z" fill="white"/>
</mask>
<g mask="url(#mask0_283_12127)">
<path d="M1.73153 0.157877C1.40341 0.269205 0.934661 0.69694 0.788177 1.00748C0.723724 1.14811 0.57724 1.59928 0.454193 2.01529C0.266693 2.66569 0.237396 2.82975 0.260833 3.19303C0.301849 3.85514 0.653411 4.38834 1.22763 4.65787C1.33309 4.71061 3.12606 5.24967 5.212 5.8649C7.3038 6.48014 9.07333 7.02506 9.1495 7.07194C9.38388 7.22428 12.3194 9.68522 12.3194 9.72623C12.3194 9.96061 15.8057 27.8317 15.9053 28.0895C16.3214 29.2204 17.4757 29.9997 18.7354 29.9997C18.9932 29.9997 19.3507 29.9587 19.5264 29.9118C19.7022 29.8708 20.9561 29.3376 22.3038 28.7399L24.7647 27.6559L24.9112 27.7966C25.2159 28.0778 25.5557 28.2067 26.0303 28.2067C26.4581 28.2126 26.5167 28.1892 27.9522 27.5974C29.5987 26.9235 29.8624 26.7536 30.1085 26.2204C30.2139 25.9977 30.2491 25.822 30.2491 25.4997V25.072L27.9053 19.3532L25.5616 13.6286L25.796 13.3474C26.1651 12.9138 26.294 12.5856 26.2882 12.07C26.2882 11.5075 26.1358 11.1384 25.7198 10.7399C25.5499 10.5759 24.2667 9.44498 22.8663 8.23209C21.0792 6.68522 20.2237 5.97623 19.9952 5.87076C19.7315 5.74772 19.5909 5.71842 19.2335 5.71842C18.5245 5.72428 18.2491 5.90006 17.3878 6.87272L17.0362 7.27115L16.2452 6.60319C14.587 5.20865 11.5753 2.78287 11.3526 2.65983C11.2237 2.58365 9.23153 1.96842 6.9288 1.29459C2.40536 -0.0413419 2.32919 -0.0589201 1.73153 0.157877ZM6.53622 2.28483C8.73349 2.92936 10.6202 3.49772 10.7257 3.54459C10.8311 3.59147 11.6163 4.20084 12.4717 4.89811L14.0245 6.16373L13.6729 6.55045C13.4796 6.76725 13.0635 7.21842 12.7471 7.5524L12.1729 8.16178L11.001 7.18326C10.3565 6.6442 9.73544 6.15201 9.62411 6.09342C9.51278 6.03483 7.74325 5.49576 5.69833 4.89811C3.65341 4.29459 1.87216 3.76139 1.74911 3.70865C1.4913 3.59147 1.3038 3.33365 1.3038 3.0817C1.3038 2.98795 1.39755 2.58951 1.51474 2.18522C1.70224 1.56998 1.76083 1.43522 1.93075 1.28873C2.07138 1.16569 2.18856 1.11295 2.33505 1.11295C2.45224 1.11295 4.33895 1.64029 6.53622 2.28483ZM19.7022 6.94889C19.8135 7.02506 21.0675 8.09733 22.4854 9.33365C24.1495 10.7809 25.1046 11.6481 25.1749 11.7829C25.3389 12.0817 25.2452 12.3395 24.7999 12.861C24.6065 13.0837 24.4366 13.3415 24.419 13.4294C24.3897 13.5466 24.9522 14.9645 26.7862 19.4528C28.3272 23.2087 29.1944 25.3942 29.1944 25.5231C29.1944 25.8864 28.9952 26.0153 27.5831 26.5895C26.8741 26.8767 26.2354 27.1286 26.1651 27.152C25.96 27.2165 25.6436 27.0466 25.4737 26.777C25.3096 26.5192 25.087 26.3962 24.876 26.4548C24.8057 26.4724 23.5108 27.0349 22.005 27.7028L19.2628 28.9157H18.7647C18.3487 28.9157 18.2139 28.8923 17.9327 28.7575C17.5342 28.57 17.1358 28.1892 16.96 27.82C16.8604 27.6267 16.3389 25.0075 15.0733 18.4216C14.1065 13.4001 13.2979 9.2399 13.2803 9.18131C13.2628 9.12272 13.1924 9.02897 13.128 8.96451L13.0049 8.85319L13.6788 8.13248C14.0479 7.73405 14.4698 7.28287 14.6104 7.13053L14.8682 6.84928L15.8585 7.66959C16.3975 8.12662 16.9073 8.51334 16.9835 8.53092C17.2647 8.60123 17.4112 8.49576 18.0382 7.77506C18.378 7.38248 18.7296 7.00162 18.8116 6.93131C19.0811 6.70279 19.3624 6.70865 19.7022 6.94889Z" fill="#201F1D"/>
<path d="M14.5645 9.36397C14.3828 9.39327 14.1953 9.65108 14.1953 9.86788C14.1953 9.96749 14.2598 10.3015 14.3418 10.6062C14.5059 11.239 14.6055 11.3679 14.9688 11.3679C15.2383 11.3679 15.4844 11.1511 15.4844 10.905C15.4785 10.6062 15.1387 9.43428 15.0566 9.43428C15.0508 9.43428 14.9629 9.41085 14.8691 9.38741C14.7695 9.36397 14.6348 9.35225 14.5645 9.36397Z" fill="#201F1D"/>
<path d="M15.2487 12.0302C15.1667 12.0712 15.0671 12.1825 15.0202 12.2763C14.944 12.4286 14.9675 12.5751 15.3073 14.0282C15.5124 14.9013 15.7116 15.6864 15.7526 15.7685C15.8464 15.9501 15.9401 15.997 16.2448 15.997C16.5143 15.997 16.7136 15.7919 16.7136 15.5107C16.7136 15.4169 16.5554 14.6493 16.3561 13.8056C15.9753 12.1708 15.9225 12.0478 15.571 11.9833C15.4772 11.9657 15.3307 11.9833 15.2487 12.0302Z" fill="#201F1D"/>
<path d="M18.8709 15.8214C18.5896 15.88 18.2146 15.9972 18.033 16.0734C17.6052 16.2726 17.1599 16.7296 16.9373 17.1984C16.6209 17.8781 16.6267 17.9718 17.3005 22.4132C17.6228 24.5753 17.9216 26.4327 17.9568 26.5441C18.1091 27.0304 18.5017 27.3058 19.0291 27.3058C19.3572 27.3058 19.5447 27.2296 21.9002 26.1925C23.2888 25.5773 24.4548 25.0323 24.4959 24.9738C24.5369 24.921 24.5838 24.8156 24.6072 24.7394C24.6423 24.6046 22.2693 17.4327 22.0349 16.9699C21.8826 16.6652 21.449 16.2081 21.1443 16.0323C20.5642 15.6925 19.8201 15.6222 18.8709 15.8214ZM20.2947 16.8234C20.5701 16.9171 20.8513 17.1398 21.0213 17.3917C21.1326 17.5675 23.3943 24.1593 23.3943 24.3175C23.3943 24.3585 22.281 24.8683 22.2576 24.8331C22.2459 24.8214 21.8123 23.5499 21.2908 22.0031C20.7634 20.4562 20.2654 19.0616 20.1834 18.9034C19.9724 18.5109 19.492 18.0011 18.9002 17.5382C18.6306 17.3273 18.4138 17.1398 18.4138 17.1105C18.4138 17.0519 18.865 16.8995 19.2634 16.8234C19.6795 16.7472 20.0662 16.7472 20.2947 16.8234ZM18.3259 18.464C18.824 18.8683 19.1345 19.1964 19.281 19.4952C19.3455 19.6183 19.8201 20.9718 20.3357 22.507L21.2791 25.296L20.1951 25.7765C19.1287 26.2394 18.9412 26.3038 18.9412 26.1984C18.9412 26.1691 18.6775 24.3995 18.3552 22.2667C18.033 20.1398 17.7693 18.3175 17.7693 18.2179C17.7693 18.007 17.7693 18.007 18.3259 18.464Z" fill="#201F1D"/>
<path d="M3.39357 8.04898C3.10646 8.15445 3.00099 8.25406 2.57325 8.8107C1.74708 9.89468 0.862319 11.4533 0.4756 12.508C0.293959 13.006 0.28224 13.0822 0.28224 13.8263C0.276381 14.506 0.293959 14.6642 0.405287 14.9631C0.973647 16.4689 2.36232 17.3654 3.96779 17.2599C4.93458 17.2013 5.63771 16.8849 6.2881 16.2287C7.23146 15.2736 7.50685 13.9611 7.04982 12.6076C6.59865 11.2599 4.88771 8.47671 4.29591 8.12515C4.05568 7.98453 3.6631 7.94937 3.39357 8.04898ZM4.58302 10.1994C5.5088 11.5939 6.12404 12.9006 6.20607 13.6506C6.24122 14.0138 6.12404 14.5588 5.92482 14.9513C5.74318 15.3029 5.22169 15.801 4.84669 15.9709C3.58107 16.551 2.12794 16.0588 1.53029 14.8459C1.36622 14.5177 1.33107 14.3713 1.31349 13.9494C1.29005 13.5158 1.31349 13.381 1.4424 12.9826C1.74708 12.0744 2.5381 10.6564 3.33497 9.58413L3.71583 9.07437L3.86232 9.20913C3.94435 9.28531 4.26661 9.73062 4.58302 10.1994Z" fill="#201F1D"/>
</g>
</g>
<defs>
<clipPath id="clip0_283_12127">
<rect width="31" height="30" fill="white"/>
</clipPath>
</defs>
</svg>
