<svg width="30" height="30" viewBox="0 0 30 30" fill="none" xmlns="http://www.w3.org/2000/svg">
<path d="M4.25 16H0.25V20.25H8L4.25 16Z" fill="#D16A00"/>
<path d="M25.25 16H29.25V20.25H21.5L25.25 16Z" fill="#D16A00"/>
<path d="M12.3932 3.14252C9.63344 3.33588 8.1686 3.61127 7.0436 4.14448C6.52211 4.39057 6.2643 4.63666 5.8893 5.2519C5.28579 6.24213 3.93813 9.0019 2.86586 11.4511C2.62563 11.996 2.59633 12.0429 2.28579 12.2363C1.30727 12.8632 0.627579 13.8242 0.270158 15.0956C0.0299228 15.9511 -0.0169522 16.5488 0.018204 18.0898C0.0592196 19.5781 0.123673 20.2167 0.416642 21.7285C0.62172 22.7773 0.727189 23.0234 1.03774 23.1113L1.22524 23.1699L1.24282 24.3417C1.26039 25.455 1.26625 25.5371 1.40102 25.8124C1.58852 26.1816 1.94594 26.539 2.31508 26.7265L2.60805 26.8671H4.9811H7.35414L7.67641 26.7148C8.08657 26.5214 8.41469 26.1933 8.60219 25.789C8.71938 25.5371 8.75453 25.3554 8.77797 24.8398L8.80727 24.207L8.97133 24.289C9.21742 24.4179 20.7839 24.4179 21.0299 24.289L21.194 24.207L21.2233 24.8398C21.2467 25.3554 21.2819 25.5371 21.3991 25.789C21.5866 26.1933 21.9147 26.5214 22.3249 26.7148L22.6471 26.8671H25.0202H27.3932L27.6862 26.7265C28.0553 26.539 28.4128 26.1816 28.6003 25.8124C28.735 25.5371 28.7409 25.455 28.7585 24.3417L28.776 23.1699L28.9635 23.1113C29.2741 23.0234 29.3796 22.7773 29.5846 21.7285C29.8776 20.2167 29.9421 19.5781 29.9831 18.0898C30.0182 16.5488 29.9714 15.9511 29.7311 15.0956C29.3737 13.8242 28.694 12.8632 27.7155 12.2363C27.4049 12.0429 27.3756 11.996 27.1354 11.4511C26.5319 10.0742 25.3835 7.6308 24.9089 6.71088C24.2643 5.46869 23.8893 4.8476 23.6081 4.56635C23.1335 4.09174 21.9206 3.67573 20.2565 3.40034C19.0378 3.20698 18.1413 3.15424 15.4401 3.13666C13.9284 3.1308 12.5573 3.1308 12.3932 3.14252ZM17.3737 4.45502C19.7057 4.57221 21.4108 4.85932 22.36 5.31049C22.6061 5.42768 22.7233 5.53315 22.9167 5.82026C23.3268 6.43549 25.6764 11.2578 25.6003 11.3339C25.5885 11.3515 25.3249 11.3105 25.0202 11.246C24.2819 11.0937 23.4381 10.9765 22.3249 10.871C20.1921 10.6718 19.1608 10.6425 15.0006 10.6425C10.8405 10.6425 9.80922 10.6718 7.67641 10.871C6.56313 10.9765 5.71938 11.0937 4.9811 11.246C4.67641 11.3105 4.41274 11.3515 4.40102 11.3339C4.32485 11.2578 6.67446 6.43549 7.08461 5.82026C7.27797 5.53315 7.39516 5.42768 7.64125 5.31049C8.29164 4.99994 9.49867 4.73041 10.9284 4.57221C12.3581 4.41401 15.3698 4.35541 17.3737 4.45502ZM19.9225 12.0136C22.6296 12.1718 24.235 12.371 25.4303 12.6874C26.151 12.8808 26.485 13.0214 26.9479 13.3261C27.6569 13.8007 28.1198 14.3984 28.4128 15.2363L28.5299 15.5585L27.2878 15.5937C25.946 15.6289 25.6413 15.6874 25.0202 16.0449C24.6335 16.2675 21.3464 19.5429 21.2643 19.789C21.1823 20.041 21.2409 20.2871 21.4225 20.457L21.5749 20.5976L25.0143 20.6269L28.4538 20.6562L28.3424 21.2539L28.2311 21.8574H25.5768H22.9225L21.6803 22.4726L20.444 23.0878H15.0006H9.55727L8.32094 22.4726L7.07875 21.8574H4.43032H1.77602L1.67641 21.371C1.62368 21.1074 1.58266 20.832 1.58266 20.7558V20.6269H4.97524H8.36782L8.5436 20.4804C8.75453 20.3046 8.82485 20.0585 8.73696 19.789C8.65492 19.5429 5.36782 16.2675 4.9811 16.0449C4.36 15.6874 4.05532 15.6289 2.71352 15.5937L1.47133 15.5585L1.58852 15.2363C1.88149 14.3984 2.34438 13.8007 3.05336 13.3261C3.51625 13.0214 3.85024 12.8808 4.57094 12.6874C6.04164 12.2949 8.63149 12.0371 12.1003 11.9316C13.3307 11.8964 18.903 11.9492 19.9225 12.0136ZM4.0143 17.0527C4.32485 17.1699 4.48891 17.3105 5.44985 18.2597L6.53383 19.3378H3.97329C2.47329 19.3378 1.40102 19.3144 1.37758 19.2851C1.36 19.2558 1.33071 18.6992 1.30727 18.0488L1.27211 16.8652L2.46743 16.8886C3.53969 16.9121 3.69789 16.9296 4.0143 17.0527ZM28.694 18.0546C28.6706 18.6992 28.6413 19.2558 28.6237 19.2851C28.6003 19.3144 27.528 19.3378 26.028 19.3378H23.4674L24.528 18.2831C25.9225 16.8945 25.9225 16.8945 27.7096 16.8828L28.7292 16.8769L28.694 18.0546ZM7.09633 23.3574L7.51235 23.5624L7.48891 24.3652C7.45375 25.6601 7.55922 25.6074 5.01625 25.6074C3.46938 25.6074 3.06508 25.5898 2.89516 25.5195C2.57289 25.3847 2.52016 25.1855 2.52016 24.0839V23.1464H4.60024H6.68032L7.09633 23.3574ZM27.4811 24.0839C27.4811 25.1855 27.4284 25.3847 27.1061 25.5195C26.9362 25.5898 26.5319 25.6074 24.985 25.6074C22.4421 25.6074 22.5475 25.6601 22.5124 24.3652L22.4889 23.5624L22.8874 23.3574L23.2917 23.1523L25.3893 23.1464H27.4811V24.0839Z" fill="#201F1D"/>
<path d="M7.91017 15.6266C7.8633 15.6441 7.75197 15.7262 7.66408 15.8082C7.44728 16.0074 7.43556 16.4234 7.62892 16.6754C7.98634 17.1324 10.6934 20.3785 10.8223 20.4898L10.9629 20.6246H15H19.0371L19.1777 20.4898C19.3067 20.3785 22.0137 17.1324 22.3711 16.6754C22.459 16.5582 22.5 16.4293 22.5 16.2359C22.5 16.0016 22.4707 15.9312 22.3184 15.7848L22.1426 15.6148L15.0703 15.6031C11.1797 15.5973 7.95705 15.609 7.91017 15.6266ZM20.4082 16.9508C20.3848 16.9976 19.9277 17.5484 19.4004 18.1812L18.4395 19.3355H15H11.5606L10.5996 18.1812C10.0723 17.5484 9.61525 16.9976 9.59181 16.9508C9.5508 16.8863 10.4531 16.8746 15 16.8746C19.5469 16.8746 20.4492 16.8863 20.4082 16.9508Z" fill="#201F1D"/>
</svg>
