<svg width="27" height="30" viewBox="0 0 27 30" fill="none" xmlns="http://www.w3.org/2000/svg">
<path d="M20.2812 17.6953H7.28906V19.8633H20.2812V17.6953Z" fill="#D16A00"/>
<path d="M7.69922 13.1836H5.58984V25.2539H7.69922V13.1836Z" fill="#D16A00"/>
<path d="M20.8828 12.9492H18.7734V24.9609H20.8828V12.9492Z" fill="#D16A00"/>
<path d="M14.0859 20.625H12.6211V25.2539H14.0859V20.625Z" fill="#D16A00"/>
<path d="M11.5156 6.73828H15.1986L14.3782 19.8633H12.3275L11.5156 6.73828Z" fill="#D16A00"/>
<path d="M12.1993 0.113125C11.1915 0.44125 10.4767 1.32016 10.3302 2.41C10.2892 2.69711 10.2716 3.4061 10.2892 4.18539C10.3185 5.63266 10.3712 5.87875 10.7755 6.48813C10.9689 6.7811 10.9806 6.82797 11.0157 7.46665L11.0567 8.14047L7.3712 8.15805L3.68565 8.17563L3.26378 8.32797C2.35557 8.66196 1.60557 9.32407 1.18956 10.1678C0.76768 11.0233 0.78526 10.5955 0.78526 19.074C0.78526 27.576 0.76768 27.119 1.20128 28.0096C1.64659 28.9236 2.56651 29.6619 3.56846 29.9139C3.87315 29.9901 5.1505 30.0018 13.4884 30.0018C24.0411 30.0018 23.3614 30.0252 24.129 29.6385C24.8673 29.2693 25.4239 28.7068 25.7989 27.9686C26.1446 27.283 26.1564 27.1483 26.1564 24.0779V21.2889L26.0099 21.1365C25.8282 20.9608 25.6231 20.9139 25.3595 20.9901C24.9493 21.1014 24.961 21.0369 24.9259 24.1717L24.8966 26.9842L24.7091 27.3709C24.4806 27.8397 23.9474 28.3611 23.5021 28.5662C23.3263 28.6483 22.9806 28.742 22.7228 28.7713C22.4122 28.8123 19.254 28.8299 13.1485 28.8182L4.03721 28.8006L3.67393 28.66C2.98839 28.3904 2.44932 27.8572 2.17393 27.1893L2.04503 26.867L2.02745 19.2264C2.00987 10.783 1.99229 11.2049 2.38487 10.5545C2.6251 10.1561 2.98839 9.83383 3.47471 9.5936L3.86143 9.4061L7.49424 9.38852L11.1329 9.37094L11.3204 12.8748C11.4259 14.8026 11.5314 16.5545 11.5489 16.7713L11.5841 17.1697H10.0782H8.5782V15.5994C8.5782 14.0115 8.5255 13.4256 8.3673 13.1151C8.2149 12.8221 7.86924 12.4822 7.5587 12.3182C7.30674 12.1893 7.1837 12.1658 6.76182 12.1658C6.33409 12.16 6.22276 12.1834 5.97081 12.3182C5.58995 12.5174 5.22667 12.91 5.08604 13.2791C4.98057 13.5545 4.97471 13.8006 4.97471 19.1033V24.6404L5.12706 24.9686C5.4376 25.6248 5.93565 25.9647 6.64464 26.0057C7.43565 26.0467 8.0567 25.6776 8.3966 24.9627L8.5489 24.6404L8.5665 22.6893L8.5899 20.744H10.1368H11.6837V22.6424C11.6837 24.9041 11.6954 24.9803 12.211 25.4959C12.6212 25.9119 12.9786 26.0467 13.5821 26.0057C14.2618 25.9588 14.7716 25.6248 15.0646 25.033L15.2286 24.699L15.2462 22.7186L15.2638 20.744H16.8107H18.3575L18.3751 22.7186L18.3927 24.699L18.5567 25.033C18.8497 25.6248 19.3595 25.9588 20.0392 26.0057C20.6427 26.0467 20.9942 25.9119 21.4161 25.4959C21.9728 24.9334 21.9376 25.3963 21.9376 19.0506V13.5076L21.7735 13.1561C21.586 12.7635 21.2872 12.4705 20.8888 12.283C20.4962 12.1072 19.7814 12.1131 19.4122 12.2947C19.0548 12.4705 18.7501 12.7693 18.5509 13.1443L18.3927 13.449L18.3751 15.3123L18.3575 17.1697H16.8575H15.3575L15.3927 16.6834C15.4103 16.4197 15.5099 14.7264 15.6095 12.9217C15.7091 11.117 15.8028 9.58188 15.8204 9.50571L15.8497 9.37094L19.4649 9.38852L23.0802 9.4061L23.4669 9.58774C24.1349 9.90415 24.5802 10.3963 24.8028 11.0643C24.92 11.4041 24.9259 11.5506 24.9259 13.8768C24.9259 15.2303 24.9435 16.4139 24.961 16.5193C25.0548 16.994 25.6407 17.1639 25.9864 16.824L26.1564 16.6541V13.9647C26.1564 10.9764 26.1505 10.9354 25.7638 10.1385C25.6056 9.80454 25.4415 9.58774 25.0782 9.23032C24.5333 8.69125 24.088 8.43344 23.4259 8.26352C22.9982 8.15219 22.7696 8.14633 19.4298 8.14633H15.8907L15.9317 7.45493C15.9728 6.86313 15.9962 6.74594 16.1075 6.61118C16.3009 6.38266 16.5235 5.89047 16.5997 5.52133C16.6993 5.035 16.6817 2.52133 16.5763 2.05844C16.3946 1.285 15.8497 0.62289 15.088 0.24789L14.6485 0.0310938L13.5939 0.019375C12.6915 0.00765625 12.4806 0.019375 12.1993 0.113125ZM14.4552 1.30844C14.7364 1.42563 15.1232 1.78891 15.2755 2.07602C15.3985 2.30453 15.4044 2.38657 15.4044 3.83969C15.4044 5.56821 15.3927 5.62094 14.9064 6.0604C14.5138 6.41196 14.3321 6.46469 13.5001 6.47055C12.8614 6.47055 12.7267 6.45297 12.4747 6.33579C12.1056 6.17172 11.8888 5.96664 11.6954 5.5975L11.5372 5.30453V3.83969C11.5372 2.41586 11.5431 2.36899 11.6778 2.11117C11.9357 1.61899 12.2931 1.3436 12.8146 1.23227C13.1603 1.1561 14.2091 1.20883 14.4552 1.30844ZM13.0607 7.70688C13.2892 7.73032 13.7345 7.7186 14.0567 7.6893C14.379 7.65415 14.6544 7.64243 14.6661 7.65415C14.713 7.69516 14.0216 19.1443 13.9571 19.2967C13.7931 19.7186 13.1896 19.7479 12.9728 19.3436C12.9317 19.2615 12.2696 8.29282 12.2696 7.68344C12.2696 7.63071 12.3282 7.61313 12.463 7.63657C12.5626 7.66 12.838 7.6893 13.0607 7.70688ZM7.07237 13.4783C7.16026 13.5486 7.25401 13.701 7.28917 13.8182C7.32432 13.9471 7.34776 14.8377 7.34776 16.0154C7.34776 17.2635 7.3712 18.0369 7.40635 18.1131C7.55284 18.3826 7.6876 18.4002 9.7208 18.4002C11.4962 18.4002 11.6251 18.4061 11.631 18.4998C11.631 18.5584 11.6544 18.8104 11.672 19.0565L11.7189 19.5135H9.7091H7.70518L7.54112 19.6541L7.37706 19.7947L7.34776 22.1209L7.31846 24.4471L7.1251 24.617C6.77354 24.9276 6.30479 24.7693 6.21104 24.3123C6.14659 23.9901 6.17003 14.0526 6.23448 13.8182C6.31065 13.5604 6.53917 13.3611 6.76182 13.3611C6.84971 13.3611 6.99034 13.4139 7.07237 13.4783ZM20.5782 13.5662L20.7071 13.7186V19.0799V24.4471L20.5372 24.617C20.256 24.8924 19.8575 24.8397 19.6817 24.494C19.6056 24.3533 19.5939 23.9666 19.5939 22.0916V19.8533L19.4239 19.6834L19.254 19.5135H17.2384H15.2228L15.2462 19.0858C15.2521 18.8572 15.2755 18.6053 15.2931 18.5291L15.3165 18.4002H17.1974C18.7911 18.4002 19.1075 18.3885 19.2716 18.3065C19.3771 18.2596 19.4884 18.1717 19.5177 18.119C19.5411 18.0662 19.5763 17.0467 19.5939 15.8631L19.6232 13.701L19.8224 13.5252C19.9864 13.3787 20.0509 13.3553 20.2325 13.3846C20.3556 13.4022 20.4962 13.4783 20.5782 13.5662ZM14.0274 22.5779C14.0274 24.0193 14.0099 24.3533 13.9396 24.494C13.7638 24.8397 13.3653 24.8924 13.0841 24.617L12.9142 24.4471V22.6365V20.8318H13.4708H14.0274V22.5779Z" fill="#201F1D"/>
<path d="M6.32431 10.451C6.20712 10.5447 6.16025 10.656 6.13681 10.8494C6.10751 11.0896 6.12509 11.1424 6.27743 11.3123C6.69931 11.781 7.47861 11.365 7.32626 10.7557C7.22079 10.3338 6.65829 10.1639 6.32431 10.451Z" fill="#201F1D"/>
<path d="M19.9 10.4593C19.5602 10.7464 19.6305 11.2913 20.0406 11.4613C20.4684 11.6429 20.8844 11.3734 20.8844 10.9163C20.8844 10.3831 20.3102 10.1136 19.9 10.4593Z" fill="#201F1D"/>
<path d="M25.1473 18.6328C24.9833 18.7969 24.9715 18.8438 25.0008 19.0898C25.0419 19.4473 25.2411 19.6289 25.5868 19.6289C25.8797 19.6289 26.0555 19.5234 26.1551 19.2832C26.3309 18.8555 26.0555 18.457 25.5868 18.457C25.3758 18.457 25.2938 18.4922 25.1473 18.6328Z" fill="#201F1D"/>
<path d="M6.39273 26.7279C6.34 26.7572 6.25211 26.8627 6.20523 26.9564C5.97672 27.3959 6.23453 27.8353 6.72672 27.8353C7.12515 27.8353 7.31851 27.6478 7.31851 27.2494C7.31851 26.9916 7.29508 26.9271 7.15445 26.8041C6.97867 26.6517 6.59195 26.6107 6.39273 26.7279Z" fill="#201F1D"/>
<path d="M13.0599 26.8008C12.6556 27.2051 12.9134 27.832 13.4818 27.832C13.845 27.832 14.0853 27.5977 14.0853 27.2461C14.0853 26.8887 13.845 26.6602 13.47 26.6602C13.265 26.6602 13.1712 26.6953 13.0599 26.8008Z" fill="#201F1D"/>
<path d="M19.8751 26.8184C19.6759 27.0352 19.629 27.2578 19.7345 27.5039C19.8399 27.75 19.9805 27.832 20.3145 27.832C20.5372 27.832 20.6016 27.8027 20.7305 27.6504C20.836 27.5273 20.8829 27.4043 20.8829 27.2461C20.8829 27.0879 20.836 26.9648 20.7305 26.8418C20.6016 26.6836 20.5372 26.6602 20.3028 26.6602C20.0743 26.6602 19.9981 26.6895 19.8751 26.8184Z" fill="#201F1D"/>
</svg>
