<svg width="26" height="26" viewBox="0 0 26 26" fill="none" xmlns="http://www.w3.org/2000/svg">
<path d="M19.6797 23.0527V25.6192H5.25162C4.36635 25.6192 3.64866 24.9015 3.64866 24.0163V23.0527H19.6797Z" fill="#FFF3E6"/>
<path d="M6.04492 23.0527V25.6192H5.25045C4.36518 25.6192 3.64749 24.9015 3.64749 24.0163V23.0527H6.04492Z" fill="#FFF3E6"/>
<path d="M24.3322 6.76966L23.2069 6.54033C21.5273 6.19817 20.5226 4.46683 21.059 2.83889C21.6414 1.38126 23.0391 0.41327 24.6083 0.381075C25.2499 0.367922 25.7343 0.959219 25.5952 1.58545L24.3322 6.76966Z" fill="#D16A00"/>
<path d="M21.0582 2.83879C21.6405 1.38127 23.0381 0.413222 24.6074 0.381078C24.9441 0.374121 25.2372 0.533828 25.4199 0.777426C24.5656 1.19536 23.8736 1.91939 23.5065 2.83879L22.3868 6.23758C21.2209 5.59073 20.6164 4.18012 21.0581 2.83879H21.0582Z" fill="#D16A00"/>
<path d="M16.6863 22.1605L20.7063 23.0533L24.3841 6.52994C24.5466 5.79839 23.9809 5.10786 23.2316 5.1233L22.1351 5.14575C20.9671 5.16977 19.9267 5.8902 19.4933 6.97509L19.0864 7.99366C18.193 10.2302 17.6336 12.586 17.4261 14.9854L16.6863 22.1605Z" fill="#D16A00"/>
<path d="M21.8657 6.97509L21.4589 7.99366C20.5655 10.2302 20.0061 12.586 19.7986 14.9854L18.9909 22.6722L16.6869 22.1607L17.4268 14.9854C17.6342 12.586 18.1936 10.2302 19.0871 7.99366L19.4939 6.97509C19.9273 5.8902 20.9677 5.16976 22.1357 5.14575L23.2323 5.12335C23.4251 5.11891 23.6159 5.16319 23.7871 5.25208C22.9262 5.49172 22.2073 6.12014 21.8657 6.97509Z" fill="#F07900"/>
<path d="M5.01293 18.2278L19.4905 20.1281C20.305 20.2351 20.918 20.9908 20.918 21.8882C20.918 22.8674 20.1926 23.661 19.2975 23.661H2.3725C1.60464 23.661 0.982113 22.98 0.982113 22.1399C0.982113 19.7778 2.86899 17.9465 5.01293 18.2278Z" fill="#D16A00"/>
<path d="M5.01233 18.2278L5.97656 18.3544C4.4904 18.8269 3.3788 20.3269 3.3788 22.1399C3.3788 22.98 4.00148 23.661 4.76934 23.661H2.37191C1.60404 23.661 0.981515 22.9801 0.981515 22.1399C0.981515 19.7778 2.86839 17.9465 5.01233 18.2278Z" fill="#D16A00"/>
<path d="M19.9546 25.6195H16.8755L18.0772 20.453C18.2901 19.499 19.2357 18.8984 20.1896 19.1112C21.1429 19.3238 21.7438 20.269 21.5316 21.2226L20.5947 25.1151C20.5601 25.2588 20.4782 25.3868 20.3621 25.4783C20.246 25.5698 20.1024 25.6196 19.9546 25.6195Z" fill="#FFF3E6"/>
<path d="M18.0778 20.453C18.2906 19.499 19.2362 18.8984 20.1902 19.1112C20.497 19.1792 20.78 19.3282 21.0098 19.5426C20.7473 19.786 20.5653 20.1035 20.4879 20.453L19.2862 25.6195H16.8761L18.0778 20.453Z" fill="#FFF3E6"/>
<path d="M2.08073 18.7785C2.92471 18.038 3.9838 17.7082 5.0627 17.85L16.5924 19.3633L17.0477 14.9489C17.2583 12.5133 17.8262 10.122 18.7333 7.85186L19.1402 6.83329C19.4524 6.04952 20.0543 5.41594 20.821 5.06387C20.4871 4.32562 20.443 3.48887 20.6974 2.71961C20.6997 2.71204 20.7025 2.70473 20.7053 2.69737C21.017 1.91434 21.553 1.24073 22.2459 0.76095C22.9388 0.281164 23.7579 0.0165378 24.6005 0.000227156C25.0241 -0.00733923 25.4206 0.174406 25.689 0.502097C25.9574 0.829585 26.0587 1.25467 25.9669 1.66803L25.9651 1.67565L24.7023 6.85964C24.7018 6.86244 24.7003 6.86503 24.6996 6.86757L22.1393 18.3703C22.1285 18.4191 22.1081 18.4654 22.0794 18.5063C22.0507 18.5473 22.0142 18.5822 21.972 18.6091C21.9298 18.6359 21.8827 18.6541 21.8334 18.6628C21.7841 18.6714 21.7336 18.6702 21.6848 18.6593C21.4795 18.6137 21.3501 18.4102 21.3958 18.2047L24.0131 6.44684C24.0388 6.33218 24.038 6.21315 24.0108 6.09884C23.9835 5.98453 23.9304 5.87797 23.8557 5.7873C23.7812 5.69645 23.6871 5.6237 23.5805 5.57452C23.4738 5.52535 23.3574 5.50104 23.24 5.50343L22.1436 5.52603C21.9167 5.5306 21.6957 5.56554 21.4849 5.62703C21.475 5.63059 21.4648 5.63373 21.4547 5.63632C21.0931 5.74681 20.7609 5.93714 20.4828 6.19324C20.2046 6.44934 19.9875 6.76467 19.8476 7.11593L19.4407 8.13435C18.5609 10.3361 18.0102 12.6555 17.8062 15.0177L17.8056 15.0239L17.3478 19.4625L18.0771 19.5583C18.5681 18.8976 19.4187 18.5489 20.2727 18.7391C21.4293 18.9971 22.1609 20.1483 21.9034 21.305C21.9028 21.3071 21.9024 21.3093 21.902 21.3114L20.9651 25.2039C20.911 25.4311 20.7818 25.6333 20.5984 25.7778C20.415 25.9222 20.1882 26.0006 19.9547 26H5.25079C4.16535 26 3.2815 25.1238 3.26779 24.0417H2.37277C1.39625 24.0417 0.601524 23.1884 0.601524 22.1398C0.601524 20.8282 1.14072 19.6031 2.08078 18.7785H2.08073ZM23.2245 4.74192C23.2352 4.74171 23.246 4.74151 23.2568 4.74151C23.6615 4.74151 24.0424 4.89761 24.3282 5.17691L25.224 1.49964C25.2436 1.41001 25.2426 1.3171 25.2211 1.22791C25.1996 1.13872 25.1581 1.05557 25.0998 0.984721C24.9806 0.839081 24.8033 0.759964 24.6162 0.761741C23.9253 0.775122 23.2535 0.991539 22.6846 1.38402C22.1158 1.77651 21.675 2.32771 21.4172 2.96894C21.2175 3.58216 21.2654 4.24914 21.5505 4.82758C21.7408 4.78959 21.934 4.76848 22.128 4.76451L23.2245 4.74192ZM19.9547 25.2383C20.0171 25.2384 20.0777 25.2175 20.1267 25.1789C20.1757 25.1403 20.2102 25.0863 20.2247 25.0256L21.1606 21.1365C21.3248 20.3904 20.8527 19.6488 20.1069 19.4826C19.3594 19.3155 18.6159 19.788 18.4484 20.5388L17.3553 25.2383H19.9547ZM2.37277 23.2798H6.68734C6.78835 23.2798 6.88522 23.32 6.95665 23.3914C7.02807 23.4628 7.0682 23.5597 7.0682 23.6607C7.0682 23.7617 7.02807 23.8586 6.95665 23.93C6.88522 24.0014 6.78835 24.0415 6.68734 24.0415H4.02946C4.04296 24.7037 4.58551 25.2383 5.25079 25.2383H16.5735L16.8517 24.0415H8.46727C8.36626 24.0415 8.26939 24.0014 8.19796 23.93C8.12654 23.8586 8.08641 23.7617 8.08641 23.6607C8.08641 23.5597 8.12654 23.4628 8.19796 23.3914C8.26939 23.32 8.36626 23.2798 8.46727 23.2798H17.0288L17.7056 20.3696C17.7124 20.3398 17.7198 20.3101 17.7279 20.2805L4.96352 18.6052C4.10542 18.4921 3.25982 18.7573 2.58316 19.351C1.80773 20.0312 1.36324 21.0476 1.36324 22.1396C1.36324 22.7684 1.81611 23.2798 2.37272 23.2798H2.37277Z" fill="#201F1D"/>
</svg>
