<svg width="18" height="17" viewBox="0 0 18 17" fill="none" xmlns="http://www.w3.org/2000/svg">
<mask id="mask0_823_2490" style="mask-type:luminance" maskUnits="userSpaceOnUse" x="0" y="0" width="18" height="17">
<path d="M17.0727 0H0.621094V17H17.0727V0Z" fill="white"/>
</mask>
<g mask="url(#mask0_823_2490)">
<path d="M12.5661 10.0234H5.44141V11.252H12.5661V10.0234Z" fill="#C5C5C5"/>
<path d="M5.66848 7.46875H4.51172V14.3086H5.66848V7.46875Z" fill="#C5C5C5"/>
<path d="M12.895 7.33594H11.7383V14.1426H12.895V7.33594Z" fill="#C5C5C5"/>
<path d="M9.17049 11.6875H8.36719V14.3105H9.17049V11.6875Z" fill="#C5C5C5"/>
<path d="M7.76172 3.82031H9.78143L9.33153 11.2578H8.20695L7.76172 3.82031Z" fill="#C5C5C5"/>
<path d="M8.13437 0.0630627C7.5817 0.249 7.18972 0.747048 7.10938 1.36462C7.08689 1.52732 7.07724 1.92908 7.08689 2.37068C7.10296 3.1908 7.13186 3.33025 7.35358 3.67556C7.45963 3.84158 7.46605 3.86814 7.4853 4.23006L7.50778 4.61189L5.4867 4.62185L3.46559 4.63181L3.23425 4.71814C2.73619 4.9074 2.3249 5.2826 2.09677 5.76073C1.86542 6.24551 1.87506 6.00309 1.87506 10.8076C1.87506 15.6254 1.86542 15.3664 2.1032 15.8711C2.3474 16.389 2.85187 16.8074 3.40133 16.9502C3.56842 16.9934 4.2689 17 8.8413 17C14.6283 17 14.2555 17.0133 14.6765 16.7941C15.0813 16.5849 15.3866 16.2662 15.5922 15.8478C15.7818 15.4593 15.7883 15.383 15.7883 13.6431V12.0627L15.7079 11.9763C15.6083 11.8768 15.4958 11.8502 15.3513 11.8934C15.1263 11.9564 15.1327 11.9199 15.1135 13.6963L15.0974 15.29L14.9946 15.5092C14.8693 15.7748 14.5769 16.0703 14.3327 16.1865C14.2363 16.233 14.0467 16.2861 13.9053 16.3027C13.735 16.3259 12.0031 16.3359 8.6549 16.3293L3.65838 16.3193L3.45917 16.2396C3.08323 16.0869 2.78761 15.7847 2.63659 15.4062L2.5659 15.2236L2.55626 10.8939C2.54662 6.10934 2.53698 6.34842 2.75226 5.97986C2.884 5.7541 3.08323 5.57146 3.34992 5.43533L3.56199 5.32908L5.55418 5.31912L7.54957 5.30916L7.65239 7.29469C7.71025 8.38711 7.7681 9.37986 7.7777 9.50271L7.797 9.72847H6.97119H6.14861V8.83863C6.14861 7.93882 6.11971 7.60681 6.03295 7.43086C5.94938 7.26483 5.75982 7.07222 5.58952 6.97929C5.45135 6.90624 5.38388 6.89293 5.15253 6.89293C4.91796 6.88964 4.85691 6.9029 4.71875 6.97929C4.50989 7.09217 4.31067 7.31464 4.23355 7.5238C4.17571 7.67986 4.1725 7.81931 4.1725 10.8242V13.9619L4.25604 14.1478C4.42634 14.5197 4.69946 14.7123 5.08827 14.7355C5.52205 14.7588 5.86262 14.5496 6.04902 14.1445L6.13254 13.9619L6.14219 12.8562L6.15502 11.7539H7.00332H7.85162V12.8297C7.85162 14.1113 7.85804 14.1545 8.14079 14.4467C8.36573 14.6824 8.56173 14.7588 8.89268 14.7355C9.26542 14.709 9.54499 14.5197 9.70566 14.1843L9.7956 13.9951L9.80525 12.8728L9.8149 11.7539H10.6632H11.5114L11.5211 12.8728L11.5308 13.9951L11.6207 14.1843C11.7814 14.5197 12.0609 14.709 12.4337 14.7355C12.7646 14.7588 12.9574 14.6824 13.1887 14.4467C13.494 14.1279 13.4747 14.3902 13.4747 10.7943V7.65328L13.3847 7.4541C13.2819 7.23162 13.1181 7.06559 12.8996 6.95934C12.6843 6.85972 12.2923 6.86306 12.0898 6.96597C11.8938 7.06559 11.7267 7.23491 11.6175 7.44741L11.5308 7.62007L11.5211 8.67594L11.5114 9.72847H10.6889H9.86629L9.88559 9.4529C9.89524 9.30347 9.94986 8.34393 10.0045 7.32127C10.0591 6.29861 10.1105 5.42869 10.1201 5.38553L10.1362 5.30916L12.1187 5.31912L14.1013 5.32908L14.3134 5.43201C14.6797 5.61131 14.9239 5.89021 15.046 6.26874C15.1102 6.4613 15.1135 6.54431 15.1135 7.86249C15.1135 8.62948 15.1231 9.30018 15.1327 9.35991C15.1842 9.62891 15.5055 9.72518 15.695 9.53257L15.7883 9.4363V7.9123C15.7883 6.21893 15.785 6.1957 15.573 5.74412C15.4862 5.55486 15.3962 5.43201 15.197 5.22947C14.8982 4.924 14.654 4.77791 14.2909 4.68162C14.0563 4.61853 13.931 4.61521 12.0995 4.61521H10.1587L10.1812 4.22342C10.2037 3.88806 10.2165 3.82166 10.2776 3.74529C10.3836 3.6158 10.5057 3.33689 10.5475 3.12771C10.6021 2.85212 10.5925 1.42771 10.5347 1.16541C10.435 0.727124 10.1362 0.35193 9.71849 0.13943L9.47748 0.0165781L8.89915 0.0099375C8.40429 0.00329688 8.28863 0.0099375 8.13437 0.0630627ZM9.37148 0.740406C9.52568 0.806814 9.7378 1.01267 9.82132 1.17537C9.88877 1.30486 9.892 1.35135 9.892 2.17478C9.892 3.15428 9.88559 3.18416 9.61891 3.43318C9.40361 3.6324 9.30397 3.66228 8.84771 3.6656C8.49746 3.6656 8.42359 3.65564 8.2854 3.58924C8.08299 3.49626 7.9641 3.38005 7.85804 3.17087L7.77128 3.00486V2.17478C7.77128 1.36794 7.77452 1.34138 7.84839 1.19529C7.98981 0.916385 8.18581 0.76033 8.47179 0.697243C8.66137 0.65408 9.23652 0.68396 9.37148 0.740406ZM8.60675 4.36619C8.73206 4.37947 8.97625 4.37283 9.15294 4.35623C9.32969 4.33631 9.48071 4.32967 9.48713 4.33631C9.51285 4.35955 9.1337 10.8474 9.09832 10.9338C9.00839 11.1728 8.67744 11.1895 8.55855 10.9603C8.53601 10.9138 8.17292 4.69822 8.17292 4.35291C8.17292 4.32303 8.20506 4.31306 8.27898 4.32635C8.3336 4.33962 8.48462 4.35623 8.60675 4.36619ZM5.32283 7.63668C5.37102 7.67651 5.42244 7.76287 5.44172 7.82929C5.46099 7.90233 5.47385 8.407 5.47385 9.07437C5.47385 9.78162 5.4867 10.2199 5.50598 10.2631C5.58631 10.4158 5.66021 10.4258 6.77519 10.4258C7.7488 10.4258 7.81949 10.4291 7.82272 10.4822C7.82272 10.5154 7.83555 10.6582 7.8452 10.7977L7.87092 11.0566H6.76878H5.66985L5.57988 11.1363L5.48992 11.216L5.47385 12.5342L5.45778 13.8523L5.35174 13.9486C5.15895 14.1246 4.9019 14.0349 4.85048 13.7759C4.81514 13.5934 4.828 7.96211 4.86334 7.82929C4.90511 7.6832 5.03043 7.57026 5.15253 7.57026C5.20072 7.57026 5.27784 7.60018 5.32283 7.63668ZM12.7292 7.68649L12.7999 7.77285V10.8109V13.8523L12.7068 13.9486C12.5526 14.1047 12.334 14.0748 12.2376 13.8789C12.1959 13.7992 12.1895 13.58 12.1895 12.5175V11.2492L12.0962 11.1529L12.0031 11.0566H10.8977H9.79242L9.80525 10.8143C9.80849 10.6847 9.82132 10.542 9.83097 10.4988L9.8438 10.4258H10.8753C11.7492 10.4258 11.9227 10.4191 12.0127 10.3727C12.0706 10.3461 12.1316 10.2963 12.1477 10.2664C12.1605 10.2365 12.1798 9.65877 12.1895 8.98806L12.2055 7.76287L12.3148 7.66325C12.4047 7.58024 12.4401 7.56698 12.5397 7.58358C12.6072 7.59355 12.6843 7.63668 12.7292 7.68649ZM9.13688 12.7931C9.13688 13.6099 9.12728 13.7992 9.08873 13.8789C8.99232 14.0748 8.77379 14.1047 8.61958 13.9486L8.52641 13.8523V12.8263V11.8037H8.83164H9.13688V12.7931Z" fill="#A5A5A5"/>
<path d="M4.91008 5.91664C4.84582 5.96973 4.82011 6.0328 4.80726 6.1424C4.79119 6.27851 4.80083 6.30843 4.88437 6.40471C5.11573 6.6703 5.54309 6.43457 5.45954 6.0893C5.4017 5.85022 5.09323 5.75395 4.91008 5.91664Z" fill="#A5A5A5"/>
<path d="M12.357 5.92355C12.1706 6.08624 12.2092 6.39502 12.4341 6.49135C12.6687 6.59426 12.8968 6.44154 12.8968 6.18252C12.8968 5.88037 12.5819 5.72766 12.357 5.92355Z" fill="#A5A5A5"/>
<path d="M15.2357 10.5606C15.1457 10.6535 15.1393 10.6801 15.1553 10.8195C15.1779 11.0221 15.2871 11.125 15.4767 11.125C15.6373 11.125 15.7337 11.0652 15.7883 10.9291C15.8847 10.6868 15.7337 10.4609 15.4767 10.4609C15.361 10.4609 15.316 10.4809 15.2357 10.5606Z" fill="#A5A5A5"/>
<path d="M4.94974 15.1477C4.92083 15.1644 4.87263 15.2241 4.84692 15.2772C4.72161 15.5263 4.86299 15.7753 5.1329 15.7753C5.35139 15.7753 5.45743 15.669 5.45743 15.4433C5.45743 15.2972 5.44458 15.2606 5.36746 15.1909C5.27107 15.1046 5.05899 15.0813 4.94974 15.1477Z" fill="#A5A5A5"/>
<path d="M8.60783 15.189C8.38611 15.4182 8.52749 15.7734 8.83919 15.7734C9.03836 15.7734 9.17014 15.6406 9.17014 15.4414C9.17014 15.2389 9.03836 15.1094 8.83272 15.1094C8.7203 15.1094 8.66886 15.1293 8.60783 15.189Z" fill="#A5A5A5"/>
<path d="M12.3454 15.199C12.2362 15.3219 12.2105 15.448 12.2683 15.5875C12.3261 15.7269 12.4032 15.7734 12.5864 15.7734C12.7085 15.7734 12.7438 15.7568 12.8145 15.6705C12.8724 15.6007 12.8981 15.531 12.8981 15.4414C12.8981 15.3517 12.8724 15.282 12.8145 15.2123C12.7438 15.1226 12.7085 15.1094 12.58 15.1094C12.4547 15.1094 12.4129 15.126 12.3454 15.199Z" fill="#A5A5A5"/>
</g>
</svg>
