<svg width="31" height="26" viewBox="0 0 31 26" fill="none" xmlns="http://www.w3.org/2000/svg">
<g clip-path="url(#clip0_283_12092)">
<path d="M8.42578 12.8242L7.83984 9.07422L4.03125 11.6523L5.14453 12.8242H8.42578Z" fill="#D16A00" stroke="#201F1D"/>
<path d="M27.7031 14.6992H1.62891L3.38672 22.4336L5.67188 25.3047H22.1953L25.9453 24.9531L26.9414 22.7852L27.7031 14.6992Z" fill="#D16A00"/>
<path d="M19.8418 0.341913C19.3614 0.423944 18.9571 0.564569 17.7325 1.06847C13.0801 2.99035 8.6914 5.39269 5.46875 7.79504C4.07422 8.83214 3.23047 9.56457 1.95898 10.842L0.734375 12.0724L0.769531 12.6994C0.886719 14.6623 1.63672 18.3302 2.36328 20.4806C3.01953 22.4318 4.02148 24.3185 4.77734 25.0334C5.06445 25.3029 5.61523 25.5783 6.01953 25.6544C6.21875 25.6896 8.91406 25.713 13.3497 25.713C20.3575 25.713 20.3633 25.713 20.5215 25.59C20.6973 25.4494 20.7325 25.1154 20.5918 24.9162C20.5098 24.8048 20.3516 24.8048 13.3086 24.7755L6.11328 24.7462L5.84961 24.6056C5.46289 24.4064 5.17578 24.1076 4.82422 23.5392C3.70507 21.7345 2.86718 19.3908 2.27539 16.3966C2.17578 15.8986 2.08203 15.4298 2.07031 15.3537L2.04101 15.2248H14.8731C21.9278 15.2248 27.7051 15.2423 27.7051 15.2716C27.7051 15.3947 26.2286 23.6623 26.1817 23.8146C26.0938 24.0724 25.7422 24.465 25.4551 24.6173C25.2266 24.7404 25.1329 24.7462 23.6563 24.7638C22.1973 24.7814 22.086 24.7873 21.9688 24.8986C21.7813 25.0744 21.7989 25.4318 22.004 25.5959C22.1622 25.7189 22.2032 25.7248 23.7793 25.7013L25.3907 25.6837L25.7832 25.4962C26.4512 25.1798 26.9434 24.6173 27.1133 23.9845C27.2891 23.3224 30.752 3.43566 30.752 3.08996C30.752 2.87316 30.711 2.59191 30.6641 2.45714C30.4649 1.88293 29.961 1.41418 29.375 1.25011C29.0293 1.15636 20.9024 0.27746 20.4336 0.289179C20.2579 0.295038 19.9942 0.318475 19.8418 0.341913ZM24.834 1.66613C28.2793 2.02941 29.0704 2.12902 29.2754 2.22863C29.5918 2.38097 29.8145 2.73839 29.8145 3.10168C29.8145 3.30089 28.0508 13.5255 27.9102 14.1525L27.8809 14.2873H14.8848H1.88867L1.7832 13.4142C1.67773 12.5412 1.67773 12.5353 1.79492 12.3712C2.01757 12.0607 3.82812 10.3263 4.56054 9.71691C6.39453 8.19933 8.70898 6.64074 11.3282 5.18175C12.4004 4.5841 15.1133 3.23644 16.3965 2.67394C18.8516 1.58996 19.8301 1.23839 20.4102 1.22668C20.5391 1.22082 22.5313 1.42004 24.834 1.66613Z" fill="#201F1D"/>
<path d="M19.9985 2.09964C19.2778 2.24613 15.2114 4.03324 13.1138 5.12894C10.4243 6.53519 8.87743 7.50199 5.52587 9.88089C3.82079 11.0879 3.72704 11.1934 3.69188 11.8321C3.65087 12.5001 3.89696 12.9454 4.46532 13.2501C4.69969 13.379 4.75243 13.379 7.83446 13.3965C10.0317 13.4083 11.0161 13.3965 11.1274 13.3497C11.4145 13.2266 11.4907 12.8809 11.2915 12.6231L11.1743 12.4708H10.02H8.86571L8.88329 11.2286C8.90673 9.84574 8.87743 9.68167 8.5786 9.2891L8.38524 9.03714L9.24071 8.47464C11.9067 6.73441 15.5102 4.88871 18.9907 3.48246C19.5766 3.24222 20.145 3.03128 20.2563 3.00785C20.4966 2.95511 27.938 3.74027 27.938 3.81644C27.938 3.87503 26.4907 12.1309 26.4438 12.336L26.4145 12.4708H19.5942H12.7681L12.6509 12.6231C12.4458 12.8868 12.4985 13.1797 12.7681 13.3204C12.9087 13.3965 13.8989 13.4083 19.9048 13.4083C24.8911 13.4083 26.9184 13.3907 27.0181 13.3438C27.1001 13.3086 27.188 13.2208 27.2231 13.1504C27.2524 13.0801 27.6684 10.8243 28.1431 8.14066L29.0044 3.25394L28.8931 3.1016C28.8286 3.01957 28.688 2.92582 28.5766 2.90238C28.2954 2.83792 20.7016 2.04105 20.4438 2.04691C20.3266 2.05277 20.1274 2.07621 19.9985 2.09964ZM7.71727 9.80472C7.81102 9.8516 7.89891 9.93363 7.92235 9.9805C7.93993 10.0333 7.95751 10.5489 7.95751 11.129C7.95751 12.0958 7.94579 12.1895 7.84032 12.295C7.77587 12.3594 7.66454 12.4239 7.58837 12.4415C7.51805 12.4649 6.88524 12.4708 6.18798 12.459C4.93993 12.4415 4.91649 12.4415 4.77001 12.3008C4.58837 12.1309 4.56493 11.8379 4.72313 11.6622C4.87548 11.4864 7.39501 9.71683 7.50048 9.71683C7.52977 9.71683 7.62938 9.75785 7.71727 9.80472Z" fill="#201F1D"/>
<path d="M15.9326 16.375C15.7861 16.5625 15.7802 16.7441 15.9033 17.2773C16.0673 18.0156 16.5947 18.6543 17.3271 19L17.7138 19.1816L20.081 19.1992C22.3662 19.2168 22.4541 19.2109 22.8232 19.0879C23.2158 18.959 23.6377 18.6836 23.9131 18.3672C24.4111 17.8047 24.7216 16.6387 24.4521 16.3398C24.3466 16.2227 24.2412 16.2227 20.1982 16.2227H16.0498L15.9326 16.375ZM23.4853 17.2188C23.4853 17.4824 22.9463 18.0273 22.5127 18.1914C22.249 18.291 22.0498 18.3027 20.1455 18.3027C18.1533 18.3027 18.0537 18.2969 17.7959 18.1797C17.4502 18.0156 17.122 17.7227 16.9756 17.4473C16.917 17.3242 16.8642 17.207 16.8642 17.1895C16.8642 17.1719 18.3525 17.1602 20.1748 17.1602C22.4482 17.1602 23.4853 17.1777 23.4853 17.2188Z" fill="#201F1D"/>
</g>
<defs>
<clipPath id="clip0_283_12092">
<rect width="31" height="26" fill="white"/>
</clipPath>
</defs>
</svg>
