<svg width="65" height="64" viewBox="0 0 65 64" fill="none" xmlns="http://www.w3.org/2000/svg">
<mask id="mask0_927_2034" style="mask-type:luminance" maskUnits="userSpaceOnUse" x="0" y="0" width="65" height="64">
<path d="M64.385 0H0.5V63.87H64.385V0Z" fill="white"/>
</mask>
<g mask="url(#mask0_927_2034)">
<path d="M0.5 59.7365C0.815 58.9215 0.806667 58.0448 0.97 57.2015C2.87 47.3865 10.8483 39.5181 20.6733 37.7798C23.29 37.3165 25.9233 37.4098 28.5567 37.4348C28.5567 46.2331 28.5567 55.0331 28.5567 63.8315C27.5183 63.8381 26.48 63.8515 25.4433 63.8515C17.9667 63.8531 10.49 63.8348 3.015 63.8698C1.855 63.8748 0.996667 63.5648 0.501667 62.4798V59.7365H0.5Z" fill="#FF8C00"/>
<path d="M30.3019 -0.000286459C31.2269 0.271379 32.1969 0.318046 33.1203 0.614713C39.7303 2.72971 43.8486 7.14637 45.1253 13.9764C46.8103 23.003 40.7486 31.5663 31.8319 33.373C30.7569 33.5913 29.6653 33.7513 28.5586 33.6497C28.5586 22.433 28.5586 11.2164 28.5586 -0.00195312H30.3036L30.3019 -0.000286459Z" fill="#D16A00"/>
<path d="M28.556 0C28.556 11.2167 28.556 22.4333 28.556 33.6517C23.856 33.6317 19.8393 31.945 16.5543 28.6033C13.0943 25.0833 11.5077 20.795 11.746 15.88C12.1277 8.08167 18.1443 1.435 25.8126 0.226667C26.1043 0.18 26.4376 0.233333 26.686 0H28.556Z" fill="#FF8C00"/>
<path d="M28.5566 63.8305C28.5566 55.0322 28.5566 46.2322 28.5566 37.4339C32.525 37.3205 36.4783 37.3289 40.2733 38.7655C41.38 39.1839 42.4616 39.6472 43.5133 40.1872C43.39 40.2955 43.27 40.4105 43.1416 40.5122C35.245 46.8122 37.05 59.1405 46.4183 62.9239C47.4583 63.3439 48.5566 63.5189 49.6216 63.8305C46.9633 63.8372 44.3033 63.8505 41.645 63.8489C37.2816 63.8489 32.92 63.8372 28.5566 63.8305Z" fill="#D16A00"/>
<path d="M52.6986 63.8319H51.252C51.252 61.3519 51.252 58.8719 51.252 56.3919C52.4853 56.2603 53.1186 55.5703 53.1203 54.3519C53.1203 53.8953 53.1336 53.4369 53.117 52.9803C53.107 52.7086 53.2053 52.6153 53.4753 52.6236C53.9936 52.6386 54.5136 52.6353 55.0336 52.6269C56.0853 52.6103 56.862 51.8119 56.862 50.7569C56.862 49.7019 56.0836 48.9053 55.032 48.8886C54.5136 48.8803 53.9936 48.8753 53.4736 48.8919C53.202 48.9003 53.107 48.8036 53.117 48.5336C53.1336 48.0769 53.122 47.6203 53.1203 47.1619C53.1186 45.9436 52.4836 45.2519 51.252 45.1236C51.252 42.6436 51.252 40.1636 51.252 37.6836C56.4653 37.7486 60.3653 40.1153 62.8186 44.6453C66.3753 51.2119 63.6586 59.2736 56.9203 62.5869C56.7353 62.6769 56.5536 62.7719 56.3703 62.8653C55.1803 63.3169 53.9503 63.6136 52.7003 63.8319H52.6986Z" fill="#D82C48"/>
<path d="M51.2517 56.392C51.2517 58.872 51.2517 61.352 51.2517 63.832C50.7084 63.832 50.1651 63.832 49.6234 63.832C48.5584 63.5203 47.4584 63.3454 46.4201 62.9254C37.0517 59.142 35.2467 46.8137 43.1434 40.5137C43.2717 40.4104 43.3917 40.297 43.5151 40.1887C45.2184 39.042 47.0451 38.1854 49.0867 37.8537C49.8017 37.737 50.5217 37.6237 51.2517 37.6854C51.2517 40.1654 51.2517 42.6454 51.2517 45.1254C49.9751 45.3137 49.3817 45.9854 49.3751 47.2504C49.3751 47.4787 49.3751 47.707 49.3751 47.937C49.3751 48.5692 49.0606 48.8854 48.4317 48.8854C48.1401 48.8854 47.8501 48.8804 47.5584 48.8854C46.4551 48.9104 45.6351 49.7104 45.6351 50.757C45.6351 51.8054 46.4534 52.6054 47.5584 52.632C48.1367 52.647 48.9051 52.437 49.2451 52.7287C49.6401 53.067 49.3484 53.8587 49.3717 54.452C49.4151 55.5504 50.0417 56.2104 51.2517 56.392Z" fill="#F13051"/>
<path d="M52.6989 63.8319C53.9506 63.6136 55.1806 63.3186 56.3689 62.8652C56.0739 63.5136 55.5389 63.8202 54.8573 63.8436C54.1389 63.8686 53.4173 63.8369 52.6973 63.8302L52.6989 63.8319Z" fill="#44A4EB"/>
<path d="M51.2514 56.3917C50.0414 56.2117 49.4148 55.5517 49.3714 54.4517C49.3481 53.8583 49.6398 53.0667 49.2448 52.7283C48.9048 52.4367 48.1364 52.645 47.5581 52.6317C46.4548 52.605 45.6348 51.805 45.6348 50.7567C45.6348 49.7083 46.4548 48.9083 47.5581 48.885C47.8481 48.8783 48.1398 48.885 48.4314 48.885C49.0603 48.885 49.3748 48.5688 49.3748 47.9367C49.3748 47.7083 49.3748 47.48 49.3748 47.25C49.3798 45.985 49.9731 45.3117 51.2514 45.125C52.4831 45.2533 53.1181 45.945 53.1198 47.1633C53.1198 47.62 53.1314 48.0783 53.1164 48.535C53.1064 48.805 53.2014 48.9017 53.4731 48.8933C53.9914 48.8767 54.5114 48.8817 55.0314 48.89C56.0848 48.9067 56.8614 49.7033 56.8614 50.7583C56.8614 51.8133 56.0848 52.6117 55.0331 52.6283C54.5148 52.6367 53.9948 52.6417 53.4748 52.625C53.2048 52.6167 53.1064 52.71 53.1164 52.9817C53.1331 53.4383 53.1214 53.895 53.1198 54.3533C53.1164 55.57 52.4831 56.2617 51.2514 56.3933V56.3917Z" fill="#D9E0F0"/>
</g>
</svg>
