<svg width="64" height="64" viewBox="0 0 64 64" fill="none" xmlns="http://www.w3.org/2000/svg">
<path d="M5.56614 58.4832C8.00352 58.4832 9.97993 56.507 9.97993 54.0694C9.97993 51.6319 8.00352 49.6556 5.56614 49.6556C3.12862 49.6556 1.15234 51.6319 1.15234 54.0694C1.15234 56.507 3.12862 58.4832 5.56614 58.4832ZM59.6351 44.1384C59.6351 46.5759 57.6587 48.5522 55.2213 48.5522C52.7838 48.5522 50.8075 46.5759 50.8075 44.1384C50.8075 41.7009 52.7838 39.7246 55.2213 39.7246C57.6587 39.7246 59.6351 41.7009 59.6351 44.1384Z" fill="#FFCD00"/>
<path d="M55.221 38.6211C54.2242 38.6196 53.2456 38.8885 52.3896 39.3994C51.5336 39.9102 50.8323 40.6437 50.3604 41.5217C49.8884 42.3998 49.6636 43.3894 49.7098 44.3852C49.7561 45.3809 50.0717 46.3455 50.6229 47.176L47.4969 50.3021L38.6218 41.4272C38.4139 41.2252 38.1349 41.1132 37.845 41.1153C37.5552 41.1174 37.2778 41.2335 37.0728 41.4384C36.8678 41.6434 36.7517 41.9208 36.7496 42.2106C36.7475 42.5005 36.8595 42.7795 37.0614 42.9875L46.7166 52.6426C46.9236 52.8494 47.2042 52.9655 47.4968 52.9655C47.7894 52.9655 48.07 52.8494 48.277 52.6426L52.1832 48.7364C54.152 50.0425 56.7338 49.9492 58.6039 48.5052C60.474 47.0612 61.2171 44.5872 60.4522 42.3517C59.6872 40.1163 57.5836 38.6163 55.221 38.6211ZM55.221 47.4487C53.3929 47.4487 51.9106 45.9665 51.9106 44.1383C51.9106 42.3102 53.3929 40.828 55.221 40.828C57.049 40.828 58.5313 42.3102 58.5313 44.1383C58.5313 45.9665 57.049 47.4487 55.221 47.4487ZM18.208 41.4272C18.001 41.2204 17.7204 41.1043 17.4278 41.1043C17.1352 41.1043 16.8546 41.2204 16.6476 41.4272L8.60775 49.467C6.23768 47.8921 3.05989 48.369 1.25603 50.5699C-0.548524 52.7709 -0.391696 55.9804 1.61741 57.9956C3.62706 60.0108 6.8363 60.176 9.0421 58.3786C11.2484 56.5807 11.7338 53.404 10.166 51.0295L18.208 42.9875C18.4148 42.7805 18.5309 42.4999 18.5309 42.2073C18.5309 41.9148 18.4148 41.6342 18.208 41.4272ZM5.56582 57.3797C3.73768 57.3797 2.25548 55.8975 2.25548 54.0694C2.25548 52.2412 3.73768 50.759 5.56582 50.759C7.39382 50.759 8.87617 52.2412 8.87617 54.0694C8.87617 55.8975 7.39382 57.3797 5.56582 57.3797Z" fill="#98A2B3"/>
<path d="M27.6355 0C16.6661 0 7.77344 8.89283 7.77344 19.8621C7.77344 30.8313 27.6355 64 27.6355 64C27.6355 64 47.4976 30.8313 47.4976 19.8621C47.4976 8.89283 38.6047 0 27.6355 0ZM27.6355 26.4828C23.9787 26.4828 21.0148 23.5183 21.0148 19.8621C21.0148 16.2058 23.9787 13.2414 27.6355 13.2414C31.2916 13.2414 34.2562 16.2058 34.2562 19.8621C34.2523 23.5172 31.2907 26.479 27.6355 26.4828Z" fill="#D16A00"/>
</svg>
