<svg width="65" height="64" viewBox="0 0 65 64" fill="none" xmlns="http://www.w3.org/2000/svg">
<path d="M10.1927 0H36.8204C41.9804 0 46.1635 4.18312 46.1635 9.34307V54.6569C46.1635 59.8169 41.9804 64 36.8204 64H10.1927C5.03273 64 0.849609 59.8169 0.849609 54.6569V9.34307C0.849609 4.18312 5.03273 0 10.1927 0Z" fill="#E8E8E8"/>
<path d="M0.849609 9.34307H46.1635C46.1635 4.18312 41.9804 0 36.8204 0H10.1927C5.03273 0 0.849609 4.18312 0.849609 9.34307ZM0.849609 54.6569C0.849609 59.8169 5.03273 64 10.1927 64H36.8204C41.9804 64 46.1635 59.8169 46.1635 54.6569H0.849609Z" fill="#D16A00"/>
<path d="M64.1482 47.883H23.5059V23.3574H37.1467L46.5365 32.7005H47.9146C53.6955 32.7105 59.3353 34.4871 64.0781 37.7925H64.1482V47.883Z" fill="#D16A00"/>
<path d="M49.9006 38.7503C44.8824 38.7244 40.7937 42.7714 40.7678 47.7895C40.7675 47.8207 40.7675 47.852 40.7678 47.8832H59.0568C59.0827 42.865 55.0358 38.776 50.0179 38.7501C49.9786 38.7499 49.9396 38.7501 49.9006 38.7503Z" fill="#212121"/>
<path d="M49.9004 54.6347C53.693 54.6347 56.7675 51.5602 56.7675 47.7675C56.7675 43.9749 53.693 40.9004 49.9004 40.9004C46.1077 40.9004 43.0332 43.9749 43.0332 47.7675C43.0332 51.5602 46.1077 54.6347 49.9004 54.6347Z" fill="#616161"/>
<path d="M49.8997 51.3874C51.8992 51.3874 53.5202 49.7664 53.5202 47.7669C53.5202 45.7674 51.8992 44.1465 49.8997 44.1465C47.9002 44.1465 46.2793 45.7674 46.2793 47.7669C46.2793 49.7664 47.9002 51.3874 49.8997 51.3874Z" fill="#BDBDBD"/>
<path d="M49.901 49.3078C50.7524 49.3078 51.4426 48.6176 51.4426 47.7662C51.4426 46.9148 50.7524 46.2246 49.901 46.2246C49.0496 46.2246 48.3594 46.9148 48.3594 47.7662C48.3594 48.6176 49.0496 49.3078 49.901 49.3078Z" fill="#F5F5F5"/>
<path d="M37.0547 23.334V32.7004H46.5379L37.0547 23.334Z" fill="#3D5AFE"/>
<path d="M37.0547 29.8984H38.6897V35.5043H37.0547V29.8984Z" fill="#212121"/>
<path d="M64.0984 37.8898V44.5636H62.5397C62.5131 42.0086 60.4467 39.9423 57.8918 39.9157V37.8898H64.0984Z" fill="white" stroke="black" stroke-width="0.1"/>
<path d="M23.5059 24.7598H35.6518V32.7014H23.5059V24.7598Z" fill="#304FFE"/>
</svg>
